<svg width="1440" height="540" viewBox="0 0 1440 540" fill="none" xmlns="http://www.w3.org/2000/svg">
<path opacity="0.5" fill-rule="evenodd" clip-rule="evenodd" d="M1548 67.5C1548 99.713 1522.81 126.656 1489.1 133.384C1490.35 139.284 1491 145.335 1491 151.5C1491 182.018 1475.1 209.748 1449.18 230.272V266V540H-147.999V107.645C-148 107.43 -148.001 107.215 -148.001 107C-148.001 106.785 -148 106.57 -147.999 106.355V106L-147.996 106.002C-147.528 61.7266 -115.978 26 -77.1266 26C-37.9836 26 -6.25195 62.2649 -6.25195 107C-6.25195 110.477 -6.44373 113.903 -6.81567 117.264C-2.74451 116.434 1.44702 116 5.72717 116C21.2878 116 35.6774 121.731 47.3677 131.447C60.5413 117.541 78.3997 109 98.0651 109C109.214 109 119.782 111.745 129.245 116.657C153.49 92.3513 189.117 77 228.832 77C298.582 77 355.722 124.351 360.74 184.4C368.647 182.199 377.171 181 386.056 181C414.292 181 438.878 193.11 451.631 210.991C462.358 202.34 477.098 197 493.365 197C515.557 197 534.907 206.939 545.103 221.662C553.701 211.503 566.904 205 581.708 205C591.399 205 600.403 207.787 607.879 212.561C621.395 187.855 648.412 171 679.536 171C696.684 171 712.585 176.117 725.669 184.844C736.091 152.07 770.706 128 811.803 128C849.625 128 881.959 148.388 894.994 177.186C905.356 171.955 917.121 169 929.594 169C951.008 169 970.336 177.709 984.056 191.694C1001.1 177.565 1023.43 169 1047.89 169C1054.4 169 1060.76 169.608 1066.92 170.767C1089.24 144.681 1123.4 128 1161.68 128C1170.89 128 1179.86 128.965 1188.49 130.794C1201.47 77.4416 1263.69 37 1338.5 37C1360.7 37 1381.79 40.5616 1400.82 46.9652C1410.52 19.7269 1439 0 1472.63 0C1514.26 0 1548 30.2208 1548 67.5Z" fill="white"/>
</svg>
