<svg width="421" height="556" viewBox="0 0 421 556" fill="none" xmlns="http://www.w3.org/2000/svg">
<path d="M295.907 211.342C413.339 239.868 458.403 366.597 386.253 439.783C334.278 491.788 303.083 528.855 201.224 529.968C112.325 530.969 9.31149 509.172 3.19505 373.5C-2.97653 246.6 138.226 172.515 295.907 211.342Z" fill="#FAB748"/>
<g clip-path="url(#clip0_114_1433)">
<mask id="mask0_114_1433" style="mask-type:alpha" maskUnits="userSpaceOnUse" x="74" y="457" width="89" height="38">
<path d="M74.1823 457.775V494.671H162.219V457.775H74.1823Z" fill="white"/>
</mask>
<g mask="url(#mask0_114_1433)">
<path d="M104.035 486.668C100.185 482.05 91.6114 482.437 91.8227 488.666C92.034 494.894 97.9834 497.762 106.452 498.53C113.381 499.159 115.9 497.059 115.9 497.059C115.9 497.059 108.585 492.126 104.035 486.668Z" fill="#462683"/>
<path d="M104.035 486.668C100.185 482.05 91.6114 482.437 91.8227 488.666C92.034 494.894 97.9834 497.762 106.452 498.53C113.381 499.159 115.9 497.059 115.9 497.059C115.9 497.059 108.585 492.126 104.035 486.668Z" stroke="#462683" stroke-width="1.29925" stroke-linecap="round"/>
<path d="M104.035 486.668C100.185 482.05 91.6114 482.437 91.8227 488.666C92.034 494.894 97.9834 497.762 106.452 498.53C113.381 499.159 115.9 497.059 115.9 497.059C115.9 497.059 108.585 492.126 104.035 486.668Z" stroke="#462683" stroke-width="1.29925"/>
<path d="M104.035 486.668C100.185 482.05 91.6114 482.437 91.8227 488.666C92.034 494.894 97.9834 497.762 106.452 498.53C113.381 499.159 115.9 497.059 115.9 497.059C115.9 497.059 108.585 492.126 104.035 486.668Z" stroke="#462683" stroke-width="1.29925"/>
<path d="M114.831 484.041C108.486 477.604 95.6917 479.254 96.7874 488.558C97.8831 497.862 107.154 501.416 119.936 501.509C130.393 501.585 133.904 498.125 133.904 498.125C133.904 498.125 122.33 491.649 114.831 484.041Z" fill="#462683"/>
<path d="M114.831 484.041C108.486 477.604 95.6917 479.254 96.7874 488.558C97.8831 497.862 107.154 501.416 119.936 501.509C130.393 501.585 133.904 498.125 133.904 498.125C133.904 498.125 122.33 491.649 114.831 484.041Z" stroke="#462683" stroke-width="1.95304" stroke-linecap="round"/>
<path d="M114.831 484.041C108.486 477.604 95.6917 479.254 96.7874 488.558C97.8831 497.862 107.154 501.416 119.936 501.509C130.393 501.585 133.904 498.125 133.904 498.125C133.904 498.125 122.33 491.649 114.831 484.041Z" stroke="#462683" stroke-width="1.95304"/>
<path d="M114.831 484.041C108.486 477.604 95.6917 479.254 96.7874 488.558C97.8831 497.862 107.154 501.416 119.936 501.509C130.393 501.585 133.904 498.125 133.904 498.125C133.904 498.125 122.33 491.649 114.831 484.041Z" stroke="#462683" stroke-width="1.95304"/>
<path d="M132.271 483.15C127.44 477.128 116.425 477.417 116.545 485.418C116.666 493.419 124.234 497.245 135.087 498.436C143.966 499.41 147.251 496.775 147.251 496.775C147.251 496.775 137.98 490.266 132.271 483.15Z" fill="#462683"/>
<path d="M132.271 483.15C127.44 477.128 116.425 477.417 116.545 485.418C116.666 493.419 124.234 497.245 135.087 498.436C143.966 499.41 147.251 496.775 147.251 496.775C147.251 496.775 137.98 490.266 132.271 483.15Z" stroke="#462683" stroke-width="1.66821" stroke-linecap="round"/>
<path d="M132.271 483.15C127.44 477.128 116.425 477.417 116.545 485.418C116.666 493.419 124.234 497.245 135.087 498.436C143.966 499.41 147.251 496.775 147.251 496.775C147.251 496.775 137.98 490.266 132.271 483.15Z" stroke="#462683" stroke-width="1.66821"/>
<path d="M132.271 483.15C127.44 477.128 116.425 477.417 116.545 485.418C116.666 493.419 124.234 497.245 135.087 498.436C143.966 499.41 147.251 496.775 147.251 496.775C147.251 496.775 137.98 490.266 132.271 483.15Z" stroke="#462683" stroke-width="1.66821"/>
<path d="M146.23 491.71C143.809 490.218 140.024 491.681 141.055 494.442C142.087 497.203 145.185 497.594 149.097 496.664C152.298 495.904 153.111 494.583 153.111 494.583C153.111 494.583 149.09 493.472 146.23 491.71Z" fill="#462683"/>
<path d="M146.23 491.71C143.809 490.218 140.024 491.681 141.055 494.442C142.087 497.203 145.185 497.594 149.097 496.664C152.298 495.904 153.111 494.583 153.111 494.583C153.111 494.583 149.09 493.472 146.23 491.71Z" stroke="#462683" stroke-width="0.61438" stroke-linecap="round"/>
<path d="M146.23 491.71C143.809 490.218 140.024 491.681 141.055 494.442C142.087 497.203 145.185 497.594 149.097 496.664C152.298 495.904 153.111 494.583 153.111 494.583C153.111 494.583 149.09 493.472 146.23 491.71Z" stroke="#462683" stroke-width="0.61438"/>
<path d="M146.23 491.71C143.809 490.218 140.024 491.681 141.055 494.442C142.087 497.203 145.185 497.594 149.097 496.664C152.298 495.904 153.111 494.583 153.111 494.583C153.111 494.583 149.09 493.472 146.23 491.71Z" stroke="#462683" stroke-width="0.61438"/>
<path d="M153.677 493.503C153.676 493.503 153.676 493.504 153.676 493.504C153.676 493.505 153.677 493.505 153.678 493.504C153.678 493.504 153.678 493.503 153.678 493.503C153.678 493.503 153.677 493.504 153.677 493.503Z" fill="#462683"/>
<path d="M153.677 493.503C153.676 493.503 153.676 493.504 153.676 493.504C153.676 493.505 153.677 493.505 153.678 493.504C153.678 493.504 153.678 493.503 153.678 493.503C153.678 493.503 153.677 493.504 153.677 493.503Z" stroke="#462683" stroke-width="0.000117746" stroke-linecap="round"/>
<path d="M153.677 493.503C153.676 493.503 153.676 493.504 153.676 493.504C153.676 493.505 153.677 493.505 153.678 493.504C153.678 493.504 153.678 493.503 153.678 493.503C153.678 493.503 153.677 493.504 153.677 493.503Z" stroke="#462683" stroke-width="0.000117746"/>
<path d="M153.677 493.503C153.676 493.503 153.676 493.504 153.676 493.504C153.676 493.505 153.677 493.505 153.678 493.504C153.678 493.504 153.678 493.503 153.678 493.503C153.678 493.503 153.677 493.504 153.677 493.503Z" stroke="#462683" stroke-width="0.000117746"/>
<path d="M90.0745 493.708C89.1388 493.188 87.7392 493.802 88.1736 494.823C88.6079 495.844 89.7802 495.939 91.2364 495.524C92.4279 495.184 92.7118 494.674 92.7118 494.674C92.7118 494.674 91.1804 494.323 90.0745 493.708Z" fill="#462683"/>
<path d="M90.0745 493.708C89.1388 493.188 87.7392 493.802 88.1736 494.823C88.6079 495.844 89.7802 495.939 91.2364 495.524C92.4279 495.184 92.7118 494.674 92.7118 494.674C92.7118 494.674 91.1804 494.323 90.0745 493.708Z" stroke="#462683" stroke-width="0.231371" stroke-linecap="round"/>
<path d="M90.0745 493.708C89.1388 493.188 87.7392 493.802 88.1736 494.823C88.6079 495.844 89.7802 495.939 91.2364 495.524C92.4279 495.184 92.7118 494.674 92.7118 494.674C92.7118 494.674 91.1804 494.323 90.0745 493.708Z" stroke="#462683" stroke-width="0.231371"/>
<path d="M90.0745 493.708C89.1388 493.188 87.7392 493.802 88.1736 494.823C88.6079 495.844 89.7802 495.939 91.2364 495.524C92.4279 495.184 92.7118 494.674 92.7118 494.674C92.7118 494.674 91.1804 494.323 90.0745 493.708Z" stroke="#462683" stroke-width="0.231371"/>
<path d="M104.468 487.087C100.102 482.494 91.1119 483.488 91.7613 490.025C92.4108 496.561 98.8647 499.17 107.824 499.397C115.154 499.582 117.659 497.201 117.659 497.201C117.659 497.201 109.628 492.515 104.468 487.087Z" fill="#462683"/>
<path d="M104.468 487.087C100.102 482.494 91.1119 483.488 91.7613 490.025C92.4108 496.561 98.8647 499.17 107.824 499.397C115.154 499.582 117.659 497.201 117.659 497.201C117.659 497.201 109.628 492.515 104.468 487.087Z" stroke="#462683" stroke-width="1.36937" stroke-linecap="round"/>
<path d="M104.468 487.087C100.102 482.494 91.1119 483.488 91.7613 490.025C92.4108 496.561 98.8647 499.17 107.824 499.397C115.154 499.582 117.659 497.201 117.659 497.201C117.659 497.201 109.628 492.515 104.468 487.087Z" stroke="#462683" stroke-width="1.36937"/>
<path d="M104.468 487.087C100.102 482.494 91.1119 483.488 91.7613 490.025C92.4108 496.561 98.8647 499.17 107.824 499.397C115.154 499.582 117.659 497.201 117.659 497.201C117.659 497.201 109.628 492.515 104.468 487.087Z" stroke="#462683" stroke-width="1.36937"/>
<path d="M118.199 492.336C133.269 492.336 145.504 493.382 145.504 494.671C145.504 495.96 133.269 497.006 118.199 497.006C103.13 497.006 90.8945 495.96 90.8945 494.671C90.8945 493.382 103.13 492.336 118.199 492.336Z" fill="#462683"/>
<path d="M118.199 492.336C133.269 492.336 145.504 493.382 145.504 494.671C145.504 495.96 133.269 497.006 118.199 497.006C103.13 497.006 90.8945 495.96 90.8945 494.671C90.8945 493.382 103.13 492.336 118.199 492.336Z" stroke="#462683" stroke-width="1.96244"/>
<path d="M118.199 492.336C133.269 492.336 145.504 493.382 145.504 494.671C145.504 495.96 133.269 497.006 118.199 497.006C103.13 497.006 90.8945 495.96 90.8945 494.671C90.8945 493.382 103.13 492.336 118.199 492.336Z" stroke="#462683" stroke-width="1.96244"/>
</g>
<mask id="mask1_114_1433" style="mask-type:alpha" maskUnits="userSpaceOnUse" x="74" y="457" width="89" height="38">
<path d="M74.1823 457.775V494.671H162.219V457.775H74.1823Z" fill="white"/>
</mask>
<g mask="url(#mask1_114_1433)">
<path d="M104.035 486.668C100.185 482.05 91.6114 482.437 91.8227 488.666C92.034 494.894 97.9834 497.762 106.452 498.53C113.381 499.159 115.9 497.059 115.9 497.059C115.9 497.059 108.585 492.126 104.035 486.668Z" fill="white"/>
<path d="M104.035 486.668C100.185 482.05 91.6114 482.437 91.8227 488.666C92.034 494.894 97.9834 497.762 106.452 498.53C113.381 499.159 115.9 497.059 115.9 497.059C115.9 497.059 108.585 492.126 104.035 486.668Z" stroke="white" stroke-width="0.25985"/>
<path d="M114.831 484.041C108.486 477.604 95.6917 479.254 96.7874 488.558C97.8831 497.862 107.154 501.416 119.936 501.509C130.393 501.585 133.904 498.125 133.904 498.125C133.904 498.125 122.33 491.649 114.831 484.041Z" fill="white"/>
<path d="M114.831 484.041C108.486 477.604 95.6917 479.254 96.7874 488.558C97.8831 497.862 107.154 501.416 119.936 501.509C130.393 501.585 133.904 498.125 133.904 498.125C133.904 498.125 122.33 491.649 114.831 484.041Z" stroke="white" stroke-width="0.390608"/>
<path d="M132.271 483.15C127.44 477.128 116.425 477.417 116.545 485.418C116.666 493.419 124.234 497.245 135.087 498.436C143.966 499.41 147.251 496.775 147.251 496.775C147.251 496.775 137.98 490.266 132.271 483.15Z" fill="white"/>
<path d="M132.271 483.15C127.44 477.128 116.425 477.417 116.545 485.418C116.666 493.419 124.234 497.245 135.087 498.436C143.966 499.41 147.251 496.775 147.251 496.775C147.251 496.775 137.98 490.266 132.271 483.15Z" stroke="white" stroke-width="0.333642"/>
<path d="M146.23 491.71C143.809 490.218 140.024 491.681 141.055 494.442C142.087 497.203 145.185 497.594 149.097 496.664C152.298 495.904 153.111 494.583 153.111 494.583C153.111 494.583 149.09 493.472 146.23 491.71Z" fill="white"/>
<path d="M146.23 491.71C143.809 490.218 140.024 491.681 141.055 494.442C142.087 497.203 145.185 497.594 149.097 496.664C152.298 495.904 153.111 494.583 153.111 494.583C153.111 494.583 149.09 493.472 146.23 491.71Z" stroke="white" stroke-width="0.122876"/>
<path d="M153.677 493.503C153.676 493.503 153.676 493.504 153.676 493.504C153.676 493.505 153.677 493.505 153.678 493.504C153.678 493.504 153.678 493.503 153.678 493.503C153.678 493.503 153.677 493.504 153.677 493.503Z" fill="white"/>
<path d="M153.677 493.503C153.676 493.503 153.676 493.504 153.676 493.504C153.676 493.505 153.677 493.505 153.678 493.504C153.678 493.504 153.678 493.503 153.678 493.503C153.678 493.503 153.677 493.504 153.677 493.503Z" stroke="white" stroke-width="2.35493e-05"/>
<path d="M90.0745 493.708C89.1388 493.188 87.7392 493.802 88.1736 494.823C88.6079 495.844 89.7802 495.939 91.2364 495.524C92.4279 495.184 92.7118 494.674 92.7118 494.674C92.7118 494.674 91.1804 494.323 90.0745 493.708Z" fill="white"/>
<path d="M90.0745 493.708C89.1388 493.188 87.7392 493.802 88.1736 494.823C88.6079 495.844 89.7802 495.939 91.2364 495.524C92.4279 495.184 92.7118 494.674 92.7118 494.674C92.7118 494.674 91.1804 494.323 90.0745 493.708Z" stroke="white" stroke-width="0.0462743"/>
<path d="M104.468 487.087C100.102 482.494 91.1119 483.488 91.7613 490.025C92.4108 496.561 98.8647 499.17 107.824 499.397C115.154 499.582 117.659 497.201 117.659 497.201C117.659 497.201 109.628 492.515 104.468 487.087Z" fill="white"/>
<path d="M104.468 487.087C100.102 482.494 91.1119 483.488 91.7613 490.025C92.4108 496.561 98.8647 499.17 107.824 499.397C115.154 499.582 117.659 497.201 117.659 497.201C117.659 497.201 109.628 492.515 104.468 487.087Z" stroke="white" stroke-width="0.273874"/>
<path d="M118.199 492.336C133.269 492.336 145.504 493.382 145.504 494.671C145.504 495.96 133.269 497.006 118.199 497.006C103.13 497.006 90.8945 495.96 90.8945 494.671C90.8945 493.382 103.13 492.336 118.199 492.336Z" fill="white"/>
<path d="M118.199 492.336C133.269 492.336 145.504 493.382 145.504 494.671C145.504 495.96 133.269 497.006 118.199 497.006C103.13 497.006 90.8945 495.96 90.8945 494.671C90.8945 493.382 103.13 492.336 118.199 492.336Z" stroke="white" stroke-width="0.392488"/>
</g>
<path d="M88.7773 494.554H154.046" stroke="#462683" stroke-width="0.784975" stroke-linecap="round"/>
<path d="M130.833 465.544C131.042 465.854 131.301 466.165 131.532 466.457C136.838 472.792 145.057 476.308 153.279 476.304C163.709 476.352 200.702 476.621 211.758 476.681C222.992 476.62 259.557 476.354 270.236 476.304C278.435 476.301 286.684 472.804 291.984 466.477C292.214 466.185 292.473 465.873 292.682 465.564L292.722 465.504C294.208 463.635 296.983 465.556 295.715 467.589C295.615 467.728 295.555 467.827 295.475 467.926L295.256 468.224C295.096 468.423 294.956 468.601 294.797 468.8C288.766 475.911 279.536 479.856 270.256 479.858C235.25 480.136 188.305 480.19 153.299 479.818C143.701 479.823 133.98 475.565 128.08 467.887C126.295 465.818 129.1 463.384 130.833 465.544Z" fill="#462683"/>
<path d="M268.102 479.838H268.301H269.638H270.316H270.396C271.274 479.54 272.231 479.362 273.209 479.362C273.768 479.362 274.326 479.421 274.865 479.521C275.464 479.441 276.062 479.342 276.661 479.243C276.78 479.223 276.92 479.203 277.04 479.163C275.863 478.647 274.586 478.369 273.209 478.369C271.333 478.349 269.578 478.885 268.102 479.838Z" fill="#462683"/>
<path d="M146.934 479.203C146.934 479.223 146.934 479.223 146.934 479.203C147.652 479.342 148.35 479.441 149.048 479.54C149.647 479.401 150.265 479.342 150.904 479.342C151.902 479.342 152.859 479.521 153.737 479.818H153.957H155.293H156.012C154.535 478.885 152.779 478.329 150.884 478.329C149.487 478.349 148.151 478.667 146.934 479.203Z" fill="#462683"/>
<path d="M273.209 478.063C277.958 478.063 281.807 481.855 281.807 486.531C281.807 491.208 277.958 494.999 273.209 494.999C268.459 494.999 264.609 491.208 264.609 486.531C264.609 481.855 268.459 478.063 273.209 478.063Z" fill="#462683"/>
<path d="M273.21 483.113C275.127 483.113 276.682 484.643 276.682 486.531C276.682 488.419 275.127 489.95 273.21 489.95C271.293 489.95 269.738 488.419 269.738 486.531C269.738 484.643 271.293 483.113 273.21 483.113Z" fill="#FAB748"/>
<path d="M268.301 483.728C269.438 481.778 271.57 480.752 273.689 480.921" stroke="white" stroke-width="0.338801"/>
<path d="M150.939 478.063C155.688 478.063 159.538 481.855 159.538 486.531C159.538 491.208 155.688 494.999 150.939 494.999C146.19 494.999 142.34 491.208 142.34 486.531C142.34 481.855 146.19 478.063 150.939 478.063Z" fill="#462683"/>
<path d="M150.941 483.113C152.858 483.113 154.412 484.643 154.412 486.531C154.412 488.419 152.858 489.95 150.941 489.95C149.023 489.95 147.469 488.419 147.469 486.531C147.469 484.643 149.023 483.113 150.941 483.113Z" fill="#FAB748"/>
<path d="M146.035 483.728C147.173 481.778 149.305 480.752 151.423 480.921" stroke="white" stroke-width="0.338801"/>
<path d="M331.139 102.771C320.638 95.1535 281.243 126.105 293.726 139.511C306.21 152.918 341.64 110.389 331.139 102.771Z" fill="#5A2347"/>
<path d="M312.363 91.8403C306.708 93.9693 290.641 101.909 280.365 99.0472C268.306 95.6664 262.902 89.3169 247.169 80.6368C226.513 69.2395 201.958 73.7827 195.194 88.6198C187.16 107.029 183.589 112.821 163.589 115.041C143.248 116.983 129.524 135.663 144.272 166.446C147.213 172.376 168.951 200.241 207.531 192.436C256.105 182.608 304.977 127.509 321.197 110.024C321.197 110.024 331.546 97.8648 326.619 93.3782C323.527 90.5625 315.931 90.4971 312.363 91.8403Z" fill="black"/>
<path d="M299.597 130.992C299.597 130.992 318.015 125.743 323.369 108.028C325.554 100.797 333.473 96.8535 340.43 99.7982C341.886 100.414 343.294 101.333 344.576 102.65C349.861 108.077 349.795 113.895 349.235 117.007C349.018 118.215 348.333 119.292 347.316 119.978C345.859 120.961 343.922 122.801 341.821 125.251C336.469 131.473 329.26 145.253 327.011 151.397C326.969 151.475 314.545 164.304 298.382 150.648C298.382 150.648 289.365 140.104 299.597 130.992Z" fill="white"/>
<path d="M299.597 130.992C299.597 130.992 318.015 125.743 323.369 108.028C325.554 100.797 333.473 96.8535 340.43 99.7982C341.886 100.414 343.294 101.333 344.576 102.65C349.861 108.077 349.795 113.895 349.235 117.007C349.018 118.215 348.333 119.292 347.316 119.978C345.859 120.961 343.922 122.801 341.821 125.251C336.469 131.473 329.26 145.253 327.011 151.397C326.969 151.475 314.544 164.304 298.382 150.648C298.382 150.648 289.365 140.104 299.597 130.992Z" stroke="#462683" stroke-width="1.24599" stroke-linecap="round" stroke-linejoin="round"/>
<path d="M348.623 119.284C347.154 119.782 344.636 121.97 341.821 125.251C336.774 122.359 335.158 117.418 336.308 116.265C337.379 115.191 341.468 110.166 342.799 110.74C345.501 111.888 349.917 114.975 348.623 119.284Z" fill="#462683"/>
<path d="M218.555 197.34L291.893 137.053C291.893 137.053 296.651 153.549 309.765 156.147C322.88 158.744 328.263 148.578 333.37 145.805C338.476 143.032 338.473 240.634 338.473 240.634C338.473 240.634 300.474 250.606 259.922 234.117C219.37 217.629 218.555 197.34 218.555 197.34Z" fill="#FAB748"/>
<path d="M201.768 365.352C199.703 362.713 193.568 353.787 184.661 355.166C171.777 357.16 173.742 375.219 183.79 387.988C188.472 393.826 195.173 399.912 204.069 401.288C209.815 402.136 221.939 405.146 230.261 408.052C234.164 409.442 246.047 412.837 249.576 412.129C249.576 412.129 213.54 380.323 201.768 365.352Z" stroke="#462683" stroke-width="2.07665"/>
<path d="M201.767 365.352C199.702 362.711 193.568 353.787 184.662 355.166C171.777 357.16 173.741 375.219 183.789 387.986C188.473 393.825 195.176 399.91 204.068 401.289C209.817 402.134 221.941 405.146 230.259 408.053C234.163 409.442 246.049 412.837 249.578 412.13C249.578 412.13 213.541 380.322 201.767 365.352Z" fill="#462683"/>
<path d="M238.251 425.15C242.428 420.282 246.462 415.613 249.583 412.13C249.546 412.145 219.602 384.315 219.582 384.313C216.073 391.083 211.454 400.106 207.234 408.379" fill="white"/>
<path d="M222.242 443.818C226.785 438.507 234.143 429.988 239.556 423.666L208.259 406.372C204.927 412.952 196.914 428.655 195.498 431.548C195.498 431.548 188.779 444.627 200.793 449.792C213.407 455.215 222.242 443.818 222.242 443.818Z" fill="#D8C5F3"/>
<path d="M233.721 430.475C233.284 430.992 232.848 431.508 232.411 432.004H232.391L203.383 416.021C203.68 415.445 203.978 414.85 204.276 414.254C204.296 414.254 204.296 414.254 204.296 414.274H204.316L233.503 430.356C233.582 430.376 233.642 430.416 233.721 430.475C233.701 430.475 233.701 430.475 233.721 430.475Z" fill="white"/>
<path d="M222.242 443.818C226.785 438.507 234.143 429.988 239.556 423.666L263.634 394.934L222.874 377.744L208.259 406.372C204.927 412.952 196.914 428.655 195.498 431.548C195.498 431.548 188.779 444.627 200.793 449.792C213.407 455.215 222.242 443.818 222.242 443.818Z" stroke="#462683" stroke-width="1.24599"/>
<path d="M291.888 331.857C292.027 304.457 273.284 262.365 273.284 262.365C273.284 262.365 254.388 212.669 220.75 222.313C181.994 233.424 208.934 282.597 208.934 282.597C208.934 282.597 221.601 315.497 234.685 331.837C234.685 331.837 250.559 355.789 266.842 353.993C292.721 351.14 291.888 331.857 291.888 331.857Z" fill="white"/>
<path d="M291.888 331.857C292.027 304.457 273.284 262.365 273.284 262.365C273.284 262.365 254.388 212.669 220.75 222.313C181.994 233.424 208.934 282.597 208.934 282.597C208.934 282.597 221.601 315.497 234.685 331.837C234.685 331.837 250.559 355.789 266.842 353.993C292.721 351.14 291.888 331.857 291.888 331.857Z" stroke="#462683" stroke-width="1.24599" stroke-linecap="round" stroke-linejoin="round"/>
<path d="M291.893 331.857C291.695 370.673 249.602 412.149 249.602 412.149C244.278 410.797 238.455 407.571 231.184 401.691C223.195 395.236 211.35 386.289 204.154 374.702C192.3 354.589 184.371 354.998 184.371 354.998C204.91 355.014 221.327 346.442 234.058 332.291C240.472 324.703 246.034 313.994 264.999 313.094C293.074 311.762 291.893 331.857 291.893 331.857Z" fill="white"/>
<path d="M291.578 328.407C291.976 330.451 291.893 331.857 291.893 331.857C291.695 370.673 249.602 412.149 249.602 412.149C244.278 410.797 238.455 407.571 231.184 401.691C223.195 395.236 211.35 386.288 204.154 374.701C192.3 354.589 184.371 354.998 184.371 354.998C204.91 355.014 221.327 346.442 234.058 332.291C237.126 328.662 239.999 324.319 244.236 320.676" stroke="#462683" stroke-width="1.24599" stroke-linecap="round" stroke-linejoin="round"/>
<path d="M291.387 322.17C291.474 328.077 291.821 333.29 291.821 333.29" stroke="#462683" stroke-width="1.01237"/>
<path d="M176.566 476.091C181.35 455.314 192.941 435.582 196.109 431.226C201.323 432.872 200.836 440.224 208.15 440.975L215.32 441.778C215.32 441.778 239.27 446.409 250.394 458.326C259.189 467.749 259.524 471.096 259.524 471.096C259.524 471.096 256.007 477.343 239.057 477.677C220.442 478.043 176.566 476.091 176.566 476.091Z" fill="white"/>
<path d="M176.566 476.091C181.35 455.314 192.941 435.582 196.109 431.226C201.323 432.872 200.836 440.224 208.15 440.975L215.32 441.778C215.32 441.778 239.27 446.409 250.394 458.326C259.189 467.749 259.524 471.096 259.524 471.096C259.524 471.096 256.007 477.343 239.057 477.677C220.442 478.043 176.566 476.091 176.566 476.091Z" stroke="#462683" stroke-width="1.45366"/>
<path d="M184.09 454.964C184.09 454.964 187.258 455.014 191.604 451.555C195.949 448.097 196.438 446.579 202.698 445.278" stroke="#462683" stroke-width="1.24599" stroke-linecap="round" stroke-linejoin="round"/>
<path d="M180.625 462.204C182.623 460.932 186.034 459.489 190.637 460.186C196.876 461.132 197.774 465.013 202.655 466.699C208.5 468.718 210.762 464.872 217.911 468.057C226.201 471.749 243.063 477.592 257.778 467.658" stroke="#462683" stroke-width="1.24599" stroke-linecap="round" stroke-linejoin="round"/>
<path d="M196.137 469.509C196.182 467.361 193.243 465.558 189.575 465.482C185.906 465.407 182.896 467.088 182.852 469.236C182.808 471.385 185.746 473.188 189.415 473.264C193.083 473.339 196.093 471.658 196.137 469.509Z" stroke="#FAB748" stroke-width="1.03833" stroke-linecap="round" stroke-linejoin="round"/>
<path d="M196.137 469.509C196.182 467.361 193.243 465.558 189.575 465.482C185.906 465.407 182.896 467.088 182.852 469.236C182.808 471.385 185.746 473.188 189.415 473.264C193.083 473.339 196.093 471.658 196.137 469.509Z" fill="#FAB748"/>
<path d="M227.357 444.531C217.092 447.592 213.531 455.327 213.531 455.327" stroke="#FAB748" stroke-width="3.11498" stroke-linecap="round" stroke-linejoin="round"/>
<path d="M235.324 447.99C225.256 450.115 220.871 458.326 220.871 458.326" stroke="#FAB748" stroke-width="3.11498" stroke-linecap="round" stroke-linejoin="round"/>
<path d="M242.46 451.934C233.334 453.745 229.367 460.779 229.367 460.779" stroke="#FAB748" stroke-width="3.11498" stroke-linecap="round" stroke-linejoin="round"/>
<path d="M125.934 246.832C125.934 246.832 116.582 259.589 99.5332 255.313C82.8531 251.122 83.3617 241.706 95.2678 214.687C103.937 195.136 124.536 176.37 134.168 184.604C134.175 184.605 139.331 192.496 130.758 216.729C129.098 221.139 132.031 234.807 125.934 246.832Z" stroke="#462683" stroke-width="1.24599"/>
<path d="M125.933 246.833C125.933 246.833 116.582 259.589 99.5339 255.313C82.8534 251.122 83.3616 241.706 95.268 214.687C103.937 195.135 124.535 176.37 134.168 184.605C134.176 184.606 139.332 192.497 130.758 216.729C129.097 221.139 132.031 234.808 125.933 246.833Z" fill="#462683"/>
<path d="M137.199 240.95C132.453 235.878 126.309 229.973 118.701 223.904C113.889 220.092 109.665 216.605 105.959 213.27C104.532 211.991 103.163 210.721 101.888 209.488L86.0408 217.022L72.1866 229.976C75.0249 235.376 78.1185 241.042 81.3846 246.76C86.9598 256.533 93.0823 266.402 99.3946 275.197C101.615 278.292 103.859 281.253 106.11 284.028" fill="white"/>
<path d="M137.199 240.95C132.453 235.878 126.309 229.973 118.701 223.904C113.889 220.092 109.665 216.605 105.959 213.27C104.532 211.991 103.163 210.721 101.888 209.488L86.0408 217.022L72.1866 229.976C75.0249 235.376 78.1185 241.042 81.3846 246.76C86.9598 256.533 93.0823 266.402 99.3946 275.197C101.615 278.292 103.859 281.253 106.11 284.028" fill="white"/>
<path d="M83.2367 178.841C86.1874 191.035 91.6508 199.498 101.862 209.504C96.4237 213.021 84.0904 221.794 72.1839 229.977C61.6328 209.89 54.5616 193.624 54.5039 193.492C54.5039 193.492 45.6919 178.527 62.235 172.528C79.5885 166.235 83.2367 178.841 83.2367 178.841Z" fill="#D8C5F3"/>
<path d="M66.7716 219.405L67.6655 221.196C67.7966 221.138 71.2042 219.078 95.7809 203.069C95.7809 203.069 94.532 201.579 94.4996 201.532C70.0641 217.425 66.8867 219.324 66.7716 219.405Z" fill="white"/>
<path d="M82.2479 178.833C86.0703 190.518 91.6523 199.498 101.864 209.504C103.303 211.033 120.784 225.552 120.784 225.552L92.4278 266.044C92.4278 266.044 75.6375 236.408 72.2172 230.068C61.6661 209.982 54.5631 193.623 54.5055 193.492C54.5055 193.492 45.6935 178.526 62.2366 172.527C79.59 166.235 82.2479 178.833 82.2479 178.833Z" stroke="#462683" stroke-width="1.24599"/>
<path d="M148.847 305.586C98.9815 309.338 76.0811 241.207 76.0811 241.207C90.4507 233.333 96.3063 241.43 114.23 228.998C126.486 219.765 136.08 197.35 133.748 184.602C159.69 212.266 149.657 256.318 149.657 256.318C149.657 256.318 171.135 268.434 169.335 285.489C167.535 302.543 148.847 305.586 148.847 305.586Z" fill="white"/>
<path d="M148.847 305.586C98.9815 309.338 76.0811 241.207 76.0811 241.207C90.4507 233.333 96.3063 241.43 114.23 228.998C126.486 219.765 136.08 197.35 133.748 184.602C159.69 212.266 149.657 256.318 149.657 256.318C149.657 256.318 171.135 268.434 169.335 285.489C167.535 302.543 148.847 305.586 148.847 305.586Z" stroke="#462683" stroke-width="1.24599" stroke-linecap="round" stroke-linejoin="round"/>
<path d="M1.4273 178.442C2.584 174.502 8.2935 170.92 16.1804 167.687C30.0109 162.018 50.5371 157.424 64.9488 153.868C71.4977 152.252 76.7839 150.85 79.6056 149.658C81.5331 161.957 81.0063 174.956 89.5191 194.593C77.5392 194.832 78.1225 187.378 59.4056 192.549C39.0146 198.131 9.50782 190.114 1.48933 178.527C1.46454 178.503 1.43961 178.458 1.4273 178.442Z" fill="white"/>
<path d="M82.0688 171.302C82.0688 171.302 78.4059 172.177 74.6963 177.229C70.9869 182.28 70.9911 184.081 64.2755 187.34" stroke="#462683" stroke-width="1.24599" stroke-linecap="round" stroke-linejoin="round"/>
<path d="M81.0837 162.339C81.0837 162.339 78.2722 168.198 70.565 169.273C64.3152 170.144 62.3489 166.68 57.1899 166.454C51.0118 166.184 49.9395 170.515 42.1789 169.499C33.1809 168.322 15.3531 167.525 4.07842 181.241" stroke="#462683" stroke-width="1.24599" stroke-linecap="round" stroke-linejoin="round"/>
<path d="M62.6368 161.905C63.2067 163.977 66.5367 164.868 70.0749 163.895C73.6128 162.922 76.019 160.454 75.4491 158.381C74.8792 156.309 71.5491 155.418 68.011 156.391C64.4729 157.364 62.0669 159.832 62.6368 161.905Z" fill="#FAB748"/>
<path d="M62.6368 161.905C63.2067 163.977 66.5367 164.868 70.0749 163.895C73.6128 162.922 76.019 160.454 75.4491 158.381C74.8792 156.309 71.5491 155.418 68.011 156.391C64.4729 157.364 62.0669 159.832 62.6368 161.905Z" stroke="#FAB748" stroke-width="1.03833" stroke-linecap="round" stroke-linejoin="round"/>
<mask id="mask2_114_1433" style="mask-type:alpha" maskUnits="userSpaceOnUse" x="1" y="149" width="89" height="48">
<path d="M1.4312 178.442C2.58791 174.502 8.29741 170.919 16.1843 167.687C30.0148 162.017 50.541 157.424 64.9527 153.868C71.5017 152.251 76.7878 150.849 79.6095 149.658C81.537 161.957 81.0102 174.956 89.523 194.593C77.5431 194.832 78.1265 187.377 59.4095 192.548C39.0185 198.131 9.51173 190.114 1.49324 178.527C1.46844 178.503 1.44352 178.457 1.4312 178.442Z" fill="white"/>
<path d="M82.0727 171.301C82.0727 171.301 78.4098 172.177 74.7002 177.229C70.9908 182.28 70.995 184.081 64.2794 187.34" stroke="#5B2448" stroke-width="1.03833" stroke-linecap="round" stroke-linejoin="round"/>
<path d="M81.0876 162.339C81.0876 162.339 78.2761 168.198 70.5689 169.273C64.3191 170.143 62.3528 166.679 57.1938 166.454C51.0157 166.184 49.9434 170.515 42.1828 169.499C33.1848 168.321 15.357 167.525 4.08233 181.241" stroke="#5B2448" stroke-width="1.03833" stroke-linecap="round" stroke-linejoin="round"/>
<path d="M62.6407 161.904C63.2106 163.977 66.5406 164.868 70.0788 163.895C73.6167 162.922 76.0229 160.453 75.453 158.381C74.8831 156.309 71.553 155.417 68.0149 156.39C64.4768 157.363 62.0708 159.832 62.6407 161.904Z" stroke="#5B2448" stroke-width="1.03833" stroke-linecap="round" stroke-linejoin="round"/>
<path d="M39.8397 194.74C48.8077 188.881 50.017 180.453 50.017 180.453" stroke="#FFCF2D" stroke-width="3.11498" stroke-linecap="round" stroke-linejoin="round"/>
<path d="M31.2102 193.696C40.2554 188.79 42.1186 179.671 42.1186 179.671" stroke="#FFCF2D" stroke-width="3.11498" stroke-linecap="round" stroke-linejoin="round"/>
<path d="M23.2504 191.948C31.482 187.612 33.2804 179.739 33.2804 179.739" stroke="#FFCF2D" stroke-width="3.11498" stroke-linecap="round" stroke-linejoin="round"/>
</mask>
<g mask="url(#mask2_114_1433)">
<path d="M1.33581 178.252C3.46426 169.894 18.0737 165.608 40.6618 159.431C71.8821 150.894 79.3292 148.468 79.2098 147.49C74.5104 133.616 49.2468 141.198 33.2268 147.681C15.1784 154.984 -5.34987 167.001 1.33581 178.252Z" fill="#462683"/>
<path d="M1.33581 178.252C3.46426 169.894 18.0737 165.608 40.6618 159.431C71.8821 150.894 79.3292 148.468 79.2098 147.49C74.5104 133.616 49.2468 141.198 33.2268 147.681C15.1784 154.984 -5.34987 167.001 1.33581 178.252Z" stroke="#462683" stroke-width="1.03833"/>
</g>
<path d="M1.4273 178.442C2.584 174.502 8.2935 170.92 16.1804 167.687C30.0109 162.018 50.5371 157.424 64.9488 153.868C71.4977 152.252 76.7839 150.85 79.6056 149.658C81.5331 161.957 81.0063 174.956 89.5191 194.593C77.5392 194.832 78.1226 187.378 59.4056 192.549C39.0146 198.131 9.50782 190.114 1.48933 178.527C1.46454 178.503 1.43961 178.458 1.4273 178.442Z" stroke="#462683" stroke-width="1.24599" stroke-linecap="round" stroke-linejoin="round"/>
<path d="M39.8124 194.741C48.7803 188.882 49.9896 180.453 49.9896 180.453" stroke="#FAB748" stroke-width="3.11498" stroke-linecap="round" stroke-linejoin="round"/>
<path d="M31.1867 193.696C40.232 188.79 42.0952 179.671 42.0952 179.671" stroke="#FAB748" stroke-width="3.11498" stroke-linecap="round" stroke-linejoin="round"/>
<path d="M23.2231 191.948C31.4547 187.612 33.2531 179.739 33.2531 179.739" stroke="#FAB748" stroke-width="3.11498" stroke-linecap="round" stroke-linejoin="round"/>
<path d="M140.17 305.665C144.208 306.265 148.325 305.972 152.269 304.918C170.011 300.177 189.282 293.092 208.931 282.596C208.931 282.596 241.066 265.09 253.64 245.27C266.215 225.449 253.122 210.389 246.075 204.725C246.075 204.725 228.403 189.239 193.385 201.45C172.384 209.471 151.106 241.428 143.991 252.909C142.406 255.465 140.456 257.773 138.189 259.75C132.72 264.522 122.433 274.918 122.774 285.367C123.258 300.201 132.696 304.555 140.17 305.665Z" fill="white"/>
<path d="M153.543 304.674C170.955 299.933 189.725 292.86 208.941 282.596C208.941 282.596 241.076 265.09 253.65 245.27C266.224 225.449 253.132 210.389 246.084 204.725C246.084 204.725 228.412 189.239 193.394 201.45C172.393 209.471 151.115 241.428 144 252.909C142.602 255.165 140.918 257.227 138.984 259.04" stroke="#462683" stroke-width="1.24599" stroke-linecap="round" stroke-linejoin="round"/>
<path d="M134.426 304.882C134.426 304.882 143.598 306.932 153.042 304.976" stroke="#462683" stroke-width="1.16813" stroke-linecap="round"/>
<path d="M371.827 192.204C375.48 191.787 382.396 193.233 386.9 195.842C393.529 199.661 388.873 209.528 379.87 209.239C354.206 208.499 333.328 218.698 333.328 218.698C333.328 218.698 344.416 195.442 371.827 192.204Z" fill="#462683"/>
<path d="M208.131 140.995C204.396 141.706 202.946 144.741 202.569 147.776C202.065 151.82 203.42 156.106 209.539 161.976C214.195 166.537 221.302 169.938 225.729 182.655C230.432 196.161 246.649 198.964 246.649 198.964C246.649 198.964 236.177 166.531 233.12 160.786C230.062 155.04 223.807 150.129 222.066 148.309C218.942 145.31 212.856 140.177 208.131 140.995Z" fill="#462683"/>
<path d="M208.131 140.995C204.396 141.706 202.946 144.741 202.569 147.776C202.065 151.82 203.42 156.106 209.539 161.976C214.195 166.537 221.302 169.938 225.729 182.655C230.432 196.161 246.649 198.964 246.649 198.964C246.649 198.964 236.177 166.531 233.12 160.786C230.062 155.04 223.807 150.129 222.066 148.309C218.942 145.31 212.856 140.177 208.131 140.995Z" stroke="#FAB748" stroke-width="1.03833" stroke-linecap="round" stroke-linejoin="round"/>
<path d="M356.364 259.921C335.431 270.248 333.561 230.075 333.444 218.816C333.424 217.019 333.45 215.958 333.45 215.958C333.146 213.41 332.768 209.835 332.836 205.926C332.999 196.461 335.775 185.054 348.532 181.62C366.554 176.766 371.176 189.239 371.176 189.239C371.595 190.861 371.967 192.481 372.295 194.098C373.12 198.141 373.672 202.16 373.98 206.108C375.982 231.767 367.647 254.356 356.364 259.921Z" fill="white"/>
<path d="M356.364 259.921C335.431 270.248 333.561 230.075 333.444 218.816C333.424 217.019 333.45 215.958 333.45 215.958C333.146 213.41 332.768 209.835 332.836 205.926C332.999 196.461 335.775 185.054 348.532 181.62C366.554 176.766 371.176 189.239 371.176 189.239C371.595 190.861 371.967 192.481 372.295 194.098C373.12 198.141 373.672 202.16 373.98 206.108C375.982 231.767 367.647 254.356 356.364 259.921Z" stroke="#462683" stroke-width="1.24599"/>
<path d="M255.984 185.49C245.935 201.603 204.419 234.216 195.769 210.389C188.932 191.56 198.349 172.876 210.057 158.978C213.15 155.307 216.403 151.971 219.557 149.054C219.559 149.052 219.562 149.05 219.564 149.048C219.915 148.774 234.458 137.554 249.106 144.072C256.514 147.367 270.281 162.564 255.984 185.49Z" fill="white"/>
<path d="M255.984 185.49C245.935 201.603 204.419 234.216 195.769 210.389C188.932 191.56 198.349 172.876 210.057 158.978C213.15 155.307 216.403 151.971 219.557 149.054C219.559 149.052 219.562 149.05 219.564 149.048C219.915 148.774 234.458 137.554 249.106 144.072C256.514 147.367 270.281 162.564 255.984 185.49Z" stroke="#462683" stroke-width="1.24599"/>
<path d="M246.883 198.97C236.085 192.987 233.343 182.516 229.228 167.326C227.378 160.497 223.552 152.261 220.951 148.935C215.4 141.117 208.04 140.844 207.723 140.864C208.338 140.804 221.514 138.268 233.349 137.368C252.878 135.394 273.453 121.764 288.025 122.261C307.907 122.938 304.336 141.827 299.432 150.206C299.432 150.206 293.413 162.509 276.777 175.613C260.14 188.716 246.883 198.97 246.883 198.97Z" fill="#FAB748"/>
<path d="M327.012 151.436C330.319 137.341 342.537 136.576 350.627 151.707C353.47 156.977 357.434 163.043 367 175.87C376.615 187.844 387.238 195.956 387.417 196.075C387.318 196.016 380.732 193.085 371.507 195.244C366.889 196.342 360.571 199.012 353.186 203.343C344.344 208.462 336.006 215.805 333.345 218.863C333.345 218.863 321.16 191.109 327.012 151.436Z" fill="#FAB748"/>
<path d="M249.102 148.119L270.185 148.084L270.383 221.977L249.3 222.011L249.102 148.119Z" fill="#D9C6F4"/>
<path d="M256.302 206.946C258.9 205.053 262.542 205.626 264.438 208.227C266.334 210.828 265.764 214.471 263.166 216.365C260.569 218.258 256.926 217.685 255.03 215.084C253.135 212.483 253.704 208.84 256.302 206.946Z" fill="white"/>
<path d="M253.453 153.936L265.839 153.916L265.864 163.11L253.478 163.129L253.453 153.936Z" fill="white"/>
<path d="M271.172 142.337L292.255 142.225L292.728 216.116L271.645 216.228L271.172 142.337Z" fill="#D9C6F4"/>
<path d="M278.591 201.138C281.182 199.235 284.827 199.795 286.732 202.388C288.637 204.982 288.081 208.628 285.491 210.531C282.9 212.434 279.255 211.874 277.35 209.28C275.444 206.686 276 203.041 278.591 201.138Z" fill="white"/>
<path d="M275.547 148.139L287.933 148.074L287.992 157.266L275.606 157.332L275.547 148.139Z" fill="white"/>
<path d="M271.172 142.338L271.584 216.271" stroke="white" stroke-width="0.830661" stroke-miterlimit="10"/>
<path d="M292.122 146.923L313.204 147.06L312.799 220.952L291.717 220.814L292.122 146.923Z" fill="#D9C6F4"/>
<path d="M298.84 205.807C301.454 203.935 305.091 204.538 306.966 207.154C308.84 209.77 308.241 213.409 305.628 215.281C303.014 217.153 299.376 216.55 297.502 213.934C295.628 211.318 296.227 207.679 298.84 205.807Z" fill="white"/>
<path d="M296.424 152.776L308.809 152.857L308.759 162.05L296.373 161.969L296.424 152.776Z" fill="white"/>
<path d="M292.122 146.922L291.655 220.856" stroke="white" stroke-width="0.830661" stroke-miterlimit="10"/>
<path d="M317.443 150.979L338.484 152.322L333.854 226.07L312.814 224.727L317.443 150.979Z" fill="#D8C5F3"/>
<path d="M320.781 210.151C323.497 208.432 327.094 209.242 328.816 211.961C330.537 214.68 329.731 218.279 327.015 219.998C324.299 221.718 320.702 220.908 318.98 218.189C317.258 215.47 318.065 211.871 320.781 210.151Z" fill="white"/>
<path d="M321.409 157.069L333.77 157.858L333.194 167.033L320.833 166.244L321.409 157.069Z" fill="white"/>
<path d="M323.46 241.118C323.46 241.118 311.446 233.096 324.097 227.446C336.748 221.796 350.872 228.244 346.799 236.804C342.727 245.364 323.46 241.118 323.46 241.118Z" fill="white"/>
<path d="M327.556 236.613C310.226 243.718 281.198 241.812 281.198 241.812C252.577 239.574 223.299 236.939 207.572 224.906C190.333 211.716 192.735 198.948 206.787 191.422C220.65 183.997 248.728 199.148 256.503 205.073C263.131 210.122 277.314 215.637 292.419 216.987C307.524 218.336 330.389 215.145 333.366 225.262C335.749 233.357 327.556 236.613 327.556 236.613Z" fill="white"/>
<path d="M327.558 236.613C310.228 243.718 281.201 241.812 281.201 241.812C252.579 239.574 223.301 236.939 207.574 224.906C202.533 221.048 199.171 217.227 197.289 213.562" fill="white"/>
<path d="M327.558 236.613C310.228 243.718 281.201 241.812 281.201 241.812C252.579 239.574 223.301 236.939 207.574 224.906C202.533 221.048 199.171 217.227 197.289 213.562" stroke="#462683" stroke-width="1.24599" stroke-linecap="round" stroke-linejoin="round"/>
<path d="M226.641 194.806C240.038 192.137 252.4 202.409 256.506 205.073C263.495 209.607 277.317 215.637 292.422 216.987C307.526 218.337 330.391 215.145 333.369 225.262C335.751 233.357 327.558 236.613 327.558 236.613C310.228 243.718 281.201 241.812 281.201 241.812" stroke="#462683" stroke-width="1.24599" stroke-linecap="round" stroke-linejoin="round"/>
<path d="M326.977 220.034C326.977 220.034 336.739 220.149 338.992 221.882C341.245 223.615 326.685 227.543 323.452 226.503C320.218 225.464 320.552 220.562 326.977 220.034Z" fill="white"/>
<path d="M331.672 220.453C353.248 216.446 359.31 220.945 359.464 222.143C359.639 223.494 357.688 223.659 354.612 224.158C351.536 224.656 340.857 225.934 333.622 229.096" fill="white"/>
<path d="M331.672 220.453C353.248 216.446 359.31 220.945 359.464 222.143C359.638 223.494 357.688 223.659 354.612 224.158C351.536 224.656 340.857 225.934 333.622 229.096" stroke="#462683" stroke-width="1.24599" stroke-linecap="round" stroke-linejoin="round"/>
<path d="M359.356 227.125C355.587 227.991 349.868 229.551 343.413 231.284C336.957 233.017 334.95 234.187 327.556 236.613C327.556 236.613 324.279 237.621 323.57 235.01C322.861 232.398 325.606 231.371 325.606 231.371C325.606 231.371 333.695 226.738 347.095 224.612C347.095 224.612 359.209 222.296 361.378 224.222C363.573 226.172 359.356 227.125 359.356 227.125Z" fill="white"/>
<path d="M325.609 231.37C325.609 231.37 333.698 226.738 347.098 224.612C347.098 224.612 359.212 222.296 361.381 224.222C363.576 226.171 359.359 227.125 359.359 227.125C355.59 227.991 349.871 229.551 343.416 231.284C336.96 233.017 333.506 234.749 326.112 237.175" stroke="#462683" stroke-width="1.24599" stroke-linecap="round" stroke-linejoin="round"/>
<path d="M315.854 225.926C321.804 223.384 325.388 222.258 329.284 221.68C333.18 221.103 334.018 220.294 333.097 218.863C332.176 217.432 325.881 214.044 301.617 217.386" fill="white"/>
<path d="M315.854 225.926C321.804 223.384 325.388 222.258 329.284 221.68C333.18 221.103 334.018 220.294 333.097 218.863C332.176 217.432 325.881 214.044 301.617 217.386" stroke="#462683" stroke-width="1.24599" stroke-linecap="round" stroke-linejoin="round"/>
<path d="M360.574 256.936C348.641 268.673 330.439 275.258 298.56 269.69C271.912 265.036 252.796 253.379 236.091 246.295C236.091 246.295 230.423 243.545 232.329 238.086C234.236 232.627 248.23 233.32 258.757 237.479C269.285 241.638 297.634 244.527 320.018 238.952C348.653 231.822 351.061 232.255 358.346 236.804C371.011 244.715 360.574 256.936 360.574 256.936Z" fill="white"/>
<path d="M359.979 257.512C348.037 268.887 329.913 275.166 298.56 269.69C271.912 265.035 252.796 253.379 236.091 246.295C236.091 246.295 230.423 243.545 232.329 238.086C234.236 232.627 248.23 233.32 258.757 237.479C259.212 237.659 259.7 237.836 260.219 238.01" stroke="#462683" stroke-width="1.24599" stroke-linecap="round"/>
<path d="M236.337 245.818C229.401 243.128 227.787 242.912 220.512 241.279C213.237 239.646 208.96 239.871 206.867 239.871C204.774 239.871 204.042 239.464 204.206 238.775C204.37 238.086 205.424 235.703 209.901 235.804C214.378 235.905 226.551 236.613 236.09 241.292C245.629 245.971 239.424 247.016 236.337 245.818Z" fill="white"/>
<path d="M236.337 245.818C229.401 243.128 227.787 242.912 220.512 241.279C213.237 239.646 208.96 239.871 206.867 239.871C204.774 239.871 204.042 239.464 204.206 238.775C204.37 238.086 205.424 235.703 209.901 235.804C213.392 235.883 221.565 236.331 229.518 238.743" stroke="#462683" stroke-width="1.24599" stroke-linecap="round"/>
<path d="M213.324 230.608C207.85 230.894 205.086 233.947 205.283 234.982C205.499 236.114 206.748 235.789 209.15 236.067C209.15 236.067 216.041 236.588 223.015 239.532C229.988 242.476 233.235 245.04 233.729 245.376C234.223 245.711 237.671 247.011 240.53 245.566C243.39 244.122 240.979 239.879 235.043 236.44C229.107 233 226.299 232.555 220.277 231.356C215.922 230.49 213.324 230.608 213.324 230.608Z" fill="white"/>
<path d="M233.905 235.796C228.722 232.938 225.901 232.476 220.277 231.356C215.922 230.49 213.324 230.608 213.324 230.608C207.85 230.894 205.086 233.947 205.283 234.982C205.499 236.114 206.748 235.789 209.15 236.067C209.15 236.067 216.041 236.588 223.015 239.532C229.988 242.476 233.235 245.04 233.729 245.376C233.857 245.462 234.181 245.613 234.641 245.764" stroke="#462683" stroke-width="1.24599" stroke-linecap="round"/>
<path d="M254.24 235.962C246.136 233.407 234.24 228.317 228.301 230.526C223.059 232.476 236.251 235.66 243.782 242.664" fill="white"/>
<path d="M254.24 235.962C246.136 233.407 234.24 228.317 228.301 230.526C223.059 232.476 236.251 235.66 243.782 242.664" stroke="#462683" stroke-width="1.24599" stroke-linecap="round" stroke-linejoin="round"/>
<path d="M194.164 204.924C194.685 209.007 197.943 214.349 197.943 214.349L194.164 204.924Z" fill="white"/>
<path d="M194.164 204.924C194.685 209.007 197.943 214.349 197.943 214.349" stroke="#462683" stroke-width="0.77875" stroke-linecap="round"/>
<path d="M359.391 257.848C359.391 257.848 361.389 256.545 363.821 253.07L359.391 257.848Z" fill="white"/>
<path d="M359.391 257.848C359.391 257.848 361.389 256.545 363.821 253.07" stroke="#462683" stroke-width="1.01237" stroke-linecap="round"/>
<path d="M234.188 245.762C234.188 245.762 237.06 246.874 238.265 247.291L234.188 245.762Z" fill="#9B3C82"/>
<path d="M234.188 245.762C234.188 245.762 237.06 246.874 238.265 247.291" stroke="#462683" stroke-width="1.24599" stroke-linecap="round"/>
<path d="M254.172 235.94C255.915 236.503 258.757 237.479 258.757 237.479C269.285 241.638 297.633 244.526 320.017 238.952C321.801 238.508 325.289 237.566 327.83 236.599" stroke="#462683" stroke-width="1.24599" stroke-linecap="round" stroke-linejoin="round"/>
<path d="M315.753 103.403C315.554 103.462 315.335 103.501 315.077 103.539C308.342 104.744 278.875 105.063 277.339 96.5989C276.114 89.8434 295.924 85.8916 305.162 84.4391C305.52 84.3811 305.858 84.3229 306.195 84.2846C308.222 83.975 309.553 83.8215 309.751 83.7826L309.771 83.7827L316.592 82.5653L323.623 100.742L315.753 103.403Z" fill="#D9C6F4"/>
<path d="M315.747 103.4C315.549 103.458 315.33 103.497 315.071 103.536C312.257 102.254 304.297 96.7033 305.158 84.4165C305.516 84.3584 305.853 84.3001 306.191 84.2617C308.217 83.952 309.548 83.7984 309.747 83.7596L309.767 83.7596C309.767 83.7667 314.098 83.0268 314.098 83.0268C314.098 83.0268 317.688 87.1449 318.755 91.2209C319.35 93.4967 320.912 101.685 320.912 101.685C320.912 101.685 317.355 102.85 315.747 103.4Z" fill="#462683"/>
<path d="M346.187 119.474C368.399 124.643 366.897 110.742 364.355 96.5178C365.783 95.3983 367.277 92.4579 365.08 91.7784C362.735 91.2758 361.357 89.2844 360.534 87.1802C355.025 71.5568 343.483 60.7218 326.063 67.6169C303.923 76.3801 316.019 102.55 316.309 102.901C319.972 107.331 324.13 106.067 329.245 110.236C330.473 111.237 335.079 114.974 338.422 116.804C342.322 118.374 344.142 118.881 346.187 119.474Z" fill="white"/>
<path d="M337.186 116.078C337.611 116.341 338.025 116.586 338.422 116.803C342.322 118.373 344.142 118.88 346.187 119.473C368.399 124.642 366.897 110.741 364.355 96.5166C365.783 95.397 367.277 92.4566 365.08 91.7771C362.735 91.2745 361.357 89.2831 360.534 87.1789C359.662 84.7046 358.638 82.3504 357.463 80.1675" stroke="#462683" stroke-width="1.24599" stroke-linecap="round" stroke-linejoin="round"/>
<path d="M348.136 88.6146C345.685 90.4478 344.995 93.3366 346.027 94.3991C347.058 95.4618 349.8 94.7168 351.872 92.4631C354.001 90.1472 354.956 87.5948 353.981 86.6788C352.969 85.7296 350.568 86.7957 348.136 88.6146Z" fill="#462683"/>
<path d="M352.235 94.5098C353.158 93.5853 355.424 91.4186 357.022 88.6432C357.244 88.2559 357.738 88.1222 358.126 88.3445L358.133 88.349C359.133 88.9341 360.582 90.165 359.251 91.916C357.615 94.0678 353.739 95.6392 352.389 95.1969C352.173 95.1208 352.059 94.8839 352.135 94.6677C352.156 94.6081 352.19 94.5541 352.235 94.5098Z" fill="#462683"/>
<path d="M358.041 81.469C350.629 88.4549 338.086 96.5703 329.474 99.4106C324.754 100.698 320.82 101.844 316.265 102.705C316.006 102.756 315.732 102.807 315.492 102.856C291.501 73.3642 342.467 44.354 358.041 81.469Z" fill="#D8C5F3"/>
<path d="M358.109 81.4308C357.421 82.114 356.346 83.0743 355.485 83.7985C355.478 83.8081 355.469 83.8164 355.458 83.8229C354.053 85.0088 352.322 86.3552 350.394 87.7469C350.232 87.8635 350.085 87.9679 349.954 88.0628C348.359 86.4419 346.749 82.8862 347.203 80.0187C347.656 77.1511 349.6 74.4801 352.963 72.9125C355.985 76.4761 357.743 80.6328 358.109 81.4308Z" fill="#462683"/>
<path d="M360.923 105.239C359.893 105.93 358.571 105.927 357.5 105.423C356.529 104.965 355.764 104.095 355.611 102.954C355.581 102.693 355.337 102.506 355.077 102.55C354.883 102.583 354.731 102.735 354.699 102.929C354.304 105.511 357.051 107.623 359.488 107.063C360.236 106.92 362.156 106.191 361.481 105.231C361.315 105.108 361.085 105.112 360.923 105.239Z" fill="#462683"/>
<path d="M329.47 99.4096C329.47 99.4096 323.28 95.5877 317.821 98.9678C312.671 102.156 315.873 110.966 326.269 113.188C327.96 113.549 330.858 113.827 333.043 113.52C334.297 113.304 338.578 110.851 335.517 105.269C333.642 101.851 329.47 99.4096 329.47 99.4096Z" fill="white"/>
<path d="M329.47 99.4096C329.47 99.4096 323.28 95.5877 317.821 98.9678C312.671 102.156 315.873 110.966 326.269 113.188C326.956 113.334 327.841 113.467 328.798 113.553" stroke="#462683" stroke-width="1.24599" stroke-linecap="round" stroke-linejoin="round"/>
<path d="M319.85 103.418C319.85 103.418 325.01 101.647 329.483 106.835" stroke="#462683" stroke-width="1.03833" stroke-miterlimit="10" stroke-linecap="round"/>
</g>
<defs>
<clipPath id="clip0_114_1433">
<rect width="421" height="556" fill="white"/>
</clipPath>
</defs>
</svg>
