<svg width="121" height="117" viewBox="0 0 121 117" fill="none" xmlns="http://www.w3.org/2000/svg">
<path d="M15.7534 48.2915L9.70035 46.7567L14.8135 52.0078L13.684 56.5087L7.92411 49.7142L0 52.62L1.04333 48.4898L7.9586 46.3255L1.96594 44.808L2.86268 41.2555L8.85534 42.7644L3.79391 37.5823L4.83724 33.4435L10.4333 39.7552L18.7281 36.5045L17.59 41.0141L10.5971 43.2042L16.6501 44.7304L15.7534 48.2915Z" fill="white"/>
<path d="M16.2102 28.9943C15.9085 29.4771 15.8136 30.0031 15.9429 30.5894C16.0723 31.2103 16.3913 31.6759 16.9 31.9949C17.426 32.3312 17.9865 32.4174 18.5642 32.2622C19.1678 32.107 19.6161 31.788 19.9266 31.3051C20.237 30.8136 20.3232 30.2618 20.1852 29.6582C20.0559 29.0719 19.7282 28.6149 19.2281 28.3045C18.7108 27.9768 18.1589 27.8906 17.5554 28.0372C16.969 28.1751 16.5207 28.5028 16.2102 28.9943ZM15.9171 26.3385L15.141 25.847L16.9604 22.9585L25.0225 28.0285L23.2117 30.9171L22.3236 30.3652C22.7461 31.4 22.6082 32.4778 21.9011 33.5987C21.1941 34.7282 20.1594 35.4267 18.797 35.7026C17.495 35.9613 16.2706 35.7198 15.1152 34.9955C13.7873 34.1678 12.9768 33.0727 12.6664 31.719C12.3818 30.486 12.6146 29.2788 13.3562 28.0975C13.9684 27.1146 14.8306 26.5282 15.9171 26.3385Z" fill="white"/>
<path d="M26.0816 26.7611L19.5371 19.8372L22.0118 17.4919L24.2278 19.8372L26.53 17.6471L24.314 15.3104L26.7973 12.9651L31.4966 17.9403L32.6434 16.8538L36.3942 20.8202L34.2299 22.8724L32.3243 20.8547L30.8671 22.2343L28.3752 19.6044L26.073 21.7859L28.5563 24.4158L26.0816 26.7611Z" fill="white"/>
<path d="M36.3949 9.84375C35.8948 10.1197 35.5672 10.5422 35.3947 11.1113C35.2137 11.7148 35.2654 12.2839 35.5499 12.8013C35.8517 13.3531 36.2915 13.698 36.8778 13.8446C37.4814 13.9998 38.0246 13.9395 38.5247 13.6635C39.0334 13.379 39.3697 12.9392 39.5422 12.3443C39.706 11.7666 39.6456 11.2147 39.3611 10.6888C39.0679 10.1542 38.6196 9.80926 38.0332 9.64543C37.4469 9.49885 36.895 9.56783 36.3949 9.84375ZM37.4124 7.37771L36.9727 6.57581L39.9388 4.92029L44.5432 13.2497L41.5685 14.9052L41.0684 13.9912C40.939 15.1035 40.2923 15.983 39.1455 16.6211C37.9815 17.2677 36.7398 17.3798 35.4292 16.9573C34.1703 16.5521 33.2132 15.7502 32.5493 14.5603C31.7905 13.1979 31.6094 11.8442 31.9888 10.5077C32.3337 9.29191 33.1184 8.34343 34.3342 7.67087C35.343 7.11903 36.3691 7.01556 37.4124 7.37771Z" fill="white"/>
<path d="M54.4533 3.57517C53.8928 3.66139 53.4358 3.94593 53.0737 4.42017C52.6943 4.9289 52.5477 5.47212 52.6425 6.06708C52.746 6.6879 53.0392 7.16214 53.5393 7.49842C54.0566 7.85194 54.5912 7.98128 55.1517 7.88643C55.7294 7.79158 56.195 7.49842 56.5658 6.98969C56.9193 6.4982 57.0487 5.96361 56.9538 5.36865C56.859 4.76507 56.5572 4.29083 56.0571 3.93731C55.5656 3.60103 55.031 3.48032 54.4533 3.57517ZM56.2554 1.60061L56.1088 0.695241L59.4802 0.160645L60.9805 9.56782L57.6091 10.1024L57.4453 9.06772C56.9452 10.0679 56.0398 10.6715 54.7378 10.8784C53.4186 11.0854 52.2114 10.7664 51.1077 9.92135C50.0558 9.11083 49.4263 8.03301 49.2108 6.6879C48.9607 5.14447 49.2453 3.80797 50.0644 2.68705C50.8059 1.66096 51.8665 1.04014 53.2375 0.824579C54.3929 0.643506 55.3931 0.902182 56.2554 1.60061Z" fill="white"/>
<path d="M69.4408 7.76567L69.8806 3.0319L67.6129 2.82496L67.4663 4.43737C67.3973 5.14442 67.2507 5.73938 67.0265 6.21361C66.7592 6.75683 66.4229 7.17072 66.0091 7.44664L69.4408 7.76567ZM64.6898 0.151978L73.4158 0.962495L72.7605 8.06746L74.1401 8.1968L73.6659 13.3358L70.6997 13.0599L70.9584 10.3007L64.6553 9.71436L64.3966 12.4736L61.4219 12.1976L61.8961 7.06725C62.4221 7.07587 62.8705 6.92066 63.2412 6.61025C63.8534 6.11014 64.2242 5.23065 64.3449 3.97176L64.6898 0.151978Z" fill="white"/>
<path d="M81.8878 6.02397C81.3532 5.83427 80.8186 5.86014 80.2753 6.11019C79.6976 6.36887 79.3096 6.78275 79.1113 7.34321C78.9044 7.92955 78.9302 8.49863 79.2148 9.03323C79.4993 9.58507 79.9132 9.95584 80.4478 10.1542C80.9996 10.3525 81.5515 10.3094 82.1119 10.0421C82.6552 9.78339 83.0259 9.36951 83.2329 8.80904C83.4398 8.23133 83.4053 7.67087 83.1294 7.11903C82.8535 6.58443 82.4396 6.22229 81.8878 6.02397ZM84.4142 5.16171L84.7246 4.29946L87.9408 5.44626L84.7504 14.4223L81.5342 13.2755L81.8878 12.2925C80.9651 12.9306 79.8873 13.0255 78.6371 12.5857C77.3782 12.1373 76.4728 11.2837 75.9123 10.0076C75.3777 8.7918 75.3433 7.54153 75.8003 6.25678C76.3262 4.78232 77.2143 3.74762 78.4646 3.15267C79.6114 2.60945 80.8358 2.57496 82.1464 3.04057C83.2329 3.42859 83.9917 4.13563 84.4142 5.16171Z" fill="white"/>
<path d="M85.666 14.6724L92.3743 7.73987L94.7973 9.44713L93.754 15.0173L98.6343 12.1374L101.057 13.836L96.8322 22.5016L94.2109 20.6737L96.4356 16.1641L91.7535 18.9405L90.7447 18.2335L91.7621 12.8875L88.2786 16.509L85.666 14.6724Z" fill="white"/>
<path d="M103.548 26.9766L107.212 23.9501L105.764 22.1911L104.513 23.2258C103.962 23.6828 103.444 23.9932 102.944 24.1656C102.375 24.3639 101.84 24.4157 101.358 24.3208L103.548 26.9766ZM105.591 18.2419L111.17 24.9934L105.669 29.5375L106.548 30.6067L102.573 33.8918L100.676 31.5896L102.815 29.822L98.7795 24.9416L96.6411 26.7093L94.7441 24.4071L98.7191 21.1219C99.0899 21.5013 99.5124 21.7082 99.9953 21.7599C100.78 21.8462 101.668 21.484 102.642 20.6821L105.591 18.2419Z" fill="white"/>
<path d="M113.558 34.5473C113.316 34.0299 112.911 33.6764 112.359 33.4608C111.764 33.2366 111.204 33.2539 110.66 33.5125C110.091 33.7798 109.721 34.2024 109.54 34.7801C109.35 35.375 109.376 35.9269 109.617 36.4442C109.867 36.9702 110.281 37.341 110.867 37.5479C111.436 37.7548 111.988 37.7203 112.532 37.4703C113.083 37.2116 113.454 36.7891 113.652 36.2028C113.842 35.6251 113.808 35.0732 113.558 34.5473ZM115.955 35.7199L116.782 35.3233L118.248 38.4015L109.643 42.4886L108.177 39.4104L109.117 38.962C108.013 38.7637 107.177 38.0652 106.616 36.8667C106.047 35.6596 106.013 34.4093 106.513 33.1159C106.996 31.8829 107.858 30.9689 109.083 30.3826C110.497 29.71 111.85 29.6065 113.161 30.0808C114.351 30.5033 115.248 31.3483 115.843 32.6072C116.343 33.6678 116.386 34.7025 115.955 35.7199Z" fill="white"/>
<path d="M117.918 48.1795C117.806 47.5931 117.504 47.1275 117.013 46.7912C116.504 46.4377 115.944 46.317 115.349 46.4377C114.797 46.5412 114.34 46.8516 113.995 47.369C113.659 47.8691 113.547 48.4123 113.65 48.9986C113.762 49.6022 114.064 50.0592 114.555 50.3696C115.064 50.7231 115.599 50.8438 116.159 50.7404C116.754 50.6283 117.228 50.3092 117.573 49.8005C117.918 49.309 118.03 48.7744 117.918 48.1795ZM111.641 47.2396L106.528 48.214L105.898 44.8598L119.419 42.2903L120.048 45.6444L119.031 45.8341C120.048 46.3774 120.677 47.2482 120.902 48.4468C121.152 49.7574 120.902 50.9559 120.177 52.0337C119.41 53.1633 118.298 53.8617 116.84 54.1463C115.357 54.4308 114.029 54.1549 112.874 53.3357C111.848 52.6201 111.219 51.6371 110.986 50.3782C110.762 49.2228 110.986 48.1795 111.641 47.2396Z" fill="white"/>
<path d="M22.2247 78.6601L17.8876 81.3504L20.5865 85.7048L24.9236 83.0231L26.8033 86.0497L15.1801 93.2495L13.3004 90.223L18.0083 87.3085L15.3008 82.9455L10.6016 85.8686L8.73047 82.8507L20.3536 75.6509L22.2247 78.6601Z" fill="white"/>
<path d="M26.2332 95.1118C25.8279 94.7238 25.3364 94.5255 24.7587 94.5255C24.181 94.5169 23.6809 94.7324 23.267 95.1722C22.8876 95.5688 22.7066 96.0689 22.7238 96.6639C22.7411 97.2416 22.9566 97.7331 23.3705 98.1297C23.7758 98.5177 24.2672 98.6988 24.845 98.6902C25.4227 98.6988 25.9141 98.4918 26.3108 98.078C26.7074 97.6641 26.8971 97.1554 26.8799 96.5518C26.8454 95.9655 26.6298 95.4912 26.2332 95.1118ZM28.7682 100.415C27.8542 101.372 26.7333 101.863 25.414 101.889C23.9741 101.915 22.6376 101.337 21.4046 100.165C20.1802 98.992 19.5421 97.69 19.499 96.25C19.4559 94.9221 19.8956 93.784 20.8096 92.8269C21.7236 91.8698 22.8359 91.3783 24.1465 91.3696C25.5951 91.3524 26.9316 91.9215 28.1474 93.0855C29.3545 94.2323 29.9926 95.5429 30.0702 97.0088C30.1133 98.3194 29.6822 99.4489 28.7682 100.415Z" fill="white"/>
<path d="M33.9599 102.614L35.0119 103.252C35.3482 103.459 35.6241 103.545 35.8396 103.51C36.0552 103.467 36.2363 103.321 36.3915 103.079C36.5294 102.855 36.5553 102.657 36.4949 102.476C36.4346 102.26 36.219 102.044 35.8569 101.829L34.8222 101.199L33.9599 102.614ZM32.1319 105.631L33.3736 106.382C33.6668 106.563 33.9427 106.623 34.1927 106.571C34.4342 106.511 34.6239 106.373 34.7618 106.149C34.9084 105.907 34.9515 105.666 34.8998 105.442C34.848 105.235 34.6584 105.028 34.3134 104.821L33.0718 104.071L32.1319 105.631ZM33.0373 97.7936L37.8487 100.699C38.7799 101.268 39.3404 101.855 39.5128 102.467C39.668 103.027 39.5732 103.588 39.2283 104.166C38.9524 104.623 38.6075 104.942 38.185 105.14C37.8314 105.295 37.4176 105.338 36.9347 105.269L36.9088 105.304C37.3055 105.675 37.5728 106.08 37.7021 106.528C37.8746 107.097 37.7883 107.658 37.4434 108.218C37.064 108.848 36.5726 109.236 35.969 109.391C35.2705 109.563 34.5031 109.391 33.6668 108.882L28.2949 105.64L33.0373 97.7936Z" fill="white"/>
<path d="M48.5243 114.806L51.1886 106.037L54.3272 106.994L51.6629 115.763L48.5243 114.806ZM43.0231 110.9L44.1958 111.253C44.5752 111.365 44.8856 111.365 45.1184 111.236C45.3081 111.133 45.446 110.951 45.5236 110.676C45.6099 110.391 45.5926 110.15 45.4805 109.977C45.3339 109.762 45.0666 109.598 44.6872 109.477L43.5491 109.132L43.0231 110.9ZM44.1871 107.097L46.3255 107.744C47.343 108.054 48.05 108.554 48.438 109.244C48.8088 109.917 48.8519 110.693 48.5846 111.581C48.3087 112.486 47.8517 113.107 47.1964 113.452C46.4462 113.849 45.5581 113.9 44.5407 113.59L39.2637 111.986L41.928 103.217L45.0666 104.174L44.1871 107.097Z" fill="white"/>
<path d="M58.9638 110.477L62.6715 110.632C62.5939 110.236 62.4301 109.899 62.18 109.624C61.8696 109.279 61.4213 109.098 60.8435 109.072C60.2831 109.046 59.8347 109.192 59.4898 109.511C59.2053 109.805 59.0328 110.124 58.9638 110.477ZM65.6118 112.296L65.5946 112.641L58.7741 112.357C58.7483 112.995 58.9207 113.521 59.2829 113.918C59.5674 114.228 60.0158 114.4 60.6194 114.426C61.0246 114.444 61.3868 114.375 61.6972 114.228C61.9645 114.09 62.1628 113.892 62.2921 113.642L65.4221 113.771C65.1893 114.504 64.7927 115.116 64.2408 115.608C63.3355 116.418 62.068 116.789 60.4642 116.72C58.869 116.651 57.6273 116.134 56.7306 115.168C55.8684 114.228 55.4631 113.055 55.5234 111.65C55.5838 110.175 56.0925 109.011 57.041 108.166C57.9895 107.313 59.257 106.925 60.8435 106.994C62.3008 107.054 63.4562 107.52 64.3098 108.39C65.2497 109.348 65.6808 110.658 65.6118 112.296Z" fill="white"/>
<path d="M80.4357 104.442L82.7552 113.305L79.5821 114.133L77.9438 107.865L75.6847 108.451L76.3487 110.986C76.7022 112.331 76.6505 113.418 76.2021 114.228C75.7968 114.944 75.038 115.444 73.9257 115.737C73.5119 115.841 73.0807 115.918 72.6237 115.953L72.0201 113.65C72.5892 113.573 72.9773 113.349 73.1842 112.986C73.3739 112.642 73.3825 112.133 73.2101 111.452L71.9512 106.649L80.4357 104.442Z" fill="white"/>
<path d="M91.4912 101.518C90.9825 101.812 90.6548 102.234 90.5169 102.777C90.3617 103.355 90.4306 103.898 90.7238 104.39C91.0084 104.873 91.4395 105.192 92.0172 105.347C92.5432 105.493 93.0691 105.424 93.5951 105.114C94.0952 104.821 94.4143 104.407 94.5522 103.864C94.6988 103.303 94.6212 102.76 94.3194 102.243C94.0435 101.768 93.6296 101.449 93.0864 101.277C92.569 101.13 92.0344 101.208 91.4912 101.518ZM86.5936 105.088L87.4214 104.605C87.2058 103.605 87.3007 102.622 87.7232 101.656C88.1802 100.613 88.9562 99.7767 90.0685 99.13C91.5171 98.285 92.957 98.0349 94.3711 98.3798C95.6559 98.7161 96.6302 99.4404 97.2683 100.535C97.9581 101.717 98.1219 102.941 97.7684 104.209C97.4063 105.588 96.4492 106.735 94.8971 107.632C93.4485 108.477 92.0948 108.727 90.8445 108.373C90.0081 108.132 89.2752 107.632 88.6458 106.882L87.887 107.321L89.6374 110.331L86.8006 111.986L82.1875 104.071L85.0243 102.424L86.5936 105.088Z" fill="white"/>
<path d="M105.15 95.7759L101.874 92.5942L100.347 94.1721L101.468 95.2585C101.96 95.7328 102.313 96.1984 102.529 96.664C102.779 97.19 102.882 97.6901 102.839 98.1643L105.15 95.7759ZM96.5879 94.7412L102.46 88.6968L107.383 93.4823L108.315 92.5252L111.876 95.9828L109.875 98.0436L107.961 96.1897L103.719 100.561L105.633 102.415L103.632 104.476L100.071 101.018C100.399 100.63 100.554 100.199 100.546 99.7336C100.546 98.9662 100.106 98.1643 99.235 97.3193L96.5879 94.7412Z" fill="white"/>
<path d="M103.947 86.8343L105.637 84.0234L109.673 86.4549L107.5 80.9106L108.974 78.4705L116.829 83.1956L115.139 86.0065L110.992 83.5146L113.285 89.0848L111.794 91.5595L103.947 86.8343Z" fill="white"/>
<path d="M68.9424 59.6991C69.2269 62.6049 67.1058 65.2003 64.2 65.4848C61.2942 65.7694 58.6988 63.6482 58.4143 60.7425C58.1297 57.8367 60.2509 55.2413 63.1567 54.9567C66.0624 54.6722 68.6492 56.7933 68.9424 59.6991Z" fill="white"/>
<path d="M62.0709 44.5493L56.0352 35.7284L60.2171 25.8901L66.2529 34.711L62.0709 44.5493Z" fill="white"/>
<path d="M53.5827 32.495L49.5215 30.4256L50.0302 23.1395L55.2382 28.2613L53.5827 32.495Z" fill="white"/>
<path d="M41.1664 41.1433L36.6137 41.3589L33.4492 34.7799L40.5111 36.6424L41.1664 41.1433Z" fill="white"/>
<path d="M24.7246 53.6203L30.7863 57.6815L34.5974 55.1896L31.752 51.6458L24.7246 53.6203Z" fill="white"/>
<path d="M70.4227 21.1219L66.3184 27.1577L68.7844 30.9861L72.3541 28.1666L70.4227 21.1219Z" fill="white"/>
<path d="M82.4199 32.4864L88.973 29.2788L87.1537 36.3493L82.6527 37.0305L82.4199 32.4864Z" fill="white"/>
<path d="M93.9468 45.4806L101.233 46.0411L96.0766 51.2059L91.8516 49.5159L93.9468 45.4806Z" fill="white"/>
<path d="M70.0981 45.8339L69.2617 35.1765L77.7894 28.7355L78.6258 39.3929L70.0981 45.8339Z" fill="white"/>
<path d="M76.4531 51.0077L81.092 41.3677L91.6978 40.0916L87.0675 49.7229L76.4531 51.0077Z" fill="white"/>
<path d="M79.3574 58.6644L88.1955 52.6631L98.0252 56.8795L89.1785 62.8894L79.3574 58.6644Z" fill="white"/>
<path d="M45.1609 42.7127L43.8848 32.0984L53.5161 36.7373L54.7923 47.3516L45.1609 42.7127Z" fill="white"/>
<path d="M38.909 54.4997L32.4766 45.9548L43.134 45.1356L49.575 53.6719L38.909 54.4997Z" fill="white"/>
<path d="M39.427 67.8215L29.5801 63.6654L38.3837 57.6038L48.2306 61.7512L39.427 67.8215Z" fill="white"/>
<path d="M62.4678 51.6197L57.9668 44.5837L58.967 52.8786L62.4678 51.6197Z" fill="white"/>
<path d="M66.979 52.163L66.5479 43.8164L63.3145 51.5249L66.979 52.163Z" fill="white"/>
<path d="M70.6705 54.9049L74.4644 47.4551L67.8164 52.5165L70.6705 54.9049Z" fill="white"/>
<path d="M72.5027 59.1301L79.5128 54.5774L71.2266 55.6293L72.5027 59.1301Z" fill="white"/>
<path d="M58.3098 53.3616L50.9375 49.4297L55.8696 56.1725L58.3098 53.3616Z" fill="white"/>
<path d="M54.7883 60.5873L47.166 57.1469L55.5212 56.9399L54.7883 60.5873Z" fill="white"/>
<path d="M64.1241 70.7101L51.7421 62.7084L58.3901 76.3837L49.4141 96.4138L64.1241 82.5747L70.9445 96.4138V74.6937L76.4543 60.363L64.1241 70.7101Z" fill="white"/>
</svg>
