<svg width="260" height="250" viewBox="0 0 260 250" fill="none" xmlns="http://www.w3.org/2000/svg">
<g clip-path="url(#clip0_233_9892)">
<path d="M33.8502 103.243L20.8437 99.9518L31.8307 111.214L29.4035 120.867L17.027 106.295L0 112.527L2.24186 103.669L17.1011 99.0272L4.22433 95.7725L6.15121 88.1536L19.028 91.3898L8.15221 80.2758L10.3941 71.3994L22.4186 84.9359L40.2423 77.9642L37.7966 87.6358L22.7706 92.3329L35.7771 95.6061L33.8502 103.243Z" fill="#FAB748"/>
<path d="M34.8284 61.8573C34.18 62.8929 33.9762 64.021 34.2541 65.2785C34.532 66.6099 35.2175 67.6085 36.3107 68.2927C37.4409 69.0139 38.6452 69.1989 39.8865 68.866C41.1835 68.5331 42.1469 67.8489 42.8139 66.8133C43.4809 65.7593 43.6662 64.5757 43.3697 63.2813C43.0918 62.0238 42.3878 61.0437 41.3132 60.3779C40.2015 59.6752 39.0157 59.4903 37.7188 59.8047C36.4589 60.1006 35.4954 60.8033 34.8284 61.8573ZM34.1985 56.1617L32.531 55.1076L36.4404 48.9126L53.7638 59.7862L49.873 65.9812L47.9646 64.7976C48.8725 67.0167 48.576 69.3283 47.0568 71.7323C45.5375 74.1548 43.3142 75.6527 40.3868 76.2445C37.5891 76.7993 34.9581 76.2815 32.4754 74.7281C29.6221 72.9528 27.8805 70.6043 27.2135 67.701C26.6021 65.0565 27.1024 62.4676 28.6958 59.9341C30.0112 57.826 31.864 56.5685 34.1985 56.1617Z" fill="#FAB748"/>
<path d="M56.0469 57.0675L41.9844 42.218L47.3018 37.1881L52.0635 42.218L57.0104 37.5209L52.2488 32.5095L57.5847 27.4795L67.6824 38.1497L70.1466 35.8196L78.2061 44.3262L73.5557 48.7274L69.461 44.4001L66.3298 47.3589L60.9753 41.7187L56.0284 46.3973L61.3644 52.0375L56.0469 57.0675Z" fill="#FAB748"/>
<path d="M78.2044 20.7858C77.1297 21.3775 76.4257 22.2837 76.0551 23.5042C75.6661 24.7986 75.7772 26.0191 76.3886 27.1287C77.0371 28.3122 77.982 29.0519 79.2419 29.3663C80.5389 29.6992 81.7061 29.5697 82.7807 28.9779C83.8739 28.3677 84.5964 27.4246 84.967 26.1486C85.319 24.9096 85.1893 23.7261 84.5779 22.598C83.948 21.4515 82.9845 20.7118 81.7246 20.3604C80.4647 20.0461 79.279 20.194 78.2044 20.7858ZM80.3906 15.4969L79.4457 13.7771L85.8193 10.2266L95.7131 28.0903L89.321 31.6409L88.2464 29.6807C87.9685 32.0662 86.5789 33.9524 84.1147 35.3209C81.6135 36.7078 78.9455 36.9482 76.1293 36.0421C73.4242 35.1729 71.3676 33.4531 69.941 30.9012C68.3105 27.9793 67.9215 25.076 68.7367 22.2097C69.4778 19.6023 71.1638 17.5681 73.7762 16.1257C75.944 14.9421 78.1488 14.7202 80.3906 15.4969Z" fill="#FAB748"/>
<path d="M117.004 7.34158C115.8 7.52651 114.818 8.13676 114.04 9.15384C113.224 10.2449 112.91 11.4099 113.113 12.6859C113.336 14.0174 113.966 15.0345 115.04 15.7557C116.152 16.5139 117.301 16.7912 118.505 16.5878C119.746 16.3844 120.747 15.7557 121.543 14.6646C122.303 13.6105 122.581 12.464 122.377 11.188C122.173 9.89355 121.525 8.87646 120.45 8.11827C119.394 7.39706 118.246 7.13816 117.004 7.34158ZM120.876 3.1068L120.561 1.16509L127.806 0.0185547L131.03 20.1939L123.785 21.3404L123.433 19.1213C122.359 21.2664 120.413 22.5609 117.616 23.0047C114.781 23.4485 112.187 22.7643 109.815 20.9521C107.555 19.2138 106.202 16.9022 105.739 14.0174C105.202 10.7072 105.813 7.84088 107.574 5.43685C109.167 3.23625 111.446 1.90479 114.392 1.44248C116.874 1.05413 119.024 1.60891 120.876 3.1068Z" fill="#FAB748"/>
<path d="M149.203 16.3289L150.148 6.17649L145.276 5.73267L144.961 9.19077C144.812 10.7072 144.497 11.9831 144.016 13.0002C143.441 14.1652 142.719 15.0529 141.829 15.6446L149.203 16.3289ZM138.995 0L157.745 1.73829L156.337 16.9761L159.301 17.2535L158.282 28.275L151.909 27.6833L152.464 21.7657L138.921 20.5082L138.365 26.4258L131.973 25.834L132.992 14.831C134.122 14.8495 135.085 14.5166 135.882 13.8509C137.197 12.7783 137.994 10.8921 138.254 8.19217L138.995 0Z" fill="#FAB748"/>
<path d="M175.959 12.5934C174.81 12.1865 173.661 12.242 172.494 12.7783C171.253 13.3331 170.419 14.2207 169.993 15.4227C169.548 16.6802 169.604 17.9007 170.215 19.0472C170.827 20.2308 171.716 21.0259 172.865 21.4513C174.05 21.8766 175.236 21.7841 176.441 21.2109C177.608 20.6561 178.405 19.7684 178.849 18.5664C179.294 17.3274 179.22 16.1254 178.627 14.9419C178.034 13.7954 177.145 13.0187 175.959 12.5934ZM181.387 10.7441L182.054 8.89486L188.965 11.3544L182.11 30.605L175.199 28.1455L175.959 26.0374C173.976 27.4058 171.66 27.6093 168.974 26.6661C166.269 25.7045 164.323 23.8738 163.119 21.1369C161.97 18.5294 161.896 15.848 162.878 13.0927C164.008 9.93044 165.917 7.71134 168.603 6.43535C171.068 5.27033 173.698 5.19636 176.515 6.19495C178.849 7.02711 180.48 8.5435 181.387 10.7441Z" fill="#FAB748"/>
<path d="M184.07 31.1414L198.485 16.2734L203.691 19.9349L201.449 31.8811L211.936 25.7046L217.142 29.3476L208.064 47.9326L202.431 44.0122L207.211 34.3406L197.151 40.2952L194.983 38.7788L197.169 27.3135L189.684 35.0803L184.07 31.1414Z" fill="#FAB748"/>
<path d="M222.503 57.5303L230.377 51.0394L227.264 47.2669L224.578 49.486C223.392 50.4661 222.28 51.1319 221.206 51.5017C219.983 51.927 218.834 52.038 217.797 51.8346L222.503 57.5303ZM226.894 38.7974L238.881 53.277L227.061 63.0225L228.95 65.3156L220.409 72.3612L216.333 67.4237L220.928 63.6328L212.257 53.166L207.662 56.957L203.586 52.0195L212.127 44.9739C212.924 45.7875 213.832 46.2313 214.869 46.3423C216.555 46.5272 218.464 45.7505 220.557 44.0307L226.894 38.7974Z" fill="#FAB748"/>
<path d="M244.008 73.7666C243.49 72.6571 242.619 71.8989 241.433 71.4366C240.155 70.9558 238.95 70.9928 237.783 71.5475C236.56 72.1208 235.763 73.0269 235.374 74.2659C234.967 75.5419 235.022 76.7254 235.541 77.835C236.078 78.963 236.968 79.7582 238.228 80.202C239.45 80.6459 240.636 80.5719 241.804 80.0356C242.989 79.4808 243.786 78.5747 244.212 77.3172C244.62 76.0782 244.546 74.8947 244.008 73.7666ZM249.159 76.2816L250.938 75.431L254.087 82.0328L235.597 90.7982L232.447 84.1964L234.467 83.2348C232.095 82.8095 230.298 81.3116 229.093 78.7411C227.871 76.1522 227.797 73.4708 228.871 70.6969C229.909 68.0525 231.761 66.0923 234.392 64.8348C237.431 63.3924 240.34 63.1704 243.156 64.1875C245.713 65.0937 247.64 66.9059 248.918 69.6058C249.993 71.8804 250.085 74.0995 249.159 76.2816Z" fill="#FAB748"/>
<path d="M253.39 103.003C253.149 101.745 252.501 100.747 251.445 100.026C250.352 99.2674 249.147 99.0086 247.869 99.2674C246.683 99.4894 245.701 100.155 244.96 101.265C244.237 102.337 243.997 103.502 244.219 104.76C244.46 106.054 245.108 107.034 246.164 107.7C247.258 108.458 248.406 108.717 249.611 108.495C250.889 108.255 251.908 107.571 252.649 106.48C253.39 105.425 253.631 104.279 253.39 103.003ZM239.902 100.987L228.915 103.077L227.562 95.8833L256.614 90.3726L257.967 97.5661L255.78 97.973C257.967 99.138 259.319 101.006 259.801 103.576C260.338 106.387 259.801 108.958 258.244 111.269C256.596 113.692 254.205 115.189 251.074 115.8C247.887 116.41 245.034 115.818 242.551 114.061C240.347 112.527 238.994 110.418 238.494 107.719C238.012 105.241 238.494 103.003 239.902 100.987Z" fill="#FAB748"/>
<path d="M47.7459 168.374L38.4265 174.144L44.2257 183.483L53.5451 177.731L57.5842 184.222L32.6088 199.664L28.5697 193.173L38.6859 186.922L32.8681 177.565L22.7705 183.834L18.75 177.362L43.7254 161.92L47.7459 168.374Z" fill="#FAB748"/>
<path d="M56.3631 203.657C55.4923 202.825 54.4362 202.4 53.1949 202.4C51.9535 202.381 50.8789 202.844 49.9896 203.787C49.1743 204.638 48.7852 205.71 48.8223 206.986C48.8594 208.225 49.3226 209.279 50.2119 210.13C51.0827 210.962 52.1388 211.35 53.3801 211.332C54.6215 211.35 55.6776 210.906 56.5299 210.019C57.3821 209.131 57.7897 208.04 57.7527 206.746C57.6786 205.488 57.2154 204.471 56.3631 203.657ZM61.8103 215.03C59.8463 217.083 57.4377 218.137 54.603 218.193C51.5088 218.248 48.637 217.009 45.9876 214.494C43.3566 211.979 41.9856 209.187 41.8929 206.098C41.8003 203.251 42.7452 200.81 44.7091 198.757C46.6731 196.704 49.0632 195.65 51.8794 195.632C54.992 195.595 57.8638 196.815 60.4763 199.312C63.0701 201.771 64.4412 204.582 64.608 207.726C64.7006 210.537 63.7742 212.959 61.8103 215.03Z" fill="#FAB748"/>
<path d="M72.9618 219.746L75.2222 221.114C75.9448 221.558 76.5377 221.743 77.0009 221.669C77.464 221.577 77.8531 221.262 78.1866 220.745C78.4831 220.264 78.5387 219.838 78.409 219.45C78.2793 218.988 77.8161 218.525 77.0379 218.063L74.8146 216.713L72.9618 219.746ZM69.0339 226.218L71.7019 227.827C72.3319 228.216 72.9247 228.345 73.462 228.234C73.9808 228.105 74.3884 227.809 74.6849 227.328C74.9999 226.81 75.0925 226.292 74.9813 225.812C74.8702 225.368 74.4625 224.924 73.7214 224.48L71.0534 222.871L69.0339 226.218ZM70.9793 209.409L81.3178 215.641C83.3188 216.861 84.5231 218.119 84.8937 219.432C85.2272 220.634 85.0234 221.836 84.2823 223.075C83.6894 224.055 82.9483 224.739 82.0404 225.164C81.2808 225.497 80.3914 225.59 79.3539 225.442L79.2983 225.516C80.1506 226.311 80.7249 227.18 81.0028 228.142C81.3734 229.362 81.1881 230.564 80.447 231.766C79.6318 233.116 78.5757 233.948 77.2788 234.281C75.778 234.651 74.129 234.281 72.3319 233.19L60.7891 226.237L70.9793 209.409Z" fill="#FAB748"/>
<path d="M104.254 245.894L109.979 227.088L116.723 229.14L110.998 247.947L104.254 245.894ZM92.4336 237.517L94.9533 238.276C95.7686 238.516 96.4356 238.516 96.9358 238.239C97.3434 238.017 97.6399 237.628 97.8066 237.037C97.9919 236.426 97.9548 235.908 97.714 235.539C97.399 235.076 96.8246 234.725 96.0094 234.466L93.5638 233.726L92.4336 237.517ZM94.9348 229.362L99.5297 230.749C101.716 231.415 103.235 232.487 104.069 233.967C104.866 235.409 104.958 237.074 104.384 238.978C103.791 240.92 102.809 242.251 101.401 242.991C99.7891 243.842 97.8807 243.953 95.6945 243.287L84.3555 239.847L90.0805 221.041L96.8246 223.093L94.9348 229.362Z" fill="#FAB748"/>
<path d="M126.69 236.611L134.657 236.944C134.491 236.093 134.139 235.372 133.601 234.78C132.934 234.04 131.971 233.652 130.729 233.596C129.525 233.541 128.562 233.855 127.821 234.54C127.209 235.168 126.839 235.853 126.69 236.611ZM140.975 240.513L140.938 241.252L126.283 240.642C126.227 242.011 126.598 243.139 127.376 243.989C127.987 244.655 128.951 245.025 130.248 245.08C131.118 245.117 131.897 244.969 132.564 244.655C133.138 244.359 133.564 243.934 133.842 243.397L140.568 243.675C140.067 245.247 139.215 246.56 138.029 247.614C136.084 249.352 133.36 250.147 129.914 249.999C126.487 249.851 123.819 248.742 121.892 246.671C120.039 244.655 119.168 242.14 119.298 239.126C119.427 235.964 120.521 233.467 122.559 231.655C124.597 229.824 127.32 228.992 130.729 229.14C133.861 229.269 136.343 230.268 138.178 232.136C140.197 234.188 141.123 236.999 140.975 240.513Z" fill="#FAB748"/>
<path d="M172.829 223.666L177.813 242.676L170.995 244.452L167.474 231.008L162.62 232.265L164.047 237.702C164.806 240.587 164.695 242.917 163.732 244.655C162.861 246.19 161.231 247.262 158.841 247.891C157.951 248.113 157.025 248.28 156.043 248.354L154.746 243.416C155.969 243.25 156.802 242.769 157.247 241.992C157.655 241.252 157.673 240.161 157.303 238.7L154.598 228.4L172.829 223.666Z" fill="#FAB748"/>
<path d="M196.581 217.398C195.488 218.026 194.784 218.932 194.488 220.098C194.154 221.336 194.302 222.502 194.932 223.556C195.544 224.591 196.47 225.275 197.711 225.608C198.842 225.923 199.972 225.775 201.102 225.109C202.177 224.48 202.862 223.593 203.159 222.428C203.474 221.226 203.307 220.061 202.658 218.951C202.066 217.934 201.176 217.25 200.009 216.88C198.897 216.565 197.749 216.732 196.581 217.398ZM186.058 225.053L187.836 224.018C187.373 221.873 187.577 219.765 188.485 217.693C189.467 215.456 191.134 213.662 193.524 212.275C196.637 210.463 199.731 209.927 202.77 210.666C205.53 211.388 207.624 212.941 208.995 215.289C210.477 217.823 210.829 220.449 210.069 223.167C209.291 226.126 207.235 228.586 203.9 230.509C200.787 232.321 197.878 232.857 195.192 232.099C193.395 231.581 191.82 230.509 190.467 228.9L188.837 229.843L192.598 236.297L186.502 239.847L176.59 222.871L182.685 219.339L186.058 225.053Z" fill="#FAB748"/>
<path d="M225.929 205.082L218.889 198.259L215.609 201.643L218.018 203.973C219.074 204.99 219.834 205.988 220.297 206.987C220.834 208.115 221.057 209.188 220.964 210.205L225.929 205.082ZM207.531 202.863L220.149 189.9L230.728 200.163L232.729 198.111L240.381 205.526L236.083 209.946L231.969 205.97L222.854 215.346L226.967 219.321L222.668 223.741L215.016 216.326C215.721 215.494 216.054 214.569 216.035 213.57C216.035 211.924 215.091 210.205 213.219 208.392L207.531 202.863Z" fill="#FAB748"/>
<path d="M223.355 185.905L226.987 179.876L235.658 185.091L230.989 173.201L234.157 167.967L251.036 178.101L247.404 184.13L238.493 178.785L243.421 190.732L240.216 196.039L223.355 185.905Z" fill="#FAB748"/>
<path d="M148.13 127.709C148.742 133.941 144.184 139.507 137.94 140.118C131.696 140.728 126.12 136.179 125.508 129.947C124.897 123.715 129.455 118.149 135.698 117.538C141.942 116.928 147.501 121.477 148.13 127.709Z" fill="#FAB748"/>
<path d="M133.364 95.2179L120.395 76.3001L129.38 55.2002L142.35 74.118L133.364 95.2179Z" fill="#FAB748"/>
<path d="M115.133 69.3651L106.406 64.9269L107.499 49.3008L118.69 60.2853L115.133 69.3651Z" fill="#FAB748"/>
<path d="M88.4534 87.9136L78.6708 88.3759L71.8711 74.2661L87.0453 78.2605L88.4534 87.9136Z" fill="#FAB748"/>
<path d="M53.1211 114.673L66.1461 123.383L74.3354 118.039L68.2212 110.438L53.1211 114.673Z" fill="#FAB748"/>
<path d="M151.319 44.9741L142.5 57.9189L147.799 66.1295L155.469 60.0825L151.319 44.9741Z" fill="#FAB748"/>
<path d="M177.09 69.348L191.171 62.4688L187.262 77.6326L177.59 79.0935L177.09 69.348Z" fill="#FAB748"/>
<path d="M201.858 97.2148L217.514 98.4169L206.434 109.494L197.355 105.869L201.858 97.2148Z" fill="#FAB748"/>
<path d="M150.614 97.9738L148.816 75.1171L167.14 61.3032L168.938 84.1599L150.614 97.9738Z" fill="#FAB748"/>
<path d="M164.27 109.068L174.237 88.3936L197.027 85.6567L187.077 106.313L164.27 109.068Z" fill="#FAB748"/>
<path d="M170.512 125.49L189.503 112.62L210.624 121.662L191.615 134.552L170.512 125.49Z" fill="#FAB748"/>
<path d="M97.0351 91.2799L94.293 68.5156L114.988 78.4646L117.731 101.229L97.0351 91.2799Z" fill="#FAB748"/>
<path d="M83.599 116.559L69.7773 98.2334L92.6777 96.4766L106.518 114.784L83.599 116.559Z" fill="#FAB748"/>
<path d="M84.7134 145.129L63.5547 136.216L82.4715 123.216L103.63 132.111L84.7134 145.129Z" fill="#FAB748"/>
<path d="M134.218 110.382L124.547 95.292L126.696 113.082L134.218 110.382Z" fill="#FAB748"/>
<path d="M143.909 111.547L142.983 93.6465L136.035 110.179L143.909 111.547Z" fill="#FAB748"/>
<path d="M151.855 117.428L160.008 101.45L145.723 112.305L151.855 117.428Z" fill="#FAB748"/>
<path d="M155.785 126.489L170.848 116.725L153.043 118.981L155.785 126.489Z" fill="#FAB748"/>
<path d="M125.29 114.117L109.449 105.684L120.047 120.145L125.29 114.117Z" fill="#FAB748"/>
<path d="M117.726 129.614L101.348 122.235L119.301 121.792L117.726 129.614Z" fill="#FAB748"/>
<path d="M137.776 151.323L111.17 134.162L125.455 163.491L106.168 206.449L137.776 176.769L152.432 206.449V159.867L164.271 129.132L137.776 151.323Z" fill="#FAB748"/>
</g>
<defs>
<clipPath id="clip0_233_9892">
<rect width="260" height="250" fill="white"/>
</clipPath>
</defs>
</svg>
