<svg width="280" height="280" viewBox="0 0 280 280" fill="none" xmlns="http://www.w3.org/2000/svg">
<g clip-path="url(#clip0_233_8482)">
<path d="M289.114 -8.98145H-8.98047V289.113H289.114V-8.98145Z" fill="white"/>
<path d="M87.6972 7.13184H79.6406V15.1884H87.6972V7.13184Z" fill="#462683"/>
<path d="M103.811 7.13184H95.7539V15.1884H103.811V7.13184Z" fill="#462683"/>
<path d="M152.15 7.13184H144.094V15.1884H152.15V7.13184Z" fill="#462683"/>
<path d="M160.209 7.13184H152.152V15.1884H160.209V7.13184Z" fill="#462683"/>
<path d="M168.264 7.13184H160.207V15.1884H168.264V7.13184Z" fill="#462683"/>
<path d="M184.377 7.13184H176.32V15.1884H184.377V7.13184Z" fill="#462683"/>
<path d="M192.436 7.13184H184.379V15.1884H192.436V7.13184Z" fill="#462683"/>
<path d="M208.549 7.13184H200.492V15.1884H208.549V7.13184Z" fill="#462683"/>
<path d="M87.6972 15.1885H79.6406V23.2451H87.6972V15.1885Z" fill="#462683"/>
<path d="M95.7558 15.1885H87.6992V23.2451H95.7558V15.1885Z" fill="#462683"/>
<path d="M119.924 15.1885H111.867V23.2451H119.924V15.1885Z" fill="#462683"/>
<path d="M127.982 15.1885H119.926V23.2451H127.982V15.1885Z" fill="#462683"/>
<path d="M136.037 15.1885H127.98V23.2451H136.037V15.1885Z" fill="#462683"/>
<path d="M176.322 15.1885H168.266V23.2451H176.322V15.1885Z" fill="#462683"/>
<path d="M184.377 15.1885H176.32V23.2451H184.377V15.1885Z" fill="#462683"/>
<path d="M208.549 15.1885H200.492V23.2451H208.549V15.1885Z" fill="#462683"/>
<path d="M79.6425 23.2451H71.5859V31.3017H79.6425V23.2451Z" fill="#462683"/>
<path d="M87.6972 23.2451H79.6406V31.3017H87.6972V23.2451Z" fill="#462683"/>
<path d="M95.7558 23.2451H87.6992V31.3017H95.7558V23.2451Z" fill="#462683"/>
<path d="M103.811 23.2451H95.7539V31.3017H103.811V23.2451Z" fill="#462683"/>
<path d="M136.037 23.2451H127.98V31.3017H136.037V23.2451Z" fill="#462683"/>
<path d="M160.209 23.2451H152.152V31.3017H160.209V23.2451Z" fill="#462683"/>
<path d="M168.264 23.2451H160.207V31.3017H168.264V23.2451Z" fill="#462683"/>
<path d="M184.377 23.2451H176.32V31.3017H184.377V23.2451Z" fill="#462683"/>
<path d="M200.49 23.2451H192.434V31.3017H200.49V23.2451Z" fill="#462683"/>
<path d="M208.549 23.2451H200.492V31.3017H208.549V23.2451Z" fill="#462683"/>
<path d="M79.6425 31.3018H71.5859V39.3584H79.6425V31.3018Z" fill="#462683"/>
<path d="M87.6972 31.3018H79.6406V39.3584H87.6972V31.3018Z" fill="#462683"/>
<path d="M119.924 31.3018H111.867V39.3584H119.924V31.3018Z" fill="#462683"/>
<path d="M127.982 31.3018H119.926V39.3584H127.982V31.3018Z" fill="#462683"/>
<path d="M144.096 31.3018H136.039V39.3584H144.096V31.3018Z" fill="#462683"/>
<path d="M152.15 31.3018H144.094V39.3584H152.15V31.3018Z" fill="#462683"/>
<path d="M160.209 31.3018H152.152V39.3584H160.209V31.3018Z" fill="#462683"/>
<path d="M168.264 31.3018H160.207V39.3584H168.264V31.3018Z" fill="#462683"/>
<path d="M176.322 31.3018H168.266V39.3584H176.322V31.3018Z" fill="#462683"/>
<path d="M184.377 31.3018H176.32V39.3584H184.377V31.3018Z" fill="#462683"/>
<path d="M200.49 31.3018H192.434V39.3584H200.49V31.3018Z" fill="#462683"/>
<path d="M208.549 31.3018H200.492V39.3584H208.549V31.3018Z" fill="#462683"/>
<path d="M111.869 39.3584H103.812V47.415H111.869V39.3584Z" fill="#462683"/>
<path d="M119.924 39.3584H111.867V47.415H119.924V39.3584Z" fill="#462683"/>
<path d="M127.982 39.3584H119.926V47.415H127.982V39.3584Z" fill="#462683"/>
<path d="M144.096 39.3584H136.039V47.415H144.096V39.3584Z" fill="#462683"/>
<path d="M160.209 39.3584H152.152V47.415H160.209V39.3584Z" fill="#462683"/>
<path d="M176.322 39.3584H168.266V47.415H176.322V39.3584Z" fill="#462683"/>
<path d="M184.377 39.3584H176.32V47.415H184.377V39.3584Z" fill="#462683"/>
<path d="M200.49 39.3584H192.434V47.415H200.49V39.3584Z" fill="#462683"/>
<path d="M103.811 47.415H95.7539V55.4716H103.811V47.415Z" fill="#462683"/>
<path d="M119.924 47.415H111.867V55.4716H119.924V47.415Z" fill="#462683"/>
<path d="M127.982 47.415H119.926V55.4716H127.982V47.415Z" fill="#462683"/>
<path d="M144.096 47.415H136.039V55.4716H144.096V47.415Z" fill="#462683"/>
<path d="M176.322 47.415H168.266V55.4716H176.322V47.415Z" fill="#462683"/>
<path d="M208.549 47.415H200.492V55.4716H208.549V47.415Z" fill="#462683"/>
<path d="M79.6425 55.4717H71.5859V63.5283H79.6425V55.4717Z" fill="#462683"/>
<path d="M95.7558 55.4717H87.6992V63.5283H95.7558V55.4717Z" fill="#462683"/>
<path d="M111.869 55.4717H103.812V63.5283H111.869V55.4717Z" fill="#462683"/>
<path d="M127.982 55.4717H119.926V63.5283H127.982V55.4717Z" fill="#462683"/>
<path d="M144.096 55.4717H136.039V63.5283H144.096V55.4717Z" fill="#462683"/>
<path d="M160.209 55.4717H152.152V63.5283H160.209V55.4717Z" fill="#462683"/>
<path d="M176.322 55.4717H168.266V63.5283H176.322V55.4717Z" fill="#462683"/>
<path d="M192.436 55.4717H184.379V63.5283H192.436V55.4717Z" fill="#462683"/>
<path d="M208.549 55.4717H200.492V63.5283H208.549V55.4717Z" fill="#462683"/>
<path d="M95.7558 63.5283H87.6992V71.5849H95.7558V63.5283Z" fill="#462683"/>
<path d="M136.037 63.5283H127.98V71.5849H136.037V63.5283Z" fill="#462683"/>
<path d="M144.096 63.5283H136.039V71.5849H144.096V63.5283Z" fill="#462683"/>
<path d="M192.436 63.5283H184.379V71.5849H192.436V63.5283Z" fill="#462683"/>
<path d="M200.49 63.5283H192.434V71.5849H200.49V63.5283Z" fill="#462683"/>
<path d="M39.3613 71.5845H31.3047V79.6411H39.3613V71.5845Z" fill="#462683"/>
<path d="M47.416 71.5845H39.3594V79.6411H47.416V71.5845Z" fill="#462683"/>
<path d="M63.5293 71.5845H55.4727V79.6411H63.5293V71.5845Z" fill="#462683"/>
<path d="M71.5879 71.585H63.5312V79.6416H71.5879V71.585Z" fill="#462683"/>
<path d="M103.811 71.585H95.7539V79.6416H103.811V71.585Z" fill="#462683"/>
<path d="M111.869 71.585H103.812V79.6416H111.869V71.585Z" fill="#462683"/>
<path d="M119.924 71.585H111.867V79.6416H119.924V71.585Z" fill="#462683"/>
<path d="M127.982 71.585H119.926V79.6416H127.982V71.585Z" fill="#462683"/>
<path d="M136.037 71.585H127.98V79.6416H136.037V71.585Z" fill="#462683"/>
<path d="M144.096 71.585H136.039V79.6416H144.096V71.585Z" fill="#462683"/>
<path d="M160.209 71.585H152.152V79.6416H160.209V71.585Z" fill="#462683"/>
<path d="M176.322 71.585H168.266V79.6416H176.322V71.585Z" fill="#462683"/>
<path d="M200.49 71.585H192.434V79.6416H200.49V71.585Z" fill="#462683"/>
<path d="M208.549 71.585H200.492V79.6416H208.549V71.585Z" fill="#462683"/>
<path d="M248.83 71.585H240.773V79.6416H248.83V71.585Z" fill="#462683"/>
<path d="M256.889 71.585H248.832V79.6416H256.889V71.585Z" fill="#462683"/>
<path d="M23.2441 79.6411H15.1875V87.6977H23.2441V79.6411Z" fill="#462683"/>
<path d="M47.416 79.6411H39.3594V87.6977H47.416V79.6411Z" fill="#462683"/>
<path d="M55.4707 79.6411H47.4141V87.6977H55.4707V79.6411Z" fill="#462683"/>
<path d="M79.6425 79.6416H71.5859V87.6982H79.6425V79.6416Z" fill="#462683"/>
<path d="M111.869 79.6416H103.812V87.6982H111.869V79.6416Z" fill="#462683"/>
<path d="M119.924 79.6416H111.867V87.6982H119.924V79.6416Z" fill="#462683"/>
<path d="M127.982 79.6416H119.926V87.6982H127.982V79.6416Z" fill="#462683"/>
<path d="M144.096 79.6416H136.039V87.6982H144.096V79.6416Z" fill="#462683"/>
<path d="M160.209 79.6416H152.152V87.6982H160.209V79.6416Z" fill="#462683"/>
<path d="M200.49 79.6416H192.434V87.6982H200.49V79.6416Z" fill="#462683"/>
<path d="M216.603 79.6416H208.547V87.6982H216.603V79.6416Z" fill="#462683"/>
<path d="M232.717 79.6416H224.66V87.6982H232.717V79.6416Z" fill="#462683"/>
<path d="M240.775 79.6416H232.719V87.6982H240.775V79.6416Z" fill="#462683"/>
<path d="M248.83 79.6416H240.773V87.6982H248.83V79.6416Z" fill="#462683"/>
<path d="M256.889 79.6416H248.832V87.6982H256.889V79.6416Z" fill="#462683"/>
<path d="M264.943 79.6416H256.887V87.6982H264.943V79.6416Z" fill="#462683"/>
<path d="M15.1894 87.6978H7.13281V95.7544H15.1894V87.6978Z" fill="#462683"/>
<path d="M47.416 87.6978H39.3594V95.7544H47.416V87.6978Z" fill="#462683"/>
<path d="M63.5293 87.6978H55.4727V95.7544H63.5293V87.6978Z" fill="#462683"/>
<path d="M103.811 87.6982H95.7539V95.7548H103.811V87.6982Z" fill="#462683"/>
<path d="M111.869 87.6982H103.812V95.7548H111.869V87.6982Z" fill="#462683"/>
<path d="M136.037 87.6982H127.98V95.7548H136.037V87.6982Z" fill="#462683"/>
<path d="M160.209 87.6982H152.152V95.7548H160.209V87.6982Z" fill="#462683"/>
<path d="M184.377 87.6982H176.32V95.7548H184.377V87.6982Z" fill="#462683"/>
<path d="M200.49 87.6982H192.434V95.7548H200.49V87.6982Z" fill="#462683"/>
<path d="M216.603 87.6982H208.547V95.7548H216.603V87.6982Z" fill="#462683"/>
<path d="M232.717 87.6982H224.66V95.7548H232.717V87.6982Z" fill="#462683"/>
<path d="M256.889 87.6982H248.832V95.7548H256.889V87.6982Z" fill="#462683"/>
<path d="M264.943 87.6982H256.887V95.7548H264.943V87.6982Z" fill="#462683"/>
<path d="M273.002 87.6982H264.945V95.7548H273.002V87.6982Z" fill="#462683"/>
<path d="M23.2441 95.7544H15.1875V103.811H23.2441V95.7544Z" fill="#462683"/>
<path d="M31.3027 95.7544H23.2461V103.811H31.3027V95.7544Z" fill="#462683"/>
<path d="M47.416 95.7544H39.3594V103.811H47.416V95.7544Z" fill="#462683"/>
<path d="M87.6972 95.7544H79.6406V103.811H87.6972V95.7544Z" fill="#462683"/>
<path d="M95.7558 95.7544H87.6992V103.811H95.7558V95.7544Z" fill="#462683"/>
<path d="M111.869 95.7544H103.812V103.811H111.869V95.7544Z" fill="#462683"/>
<path d="M119.924 95.7544H111.867V103.811H119.924V95.7544Z" fill="#462683"/>
<path d="M152.15 95.7544H144.094V103.811H152.15V95.7544Z" fill="#462683"/>
<path d="M168.264 95.7544H160.207V103.811H168.264V95.7544Z" fill="#462683"/>
<path d="M208.549 95.7544H200.492V103.811H208.549V95.7544Z" fill="#462683"/>
<path d="M224.662 95.7544H216.605V103.811H224.662V95.7544Z" fill="#462683"/>
<path d="M232.717 95.7544H224.66V103.811H232.717V95.7544Z" fill="#462683"/>
<path d="M240.775 95.7544H232.719V103.811H240.775V95.7544Z" fill="#462683"/>
<path d="M248.83 95.7544H240.773V103.811H248.83V95.7544Z" fill="#462683"/>
<path d="M256.889 95.7544H248.832V103.811H256.889V95.7544Z" fill="#462683"/>
<path d="M264.943 95.7544H256.887V103.811H264.943V95.7544Z" fill="#462683"/>
<path d="M273.002 95.7544H264.945V103.811H273.002V95.7544Z" fill="#462683"/>
<path d="M39.3613 103.811H31.3047V111.868H39.3613V103.811Z" fill="#462683"/>
<path d="M47.416 103.811H39.3594V111.868H47.416V103.811Z" fill="#462683"/>
<path d="M63.5293 103.811H55.4727V111.868H63.5293V103.811Z" fill="#462683"/>
<path d="M71.5879 103.811H63.5312V111.868H71.5879V103.811Z" fill="#462683"/>
<path d="M79.6425 103.811H71.5859V111.868H79.6425V103.811Z" fill="#462683"/>
<path d="M127.982 103.811H119.926V111.868H127.982V103.811Z" fill="#462683"/>
<path d="M144.096 103.811H136.039V111.868H144.096V103.811Z" fill="#462683"/>
<path d="M160.209 103.811H152.152V111.868H160.209V103.811Z" fill="#462683"/>
<path d="M168.264 103.811H160.207V111.868H168.264V103.811Z" fill="#462683"/>
<path d="M176.322 103.811H168.266V111.868H176.322V103.811Z" fill="#462683"/>
<path d="M184.377 103.811H176.32V111.868H184.377V103.811Z" fill="#462683"/>
<path d="M192.436 103.811H184.379V111.868H192.436V103.811Z" fill="#462683"/>
<path d="M208.549 103.811H200.492V111.868H208.549V103.811Z" fill="#462683"/>
<path d="M224.662 103.811H216.605V111.868H224.662V103.811Z" fill="#462683"/>
<path d="M232.717 103.811H224.66V111.868H232.717V103.811Z" fill="#462683"/>
<path d="M240.775 103.811H232.719V111.868H240.775V103.811Z" fill="#462683"/>
<path d="M248.83 103.811H240.773V111.868H248.83V103.811Z" fill="#462683"/>
<path d="M273.002 103.811H264.945V111.868H273.002V103.811Z" fill="#462683"/>
<path d="M15.1894 111.868H7.13281V119.924H15.1894V111.868Z" fill="#462683"/>
<path d="M23.2441 111.868H15.1875V119.924H23.2441V111.868Z" fill="#462683"/>
<path d="M39.3613 111.868H31.3047V119.924H39.3613V111.868Z" fill="#462683"/>
<path d="M103.811 111.868H95.7539V119.924H103.811V111.868Z" fill="#462683"/>
<path d="M136.037 111.868H127.98V119.924H136.037V111.868Z" fill="#462683"/>
<path d="M144.096 111.868H136.039V119.924H144.096V111.868Z" fill="#462683"/>
<path d="M152.15 111.868H144.094V119.924H152.15V111.868Z" fill="#462683"/>
<path d="M168.264 111.868H160.207V119.924H168.264V111.868Z" fill="#462683"/>
<path d="M184.377 111.868H176.32V119.924H184.377V111.868Z" fill="#462683"/>
<path d="M192.436 111.868H184.379V119.924H192.436V111.868Z" fill="#462683"/>
<path d="M200.49 111.868H192.434V119.924H200.49V111.868Z" fill="#462683"/>
<path d="M256.889 111.868H248.832V119.924H256.889V111.868Z" fill="#462683"/>
<path d="M264.943 111.868H256.887V119.924H264.943V111.868Z" fill="#462683"/>
<path d="M23.2441 119.924H15.1875V127.981H23.2441V119.924Z" fill="#462683"/>
<path d="M31.3027 119.924H23.2461V127.981H31.3027V119.924Z" fill="#462683"/>
<path d="M39.3613 119.924H31.3047V127.981H39.3613V119.924Z" fill="#462683"/>
<path d="M47.416 119.924H39.3594V127.981H47.416V119.924Z" fill="#462683"/>
<path d="M63.5293 119.924H55.4727V127.981H63.5293V119.924Z" fill="#462683"/>
<path d="M71.5879 119.924H63.5312V127.981H71.5879V119.924Z" fill="#462683"/>
<path d="M103.811 119.924H95.7539V127.981H103.811V119.924Z" fill="#462683"/>
<path d="M111.869 119.924H103.812V127.981H111.869V119.924Z" fill="#462683"/>
<path d="M160.209 119.924H152.152V127.981H160.209V119.924Z" fill="#462683"/>
<path d="M176.322 119.924H168.266V127.981H176.322V119.924Z" fill="#462683"/>
<path d="M208.549 119.924H200.492V127.981H208.549V119.924Z" fill="#462683"/>
<path d="M224.662 119.924H216.605V127.981H224.662V119.924Z" fill="#462683"/>
<path d="M240.775 119.924H232.719V127.981H240.775V119.924Z" fill="#462683"/>
<path d="M248.83 119.924H240.773V127.981H248.83V119.924Z" fill="#462683"/>
<path d="M23.2441 127.981H15.1875V136.038H23.2441V127.981Z" fill="#462683"/>
<path d="M31.3027 127.981H23.2461V136.038H31.3027V127.981Z" fill="#462683"/>
<path d="M39.3613 127.981H31.3047V136.038H39.3613V127.981Z" fill="#462683"/>
<path d="M55.4707 127.981H47.4141V136.038H55.4707V127.981Z" fill="#462683"/>
<path d="M119.924 127.98H111.867V136.037H119.924V127.98Z" fill="#462683"/>
<path d="M127.982 127.98H119.926V136.037H127.982V127.98Z" fill="#462683"/>
<path d="M144.096 127.98H136.039V136.037H144.096V127.98Z" fill="#462683"/>
<path d="M152.15 127.98H144.094V136.037H152.15V127.98Z" fill="#462683"/>
<path d="M168.264 127.98H160.207V136.037H168.264V127.98Z" fill="#462683"/>
<path d="M200.49 127.98H192.434V136.037H200.49V127.98Z" fill="#462683"/>
<path d="M208.549 127.98H200.492V136.037H208.549V127.98Z" fill="#462683"/>
<path d="M216.603 127.98H208.547V136.037H216.603V127.98Z" fill="#462683"/>
<path d="M232.717 127.98H224.66V136.037H232.717V127.98Z" fill="#462683"/>
<path d="M248.83 127.98H240.773V136.037H248.83V127.98Z" fill="#462683"/>
<path d="M256.889 127.98H248.832V136.037H256.889V127.98Z" fill="#462683"/>
<path d="M264.943 127.98H256.887V136.037H264.943V127.98Z" fill="#462683"/>
<path d="M273.002 127.98H264.945V136.037H273.002V127.98Z" fill="#462683"/>
<path d="M15.1894 136.038H7.13281V144.094H15.1894V136.038Z" fill="#462683"/>
<path d="M23.2441 136.038H15.1875V144.094H23.2441V136.038Z" fill="#462683"/>
<path d="M47.416 136.038H39.3594V144.094H47.416V136.038Z" fill="#462683"/>
<path d="M63.5293 136.038H55.4727V144.094H63.5293V136.038Z" fill="#462683"/>
<path d="M71.5879 136.037H63.5312V144.094H71.5879V136.037Z" fill="#462683"/>
<path d="M87.6972 136.037H79.6406V144.094H87.6972V136.037Z" fill="#462683"/>
<path d="M95.7558 136.037H87.6992V144.094H95.7558V136.037Z" fill="#462683"/>
<path d="M119.924 136.037H111.867V144.094H119.924V136.037Z" fill="#462683"/>
<path d="M144.096 136.037H136.039V144.094H144.096V136.037Z" fill="#462683"/>
<path d="M160.209 136.037H152.152V144.094H160.209V136.037Z" fill="#462683"/>
<path d="M168.264 136.037H160.207V144.094H168.264V136.037Z" fill="#462683"/>
<path d="M200.49 136.037H192.434V144.094H200.49V136.037Z" fill="#462683"/>
<path d="M216.603 136.037H208.547V144.094H216.603V136.037Z" fill="#462683"/>
<path d="M224.662 136.037H216.605V144.094H224.662V136.037Z" fill="#462683"/>
<path d="M232.717 136.037H224.66V144.094H232.717V136.037Z" fill="#462683"/>
<path d="M240.775 136.037H232.719V144.094H240.775V136.037Z" fill="#462683"/>
<path d="M248.83 136.037H240.773V144.094H248.83V136.037Z" fill="#462683"/>
<path d="M264.943 136.037H256.887V144.094H264.943V136.037Z" fill="#462683"/>
<path d="M15.1894 144.094H7.13281V152.151H15.1894V144.094Z" fill="#462683"/>
<path d="M39.3613 144.094H31.3047V152.151H39.3613V144.094Z" fill="#462683"/>
<path d="M55.4707 144.094H47.4141V152.151H55.4707V144.094Z" fill="#462683"/>
<path d="M79.6425 144.094H71.5859V152.15H79.6425V144.094Z" fill="#462683"/>
<path d="M87.6972 144.094H79.6406V152.15H87.6972V144.094Z" fill="#462683"/>
<path d="M103.811 144.094H95.7539V152.15H103.811V144.094Z" fill="#462683"/>
<path d="M111.869 144.094H103.812V152.15H111.869V144.094Z" fill="#462683"/>
<path d="M127.982 144.094H119.926V152.15H127.982V144.094Z" fill="#462683"/>
<path d="M152.15 144.094H144.094V152.15H152.15V144.094Z" fill="#462683"/>
<path d="M160.209 144.094H152.152V152.15H160.209V144.094Z" fill="#462683"/>
<path d="M176.322 144.094H168.266V152.15H176.322V144.094Z" fill="#462683"/>
<path d="M184.377 144.094H176.32V152.15H184.377V144.094Z" fill="#462683"/>
<path d="M192.436 144.094H184.379V152.15H192.436V144.094Z" fill="#462683"/>
<path d="M208.549 144.094H200.492V152.15H208.549V144.094Z" fill="#462683"/>
<path d="M224.662 144.094H216.605V152.15H224.662V144.094Z" fill="#462683"/>
<path d="M232.717 144.094H224.66V152.15H232.717V144.094Z" fill="#462683"/>
<path d="M240.775 144.094H232.719V152.15H240.775V144.094Z" fill="#462683"/>
<path d="M248.83 144.094H240.773V152.15H248.83V144.094Z" fill="#462683"/>
<path d="M273.002 144.094H264.945V152.15H273.002V144.094Z" fill="#462683"/>
<path d="M23.2441 152.151H15.1875V160.207H23.2441V152.151Z" fill="#462683"/>
<path d="M39.3613 152.151H31.3047V160.207H39.3613V152.151Z" fill="#462683"/>
<path d="M47.416 152.151H39.3594V160.207H47.416V152.151Z" fill="#462683"/>
<path d="M55.4707 152.151H47.4141V160.207H55.4707V152.151Z" fill="#462683"/>
<path d="M63.5293 152.151H55.4727V160.207H63.5293V152.151Z" fill="#462683"/>
<path d="M71.5879 152.15H63.5312V160.207H71.5879V152.15Z" fill="#462683"/>
<path d="M87.6972 152.15H79.6406V160.207H87.6972V152.15Z" fill="#462683"/>
<path d="M103.811 152.15H95.7539V160.207H103.811V152.15Z" fill="#462683"/>
<path d="M119.924 152.15H111.867V160.207H119.924V152.15Z" fill="#462683"/>
<path d="M136.037 152.15H127.98V160.207H136.037V152.15Z" fill="#462683"/>
<path d="M152.15 152.15H144.094V160.207H152.15V152.15Z" fill="#462683"/>
<path d="M176.322 152.15H168.266V160.207H176.322V152.15Z" fill="#462683"/>
<path d="M200.49 152.15H192.434V160.207H200.49V152.15Z" fill="#462683"/>
<path d="M240.775 152.15H232.719V160.207H240.775V152.15Z" fill="#462683"/>
<path d="M248.83 152.15H240.773V160.207H248.83V152.15Z" fill="#462683"/>
<path d="M256.889 152.15H248.832V160.207H256.889V152.15Z" fill="#462683"/>
<path d="M273.002 152.15H264.945V160.207H273.002V152.15Z" fill="#462683"/>
<path d="M15.1894 160.208H7.13281V168.264H15.1894V160.208Z" fill="#462683"/>
<path d="M23.2441 160.208H15.1875V168.264H23.2441V160.208Z" fill="#462683"/>
<path d="M39.3613 160.208H31.3047V168.264H39.3613V160.208Z" fill="#462683"/>
<path d="M55.4707 160.208H47.4141V168.264H55.4707V160.208Z" fill="#462683"/>
<path d="M71.5879 160.207H63.5312V168.264H71.5879V160.207Z" fill="#462683"/>
<path d="M87.6972 160.207H79.6406V168.264H87.6972V160.207Z" fill="#462683"/>
<path d="M103.811 160.207H95.7539V168.264H103.811V160.207Z" fill="#462683"/>
<path d="M111.869 160.207H103.812V168.264H111.869V160.207Z" fill="#462683"/>
<path d="M119.924 160.207H111.867V168.264H119.924V160.207Z" fill="#462683"/>
<path d="M136.037 160.207H127.98V168.264H136.037V160.207Z" fill="#462683"/>
<path d="M152.15 160.207H144.094V168.264H152.15V160.207Z" fill="#462683"/>
<path d="M168.264 160.207H160.207V168.264H168.264V160.207Z" fill="#462683"/>
<path d="M192.436 160.207H184.379V168.264H192.436V160.207Z" fill="#462683"/>
<path d="M200.49 160.207H192.434V168.264H200.49V160.207Z" fill="#462683"/>
<path d="M208.549 160.207H200.492V168.264H208.549V160.207Z" fill="#462683"/>
<path d="M216.603 160.207H208.547V168.264H216.603V160.207Z" fill="#462683"/>
<path d="M232.717 160.207H224.66V168.264H232.717V160.207Z" fill="#462683"/>
<path d="M240.775 160.207H232.719V168.264H240.775V160.207Z" fill="#462683"/>
<path d="M248.83 160.207H240.773V168.264H248.83V160.207Z" fill="#462683"/>
<path d="M256.889 160.207H248.832V168.264H256.889V160.207Z" fill="#462683"/>
<path d="M264.943 160.207H256.887V168.264H264.943V160.207Z" fill="#462683"/>
<path d="M23.2441 168.264H15.1875V176.32H23.2441V168.264Z" fill="#462683"/>
<path d="M39.3613 168.264H31.3047V176.32H39.3613V168.264Z" fill="#462683"/>
<path d="M63.5293 168.264H55.4727V176.32H63.5293V168.264Z" fill="#462683"/>
<path d="M71.5879 168.264H63.5312V176.32H71.5879V168.264Z" fill="#462683"/>
<path d="M87.6972 168.264H79.6406V176.32H87.6972V168.264Z" fill="#462683"/>
<path d="M95.7558 168.264H87.6992V176.32H95.7558V168.264Z" fill="#462683"/>
<path d="M111.869 168.264H103.812V176.32H111.869V168.264Z" fill="#462683"/>
<path d="M119.924 168.264H111.867V176.32H119.924V168.264Z" fill="#462683"/>
<path d="M127.982 168.264H119.926V176.32H127.982V168.264Z" fill="#462683"/>
<path d="M136.037 168.264H127.98V176.32H136.037V168.264Z" fill="#462683"/>
<path d="M168.264 168.264H160.207V176.32H168.264V168.264Z" fill="#462683"/>
<path d="M176.322 168.264H168.266V176.32H176.322V168.264Z" fill="#462683"/>
<path d="M224.662 168.264H216.605V176.32H224.662V168.264Z" fill="#462683"/>
<path d="M232.717 168.264H224.66V176.32H232.717V168.264Z" fill="#462683"/>
<path d="M248.83 168.264H240.773V176.32H248.83V168.264Z" fill="#462683"/>
<path d="M273.002 168.264H264.945V176.32H273.002V168.264Z" fill="#462683"/>
<path d="M15.1894 176.32H7.13281V184.377H15.1894V176.32Z" fill="#462683"/>
<path d="M23.2441 176.32H15.1875V184.377H23.2441V176.32Z" fill="#462683"/>
<path d="M47.416 176.32H39.3594V184.377H47.416V176.32Z" fill="#462683"/>
<path d="M71.5879 176.32H63.5312V184.377H71.5879V176.32Z" fill="#462683"/>
<path d="M111.869 176.32H103.812V184.377H111.869V176.32Z" fill="#462683"/>
<path d="M136.037 176.32H127.98V184.377H136.037V176.32Z" fill="#462683"/>
<path d="M152.15 176.32H144.094V184.377H152.15V176.32Z" fill="#462683"/>
<path d="M160.209 176.32H152.152V184.377H160.209V176.32Z" fill="#462683"/>
<path d="M168.264 176.32H160.207V184.377H168.264V176.32Z" fill="#462683"/>
<path d="M176.322 176.32H168.266V184.377H176.322V176.32Z" fill="#462683"/>
<path d="M184.377 176.32H176.32V184.377H184.377V176.32Z" fill="#462683"/>
<path d="M192.436 176.32H184.379V184.377H192.436V176.32Z" fill="#462683"/>
<path d="M208.549 176.32H200.492V184.377H208.549V176.32Z" fill="#462683"/>
<path d="M224.662 176.32H216.605V184.377H224.662V176.32Z" fill="#462683"/>
<path d="M240.775 176.32H232.719V184.377H240.775V176.32Z" fill="#462683"/>
<path d="M248.83 176.32H240.773V184.377H248.83V176.32Z" fill="#462683"/>
<path d="M256.889 176.32H248.832V184.377H256.889V176.32Z" fill="#462683"/>
<path d="M15.1894 184.377H7.13281V192.434H15.1894V184.377Z" fill="#462683"/>
<path d="M39.3613 184.377H31.3047V192.434H39.3613V184.377Z" fill="#462683"/>
<path d="M47.416 184.377H39.3594V192.434H47.416V184.377Z" fill="#462683"/>
<path d="M55.4707 184.377H47.4141V192.434H55.4707V184.377Z" fill="#462683"/>
<path d="M63.5293 184.377H55.4727V192.434H63.5293V184.377Z" fill="#462683"/>
<path d="M71.5879 184.377H63.5312V192.434H71.5879V184.377Z" fill="#462683"/>
<path d="M87.6972 184.377H79.6406V192.434H87.6972V184.377Z" fill="#462683"/>
<path d="M95.7558 184.377H87.6992V192.434H95.7558V184.377Z" fill="#462683"/>
<path d="M103.811 184.377H95.7539V192.434H103.811V184.377Z" fill="#462683"/>
<path d="M111.869 184.377H103.812V192.434H111.869V184.377Z" fill="#462683"/>
<path d="M127.982 184.377H119.926V192.434H127.982V184.377Z" fill="#462683"/>
<path d="M136.037 184.377H127.98V192.434H136.037V184.377Z" fill="#462683"/>
<path d="M152.15 184.377H144.094V192.434H152.15V184.377Z" fill="#462683"/>
<path d="M160.209 184.377H152.152V192.434H160.209V184.377Z" fill="#462683"/>
<path d="M168.264 184.377H160.207V192.434H168.264V184.377Z" fill="#462683"/>
<path d="M184.377 184.377H176.32V192.434H184.377V184.377Z" fill="#462683"/>
<path d="M200.49 184.377H192.434V192.434H200.49V184.377Z" fill="#462683"/>
<path d="M224.662 184.377H216.605V192.434H224.662V184.377Z" fill="#462683"/>
<path d="M240.775 184.377H232.719V192.434H240.775V184.377Z" fill="#462683"/>
<path d="M264.943 184.377H256.887V192.434H264.943V184.377Z" fill="#462683"/>
<path d="M273.002 184.377H264.945V192.434H273.002V184.377Z" fill="#462683"/>
<path d="M15.1894 192.434H7.13281V200.49H15.1894V192.434Z" fill="#462683"/>
<path d="M31.3027 192.434H23.2461V200.49H31.3027V192.434Z" fill="#462683"/>
<path d="M39.3613 192.434H31.3047V200.49H39.3613V192.434Z" fill="#462683"/>
<path d="M87.6972 192.434H79.6406V200.49H87.6972V192.434Z" fill="#462683"/>
<path d="M103.811 192.434H95.7539V200.49H103.811V192.434Z" fill="#462683"/>
<path d="M136.037 192.434H127.98V200.49H136.037V192.434Z" fill="#462683"/>
<path d="M144.096 192.434H136.039V200.49H144.096V192.434Z" fill="#462683"/>
<path d="M152.15 192.434H144.094V200.49H152.15V192.434Z" fill="#462683"/>
<path d="M168.264 192.434H160.207V200.49H168.264V192.434Z" fill="#462683"/>
<path d="M176.322 192.434H168.266V200.49H176.322V192.434Z" fill="#462683"/>
<path d="M200.49 192.434H192.434V200.49H200.49V192.434Z" fill="#462683"/>
<path d="M208.549 192.434H200.492V200.49H208.549V192.434Z" fill="#462683"/>
<path d="M232.717 192.434H224.66V200.49H232.717V192.434Z" fill="#462683"/>
<path d="M240.775 192.434H232.719V200.49H240.775V192.434Z" fill="#462683"/>
<path d="M256.889 192.434H248.832V200.49H256.889V192.434Z" fill="#462683"/>
<path d="M15.1894 200.49H7.13281V208.547H15.1894V200.49Z" fill="#462683"/>
<path d="M23.2441 200.49H15.1875V208.547H23.2441V200.49Z" fill="#462683"/>
<path d="M31.3027 200.49H23.2461V208.547H31.3027V200.49Z" fill="#462683"/>
<path d="M39.3613 200.49H31.3047V208.547H39.3613V200.49Z" fill="#462683"/>
<path d="M47.416 200.49H39.3594V208.547H47.416V200.49Z" fill="#462683"/>
<path d="M63.5293 200.49H55.4727V208.547H63.5293V200.49Z" fill="#462683"/>
<path d="M71.5879 200.49H63.5312V208.547H71.5879V200.49Z" fill="#462683"/>
<path d="M111.869 200.49H103.812V208.547H111.869V200.49Z" fill="#462683"/>
<path d="M127.982 200.49H119.926V208.547H127.982V200.49Z" fill="#462683"/>
<path d="M136.037 200.49H127.98V208.547H136.037V200.49Z" fill="#462683"/>
<path d="M192.436 200.49H184.379V208.547H192.436V200.49Z" fill="#462683"/>
<path d="M200.49 200.49H192.434V208.547H200.49V200.49Z" fill="#462683"/>
<path d="M208.549 200.49H200.492V208.547H208.549V200.49Z" fill="#462683"/>
<path d="M216.603 200.49H208.547V208.547H216.603V200.49Z" fill="#462683"/>
<path d="M224.662 200.49H216.605V208.547H224.662V200.49Z" fill="#462683"/>
<path d="M232.717 200.49H224.66V208.547H232.717V200.49Z" fill="#462683"/>
<path d="M240.775 200.49H232.719V208.547H240.775V200.49Z" fill="#462683"/>
<path d="M273.002 200.49H264.945V208.547H273.002V200.49Z" fill="#462683"/>
<path d="M79.6425 208.547H71.5859V216.603H79.6425V208.547Z" fill="#462683"/>
<path d="M103.811 208.547H95.7539V216.603H103.811V208.547Z" fill="#462683"/>
<path d="M119.924 208.547H111.867V216.603H119.924V208.547Z" fill="#462683"/>
<path d="M127.982 208.547H119.926V216.603H127.982V208.547Z" fill="#462683"/>
<path d="M136.037 208.547H127.98V216.603H136.037V208.547Z" fill="#462683"/>
<path d="M144.096 208.547H136.039V216.603H144.096V208.547Z" fill="#462683"/>
<path d="M168.264 208.547H160.207V216.603H168.264V208.547Z" fill="#462683"/>
<path d="M176.322 208.547H168.266V216.603H176.322V208.547Z" fill="#462683"/>
<path d="M184.377 208.547H176.32V216.603H184.377V208.547Z" fill="#462683"/>
<path d="M208.549 208.547H200.492V216.603H208.549V208.547Z" fill="#462683"/>
<path d="M240.775 208.547H232.719V216.603H240.775V208.547Z" fill="#462683"/>
<path d="M248.83 208.547H240.773V216.603H248.83V208.547Z" fill="#462683"/>
<path d="M79.6425 216.604H71.5859V224.66H79.6425V216.604Z" fill="#462683"/>
<path d="M87.6972 216.604H79.6406V224.66H87.6972V216.604Z" fill="#462683"/>
<path d="M119.924 216.604H111.867V224.66H119.924V216.604Z" fill="#462683"/>
<path d="M136.037 216.604H127.98V224.66H136.037V216.604Z" fill="#462683"/>
<path d="M144.096 216.604H136.039V224.66H144.096V216.604Z" fill="#462683"/>
<path d="M152.15 216.604H144.094V224.66H152.15V216.604Z" fill="#462683"/>
<path d="M176.322 216.604H168.266V224.66H176.322V216.604Z" fill="#462683"/>
<path d="M200.49 216.604H192.434V224.66H200.49V216.604Z" fill="#462683"/>
<path d="M208.549 216.604H200.492V224.66H208.549V216.604Z" fill="#462683"/>
<path d="M224.662 216.604H216.605V224.66H224.662V216.604Z" fill="#462683"/>
<path d="M240.775 216.604H232.719V224.66H240.775V216.604Z" fill="#462683"/>
<path d="M248.83 216.604H240.773V224.66H248.83V216.604Z" fill="#462683"/>
<path d="M256.889 216.604H248.832V224.66H256.889V216.604Z" fill="#462683"/>
<path d="M95.7558 224.66H87.6992V232.717H95.7558V224.66Z" fill="#462683"/>
<path d="M119.924 224.66H111.867V232.717H119.924V224.66Z" fill="#462683"/>
<path d="M136.037 224.66H127.98V232.717H136.037V224.66Z" fill="#462683"/>
<path d="M144.096 224.66H136.039V232.717H144.096V224.66Z" fill="#462683"/>
<path d="M184.377 224.66H176.32V232.717H184.377V224.66Z" fill="#462683"/>
<path d="M192.436 224.66H184.379V232.717H192.436V224.66Z" fill="#462683"/>
<path d="M200.49 224.66H192.434V232.717H200.49V224.66Z" fill="#462683"/>
<path d="M208.549 224.66H200.492V232.717H208.549V224.66Z" fill="#462683"/>
<path d="M240.775 224.66H232.719V232.717H240.775V224.66Z" fill="#462683"/>
<path d="M248.83 224.66H240.773V232.717H248.83V224.66Z" fill="#462683"/>
<path d="M256.889 224.66H248.832V232.717H256.889V224.66Z" fill="#462683"/>
<path d="M264.943 224.66H256.887V232.717H264.943V224.66Z" fill="#462683"/>
<path d="M79.6425 232.717H71.5859V240.773H79.6425V232.717Z" fill="#462683"/>
<path d="M87.6972 232.717H79.6406V240.773H87.6972V232.717Z" fill="#462683"/>
<path d="M111.869 232.717H103.812V240.773H111.869V232.717Z" fill="#462683"/>
<path d="M119.924 232.717H111.867V240.773H119.924V232.717Z" fill="#462683"/>
<path d="M127.982 232.717H119.926V240.773H127.982V232.717Z" fill="#462683"/>
<path d="M176.322 232.717H168.266V240.773H176.322V232.717Z" fill="#462683"/>
<path d="M184.377 232.717H176.32V240.773H184.377V232.717Z" fill="#462683"/>
<path d="M192.436 232.717H184.379V240.773H192.436V232.717Z" fill="#462683"/>
<path d="M200.49 232.717H192.434V240.773H200.49V232.717Z" fill="#462683"/>
<path d="M208.549 232.717H200.492V240.773H208.549V232.717Z" fill="#462683"/>
<path d="M216.603 232.717H208.547V240.773H216.603V232.717Z" fill="#462683"/>
<path d="M224.662 232.717H216.605V240.773H224.662V232.717Z" fill="#462683"/>
<path d="M232.717 232.717H224.66V240.773H232.717V232.717Z" fill="#462683"/>
<path d="M240.775 232.717H232.719V240.773H240.775V232.717Z" fill="#462683"/>
<path d="M248.83 232.717H240.773V240.773H248.83V232.717Z" fill="#462683"/>
<path d="M264.943 232.717H256.887V240.773H264.943V232.717Z" fill="#462683"/>
<path d="M79.6425 240.773H71.5859V248.83H79.6425V240.773Z" fill="#462683"/>
<path d="M87.6972 240.773H79.6406V248.83H87.6972V240.773Z" fill="#462683"/>
<path d="M103.811 240.773H95.7539V248.83H103.811V240.773Z" fill="#462683"/>
<path d="M111.869 240.773H103.812V248.83H111.869V240.773Z" fill="#462683"/>
<path d="M119.924 240.773H111.867V248.83H119.924V240.773Z" fill="#462683"/>
<path d="M127.982 240.773H119.926V248.83H127.982V240.773Z" fill="#462683"/>
<path d="M136.037 240.773H127.98V248.83H136.037V240.773Z" fill="#462683"/>
<path d="M144.096 240.773H136.039V248.83H144.096V240.773Z" fill="#462683"/>
<path d="M160.209 240.773H152.152V248.83H160.209V240.773Z" fill="#462683"/>
<path d="M176.322 240.773H168.266V248.83H176.322V240.773Z" fill="#462683"/>
<path d="M184.377 240.773H176.32V248.83H184.377V240.773Z" fill="#462683"/>
<path d="M192.436 240.773H184.379V248.83H192.436V240.773Z" fill="#462683"/>
<path d="M200.49 240.773H192.434V248.83H200.49V240.773Z" fill="#462683"/>
<path d="M216.603 240.773H208.547V248.83H216.603V240.773Z" fill="#462683"/>
<path d="M232.717 240.773H224.66V248.83H232.717V240.773Z" fill="#462683"/>
<path d="M264.943 240.773H256.887V248.83H264.943V240.773Z" fill="#462683"/>
<path d="M87.6972 248.83H79.6406V256.887H87.6972V248.83Z" fill="#462683"/>
<path d="M103.811 248.83H95.7539V256.887H103.811V248.83Z" fill="#462683"/>
<path d="M111.869 248.83H103.812V256.887H111.869V248.83Z" fill="#462683"/>
<path d="M127.982 248.83H119.926V256.887H127.982V248.83Z" fill="#462683"/>
<path d="M136.037 248.83H127.98V256.887H136.037V248.83Z" fill="#462683"/>
<path d="M152.15 248.83H144.094V256.887H152.15V248.83Z" fill="#462683"/>
<path d="M160.209 248.83H152.152V256.887H160.209V248.83Z" fill="#462683"/>
<path d="M192.436 248.83H184.379V256.887H192.436V248.83Z" fill="#462683"/>
<path d="M240.775 248.83H232.719V256.887H240.775V248.83Z" fill="#462683"/>
<path d="M264.943 248.83H256.887V256.887H264.943V248.83Z" fill="#462683"/>
<path d="M273.002 248.83H264.945V256.887H273.002V248.83Z" fill="#462683"/>
<path d="M111.869 256.887H103.812V264.943H111.869V256.887Z" fill="#462683"/>
<path d="M119.924 256.887H111.867V264.943H119.924V256.887Z" fill="#462683"/>
<path d="M127.982 256.887H119.926V264.943H127.982V256.887Z" fill="#462683"/>
<path d="M144.096 256.887H136.039V264.943H144.096V256.887Z" fill="#462683"/>
<path d="M168.264 256.887H160.207V264.943H168.264V256.887Z" fill="#462683"/>
<path d="M176.322 256.887H168.266V264.943H176.322V256.887Z" fill="#462683"/>
<path d="M184.377 256.887H176.32V264.943H184.377V256.887Z" fill="#462683"/>
<path d="M200.49 256.887H192.434V264.943H200.49V256.887Z" fill="#462683"/>
<path d="M216.603 256.887H208.547V264.943H216.603V256.887Z" fill="#462683"/>
<path d="M224.662 256.887H216.605V264.943H224.662V256.887Z" fill="#462683"/>
<path d="M248.83 256.887H240.773V264.943H248.83V256.887Z" fill="#462683"/>
<path d="M256.889 256.887H248.832V264.943H256.889V256.887Z" fill="#462683"/>
<path d="M264.943 256.887H256.887V264.943H264.943V256.887Z" fill="#462683"/>
<path d="M273.002 256.887H264.945V264.943H273.002V256.887Z" fill="#462683"/>
<path d="M273.002 265H264.945V273.057H273.002V265Z" fill="#462683"/>
<path d="M87.6972 264.943H79.6406V273H87.6972V264.943Z" fill="#462683"/>
<path d="M95.7558 264.943H87.6992V273H95.7558V264.943Z" fill="#462683"/>
<path d="M103.811 264.943H95.7539V273H103.811V264.943Z" fill="#462683"/>
<path d="M111.869 264.943H103.812V273H111.869V264.943Z" fill="#462683"/>
<path d="M119.924 264.943H111.867V273H119.924V264.943Z" fill="#462683"/>
<path d="M160.209 264.943H152.152V273H160.209V264.943Z" fill="#462683"/>
<path d="M176.322 264.943H168.266V273H176.322V264.943Z" fill="#462683"/>
<path d="M184.377 264.943H176.32V273H184.377V264.943Z" fill="#462683"/>
<path d="M200.49 264.943H192.434V273H200.49V264.943Z" fill="#462683"/>
<path d="M208.549 264.943H200.492V273H208.549V264.943Z" fill="#462683"/>
<path d="M240.775 264.943H232.719V273H240.775V264.943Z" fill="#462683"/>
<path d="M55.0696 7.13184H15.5922H7.13281V15.5913V55.0686V63.5281H15.5922H55.0696H63.529V55.0686V15.5913V7.13184H55.0696ZM55.0696 55.0686H15.5922V15.5913H55.0696V55.0686Z" fill="#462683"/>
<path d="M264.542 7.13184H225.065H216.605V15.5913V55.0686V63.5281H225.065H264.542H273.002V55.0686V15.5913V7.13184H264.542ZM264.542 55.0686H225.065V15.5913H264.542V55.0686Z" fill="#462683"/>
<path d="M55.0696 216.604H15.5922H7.13281V225.063V264.54V273H15.5922H55.0696H63.529V264.54V225.063V216.604H55.0696ZM55.0696 264.54H15.5922V225.063H55.0696V264.54Z" fill="#462683"/>
<path d="M47.4159 23.2451H23.2461V47.4149H47.4159V23.2451Z" fill="#462683"/>
<path d="M256.889 23.2451H232.719V47.4149H256.889V23.2451Z" fill="#462683"/>
<path d="M47.4159 232.717H23.2461V256.887H47.4159V232.717Z" fill="#462683"/>
<rect width="104.736" height="105.528" transform="translate(87.6992 87.3018)" fill="white"/>
<path d="M140.065 184.378C164.538 184.378 184.377 164.539 184.377 140.066C184.377 115.594 164.538 95.7549 140.065 95.7549C115.593 95.7549 95.7539 115.594 95.7539 140.066C95.7539 164.539 115.593 184.378 140.065 184.378Z" fill="#FAB748"/>
<path fill-rule="evenodd" clip-rule="evenodd" d="M115.812 139.598C128.73 133.97 137.343 130.26 141.653 128.467C153.959 123.349 156.516 122.46 158.183 122.43C158.549 122.424 159.369 122.515 159.9 122.946C160.348 123.309 160.471 123.801 160.531 124.146C160.59 124.491 160.663 125.276 160.605 125.89C159.938 132.897 157.052 149.9 155.584 157.748C154.963 161.068 153.74 162.182 152.556 162.291C149.983 162.527 148.029 160.59 145.537 158.956C141.637 156.4 139.433 154.808 135.648 152.314C131.273 149.431 134.109 147.846 136.602 145.257C137.255 144.579 148.592 134.266 148.812 133.331C148.839 133.214 148.865 132.778 148.606 132.547C148.347 132.317 147.964 132.396 147.688 132.458C147.297 132.547 141.067 136.665 128.997 144.812C127.229 146.027 125.627 146.618 124.192 146.587C122.61 146.553 119.566 145.693 117.304 144.957C114.529 144.055 112.324 143.578 112.516 142.046C112.616 141.249 113.714 140.432 115.812 139.598Z" fill="white"/>
</g>
<defs>
<clipPath id="clip0_233_8482">
<rect width="280" height="280" rx="4" fill="white"/>
</clipPath>
</defs>
</svg>
