<svg width="359" height="362" viewBox="0 0 359 362" fill="none" xmlns="http://www.w3.org/2000/svg">
<path d="M332.813 0.82312L278 50.569L342.961 38.6715L332.813 0.82312Z" fill="url(#paint0_linear_286_1356)"/>
<path d="M388.781 57.0654L332.539 0L342.961 38.6715L388.781 57.0654Z" fill="url(#paint1_linear_286_1356)"/>
<path d="M387.958 56.5168L342.961 38.6715L332.539 107.821L387.958 56.5168Z" fill="url(#paint2_linear_286_1356)"/>
<path d="M342.96 38.6715L278.695 50.4142L332.538 107.821L342.96 38.6715Z" fill="url(#paint3_linear_286_1356)"/>
<mask id="mask0_286_1356" style="mask-type:alpha" maskUnits="userSpaceOnUse" x="39" y="60" width="59" height="59">
<path d="M75.0719 61.0078C75.3349 60.8653 75.6636 60.9554 75.8172 61.2121L97.5968 97.6184C97.7586 97.8889 97.6647 98.2396 97.3893 98.393L61.4646 118.404C61.1954 118.554 60.8556 118.457 60.7053 118.188L39.7955 80.7653C39.6437 80.4936 39.7433 80.1502 40.0169 80.0019L75.0719 61.0078Z" fill="#D9D9D9"/>
</mask>
<g mask="url(#mask0_286_1356)">
<path d="M75.5411 60.7514L39.0539 80.3634L75.9399 82.6768L75.5411 60.7514Z" fill="url(#paint4_linear_286_1356)"/>
<path d="M98.3358 98.8556L75.5 60.2675L75.9362 82.6769L98.3358 98.8556Z" fill="url(#paint5_linear_286_1356)"/>
<path d="M97.9678 98.4465L75.9411 82.6769L60.9408 118.823L97.9678 98.4465Z" fill="url(#paint6_linear_286_1356)"/>
<path d="M75.94 82.6768L39.4529 80.3733L60.9397 118.823L75.94 82.6768Z" fill="url(#paint7_linear_286_1356)"/>
</g>
<mask id="mask1_286_1356" style="mask-type:alpha" maskUnits="userSpaceOnUse" x="4" y="302" width="52" height="60">
<path d="M26.2409 302.839C26.428 302.529 26.8475 302.459 27.1253 302.692L55.1458 326.137C55.3644 326.32 55.4211 326.633 55.2804 326.881L35.7521 361.302C35.579 361.607 35.1795 361.695 34.8945 361.49L4.60695 339.758C4.35685 339.579 4.28661 339.237 4.4456 338.974L26.2409 302.839Z" fill="#D9D9D9"/>
</mask>
<g mask="url(#mask1_286_1356)">
<path d="M26.5952 302.249L4.16126 339.44L48.8243 333.729L26.5952 302.249Z" fill="url(#paint8_linear_286_1356)"/>
<path d="M55.5202 326.453L26.5938 302.249L48.8236 333.729L55.5202 326.453Z" fill="url(#paint9_linear_286_1356)"/>
<path d="M55.5193 326.453L48.8215 333.729L35.4274 361.873L55.5193 326.453Z" fill="url(#paint10_linear_286_1356)"/>
<path d="M48.8232 333.729L4.16167 339.44L35.4266 361.873L48.8232 333.729Z" fill="url(#paint11_linear_286_1356)"/>
</g>
<defs>
<linearGradient id="paint0_linear_286_1356" x1="341.746" y1="33.7876" x2="278.491" y2="50.7554" gradientUnits="userSpaceOnUse">
<stop offset="0.00606404" stop-color="#FFE89C"/>
<stop offset="0.023053" stop-color="#FFDE71"/>
<stop offset="1" stop-color="#FFC242"/>
</linearGradient>
<linearGradient id="paint1_linear_286_1356" x1="388.784" y1="56.7911" x2="333.093" y2="0.817625" gradientUnits="userSpaceOnUse">
<stop stop-color="#FEB30C"/>
<stop offset="1" stop-color="#FFD35D"/>
</linearGradient>
<linearGradient id="paint2_linear_286_1356" x1="333.088" y1="107.821" x2="358.106" y2="44.6763" gradientUnits="userSpaceOnUse">
<stop stop-color="#E7A229"/>
<stop offset="0.985878" stop-color="#D7951C"/>
<stop offset="1" stop-color="#D7941A"/>
</linearGradient>
<linearGradient id="paint3_linear_286_1356" x1="340.04" y1="60.6375" x2="278.217" y2="51.0298" gradientUnits="userSpaceOnUse">
<stop stop-color="#F8B130"/>
<stop offset="0.0300404" stop-color="#EEA624"/>
<stop offset="1" stop-color="#E8A224"/>
</linearGradient>
<linearGradient id="paint4_linear_286_1356" x1="75.9401" y1="79.8604" x2="39.2953" y2="80.5309" gradientUnits="userSpaceOnUse">
<stop offset="0.00606404" stop-color="#FFE89C"/>
<stop offset="0.023053" stop-color="#FFDE71"/>
<stop offset="1" stop-color="#FFC242"/>
</linearGradient>
<linearGradient id="paint5_linear_286_1356" x1="98.3744" y1="98.707" x2="75.6905" y2="60.7863" gradientUnits="userSpaceOnUse">
<stop stop-color="#FEB30C"/>
<stop offset="1" stop-color="#FFD35D"/>
</linearGradient>
<linearGradient id="paint6_linear_286_1356" x1="61.2387" y1="118.897" x2="83.3552" y2="87.9838" gradientUnits="userSpaceOnUse">
<stop stop-color="#E7A229"/>
<stop offset="0.985878" stop-color="#D7951C"/>
<stop offset="1" stop-color="#D7941A"/>
</linearGradient>
<linearGradient id="paint7_linear_286_1356" x1="71.387" y1="94.2116" x2="39.1097" y2="80.643" gradientUnits="userSpaceOnUse">
<stop stop-color="#F8B130"/>
<stop offset="0.0300404" stop-color="#EEA624"/>
<stop offset="1" stop-color="#E8A224"/>
</linearGradient>
<linearGradient id="paint8_linear_286_1356" x1="36.8444" y1="316.655" x2="5.17746" y2="339.129" gradientUnits="userSpaceOnUse">
<stop offset="0.00606404" stop-color="#FFE89C"/>
<stop offset="0.023053" stop-color="#FFDE71"/>
<stop offset="1" stop-color="#FFC242"/>
</linearGradient>
<linearGradient id="paint9_linear_286_1356" x1="53.9228" y1="328.176" x2="27.3089" y2="302.928" gradientUnits="userSpaceOnUse">
<stop stop-color="#FDB81F"/>
<stop offset="0.0194957" stop-color="#FEB30C"/>
<stop offset="1" stop-color="#FFDD70"/>
</linearGradient>
<linearGradient id="paint10_linear_286_1356" x1="69.0995" y1="349.181" x2="50.4068" y2="332.019" gradientUnits="userSpaceOnUse">
<stop stop-color="#221704"/>
<stop offset="0.986166" stop-color="#A57010"/>
<stop offset="1" stop-color="#A06E11"/>
</linearGradient>
<linearGradient id="paint11_linear_286_1356" x1="32.2005" y1="335.812" x2="35.7662" y2="361.621" gradientUnits="userSpaceOnUse">
<stop stop-color="#E9A62D"/>
<stop offset="0.108582" stop-color="#EEA624"/>
<stop offset="1" stop-color="#CE8E1B"/>
</linearGradient>
</defs>
</svg>
