<svg width="1920" height="1080" viewBox="0 0 1920 1080" fill="none" xmlns="http://www.w3.org/2000/svg">
<g opacity="0.5">
<mask id="mask0_344_12510" style="mask-type:alpha" maskUnits="userSpaceOnUse" x="0" y="0" width="1920" height="1080">
<rect width="1920" height="1080" fill="white"/>
</mask>
<g mask="url(#mask0_344_12510)">
<circle cx="1904.25" cy="1043.25" r="0.75" fill="white"/>
<circle cx="949.25" cy="501.25" r="0.75" fill="white"/>
<circle cx="1214.25" cy="796.25" r="0.75" fill="white"/>
<circle cx="825.25" cy="260.25" r="0.75" fill="white"/>
<circle cx="1090.25" cy="654.25" r="0.75" fill="white"/>
<circle cx="799.25" cy="396.25" r="0.75" fill="white"/>
<circle cx="471.25" cy="11.25" r="0.75" fill="white"/>
<circle cx="1879.25" cy="260.25" r="0.75" fill="white"/>
<circle cx="81.25" cy="225.25" r="0.75" fill="white"/>
<circle cx="379.25" cy="83.25" r="0.75" fill="white"/>
<circle cx="1372.25" cy="662.25" r="0.75" fill="white"/>
<circle cx="337.25" cy="560.25" r="0.75" fill="white"/>
<circle cx="1226.25" cy="803.25" r="0.75" fill="white"/>
<circle cx="1528.25" cy="448.25" r="0.75" fill="white"/>
<circle cx="653.25" cy="8.25" r="0.75" fill="white"/>
<circle cx="1592.25" cy="569.25" r="0.75" fill="white"/>
<circle cx="204.25" cy="324.25" r="0.75" fill="white"/>
<circle cx="977.25" cy="578.25" r="0.75" fill="white"/>
<circle cx="732.25" cy="149.25" r="0.75" fill="white"/>
<circle cx="1531.25" cy="512.25" r="0.75" fill="white"/>
<circle cx="360.25" cy="297.25" r="0.75" fill="white"/>
<circle cx="1619.25" cy="1042.25" r="0.75" fill="white"/>
<circle cx="1831.25" cy="1016.25" r="0.75" fill="white"/>
<circle cx="1149.25" cy="617.25" r="0.75" fill="white"/>
<circle cx="1519.25" cy="205.25" r="0.75" fill="white"/>
<circle cx="1071.25" cy="580.25" r="0.75" fill="white"/>
<circle cx="1691.25" cy="985.25" r="0.75" fill="white"/>
<circle cx="984.25" cy="215.25" r="0.75" fill="white"/>
<circle cx="1676.25" cy="888.25" r="0.75" fill="white"/>
<circle cx="1703.25" cy="969.25" r="0.75" fill="white"/>
<circle cx="1497.25" cy="680.25" r="0.75" fill="white"/>
<circle cx="595.25" cy="839.25" r="0.75" fill="white"/>
<circle cx="1476.25" cy="321.25" r="0.75" fill="white"/>
<circle cx="1811.25" cy="332.25" r="0.75" fill="white"/>
<circle cx="441.25" cy="97.25" r="0.75" fill="white"/>
<circle cx="1012.25" cy="637.25" r="0.75" fill="white"/>
<circle cx="147.25" cy="346.25" r="0.75" fill="white"/>
<circle cx="644.25" cy="961.25" r="0.75" fill="white"/>
<circle cx="107.25" cy="730.25" r="0.75" fill="white"/>
<circle cx="713.25" cy="725.25" r="0.75" fill="white"/>
<circle cx="1667.25" cy="410.25" r="0.75" fill="white"/>
<circle cx="810.25" cy="26.25" r="0.75" fill="white"/>
<circle cx="304.25" cy="262.25" r="0.75" fill="white"/>
<circle cx="1738.25" cy="471.25" r="0.75" fill="white"/>
<circle cx="1470.25" cy="254.25" r="0.75" fill="white"/>
<circle cx="209.25" cy="780.25" r="0.75" fill="white"/>
<circle cx="445.25" cy="1067.25" r="0.75" fill="white"/>
<circle cx="1478.25" cy="962.25" r="0.75" fill="white"/>
<circle cx="897.25" cy="915.25" r="0.75" fill="white"/>
<circle cx="925.25" cy="425.25" r="0.75" fill="white"/>
<circle cx="1870.25" cy="682.25" r="0.75" fill="white"/>
<circle cx="104.25" cy="340.25" r="0.75" fill="white"/>
<circle cx="916.25" cy="1025.25" r="0.75" fill="white"/>
<circle cx="1763.25" cy="58.25" r="0.75" fill="white"/>
<circle cx="823.25" cy="75.25" r="0.75" fill="white"/>
<circle cx="1456.25" cy="293.25" r="0.75" fill="white"/>
<circle cx="1448.25" cy="245.25" r="0.75" fill="white"/>
<circle cx="1039.25" cy="580.25" r="0.75" fill="white"/>
<circle cx="1341.25" cy="300.25" r="0.75" fill="white"/>
<circle cx="464.25" cy="1018.25" r="0.75" fill="white"/>
<circle cx="1029.25" cy="486.25" r="0.75" fill="white"/>
<circle cx="269.25" cy="297.25" r="0.75" fill="white"/>
<circle cx="501.25" cy="1003.25" r="0.75" fill="white"/>
<circle cx="1553.25" cy="26.25" r="0.75" fill="white"/>
<circle cx="1246.25" cy="753.25" r="0.75" fill="white"/>
<circle cx="66.25" cy="267.25" r="0.75" fill="white"/>
<circle cx="201.25" cy="530.25" r="0.75" fill="white"/>
<circle cx="385.25" cy="52.25" r="0.75" fill="white"/>
<circle cx="427.25" cy="720.25" r="0.75" fill="white"/>
<circle cx="1560.25" cy="201.25" r="0.75" fill="white"/>
<circle cx="608.25" cy="433.25" r="0.75" fill="white"/>
<circle cx="1676.25" cy="788.25" r="0.75" fill="white"/>
<circle cx="1673.25" cy="356.25" r="0.75" fill="white"/>
<circle cx="1211.25" cy="71.25" r="0.75" fill="white"/>
<circle cx="789.25" cy="675.25" r="0.75" fill="white"/>
</g>
</g>
</svg>
