<svg width="161" height="161" viewBox="0 0 161 161" fill="none" xmlns="http://www.w3.org/2000/svg">
<path fill-rule="evenodd" clip-rule="evenodd" d="M148.657 114.096C148.412 112.046 146.859 111.199 144.129 111.289C145.386 111.012 146.232 110.303 146.639 109.207C147.001 108.09 146.859 107.003 146.195 105.984C145.842 105.43 145.362 105.027 144.755 104.762C144.149 104.497 143.551 104.383 142.97 104.412C142.384 104.44 141.883 104.632 141.469 104.97C141.05 105.316 140.85 105.837 140.862 106.567C140.846 107.312 141.143 107.748 141.798 107.87C142.445 107.993 142.811 107.752 142.791 107.133C142.778 106.514 143.092 106.253 143.751 106.343C144.406 106.432 144.731 106.876 144.727 107.683C144.739 108.449 144.475 108.995 144.031 109.349C143.588 109.7 143.071 109.871 142.49 109.863C141.908 109.85 141.326 109.687 140.74 109.37C140.155 109.056 139.699 108.62 139.365 108.078C138.828 107.19 138.637 106.412 138.772 105.715C138.881 105.002 139.178 104.412 139.671 103.927C140.167 103.442 140.777 103.079 141.469 102.823C142.168 102.57 142.844 102.493 143.482 102.607C142.787 101.996 142.315 101.344 142.067 100.643C141.818 99.9423 141.631 99.266 141.595 98.6304C141.558 97.9948 141.591 97.4285 141.692 96.9315C141.77 96.4263 141.831 96.0841 141.875 95.8967C146.191 101.315 149.824 107.72 152.493 114.902C152.59 114.666 152.757 114.25 152.989 113.647C153.213 113.049 153.412 112.376 153.485 111.594C153.562 110.816 153.518 110.009 153.355 109.182C153.184 108.355 152.786 107.61 152.102 106.937C152.733 107.035 153.42 106.921 154.152 106.575C154.889 106.225 155.523 105.715 156.044 105.055C156.561 104.395 156.829 103.597 156.923 102.709C156.996 101.816 156.756 100.932 156.072 100.048C155.653 99.49 155.125 99.1234 154.49 98.9237C153.851 98.7241 153.249 98.6956 152.676 98.8219C152.098 98.9441 151.646 99.2374 151.252 99.6774C150.857 100.117 150.695 100.729 150.756 101.523C150.813 102.354 151.175 102.79 151.834 102.81C152.497 102.835 152.802 102.509 152.749 101.837C152.684 101.169 152.989 100.843 153.66 100.843C154.327 100.843 154.693 101.27 154.746 102.134C154.791 102.957 154.608 103.609 154.205 104.065C153.782 104.517 153.27 104.782 152.688 104.872C152.098 104.957 151.496 104.868 150.886 104.619C150.267 104.367 149.775 103.967 149.413 103.43C148.722 102.411 148.437 101.348 148.685 100.227C148.803 99.6652 149.051 99.1886 149.405 98.7771C149.747 98.3615 150.215 98.0234 150.813 97.7463C148.14 98.4023 146.488 97.726 145.789 96.0148C147.172 94.7682 148.949 94.8741 151.069 96.63C150.259 95.6237 149.942 94.5808 150.219 93.4604C150.353 92.9022 150.597 92.4093 150.947 91.9856C151.28 91.5578 151.708 91.1871 152.257 90.8815C152.818 90.5596 153.436 90.4089 154.099 90.4496C154.763 90.4863 155.34 90.6696 155.832 90.9996C156.321 91.3337 156.662 91.79 156.849 92.3848C157.057 92.9756 156.906 93.6356 156.512 94.3689C156.085 95.1226 155.572 95.3467 154.97 95.0574C154.364 94.7641 154.234 94.3404 154.584 93.7741C154.925 93.1874 154.795 92.7556 154.189 92.4867C153.587 92.2219 153.07 92.4663 152.655 93.1956C152.253 93.8759 152.131 94.4911 152.297 95.0615C152.46 95.6278 152.773 96.0963 153.229 96.4548C153.689 96.8174 154.246 97.0497 154.905 97.1474C155.564 97.2411 156.203 97.1393 156.821 96.8297C157.781 96.3082 158.416 95.6197 158.729 94.7845C159.038 93.9493 159.14 93.1141 158.94 92.2911C158.761 91.4682 158.411 90.7389 157.903 90.1033C157.394 89.4759 156.825 89.0726 156.215 88.9015C157.102 88.5919 157.789 88.0948 158.302 87.4144C158.814 86.7381 159.201 86.0293 159.469 85.2918C159.725 84.5585 159.851 83.87 159.904 83.2304C159.957 82.5948 159.99 82.1507 160.002 81.9022C154.486 87.1985 148.449 91.4071 142.221 94.4259C142.262 94.2304 142.376 93.8963 142.49 93.3993C142.616 92.9022 142.831 92.3808 143.145 91.8185C143.466 91.2604 143.909 90.7267 144.426 90.2093C144.955 89.6878 145.667 89.3007 146.558 89.0563C145.935 88.877 145.362 88.5104 144.841 87.9807C144.328 87.447 143.913 86.8563 143.69 86.2085C143.458 85.5567 143.45 84.9007 143.657 84.2081C143.828 83.5155 144.345 82.9044 145.215 82.3422C145.748 81.9959 146.35 81.8003 147.013 81.7678C147.68 81.7311 148.27 81.8329 148.803 82.0815C149.328 82.3259 149.718 82.7089 149.966 83.2141C150.206 83.7233 150.215 84.3385 149.877 85.027C149.531 85.7522 149.047 86.0007 148.417 85.8052C147.786 85.6015 147.615 85.2348 147.896 84.6889C148.168 84.1307 147.953 83.7559 147.314 83.5848C146.676 83.4137 146.204 83.6744 145.915 84.3548C145.585 85.0026 145.536 85.5607 145.764 86.0496C145.988 86.5426 146.358 86.9256 146.871 87.2107C147.383 87.4918 147.969 87.6467 148.628 87.6711C149.291 87.6915 149.897 87.5448 150.455 87.2067C151.492 86.563 152.11 85.6422 152.249 84.4811C152.354 83.32 151.899 82.3137 150.89 81.5274C153.31 82.7863 155.072 82.6967 156.186 80.9692H142.758C142.746 90.4008 140.618 99.763 136.559 108.241L148.657 114.096Z" fill="#462683"/>
<path fill-rule="evenodd" clip-rule="evenodd" d="M127.493 140.627C127.838 139.673 127.761 138.834 127.265 138.088C126.777 137.347 125.898 136.724 124.637 136.149C124.954 136.227 125.259 136.271 125.552 136.28C125.841 136.28 126.114 136.247 126.378 136.178C126.903 136.039 127.375 135.762 127.79 135.355C128.636 134.548 128.949 133.477 128.794 132.267C128.713 131.611 128.453 131.036 128.017 130.535C127.586 130.03 127.098 129.671 126.561 129.447C126.024 129.223 125.491 129.178 124.975 129.313C124.714 129.382 124.482 129.512 124.279 129.712C124.071 129.904 123.88 130.156 123.722 130.478C123.38 131.138 123.473 131.672 124.006 132.063C124.539 132.458 124.95 132.377 125.219 131.831C125.491 131.285 125.886 131.187 126.435 131.55C126.98 131.908 127.106 132.47 126.728 133.175C126.382 133.839 125.93 134.243 125.381 134.373C124.832 134.499 124.299 134.438 123.783 134.181C123.258 133.913 122.802 133.513 122.416 132.971C122.025 132.434 121.81 131.855 121.741 131.215C121.635 130.172 121.785 129.378 122.208 128.804C122.42 128.514 122.668 128.282 122.928 128.074C123.189 127.867 123.482 127.708 123.803 127.59C124.454 127.357 125.149 127.288 125.906 127.378C126.663 127.471 127.285 127.679 127.814 128.062C127.448 127.207 127.301 126.408 127.375 125.662C127.448 124.913 127.619 124.265 127.842 123.654C128.078 123.059 128.347 122.558 128.652 122.151C128.961 121.747 129.173 121.466 129.286 121.311C130.816 128.082 131.312 135.428 130.617 143.051C130.816 142.892 131.141 142.582 131.601 142.134C132.061 141.69 132.504 141.144 132.927 140.492C133.354 139.853 133.647 139.091 133.851 138.268C134.05 137.445 133.997 136.585 133.692 135.701C134.217 136.06 134.908 136.28 135.71 136.28C136.519 136.28 137.304 136.092 138.053 135.713C138.427 135.526 138.769 135.29 139.078 135.008C139.387 134.727 139.639 134.377 139.871 133.998C140.323 133.228 140.461 132.299 140.258 131.232C140.136 130.564 139.81 129.993 139.326 129.537C138.838 129.077 138.309 128.787 137.74 128.657C137.162 128.514 136.605 128.559 136.064 128.791C135.523 129.02 135.116 129.504 134.835 130.254C134.538 131.04 134.644 131.558 135.238 131.875C135.828 132.193 136.259 132.038 136.487 131.403C136.715 130.767 137.125 130.604 137.727 130.898C138.325 131.191 138.472 131.733 138.155 132.54C138 132.922 137.817 133.244 137.593 133.493C137.365 133.737 137.105 133.912 136.816 134.022C136.243 134.251 135.673 134.271 135.112 134.096C134.546 133.917 134.046 133.578 133.603 133.085C133.155 132.588 132.883 132.014 132.785 131.37C132.577 130.128 132.842 129.105 133.525 128.176C133.871 127.716 134.29 127.386 134.794 127.174C135.047 127.068 135.315 126.991 135.608 126.946C135.893 126.893 136.198 126.868 136.523 126.872C135.185 126.595 134.205 126.107 133.586 125.475C132.976 124.848 132.695 124.053 132.748 123.12C134.522 122.591 136.076 123.458 137.231 125.972C136.914 124.693 137.138 123.658 137.849 122.754C138.212 122.305 138.639 121.967 139.135 121.735C139.383 121.617 139.647 121.527 139.932 121.462C140.205 121.393 140.498 121.344 140.811 121.324C141.454 121.275 142.072 121.409 142.654 121.739C143.231 122.061 143.675 122.481 143.976 122.994C144.269 123.503 144.391 124.078 144.289 124.681C144.187 125.284 143.797 125.834 143.121 126.318C142.418 126.815 141.856 126.795 141.441 126.27C141.022 125.74 141.088 125.3 141.641 124.941C142.198 124.558 142.267 124.11 141.836 123.605C141.409 123.104 140.839 123.1 140.152 123.581C139.501 124.021 139.127 124.526 139.033 125.112C138.919 125.683 138.984 126.229 139.249 126.758C139.505 127.288 139.908 127.736 140.461 128.115C141.014 128.49 141.629 128.669 142.316 128.661C143.435 128.632 144.297 128.286 144.936 127.663C145.57 127.04 146.014 126.327 146.217 125.516C146.408 124.697 146.408 123.882 146.225 123.088C146.038 122.297 145.701 121.686 145.225 121.262C146.172 121.377 147.014 121.234 147.763 120.843C148.516 120.452 149.17 119.983 149.732 119.437C150.301 118.899 150.696 118.325 151.03 117.771C151.351 117.221 151.575 116.834 151.693 116.614C144.419 118.989 137.154 120.13 130.226 120.138C130.348 119.979 130.58 119.714 130.926 119.339C131.268 118.957 131.674 118.569 132.199 118.199C132.72 117.828 133.354 117.543 134.066 117.315C134.766 117.074 135.567 117.034 136.479 117.201C135.995 116.769 135.637 116.186 135.397 115.477C135.274 115.123 135.201 114.777 135.161 114.43C135.112 114.08 135.104 113.734 135.14 113.387C135.213 112.699 135.486 112.1 135.974 111.57C136.442 111.032 137.162 110.702 138.187 110.576C138.818 110.499 139.444 110.58 140.054 110.841C140.669 111.098 141.161 111.448 141.531 111.9C141.897 112.348 142.084 112.862 142.088 113.428C142.088 113.994 141.82 114.544 141.214 115.017C140.587 115.522 140.046 115.534 139.562 115.078C139.082 114.622 139.086 114.214 139.574 113.844C140.075 113.469 140.038 113.037 139.538 112.605C139.033 112.169 138.508 112.21 137.935 112.682C137.361 113.122 137.077 113.607 137.068 114.145C137.06 114.687 137.227 115.196 137.565 115.673C137.906 116.149 138.358 116.541 138.948 116.854C139.538 117.164 140.148 117.294 140.795 117.233C142.007 117.107 142.947 116.537 143.593 115.563C144.195 114.565 144.22 113.457 143.65 112.308C145.286 114.495 146.913 115.184 148.662 114.108L136.568 108.266C134.514 112.491 131.992 116.488 129.067 120.171L128.526 120.867C128.343 121.099 128.143 121.311 127.952 121.535L126.801 122.868C126.427 123.324 126.004 123.731 125.601 124.159L124.389 125.438L123.111 126.652C122.68 127.052 122.273 127.48 121.822 127.854L120.492 129.007C120.268 129.199 120.052 129.398 119.825 129.582L119.129 130.124L127.493 140.627Z" fill="#462683"/>
<path fill-rule="evenodd" clip-rule="evenodd" d="M96.9479 155.367C98.4043 153.928 98.0951 152.189 96.3215 150.082C96.8218 150.494 97.3466 150.763 97.8836 150.885C98.4165 150.995 98.9575 150.938 99.5107 150.742C100.613 150.347 101.386 149.598 101.756 148.404C101.964 147.772 101.98 147.137 101.805 146.497C101.634 145.854 101.349 145.32 100.967 144.888C100.581 144.452 100.125 144.191 99.6043 144.09C99.0714 143.967 98.5344 144.122 97.969 144.574C97.3791 145.031 97.2286 145.556 97.5418 146.135C97.851 146.721 98.2537 146.823 98.7297 146.44C99.2097 146.053 99.6124 146.147 99.9501 146.721C100.292 147.296 100.145 147.817 99.5067 148.302C98.9087 148.758 98.327 148.934 97.7778 148.815C97.2327 148.701 96.7689 148.375 96.415 147.919C96.0571 147.451 95.8252 146.892 95.7113 146.237C95.5933 145.585 95.6503 144.957 95.8659 144.371C96.232 143.425 96.7039 142.733 97.3303 142.403C97.9568 142.052 98.6158 141.959 99.2951 142.024C99.9745 142.089 100.633 142.325 101.272 142.725C101.911 143.128 102.391 143.613 102.7 144.187C102.749 143.279 102.956 142.476 103.339 141.832C103.725 141.181 104.148 140.651 104.628 140.231C105.108 139.824 105.552 139.453 106.003 139.221C106.451 138.977 106.76 138.818 106.935 138.74C105.389 145.495 102.655 152.331 98.7134 158.899C98.9575 158.834 99.3928 158.711 100.007 158.528C100.613 158.324 101.248 158.015 101.911 157.603C102.566 157.184 103.18 156.687 103.717 156.018C104.25 155.354 104.575 154.552 104.681 153.619C104.998 154.177 105.519 154.645 106.251 155.016C106.992 155.395 107.777 155.558 108.611 155.53C109.445 155.509 110.246 155.257 111.003 154.784C111.743 154.287 112.26 153.488 112.54 152.433C112.715 151.765 112.679 151.125 112.439 150.506C112.199 149.883 111.845 149.39 111.385 149.019C110.929 148.644 110.409 148.445 109.823 148.428C109.237 148.4 108.676 148.693 108.082 149.211C107.464 149.761 107.346 150.307 107.74 150.84C108.135 151.378 108.586 151.419 109.078 150.975C109.571 150.527 109.998 150.527 110.417 151.06C110.828 151.578 110.734 152.144 110.095 152.731C109.477 153.264 108.847 153.517 108.236 153.472C107.622 153.435 107.101 153.211 106.67 152.816C106.239 152.413 105.934 151.891 105.747 151.256C105.56 150.612 105.56 149.977 105.751 149.345C106.097 148.127 106.768 147.288 107.805 146.795C108.818 146.253 109.888 146.302 111.068 146.905C108.875 145.194 108.379 143.487 109.294 141.902C111.108 142.167 112.133 143.621 112.097 146.408C112.357 145.108 112.992 144.24 114.049 143.78C115.079 143.271 116.161 143.271 117.328 143.755C117.934 144 118.443 144.399 118.821 144.941C119.204 145.483 119.423 146.053 119.468 146.64C119.509 147.222 119.358 147.768 119.008 148.274C118.662 148.779 118.073 149.113 117.263 149.272C116.413 149.41 115.904 149.129 115.762 148.485C115.612 147.83 115.876 147.487 116.523 147.385C117.186 147.275 117.438 146.892 117.267 146.249C117.096 145.609 116.588 145.365 115.766 145.507C115.001 145.646 114.432 145.907 114.082 146.379C113.732 146.848 113.561 147.377 113.569 147.972C113.574 148.563 113.744 149.145 114.078 149.724C114.416 150.298 114.892 150.726 115.51 151.011C116.519 151.447 117.467 151.541 118.317 151.264C119.155 150.971 119.85 150.498 120.387 149.858C120.656 149.541 120.884 149.202 121.063 148.844C121.237 148.477 121.364 148.09 121.453 147.687C121.62 146.884 121.575 146.184 121.327 145.597C122.124 146.098 122.954 146.347 123.808 146.338C124.659 146.318 125.44 146.159 126.176 145.902C126.904 145.642 127.551 145.348 128.08 144.986C128.604 144.623 128.967 144.367 129.166 144.216C121.587 143.205 114.542 141.095 108.297 138.101C108.476 138.011 108.794 137.864 109.266 137.665C109.733 137.457 110.295 137.343 110.917 137.212C111.544 137.098 112.227 137.094 112.967 137.204C113.716 137.31 114.464 137.636 115.201 138.166C114.953 137.563 114.875 136.882 114.961 136.133C115.046 135.383 115.27 134.723 115.644 134.153C116.006 133.562 116.498 133.126 117.161 132.849C117.82 132.572 118.638 132.617 119.602 132.926C120.2 133.122 120.729 133.468 121.164 133.965C121.608 134.462 121.901 134.992 122.039 135.562C122.177 136.129 122.128 136.679 121.892 137.196C121.64 137.697 121.136 138.048 120.399 138.231C119.627 138.427 119.13 138.207 118.894 137.587C118.658 136.964 118.833 136.593 119.427 136.463C120.029 136.324 120.204 135.945 119.94 135.338C119.679 134.735 119.175 134.524 118.451 134.699C117.751 134.854 117.292 135.179 117.056 135.668C116.816 136.157 116.73 136.662 116.828 137.241C116.925 137.811 117.165 138.365 117.56 138.899C117.955 139.433 118.455 139.82 119.073 140.056C119.362 140.162 119.651 140.239 119.936 140.284C120.212 140.321 120.485 140.325 120.757 140.297C121.294 140.239 121.815 140.056 122.311 139.747C123.316 139.148 123.796 138.137 123.772 136.846C124.313 139.543 125.48 140.867 127.506 140.635L119.126 130.124C115.453 133.053 111.462 135.579 107.24 137.636C103.009 139.665 98.5548 141.217 93.9824 142.26L96.9479 155.367Z" fill="#462683"/>
<path fill-rule="evenodd" clip-rule="evenodd" d="M63.0508 155.367C64.979 154.711 65.4549 153.012 64.7674 150.335C65.3085 151.541 66.1953 152.177 67.3546 152.307C67.9364 152.372 68.4814 152.319 68.9859 152.14C69.4944 151.945 69.9622 151.615 70.3893 151.171C70.849 150.694 71.1378 150.128 71.2558 149.476C71.3778 148.824 71.3534 148.217 71.1948 147.663C71.0361 147.105 70.7351 146.665 70.3079 146.347C69.8727 146.041 69.3276 145.919 68.6198 146.086C67.8916 146.237 67.5296 146.644 67.5621 147.304C67.5865 147.968 67.9079 148.237 68.5018 148.103C69.0998 147.964 69.4211 148.229 69.4781 148.893C69.535 149.557 69.1811 149.965 68.396 150.119C67.6597 150.27 67.0617 150.168 66.6183 149.826C66.1749 149.484 65.8902 149.024 65.7722 148.445C65.6542 147.867 65.6827 147.264 65.8617 146.62C66.0366 145.98 66.358 145.442 66.8095 145.007C67.558 144.273 68.274 143.886 68.9818 143.858C69.6978 143.825 70.3324 144.017 70.9222 144.359C71.508 144.717 72.0002 145.214 72.4029 145.858C72.8016 146.498 73.0294 147.149 73.0619 147.801C73.5013 146.982 74.0342 146.359 74.6606 145.948C75.2911 145.532 75.9013 145.239 76.5156 145.072C77.1258 144.897 77.6871 144.77 78.1956 144.75C78.7041 144.725 79.054 144.717 79.2492 144.721C74.9169 150.14 69.5066 155.118 63.1159 159.335C63.364 159.38 63.8033 159.478 64.442 159.547C65.0766 159.628 65.7804 159.628 66.5573 159.551C67.3262 159.47 68.0991 159.274 68.872 158.895C69.6408 158.532 70.2795 157.95 70.7758 157.155C70.8205 157.795 71.0849 158.447 71.5853 159.099C72.0897 159.763 72.7284 160.227 73.4891 160.578C74.2498 160.92 75.0796 161.05 75.9624 160.948C76.8451 160.814 77.6546 160.325 78.3584 159.494C78.8058 158.968 79.0458 158.378 79.0987 157.714C79.1516 157.05 79.0458 156.451 78.7936 155.913C78.5455 155.375 78.1631 154.972 77.6424 154.699C77.1258 154.414 76.4952 154.442 75.7386 154.654C74.9413 154.878 74.6037 155.318 74.7298 155.97C74.8518 156.626 75.2383 156.862 75.8769 156.675C76.5115 156.471 76.898 156.667 77.0444 157.327C77.1909 157.974 76.8614 158.435 76.0315 158.7C75.2423 158.911 74.5671 158.862 74.0382 158.557C73.5013 158.255 73.1311 157.828 72.9114 157.282C72.6999 156.732 72.647 156.129 72.7568 155.473C72.8667 154.813 73.1433 154.238 73.5867 153.754C74.4247 152.804 75.3928 152.352 76.54 152.348C77.6871 152.299 78.6309 152.808 79.4282 153.868C78.1956 151.374 78.4845 149.618 80.0018 148.592C81.5232 149.618 81.812 151.374 80.5713 153.868C81.3727 152.808 82.3205 152.299 83.4677 152.348C84.6148 152.352 85.5911 152.804 86.4291 153.754C86.8684 154.238 87.1491 154.813 87.2549 155.473C87.3647 156.129 87.3118 156.732 87.1003 157.282C86.8847 157.828 86.5105 158.255 85.9735 158.557C85.4406 158.862 84.7694 158.911 83.968 158.7C83.1422 158.435 82.8087 157.974 82.9592 157.327C83.1097 156.671 83.4921 156.471 84.1226 156.675C84.7694 156.862 85.1599 156.626 85.286 155.97C85.4121 155.318 85.0623 154.878 84.2568 154.654C83.5083 154.442 82.8819 154.414 82.3612 154.699C81.8446 154.972 81.4581 155.375 81.21 155.913C80.9578 156.447 80.8561 157.045 80.9089 157.714C80.9618 158.378 81.2018 158.972 81.6371 159.494C82.3571 160.329 83.1666 160.814 84.0494 160.948C84.928 161.05 85.762 160.92 86.5186 160.578C87.2793 160.227 87.918 159.767 88.4224 159.099C88.9227 158.447 89.1871 157.795 89.2197 157.155C89.72 157.95 90.3587 158.532 91.1316 158.895C91.9086 159.27 92.6815 159.47 93.4544 159.547C94.2232 159.628 94.931 159.624 95.5656 159.543C96.2002 159.474 96.6355 159.38 96.8796 159.335C90.4848 155.122 85.0786 150.14 80.7462 144.721C80.9455 144.717 81.2995 144.725 81.8079 144.75C82.3205 144.77 82.8778 144.897 83.4961 145.068C84.1104 145.235 84.7246 145.528 85.347 145.944C85.9735 146.355 86.5064 146.982 86.9417 147.797C86.9783 147.145 87.2061 146.494 87.6088 145.854C88.0115 145.21 88.4997 144.713 89.0814 144.355C89.6712 144.017 90.3018 143.821 91.0177 143.854C91.7296 143.882 92.4415 144.269 93.1818 145.002C93.6334 145.434 93.9588 145.972 94.1337 146.612C94.3168 147.251 94.3493 147.858 94.2273 148.437C94.1093 149.015 93.8205 149.476 93.3812 149.818C92.9378 150.164 92.3357 150.262 91.5913 150.115C90.8102 149.961 90.4645 149.549 90.5174 148.885C90.5743 148.221 90.8916 147.96 91.4855 148.099C92.0876 148.233 92.4049 147.964 92.4333 147.3C92.4618 146.64 92.0998 146.233 91.3716 146.082C90.6719 145.915 90.1228 146.037 89.6916 146.343C89.2604 146.661 88.9675 147.097 88.8048 147.659C88.6461 148.217 88.6217 148.82 88.7437 149.472C88.8699 150.124 89.1505 150.69 89.6021 151.167C90.0292 151.611 90.5052 151.941 91.0136 152.136C91.5221 152.315 92.0672 152.372 92.6489 152.303C93.8083 152.177 94.691 151.537 95.228 150.335C94.5446 153.012 95.0205 154.711 96.9447 155.367L93.9669 142.252C89.3946 143.295 84.7043 143.825 79.9937 143.837C75.2871 143.829 70.5927 143.295 66.0204 142.252L63.0508 155.367Z" fill="#462683"/>
<path fill-rule="evenodd" clip-rule="evenodd" d="M32.5013 140.626C34.5353 140.862 35.7028 139.538 36.2357 136.837C36.2194 138.133 36.6994 139.147 37.7042 139.746C38.2005 140.056 38.7212 140.239 39.2541 140.296C39.5226 140.324 39.7951 140.32 40.0717 140.284C40.3524 140.239 40.6412 140.161 40.9301 140.051C41.5525 139.819 42.0569 139.436 42.4515 138.903C42.8461 138.369 43.0861 137.815 43.1837 137.244C43.2854 136.67 43.2 136.157 42.96 135.672C42.724 135.179 42.2643 134.857 41.5565 134.698C40.8284 134.523 40.328 134.731 40.0677 135.338C39.8033 135.945 39.9782 136.324 40.5721 136.458C41.1741 136.593 41.3531 136.963 41.1131 137.587C40.8772 138.21 40.3768 138.426 39.5999 138.226C38.8676 138.047 38.3714 137.701 38.1191 137.2C37.8832 136.682 37.8344 136.132 37.9727 135.566C38.1151 134.996 38.4039 134.466 38.8473 133.965C39.2826 133.464 39.8073 133.117 40.4053 132.922C41.3775 132.616 42.1952 132.576 42.8542 132.848C43.5173 133.121 44.0136 133.566 44.3756 134.152C44.7498 134.727 44.9776 135.387 45.0631 136.136C45.1444 136.886 45.0671 137.566 44.8149 138.165C45.5553 137.636 46.3079 137.31 47.0523 137.204C47.8008 137.102 48.4801 137.102 49.1066 137.216C49.7208 137.342 50.2863 137.456 50.7541 137.664C51.2219 137.864 51.5392 138.006 51.7101 138.096C45.4699 141.09 38.4242 143.201 30.8457 144.211C31.0491 144.362 31.4152 144.623 31.94 144.989C32.4647 145.352 33.1115 145.645 33.8438 145.906C34.576 146.163 35.357 146.317 36.2032 146.338C37.0533 146.342 37.8832 146.093 38.6805 145.592C38.4446 146.187 38.3998 146.888 38.5666 147.69C38.652 148.094 38.7822 148.481 38.9571 148.847C39.1361 149.206 39.3639 149.544 39.6324 149.862C40.1694 150.501 40.865 150.974 41.703 151.267C42.5491 151.544 43.4969 151.447 44.4976 151.007C45.1282 150.73 45.6041 150.302 45.9417 149.727C46.2794 149.153 46.4462 148.566 46.4502 147.976C46.4584 147.385 46.2916 146.855 45.9377 146.383C45.5919 145.91 45.0183 145.645 44.2454 145.503C43.4318 145.36 42.9315 145.609 42.7606 146.252C42.5857 146.896 42.8339 147.275 43.4888 147.381C44.1437 147.487 44.4081 147.829 44.2536 148.485C44.1071 149.129 43.5986 149.41 42.7484 149.271C41.943 149.12 41.3572 148.786 41.0114 148.277C40.6575 147.772 40.5111 147.226 40.5518 146.643C40.5965 146.057 40.8162 145.486 41.1986 144.944C41.5809 144.403 42.0854 144.003 42.6915 143.759C43.859 143.274 44.937 143.27 45.9621 143.779C47.0157 144.236 47.6462 145.103 47.9065 146.403C47.8781 143.624 48.9032 142.166 50.7134 141.897C51.6328 143.486 51.1365 145.193 48.9398 146.9C50.1195 146.297 51.1934 146.248 52.2063 146.794C53.2437 147.283 53.9189 148.13 54.2688 149.344C54.4559 149.972 54.46 150.616 54.2688 151.255C54.0816 151.895 53.7766 152.412 53.3454 152.816C52.9142 153.211 52.3935 153.435 51.7792 153.472C51.169 153.516 50.5385 153.264 49.912 152.726C49.2734 152.139 49.1798 151.573 49.5947 151.056C50.0178 150.526 50.4449 150.526 50.929 150.97C51.4294 151.418 51.885 151.377 52.2836 150.844C52.6782 150.31 52.5521 149.76 51.9257 149.21C51.3399 148.697 50.7866 148.407 50.1968 148.432C49.611 148.452 49.0903 148.648 48.6347 149.023C48.175 149.393 47.8252 149.89 47.5811 150.51C47.3411 151.133 47.3004 151.769 47.4672 152.433C47.756 153.496 48.2727 154.294 49.0171 154.792C49.7697 155.264 50.571 155.513 51.405 155.537C52.2389 155.566 53.024 155.403 53.7643 155.024C54.4966 154.653 55.0132 154.184 55.3224 153.622C55.4281 154.559 55.7536 155.362 56.2946 156.026C56.8356 156.694 57.4499 157.191 58.113 157.611C58.772 158.022 59.4066 158.328 60.0167 158.536C60.6269 158.719 61.0541 158.837 61.2981 158.902C57.3523 152.335 54.6186 145.503 53.0728 138.744C53.2559 138.825 53.5691 138.988 54.0166 139.228C54.4681 139.465 54.9115 139.831 55.3956 140.243C55.8756 140.663 56.3027 141.196 56.681 141.844C57.0634 142.492 57.2709 143.29 57.3197 144.199C57.6329 143.629 58.1211 143.144 58.7598 142.74C59.3984 142.337 60.0533 142.105 60.7327 142.036C61.412 141.97 62.067 142.064 62.6934 142.414C63.324 142.744 63.7877 143.437 64.1497 144.378C64.3694 144.969 64.4304 145.592 64.3125 146.248C64.1986 146.904 63.9708 147.466 63.6087 147.931C63.2548 148.387 62.7911 148.713 62.246 148.827C61.6968 148.945 61.111 148.77 60.509 148.31C59.8744 147.825 59.7361 147.303 60.0737 146.729C60.4113 146.154 60.81 146.061 61.2819 146.444C61.7659 146.827 62.1687 146.725 62.4778 146.142C62.787 145.56 62.6365 145.034 62.0466 144.582C61.4893 144.134 60.9483 143.975 60.4195 144.097C59.8947 144.199 59.4391 144.46 59.0526 144.896C58.6703 145.327 58.3855 145.861 58.2146 146.505C58.0438 147.144 58.0519 147.78 58.2553 148.407C58.6336 149.605 59.4147 150.355 60.513 150.746C61.0622 150.937 61.6032 150.999 62.1361 150.884C62.669 150.762 63.1897 150.493 63.686 150.082C61.9165 152.192 61.6114 153.932 63.0595 155.366L66.0373 142.251C61.4649 141.208 57.0105 139.656 52.7799 137.627C48.5615 135.57 44.5709 133.044 40.8935 130.115L32.5013 140.626Z" fill="#462683"/>
<path fill-rule="evenodd" clip-rule="evenodd" d="M11.3473 114.096C13.1006 115.18 14.7278 114.491 16.359 112.295C15.7936 113.452 15.818 114.56 16.42 115.558C17.0668 116.536 18.0024 117.102 19.2106 117.221C19.8615 117.286 20.4757 117.164 21.0656 116.85C21.6514 116.54 22.107 116.145 22.4487 115.668C22.7904 115.192 22.9572 114.678 22.949 114.141C22.9409 113.599 22.6561 113.114 22.0785 112.67C21.5008 112.197 20.9802 112.157 20.4757 112.597C19.9754 113.028 19.9388 113.46 20.4351 113.831C20.9273 114.206 20.9313 114.617 20.4513 115.074C19.9713 115.534 19.4262 115.51 18.7957 115C18.1936 114.532 17.9252 113.99 17.9252 113.42C17.9292 112.853 18.1163 112.34 18.4825 111.892C18.8526 111.44 19.3408 111.089 19.955 110.828C20.5652 110.564 21.1917 110.478 21.8181 110.555C22.8514 110.686 23.5674 111.024 24.0392 111.558C24.5274 112.087 24.7999 112.69 24.8732 113.379C24.9098 113.725 24.9016 114.071 24.8528 114.426C24.8162 114.772 24.7389 115.118 24.6169 115.477C24.3769 116.182 24.0148 116.76 23.5267 117.192C24.4379 117.029 25.2393 117.066 25.9389 117.306C26.6549 117.538 27.2854 117.824 27.8102 118.194C28.3309 118.557 28.7377 118.948 29.0794 119.327C29.4252 119.702 29.653 119.967 29.7709 120.121C22.8473 120.113 15.582 118.977 8.30859 116.601C8.43063 116.825 8.65437 117.217 8.9798 117.771C9.3093 118.317 9.70389 118.895 10.2775 119.437C10.8348 119.983 11.4897 120.451 12.2423 120.834C12.9867 121.217 13.8288 121.364 14.7766 121.246C14.3088 121.678 13.9711 122.289 13.7799 123.079C13.5969 123.878 13.5969 124.688 13.7881 125.507C13.9955 126.318 14.4349 127.031 15.0735 127.654C15.7081 128.278 16.5746 128.624 17.6851 128.64C18.3808 128.661 18.995 128.477 19.5482 128.103C20.1015 127.728 20.5042 127.275 20.7605 126.746C21.0208 126.216 21.0941 125.674 20.9761 125.1C20.8825 124.517 20.5042 124.008 19.8493 123.56C19.1659 123.087 18.6045 123.095 18.1774 123.601C17.7462 124.102 17.8072 124.55 18.3645 124.925C18.9259 125.291 18.9909 125.735 18.5679 126.261C18.1489 126.783 17.5916 126.803 16.8838 126.306C16.2126 125.829 15.822 125.279 15.7203 124.676C15.6146 124.073 15.7407 123.499 16.0336 122.99C16.3346 122.476 16.778 122.057 17.3556 121.735C17.9374 121.409 18.5557 121.27 19.1984 121.323C19.5076 121.344 19.8005 121.388 20.0771 121.458C20.3578 121.523 20.6262 121.613 20.8703 121.731C21.3666 121.963 21.7937 122.301 22.1517 122.749C22.8595 123.65 23.0792 124.68 22.766 125.96C23.9253 123.454 25.4793 122.582 27.2488 123.108C27.3058 124.041 27.0251 124.839 26.4149 125.467C25.7966 126.098 24.8162 126.587 23.4738 126.86C23.7992 126.856 24.1043 126.88 24.3891 126.933C24.682 126.982 24.9545 127.055 25.2027 127.165C25.7071 127.377 26.1301 127.711 26.4759 128.172C27.1593 129.101 27.4319 130.127 27.2203 131.37C27.1186 132.014 26.8502 132.592 26.3986 133.085C25.9552 133.578 25.4549 133.916 24.8894 134.096C24.3281 134.267 23.7585 134.246 23.185 134.022C22.8961 133.912 22.6358 133.733 22.408 133.488C22.1843 133.24 21.9971 132.914 21.8385 132.527C21.5212 131.72 21.6676 131.178 22.2697 130.889C22.8758 130.6 23.2826 130.763 23.5063 131.39C23.7423 132.03 24.1735 132.189 24.7674 131.875C25.3613 131.557 25.463 131.032 25.162 130.241C24.8854 129.5 24.4867 129.019 23.9416 128.791C23.4006 128.563 22.8433 128.514 22.2656 128.661C21.6961 128.791 21.1713 129.084 20.6791 129.541C20.195 129.997 19.8696 130.567 19.7435 131.227C19.5482 132.307 19.6866 133.236 20.1381 134.006C20.3659 134.389 20.6222 134.735 20.9313 135.016C21.2405 135.297 21.5822 135.534 21.9565 135.721C22.705 136.096 23.4901 136.287 24.2996 136.287C25.101 136.287 25.7925 136.071 26.3051 135.701C25.9959 136.585 25.9471 137.444 26.1505 138.271C26.3579 139.098 26.6508 139.86 27.082 140.504C27.501 141.152 27.9444 141.702 28.4082 142.146C28.8638 142.59 29.1851 142.9 29.3845 143.054C28.6848 135.432 29.1811 128.086 30.7106 121.315C30.8327 121.474 31.0442 121.755 31.3533 122.158C31.6625 122.57 31.9269 123.067 32.1669 123.666C32.3907 124.277 32.5656 124.925 32.6307 125.67C32.7039 126.416 32.5574 127.214 32.1913 128.066C32.7242 127.687 33.3507 127.483 34.1073 127.39C34.864 127.3 35.5596 127.369 36.2064 127.597C36.5318 127.715 36.8206 127.874 37.081 128.078C37.3413 128.286 37.5895 128.514 37.801 128.803C38.2241 129.378 38.3746 130.172 38.2647 131.207C38.1915 131.847 37.9841 132.429 37.5935 132.971C37.2071 133.513 36.7555 133.916 36.2267 134.185C35.7101 134.442 35.1731 134.503 34.628 134.377C34.0789 134.246 33.6232 133.839 33.2734 133.171C32.9032 132.47 33.0334 131.912 33.5744 131.549C34.1236 131.187 34.5141 131.284 34.7826 131.826C35.0551 132.376 35.466 132.458 36.003 132.063C36.5359 131.671 36.6254 131.138 36.2837 130.478C36.1291 130.156 35.9379 129.907 35.7304 129.712C35.527 129.512 35.2992 129.382 35.0389 129.317C34.5182 129.182 33.9894 129.227 33.4524 129.451C32.9154 129.675 32.4313 130.034 31.9961 130.539C31.5649 131.044 31.3005 131.614 31.211 132.266C31.0605 133.484 31.3778 134.56 32.2239 135.363C32.6388 135.774 33.1107 136.047 33.6354 136.186C33.8958 136.255 34.1724 136.287 34.4572 136.287C34.7501 136.279 35.0552 136.234 35.3684 136.153C34.1073 136.731 33.2327 137.355 32.7446 138.096C32.2524 138.846 32.171 139.681 32.5127 140.63L40.8926 130.119L40.197 129.577C39.9651 129.394 39.7536 129.194 39.5299 129.003L38.1997 127.85C37.744 127.475 37.3373 127.051 36.9101 126.648L35.6328 125.434L34.4206 124.155C34.0219 123.723 33.5948 123.315 33.2205 122.863L32.0693 121.531C31.8781 121.307 31.6788 121.091 31.4957 120.863L30.9547 120.166C28.0299 116.487 25.5077 112.491 23.4535 108.262L11.3473 114.096Z" fill="#462683"/>
<path fill-rule="evenodd" clip-rule="evenodd" d="M3.81571 80.9816C4.93032 82.7172 6.69172 82.8068 9.11213 81.5398C8.10329 82.3342 7.64768 83.3446 7.75345 84.5057C7.89583 85.6709 8.51008 86.5835 9.5474 87.219C10.1047 87.5653 10.7149 87.7201 11.378 87.6957C12.041 87.6713 12.6268 87.5164 13.1353 87.2353C13.6479 86.9542 14.018 86.5672 14.2418 86.0783C14.4655 85.5853 14.4208 85.0231 14.0913 84.3712C13.7984 83.6909 13.3306 83.4301 12.6919 83.6053C12.0532 83.7764 11.8376 84.1513 12.1102 84.7013C12.3949 85.2553 12.22 85.6261 11.5895 85.8298C10.959 86.0335 10.4749 85.7768 10.125 85.0435C9.78334 84.359 9.79555 83.752 10.0356 83.2387C10.2837 82.7294 10.6742 82.3505 11.199 82.1061C11.7278 81.8616 12.3217 81.7557 12.9889 81.7924C13.6519 81.8209 14.254 82.0164 14.7869 82.3627C15.6533 82.9331 16.174 83.5483 16.3449 84.2368C16.5524 84.9294 16.5442 85.5894 16.3123 86.2413C16.0886 86.8931 15.6696 87.4879 15.1611 88.0176C14.6404 88.5472 14.0669 88.9098 13.4445 89.085C14.3394 89.3335 15.0472 89.7205 15.5761 90.242C16.0927 90.7676 16.5402 91.2972 16.8615 91.8554C17.1747 92.4094 17.3944 92.935 17.5165 93.4279C17.6304 93.925 17.7443 94.255 17.7849 94.4465C11.5529 91.4235 5.5161 87.215 0 81.9187C0.0122038 82.1712 0.0447471 82.6194 0.09763 83.259C0.150513 83.8946 0.276618 84.5831 0.532897 85.3205C0.80138 86.0538 1.1919 86.7587 1.70039 87.4309C2.21295 88.099 2.90043 88.5961 3.78723 88.9098C3.17704 89.0931 2.6116 89.4965 2.09905 90.1239C1.59056 90.7594 1.24071 91.4887 1.06173 92.3116C0.862398 93.1346 0.964096 93.9698 1.27326 94.805C1.58649 95.6402 2.22108 96.3287 3.18111 96.838C3.79943 97.1557 4.4381 97.2617 5.0971 97.1639C5.7561 97.0702 6.31748 96.8339 6.77308 96.4713C7.22869 96.1128 7.54192 95.6483 7.70464 95.0779C7.86735 94.5117 7.74531 93.8924 7.34259 93.2039C6.92766 92.4787 6.41104 92.2465 5.80899 92.5113C5.20287 92.7761 5.06863 93.2039 5.41033 93.7824C5.76017 94.3568 5.63 94.7846 5.02388 95.0698C4.42183 95.3591 3.90927 95.1309 3.48214 94.3772C3.08755 93.6561 2.9411 92.992 3.1445 92.4013C3.33162 91.8105 3.67333 91.3502 4.16148 91.0161C4.65777 90.6861 5.23541 90.5028 5.89441 90.4661C6.56155 90.4253 7.17581 90.572 7.73718 90.8979C8.28228 91.2035 8.71348 91.5702 9.04705 91.9979C9.39689 92.4216 9.6369 92.9105 9.77521 93.4728C10.0518 94.585 9.73453 95.6239 8.92501 96.6343C11.0444 94.8865 12.8261 94.7805 14.2052 96.0191C13.5055 97.7383 11.858 98.4146 9.18129 97.7506C9.77521 98.0276 10.2471 98.3698 10.5888 98.7854C10.9427 99.1969 11.1949 99.6776 11.3129 100.24C11.561 101.36 11.2803 102.432 10.5888 103.45C10.2227 103.984 9.73453 104.387 9.1162 104.636C8.50195 104.888 7.90396 104.974 7.31412 104.892C6.72834 104.803 6.21985 104.542 5.79678 104.086C5.38999 103.634 5.20693 102.978 5.25168 102.146C5.30456 101.283 5.67068 100.859 6.33782 100.859C7.00902 100.863 7.31412 101.185 7.24903 101.845C7.19615 102.521 7.50531 102.855 8.16838 102.831C8.82738 102.811 9.18536 102.366 9.24231 101.527C9.30739 100.741 9.14875 100.138 8.75009 99.6939C8.35143 99.2539 7.90396 98.9606 7.32225 98.8383C6.75274 98.708 6.14662 98.7446 5.50796 98.9402C4.87337 99.1398 4.34454 99.5106 3.92147 100.052C3.23806 100.949 2.99806 101.837 3.07535 102.729C3.16891 103.613 3.43332 104.412 3.95402 105.072C4.47471 105.736 5.1093 106.241 5.8456 106.591C6.58189 106.938 7.2653 107.052 7.89176 106.942C7.20835 107.614 6.80969 108.359 6.64291 109.191C6.47612 110.022 6.43545 110.828 6.51274 111.611C6.58596 112.389 6.78122 113.061 7.00902 113.664C7.23682 114.263 7.39954 114.674 7.49717 114.907C10.1657 107.724 13.7984 101.319 18.1144 95.8968C18.1592 96.0924 18.2202 96.4387 18.2975 96.9439C18.4033 97.445 18.4358 98.0072 18.3992 98.6469C18.3626 99.2865 18.1795 99.9628 17.9273 100.655C17.6792 101.356 17.2073 102.008 16.5117 102.615C17.1503 102.505 17.8297 102.586 18.5294 102.839C19.2209 103.096 19.827 103.454 20.3233 103.939C20.8155 104.424 21.1125 105.011 21.2223 105.724C21.3566 106.424 21.1654 107.194 20.6243 108.078C20.2948 108.62 19.8392 109.06 19.2535 109.378C18.6677 109.7 18.09 109.867 17.5083 109.875C16.9307 109.883 16.414 109.708 15.9666 109.362C15.5272 109.007 15.2588 108.457 15.2669 107.687C15.2628 106.885 15.5923 106.449 16.2473 106.355C16.9022 106.265 17.2195 106.518 17.2032 107.133C17.187 107.761 17.5531 107.997 18.1958 107.875C18.8507 107.752 19.1477 107.317 19.1314 106.571C19.1477 105.846 18.9443 105.324 18.5294 104.982C18.1144 104.636 17.6141 104.452 17.0242 104.42C16.4425 104.391 15.8445 104.501 15.2384 104.77C14.6323 105.039 14.1482 105.434 13.7943 105.98C13.1353 107.007 12.9929 108.103 13.359 109.215C13.7699 110.307 14.616 111.016 15.8649 111.285C13.1394 111.203 11.5854 112.051 11.3373 114.092L23.4312 108.249C19.3755 99.7713 17.2439 90.4091 17.2317 80.9775H3.81571V80.9816Z" fill="#462683"/>
<path fill-rule="evenodd" clip-rule="evenodd" d="M11.3454 47.8672C11.5895 49.9165 13.1434 50.7639 15.873 50.6743C14.616 50.9513 13.7699 51.6602 13.3631 52.7561C13.0011 53.8724 13.1434 54.9602 13.8065 55.9787C14.1604 56.5328 14.6404 56.9361 15.2466 57.201C15.8527 57.4658 16.4507 57.5798 17.0324 57.5513C17.6182 57.5228 18.1185 57.3313 18.5334 56.9932C18.9524 56.6469 19.1518 56.1254 19.1396 55.3961C19.1558 54.6506 18.8589 54.2146 18.2039 54.0924C17.5571 53.9702 17.191 54.2106 17.2114 54.8298C17.2236 55.4491 16.9103 55.7098 16.2513 55.6202C15.5964 55.5306 15.271 55.0865 15.275 54.2798C15.2628 53.5139 15.5272 52.968 15.9706 52.6135C16.414 52.2632 16.9307 52.092 17.5124 52.1002C18.0941 52.1124 18.6758 52.2754 19.2616 52.5932C19.8474 52.9069 20.303 53.3428 20.6365 53.8846C21.1735 54.7728 21.3647 55.5509 21.2305 56.2476C21.1206 56.9606 20.8237 57.5513 20.3315 58.0361C19.8352 58.521 19.225 58.8836 18.5334 59.1402C17.8338 59.3928 17.1585 59.4702 16.5198 59.3561C17.2154 59.9673 17.6873 60.6191 17.9354 61.3199C18.1836 62.0206 18.3707 62.6969 18.4073 63.3325C18.4439 63.968 18.4114 64.5343 18.3097 65.0313C18.2324 65.5365 18.1714 65.8788 18.1266 66.0662C13.8106 60.6476 10.1779 54.2432 7.50938 47.0605C7.41175 47.2968 7.24496 47.7124 7.01309 48.3154C6.78935 48.9143 6.59003 49.5865 6.5168 50.3687C6.43951 51.1469 6.48426 51.9535 6.64698 52.7806C6.81783 53.6076 7.21649 54.3532 7.8999 55.0254C7.26937 54.9276 6.58189 55.0417 5.84967 55.388C5.11337 55.7384 4.47878 56.2476 3.95808 56.9076C3.44146 57.5676 3.17298 58.3661 3.07941 59.2543C3.00619 60.1465 3.2462 61.0306 3.92961 61.9147C4.3486 62.4728 4.87743 62.8395 5.51203 63.0391C6.15069 63.2387 6.75274 63.2673 7.32632 63.141C7.90396 63.0187 8.3555 62.7254 8.75009 62.2854C9.14468 61.8454 9.30739 61.2343 9.24638 60.4399C9.18943 59.6087 8.82738 59.1728 8.16838 59.1524C7.50531 59.128 7.20021 59.4539 7.2531 60.1261C7.31818 60.7943 7.01309 61.1202 6.34188 61.1202C5.67474 61.1202 5.30863 60.6924 5.25575 59.8287C5.211 59.0058 5.39406 58.3539 5.79678 57.8976C6.21985 57.4454 6.7324 57.1806 7.31412 57.091C7.90396 57.0054 8.50602 57.095 9.1162 57.3435C9.73453 57.5961 10.2267 57.9954 10.5888 58.5332C11.2803 59.5517 11.5651 60.615 11.3169 61.7354C11.199 62.2976 10.9508 62.7743 10.5969 63.1858C10.2552 63.6013 9.78741 63.9395 9.18943 64.2165C11.862 63.5606 13.5136 64.2369 14.2133 65.948C12.8302 67.1947 11.0525 67.0888 8.93315 65.3328C9.74266 66.3391 10.06 67.3821 9.78334 68.5025C9.6491 69.0606 9.40503 69.5536 9.05518 69.9773C8.72162 70.4051 8.29448 70.7758 7.74532 71.0814C7.18394 71.4032 6.56562 71.554 5.90255 71.5132C5.23948 71.4766 4.66183 71.2932 4.16962 70.9632C3.68147 70.6291 3.33976 70.1728 3.15264 69.578C2.94517 68.9873 3.09569 68.3273 3.49027 67.594C3.9174 66.8402 4.42996 66.6162 5.03201 66.9054C5.63813 67.1988 5.76831 67.6225 5.41847 68.1888C5.07676 68.7754 5.20693 69.2073 5.81305 69.4762C6.41511 69.741 6.93173 69.4966 7.34666 68.7673C7.74938 68.0869 7.87142 67.4717 7.70464 66.9014C7.54192 66.3351 7.22869 65.8665 6.77308 65.508C6.31341 65.1454 5.7561 64.9132 5.0971 64.8154C4.4381 64.7217 3.79943 64.8236 3.18111 65.1332C2.22108 65.6547 1.58649 66.3432 1.27326 67.1784C0.964096 68.0136 0.862398 68.8488 1.06173 69.6717C1.24071 70.4947 1.59056 71.224 2.09905 71.8595C2.60754 72.4869 3.17704 72.8903 3.78723 73.0614C2.90043 73.371 2.21295 73.868 1.70039 74.5484C1.18783 75.2247 0.80138 75.9336 0.532897 76.671C0.276618 77.4044 0.150513 78.0929 0.09763 78.7325C0.0447471 79.3681 0.0122038 79.8121 0 80.0607C5.5161 74.7643 11.5529 70.5558 17.7809 67.5369C17.7402 67.7325 17.6263 68.0665 17.5124 68.5636C17.3863 69.0606 17.1707 69.5821 16.8574 70.1443C16.5361 70.7025 16.0927 71.2362 15.5761 71.7536C15.0472 72.2751 14.3353 72.6621 13.4445 72.9066C14.0669 73.0858 14.6404 73.4525 15.1611 73.9821C15.6737 74.5158 16.0886 75.1066 16.3123 75.7543C16.5442 76.4062 16.5524 77.0621 16.3449 77.7547C16.174 78.4473 15.6574 79.0584 14.7869 79.6207C14.254 79.967 13.6519 80.1625 12.9889 80.1951C12.3217 80.2318 11.7319 80.1299 11.199 79.8814C10.6742 79.637 10.2837 79.254 10.0356 78.7488C9.79555 78.2395 9.78741 77.6244 10.125 76.9358C10.4708 76.2106 10.9549 75.9621 11.5854 76.1577C12.216 76.3614 12.3868 76.7281 12.1061 77.274C11.8336 77.8321 12.0492 78.207 12.6878 78.3781C13.3265 78.5492 13.7984 78.2884 14.0872 77.6081C14.4167 76.9603 14.4655 76.4021 14.2377 75.9132C14.014 75.4203 13.6438 75.0373 13.1312 74.7521C12.6187 74.471 12.0329 74.3162 11.3739 74.2918C10.7108 74.2714 10.1047 74.418 9.5474 74.7562C8.51008 75.3999 7.89176 76.3206 7.75345 77.4818C7.64768 78.6429 8.10329 79.6492 9.11213 80.4355C6.69172 79.1766 4.93032 79.2662 3.81571 80.9936H17.2439C17.2561 71.5621 19.3836 62.1999 23.4434 53.7217L11.3454 47.8672Z" fill="#462683"/>
<path fill-rule="evenodd" clip-rule="evenodd" d="M32.5086 21.3372C32.1629 22.2905 32.2402 23.1298 32.7364 23.8753C33.2246 24.6168 34.1033 25.2401 35.3643 25.8146C35.047 25.7372 34.7419 25.6924 34.449 25.6842C34.1602 25.6842 33.8877 25.7168 33.6232 25.7861C33.0985 25.9246 32.6266 26.2016 32.2117 26.609C31.3655 27.4157 31.0523 28.4872 31.2069 29.6972C31.2883 30.3531 31.5486 30.9276 31.9839 31.4287C32.4151 31.9339 32.9032 32.2924 33.4402 32.5165C33.9772 32.7405 34.51 32.7854 35.0267 32.6509C35.287 32.5816 35.5189 32.4513 35.7223 32.2516C35.9298 32.0602 36.1209 31.8076 36.2796 31.4857C36.6213 30.8257 36.5277 30.292 35.9948 29.9009C35.4619 29.5057 35.0511 29.5872 34.7826 30.1331C34.51 30.679 34.1155 30.7768 33.5663 30.4142C33.0212 30.0557 32.8951 29.4935 33.2734 28.7887C33.6192 28.1246 34.0707 27.7213 34.6199 27.5909C35.1691 27.4646 35.7019 27.5257 36.2186 27.7824C36.7433 28.0513 37.1989 28.4505 37.5854 28.9924C37.9759 29.5302 38.1915 30.1087 38.2607 30.7483C38.3664 31.7913 38.2159 32.5857 37.7929 33.1602C37.5813 33.4494 37.3332 33.6817 37.0728 33.8894C36.8125 34.0972 36.5196 34.2561 36.1982 34.3742C35.5474 34.6065 34.8518 34.6757 34.0951 34.5861C33.3385 34.4924 32.7161 34.2846 32.1873 33.9017C32.5534 34.7572 32.6998 35.5557 32.6266 36.3013C32.5534 37.0509 32.3825 37.6987 32.1588 38.3098C31.9229 38.9046 31.6544 39.4057 31.3493 39.8132C31.0401 40.2165 30.8286 40.4976 30.7147 40.6524C29.1851 33.8813 28.6889 26.5357 29.3845 18.9131C29.1851 19.072 28.8597 19.3816 28.4 19.8298C27.9404 20.2738 27.497 20.8198 27.0739 21.4716C26.6468 22.1112 26.3539 22.8731 26.1505 23.6961C25.9512 24.519 26.004 25.3787 26.3091 26.2627C25.7844 25.9042 25.0928 25.6842 24.2914 25.6842C23.4819 25.6842 22.6968 25.8716 21.9483 26.2505C21.5741 26.4379 21.2324 26.6742 20.9232 26.9553C20.614 27.2364 20.3618 27.5868 20.13 27.9657C19.6784 28.7357 19.5401 29.6646 19.7435 30.732C19.8655 31.4002 20.191 31.9705 20.6751 32.4268C21.1632 32.8872 21.692 33.1765 22.2616 33.3068C22.8392 33.4494 23.3965 33.4046 23.9375 33.1724C24.4786 32.9442 24.8854 32.4594 25.166 31.7098C25.463 30.9235 25.3572 30.4061 24.7633 30.0883C24.1735 29.7705 23.7423 29.9253 23.5145 30.5609C23.2867 31.1965 22.8758 31.3594 22.2738 31.0661C21.6758 30.7728 21.5293 30.2309 21.8466 29.4242C22.0012 29.0413 22.1843 28.7194 22.408 28.4709C22.6358 28.2265 22.8961 28.0513 23.185 27.9413C23.7585 27.7131 24.3281 27.6927 24.8894 27.8679C25.4549 28.0472 25.9552 28.3853 26.3986 28.8783C26.8461 29.3753 27.1186 29.9498 27.2163 30.5935C27.4237 31.8361 27.1593 32.8587 26.4759 33.7876C26.1301 34.248 25.7111 34.578 25.2067 34.7898C24.9545 34.8957 24.686 34.9731 24.3931 35.018C24.1084 35.0709 23.8033 35.0954 23.4779 35.0913C24.8162 35.3683 25.7966 35.8572 26.4149 36.4887C27.0251 37.1161 27.3058 37.9106 27.2529 38.8435C25.4793 39.3732 23.9253 38.5054 22.77 35.9917C23.0873 37.2709 22.8636 38.3057 22.1517 39.2102C21.7897 39.6583 21.3625 39.9965 20.8663 40.2287C20.6181 40.3469 20.3537 40.4365 20.0689 40.5017C19.7964 40.5709 19.5035 40.6198 19.1903 40.6402C18.5475 40.6891 17.9292 40.5546 17.3475 40.2246C16.7699 39.9028 16.3265 39.4832 16.0254 38.9698C15.7325 38.4606 15.6105 37.8861 15.7122 37.2831C15.8139 36.6802 16.2044 36.1302 16.8797 35.6454C17.5834 35.1483 18.1448 35.1687 18.5597 35.6943C18.9787 36.2239 18.9137 36.6639 18.3604 37.0224C17.8031 37.4054 17.734 37.8535 18.1652 38.3587C18.5923 38.8598 19.1618 38.8639 19.8493 38.3831C20.5001 37.9431 20.8744 37.438 20.968 36.8513C21.0819 36.2809 21.0168 35.735 20.7524 35.2054C20.4961 34.6757 20.0933 34.2276 19.5401 33.8487C18.9869 33.4739 18.3726 33.2946 17.6851 33.3028C16.5665 33.3313 15.7041 33.6776 15.0654 34.3009C14.4308 34.9242 13.9874 35.6372 13.784 36.448C13.5928 37.2668 13.5928 38.0817 13.7759 38.8761C13.963 39.6665 14.3006 40.2776 14.7766 40.7013C13.8288 40.5872 12.9867 40.7298 12.2382 41.1209C11.4856 41.512 10.8307 41.9806 10.2693 42.5265C9.69982 43.0643 9.30523 43.6387 8.97166 44.1928C8.6503 44.7428 8.42656 45.1298 8.30859 45.3498C15.582 42.9746 22.8473 41.8339 29.775 41.8258C29.653 41.9846 29.4211 42.2495 29.0753 42.6243C28.7336 43.0072 28.3268 43.3943 27.8021 43.765C27.2814 44.1358 26.6468 44.4209 25.9349 44.6491C25.2352 44.8895 24.4338 44.9302 23.5226 44.7632C24.0067 45.195 24.3647 45.7776 24.6047 46.4865C24.7267 46.841 24.7999 47.1873 24.8406 47.5336C24.8894 47.8839 24.8976 48.2302 24.8609 48.5765C24.7877 49.265 24.5152 49.8639 24.027 50.3936C23.5592 50.9313 22.8392 51.2613 21.8141 51.3876C21.1836 51.465 20.5571 51.3836 19.9469 51.1228C19.3326 50.8662 18.8404 50.5158 18.4703 50.0636C18.1041 49.6154 17.917 49.1021 17.9129 48.5358C17.9129 47.9695 18.1814 47.4195 18.7875 46.9469C19.414 46.4417 19.955 46.4295 20.4391 46.8858C20.9191 47.3421 20.9151 47.7495 20.4269 48.1202C19.9266 48.495 19.9632 48.9269 20.4635 49.3587C20.968 49.7947 21.4927 49.7539 22.0663 49.2813C22.6399 48.8413 22.9246 48.3565 22.9328 47.8187C22.9409 47.2769 22.7741 46.7676 22.4365 46.291C22.0948 45.8143 21.6432 45.4232 21.0534 45.1095C20.4635 44.7998 19.8533 44.6695 19.2065 44.7306C17.9943 44.8569 17.0546 45.4272 16.4078 46.401C15.8058 47.3991 15.7814 48.5073 16.3509 49.6562C14.7156 47.4684 13.0884 46.7798 11.3392 47.8554L23.4331 53.6976C25.4874 49.4728 28.0095 45.4761 30.9344 41.7932L31.4754 41.0965C31.6584 40.8643 31.8578 40.6524 32.049 40.4283L33.2002 39.0961C33.5744 38.6398 33.9975 38.2324 34.4002 37.8046L35.6125 36.5254L36.8898 35.3113C37.321 34.912 37.7278 34.4842 38.1793 34.1094L39.5095 32.9565C39.7333 32.765 39.9489 32.5654 40.1767 32.382L40.8723 31.8402L32.5086 21.3372Z" fill="#462683"/>
<path fill-rule="evenodd" clip-rule="evenodd" d="M63.0519 6.59718C61.5956 8.03533 61.9047 9.77496 63.6783 11.8813C63.178 11.4698 62.6532 11.2009 62.1163 11.0787C61.5834 10.9687 61.0423 11.0257 60.4891 11.2213C59.3867 11.6165 58.6138 12.3661 58.2436 13.5598C58.0361 14.1913 58.0199 14.8268 58.1948 15.4665C58.3656 16.1102 58.6504 16.6439 59.0328 17.0757C59.4192 17.5117 59.8748 17.7724 60.3955 17.8742C60.9284 17.9965 61.4654 17.8417 62.0308 17.3894C62.6207 16.9331 62.7712 16.4076 62.458 15.8291C62.1488 15.2424 61.7461 15.1405 61.2701 15.5235C60.7901 15.9105 60.3874 15.8168 60.0498 15.2424C59.7081 14.6679 59.8545 14.1465 60.4932 13.6616C61.0911 13.2053 61.6729 13.0302 62.222 13.1483C62.7671 13.2624 63.2309 13.5883 63.5848 14.0446C63.9428 14.5131 64.1746 15.0713 64.2885 15.7272C64.4065 16.3791 64.3495 17.0065 64.1339 17.5931C63.7678 18.5383 63.296 19.2309 62.6695 19.5609C62.043 19.9113 61.384 20.005 60.7047 19.9398C60.0254 19.8746 59.3663 19.6383 58.7277 19.2391C58.089 18.8357 57.609 18.3509 57.2998 17.7765C57.251 18.685 57.0436 19.4876 56.6612 20.1313C56.2747 20.7831 55.8517 21.3128 55.3717 21.7324C54.8916 22.1398 54.4482 22.5106 53.9967 22.7428C53.5492 22.9872 53.2401 23.1461 53.0651 23.2235C54.611 16.4687 57.3446 9.63237 61.2864 3.06494C61.0423 3.13013 60.6071 3.25235 59.9928 3.43568C59.3867 3.63939 58.7521 3.94902 58.089 4.3605C57.4341 4.78013 56.8198 5.27717 56.2829 5.94532C55.75 6.6094 55.4245 7.41199 55.3188 8.34496C55.0015 7.78681 54.4808 7.31829 53.7486 6.94755C53.0082 6.56866 52.2231 6.40569 51.3892 6.43421C50.5552 6.45866 49.7539 6.70718 48.9972 7.17977C48.2569 7.67681 47.7402 8.47533 47.4596 9.53052C47.2846 10.1987 47.3212 10.8383 47.5613 11.4576C47.8013 12.0809 48.1552 12.5739 48.6148 12.9446C49.0705 13.3194 49.5911 13.5191 50.1769 13.5353C50.7627 13.5639 51.3241 13.2705 51.918 12.7531C52.5363 12.2031 52.6543 11.6572 52.2597 11.1235C51.8651 10.5857 51.4136 10.545 50.9214 10.989C50.4291 11.4372 50.002 11.4372 49.583 10.9035C49.1722 10.3861 49.2657 9.81978 49.9044 9.23311C50.5227 8.6994 51.1532 8.44681 51.7634 8.49163C52.3777 8.52829 52.8984 8.75237 53.3296 9.14755C53.7608 9.55089 54.0659 10.0724 54.253 10.7079C54.4401 11.3516 54.4401 11.9872 54.2489 12.6187C53.9031 13.8368 53.2319 14.6761 52.1946 15.1691C51.1817 15.7109 50.1118 15.662 48.9321 15.0591C51.1248 16.7702 51.621 18.4772 50.7058 20.062C48.8915 19.7972 47.8664 18.3428 47.903 15.5561C47.6426 16.8557 47.008 17.7235 45.9504 18.1839C44.9212 18.6931 43.8391 18.6931 42.6716 18.2083C42.0655 17.9639 41.557 17.5646 41.1787 17.0228C40.7963 16.4809 40.5766 15.9105 40.5319 15.3239C40.4912 14.7413 40.6417 14.1953 40.9916 13.6902C41.3373 13.185 41.9272 12.8509 42.7367 12.692C43.5869 12.5535 44.0954 12.8346 44.2378 13.4783C44.3883 14.1342 44.1239 14.4765 43.4771 14.5783C42.814 14.6883 42.5618 15.0713 42.7326 15.715C42.9035 16.3546 43.412 16.5991 44.2337 16.4565C44.9985 16.3179 45.568 16.0572 45.9178 15.5846C46.2677 15.1161 46.4385 14.5865 46.4304 13.9916C46.4263 13.4009 46.2555 12.8183 45.9219 12.2398C45.5842 11.6653 45.1083 11.2376 44.49 10.9524C43.4811 10.5164 42.5333 10.4227 41.6831 10.6998C40.8451 10.9931 40.1495 11.4657 39.6125 12.1053C39.3441 12.4231 39.1163 12.7613 38.9373 13.1198C38.7624 13.4865 38.6362 13.8735 38.5468 14.2768C38.38 15.0794 38.4247 15.7802 38.6729 16.3668C37.8755 15.8657 37.0457 15.6172 36.1914 15.6254C35.3412 15.6457 34.5602 15.8046 33.8239 16.0613C33.0957 16.322 32.4489 16.6154 31.9201 16.978C31.3954 17.3405 31.0333 17.5972 30.834 17.748C38.4125 18.7583 45.4581 20.8687 51.7024 23.8632C51.5234 23.9528 51.2061 24.0995 50.7342 24.2991C50.2664 24.5069 49.705 24.6209 49.0827 24.7513C48.4562 24.8654 47.7728 24.8695 47.0324 24.7595C46.2839 24.6535 45.5354 24.3276 44.7991 23.798C45.0473 24.4009 45.1246 25.0813 45.0391 25.8309C44.9537 26.5806 44.73 27.2406 44.3557 27.8109C43.9937 28.4017 43.5015 28.8376 42.8384 29.1147C42.1794 29.3917 41.3618 29.3469 40.3977 29.0373C39.7997 28.8417 39.2708 28.4954 38.8356 27.9984C38.3922 27.5013 38.0993 26.9717 37.961 26.4013C37.8227 25.835 37.8715 25.285 38.1074 24.7676C38.3596 24.2665 38.864 23.9161 39.6003 23.7328C40.3732 23.5372 40.8695 23.7572 41.1055 24.3765C41.3414 24.9998 41.1665 25.3706 40.5726 25.5009C39.9705 25.6395 39.7956 26.0184 40.06 26.6254C40.3204 27.2284 40.8248 27.4402 41.5489 27.265C42.2486 27.1102 42.7082 26.7843 42.9442 26.2954C43.1842 25.8065 43.2696 25.3013 43.172 24.7228C43.0743 24.1524 42.8343 23.5983 42.4397 23.0646C42.0452 22.5309 41.5448 22.1439 40.9265 21.9076C40.6377 21.8017 40.3488 21.7243 40.0641 21.6794C39.7875 21.6428 39.5108 21.6387 39.2424 21.6672C38.7054 21.7243 38.1847 21.9076 37.6884 22.2172C36.6836 22.8161 36.2036 23.8265 36.228 25.118C35.687 22.4209 34.5195 21.0969 32.4937 21.3291L40.8736 31.8402C44.5469 28.911 48.5376 26.385 52.7601 24.3276C56.9907 22.2987 61.4451 20.7465 66.0174 19.7035L63.0519 6.59718Z" fill="#462683"/>
<path fill-rule="evenodd" clip-rule="evenodd" d="M96.9486 6.59716C95.0204 7.25308 94.5444 8.95198 95.2319 11.6287C94.6909 10.4227 93.8041 9.78717 92.6447 9.65679C92.063 9.59161 91.5179 9.64457 91.0135 9.82383C90.505 10.0194 90.0372 10.3494 89.61 10.7935C89.1504 11.2701 88.8616 11.8364 88.7436 12.4883C88.6215 13.1401 88.646 13.7472 88.8046 14.3013C88.9633 14.8594 89.2643 15.2994 89.6914 15.6172C90.1267 15.9227 90.6718 16.045 91.3796 15.8779C92.1078 15.7272 92.4698 15.3198 92.4373 14.6598C92.4128 13.9957 92.0915 13.7268 91.4976 13.8613C90.8996 13.9998 90.5782 13.735 90.5213 13.0709C90.4643 12.4068 90.8182 11.9994 91.6033 11.8446C92.3396 11.6938 92.9376 11.7957 93.381 12.1379C93.8244 12.4801 94.1092 12.9405 94.2271 13.519C94.3451 14.0975 94.3166 14.7005 94.1376 15.3442C93.9627 15.9839 93.6414 16.5216 93.1898 16.9576C92.4413 17.6909 91.7254 18.0779 91.0176 18.1065C90.3016 18.139 89.667 17.9476 89.0772 17.6053C88.4914 17.2468 87.9992 16.7498 87.5964 16.1061C87.1978 15.4664 86.97 14.8146 86.9415 14.1627C86.5022 14.9816 85.9693 15.605 85.3428 16.0164C84.7123 16.432 84.1021 16.7253 83.4878 16.8924C82.8777 17.0676 82.3163 17.1939 81.8078 17.2142C81.2993 17.2387 80.9495 17.2468 80.7542 17.2427C85.0865 11.8242 90.4969 6.84567 96.8876 2.62899C96.6394 2.58418 96.2001 2.4864 95.5614 2.41714C94.9268 2.33566 94.2231 2.33566 93.4461 2.41307C92.6773 2.49455 91.9044 2.69011 91.1315 3.069C90.3626 3.43159 89.724 4.01418 89.2277 4.80863C89.1829 4.169 88.9185 3.51715 88.4182 2.86529C87.9137 2.20122 87.2751 1.73677 86.5144 1.3864C85.7537 1.04417 84.9238 0.913803 84.0411 1.01566C83.1583 1.1501 82.3488 1.63899 81.6451 2.4701C81.1976 2.99566 80.9576 3.5864 80.9047 4.25048C80.8518 4.91456 80.9576 5.51345 81.2098 6.05123C81.4579 6.58901 81.8403 6.99234 82.361 7.26531C82.8776 7.55049 83.5082 7.52197 84.2648 7.31012C85.0621 7.08605 85.3998 6.64604 85.2737 5.99419C85.1516 5.33826 84.7652 5.10197 84.1265 5.28937C83.4919 5.49308 83.1055 5.29752 82.959 4.63752C82.8126 3.98974 83.1421 3.52937 83.9719 3.26455C84.7611 3.0527 85.4364 3.10159 85.9652 3.40714C86.5022 3.70863 86.8723 4.13641 87.092 4.68233C87.3035 5.23234 87.3564 5.8353 87.2466 6.49123C87.1368 7.15123 86.8601 7.72568 86.4167 8.21049C85.5787 9.15976 84.6106 9.61198 83.4634 9.61605C82.3163 9.66494 81.3725 9.15568 80.5752 8.09642C81.8078 10.5898 81.519 12.3457 80.0016 13.3724C78.4802 12.3457 78.1914 10.5898 79.4321 8.09642C78.6307 9.15568 77.6829 9.66494 76.5358 9.61605C75.3886 9.61198 74.4123 9.15976 73.5743 8.21049C73.135 7.72568 72.8543 7.15123 72.7485 6.49123C72.6387 5.8353 72.6916 5.23234 72.9031 4.68233C73.1187 4.13641 73.493 3.70863 74.0259 3.40714C74.5588 3.10159 75.23 3.0527 76.0313 3.26455C76.8571 3.52937 77.1907 3.98974 77.0402 4.63752C76.8897 5.29345 76.5073 5.49308 75.8768 5.28937C75.23 5.10197 74.8394 5.33826 74.7133 5.99419C74.5872 6.64604 74.9371 7.08605 75.7425 7.31012C76.491 7.52197 77.1175 7.55049 77.6382 7.26531C78.1548 6.99234 78.5413 6.58901 78.7894 6.05123C79.0416 5.51752 79.1433 4.91863 79.0904 4.25048C79.0375 3.5864 78.7975 2.99159 78.3623 2.4701C77.6422 1.63492 76.8327 1.1501 75.95 1.01566C75.0713 0.913803 74.2374 1.04417 73.4808 1.3864C72.7201 1.73677 72.0814 2.19714 71.577 2.86529C71.0766 3.51715 70.8122 4.169 70.7797 4.80863C70.2793 4.01418 69.6406 3.43159 68.8677 3.069C68.0908 2.69418 67.3179 2.49455 66.545 2.41714C65.7761 2.33566 65.0683 2.33973 64.4337 2.42122C63.7991 2.49048 63.3639 2.58418 63.1198 2.62899C69.5105 6.8416 74.9208 11.8242 79.2531 17.2427C79.0538 17.2468 78.6999 17.2387 78.1914 17.2142C77.6789 17.1939 77.1215 17.0676 76.5032 16.8964C75.889 16.7294 75.2747 16.4361 74.6523 16.0205C74.0259 15.609 73.493 14.9816 73.0577 14.1668C73.0211 14.8187 72.7933 15.4705 72.3906 16.1101C71.9878 16.7539 71.4997 17.2509 70.918 17.6094C70.3281 17.9476 69.6976 18.1431 68.9816 18.1105C68.2698 18.082 67.5579 17.695 66.8175 16.9616C66.366 16.5298 66.0405 15.992 65.8656 15.3524C65.6826 14.7127 65.65 14.1057 65.7721 13.5272C65.89 12.9487 66.1789 12.4883 66.6182 12.1461C67.0616 11.7998 67.6636 11.702 68.4081 11.8487C69.1891 12.0035 69.5349 12.415 69.482 13.079C69.425 13.7431 69.1077 14.0038 68.5138 13.8653C67.9118 13.7309 67.5945 13.9998 67.566 14.6638C67.5375 15.3238 67.8996 15.7313 68.6277 15.882C69.3274 16.049 69.8766 15.9268 70.3078 15.6213C70.739 15.3035 71.0319 14.8676 71.1946 14.3053C71.3532 13.7472 71.3776 13.1442 71.2556 12.4924C71.1295 11.8405 70.8488 11.2742 70.3973 10.7975C69.9701 10.3535 69.4942 10.0235 68.9857 9.82791C68.4772 9.64865 67.9321 9.59161 67.3504 9.66087C66.1911 9.78717 65.3083 10.4268 64.7713 11.6287C65.4548 8.95198 64.9788 7.25308 63.0547 6.59716L66.0324 19.7116C70.6047 18.6687 75.295 18.139 80.0057 18.1268C84.7123 18.135 89.4067 18.6687 93.979 19.7116L96.9486 6.59716Z" fill="#462683"/>
<path fill-rule="evenodd" clip-rule="evenodd" d="M127.495 21.3374C125.461 21.1011 124.293 22.4252 123.761 25.1263C123.777 23.8307 123.297 22.8163 122.292 22.2174C121.796 21.9078 121.275 21.7244 120.742 21.6674C120.474 21.6389 120.201 21.6429 119.924 21.6796C119.644 21.7244 119.355 21.8018 119.066 21.9118C118.444 22.1441 117.939 22.527 117.545 23.0607C117.15 23.5944 116.91 24.1485 116.813 24.7189C116.711 25.2933 116.796 25.8067 117.036 26.2915C117.272 26.7844 117.732 27.1063 118.44 27.2652C119.168 27.4404 119.668 27.2326 119.929 26.6256C120.193 26.0185 120.018 25.6396 119.424 25.5052C118.822 25.3707 118.643 25 118.883 24.3767C119.119 23.7533 119.619 23.5374 120.396 23.737C121.129 23.9163 121.625 24.2626 121.877 24.7637C122.113 25.2811 122.162 25.8311 122.024 26.3974C121.881 26.9678 121.592 27.4974 121.149 27.9985C120.714 28.4996 120.189 28.8459 119.591 29.0415C118.619 29.347 117.801 29.3878 117.142 29.1148C116.479 28.8419 115.983 28.3978 115.621 27.8111C115.246 27.2367 115.019 26.5767 114.933 25.827C114.852 25.0774 114.929 24.397 115.181 23.7981C114.441 24.3278 113.688 24.6537 112.944 24.7596C112.195 24.8615 111.516 24.8615 110.89 24.7474C110.275 24.6211 109.71 24.507 109.242 24.2993C108.774 24.0996 108.457 23.957 108.286 23.8674C114.526 20.8729 121.572 18.7626 129.151 17.7522C128.947 17.6015 128.581 17.3407 128.056 16.974C127.531 16.6114 126.885 16.3181 126.152 16.0574C125.42 15.8007 124.639 15.6459 123.793 15.6255C122.943 15.6214 122.113 15.87 121.316 16.3711C121.552 15.7763 121.596 15.0755 121.43 14.2729C121.344 13.8696 121.214 13.4826 121.039 13.1159C120.86 12.7574 120.632 12.4192 120.364 12.1014C119.827 11.4618 119.131 10.9892 118.293 10.6959C117.447 10.4188 116.499 10.5166 115.499 10.9566C114.868 11.2337 114.392 11.6614 114.054 12.2359C113.717 12.8103 113.55 13.397 113.546 13.9877C113.538 14.5785 113.705 15.1081 114.059 15.5807C114.404 16.0533 114.978 16.3181 115.751 16.4607C116.564 16.6033 117.065 16.3548 117.236 15.7111C117.411 15.0674 117.162 14.6885 116.507 14.5826C115.853 14.4766 115.588 14.1344 115.743 13.4785C115.889 12.8348 116.398 12.5537 117.248 12.6922C118.053 12.8429 118.639 13.177 118.985 13.6863C119.339 14.1914 119.485 14.7374 119.444 15.32C119.4 15.9066 119.18 16.477 118.798 17.0189C118.415 17.5607 117.911 17.96 117.305 18.2044C116.137 18.6892 115.059 18.6933 114.034 18.184C112.981 17.7277 112.35 16.86 112.09 15.5603C112.118 18.3389 111.093 19.7974 109.283 20.0663C108.363 18.4774 108.86 16.7703 111.056 15.0633C109.877 15.6663 108.803 15.7152 107.79 15.1692C106.753 14.6803 106.077 13.8329 105.727 12.6188C105.54 11.9914 105.536 11.3477 105.727 10.7081C105.915 10.0685 106.22 9.55106 106.651 9.14772C107.082 8.75254 107.603 8.52846 108.217 8.49179C108.827 8.44698 109.458 8.69957 110.084 9.23735C110.723 9.82402 110.816 10.3903 110.402 10.9077C109.978 11.4374 109.551 11.4374 109.067 10.9933C108.567 10.5451 108.111 10.5859 107.713 11.1196C107.318 11.6533 107.444 12.2033 108.071 12.7533C108.656 13.2666 109.21 13.5559 109.799 13.5314C110.385 13.5111 110.906 13.3155 111.362 12.9407C111.821 12.57 112.171 12.0729 112.415 11.4537C112.655 10.8303 112.696 10.1948 112.529 9.53069C112.24 8.46735 111.724 7.66883 110.979 7.17179C110.227 6.6992 109.425 6.45068 108.591 6.42623C107.757 6.39771 106.972 6.56068 106.232 6.93957C105.5 7.31031 104.983 7.77883 104.674 8.34105C104.568 7.40401 104.243 6.60142 103.702 5.93734C103.161 5.26919 102.546 4.77215 101.883 4.35252C101.224 3.94104 100.59 3.63548 99.9795 3.4277C99.3693 3.24437 98.9422 3.12622 98.6981 3.06104C102.644 9.62846 105.378 16.4607 106.923 23.2196C106.74 23.1381 106.427 22.9752 105.98 22.7348C105.528 22.4985 105.085 22.1318 104.601 21.7204C104.121 21.3007 103.694 20.767 103.315 20.1192C102.933 19.4715 102.725 18.6729 102.677 17.7644C102.363 18.3348 101.875 18.8196 101.236 19.2229C100.598 19.6263 99.9429 19.8585 99.2636 19.9278C98.5842 19.9929 97.9293 19.8992 97.3028 19.5489C96.6723 19.2189 96.2085 18.5263 95.8465 17.5852C95.6268 16.9944 95.5658 16.3711 95.6838 15.7152C95.7977 15.0592 96.0255 14.497 96.3875 14.0326C96.7414 13.5763 97.2052 13.2503 97.7503 13.1363C98.2995 13.0181 98.8852 13.1933 99.4873 13.6537C100.122 14.1385 100.26 14.66 99.9226 15.2344C99.5849 15.8089 99.1863 15.9026 98.7144 15.5196C98.2303 15.1366 97.8276 15.2385 97.5184 15.8211C97.2092 16.4037 97.3598 16.9292 97.9496 17.3815C98.5069 17.8296 99.0479 17.9885 99.5768 17.8663C100.102 17.7644 100.557 17.5037 100.944 17.0677C101.326 16.6359 101.611 16.1022 101.782 15.4585C101.952 14.8189 101.944 14.1833 101.741 13.5559C101.363 12.3581 100.582 11.6085 99.4832 11.2174C98.934 11.0259 98.393 10.9648 97.8601 11.0788C97.3272 11.2011 96.8065 11.47 96.3102 11.8814C98.0798 9.77106 98.3849 8.03142 96.9367 6.59734L93.959 19.7118C98.5313 20.7548 102.986 22.307 107.216 24.3359C111.435 26.3933 115.425 28.9193 119.103 31.8485L127.495 21.3374Z" fill="#462683"/>
<path fill-rule="evenodd" clip-rule="evenodd" d="M148.651 47.8678C146.897 46.7841 145.27 47.4726 143.639 49.6685C144.204 48.5115 144.18 47.4033 143.578 46.4052C142.931 45.4274 141.995 44.8611 140.787 44.743C140.136 44.6778 139.522 44.8 138.932 45.1137C138.347 45.4233 137.891 45.8185 137.549 46.2952C137.208 46.7719 137.041 47.2852 137.049 47.823C137.057 48.3648 137.342 48.8496 137.919 49.2937C138.497 49.7663 139.018 49.8071 139.522 49.3671C140.023 48.9352 140.059 48.5033 139.563 48.1326C139.071 47.7578 139.067 47.3463 139.547 46.89C140.027 46.4296 140.572 46.4541 141.202 46.9633C141.804 47.4319 142.073 47.9737 142.073 48.5441C142.069 49.1104 141.882 49.6237 141.515 50.0719C141.145 50.5241 140.657 50.8745 140.043 51.1352C139.433 51.4 138.806 51.4856 138.18 51.4082C137.147 51.2778 136.431 50.9397 135.959 50.4059C135.471 49.8763 135.198 49.2733 135.125 48.5848C135.088 48.2385 135.096 47.8922 135.145 47.5378C135.182 47.1915 135.259 46.8452 135.381 46.4867C135.621 45.7819 135.983 45.2033 136.471 44.7715C135.56 44.9344 134.759 44.8978 134.059 44.6574C133.343 44.4252 132.712 44.14 132.188 43.7693C131.667 43.4067 131.26 43.0156 130.919 42.6367C130.573 42.2618 130.345 41.997 130.227 41.8422C137.151 41.8504 144.416 42.987 151.689 45.3622C151.567 45.1382 151.344 44.747 151.018 44.193C150.689 43.647 150.294 43.0685 149.72 42.5267C149.163 41.9807 148.508 41.5122 147.756 41.1293C147.011 40.7463 146.169 40.5996 145.221 40.7178C145.689 40.2859 146.027 39.6748 146.218 38.8844C146.401 38.0859 146.401 37.2752 146.21 36.4563C146.002 35.6455 145.563 34.9326 144.924 34.3092C144.29 33.6859 143.423 33.3396 142.313 33.3233C141.621 33.3029 141.003 33.4863 140.45 33.8611C139.896 34.2359 139.494 34.6881 139.237 35.2178C138.977 35.7474 138.904 36.2892 139.026 36.8637C139.119 37.4463 139.498 37.9555 140.153 38.4037C140.836 38.8763 141.397 38.8681 141.825 38.3629C142.256 37.8618 142.195 37.4137 141.637 37.0389C141.076 36.6722 141.011 36.2281 141.434 35.7026C141.853 35.1811 142.41 35.1607 143.118 35.6578C143.789 36.1344 144.18 36.6844 144.282 37.2874C144.387 37.8904 144.261 38.4648 143.968 38.9741C143.667 39.4874 143.224 39.907 142.646 40.2289C142.065 40.5548 141.446 40.6933 140.804 40.6404C140.494 40.62 140.202 40.5752 139.925 40.5059C139.644 40.4407 139.376 40.3511 139.132 40.233C138.635 40.0007 138.208 39.6626 137.85 39.2144C137.142 38.3141 136.923 37.2833 137.236 36.004C136.077 38.5096 134.523 39.3815 132.753 38.8559C132.696 37.9229 132.977 37.1244 133.587 36.497C134.205 35.8655 135.186 35.3766 136.528 35.1037C136.203 35.1078 135.898 35.0833 135.613 35.0303C135.32 34.9815 135.047 34.9081 134.799 34.7981C134.295 34.5863 133.872 34.2522 133.526 33.7918C132.843 32.8629 132.57 31.8363 132.782 30.5937C132.883 29.95 133.152 29.3714 133.603 28.8785C134.047 28.3855 134.547 28.0474 135.113 27.8681C135.674 27.697 136.243 27.7174 136.817 27.9414C137.106 28.0514 137.366 28.2307 137.594 28.4751C137.818 28.7237 138.005 29.0496 138.163 29.4366C138.481 30.2433 138.334 30.7851 137.732 31.0744C137.126 31.3637 136.719 31.2007 136.496 30.5733C136.26 29.9337 135.829 29.7748 135.235 30.0885C134.641 30.4063 134.539 30.9318 134.84 31.7222C135.117 32.4637 135.515 32.9444 136.06 33.1726C136.601 33.4007 137.159 33.4496 137.736 33.3029C138.306 33.1726 138.831 32.8792 139.323 32.4229C139.807 31.9666 140.132 31.3963 140.258 30.7363C140.454 29.6566 140.315 28.7277 139.864 27.9577C139.636 27.5748 139.38 27.2285 139.071 26.9474C138.761 26.6662 138.42 26.4299 138.046 26.2425C137.297 25.8677 136.512 25.6803 135.702 25.6762C134.901 25.6762 134.209 25.8922 133.697 26.2629C134.006 25.3788 134.055 24.5192 133.851 23.6922C133.644 22.8651 133.351 22.1033 132.92 21.4596C132.501 20.8118 132.058 20.2618 131.594 19.8177C131.138 19.3736 130.817 19.064 130.618 18.9092C131.317 26.5318 130.821 33.8774 129.291 40.6485C129.169 40.4896 128.958 40.2085 128.649 39.8052C128.339 39.3937 128.075 38.8966 127.835 38.2978C127.611 37.6866 127.436 37.0389 127.371 36.2933C127.298 35.5478 127.445 34.7492 127.811 33.8977C127.278 34.2766 126.651 34.4803 125.895 34.574C125.138 34.6637 124.442 34.5944 123.796 34.3663C123.47 34.2481 123.181 34.0892 122.921 33.8855C122.661 33.6777 122.413 33.4496 122.201 33.1603C121.778 32.5859 121.627 31.7914 121.737 30.7566C121.81 30.117 122.018 29.5344 122.408 28.9925C122.795 28.4507 123.246 28.0474 123.775 27.7785C124.292 27.5218 124.829 27.4607 125.374 27.587C125.923 27.7174 126.379 28.1248 126.729 28.7929C127.099 29.4937 126.969 30.0518 126.428 30.4144C125.878 30.777 125.488 30.6792 125.219 30.1374C124.947 29.5874 124.536 29.5059 123.999 29.9011C123.466 30.2922 123.377 30.8259 123.718 31.4859C123.873 31.8077 124.064 32.0563 124.272 32.2518C124.475 32.4514 124.703 32.5818 124.963 32.647C125.484 32.7814 126.013 32.7366 126.55 32.5126C127.087 32.2885 127.571 31.93 128.006 31.4248C128.437 30.9196 128.702 30.3492 128.791 29.6974C128.942 28.4792 128.624 27.4037 127.778 26.6011C127.363 26.1896 126.891 25.9166 126.367 25.7781C126.106 25.7088 125.83 25.6762 125.545 25.6762C125.252 25.6844 124.947 25.7292 124.634 25.8107C125.895 25.2322 126.769 24.6088 127.257 23.8673C127.75 23.1177 127.831 22.2825 127.489 21.3333L119.109 31.8444L119.805 32.3863C120.037 32.5696 120.248 32.7692 120.472 32.9607L121.802 34.1137C122.258 34.4885 122.665 34.9122 123.092 35.3155L124.369 36.5296L125.581 37.8089C125.98 38.2407 126.407 38.6481 126.781 39.1004L127.933 40.4326C128.124 40.6567 128.323 40.8726 128.506 41.1007L129.047 41.7974C131.972 45.4763 134.494 49.473 136.549 53.7019L148.651 47.8678Z" fill="#462683"/>
<path fill-rule="evenodd" clip-rule="evenodd" d="M156.19 80.9817C155.075 79.2462 153.314 79.1565 150.893 80.4236C151.902 79.6291 152.358 78.6188 152.252 77.4576C152.11 76.2925 151.495 75.3799 150.458 74.7443C149.901 74.398 149.291 74.2432 148.627 74.2676C147.964 74.2921 147.379 74.4469 146.87 74.728C146.358 75.0091 145.987 75.3962 145.764 75.8851C145.54 76.378 145.585 76.9402 145.914 77.5921C146.207 78.2725 146.675 78.5332 147.314 78.358C147.952 78.1869 148.168 77.8121 147.895 77.2621C147.61 76.708 147.785 76.3373 148.416 76.1336C149.046 75.9299 149.531 76.1865 149.88 76.9199C150.222 77.6043 150.21 78.2113 149.97 78.7247C149.722 79.2339 149.331 79.6128 148.806 79.8573C148.278 80.1017 147.684 80.2077 147.017 80.171C146.353 80.1425 145.751 79.9469 145.219 79.6006C144.352 79.0302 143.831 78.4151 143.661 77.7265C143.453 77.0339 143.461 76.3739 143.693 75.7221C143.917 75.0702 144.336 74.4754 144.844 73.9458C145.365 73.4162 145.939 73.0536 146.561 72.8784C145.666 72.6299 144.958 72.2428 144.429 71.7213C143.913 71.1958 143.465 70.6661 143.144 70.108C142.831 69.5539 142.611 69.0284 142.489 68.5354C142.375 68.0384 142.261 67.7084 142.22 67.5169C148.453 70.5358 154.489 74.7443 160.001 80.0406C159.989 79.788 159.957 79.3399 159.904 78.7002C159.851 78.0647 159.725 77.3762 159.468 76.6388C159.2 75.9054 158.809 75.2006 158.301 74.5284C157.788 73.8602 157.101 73.3632 156.214 73.0495C156.824 72.8661 157.39 72.4628 157.902 71.8354C158.411 71.1998 158.761 70.4706 158.94 69.6476C159.139 68.8247 159.037 67.9895 158.728 67.1543C158.415 66.3191 157.78 65.6306 156.82 65.1213C156.198 64.8035 155.563 64.6976 154.904 64.7954C154.245 64.8891 153.684 65.1254 153.228 65.488C152.773 65.8465 152.459 66.3109 152.297 66.8813C152.134 67.4476 152.256 68.0669 152.659 68.7554C153.074 69.4806 153.59 69.7128 154.192 69.448C154.798 69.1832 154.933 68.7554 154.591 68.1769C154.241 67.6024 154.371 67.1747 154.977 66.8895C155.58 66.6002 156.092 66.8284 156.519 67.5821C156.914 68.3032 157.06 68.9672 156.857 69.558C156.67 70.1487 156.328 70.6091 155.84 70.9432C155.344 71.2732 154.766 71.4565 154.107 71.4932C153.44 71.5339 152.826 71.3873 152.264 71.0613C151.719 70.7558 151.288 70.3891 150.954 69.9613C150.604 69.5376 150.364 69.0487 150.226 68.4865C149.95 67.3743 150.267 66.3354 151.076 65.325C148.957 67.0728 147.175 67.1787 145.796 65.9402C146.496 64.2209 148.143 63.5446 150.82 64.2087C150.226 63.9317 149.754 63.5895 149.413 63.1739C149.059 62.7624 148.806 62.2817 148.693 61.7194C148.444 60.5991 148.725 59.5276 149.417 58.5091C149.783 57.9754 150.271 57.572 150.889 57.3235C151.503 57.0709 152.101 56.9854 152.691 57.0668C153.277 57.1565 153.786 57.4172 154.209 57.8735C154.615 58.3257 154.798 58.9817 154.754 59.8128C154.701 60.6765 154.335 61.1002 153.668 61.1002C152.996 61.0961 152.691 60.7743 152.756 60.1143C152.809 59.438 152.5 59.1039 151.837 59.1283C151.178 59.1487 150.82 59.5928 150.763 60.432C150.698 61.2183 150.857 61.8213 151.255 62.2654C151.654 62.7054 152.101 62.9987 152.683 63.1209C153.253 63.2513 153.859 63.2146 154.497 63.0191C155.132 62.8195 155.661 62.4487 156.084 61.9069C156.767 61.0106 157.007 60.1224 156.93 59.2302C156.837 58.3461 156.572 57.5476 156.051 56.8876C155.531 56.2235 154.896 55.7183 154.16 55.3679C153.424 55.0217 152.74 54.9076 152.114 55.0176C152.797 54.3454 153.196 53.5998 153.363 52.7687C153.529 51.9376 153.57 51.1309 153.493 50.3487C153.419 49.5705 153.224 48.8983 152.996 48.2953C152.769 47.6964 152.606 47.285 152.508 47.0527C149.84 54.2353 146.207 60.6398 141.891 66.0624C141.846 65.8669 141.785 65.5206 141.708 65.0154C141.602 64.5143 141.57 63.952 141.606 63.3124C141.643 62.6728 141.826 61.9965 142.078 61.3039C142.326 60.6031 142.798 59.9513 143.494 59.3443C142.855 59.4543 142.176 59.3728 141.476 59.1202C140.785 58.8635 140.178 58.505 139.682 58.0202C139.19 57.5354 138.893 56.9487 138.783 56.2357C138.649 55.535 138.84 54.765 139.381 53.8809C139.711 53.339 140.166 52.899 140.752 52.5813C141.338 52.2594 141.915 52.0924 142.497 52.0842C143.075 52.0761 143.591 52.2513 144.039 52.5976C144.478 52.952 144.747 53.502 144.739 54.272C144.743 55.0746 144.413 55.5105 143.758 55.6042C143.103 55.6939 142.786 55.4413 142.802 54.8261C142.818 54.1987 142.452 53.9624 141.81 54.0846C141.155 54.2068 140.858 54.6428 140.874 55.3883C140.858 56.1135 141.061 56.635 141.476 56.9772C141.891 57.3235 142.391 57.5068 142.981 57.5394C143.563 57.5679 144.161 57.4579 144.767 57.1891C145.373 56.9202 145.857 56.525 146.211 55.9791C146.87 54.9524 147.013 53.8565 146.646 52.7442C146.236 51.6524 145.389 50.9435 144.141 50.6746C146.866 50.7561 148.42 49.9087 148.668 47.8676L136.574 53.7098C140.63 62.188 142.762 71.5502 142.774 80.9817H156.19V80.9817Z" fill="#462683"/>
</svg>
