<svg width="203" height="190" viewBox="0 0 203 190" fill="none" xmlns="http://www.w3.org/2000/svg">
<path d="M65.7028 189.907C63.9694 189.907 62.2352 189.92 60.5018 189.904C57.9457 189.88 55.3895 189.822 52.8334 189.804C49.592 189.781 46.3505 189.787 43.1099 189.77C42.1157 189.765 41.1214 189.712 40.1271 189.705C39.1908 189.698 38.2537 189.741 37.3166 189.731C33.995 189.692 30.6742 189.628 27.3525 189.598C24.7085 189.575 22.0644 189.603 19.4213 189.585C17.1519 189.569 14.8825 189.508 12.6132 189.489C10.3754 189.471 8.13764 189.488 5.89901 189.476C4.27914 189.468 2.65927 189.441 1.0394 189.415C0.392477 189.405 0.238 189.272 0.207276 188.606C0.16631 187.698 0.171431 186.787 0.154361 185.877C0.105714 183.378 0.0527994 180.88 0.00756593 178.381C0.000738234 177.984 -0.0188924 177.578 0.0545053 177.191C0.109127 176.902 0.241413 176.578 0.443684 176.373C1.59927 175.201 2.76425 174.036 3.96763 172.914C6.54508 170.512 9.14217 168.13 11.7461 165.756C12.7967 164.798 13.7662 163.826 14.4712 162.533C15.5005 160.645 17.0461 159.141 18.8085 157.903C19.6415 157.317 20.5359 156.809 21.4397 156.338C21.8895 156.104 22.1378 155.801 22.2658 155.335C22.8735 153.116 23.4923 150.899 24.1068 148.682C26.0032 141.836 27.8867 134.986 29.8011 128.145C31.2101 123.11 32.6661 118.087 34.0837 113.053C34.8382 110.373 35.5397 107.678 36.2959 104.998C36.7354 103.442 37.2398 101.905 37.7084 100.357C38.1616 98.8619 38.5917 97.3598 39.0577 95.868C39.9479 93.0157 43.1296 90.5432 46.1329 90.3504C47.6333 90.2548 49.1055 90.4366 50.425 91.1705C52.7737 92.478 54.3287 94.4103 54.8382 97.1132C54.9201 97.5459 55.0874 97.9982 55.3375 98.3558C56.6885 100.289 58.0814 102.192 59.4537 104.11C61.4875 106.952 63.5205 109.795 65.5449 112.644C67.3389 115.167 69.1183 117.7 70.9089 120.227C73.1433 123.378 75.3887 126.521 77.6154 129.678C79.138 131.836 80.6196 134.024 82.1498 136.176C83.5649 138.166 85.0252 140.125 86.4547 142.105C87.2851 143.256 88.0942 144.421 88.9135 145.579C90.3576 147.619 91.7982 149.662 93.2483 151.698C94.9944 154.149 96.7483 156.595 98.5039 159.04C98.8623 159.54 98.8913 159.54 99.3642 159.202C99.6185 159.02 99.8677 158.83 100.108 158.631C100.484 158.319 100.51 158.182 100.196 157.779C99.7772 157.241 99.3155 156.737 98.8922 156.203C98.4177 155.605 98.4475 155.18 99.0083 154.65C99.2754 154.397 99.5639 154.15 99.8839 153.977C100.263 153.771 100.325 153.534 100.202 153.141C99.5664 151.107 98.9477 149.068 98.3289 147.028C97.2988 143.629 96.2661 140.231 95.2513 136.826C95.0243 136.065 94.8664 135.283 94.6821 134.509C94.4986 133.736 94.5413 133.595 95.2872 133.404C96.8831 132.995 98.4859 132.612 100.097 132.269C101.596 131.95 103.108 131.699 104.614 131.412C106.735 131.008 108.857 130.614 110.974 130.19C112.701 129.843 114.422 129.462 116.143 129.087C116.385 129.034 116.694 128.993 116.68 128.65C116.665 128.279 116.352 128.201 116.065 128.198C114.899 128.187 113.733 128.209 112.568 128.2C111.175 128.188 109.782 128.156 108.39 128.13C108.278 128.127 108.165 128.101 108.052 128.084C107.065 127.933 106.986 127.921 107.134 126.911C107.457 124.72 107.854 122.539 108.249 120.36C108.496 118.992 108.784 117.63 109.076 116.271C109.243 115.494 109.433 114.721 109.655 113.958C109.826 113.374 110.015 113.311 110.613 113.511C112.929 114.283 115.245 115.061 117.564 115.822C118.406 116.098 118.47 116.069 118.775 115.282C119.417 113.628 120.259 112.087 121.364 110.701C121.644 110.35 121.487 110.14 121.276 109.894C119.892 108.275 118.509 106.655 117.123 105.038C116.403 104.197 115.66 103.373 114.959 102.517C114.362 101.79 114.418 101.412 115.201 100.93C116.603 100.065 118.034 99.2477 119.436 98.3823C120.789 97.5459 122.115 96.6668 123.461 95.8185C124.951 94.8788 126.45 93.9537 127.946 93.0217C128.645 92.5864 129.331 92.129 130.045 91.7219C130.679 91.3609 130.93 91.4718 131.243 92.123C132.46 94.6552 133.676 97.1883 134.907 99.7145C135.285 100.491 135.295 100.439 136.13 100.245C137.702 99.8801 139.269 99.4704 140.904 99.4628C141.638 99.4594 142.372 99.3817 143.106 99.3382C143.798 99.2972 143.852 99.269 144.018 98.5769C144.477 96.6719 144.919 94.7627 145.375 92.857C145.455 92.5258 145.557 92.1998 145.662 91.8746C145.789 91.4795 146.056 91.3276 146.454 91.4752C148.104 92.0897 149.767 92.6752 151.399 93.3358C153.532 94.1986 155.64 95.1204 157.758 96.0182C159.849 96.9041 161.947 97.7763 164.028 98.687C164.728 98.9934 164.83 99.3834 164.469 100.044C163.433 101.938 162.389 103.828 161.339 105.715C161.006 106.313 160.992 106.372 161.496 106.876C163.215 108.596 164.663 110.514 165.827 112.651C166.229 113.391 166.292 113.405 167.102 113.11C169.263 112.324 171.42 111.528 173.579 110.737C173.739 110.678 173.899 110.605 174.064 110.577C174.649 110.48 174.988 110.686 175.127 111.276C175.374 112.325 175.604 113.38 175.814 114.438C176.268 116.722 176.701 119.011 177.15 121.296C177.703 124.11 178.268 126.922 178.818 129.737C179.011 130.724 178.771 131.038 177.741 131.066C175.044 131.141 172.346 131.193 169.648 131.241C168.84 131.256 168.823 131.241 168.596 132.035C168.104 133.755 167.693 135.504 166.842 137.098C166.619 137.517 166.835 137.697 167.144 137.92C169.175 139.377 171.194 140.849 173.217 142.318C173.469 142.501 173.721 142.688 173.964 142.884C174.496 143.314 174.569 143.631 174.136 144.179C173.751 144.667 173.305 145.115 172.841 145.531C171.489 146.745 170.114 147.933 168.749 149.133C166.981 150.69 165.21 152.243 163.451 153.811C162.879 154.322 162.348 154.877 161.789 155.403C161.315 155.848 161.097 155.862 160.637 155.425C160.371 155.173 160.155 154.867 159.931 154.574C158.687 152.952 157.448 151.327 156.207 149.702C156.104 149.566 156.003 149.429 155.897 149.296C155.642 148.977 155.339 148.955 154.985 149.127C154.17 149.521 153.354 149.913 152.529 150.286C152.248 150.414 151.946 150.503 151.645 150.571C150.76 150.774 150.611 151.027 150.693 151.917C150.806 153.132 150.85 154.351 150.925 155.569C151.027 157.214 151.122 158.859 151.235 160.501C151.296 161.392 151.097 161.654 150.2 161.628C148.182 161.571 146.166 161.48 144.15 161.407C143.129 161.37 142.107 161.347 141.086 161.308C139.269 161.237 137.452 161.174 135.636 161.078C133.856 160.985 133.715 160.768 133.882 159.004C133.976 158.016 133.96 157.018 133.987 156.024C133.989 155.953 133.938 155.881 133.911 155.809C133.857 155.865 133.777 155.912 133.753 155.98C133.276 157.257 132.807 158.538 132.337 159.818C132.024 160.668 131.717 161.52 131.401 162.37C131.036 163.354 130.664 164.335 130.297 165.319C129.474 167.526 128.639 169.728 127.836 171.942C127.264 173.517 126.753 175.114 126.181 176.689C125.821 177.676 125.402 178.64 125 179.611C124.936 179.767 124.833 179.91 124.73 180.043C124.367 180.51 124.225 180.571 123.754 180.209C123.082 179.692 122.451 179.117 121.827 178.54C119.367 176.264 116.905 173.989 114.465 171.69C112.75 170.074 111.067 168.422 109.375 166.781C108.85 166.272 108.85 166.249 108.205 166.656C107.817 166.901 107.51 166.84 107.23 166.512C106.528 165.692 105.827 164.872 105.132 164.047C104.654 163.479 104.656 163.474 104.109 163.984C103.756 164.313 103.434 164.683 103.051 164.973C102.676 165.257 102.6 165.577 102.682 166.011C102.906 167.213 102.775 168.379 102.337 169.527C101.485 171.755 98.9681 173.442 96.4965 173.267C93.9677 173.087 92.0304 171.927 90.4899 169.994C88.7906 167.861 87.0982 165.724 85.4058 163.585C83.6255 161.335 81.8562 159.076 80.0674 156.832C78.3323 154.656 76.5725 152.499 74.8374 150.323C73.9882 149.259 73.1774 148.164 72.3359 147.093C71.0728 145.486 69.7909 143.893 68.5294 142.285C67.6717 141.192 66.8404 140.077 65.9844 138.981C65.6004 138.49 65.1745 138.03 64.7845 137.542C63.3848 135.789 61.9988 134.025 60.5948 132.275C59.6884 131.144 58.7505 130.039 57.8458 128.907C56.3932 127.089 54.9628 125.254 53.5085 123.436C52.9589 122.749 52.3726 122.092 51.7965 121.427C51.7094 121.326 51.5848 121.258 51.4773 121.175C51.3979 121.312 51.2724 121.441 51.246 121.588C51.0079 122.901 50.7937 124.22 50.5615 125.534C50.0921 128.193 49.6082 130.849 49.1448 133.508C48.2905 138.407 47.4592 143.309 46.5929 148.206C46.0339 151.368 45.4279 154.52 44.8502 157.678C44.7016 158.488 44.5659 159.301 44.4482 160.117C44.3586 160.735 44.4123 160.829 45.0191 161.072C46.8635 161.812 48.7274 162.505 50.559 163.277C52.8095 164.225 55.0294 165.248 57.274 166.214C58.4996 166.741 59.7507 167.208 60.984 167.72C64.1316 169.027 67.2748 170.344 70.4207 171.654C71.3638 172.046 72.3 172.462 73.2602 172.808C74.0616 173.097 74.4576 173.601 74.4542 174.459C74.4473 176.504 74.4567 178.55 74.473 180.594C74.4892 182.668 74.5318 184.743 74.5438 186.817C74.5481 187.612 74.5045 188.407 74.473 189.202C74.4465 189.855 74.3782 189.936 73.7202 189.942C72.213 189.956 70.7058 189.948 69.1986 189.948C68.0327 189.948 66.8678 189.948 65.7019 189.948C65.7028 189.933 65.7028 189.92 65.7028 189.907ZM145.262 160.292C145.262 160.332 145.261 160.372 145.261 160.412C146.596 160.412 147.933 160.413 149.269 160.412C150.202 160.411 150.15 160.587 150.172 159.482C150.173 159.424 150.171 159.368 150.167 159.311C150.02 157.243 149.86 155.176 149.731 153.107C149.685 152.371 149.71 151.631 149.715 150.891C149.718 150.42 149.909 150.08 150.399 149.936C150.807 149.818 151.214 149.686 151.6 149.513C152.765 148.993 153.924 148.457 155.077 147.911C155.624 147.652 155.773 147.647 156.216 148.043C156.385 148.195 156.543 148.363 156.68 148.542C157.421 149.511 158.153 150.488 158.891 151.461C159.56 152.344 160.236 153.221 160.898 154.109C161.141 154.435 161.355 154.458 161.656 154.174C162.171 153.687 162.721 153.235 163.244 152.755C164.938 151.2 166.628 149.641 168.316 148.081C169.755 146.75 171.194 145.421 172.624 144.08C173.07 143.662 173.058 143.623 172.56 143.256C171.463 142.448 170.359 141.649 169.262 140.841C168.142 140.016 167.021 139.191 165.913 138.35C165.229 137.831 165.138 137.458 165.553 136.75C166.333 135.417 166.836 133.975 167.29 132.513C167.441 132.027 167.531 131.52 167.639 131.02C167.727 130.61 167.934 130.376 168.389 130.361C168.984 130.34 169.577 130.244 170.172 130.224C172.385 130.152 174.6 130.095 176.815 130.041C177.628 130.02 177.751 129.879 177.593 129.058C177.295 127.5 176.994 125.941 176.688 124.385C175.892 120.346 175.094 116.308 174.292 112.27C174.157 111.589 174.016 111.526 173.379 111.775C171.158 112.646 168.936 113.516 166.712 114.379C165.86 114.709 165.822 114.638 165.327 113.844C164.55 112.592 163.773 111.327 162.863 110.173C162.006 109.087 160.985 108.13 160.018 107.134C159.59 106.693 159.543 106.564 159.828 106.025C159.881 105.925 159.952 105.835 160.009 105.736C161.01 103.985 162.014 102.236 163.009 100.481C163.398 99.7956 163.392 99.7803 162.646 99.4508C161.555 98.9695 160.456 98.5052 159.362 98.0315C157.043 97.0278 154.718 96.0361 152.407 95.0137C150.745 94.2788 149.103 93.4988 147.448 92.7486C146.768 92.4405 146.727 92.4695 146.567 93.2205C146.52 93.4433 146.488 93.6686 146.439 93.8905C146.014 95.8031 145.594 97.7174 145.152 99.6266C144.974 100.397 144.849 100.502 144.12 100.469C142.245 100.383 140.383 100.405 138.546 100.845C137.58 101.076 136.603 101.262 135.648 101.528C134.787 101.768 134.663 101.787 134.208 100.976C133.721 100.111 133.28 99.217 132.872 98.3114C132.138 96.6822 131.443 95.0359 130.731 93.3964C130.675 93.2666 130.619 93.1352 130.551 93.0106C130.419 92.7682 130.248 92.6982 129.995 92.8646C129.473 93.206 128.943 93.5346 128.417 93.8683C126.593 95.023 124.771 96.1795 122.944 97.3308C120.76 98.7092 118.57 100.079 116.388 101.462C115.904 101.768 115.895 101.851 116.274 102.322C116.878 103.074 117.491 103.819 118.119 104.551C119.544 106.21 120.985 107.857 122.411 109.515C122.955 110.147 122.963 110.331 122.465 111.003C121.306 112.565 120.421 114.28 119.639 116.051C119.046 117.396 118.861 117.485 117.469 117.003C117.362 116.966 117.257 116.92 117.149 116.884C115.239 116.238 113.328 115.592 111.418 114.945C110.888 114.765 110.701 114.764 110.573 115.448C110.153 117.704 109.655 119.945 109.182 122.19C108.89 123.581 108.585 124.968 108.296 126.358C108.192 126.86 108.228 126.913 108.717 126.944C109.681 127.006 110.645 127.076 111.61 127.093C113.116 127.119 114.623 127.107 116.13 127.105C117.902 127.102 117.723 127.13 117.982 128.778C118.174 130.009 118.402 131.239 118.701 132.448C118.973 133.549 119.359 134.623 119.701 135.706C119.861 136.209 119.741 136.566 119.264 136.85C118.607 137.243 117.971 137.676 117.35 138.125C115.901 139.173 114.472 140.247 113.023 141.293C112.354 141.777 112.327 141.963 112.856 142.56C114.434 144.345 116.01 146.132 117.565 147.937C119.122 149.744 120.65 151.576 122.196 153.393C122.617 153.888 122.668 153.885 123.116 153.427C123.275 153.265 123.422 153.091 123.573 152.922C124.408 151.992 125.246 151.064 126.076 150.13C126.885 149.22 127.703 148.317 128.485 147.384C128.988 146.783 129.159 146.73 129.823 147.184C129.917 147.248 129.997 147.332 130.09 147.396C130.41 147.618 130.71 147.589 130.857 147.218C131.285 146.139 132.037 145.928 133.104 146.211C134.173 146.494 135.275 146.645 136.357 146.881C136.881 146.995 136.938 147.129 136.755 147.674C136.593 148.159 136.41 148.637 136.224 149.114C135.528 150.897 134.988 152.708 135.169 154.661C135.195 154.939 135.119 155.225 135.102 155.509C135.023 156.756 134.926 158.003 134.883 159.25C134.861 159.863 135.039 159.99 135.646 159.996C136.153 160 136.661 160.001 137.169 160.018C139.87 160.107 142.566 160.2 145.262 160.292ZM54.0155 99.5054C53.9079 97.1746 53.453 95.2689 52.1174 93.6737C51.2588 92.6487 50.1476 91.9122 48.887 91.5435C47.6572 91.1842 46.3872 91.2226 45.1096 91.6109C43.0417 92.2399 41.5558 93.5329 40.3703 95.2799C39.6765 96.3032 39.5271 97.5049 39.19 98.6349C38.3937 101.302 37.7178 104.005 36.9872 106.692C35.981 110.393 34.9756 114.095 33.9566 117.793C33.3754 119.901 32.7566 121.999 32.1737 124.107C31.5993 126.187 31.0608 128.278 30.4847 130.357C29.9385 132.328 29.3521 134.287 28.8025 136.256C27.9081 139.458 27.0299 142.664 26.144 145.868C25.3025 148.907 24.4558 151.946 23.6194 154.986C23.4786 155.499 23.5392 155.553 24.0325 155.448C24.1708 155.419 24.3031 155.359 24.4405 155.327C26.0876 154.938 27.7656 154.817 29.4324 155.036C31.4977 155.308 33.4479 155.971 35.3127 156.947C37.3457 158.011 39.0065 159.452 40.384 161.265C41.1103 162.222 41.7435 163.224 42.2138 164.33C42.2616 164.443 42.3947 164.52 42.4878 164.613C42.5484 164.495 42.6448 164.382 42.6653 164.258C43.0587 161.905 43.4291 159.548 43.832 157.197C44.3884 153.948 44.9739 150.704 45.5338 147.455C46.0356 144.544 46.511 141.628 47.012 138.717C47.4302 136.283 47.8765 133.854 48.2956 131.42C48.9084 127.863 49.4904 124.303 50.1177 120.749C50.8133 116.807 51.5387 112.871 52.2599 108.934C52.6132 107.005 52.9896 105.081 53.3489 103.154C53.5939 101.846 53.8277 100.535 54.0155 99.5054ZM64.8152 188.664C64.8152 188.678 64.8152 188.694 64.8152 188.708C67.3747 188.708 69.9334 188.71 72.4929 188.707C73.3583 188.707 73.4027 188.673 73.4078 187.79C73.4172 186.256 73.4249 184.722 73.401 183.188C73.3566 180.348 73.2747 177.508 73.2448 174.667C73.2388 174.08 72.8975 173.874 72.4656 173.694C69.9231 172.632 67.3807 171.568 64.8357 170.513C62.7882 169.663 60.7373 168.822 58.6865 167.979C56.4794 167.072 54.2664 166.18 52.0653 165.259C50.5479 164.624 49.0475 163.947 47.5377 163.293C46.5989 162.887 45.6635 162.474 44.7145 162.092C44.1563 161.868 44.1 161.9 43.9924 162.5C43.7714 163.73 43.5614 164.962 43.3856 166.199C43.3105 166.727 43.2311 167.286 43.3276 167.799C44.1324 172.056 43.1577 175.947 40.8286 179.503C39.289 181.853 37.1417 183.567 34.5625 184.712C32.0764 185.815 29.4767 186.284 26.7602 186.051C24.0905 185.822 21.5839 185.082 19.3282 183.609C18.5695 183.114 17.7792 182.621 17.1502 181.982C16.0987 180.914 15.1053 179.786 14.3491 178.46C12.9512 176.007 12.1959 173.389 12.2163 170.574C12.2257 169.301 12.3051 168.017 12.6764 166.777C12.7062 166.678 12.6721 166.56 12.6678 166.451C12.5714 166.491 12.4527 166.508 12.3811 166.575C10.7825 168.067 9.19252 169.569 7.59399 171.06C5.91096 172.631 4.23732 174.211 2.52698 175.752C1.12133 177.018 1.1 176.995 1.08122 178.869C1.07951 179.039 1.07781 179.21 1.08122 179.381C1.13669 181.736 1.19388 184.091 1.24935 186.446C1.25959 186.873 1.25874 187.299 1.2741 187.725C1.30227 188.503 1.41236 188.585 2.2095 188.492C2.63196 188.442 3.05784 188.389 3.48201 188.387C4.98751 188.381 6.49302 188.395 7.99853 188.4C12.0567 188.413 16.1149 188.416 20.1732 188.44C22.5236 188.454 24.874 188.509 27.2253 188.528C29.528 188.548 31.8297 188.543 34.1324 188.556C39.6748 188.585 45.2171 188.622 50.7595 188.651C53.0033 188.663 55.247 188.663 57.4908 188.666C59.9325 188.666 62.3743 188.664 64.8152 188.664ZM97.1341 172.188C98.5115 172.214 99.6117 171.695 100.434 170.572C101.319 169.364 101.602 168.014 101.488 166.548C101.398 165.394 100.827 164.432 100.201 163.529C98.2299 160.684 96.2132 157.872 94.2058 155.054C92.213 152.254 90.2005 149.469 88.2128 146.665C86.2251 143.862 84.2639 141.039 82.2796 138.233C80.9192 136.308 79.5382 134.397 78.1693 132.479C76.1398 129.634 74.1085 126.791 72.0858 123.942C69.9991 121.002 67.9243 118.053 65.8402 115.111C63.4095 111.68 60.9729 108.253 58.5405 104.823C57.4891 103.339 56.4478 101.849 55.3904 100.37C55.2871 100.225 55.1028 100.138 54.956 100.024C54.8792 100.198 54.7588 100.367 54.7341 100.548C54.6479 101.165 54.63 101.794 54.5241 102.408C54.1333 104.675 53.7082 106.937 53.3156 109.202C53.0007 111.021 52.7182 112.846 52.411 114.666C52.2121 115.843 51.9919 117.016 51.7862 118.192C51.6565 118.932 51.8204 119.558 52.329 120.16C53.2977 121.309 54.1853 122.527 55.1122 123.71C56.1799 125.075 57.2467 126.441 58.328 127.794C60.2236 130.169 62.1345 132.531 64.0283 134.907C64.9662 136.084 65.8658 137.292 66.8097 138.463C68.608 140.695 70.4361 142.904 72.2326 145.137C74.4764 147.924 76.6945 150.733 78.9366 153.522C80.9644 156.044 83.0246 158.539 85.0431 161.069C87.257 163.844 89.4469 166.638 91.6292 169.437C93.0332 171.232 94.8579 172.153 97.1341 172.188ZM13.3907 170.697C13.5409 171.82 13.6288 172.955 13.8533 174.063C14.3679 176.606 15.6131 178.802 17.3695 180.676C18.7965 182.198 20.4889 183.364 22.4442 184.188C25.6601 185.545 28.8964 185.642 32.166 184.551C34.8877 183.643 37.1707 182.052 39.0056 179.829C41.7734 176.475 42.7771 172.628 42.1703 168.361C41.875 166.285 41.1308 164.343 39.9496 162.604C39.3462 161.715 38.73 160.78 37.9235 160.097C36.5067 158.899 35.0345 157.765 33.2371 157.088C31.9398 156.599 30.6349 156.257 29.277 156.177C27.8082 156.091 26.3462 156.131 24.8723 156.436C22.3128 156.965 20.1313 158.172 18.2119 159.861C16.7533 161.146 15.6362 162.709 14.8023 164.492C13.8789 166.468 13.4445 168.518 13.3907 170.697ZM118.553 135.848C118.509 135.277 118.247 135.215 117.729 135.495C114.58 137.197 111.431 138.901 108.278 140.594C107.227 141.159 106.155 141.684 105.102 142.244C104.412 142.612 104.38 142.71 104.677 143.448C105.048 144.37 105.46 145.277 105.818 146.204C106.648 148.35 107.463 150.501 108.268 152.656C108.436 153.102 108.678 153.436 109.107 153.675C110.025 154.188 110.663 154.983 111.162 155.893C111.731 156.928 112.034 158.042 112.173 159.213C112.21 159.525 112.368 159.855 112.56 160.11C112.883 160.54 113.259 160.933 113.643 161.311C114.29 161.948 114.977 162.546 115.618 163.188C116.703 164.272 117.755 165.389 118.844 166.47C119.662 167.281 119.779 166.931 120.147 166.272C121.49 163.868 122.88 161.491 124.238 159.095C125.288 157.244 126.316 155.381 127.353 153.523C128.143 152.11 128.937 150.699 129.723 149.285C129.857 149.044 130.059 148.791 129.721 148.54C129.436 148.329 129.163 148.263 128.891 148.557C128.622 148.85 128.348 149.138 128.08 149.431C126.453 151.211 124.824 152.988 123.205 154.775C122.919 155.091 122.612 155.132 122.314 154.865C121.913 154.507 121.53 154.122 121.177 153.716C119.983 152.346 118.804 150.961 117.621 149.581C115.624 147.253 113.623 144.928 111.634 142.595C111.049 141.909 111.072 141.724 111.788 141.16C112.525 140.58 113.274 140.016 114.03 139.462C115.425 138.44 116.844 137.449 118.139 136.297C118.315 136.14 118.461 135.948 118.553 135.848ZM135.513 147.963C135.423 147.897 135.297 147.739 135.143 147.702C134.287 147.498 133.424 147.322 132.563 147.14C132.277 147.079 132.069 147.182 131.929 147.444C131.769 147.745 131.592 148.037 131.428 148.335C130.842 149.405 130.282 150.49 129.669 151.543C128.256 153.971 126.803 156.374 125.396 158.805C123.674 161.777 121.984 164.767 120.279 167.748C119.855 168.49 119.502 168.532 118.894 167.944C117.832 166.918 116.755 165.907 115.7 164.875C114.604 163.803 113.53 162.71 112.439 161.634C112.047 161.247 111.886 161.276 111.764 161.797C111.489 162.966 110.828 163.917 110.12 164.846C109.665 165.442 109.666 165.43 110.203 165.914C111.068 166.693 111.942 167.465 112.777 168.275C114.347 169.796 115.883 171.352 117.45 172.876C119.525 174.894 121.621 176.894 123.701 178.907C124.231 179.42 124.223 179.43 124.45 178.715C124.493 178.58 124.519 178.439 124.566 178.306C125.179 176.567 125.781 174.824 126.414 173.093C126.871 171.843 127.388 170.616 127.848 169.366C128.19 168.438 128.466 167.486 128.801 166.555C129.434 164.794 130.095 163.041 130.731 161.282C131.562 158.986 132.371 156.681 133.209 154.388C133.812 152.737 134.456 151.101 135.065 149.452C135.233 149.002 135.344 148.532 135.513 147.963ZM106.981 152.762C106.991 152.761 107.19 152.741 107.19 152.72C107.191 152.565 107.183 152.397 107.122 152.255C106.003 149.615 104.871 146.981 103.759 144.338C103.573 143.895 103.439 143.424 103.339 142.953C103.156 142.106 103.249 141.934 104.006 141.512C104.9 141.014 105.792 140.511 106.693 140.028C108.32 139.156 109.948 138.284 111.588 137.435C113.503 136.443 115.436 135.484 117.353 134.496C117.962 134.182 117.979 134.053 117.789 133.411C117.522 132.513 117.263 131.612 117.036 130.704C116.869 130.034 116.874 130.006 116.195 130.139C114.802 130.409 113.411 130.693 112.019 130.966C111.016 131.163 110.008 131.338 109.007 131.549C105.419 132.303 101.834 133.069 98.2478 133.827C97.5531 133.974 96.8558 134.109 96.1594 134.249C95.8146 134.318 95.6559 134.491 95.8155 134.851C95.8615 134.954 95.888 135.066 95.9221 135.174C96.628 137.422 97.3662 139.661 98.031 141.921C99.033 145.327 99.9812 148.748 100.958 152.161C101.012 152.349 101.147 152.514 101.205 152.702C101.342 153.143 101.61 153.152 102.001 153.04C103.602 152.578 105.225 152.369 106.981 152.762ZM105.641 153.745C103.436 153.77 101.702 154.326 100.146 155.417C99.6936 155.733 99.7004 155.806 100.064 156.21C100.368 156.548 100.713 156.849 101.005 157.198C103.043 159.643 105.072 162.095 107.105 164.545C107.232 164.698 107.367 164.845 107.49 165C107.732 165.306 107.987 165.35 108.273 165.058C108.393 164.937 108.529 164.832 108.648 164.71C110.11 163.209 110.964 161.427 111.094 159.324C111.151 158.406 111.104 157.505 110.594 156.688C109.38 154.745 107.606 153.812 105.641 153.745ZM103.871 162.548C103.777 162.405 103.709 162.281 103.621 162.173C103.143 161.579 102.673 160.98 102.178 160.402C101.2 159.263 101.194 159.268 100.052 160.232C99.9872 160.286 99.8796 160.319 99.8549 160.385C99.8028 160.525 99.7166 160.73 99.7764 160.822C100.442 161.835 101.132 162.834 101.82 163.833C101.977 164.06 102.162 164.086 102.388 163.895C102.819 163.53 103.267 163.187 103.699 162.825C103.777 162.759 103.813 162.645 103.871 162.548Z" fill="#462683"/>
<path d="M141.427 87.4153C138.785 87.3521 136.144 87.2915 133.502 87.2249C132.528 87.2002 132.337 87.0295 132.441 86.0386C132.598 84.5434 132.835 83.0566 133.023 81.5639C133.302 79.3449 133.277 79.8118 131.502 79.1444C131.026 78.9651 130.574 78.7245 130.107 78.5214C129.488 78.2517 129.478 78.2474 129.039 78.7424C128.002 79.9099 126.976 81.0869 125.943 82.2578C125.774 82.4498 125.598 82.6367 125.416 82.816C124.585 83.6327 124.257 83.6541 123.43 82.816C121.754 81.1176 120.104 79.3944 118.445 77.679C117.3 76.4944 116.154 75.3115 115.02 74.1158C114.374 73.4339 114.422 73.1155 115.158 72.5284C116.667 71.3233 118.157 70.0934 119.676 68.9011C120.054 68.6041 120.116 68.3438 119.964 67.8898C119.52 66.5729 119.126 65.2389 118.738 63.9041C118.53 63.1872 118.509 63.1309 117.744 63.1821C116.894 63.2393 116.046 63.3502 115.196 63.4031C114.233 63.4629 113.267 63.5107 112.301 63.5124C111.463 63.5141 111.327 63.4142 111.357 62.5906C111.401 61.3454 111.517 60.1002 111.665 58.8627C111.909 56.8341 112.199 54.8113 112.476 52.7869C112.606 51.843 112.841 51.7047 113.797 51.977C115.383 52.4276 116.969 52.8774 118.555 53.3255C118.719 53.3716 118.89 53.3955 119.053 53.4441C119.324 53.5243 119.481 53.4142 119.592 53.1727C120.201 51.8601 120.803 50.5432 121.436 49.2425C121.61 48.8849 121.499 48.6613 121.264 48.4147C120.421 47.5322 119.583 46.6463 118.751 45.7544C117.976 44.924 117.204 44.0893 116.444 43.2452C116.082 42.8441 116.113 42.7033 116.587 42.3815C117.879 41.5042 119.174 40.6336 120.466 39.7563C122.015 38.7048 123.553 37.6389 125.111 36.5993C126.08 35.9533 127.069 35.3388 128.058 34.7243C128.533 34.429 128.668 34.4478 128.934 34.9479C129.586 36.1769 130.204 37.4246 130.834 38.6656C131.091 39.1725 131.348 39.6795 131.594 40.1924C131.741 40.5022 131.949 40.6021 132.282 40.4826C133.68 39.9825 135.129 39.7119 136.599 39.5361C136.895 39.5011 137.146 39.4345 137.237 39.0863C137.656 37.4767 138.481 36.0412 139.179 34.5502C139.243 34.4145 139.237 34.2455 139.262 34.0927C139.099 34.1047 138.927 34.0859 138.776 34.1337C137.35 34.5911 135.891 34.7371 134.401 34.6304C133.924 34.5963 133.513 34.4597 133.226 34.0483C132.816 33.4603 132.815 32.6888 133.319 32.1665C133.849 31.6168 134.402 31.0706 135.02 30.6302C136.918 29.2809 138.853 27.9836 140.769 26.6616C140.873 26.5899 140.944 26.4722 141.031 26.3757C140.9 26.3441 140.77 26.2946 140.638 26.2827C139.253 26.1658 137.859 26.1086 136.484 25.9183C135.797 25.8227 135.113 25.5496 134.483 25.2423C133.644 24.8327 133.5 23.7419 134.181 23.0942C134.544 22.7485 134.981 22.4336 135.442 22.245C136.782 21.6971 138.13 21.1534 139.513 20.7284C142.634 19.7699 145.777 18.8832 148.912 17.9717C149.212 17.8846 149.53 17.8565 149.821 17.7498C150.483 17.5066 151.21 17.3401 151.773 16.9467C153.349 15.8457 155.09 15.0733 156.823 14.295C158.505 13.5388 160.224 12.8467 161.968 12.2467C164.032 11.5366 166.139 10.9511 168.231 10.323C168.587 10.2163 168.901 10.1233 169.156 9.78956C169.386 9.48658 169.745 9.25529 170.089 9.06924C171.839 8.1236 173.579 7.15492 175.368 6.28695C176.925 5.53164 178.523 4.84972 180.138 4.22414C182.574 3.28106 185.014 2.33287 187.502 1.54427C189.446 0.928071 191.468 0.561935 193.45 0.0609535C194.045 -0.0892557 194.536 0.0293761 194.886 0.514996C195.266 1.04243 195.65 1.58097 195.928 2.16473C197.222 4.88642 198.269 7.70626 199.225 10.5619C200.227 13.5559 201.039 16.6027 201.668 19.6923C202.064 21.6373 202.346 23.6071 202.616 25.5752C202.797 26.8946 202.869 28.2286 202.988 29.5566C202.998 29.6692 203 29.7836 202.998 29.8971C202.983 30.6652 202.87 30.783 202.142 30.8965C201.61 30.9793 201.077 31.0689 200.556 31.2003C197.887 31.8754 195.222 32.5659 192.555 33.2495C189.971 33.9118 187.389 34.5758 184.804 35.2321C183.731 35.5043 182.653 35.7553 181.578 36.0207C180.994 36.1649 180.892 36.1043 180.771 35.5112C180.64 34.8685 180.65 34.8916 180.034 35.1595C178.602 35.7809 177.16 36.3826 175.719 36.9834C174.591 37.4528 173.467 37.9324 172.326 38.3669C170.178 39.1853 168.019 39.9765 165.864 40.777C164.88 41.1423 163.902 41.5289 162.907 41.8609C160.396 42.6999 157.842 43.3707 155.202 43.6404C154.531 43.7087 153.839 43.6549 153.163 43.5926C152.725 43.5525 152.537 43.7795 152.384 44.103C152.236 44.417 152.482 44.5681 152.673 44.7328C154.17 46.0207 155.409 47.5262 156.463 49.1896C156.818 49.7503 156.894 49.799 157.494 49.5113C158.62 48.972 159.725 48.3856 160.84 47.8223C162.403 47.032 162.538 47.0619 162.993 48.7313C163.545 50.7583 164.019 52.8066 164.529 54.8455C165.108 57.1609 165.69 59.4755 166.267 61.7909C166.501 62.7298 166.337 63.0123 165.393 63.0967C163.697 63.2487 161.998 63.3681 160.297 63.4697C159.387 63.5235 159.424 63.5056 159.157 64.3744C158.724 65.7834 158.245 67.1788 157.762 68.5725C157.56 69.1563 157.553 69.1367 158.084 69.5301C159.499 70.5773 160.907 71.6348 162.3 72.711C162.959 73.2197 162.976 73.445 162.4 74.0688C161.765 74.7576 161.098 75.4182 160.422 76.0685C158.212 78.1962 155.991 80.3136 153.774 82.4345C153.713 82.4934 153.652 82.554 153.586 82.6077C153.092 83.0054 152.816 82.9739 152.471 82.4609C151.6 81.1662 150.734 79.8681 149.867 78.5691C149.359 77.8053 149.327 77.8241 148.515 78.2022C147.615 78.6221 146.681 78.9694 145.766 79.356C145.123 79.6283 145.143 79.6309 145.254 80.2948C145.605 82.3944 145.947 84.4956 146.278 86.5985C146.372 87.2019 146.226 87.376 145.603 87.3837C144.21 87.4008 142.816 87.3888 141.423 87.3888C141.427 87.3974 141.427 87.4067 141.427 87.4153ZM145.1 24.7473C145.043 24.8036 144.985 24.8608 144.929 24.9172C144.732 25.0221 144.52 25.1075 144.339 25.2364C143.718 25.6819 143.117 26.1564 142.491 26.5951C140.914 27.6986 139.336 28.7987 137.743 29.8766C137.268 30.1975 137.057 30.527 137.198 31.1415C137.362 31.8584 136.883 32.5437 136.185 32.8006C135.642 33.0003 135.09 33.0993 134.523 32.9004C134.275 32.8142 134.071 32.8458 133.968 33.1164C133.856 33.4117 133.981 33.654 134.252 33.7283C134.628 33.8307 135.041 33.9459 135.411 33.8862C136.808 33.6617 138.213 33.462 139.546 32.9371C139.994 32.7605 140.299 32.501 140.548 32.0871C141.543 30.4373 142.575 28.8106 143.584 27.1686C144.042 26.4235 144.476 25.6639 144.921 24.9112C144.979 24.8549 145.036 24.7977 145.092 24.7413L145.1 24.7473ZM150.049 18.6033C149.338 18.7927 148.62 18.9626 147.916 19.1751C145.304 19.9611 142.698 20.7668 140.085 21.5485C139.632 21.6842 139.361 21.8814 139.304 22.4029C139.205 23.3186 138.591 23.7599 137.728 23.957C137.092 24.103 136.543 23.951 136.042 23.5849C135.793 23.4023 135.567 23.2478 135.292 23.4979C135.05 23.7172 134.641 23.9519 134.636 24.1866C134.627 24.5997 135.122 24.6628 135.46 24.7943C135.539 24.825 135.624 24.8438 135.708 24.8557C136.58 24.982 137.449 25.1621 138.324 25.2184C139.683 25.3063 141.048 25.3311 142.41 25.3302C142.688 25.3302 142.993 25.1374 143.238 24.965C143.935 24.4742 144.601 23.9417 145.289 23.4381C146.277 22.7161 147.247 21.9804 148.027 21.022C148.69 20.2069 149.371 19.4055 150.044 18.599L150.049 18.6033ZM150.219 31.5707C148.958 32.5121 147.932 33.6814 146.959 34.9027C146.744 35.1723 146.868 35.279 147.127 35.3994C147.923 35.7689 148.716 36.147 149.498 36.5464C150.507 37.0628 151.505 37.6004 152.507 38.133C152.842 38.3105 153.145 38.4317 153.541 38.2149C155.73 37.0141 157.934 35.8423 160.13 34.6543C160.924 34.225 161.518 33.5713 162.018 32.8415C162.576 32.0273 162.671 31.1747 162.143 30.2795C161.654 29.449 161.025 28.7868 160.153 28.3592C159.361 27.9708 159.249 27.9632 158.741 28.6656C157.169 30.8419 155.317 32.7553 153.299 34.5101C152.525 35.1826 151.682 35.7809 150.652 35.9994C149.532 36.2366 148.797 35.4105 149.167 34.33C149.342 33.8222 149.623 33.3536 149.819 32.8518C149.981 32.4353 150.086 31.9966 150.216 31.5673C150.257 31.5323 150.301 31.4999 150.336 31.4598C150.347 31.4478 150.334 31.4146 150.332 31.3907C150.294 31.4504 150.256 31.511 150.219 31.5707ZM163.483 62.2604C163.484 62.2757 163.485 62.2911 163.486 62.3073C163.912 62.3073 164.339 62.2988 164.764 62.3098C165.328 62.3244 165.333 62.3303 165.192 61.7423C164.348 58.2073 163.506 54.6714 162.653 51.138C162.466 50.3657 162.233 49.6035 162.022 48.8371C161.928 48.4915 161.787 48.3745 161.415 48.5836C160.029 49.362 158.627 50.113 157.226 50.8649C156.533 51.2362 156.227 51.1244 155.889 50.4083C155.781 50.1779 155.712 49.9202 155.566 49.7179C154.318 47.993 152.996 46.3279 151.369 44.9385C151.02 44.6406 150.961 44.3923 151.174 43.9929C151.497 43.3878 151.474 43.3758 150.944 43.0361C150.001 42.4319 149.814 41.4197 150.536 40.5611C150.879 40.1514 151.3 39.8024 151.708 39.4507C152.161 39.0607 152.188 39.0437 151.68 38.7816C150.016 37.9222 148.34 37.0858 146.666 36.2443C146.057 35.9388 145.986 35.9618 145.501 36.4722C144.776 37.2343 144.089 38.0383 143.308 38.7364C142.23 39.6991 141.131 40.6533 139.718 41.1269C139.057 41.348 138.334 41.5793 137.75 41.1654C137.048 40.6678 136.349 40.7233 135.638 40.8974C134.427 41.1935 133.233 41.5605 132.039 41.9232C131.462 42.0982 131.285 42.0581 131.025 41.5084C130.881 41.2012 130.791 40.8683 130.646 40.5611C130.101 39.4072 129.511 38.273 128.999 37.1046C128.357 35.6383 128.279 35.6272 126.994 36.5507C125.289 37.7763 123.545 38.9472 121.807 40.1275C120.562 40.9733 119.299 41.7918 118.049 42.6316C117.648 42.9013 117.638 43.0114 117.95 43.3681C118.194 43.6455 118.459 43.9033 118.713 44.1712C119.904 45.4292 121.078 46.7052 122.293 47.9393C122.828 48.4829 122.953 49.0266 122.573 49.6846C122.516 49.7827 122.476 49.8911 122.417 49.9876C121.61 51.3019 121.003 52.7084 120.487 54.1576C120.303 54.6739 120.064 54.8173 119.513 54.7644C119.232 54.7371 118.95 54.6714 118.682 54.5835C117.224 54.1072 115.768 53.6276 114.317 53.13C113.65 52.9013 113.512 52.938 113.401 53.6395C113.301 54.2822 113.289 54.9385 113.218 55.5863C112.993 57.6474 112.754 59.7059 112.53 61.767C112.459 62.4208 112.516 62.4729 113.142 62.4217C113.312 62.408 113.479 62.3645 113.649 62.3508C115.347 62.216 117.045 62.0606 118.746 61.9616C119.592 61.9121 119.757 62.0589 119.88 62.8791C120.147 64.662 120.627 66.3766 121.359 68.0246C121.641 68.6571 121.572 68.9028 121.042 69.3731C120.682 69.6931 120.286 69.9739 119.901 70.2633C118.674 71.1824 117.443 72.0956 116.218 73.0165C115.803 73.328 115.801 73.433 116.152 73.8196C116.209 73.8828 116.278 73.9348 116.338 73.9937C117.837 75.4677 119.337 76.939 120.833 78.4155C121.986 79.5523 123.125 80.702 124.283 81.8319C124.69 82.2296 124.712 82.2126 125.075 81.785C126.251 80.3981 127.425 79.0095 128.601 77.6218C129.16 76.9621 129.452 76.9109 130.214 77.3197C130.612 77.5339 131.004 77.7677 131.421 77.9376C132.131 78.2269 132.86 78.4676 133.578 78.739C134.319 79.0189 134.384 79.1376 134.298 79.9466C134.213 80.7361 134.132 81.5264 134.048 82.3158C133.941 83.3323 133.832 84.3488 133.722 85.3652C133.653 86.0036 133.741 86.1146 134.379 86.1564C134.548 86.1675 134.72 86.1649 134.891 86.1684C137.076 86.2068 139.262 86.2392 141.447 86.287C142.439 86.3083 143.43 86.3655 144.422 86.3971C145.011 86.4159 145.042 86.374 144.96 85.7706C144.682 83.7172 144.417 81.6621 144.116 79.6129C144.045 79.129 144.185 78.8568 144.625 78.6869C145.233 78.4531 145.847 78.2269 146.436 77.9495C147.333 77.5271 148.222 77.0799 149.096 76.6087C149.406 76.4415 149.632 76.4841 149.858 76.7069C150 76.846 150.144 76.9868 150.26 77.1473C150.823 77.9316 151.38 78.7202 151.934 79.5105C152.277 79.9987 152.603 80.4988 152.955 80.9793C153.227 81.3497 153.361 81.3548 153.721 81.0647C153.809 80.9938 153.883 80.9051 153.966 80.8274C155.275 79.607 156.586 78.3874 157.894 77.1661C159.014 76.1206 160.14 75.0819 161.246 74.0228C161.706 73.5832 161.696 73.4697 161.217 73.0822C160.865 72.7963 160.47 72.5642 160.109 72.2885C158.958 71.4112 157.804 70.5372 156.669 69.6385C156.15 69.228 156.107 69.0377 156.35 68.5529C157.171 66.916 157.742 65.198 158.09 63.4014C158.22 62.7315 158.306 62.6453 158.979 62.5898C160.48 62.466 161.982 62.3687 163.483 62.2604ZM157.245 26.8844C159.862 26.9552 161.37 27.8531 162.629 29.3577C163.902 30.8794 163.778 32.8612 162.381 34.1695C161.865 34.6526 161.321 35.1348 160.712 35.4822C158.764 36.5934 156.762 37.609 154.817 38.7253C153.762 39.3304 152.769 40.049 151.772 40.7506C151.529 40.9213 151.334 41.2012 151.198 41.4726C151.029 41.8106 151.2 42.1759 151.519 42.3329C151.893 42.5164 152.025 42.2475 152.168 41.9924C152.224 41.8934 152.28 41.7935 152.347 41.7022C153.367 40.2948 155.322 40.3324 156.29 41.7764C156.734 42.4379 156.737 42.449 157.503 42.2595C160.013 41.6382 162.515 40.9861 164.928 40.0413C166.119 39.5762 167.315 39.1247 168.503 38.6528C171.276 37.5518 174.052 36.4602 176.811 35.3285C177.834 34.9086 178.829 34.4102 179.813 33.9024C180.408 33.5952 180.454 33.4535 180.275 32.8006C180.006 31.8148 179.71 30.8351 179.4 29.8613C178.288 26.3621 176.832 23.0028 175.248 19.6948C174.351 17.8206 173.284 16.0446 172.168 14.2975C171.589 13.3895 170.924 12.5351 170.28 11.6689C170.02 11.3181 169.726 11.0791 169.199 11.1995C166.816 11.7483 164.432 12.3056 162.156 13.2051C159.859 14.1132 157.599 15.1169 155.34 16.118C154.486 16.4961 153.677 16.9757 152.855 17.4221C151.332 18.2491 150.405 19.6837 149.335 20.9588C148.497 21.9574 147.753 23.0395 147.006 24.1106C145.656 26.0429 144.306 27.976 143.012 29.9458C142.298 31.0331 141.69 32.1912 141.048 33.3255C140.629 34.0646 140.239 34.8199 139.826 35.5624C139.679 35.8278 139.721 36.0309 139.925 36.2494C140.116 36.4543 140.348 36.6744 140.416 36.9279C140.689 37.9444 140.004 39.0914 138.969 39.4209C138.807 39.4721 138.632 39.4772 138.468 39.5199C138.092 39.618 138.107 39.9227 138.148 40.2061C138.188 40.4894 138.423 40.5816 138.66 40.5176C139.097 40.4015 139.56 40.3017 139.942 40.0772C140.699 39.6325 141.444 39.1529 142.129 38.6058C144.296 36.8759 145.911 34.615 147.801 32.6171C149.582 30.7335 151.412 28.902 153.853 27.8625C155.139 27.3154 156.465 26.9083 157.245 26.8844ZM201.858 28.9318C201.764 27.9999 201.708 26.8605 201.524 25.7433C201.139 23.4185 200.786 21.0808 200.237 18.7936C199.488 15.6742 198.609 12.5846 197.706 9.50536C196.921 6.8272 195.729 4.30522 194.497 1.80713C194.213 1.23019 194.16 1.21995 193.488 1.33517C191.214 1.7235 189.002 2.36701 186.819 3.08477C184.688 3.78546 182.588 4.58686 180.491 5.38655C179.272 5.85169 178.077 6.38596 176.884 6.91852C176.365 7.1498 176.383 7.18223 176.647 7.66444C177.369 8.98474 178.117 10.2914 178.801 11.6313C179.744 13.4774 180.658 15.3379 181.545 17.2113C182.336 18.8798 183.131 20.55 183.821 22.2612C185.192 25.6588 186.499 29.0829 187.365 32.6529C187.466 33.0677 187.655 33.2205 188.089 33.1121C189.74 32.6999 191.398 32.3124 193.05 31.9044C194.456 31.5571 195.857 31.185 197.264 30.8393C198.561 30.521 199.863 30.23 201.16 29.9133C201.77 29.764 201.864 29.6402 201.858 28.9318ZM186.407 33.0558C186.392 32.9815 186.381 32.8671 186.348 32.7588C185.95 31.4274 185.617 30.0704 185.133 28.7705C184.034 25.8176 182.949 22.8543 181.693 19.9679C180.382 16.9552 178.896 14.0176 177.447 11.0663C176.936 10.0243 176.306 9.04022 175.732 8.02887C175.599 7.79417 175.469 7.57568 175.14 7.73528C173.736 8.41719 172.32 9.07436 170.932 9.787C170.389 10.0652 170.407 10.1267 170.74 10.6114C171.477 11.6885 172.277 12.7263 172.956 13.8392C173.915 15.413 174.79 17.038 175.695 18.6459C177.846 22.4711 179.574 26.4773 180.799 30.6934C181.116 31.7833 181.349 32.897 181.64 33.9954C181.795 34.5818 181.913 34.6372 182.492 34.4896C183.069 34.3419 183.642 34.1789 184.219 34.0321C184.797 33.8845 185.378 33.7488 185.958 33.608C186.227 33.5405 186.44 33.4245 186.407 33.0558ZM158.025 28.0519C157.923 27.7139 157.663 27.8138 157.469 27.8462C155.805 28.1313 154.257 28.7483 152.786 29.5617C152.574 29.6786 152.399 29.8963 152.261 30.1036C152.01 30.4809 151.811 30.8914 151.57 31.2754C151.316 31.6774 151.282 31.9941 151.636 32.408C152.127 32.9832 152.002 33.6575 151.404 34.1115C151.136 34.3138 150.81 34.4367 150.525 34.6193C150.386 34.7089 150.283 34.8557 150.163 34.9769C150.345 35 150.568 35.1007 150.701 35.0307C151.201 34.7712 151.696 34.4879 152.149 34.155C154.296 32.5812 155.945 30.5116 157.696 28.5444C157.827 28.3993 157.916 28.2175 158.025 28.0519ZM154.175 42.8049C154.391 42.7741 154.784 42.7383 155.164 42.647C155.247 42.6265 155.364 42.3747 155.328 42.2851C155.038 41.5682 154.133 41.3224 153.587 41.8328C153.379 42.0274 153.296 42.3551 153.157 42.6222C153.41 42.6828 153.662 42.7443 153.914 42.804C153.94 42.81 153.97 42.8049 154.175 42.8049ZM139.642 37.2881C139.579 37.1712 139.505 37.032 139.43 36.8938C139.312 36.9919 139.174 37.0747 139.08 37.1916C138.992 37.2983 138.913 37.4366 138.894 37.5706C138.856 37.8505 138.541 38.1091 138.817 38.4164C139.048 38.1927 139.295 37.9811 139.505 37.7379C139.586 37.6397 139.588 37.4724 139.642 37.2881ZM135.259 32.0214C135.759 32.0222 136.222 31.7602 136.325 31.4171C136.352 31.3267 136.312 31.2012 136.264 31.1133C136.247 31.0817 136.094 31.08 136.04 31.1176C135.742 31.3267 135.452 31.5494 135.166 31.7739C135.129 31.8029 135.093 31.8959 135.109 31.9155C135.154 31.9693 135.228 32.0009 135.259 32.0214ZM137.294 22.9721C137.543 22.8612 137.857 22.7434 138.144 22.5821C138.237 22.53 138.266 22.3619 138.324 22.2475C138.218 22.2433 138.103 22.21 138.008 22.2407C137.714 22.338 137.421 22.4472 137.14 22.5778C137.037 22.6256 136.969 22.7468 136.884 22.8347C136.99 22.8714 137.096 22.9064 137.294 22.9721ZM150.537 33.6575C150.719 33.4159 150.81 33.3263 150.859 33.2171C150.884 33.1599 150.833 33.0686 150.815 32.9926C150.723 33.0617 150.606 33.1147 150.546 33.206C150.503 33.27 150.537 33.3852 150.537 33.6575Z" fill="#462683"/>
<path d="M85.5578 94.9055C84.2503 94.9055 82.9419 94.9208 81.6353 94.9003C80.7187 94.8858 80.5471 94.6358 80.7127 93.7328C80.903 92.6993 81.0669 91.6606 81.2658 90.6288C81.3443 90.2208 81.2521 89.9921 80.8228 89.876C80.3594 89.7506 79.9096 89.5688 79.4658 89.3827C79.034 89.2009 78.7071 89.2948 78.4118 89.6498C77.8664 90.3053 77.3014 90.9437 76.7501 91.5932C75.8062 92.7061 75.4323 92.73 74.4304 91.7024C73.0017 90.2387 71.5884 88.7597 70.1537 87.3028C69.6561 86.7976 69.1022 86.3487 68.5919 85.8545C68.1335 85.4099 68.1096 85.2161 68.5876 84.8082C69.1901 84.2935 69.8609 83.8608 70.4891 83.3752C70.7281 83.1909 70.9295 82.957 71.148 82.7462C70.9158 82.6045 70.688 82.456 70.4524 82.322C68.5987 81.2731 66.6861 80.3173 64.9015 79.1625C61.1096 76.7088 57.4371 74.0793 53.9644 71.1852C52.6347 70.0774 51.3724 68.8868 50.0956 67.7168C49.4683 67.1424 48.8786 66.5279 48.2709 65.9322C47.8527 65.5234 47.8254 65.5234 47.3739 65.9117C46.7356 66.4613 46.704 66.4937 46.0622 65.8707C44.5174 64.3695 42.9632 62.8742 41.4919 61.303C40.0367 59.7497 38.6396 58.1375 37.2903 56.4912C36.0152 54.9345 34.8127 53.3154 33.6221 51.6913C32.9846 50.8216 32.4273 49.8931 31.8554 48.9773C31.5072 48.4191 31.5567 48.2322 32.004 47.7893C32.7499 47.0502 33.4634 46.277 34.2298 45.56C36.0733 43.8343 37.9005 42.0873 39.8097 40.4367C41.4629 39.008 43.1817 37.6468 44.9441 36.3546C46.5922 35.147 48.3273 34.0554 50.0419 32.9408C51.113 32.2443 52.1943 31.559 53.3123 30.9437C54.4048 30.342 55.5458 29.8282 56.6733 29.2914C57.5173 28.8894 58.3734 28.5113 59.2243 28.1221C59.6621 27.9224 59.8225 27.96 60.012 28.4225C60.3884 29.3417 60.7238 30.278 61.0874 31.2031C62.2319 34.116 63.629 36.9111 65.1208 39.6567C65.9862 41.2492 66.9711 42.7778 67.9116 44.3294C68.2052 44.8133 68.5278 45.2793 68.8376 45.7538C69.1432 46.2206 69.1218 46.341 68.6678 46.6525C68.3879 46.8445 68.0994 47.0254 67.8229 47.2234C67.6001 47.383 67.5737 47.5691 67.7435 47.8046C68.3085 48.5856 68.8069 49.4211 69.4265 50.1551C71.3391 52.4193 73.5104 54.4207 75.8676 56.2147C77.5856 57.5213 79.3045 58.8331 81.084 60.0527C82.1346 60.773 83.2987 61.3277 84.4227 61.9371C84.7931 62.1377 84.9211 62.06 84.9886 61.6324C85.1746 60.4546 85.3445 59.2752 85.522 58.0965C85.5476 57.9284 85.5646 57.756 85.6193 57.5973C85.7934 57.0886 85.9914 56.9683 86.5205 57.1372C87.8186 57.5512 89.1108 57.9856 90.4004 58.4268C91.9315 58.95 93.4583 59.4885 94.986 60.0219C95.4691 60.1901 95.9547 60.3514 96.4309 60.5357C96.9908 60.7525 97.0326 60.8865 96.7655 61.4216C96.2585 62.4389 95.7652 63.4631 95.2429 64.4727C95.0637 64.8193 95.0543 65.0633 95.3436 65.3783C96.0708 66.172 96.7774 66.9896 97.4363 67.8405C97.7478 68.2433 98.0226 68.2877 98.4485 68.0769C99.2106 67.6997 99.9898 67.3549 100.764 67.0024C100.944 66.9205 101.133 66.8556 101.323 66.7976C101.65 66.6977 101.879 66.795 101.972 67.1441C102.023 67.3361 102.087 67.5247 102.14 67.7168C102.866 70.3727 103.592 73.0287 104.317 75.6847C104.43 76.096 104.561 76.504 104.639 76.9222C104.772 77.6425 104.542 77.931 103.814 77.9873C102.822 78.0633 101.828 78.1153 100.836 78.1921C99.8704 78.2672 99.8328 78.3398 99.599 79.2581C99.4104 79.9972 99.1748 80.7295 98.8983 81.4404C98.7421 81.8424 98.8035 82.0856 99.1739 82.2759C99.8311 82.6131 100.49 82.9476 101.141 83.2958C101.541 83.51 101.947 83.7226 102.317 83.982C102.847 84.3541 102.873 84.6076 102.436 85.0881C101.518 86.0977 100.59 87.0963 99.6544 88.0897C98.7003 89.1028 97.7273 90.0988 96.7749 91.1135C96.0989 91.8339 95.7695 91.8424 95.1482 91.0529C94.6037 90.3608 94.1018 89.6362 93.5727 88.9321C93.14 88.3569 93.0836 88.3586 92.4563 88.676C91.899 88.9577 91.3255 89.2052 90.7656 89.4817C90.1554 89.7838 90.1255 89.8675 90.1972 90.5477C90.3107 91.6205 90.4396 92.6924 90.5096 93.7687C90.5728 94.7373 90.3782 94.92 89.3984 94.9277C88.1191 94.9379 86.8397 94.9302 85.5604 94.9302C85.5578 94.9191 85.5578 94.9123 85.5578 94.9055ZM87.9987 94.1459C87.9987 94.1399 87.9996 94.1348 87.9996 94.1288C88.3973 94.1288 88.7941 94.1271 89.1919 94.1297C89.4743 94.1314 89.6169 93.9863 89.6109 93.7115C89.6024 93.3709 89.5904 93.0296 89.5563 92.6907C89.4598 91.7314 89.3438 90.7739 89.2507 89.8137C89.1765 89.0388 89.2089 89.0174 89.96 88.6778C90.6316 88.3739 91.2803 88.0172 91.963 87.7424C92.3975 87.5674 92.7201 86.9333 93.2099 87.1851C93.6051 87.3882 93.8483 87.8892 94.1539 88.2621C94.2256 88.3492 94.2717 88.4576 94.3391 88.548C94.7624 89.1181 95.1951 89.6814 95.6107 90.2567C95.8326 90.5639 96.0443 90.5887 96.2935 90.301C96.3678 90.2148 96.4531 90.1389 96.5308 90.0561C97.758 88.7546 98.987 87.4548 100.212 86.1507C100.523 85.8195 100.821 85.4764 101.129 85.1419C101.384 84.8662 101.343 84.6409 101.026 84.4523C100.854 84.3507 100.685 84.2474 100.515 84.1433C99.6195 83.5928 98.7207 83.0466 97.8297 82.4902C97.2041 82.0993 97.2519 82.0993 97.5438 81.3517C97.904 80.4274 98.2146 79.4792 98.4801 78.5233C98.7532 77.5401 98.8334 77.436 99.855 77.3583C100.902 77.2781 101.95 77.2004 102.996 77.1014C103.537 77.0502 103.596 76.9794 103.478 76.4613C103.277 75.5754 103.034 74.6989 102.816 73.8173C102.379 72.0523 101.955 70.2848 101.508 68.5224C101.326 67.8029 101.245 67.7714 100.574 68.065C99.6911 68.4516 98.8155 68.857 97.9373 69.2572C97.3876 69.5082 97.2904 69.4817 96.9908 69.1011C96.2909 68.2126 95.6048 67.3105 94.8614 66.4587C93.8023 65.246 93.7895 65.2665 94.52 63.7473C94.8401 63.0816 95.1106 62.392 95.4307 61.7272C95.6116 61.3508 95.5092 61.14 95.1371 61.0102C94.9493 60.9445 94.7684 60.86 94.5806 60.7943C93.5889 60.447 92.5972 60.0996 91.6029 59.7591C90.1511 59.2624 88.7011 58.7614 87.2434 58.2834C86.6084 58.0752 86.4932 58.1605 86.4002 58.8066C86.2594 59.7907 86.1373 60.7773 85.9922 61.7604C85.8523 62.7069 85.8565 62.6856 86.6998 63.2054C87.1794 63.5015 87.6838 63.8096 88.0516 64.2244C88.9563 65.2434 88.4801 66.5339 87.147 66.7942C86.8696 66.8479 86.582 66.894 86.302 66.8846C85.283 66.8488 84.2597 66.8351 83.2466 66.7276C80.9559 66.4835 78.6781 66.1524 76.471 65.4559C74.8187 64.9345 73.1656 64.4173 71.5184 63.8804C71.1941 63.7746 70.8629 63.6833 70.7076 64.0298C70.6513 64.1561 70.8851 64.4557 71.0413 64.6272C71.8649 65.5302 72.7149 66.4092 73.5385 67.3122C74.1854 68.0214 74.1726 68.0991 73.7084 68.9406C73.3243 69.6353 72.8754 70.3113 72.6108 71.0512C72.138 72.3766 72.1312 72.2776 70.8433 71.9926C70.7605 71.9738 70.6794 71.9439 70.5983 71.9192C69.8388 71.6836 69.0835 71.4353 68.3196 71.2159C67.8647 71.0854 67.7597 71.1673 67.6838 71.6196C67.6693 71.7033 67.6693 71.7895 67.6624 71.8748C67.5532 73.3462 67.4491 74.8184 67.3347 76.2898C67.2459 77.4334 67.2937 77.494 68.469 77.4565C68.9503 77.4411 69.4308 77.3745 69.9122 77.3464C70.3944 77.3182 70.8774 77.3071 71.3605 77.2917C71.7368 77.2798 71.9152 77.4317 71.9425 77.8405C72.0228 79.0464 72.4256 80.1739 72.8976 81.2723C73.3644 82.3604 73.3823 82.3545 72.5118 83.1294C72.342 83.2805 72.1585 83.4153 71.9792 83.5561C71.3306 84.0639 70.6922 84.5871 70.0265 85.0719C69.6868 85.3194 69.6544 85.5404 69.9437 85.8272C70.0248 85.9074 70.1033 85.9893 70.1836 86.0704C71.7411 87.6459 73.2978 89.2231 74.8563 90.7978C75.3504 91.297 75.388 91.3013 75.871 90.8157C76.6528 90.0305 77.4448 89.2538 78.1959 88.4388C78.6089 87.9907 79.0382 87.9361 79.5708 88.1461C80.3628 88.4576 81.1591 88.7614 81.963 89.0405C82.3223 89.1651 82.4691 89.3827 82.4248 89.7429C82.3659 90.2225 82.3061 90.7013 82.2319 91.1784C82.1141 91.9363 81.9852 92.6924 81.8581 93.4486C81.7992 93.8011 81.9349 93.9974 82.3001 94.0136C82.499 94.0221 82.6979 94.0221 82.8967 94.0264C84.6002 94.0631 86.2995 94.1041 87.9987 94.1459ZM68.3597 78.3492C68.3589 78.3381 68.358 78.327 68.3571 78.315C68.1583 78.3261 67.9594 78.3415 67.7606 78.3466C67.5336 78.3526 67.3048 78.3611 67.0787 78.3475C66.3344 78.3048 66.1168 78.0752 66.1817 77.3267C66.3703 75.1478 66.5717 72.9706 66.7791 70.7935C66.832 70.237 67.0787 70.0271 67.63 70.1261C68.1865 70.2259 68.7318 70.3958 69.2755 70.5588C69.8464 70.7303 70.4097 70.93 70.9756 71.1169C71.3332 71.2356 71.5491 71.1391 71.6976 70.7619C71.9775 70.0501 72.2814 69.3434 72.6313 68.6632C73.0042 67.9378 73.0136 67.913 72.4358 67.383C72.1346 67.1057 71.8 67.057 71.416 67.0647C70.4823 67.0843 69.6134 66.789 68.8103 66.358C66.3797 65.0557 65.1225 62.9041 64.5405 60.2916C64.4978 60.0996 64.4509 59.8769 64.5089 59.7027C64.5712 59.5158 64.7359 59.2666 64.8921 59.2368C65.0363 59.2094 65.3 59.4006 65.3837 59.5619C65.5109 59.8052 65.5347 60.1047 65.5902 60.383C65.976 62.3271 67.0753 63.8036 68.6371 64.9541C69.0433 65.2537 69.5307 65.4517 69.9975 65.6573C70.181 65.7384 70.4123 65.712 70.6214 65.735C70.5181 65.5754 70.4311 65.4013 70.3073 65.2596C70.1025 65.0249 69.8208 64.8414 69.6698 64.5794C69.5426 64.3592 69.4504 64.0255 69.5238 63.8002C69.7747 63.0278 71.0421 62.4424 71.8282 62.695C72.4495 62.8947 73.0563 63.1422 73.6793 63.3368C76.0946 64.0895 78.5236 64.7894 81.0225 65.217C82.8139 65.5233 84.5943 65.9142 86.4232 65.9159C86.7313 65.9159 87.0497 65.8852 87.3441 65.8024C87.467 65.7674 87.607 65.5635 87.6181 65.4261C87.6292 65.2887 87.5182 65.0514 87.409 65.0155C87.2494 64.9635 87.0352 65.0266 86.8576 65.0838C85.947 65.3774 85.0756 65.2033 84.5516 64.4847C84.2981 64.1373 84.1769 63.6654 84.0933 63.2301C84.0267 62.8836 83.8927 62.6847 83.5846 62.5209C82.6825 62.0404 81.7795 61.5548 80.9107 61.0179C77.7401 59.0592 74.7069 56.9264 71.9664 54.372C70.0846 52.6182 68.3153 50.7986 66.9524 48.6078C66.6596 48.1366 66.5444 48.1093 66.075 48.4473C65.5911 48.7964 65.1439 49.1958 64.6668 49.5542C61.5073 51.926 58.5227 54.5052 55.6764 57.2414C54.0804 58.7759 52.5229 60.3514 50.9696 61.9286C50.233 62.6771 49.5323 63.4622 48.8393 64.2525C48.4527 64.6929 48.4621 64.7962 48.8547 65.1794C49.971 66.271 51.0524 67.4052 52.2336 68.4226C55.3965 71.146 58.6243 73.79 62.0654 76.166C64.0523 77.5384 66.0383 78.9065 68.1515 80.0808C69.2191 80.674 70.286 81.2689 71.3596 81.8509C71.4646 81.9081 71.6157 81.8782 71.7454 81.8885C71.7437 81.8082 71.7599 81.7229 71.7386 81.6487C71.4595 80.6655 71.1599 79.6882 70.8996 78.6999C70.7989 78.3185 70.5924 78.1938 70.2262 78.222C69.6058 78.2724 68.9827 78.3082 68.3597 78.3492ZM41.5055 59.853C41.672 59.7258 41.8179 59.6379 41.9357 59.5218C42.9445 58.5258 43.9541 57.5315 44.9518 56.5245C47.6974 53.7567 50.705 51.2851 53.7237 48.8314C55.5953 47.3096 57.5694 45.9151 59.5025 44.4702C60.1793 43.9649 60.1631 43.982 59.6834 43.2787C58.9477 42.1991 58.2419 41.0999 57.5404 39.998C57.3099 39.6353 57.3936 39.4535 57.7623 39.2675C58.1369 39.0789 58.2684 39.34 58.4194 39.5901C59.0945 40.709 59.7654 41.8296 60.4507 42.9425C60.7963 43.5049 60.897 43.5126 61.4552 43.1507C62.4085 42.5337 63.3627 41.9175 64.3245 41.3115C64.648 41.1084 64.7342 40.8814 64.5413 40.5323C64.0736 39.6882 63.5931 38.8484 63.1724 37.9805C62.1832 35.9364 61.2154 33.883 60.2638 31.821C59.9668 31.1775 59.7508 30.4965 59.4982 29.8333C59.389 29.5483 59.2354 29.2726 58.8786 29.4382C57.5148 30.0714 56.162 30.7277 54.805 31.3764C54.3954 31.5718 54.4167 31.8543 54.5951 32.2196C55.0824 33.213 55.5322 34.2252 56.0212 35.2178C56.1646 35.508 56.238 35.7341 55.935 35.956C55.5877 36.2104 55.3495 36.1745 55.1302 35.7324C54.6386 34.7407 54.1829 33.7302 53.7083 32.73C53.431 32.1462 53.4182 32.1317 52.8387 32.4731C51.8119 33.0782 50.7784 33.6747 49.7824 34.3268C45.6201 37.0536 41.5883 39.9562 37.9705 43.3914C36.3856 44.896 34.8374 46.44 33.2952 47.9881C32.7584 48.5267 32.761 48.6086 33.1706 49.235C33.9635 50.447 34.7376 51.6759 35.6098 52.829C36.9609 54.617 38.3819 56.3521 39.7875 58.0991C40.1963 58.6069 40.6478 59.0823 41.0916 59.5611C41.2009 59.6806 41.3579 59.7514 41.5055 59.853ZM67.7683 45.8485C67.6215 45.6095 67.508 45.4158 67.3859 45.2263C67.0949 44.7732 66.7953 44.3259 66.5077 43.871C66.2192 43.4144 65.9598 42.9399 65.6551 42.4953C65.2966 41.9721 65.2096 41.9465 64.7001 42.2819C62.7567 43.5621 60.8006 44.8261 58.8931 46.16C57.1734 47.3626 55.4485 48.5719 53.8372 49.9118C51.0012 52.2717 48.2359 54.7177 45.4716 57.1611C44.4321 58.0803 43.4711 59.0883 42.4853 60.068C42.0808 60.47 42.0543 60.715 42.4128 61.0905C43.53 62.2597 44.6471 63.4307 45.8053 64.5589C46.5939 65.3262 46.6502 65.2682 47.3995 64.4318C48.8001 62.8682 50.2015 61.3038 51.6609 59.7949C52.9411 58.4703 54.2767 57.1961 55.6312 55.9475C57.4465 54.2739 59.2703 52.6079 61.1514 51.0094C63.1408 49.3195 65.1806 47.6843 67.3961 46.288C67.5472 46.1916 67.6394 46.0047 67.7683 45.8485ZM85.2181 63.3905C85.2036 63.4964 85.155 63.644 85.1857 63.6628C85.458 63.8301 85.743 63.9777 86.0298 64.1203C86.0579 64.1339 86.1219 64.0759 86.1689 64.0511C85.953 63.8591 85.7413 63.662 85.5177 63.4793C85.4605 63.4324 85.3641 63.4315 85.2181 63.3905Z" fill="#462683"/>
<path d="M196.576 123.116C196.59 123.286 196.614 123.456 196.615 123.626C196.618 124.181 196.459 124.365 195.953 124.412C195.455 124.458 195.254 124.301 195.192 123.729C195.104 122.912 195.055 122.091 194.98 121.274C194.707 118.286 193.931 115.411 193.01 112.57C191.85 108.997 190.38 105.557 188.648 102.222C187.097 99.2382 185.321 96.4004 183.244 93.7632C182.176 92.4079 180.967 91.1619 179.808 89.8791C179.344 89.3653 179.347 89.0974 179.861 88.7961C180.139 88.6322 180.343 88.721 180.547 88.9121C181.146 89.4754 181.786 90.0012 182.339 90.6063C184.819 93.3211 186.933 96.3048 188.791 99.4763C190.764 102.842 192.429 106.355 193.747 110.023C194.639 112.507 195.405 115.025 195.866 117.644C196.189 119.463 196.477 121.273 196.576 123.116Z" fill="#462683"/>
<path d="M95.3481 48.1784C95.4642 47.8788 95.5384 47.6646 95.628 47.458C96.7759 44.82 98.1509 42.3014 99.7161 39.8912C100.753 38.2953 101.81 36.707 102.958 35.1912C104.175 33.5859 105.48 32.0437 106.8 30.5211C109.864 26.9903 113.359 23.9076 116.947 20.929C117.953 20.0944 118.952 19.2511 119.97 18.431C120.299 18.1655 120.661 17.9249 121.043 17.7508C121.189 17.6842 121.508 17.7729 121.614 17.9018C121.725 18.0375 121.755 18.3448 121.675 18.5052C121.554 18.7485 121.327 18.9524 121.112 19.1334C120.069 20.0099 119.005 20.8633 117.966 21.745C116.386 23.084 114.781 24.3975 113.259 25.8006C111.527 27.3974 109.81 29.0207 108.204 30.7421C105.759 33.3614 103.54 36.1778 101.621 39.2068C100.255 41.3635 98.9975 43.5893 97.7173 45.7998C97.2206 46.6583 96.7981 47.5604 96.3381 48.4404C96.2109 48.6845 96.0172 48.9081 95.7373 48.7237C95.5563 48.6059 95.465 48.3499 95.3481 48.1784Z" fill="#462683"/>
<path d="M92.1379 33.1257C92.3402 32.6648 92.4605 32.2458 92.6901 31.8976C93.6409 30.4527 94.5797 28.9975 95.6055 27.6064C97.0035 25.7108 98.5133 23.9023 100.179 22.2296C102.042 20.3596 103.893 18.4769 106.054 16.9381C106.26 16.7913 106.491 16.6752 106.715 16.554C106.937 16.4346 107.19 16.4047 107.304 16.659C107.385 16.8391 107.412 17.1139 107.33 17.2786C107.222 17.4928 106.993 17.655 106.796 17.8146C104.08 20.0199 101.552 22.4224 99.2712 25.0733C97.2357 27.4399 95.3068 29.8928 93.6212 32.5274C93.4386 32.8133 93.2107 33.0702 93.0178 33.351C92.8856 33.5439 92.7533 33.788 92.4947 33.6318C92.3342 33.5362 92.2566 33.3032 92.1379 33.1257Z" fill="#462683"/>
<path d="M157.986 125.067C157.916 125.973 157.927 126.894 157.757 127.78C157.435 129.446 157.022 131.094 155.982 132.505C155.614 133.004 155.349 133.578 154.986 134.082C153.248 136.499 150.875 138.031 148.072 138.932C145.022 139.911 141.996 139.831 138.942 138.842C136.838 138.16 134.998 137.111 133.423 135.576C131.958 134.148 130.87 132.48 130.105 130.576C129.337 128.664 129.052 126.667 129.121 124.649C129.176 123.07 129.546 121.508 130.11 120.005C131.235 117.006 133.157 114.643 135.804 112.88C138.156 111.314 140.779 110.541 143.605 110.558C147.057 110.578 150.126 111.739 152.783 113.919C154.823 115.592 156.265 117.697 157.106 120.227C157.63 121.806 157.974 123.396 157.986 125.067ZM143.009 111.933C142.004 111.898 140.343 112.184 138.736 112.832C137.227 113.44 135.877 114.265 134.608 115.301C133.39 116.295 132.545 117.557 131.743 118.83C130.519 120.776 130.152 123.024 130.177 125.282C130.201 127.494 130.822 129.599 131.928 131.532C133.002 133.409 134.443 134.941 136.254 136.144C138.112 137.378 140.103 138.236 142.34 138.363C145.808 138.559 148.958 137.701 151.72 135.486C154.282 133.431 155.944 130.867 156.614 127.646C156.972 125.921 156.966 124.185 156.634 122.485C156.346 121.015 155.703 119.651 154.911 118.353C154.25 117.272 153.465 116.296 152.55 115.461C150.065 113.193 147.113 112.008 143.009 111.933Z" fill="#462683"/>
<path d="M46.6561 94.0057C50.6571 94.021 52.5552 96.8187 52.5595 99.4209C52.5654 103.059 49.5553 105.354 46.493 105.196C43.6263 105.048 41.1393 102.889 41.1726 99.7213C41.2118 96.0523 43.6305 94.1311 46.6561 94.0057ZM51.2246 99.7179C51.3211 97.1404 49.3009 95.011 46.8242 94.9197C44.3765 94.8292 42.2548 97.0269 42.2855 99.4012C42.3222 102.205 44.0146 103.994 46.6578 104.109C49.3428 104.227 51.2118 102.309 51.2246 99.7179Z" fill="#462683"/>
<path d="M96.0964 169.831C94.1411 169.88 92.7457 168.346 92.8763 166.436C92.983 164.867 94.1258 163.601 95.6731 163.334C97.8963 162.952 99.8184 165.232 99.0426 167.355C98.8787 167.804 98.6517 168.245 98.3769 168.635C97.7974 169.454 96.9823 169.862 96.0964 169.831ZM98.1481 166.591C98.1353 165.114 96.5342 163.942 95.1559 164.453C94.4543 164.713 93.8125 165.145 93.699 165.978C93.5591 167.002 94.1078 167.974 95.0466 168.418C96.3789 169.047 98.2343 168.056 98.1481 166.591Z" fill="#462683"/>
<path d="M28.2414 179.705C22.874 179.64 19.047 175.378 19.3287 170.666C19.6325 165.58 23.3724 162.053 28.2397 162.109C33.2461 162.166 37.4579 166.573 37.0722 171.611C36.7205 176.19 33.0191 179.705 28.2414 179.705ZM28.209 178.484C32.3773 178.52 35.9106 174.726 35.6546 170.519C35.4122 166.54 32.6 162.861 27.4664 163.24C24.0398 163.492 20.4629 166.58 20.5269 170.882C20.5918 175.26 24.0637 178.733 28.209 178.484Z" fill="#462683"/>
<path d="M138.79 70.9757C132.444 70.898 127.527 65.5127 127.878 59.174C128.214 53.1315 133.338 48.0142 139.657 48.3428C146.356 48.691 151.087 54.0311 150.686 60.3348C150.284 66.6845 145.179 71.1737 138.79 70.9757ZM129.206 59.5334C129.001 65.3881 133.979 70.1052 139.756 69.9831C145.164 69.8696 149.536 64.882 149.534 59.8653C149.532 53.8425 144.92 49.3294 139.282 49.372C133.569 49.4164 129.029 54.0507 129.206 59.5334Z" fill="#462683"/>
<path d="M175.716 11.0918C175.739 11.8804 175.253 12.4633 174.557 12.482C173.745 12.5042 173.177 11.9205 173.13 11.0149C173.095 10.3424 173.648 9.7339 174.306 9.71854C175.103 9.70147 175.691 10.2741 175.716 11.0918Z" fill="#462683"/>
<path d="M84.9113 83.254C80.8616 83.3684 77.0731 79.2743 77.5484 75.2246C78.0947 70.5699 80.9563 67.9958 85.6572 68.1469C89.9219 68.2843 93.0823 71.7288 92.7273 76.3102C92.4217 80.2532 88.7109 83.4588 84.9113 83.254ZM91.5179 75.7205C91.5384 72.025 88.3456 69.2111 84.9113 69.177C81.5298 69.1437 78.3934 72.2742 78.5538 75.811C78.7219 79.5286 81.185 82.2426 85.3696 82.2827C88.6417 82.3143 91.558 79.3417 91.5179 75.7205Z" fill="#462683"/>
<path d="M61.5439 69.1083C60.1835 69.1374 58.9033 68.9129 57.6342 68.598C57.5523 68.5775 57.4703 68.5519 57.391 68.522C57.0871 68.4094 56.7688 68.2771 56.8926 67.8691C57.0103 67.4782 57.3295 67.6327 57.6052 67.6626C58.8393 67.7974 60.076 68.0355 61.3092 68.0193C62.9146 67.998 64.5396 67.957 66.098 67.4458C66.2755 67.3878 66.4991 67.3869 66.6783 67.4381C67.0086 67.5329 67.094 67.9792 66.8106 68.173C66.5845 68.3274 66.3037 68.417 66.0348 68.4939C64.5532 68.9206 63.0281 69.0384 61.5439 69.1083Z" fill="#462683"/>
</svg>
