<svg width="666" height="519" viewBox="0 0 666 519" fill="none" xmlns="http://www.w3.org/2000/svg">
<g clip-path="url(#clip0_286_1354)">
<path d="M358.526 177.212C487.624 185.561 555.221 302.774 490.049 386.968C442.988 446.914 415.655 488.658 307.708 506.876C213.501 522.805 100.756 518.659 73.107 386.092C46.7672 262.172 185.097 165.485 358.526 177.212Z" fill="#FAB748"/>
<path d="M463.596 267.942L187.526 420.279C180.998 423.881 172.786 421.509 169.184 414.981C169.184 414.98 169.184 414.98 169.183 414.979L55.5937 209.125L47.7411 194.897C44.1393 188.368 46.5106 180.157 53.0381 176.554L329.11 24.2172C335.638 20.6151 343.85 22.9871 347.452 29.5153C347.452 29.5155 347.453 29.516 347.453 29.5164L355.347 43.8231L468.895 249.599C472.497 256.127 470.125 264.34 463.596 267.942Z" fill="white"/>
<path d="M463.596 267.942L187.526 420.279C180.998 423.881 172.786 421.509 169.184 414.981C169.184 414.98 169.184 414.98 169.183 414.979L55.5937 209.125L47.7411 194.897C44.1393 188.368 46.5106 180.157 53.0381 176.554L329.11 24.2172C335.638 20.6151 343.85 22.9871 347.452 29.5153C347.452 29.5155 347.453 29.516 347.453 29.5164L355.347 43.8231L468.895 249.599C472.497 256.127 470.125 264.34 463.596 267.942Z" stroke="#D8C5F3" stroke-width="3.09071" stroke-miterlimit="10"/>
<path d="M355.96 43.8234L56.2067 209.126L48.3544 194.897C44.7525 188.369 47.124 180.157 53.6515 176.554L329.724 24.2175C336.252 20.6156 344.464 22.9877 348.066 29.5156C348.066 29.516 348.066 29.5164 348.066 29.5168L355.96 43.8234Z" fill="#D8C5F3"/>
<path d="M334.824 33.5742C337.146 33.5653 339.035 35.4402 339.044 37.7614C339.053 40.0828 337.178 41.9719 334.857 41.9809C332.535 41.9898 330.646 40.1151 330.637 37.7937C330.628 35.4725 332.503 33.5831 334.824 33.5742Z" fill="white"/>
<path d="M322.375 40.4693C324.686 40.4604 326.566 42.3265 326.575 44.6371C326.584 46.9478 324.718 48.8282 322.407 48.8371C320.097 48.8459 318.216 46.9799 318.207 44.6692C318.199 42.3586 320.064 40.4782 322.375 40.4693Z" fill="white"/>
<path d="M309.923 47.2894C312.265 47.2804 314.17 49.1715 314.179 51.5128C314.188 53.8543 312.297 55.7598 309.956 55.7688C307.614 55.7778 305.709 53.8868 305.7 51.5454C305.691 49.2041 307.582 47.2984 309.923 47.2894Z" fill="white"/>
<path d="M242.758 31.5089C242.758 31.5089 230.734 43.3435 215.734 47.0011C207.803 48.9243 196.051 47.9179 178.18 43.3362C157.374 38.0021 141.537 47.0627 136.825 64.0676C133.581 75.7766 128.877 79.8744 115.028 92.1744C98.2502 107.076 100.198 135.061 123.45 151.419C123.45 151.419 161.471 176.945 196.485 137.531C232.474 97.019 257.382 47.2875 261.883 38.5141C266.742 29.0423 265.44 24.6433 261.937 23.0951C256.727 20.7926 242.758 31.5089 242.758 31.5089Z" fill="#222222"/>
<path d="M370.156 115.672C373.928 107.582 366.313 112.514 361.743 117.913C357.894 121.034 355.069 127.789 354.134 131.3C351.726 140.347 357.618 145.628 361.845 135.231C365.977 125.263 368.628 118.949 370.156 115.672Z" fill="white"/>
<path d="M370.156 115.672C373.928 107.582 366.313 112.514 361.743 117.913C357.894 121.034 355.069 127.789 354.134 131.3C351.726 140.347 357.618 145.628 361.845 135.231C365.977 125.263 368.628 118.949 370.156 115.672Z" stroke="#462683" stroke-width="1.4815"/>
<path d="M362.134 118.125C359.462 110.595 353.039 112.209 349.661 119.183C349.661 119.183 343.871 127.256 338.772 148.66L296.595 160.456C296.595 160.456 275.481 141.286 258.374 149.704C240.24 158.626 242.247 175.642 242.247 175.642C250.276 196.166 270.98 201.37 278.589 201.289C294.534 201.118 313.551 194.73 335.264 175.898C349.558 163.501 359.035 149.479 361.846 135.232C363.088 128.925 362.63 121.871 362.134 118.125Z" fill="white"/>
<path d="M362.134 118.125C359.462 110.595 353.039 112.209 349.661 119.183C349.661 119.183 343.871 127.256 338.772 148.66L296.595 160.456C296.595 160.456 275.481 141.286 258.374 149.704C240.24 158.626 242.247 175.642 242.247 175.642C250.276 196.166 270.98 201.37 278.589 201.289C294.534 201.118 313.551 194.73 335.264 175.898C349.558 163.501 359.035 149.479 361.846 135.232C363.088 128.925 362.63 121.871 362.134 118.125Z" stroke="#462683" stroke-width="1.4815"/>
<path d="M207.758 287.973C207.758 287.973 219.342 308.487 224.056 330.234C228.77 351.981 225.754 359.814 217.847 360.725C213.945 361.173 207.85 359.269 204.448 349.416C200.961 339.311 200.307 320.843 207.758 287.973Z" stroke="#462683" stroke-width="1.7778"/>
<path d="M207.758 287.973C207.758 287.973 219.342 308.487 224.057 330.234C228.771 351.981 225.754 359.815 217.848 360.724C213.945 361.173 207.849 359.269 204.449 349.416C200.961 339.31 200.307 320.842 207.758 287.973Z" fill="#462683"/>
<path d="M321.341 292.068C329.189 280.63 327.847 264.182 322.054 252.931C306.363 222.457 271.051 199.859 252.748 188.53C241.961 181.853 218.863 170.503 199.35 177.684C191.323 180.638 174.442 195.148 184.91 220.183C192.884 239.255 226.469 257.059 247.145 272.166C267.82 287.273 313.029 304.183 321.341 292.068Z" fill="white"/>
<path d="M321.341 292.068C329.189 280.63 327.847 264.182 322.054 252.931C306.363 222.457 271.051 199.859 252.748 188.53C241.961 181.853 218.863 170.503 199.35 177.684C191.323 180.638 174.442 195.148 184.91 220.183C192.884 239.255 226.469 257.059 247.145 272.166C267.82 287.273 313.029 304.183 321.341 292.068Z" stroke="#462683" stroke-width="1.7778"/>
<path d="M233.517 328.138C229.86 328.851 204.006 332.433 197.135 333.003C167.264 335.484 138.685 338.058 158.216 305.602C170.415 301.229 189.069 294.256 197.315 290.859C198.46 290.387 199.862 289.806 200.998 289.239C201.875 288.802 221.389 285.814 228.77 299.389C233.762 308.57 241.026 322.402 233.517 328.138Z" fill="white"/>
<path d="M197.135 333.003C187.245 333.974 175.953 334.654 165.804 334.225C140.443 333.152 158.216 305.602 158.216 305.602C163.79 303.547 170.97 300.825 178.112 298.283L197.135 333.003Z" fill="#D8C5F3"/>
<path d="M170.086 300.712L188.158 334.482" stroke="white" stroke-width="2.963" stroke-miterlimit="10"/>
<path d="M233.517 328.138C229.86 328.851 204.006 332.433 197.135 333.003C167.264 335.484 138.685 338.058 158.216 305.602C170.415 301.229 189.069 294.256 197.315 290.859C198.46 290.387 199.862 289.806 200.998 289.239C201.875 288.802 221.389 285.814 228.77 299.389C233.762 308.57 241.026 322.402 233.517 328.138Z" stroke="#462683" stroke-width="1.4815"/>
<path d="M223.806 357.557C247.804 340.854 269.745 329.397 282.669 322.426C301.132 312.467 316.965 302.847 323.498 289.687C327.209 282.213 328.058 273.205 325.323 265.334C317.877 243.901 268.435 257.605 250.668 268.172C238.148 272.998 225.636 278.609 200.803 289.241C220.059 312.621 228.991 344.144 223.806 357.557Z" fill="white"/>
<path d="M326.538 280.107C326.018 283.432 324.99 286.684 323.498 289.687C316.965 302.847 301.132 312.467 282.669 322.426C269.745 329.397 247.804 340.854 223.806 357.557C228.991 344.144 220.058 312.621 200.802 289.241C225.636 278.609 238.148 272.998 250.668 268.172C251.647 267.589 252.723 266.997 253.883 266.402" stroke="#462683" stroke-width="1.7778" stroke-linecap="round" stroke-linejoin="round"/>
<path d="M324.57 259.271C328.807 271.529 326.659 278.962 326.038 283.248" stroke="#462683" stroke-width="1.66669"/>
<path d="M162.606 386.909C148.426 386.205 125.462 330.157 117.574 319.459C136.195 311.362 151.31 308.222 160.584 304.665C162.453 310.667 158.78 313.153 160.213 319.127C168.38 338.316 176.058 369.721 162.671 386.831C162.655 386.86 162.617 386.894 162.606 386.909Z" fill="white"/>
<path d="M139.043 311.854C139.043 311.854 139.883 314.08 145.372 316.754C150.86 319.428 152.585 319.11 156.879 324.978" stroke="#462683" stroke-width="1.4815" stroke-linecap="round" stroke-linejoin="round"/>
<path d="M129.188 315.015C129.188 315.015 135.346 316.202 138.182 323.506C140.407 329.237 137.596 331.879 138.556 336.817C139.707 342.73 144.053 342.76 144.857 350.342C145.79 359.132 149.093 376.201 164.651 383.759" stroke="#462683" stroke-width="1.4815" stroke-linecap="round" stroke-linejoin="round"/>
<path d="M126.753 321.363C128.587 320.351 131.472 322.068 133.199 325.198C134.926 328.328 134.84 331.685 133.007 332.696C131.174 333.708 128.288 331.991 126.561 328.861C124.834 325.731 124.92 322.374 126.753 321.363Z" stroke="#462683" stroke-width="1.4815" stroke-linecap="round" stroke-linejoin="round"/>
<path d="M162.606 386.909C148.426 386.205 125.462 330.157 117.574 319.459C136.195 311.362 151.31 308.222 160.584 304.665C162.453 310.667 158.78 313.153 160.213 319.127C168.38 338.316 176.058 369.721 162.671 386.831C162.655 386.86 162.617 386.894 162.606 386.909Z" stroke="#462683" stroke-width="1.7778" stroke-linecap="round" stroke-linejoin="round"/>
<path d="M169.037 346.069C161.446 338.908 153.187 339.681 153.187 339.681" stroke="#FAB748" stroke-width="4.4445" stroke-linecap="round" stroke-linejoin="round"/>
<path d="M170.01 354.477C163.305 347.026 154.242 347.336 154.242 347.336" stroke="#FAB748" stroke-width="4.4445" stroke-linecap="round" stroke-linejoin="round"/>
<path d="M170.167 362.416C164.186 355.606 156.32 355.694 156.32 355.694" stroke="#FAB748" stroke-width="4.4445" stroke-linecap="round" stroke-linejoin="round"/>
<path d="M291.091 257.255C274.048 253.643 251.771 260.401 251.771 260.401" stroke="#462683" stroke-width="1.4815" stroke-miterlimit="10" stroke-linecap="round"/>
<path d="M291.091 257.255C274.048 253.643 251.771 260.401 251.771 260.401" stroke="#462683" stroke-width="1.4815" stroke-miterlimit="10" stroke-linecap="round"/>
<path d="M303.153 389.641C303.153 389.641 280.871 393.262 262.64 383.31C244.409 373.36 222.528 374.483 218.91 384.227C215.292 393.972 230.614 418.617 303.153 389.641Z" stroke="#462683" stroke-width="1.18519"/>
<path d="M303.153 389.642C303.153 389.642 280.87 393.261 262.64 383.311C244.409 373.361 222.528 374.483 218.91 384.228C215.292 393.972 230.613 418.616 303.153 389.642Z" fill="#462683"/>
<path d="M169.139 198.362C163.275 220.519 174.748 243.02 200.089 263.425C213.753 276.441 230.541 290.515 238.796 307.149C258.677 339.088 311.596 322.41 291.134 277.388C277.408 246.784 250.792 194.685 221.44 175.767C191.92 167.218 173.011 183.734 169.139 198.362Z" fill="white"/>
<path d="M169.139 198.362C163.275 220.519 174.748 243.02 200.089 263.425C213.753 276.441 230.541 290.515 238.796 307.149C258.677 339.088 311.596 322.41 291.134 277.388C277.408 246.784 250.792 194.685 221.44 175.767C191.92 167.218 173.011 183.734 169.139 198.362Z" stroke="#462683" stroke-width="1.7778"/>
<path d="M303.391 406.235L266.835 406.903C266.015 402.391 265.135 398.303 264.197 394.638C262.773 389.025 261.247 384.389 259.705 380.693C259.705 380.693 264.259 367.151 280.749 368.513C299.921 370.096 303.092 387.942 303.092 387.942C303.092 387.942 303.119 388.543 303.156 389.64C303.251 392.478 303.419 398.634 303.391 406.235Z" fill="white"/>
<path d="M301.67 439.244C301.67 439.244 300.603 461.774 282.541 457.663C272.417 455.36 270.768 437.241 269.591 426.328C268.818 419.142 267.88 412.674 266.832 406.905L266.832 406.903L303.388 406.236L303.388 406.237C303.35 416.16 302.975 428.55 301.67 439.244Z" fill="#D8C5F3"/>
<path d="M268.147 414.742L303.193 414.627" stroke="white" stroke-width="2.96297" stroke-miterlimit="10"/>
<path d="M272.517 365.925L258.179 377.346C258.179 377.346 262.832 385.663 266.247 404.199C269.663 422.735 270.55 433.528 270.55 433.528C270.55 433.528 270.186 446.142 287.466 444.435C304.746 442.729 301.922 435.882 301.922 435.882C301.922 435.882 304.476 409.365 302.456 384.473C300.436 359.58 272.517 365.925 272.517 365.925Z" stroke="#462683" stroke-width="1.66669"/>
<path d="M238.252 302.236C237.93 305.623 237.408 311.496 237.01 315.206C234.516 338.472 223.434 371.449 218.911 384.226C225.402 372.772 244.376 375.943 263.768 383.76C283.16 391.577 303.154 389.64 303.154 389.64C303.154 389.64 300.609 333.593 297.876 309.453C297.876 309.453 297.457 305.603 296.535 299.119C289.541 246.79 238.6 251.301 238.252 302.236Z" fill="white"/>
<path d="M238.254 302.236C237.931 305.623 237.409 311.496 237.012 315.206C234.518 338.472 223.436 371.449 218.913 384.226C225.404 372.773 244.378 375.943 263.77 383.76C283.161 391.577 303.155 389.641 303.155 389.641C303.155 389.641 300.611 333.593 297.877 309.453C297.877 309.453 296.658 299.542 295.869 292.63C295.816 292.232 295.76 291.837 295.702 291.446" stroke="#462683" stroke-width="1.77778" stroke-linecap="round" stroke-linejoin="round"/>
<path d="M348.127 461.196C348.118 461.179 348.101 461.132 348.083 461.104C335.054 438.244 304.488 435.722 280.881 435.089C274.958 433.458 273.412 428.995 267.254 427.731C270.707 444.44 269.552 461.454 267.815 471.647C273.134 470.945 286.112 471.663 300.187 471.973C320.98 472.433 344.201 468.658 348.127 461.196Z" fill="white"/>
<path d="M290.004 439.825C282.792 440.75 283.866 442.489 278.873 446.002C273.88 449.516 269.496 449.233 269.496 449.233" stroke="#462683" stroke-width="1.4815" stroke-linecap="round" stroke-linejoin="round"/>
<path d="M346.138 458.028C332.792 468.919 315.737 464.768 307.405 461.929C300.217 459.48 298.426 463.53 292.694 461.681C287.906 460.136 287.224 456.379 281.132 455.558C273.367 454.512 269.215 459.423 269.215 459.423" stroke="#462683" stroke-width="1.4815" stroke-linecap="round" stroke-linejoin="round"/>
<path d="M280.23 460.736C276.656 460.736 273.758 462.433 273.758 464.527C273.758 466.62 276.656 468.318 280.23 468.318C283.805 468.318 286.702 466.62 286.702 464.527C286.702 462.433 283.805 460.736 280.23 460.736Z" stroke="#462683" stroke-width="1.4815" stroke-linecap="round" stroke-linejoin="round"/>
<path d="M348.127 461.196C348.118 461.179 348.101 461.132 348.083 461.104C335.054 438.244 304.488 435.722 280.881 435.089C274.958 433.458 273.412 428.995 267.254 427.731C270.707 444.44 269.552 461.454 267.815 471.647C273.134 470.945 286.112 471.663 300.187 471.974C320.98 472.433 344.201 468.658 348.127 461.196Z" stroke="#462683" stroke-width="1.7778" stroke-linecap="round" stroke-linejoin="round"/>
<path d="M302.102 450.076C302.102 450.076 305.132 442.379 314.922 438.847" stroke="#FAB748" stroke-width="4.4445" stroke-linecap="round" stroke-linejoin="round"/>
<path d="M309.391 452.582C309.391 452.582 313.194 444.378 322.843 441.765" stroke="#FAB748" stroke-width="4.4445" stroke-linecap="round" stroke-linejoin="round"/>
<path d="M317.762 454.496C317.762 454.496 321.223 447.457 329.977 445.2" stroke="#FAB748" stroke-width="4.4445" stroke-linecap="round" stroke-linejoin="round"/>
<path d="M239.719 274.562C239.603 286.708 237.723 309.817 236.508 319.659" stroke="#462683" stroke-width="1.77778" stroke-miterlimit="10" stroke-linecap="round"/>
<path d="M361.809 118.354C361.363 111.34 360.859 104.128 359.65 97.2049C355.936 76.5207 353.874 89.7584 353.874 89.7584C353.874 89.7584 351.085 107.174 354.523 125.707C355.56 131.299 361.252 136.085 361.809 118.354Z" fill="white"/>
<path d="M362.28 118.539C362.28 118.539 358.933 85.7602 355.846 85.5785C354.491 85.4987 353.789 89.8771 353.789 89.8771" fill="white"/>
<path d="M362.28 118.539C362.28 118.539 358.933 85.7602 355.846 85.5785C354.491 85.4987 353.789 89.8771 353.789 89.8771" stroke="#462683" stroke-width="1.4815"/>
<path d="M353.872 89.7583C353.872 89.7583 351.344 85.1377 349.877 98.5496C348.522 110.942 349.66 119.183 349.66 119.183C349.66 119.183 350.293 128.222 353.143 128.944C357.173 129.965 360.101 111.947 353.872 89.7583Z" fill="white"/>
<path d="M348.779 100.455C348.779 100.455 351.544 83.5495 354.217 90.2051C357.056 98.2123 357.55 112.114 357.55 112.114" stroke="#462683" stroke-width="1.4815" stroke-miterlimit="10" stroke-linecap="round"/>
<path d="M261.451 166.774C261.451 166.774 232.412 172.22 228.442 172.152C227.814 155.725 229.125 133.217 233.894 113.553C241.642 81.6123 252.029 76.3766 252.029 76.3766C252.029 76.3766 265.33 69.231 269.671 90.7633C273.994 112.217 280.63 137.178 294.498 156.101L261.451 166.774Z" fill="#FAB748"/>
<path d="M267.982 63.0341C258.94 62.097 252.109 71.9898 251.299 83.3855C250.882 89.2537 241.783 95.6775 231.15 91.9686C225.962 90.1593 212.579 69.4894 225.801 63.0687C239.022 56.648 245.793 49.7004 252.012 41.6094C267.878 25.4138 290.643 48.3355 267.982 63.0341Z" fill="white"/>
<path d="M267.982 63.0341C258.94 62.097 252.109 71.9898 251.299 83.3855C250.882 89.2537 241.783 95.6775 231.15 91.9686C225.962 90.1593 212.579 69.4894 225.801 63.0687C239.022 56.648 245.793 49.7004 252.012 41.6094C267.878 25.4138 290.643 48.3355 267.982 63.0341Z" stroke="#462683" stroke-width="1.4815" stroke-linecap="round" stroke-linejoin="round"/>
<path d="M253.81 190.224C253.81 190.224 250.337 191.407 244.715 191.58C237.806 191.805 223.765 190.733 209.721 184.318C190.376 175.481 169.496 195.564 169.496 195.564C169.496 195.564 170.927 161.619 178.078 132.498C182.154 115.902 187.672 99.4429 194.954 88.6706C209.168 67.6438 224.512 63.6728 224.512 63.6728L227.49 73.8448C229.532 76.256 232.536 80.609 236.897 83.0475C240.727 85.1891 245.603 85.854 251.794 82.4295C248.029 119.1 258.198 162.336 253.81 190.224Z" fill="#FAB748"/>
<path d="M251.422 81.2051C250.182 90.0246 251.321 116.71 253.112 138.522C254.44 154.857 255.106 169.53 255.106 169.53" stroke="white" stroke-width="1.4815" stroke-linecap="round" stroke-linejoin="round"/>
<path d="M267.983 63.0347C266.301 62.968 263.322 62.5936 259.657 65.5085C256.947 59.8737 258.297 54.4608 260.012 54.2162C261.537 53.331 263.634 50.7917 267.164 52.127C269.848 53.1421 270.761 55.3579 271.363 56.1149C272.838 57.9686 268.021 63.0429 267.983 63.0347Z" fill="#462683"/>
<path d="M292.856 55.6521C285.821 68.4542 280.794 78.4502 266.418 63.3166C264.012 60.281 261.435 56.2407 260.722 54.8835C259.083 51.6562 258.007 50.149 259.583 40.179C260.049 37.2257 252.502 34.7005 252.513 30.9169C252.513 30.9169 253.983 17.2563 264.04 11.4326C272.576 6.48982 280.102 9.58013 280.102 9.58013C298.101 14.9585 301.234 30.3163 295.641 45.9621C294.963 48.0755 294.872 50.6491 296.35 52.4812C297.607 54.3611 294.643 55.6819 292.856 55.6521Z" fill="white"/>
<path d="M259.624 52.6155C259.932 53.3707 260.308 54.0727 260.72 54.8835C261.433 56.2407 264.01 60.281 266.416 63.3166C280.792 78.4502 285.819 68.4542 292.854 55.6522C294.641 55.682 297.605 54.3611 296.348 52.4812C294.87 50.6492 294.961 48.0755 295.639 45.9621C301.172 30.4858 298.166 15.2912 280.68 9.7584" stroke="#462683" stroke-width="1.4815" stroke-linecap="round" stroke-linejoin="round"/>
<path d="M285.919 39.3327C282.999 38.5937 280.363 39.8557 280.189 41.3027C280.016 42.7498 282.284 44.3839 285.29 44.5725C288.381 44.7664 290.923 43.9156 291.02 42.6024C291.119 41.2412 288.816 40.066 285.919 39.3327Z" fill="#462683"/>
<path d="M284.788 46.8011C286.067 46.6671 289.142 46.4164 292.084 45.2865C292.494 45.1284 292.954 45.3325 293.112 45.7421C293.113 45.7448 293.114 45.7477 293.115 45.7504C293.517 46.818 293.861 48.6564 291.758 49.169C289.173 49.7993 285.238 48.596 284.48 47.4216C284.362 47.2293 284.422 46.9778 284.614 46.8597C284.667 46.8272 284.727 46.8072 284.788 46.8011Z" fill="#462683"/>
<path d="M282.52 57.0774C281.938 57.7687 281.557 59.6413 283.626 60.1922" stroke="#462683" stroke-width="1.36578" stroke-linecap="round"/>
<path d="M254.425 35.8772C246.647 33.0259 239.621 30.0611 234.429 26.6794C226.832 22.3872 222.707 18.323 223.194 15.0909C223.621 12.2658 227.676 10.2807 236.097 10.99C241.141 11.5965 247.569 13.8213 257.011 15.7585L254.425 35.8772Z" fill="#D8C5F3"/>
<path d="M254.424 35.8772C254.23 35.8444 254.004 35.7946 253.748 35.7287C251.74 33.4321 246.752 25.4757 252.518 14.7617C253.928 15.1371 256.989 15.7385 257.01 15.7581C257.01 15.7581 252.229 28.1129 254.424 35.8772Z" fill="#222222"/>
<path d="M297.312 40.4314C281.597 41.5034 265.149 38.3223 252.318 30.7723C250.784 -7.44647 308.554 2.52381 297.312 40.4314Z" fill="#D8C5F3"/>
<path d="M297.31 40.4315C293.96 40.757 290.739 40.7578 287.011 40.5448C286.501 34.5485 291.91 28.8183 298.768 30.8996C298.871 34.5535 298.064 38.0437 297.31 40.4315Z" fill="#222222"/>
<path d="M264.608 36.4432C264.608 36.4432 262.318 30.0507 256.37 29.2897C250.761 28.5718 247.739 36.2238 254.129 44.5668C255.11 45.8486 257.217 47.2958 259.241 47.6842C261.139 48.0486 263.631 46.3141 264.726 43.1555C265.947 39.6313 264.608 36.4432 264.608 36.4432Z" fill="white"/>
<path d="M265.184 38.9585C265.031 37.4504 264.608 36.4432 264.608 36.4432C264.608 36.4432 262.318 30.0507 256.37 29.2897C250.761 28.5719 247.739 36.2238 254.129 44.5668C254.56 45.1305 255.21 45.7263 255.974 46.2498" stroke="#462683" stroke-width="1.4815" stroke-linecap="round" stroke-linejoin="round"/>
<path d="M255.699 34.6552C255.699 34.6552 260.739 36.5011 260.94 43.2392" stroke="#462683" stroke-width="1.4815" stroke-miterlimit="10" stroke-linecap="round"/>
<path d="M270.823 110.801C284.467 111.344 283.1 117.886 282.685 125.034C282.117 134.802 280.31 139.677 276.985 139.641C270.124 139.568 263.872 138.228 263.872 138.228C263.872 138.228 254.223 137.334 253.843 128.339C253.413 118.131 261.58 110.429 270.823 110.801Z" fill="white"/>
<path d="M181.443 132.183C181.443 132.183 148.741 76.3169 136.834 86.5502C125.677 96.1392 163.128 127.706 181.443 132.183Z" fill="#222222"/>
<path d="M181.443 132.183C181.443 132.183 148.741 76.3169 136.834 86.5502C125.677 96.1392 163.128 127.706 181.443 132.183Z" stroke="#FAB748" stroke-width="1.1852"/>
<path d="M138.972 175.226C118.319 156.142 136.077 116.13 155.212 96.7828C167.516 86.9582 181.367 89.7434 185.768 97.5288C188.5 102.362 191.337 114.152 180.882 133.454C171.404 157.307 152.743 182.683 138.972 175.226Z" fill="white"/>
<path d="M138.972 175.226C118.319 156.142 136.077 116.13 155.212 96.7828C167.516 86.9582 181.367 89.7434 185.768 97.5288C188.5 102.362 191.337 114.152 180.882 133.454C171.404 157.307 152.743 182.683 138.972 175.226Z" stroke="#462683" stroke-width="1.4815"/>
<path d="M284 124.917C285.315 123.52 282.01 123.52 279.35 122.51C275.624 121.096 276.638 122.229 273.853 121.16C265.626 118.005 266.823 110.522 274.427 111.223C278.558 111.603 282.176 113.284 286.152 114.308C298.093 117.384 293.234 126.481 291.451 129.156C288.136 134.128 285.062 137.709 283.208 138.637C282.343 139.07 281.743 138.925 281.51 138.073C281.028 136.313 279.073 132.813 284 124.917Z" fill="white"/>
<path d="M284 124.917C285.315 123.52 282.01 123.52 279.35 122.51C275.624 121.096 276.638 122.229 273.853 121.16C265.626 118.005 266.823 110.522 274.427 111.223C278.558 111.603 282.176 113.284 286.152 114.308C298.093 117.384 293.234 126.481 291.451 129.156C288.136 134.128 285.062 137.709 283.208 138.637C282.343 139.07 281.743 138.925 281.51 138.073C281.028 136.313 279.073 132.813 284 124.917Z" stroke="#462683" stroke-width="1.1852"/>
<path d="M180.982 133.455C195.556 124.261 223.22 95.6265 227.488 73.8452C229.386 59.323 218.984 56.4334 212.332 57.6418C202.728 59.3869 184.131 68.961 173.259 73.2488C158.411 79.1052 142.473 83.673 137.902 85.4593C147.317 86.0372 157.455 98.6012 164.516 112.786C167.44 118.659 171.966 128.506 180.982 133.455Z" fill="#FAB748"/>
<path d="M227.94 74.0309C224.775 88.5146 205.729 116.542 181.217 133.692" stroke="white" stroke-width="1.4815" stroke-linecap="round" stroke-linejoin="round"/>
<path d="M255.988 136.661C254.47 135.238 249.914 136.163 248.181 137.315C233.153 147.483 190.895 194.232 150.859 181.91C144.715 179.868 140.065 176.81 136.675 173.021C120.399 146.74 160.322 144.229 179.391 132.052C209.413 113.303 248.9 106.565 270.605 110.502C280.667 112.326 296.875 120.116 277.597 134.821C264.922 140.968 255.988 136.661 255.988 136.661Z" fill="white"/>
<path d="M130.418 159.083C131.629 168.547 136.541 172.488 138.054 174.263" stroke="#462683" stroke-width="1.00001" stroke-linecap="round"/>
<path d="M295.949 120.86C291.969 118.219 287.577 116.566 283.977 116.039" stroke="#462683" stroke-width="2.5067" stroke-linecap="round" stroke-linejoin="round"/>
<path d="M296.533 137.059C296.573 136.917 296.613 136.775 296.652 136.631C297.872 132.214 298.288 128.733 298.288 128.733C298.473 127.773 298.607 126.804 298.697 125.837C298.733 125.46 298.761 125.084 298.783 124.708C298.757 124.15 298.634 123.587 298.394 123.046C297.357 120.705 294.618 119.648 292.277 120.685C290.449 121.495 289.41 123.341 289.532 125.225C289.591 125.549 289.648 125.873 289.702 126.198C290.249 129.514 290.177 131.867 290.248 135.791C290.243 135.867 290.241 135.943 290.242 136.02C290.243 136.03 290.243 136.039 290.243 136.048C290.244 136.104 290.25 136.16 290.255 136.215C290.281 136.577 290.365 136.94 290.52 137.29C291.245 138.926 293.158 139.664 294.794 138.94C295.641 138.564 296.245 137.869 296.533 137.059Z" stroke="#462683" stroke-width="2.5067"/>
<path d="M288.228 138.787C289.491 139.032 291.175 139.2 292.964 139.314C293.118 139.324 293.273 139.334 293.43 139.343C294.115 139.338 294.806 139.13 295.403 138.697C296.923 137.593 297.261 135.465 296.157 133.944C295.382 132.877 294.103 132.394 292.884 132.581C292.805 132.593 292.725 132.608 292.647 132.626C292.637 132.628 292.628 132.631 292.618 132.633C292.562 132.646 292.506 132.665 292.45 132.681C291.061 132.999 289.651 133.294 288.215 133.567C281.5 134.843 282.343 137.644 288.228 138.787Z" stroke="#462683" stroke-width="2.5067"/>
<path d="M295.946 120.86C289.308 116.454 281.522 114.8 278.178 116.53C277.611 116.823 277.142 117.182 276.761 117.585C275.949 118.377 275.395 119.444 275.26 120.66C274.974 123.232 276.663 125.567 279.115 126.158C279.174 126.178 279.231 126.201 279.29 126.22C283.705 126.712 287.819 127.713 291.796 129.154C292.105 129.266 292.414 129.38 292.722 129.497C292.927 129.549 293.135 129.593 293.351 129.617C295.896 129.9 298.189 128.066 298.472 125.52C298.577 124.571 298.387 123.657 297.975 122.87C297.619 122.188 297.071 121.626 296.436 121.191C296.294 121.093 296.151 120.996 296.007 120.901L295.946 120.86Z" fill="white"/>
<path d="M296.533 137.059C296.573 136.917 296.613 136.775 296.652 136.631C297.872 132.214 298.288 128.733 298.288 128.733C298.473 127.773 298.607 126.804 298.697 125.837C298.733 125.46 298.761 125.084 298.783 124.708C298.757 124.15 298.634 123.587 298.394 123.046C297.357 120.705 294.618 119.648 292.277 120.685C290.449 121.495 289.41 123.341 289.532 125.225C289.591 125.549 289.648 125.873 289.702 126.198C290.249 129.514 290.177 131.867 290.248 135.791C290.243 135.867 290.241 135.943 290.242 136.02C290.243 136.03 290.243 136.039 290.243 136.048C290.244 136.104 290.25 136.16 290.255 136.215C290.281 136.577 290.365 136.94 290.52 137.29C291.245 138.926 293.158 139.664 294.794 138.94C295.641 138.564 296.245 137.869 296.533 137.059Z" fill="white"/>
<path d="M288.228 138.787C289.491 139.032 291.175 139.2 292.964 139.314C293.118 139.324 293.273 139.334 293.43 139.343C294.115 139.338 294.806 139.13 295.403 138.697C296.923 137.593 297.261 135.465 296.157 133.944C295.382 132.877 294.103 132.394 292.884 132.581C292.805 132.593 292.725 132.608 292.647 132.626C292.637 132.628 292.628 132.631 292.618 132.633C292.562 132.646 292.506 132.665 292.45 132.681C291.061 132.999 289.651 133.294 288.215 133.567C281.5 134.843 282.343 137.644 288.228 138.787Z" fill="white"/>
<path d="M293.213 124.915C287.866 121.316 283.462 120.353 280.198 121.021" stroke="#462683" stroke-width="2.5067" stroke-linecap="round" stroke-linejoin="round"/>
<path d="M291.857 141.284C291.915 141.148 291.973 141.012 292.031 140.875C293.815 136.655 294.682 133.257 294.682 133.257C294.99 132.329 295.248 131.387 295.464 130.439C295.548 130.07 295.625 129.701 295.696 129.331C295.743 128.775 295.694 128.201 295.527 127.633C294.803 125.176 292.225 123.772 289.769 124.495C287.852 125.06 286.581 126.755 286.457 128.64C286.473 128.969 286.487 129.297 286.498 129.627C286.608 132.985 286.231 135.309 285.79 139.208C285.776 139.283 285.764 139.359 285.755 139.435C285.754 139.444 285.753 139.454 285.752 139.463C285.746 139.518 285.745 139.574 285.742 139.63C285.721 139.992 285.757 140.363 285.865 140.73C286.371 142.446 288.172 143.428 289.888 142.922C290.777 142.66 291.467 142.049 291.857 141.284Z" stroke="#462683" stroke-width="2.5067" stroke-linecap="round" stroke-linejoin="round"/>
<path d="M283.739 140.623C284.869 141.238 286.423 141.907 288.093 142.557C288.238 142.614 288.382 142.67 288.529 142.726C289.184 142.929 289.905 142.939 290.605 142.707C292.388 142.114 293.353 140.188 292.761 138.405C292.345 137.153 291.272 136.306 290.053 136.116C289.974 136.103 289.894 136.093 289.814 136.087C289.804 136.086 289.795 136.085 289.785 136.084C289.727 136.08 289.668 136.081 289.609 136.08C288.19 135.963 286.757 135.817 285.305 135.643C278.519 134.828 278.475 137.753 283.739 140.623Z" stroke="#462683" stroke-width="2.5067"/>
<path d="M293.201 124.827C286.563 120.421 281.392 120.034 278.048 121.763C277.481 122.057 277.012 122.415 276.631 122.819C275.819 123.611 275.265 124.678 275.13 125.894C274.844 128.466 276.532 130.801 278.985 131.392C279.043 131.412 279.101 131.435 279.16 131.454C283.575 131.946 285.074 131.68 289.051 133.12C289.36 133.232 289.669 133.347 289.977 133.464C290.182 133.516 290.39 133.559 290.607 133.583C293.152 133.866 295.444 132.032 295.727 129.487C295.832 128.537 295.642 127.624 295.23 126.837C294.874 126.155 294.326 125.593 293.691 125.158C293.549 125.06 293.406 124.963 293.262 124.868L293.201 124.827Z" fill="white"/>
<path d="M291.953 141.205C292.01 141.068 292.067 140.932 292.124 140.794C293.881 136.563 294.726 133.159 294.726 133.159C295.028 132.23 295.28 131.285 295.49 130.336C295.572 129.967 295.646 129.597 295.715 129.227C295.758 128.67 295.705 128.097 295.534 127.53C294.795 125.078 292.208 123.69 289.756 124.43C287.843 125.007 286.583 126.71 286.471 128.595C286.489 128.924 286.506 129.253 286.519 129.582C286.651 132.94 286.289 135.265 285.873 139.168C285.859 139.243 285.848 139.319 285.839 139.395C285.838 139.404 285.837 139.413 285.836 139.423C285.831 139.478 285.83 139.534 285.827 139.59C285.809 139.952 285.847 140.322 285.958 140.689C286.474 142.402 288.282 143.372 289.995 142.855C290.882 142.588 291.567 141.972 291.953 141.205Z" fill="white"/>
<path d="M283.739 140.623C284.869 141.238 286.423 141.907 288.093 142.557C288.238 142.614 288.382 142.67 288.529 142.726C289.184 142.929 289.905 142.939 290.605 142.707C292.388 142.114 293.353 140.188 292.761 138.405C292.345 137.153 291.272 136.306 290.053 136.116C289.974 136.103 289.894 136.093 289.814 136.087C289.804 136.086 289.795 136.085 289.785 136.084C289.727 136.08 289.668 136.081 289.609 136.08C288.19 135.963 286.757 135.817 285.305 135.643C278.519 134.828 278.475 137.753 283.739 140.623Z" fill="white"/>
<path d="M136.238 172.297C136.379 172.536 136.525 172.778 136.675 173.021C140.065 176.809 144.715 179.868 150.858 181.91C190.894 194.232 233.153 147.483 248.18 137.315C249.855 136.203 254.16 135.302 255.821 136.523" stroke="#462683" stroke-width="1.1852" stroke-linecap="round" stroke-linejoin="round"/>
<path d="M274.846 111.548C273.389 111.092 271.942 110.744 270.604 110.501C248.9 106.565 209.413 113.303 179.391 132.052C175.328 134.647 170.317 136.802 165.106 138.843" stroke="#462683" stroke-width="1.1852" stroke-linecap="round" stroke-linejoin="round"/>
<path d="M288.304 132.181C284.983 129.983 281.84 129.017 279.129 129.089" stroke="#462683" stroke-width="2.82004" stroke-linecap="round" stroke-linejoin="round"/>
<path d="M284.743 146.332C284.843 146.224 284.944 146.115 285.045 146.005C288.144 142.631 288.833 141.698 288.833 141.698C289.436 140.927 289.996 140.126 290.518 139.307C290.721 138.988 290.918 138.666 291.109 138.341C291.34 137.833 291.487 137.276 291.521 136.685C291.665 134.128 289.71 131.938 287.154 131.794C285.158 131.681 283.391 132.85 282.64 134.583C282.545 134.898 282.448 135.212 282.348 135.526C281.322 138.726 280.87 139.04 279.728 142.337C279.689 142.403 279.653 142.47 279.619 142.539C279.614 142.547 279.611 142.555 279.606 142.564C279.582 142.614 279.562 142.666 279.541 142.718C279.399 143.051 279.308 143.413 279.287 143.795C279.186 145.582 280.552 147.112 282.338 147.213C283.263 147.265 284.118 146.922 284.743 146.332Z" stroke="#462683" stroke-width="2.82004"/>
<path d="M276.73 144.529C277.846 145.169 279.385 145.872 281.04 146.558C281.184 146.618 282.221 147.071 283.548 146.762C285.378 146.335 286.351 144.304 285.797 142.508C285.409 141.248 284.355 140.377 283.141 140.16C283.062 140.146 279.851 139.79 278.403 139.584C271.637 138.622 271.53 141.546 276.73 144.529Z" stroke="#462683" stroke-width="2.82004"/>
<path d="M288.303 132.181C283.203 128.806 278.525 128.337 275.182 130.066C274.614 130.36 274.145 130.718 273.764 131.122C272.952 131.914 272.399 132.981 272.263 134.196C271.978 136.769 273.666 139.104 276.118 139.694C276.177 139.715 276.234 139.738 276.294 139.756C280.708 140.249 281.374 140.049 284.153 140.475C284.478 140.525 284.771 140.701 285.079 140.818C285.284 140.87 285.492 140.914 285.708 140.938C288.254 141.22 290.546 139.387 290.829 136.842C290.934 135.892 290.744 134.978 290.332 134.191C289.975 133.509 289.428 132.948 288.793 132.512C288.651 132.414 288.508 132.317 288.364 132.222L288.303 132.181Z" fill="white"/>
<path d="M284.743 146.332C284.843 146.223 284.944 146.115 285.045 146.005C288.144 142.631 288.833 141.697 288.833 141.697C289.436 140.927 289.996 140.126 290.518 139.306C290.721 138.987 290.918 138.665 291.109 138.341C291.34 137.832 291.487 137.276 291.521 136.684C291.665 134.128 289.71 131.938 287.154 131.793C285.158 131.68 283.391 132.849 282.64 134.582C282.545 134.897 282.448 135.212 282.348 135.525C281.322 138.726 280.87 139.039 279.728 142.337C279.689 142.402 279.653 142.47 279.619 142.538C279.614 142.547 279.611 142.555 279.606 142.563C279.582 142.613 279.562 142.666 279.541 142.717C279.399 143.051 279.308 143.412 279.287 143.795C279.186 145.581 280.552 147.111 282.338 147.212C283.263 147.265 284.118 146.921 284.743 146.332Z" fill="white"/>
<path d="M276.73 144.529C277.846 145.169 279.385 145.872 281.04 146.558C281.184 146.618 282.221 147.071 283.548 146.762C285.378 146.335 286.351 144.304 285.797 142.508C285.409 141.248 284.355 140.377 283.141 140.16C283.062 140.146 279.851 139.79 278.403 139.584C271.637 138.622 271.53 141.546 276.73 144.529Z" fill="white"/>
<path d="M274.799 133.248C266.229 132.398 262.997 133.622 263.387 135.667C263.777 137.711 268.794 139.564 275.428 139.27C282.061 138.976 284.486 134.21 274.799 133.248Z" fill="white"/>
<path d="M255.762 136.401C257.029 137.645 266.088 138.734 269.334 139.074C278.712 140.053 280.203 139.527 280.203 139.527" stroke="#462683" stroke-width="1.33335" stroke-linecap="round" stroke-linejoin="round"/>
<path d="M319.298 156.419L326.424 81.1166L326.432 81.0346L326.581 80.9495L353.094 66.6714L345.743 149.152L319.298 156.419Z" fill="white"/>
<path d="M319.3 156.419L326.426 81.1166L326.434 81.0346L326.583 80.9495L352.974 65.9885L345.746 149.152" stroke="#462683" stroke-width="4.4445" stroke-linecap="round" stroke-linejoin="round"/>
<path d="M344.766 146.536C346.12 146.486 347.258 147.543 347.309 148.897C347.351 150.031 346.609 151.046 345.516 151.351L265.775 173.687C264.47 174.052 263.116 173.291 262.75 171.986C262.385 170.681 263.146 169.326 264.451 168.961L344.193 146.625C344.379 146.573 344.572 146.542 344.766 146.535" fill="#462683"/>
<path d="M344.766 146.536C346.12 146.486 347.258 147.543 347.309 148.897C347.351 150.031 346.609 151.046 345.516 151.351L265.775 173.687C264.47 174.052 263.116 173.291 262.75 171.986C262.385 170.681 263.146 169.326 264.451 168.961L344.193 146.625C344.379 146.573 344.572 146.542 344.766 146.535" stroke="#462683" stroke-width="2.0741"/>
<path d="M265.203 173.777C263.849 173.829 262.709 172.773 262.657 171.419C262.613 170.283 263.356 169.265 264.451 168.961L344.192 146.625C345.497 146.26 346.852 147.021 347.217 148.326C347.583 149.631 346.821 150.985 345.516 151.351L265.775 173.687C265.588 173.739 265.397 173.769 265.203 173.777Z" fill="#462683"/>
<path d="M341.91 148.999C342.398 148.981 342.807 149.362 342.826 149.849C342.844 150.337 342.463 150.747 341.976 150.765C341.488 150.783 341.078 150.402 341.06 149.915C341.042 149.427 341.423 149.018 341.91 148.999Z" fill="#D8C5F3"/>
<path d="M337.951 150.914L332.117 152.505" stroke="#D8C5F3" stroke-width="2.3704" stroke-linecap="round" stroke-linejoin="round"/>
<path d="M342.857 83.5178L328.806 90.6957L328.604 94.4824L342.571 87.2506L342.857 83.5178Z" fill="#D8C5F3"/>
<path d="M338.406 91.5016L328.125 96.6458L328.058 98.8285L338.393 93.6559L338.406 91.5016Z" fill="#D8C5F3"/>
<path d="M347.372 86.9364L339.392 91.1241L339.38 93.3057L347.31 89.3951L347.372 86.9364Z" fill="#D8C5F3"/>
<path d="M336.404 96.566L327.625 100.852L327.531 103.118L336.395 98.9402L336.404 96.566Z" fill="#D8C5F3"/>
<path d="M342.557 93.5463L337.365 96.271L337.326 98.5362L342.526 96.1696L342.557 93.5463Z" fill="#D8C5F3"/>
<path d="M332.368 110.12L326.563 112.608L326.497 114.846L332.356 112.356L332.368 110.12Z" fill="#D8C5F3"/>
<path d="M343.675 105.369L333.38 109.74L333.368 111.977L343.53 107.829L343.675 105.369Z" fill="#D8C5F3"/>
<path d="M334.887 113.3L326.15 116.868L326.085 119.188L334.962 115.701L334.887 113.3Z" fill="#D8C5F3"/>
<path d="M341.107 111.024L335.871 112.922L335.919 115.378L341.15 113.204L341.107 111.024Z" fill="#D8C5F3"/>
<path d="M339.612 122.042L325.298 127.044L325.102 131.107L339.453 126.546L339.612 122.042Z" fill="#D8C5F3"/>
<path d="M335.214 130.079L324.514 133.52L324.395 135.869L335.098 132.594L335.214 130.079Z" fill="#D8C5F3"/>
<path d="M344.054 127.366L336.206 129.784L336.143 132.243L343.995 129.962L344.054 127.366Z" fill="#D8C5F3"/>
<path d="M332.947 135.425L324.001 138.168L323.961 140.406L332.942 137.965L332.947 135.425Z" fill="#D8C5F3"/>
<path d="M339.287 133.561L334.074 135.21L334.066 137.612L339.366 136.155L339.287 133.561Z" fill="#D8C5F3"/>
</g>
<g clip-path="url(#clip1_286_1354)">
<path d="M675.114 109.019H377.02V407.113H675.114V109.019Z" fill="white"/>
<path d="M473.697 125.132H465.641V133.188H473.697V125.132Z" fill="#462683"/>
<path d="M489.811 125.132H481.754V133.188H489.811V125.132Z" fill="#462683"/>
<path d="M538.15 125.132H530.094V133.188H538.15V125.132Z" fill="#462683"/>
<path d="M546.209 125.132H538.152V133.188H546.209V125.132Z" fill="#462683"/>
<path d="M554.264 125.132H546.207V133.188H554.264V125.132Z" fill="#462683"/>
<path d="M570.377 125.132H562.32V133.188H570.377V125.132Z" fill="#462683"/>
<path d="M578.436 125.132H570.379V133.188H578.436V125.132Z" fill="#462683"/>
<path d="M594.549 125.132H586.492V133.188H594.549V125.132Z" fill="#462683"/>
<path d="M473.697 133.188H465.641V141.245H473.697V133.188Z" fill="#462683"/>
<path d="M481.756 133.188H473.699V141.245H481.756V133.188Z" fill="#462683"/>
<path d="M505.924 133.188H497.867V141.245H505.924V133.188Z" fill="#462683"/>
<path d="M513.982 133.188H505.926V141.245H513.982V133.188Z" fill="#462683"/>
<path d="M522.037 133.188H513.98V141.245H522.037V133.188Z" fill="#462683"/>
<path d="M562.322 133.188H554.266V141.245H562.322V133.188Z" fill="#462683"/>
<path d="M570.377 133.188H562.32V141.245H570.377V133.188Z" fill="#462683"/>
<path d="M594.549 133.188H586.492V141.245H594.549V133.188Z" fill="#462683"/>
<path d="M465.643 141.245H457.586V149.302H465.643V141.245Z" fill="#462683"/>
<path d="M473.697 141.245H465.641V149.302H473.697V141.245Z" fill="#462683"/>
<path d="M481.756 141.245H473.699V149.302H481.756V141.245Z" fill="#462683"/>
<path d="M489.811 141.245H481.754V149.302H489.811V141.245Z" fill="#462683"/>
<path d="M522.037 141.245H513.98V149.302H522.037V141.245Z" fill="#462683"/>
<path d="M546.209 141.245H538.152V149.302H546.209V141.245Z" fill="#462683"/>
<path d="M554.264 141.245H546.207V149.302H554.264V141.245Z" fill="#462683"/>
<path d="M570.377 141.245H562.32V149.302H570.377V141.245Z" fill="#462683"/>
<path d="M586.49 141.245H578.434V149.302H586.49V141.245Z" fill="#462683"/>
<path d="M594.549 141.245H586.492V149.302H594.549V141.245Z" fill="#462683"/>
<path d="M465.643 149.302H457.586V157.358H465.643V149.302Z" fill="#462683"/>
<path d="M473.697 149.302H465.641V157.358H473.697V149.302Z" fill="#462683"/>
<path d="M505.924 149.302H497.867V157.358H505.924V149.302Z" fill="#462683"/>
<path d="M513.982 149.302H505.926V157.358H513.982V149.302Z" fill="#462683"/>
<path d="M530.096 149.302H522.039V157.358H530.096V149.302Z" fill="#462683"/>
<path d="M538.15 149.302H530.094V157.358H538.15V149.302Z" fill="#462683"/>
<path d="M546.209 149.302H538.152V157.358H546.209V149.302Z" fill="#462683"/>
<path d="M554.264 149.302H546.207V157.358H554.264V149.302Z" fill="#462683"/>
<path d="M562.322 149.302H554.266V157.358H562.322V149.302Z" fill="#462683"/>
<path d="M570.377 149.302H562.32V157.358H570.377V149.302Z" fill="#462683"/>
<path d="M586.49 149.302H578.434V157.358H586.49V149.302Z" fill="#462683"/>
<path d="M594.549 149.302H586.492V157.358H594.549V149.302Z" fill="#462683"/>
<path d="M497.869 157.358H489.812V165.415H497.869V157.358Z" fill="#462683"/>
<path d="M505.924 157.358H497.867V165.415H505.924V157.358Z" fill="#462683"/>
<path d="M513.982 157.358H505.926V165.415H513.982V157.358Z" fill="#462683"/>
<path d="M530.096 157.358H522.039V165.415H530.096V157.358Z" fill="#462683"/>
<path d="M546.209 157.358H538.152V165.415H546.209V157.358Z" fill="#462683"/>
<path d="M562.322 157.358H554.266V165.415H562.322V157.358Z" fill="#462683"/>
<path d="M570.377 157.358H562.32V165.415H570.377V157.358Z" fill="#462683"/>
<path d="M586.49 157.358H578.434V165.415H586.49V157.358Z" fill="#462683"/>
<path d="M489.811 165.415H481.754V173.472H489.811V165.415Z" fill="#462683"/>
<path d="M505.924 165.415H497.867V173.472H505.924V165.415Z" fill="#462683"/>
<path d="M513.982 165.415H505.926V173.472H513.982V165.415Z" fill="#462683"/>
<path d="M530.096 165.415H522.039V173.472H530.096V165.415Z" fill="#462683"/>
<path d="M562.322 165.415H554.266V173.472H562.322V165.415Z" fill="#462683"/>
<path d="M594.549 165.415H586.492V173.472H594.549V165.415Z" fill="#462683"/>
<path d="M465.643 173.472H457.586V181.528H465.643V173.472Z" fill="#462683"/>
<path d="M481.756 173.472H473.699V181.528H481.756V173.472Z" fill="#462683"/>
<path d="M497.869 173.472H489.812V181.528H497.869V173.472Z" fill="#462683"/>
<path d="M513.982 173.472H505.926V181.528H513.982V173.472Z" fill="#462683"/>
<path d="M530.096 173.472H522.039V181.528H530.096V173.472Z" fill="#462683"/>
<path d="M546.209 173.472H538.152V181.528H546.209V173.472Z" fill="#462683"/>
<path d="M562.322 173.472H554.266V181.528H562.322V173.472Z" fill="#462683"/>
<path d="M578.436 173.472H570.379V181.528H578.436V173.472Z" fill="#462683"/>
<path d="M594.549 173.472H586.492V181.528H594.549V173.472Z" fill="#462683"/>
<path d="M481.756 181.528H473.699V189.585H481.756V181.528Z" fill="#462683"/>
<path d="M522.037 181.528H513.98V189.585H522.037V181.528Z" fill="#462683"/>
<path d="M530.096 181.528H522.039V189.585H530.096V181.528Z" fill="#462683"/>
<path d="M578.436 181.528H570.379V189.585H578.436V181.528Z" fill="#462683"/>
<path d="M586.49 181.528H578.434V189.585H586.49V181.528Z" fill="#462683"/>
<path d="M425.361 189.584H417.305V197.641H425.361V189.584Z" fill="#462683"/>
<path d="M433.416 189.584H425.359V197.641H433.416V189.584Z" fill="#462683"/>
<path d="M449.529 189.584H441.473V197.641H449.529V189.584Z" fill="#462683"/>
<path d="M457.588 189.585H449.531V197.642H457.588V189.585Z" fill="#462683"/>
<path d="M489.811 189.585H481.754V197.642H489.811V189.585Z" fill="#462683"/>
<path d="M497.869 189.585H489.812V197.642H497.869V189.585Z" fill="#462683"/>
<path d="M505.924 189.585H497.867V197.642H505.924V189.585Z" fill="#462683"/>
<path d="M513.982 189.585H505.926V197.642H513.982V189.585Z" fill="#462683"/>
<path d="M522.037 189.585H513.98V197.642H522.037V189.585Z" fill="#462683"/>
<path d="M530.096 189.585H522.039V197.642H530.096V189.585Z" fill="#462683"/>
<path d="M546.209 189.585H538.152V197.642H546.209V189.585Z" fill="#462683"/>
<path d="M562.322 189.585H554.266V197.642H562.322V189.585Z" fill="#462683"/>
<path d="M586.49 189.585H578.434V197.642H586.49V189.585Z" fill="#462683"/>
<path d="M594.549 189.585H586.492V197.642H594.549V189.585Z" fill="#462683"/>
<path d="M634.83 189.585H626.773V197.642H634.83V189.585Z" fill="#462683"/>
<path d="M642.889 189.585H634.832V197.642H642.889V189.585Z" fill="#462683"/>
<path d="M409.244 197.641H401.188V205.698H409.244V197.641Z" fill="#462683"/>
<path d="M433.416 197.641H425.359V205.698H433.416V197.641Z" fill="#462683"/>
<path d="M441.471 197.641H433.414V205.698H441.471V197.641Z" fill="#462683"/>
<path d="M465.643 197.642H457.586V205.698H465.643V197.642Z" fill="#462683"/>
<path d="M497.869 197.642H489.812V205.698H497.869V197.642Z" fill="#462683"/>
<path d="M505.924 197.642H497.867V205.698H505.924V197.642Z" fill="#462683"/>
<path d="M513.982 197.642H505.926V205.698H513.982V197.642Z" fill="#462683"/>
<path d="M530.096 197.642H522.039V205.698H530.096V197.642Z" fill="#462683"/>
<path d="M546.209 197.642H538.152V205.698H546.209V197.642Z" fill="#462683"/>
<path d="M586.49 197.642H578.434V205.698H586.49V197.642Z" fill="#462683"/>
<path d="M602.603 197.642H594.547V205.698H602.603V197.642Z" fill="#462683"/>
<path d="M618.717 197.642H610.66V205.698H618.717V197.642Z" fill="#462683"/>
<path d="M626.775 197.642H618.719V205.698H626.775V197.642Z" fill="#462683"/>
<path d="M634.83 197.642H626.773V205.698H634.83V197.642Z" fill="#462683"/>
<path d="M642.889 197.642H634.832V205.698H642.889V197.642Z" fill="#462683"/>
<path d="M650.943 197.642H642.887V205.698H650.943V197.642Z" fill="#462683"/>
<path d="M401.189 205.698H393.133V213.754H401.189V205.698Z" fill="#462683"/>
<path d="M433.416 205.698H425.359V213.754H433.416V205.698Z" fill="#462683"/>
<path d="M449.529 205.698H441.473V213.754H449.529V205.698Z" fill="#462683"/>
<path d="M489.811 205.698H481.754V213.755H489.811V205.698Z" fill="#462683"/>
<path d="M497.869 205.698H489.812V213.755H497.869V205.698Z" fill="#462683"/>
<path d="M522.037 205.698H513.98V213.755H522.037V205.698Z" fill="#462683"/>
<path d="M546.209 205.698H538.152V213.755H546.209V205.698Z" fill="#462683"/>
<path d="M570.377 205.698H562.32V213.755H570.377V205.698Z" fill="#462683"/>
<path d="M586.49 205.698H578.434V213.755H586.49V205.698Z" fill="#462683"/>
<path d="M602.603 205.698H594.547V213.755H602.603V205.698Z" fill="#462683"/>
<path d="M618.717 205.698H610.66V213.755H618.717V205.698Z" fill="#462683"/>
<path d="M642.889 205.698H634.832V213.755H642.889V205.698Z" fill="#462683"/>
<path d="M650.943 205.698H642.887V213.755H650.943V205.698Z" fill="#462683"/>
<path d="M659.002 205.698H650.945V213.755H659.002V205.698Z" fill="#462683"/>
<path d="M409.244 213.754H401.188V221.811H409.244V213.754Z" fill="#462683"/>
<path d="M417.303 213.754H409.246V221.811H417.303V213.754Z" fill="#462683"/>
<path d="M433.416 213.754H425.359V221.811H433.416V213.754Z" fill="#462683"/>
<path d="M473.697 213.754H465.641V221.811H473.697V213.754Z" fill="#462683"/>
<path d="M481.756 213.754H473.699V221.811H481.756V213.754Z" fill="#462683"/>
<path d="M497.869 213.754H489.812V221.811H497.869V213.754Z" fill="#462683"/>
<path d="M505.924 213.754H497.867V221.811H505.924V213.754Z" fill="#462683"/>
<path d="M538.15 213.754H530.094V221.811H538.15V213.754Z" fill="#462683"/>
<path d="M554.264 213.754H546.207V221.811H554.264V213.754Z" fill="#462683"/>
<path d="M594.549 213.754H586.492V221.811H594.549V213.754Z" fill="#462683"/>
<path d="M610.662 213.754H602.605V221.811H610.662V213.754Z" fill="#462683"/>
<path d="M618.717 213.754H610.66V221.811H618.717V213.754Z" fill="#462683"/>
<path d="M626.775 213.754H618.719V221.811H626.775V213.754Z" fill="#462683"/>
<path d="M634.83 213.754H626.773V221.811H634.83V213.754Z" fill="#462683"/>
<path d="M642.889 213.754H634.832V221.811H642.889V213.754Z" fill="#462683"/>
<path d="M650.943 213.754H642.887V221.811H650.943V213.754Z" fill="#462683"/>
<path d="M659.002 213.754H650.945V221.811H659.002V213.754Z" fill="#462683"/>
<path d="M425.361 221.811H417.305V229.868H425.361V221.811Z" fill="#462683"/>
<path d="M433.416 221.811H425.359V229.868H433.416V221.811Z" fill="#462683"/>
<path d="M449.529 221.811H441.473V229.868H449.529V221.811Z" fill="#462683"/>
<path d="M457.588 221.811H449.531V229.868H457.588V221.811Z" fill="#462683"/>
<path d="M465.643 221.811H457.586V229.868H465.643V221.811Z" fill="#462683"/>
<path d="M513.982 221.811H505.926V229.868H513.982V221.811Z" fill="#462683"/>
<path d="M530.096 221.811H522.039V229.868H530.096V221.811Z" fill="#462683"/>
<path d="M546.209 221.811H538.152V229.868H546.209V221.811Z" fill="#462683"/>
<path d="M554.264 221.811H546.207V229.868H554.264V221.811Z" fill="#462683"/>
<path d="M562.322 221.811H554.266V229.868H562.322V221.811Z" fill="#462683"/>
<path d="M570.377 221.811H562.32V229.868H570.377V221.811Z" fill="#462683"/>
<path d="M578.436 221.811H570.379V229.868H578.436V221.811Z" fill="#462683"/>
<path d="M594.549 221.811H586.492V229.868H594.549V221.811Z" fill="#462683"/>
<path d="M610.662 221.811H602.605V229.868H610.662V221.811Z" fill="#462683"/>
<path d="M618.717 221.811H610.66V229.868H618.717V221.811Z" fill="#462683"/>
<path d="M626.775 221.811H618.719V229.868H626.775V221.811Z" fill="#462683"/>
<path d="M634.83 221.811H626.773V229.868H634.83V221.811Z" fill="#462683"/>
<path d="M659.002 221.811H650.945V229.868H659.002V221.811Z" fill="#462683"/>
<path d="M401.189 229.868H393.133V237.924H401.189V229.868Z" fill="#462683"/>
<path d="M409.244 229.868H401.188V237.924H409.244V229.868Z" fill="#462683"/>
<path d="M425.361 229.868H417.305V237.924H425.361V229.868Z" fill="#462683"/>
<path d="M489.811 229.868H481.754V237.924H489.811V229.868Z" fill="#462683"/>
<path d="M522.037 229.868H513.98V237.924H522.037V229.868Z" fill="#462683"/>
<path d="M530.096 229.868H522.039V237.924H530.096V229.868Z" fill="#462683"/>
<path d="M538.15 229.868H530.094V237.924H538.15V229.868Z" fill="#462683"/>
<path d="M554.264 229.868H546.207V237.924H554.264V229.868Z" fill="#462683"/>
<path d="M570.377 229.868H562.32V237.924H570.377V229.868Z" fill="#462683"/>
<path d="M578.436 229.868H570.379V237.924H578.436V229.868Z" fill="#462683"/>
<path d="M586.49 229.868H578.434V237.924H586.49V229.868Z" fill="#462683"/>
<path d="M642.889 229.868H634.832V237.924H642.889V229.868Z" fill="#462683"/>
<path d="M650.943 229.868H642.887V237.924H650.943V229.868Z" fill="#462683"/>
<path d="M409.244 237.924H401.188V245.981H409.244V237.924Z" fill="#462683"/>
<path d="M417.303 237.924H409.246V245.981H417.303V237.924Z" fill="#462683"/>
<path d="M425.361 237.924H417.305V245.981H425.361V237.924Z" fill="#462683"/>
<path d="M433.416 237.924H425.359V245.981H433.416V237.924Z" fill="#462683"/>
<path d="M449.529 237.924H441.473V245.981H449.529V237.924Z" fill="#462683"/>
<path d="M457.588 237.924H449.531V245.981H457.588V237.924Z" fill="#462683"/>
<path d="M489.811 237.924H481.754V245.981H489.811V237.924Z" fill="#462683"/>
<path d="M497.869 237.924H489.812V245.981H497.869V237.924Z" fill="#462683"/>
<path d="M546.209 237.924H538.152V245.981H546.209V237.924Z" fill="#462683"/>
<path d="M562.322 237.924H554.266V245.981H562.322V237.924Z" fill="#462683"/>
<path d="M594.549 237.924H586.492V245.981H594.549V237.924Z" fill="#462683"/>
<path d="M610.662 237.924H602.605V245.981H610.662V237.924Z" fill="#462683"/>
<path d="M626.775 237.924H618.719V245.981H626.775V237.924Z" fill="#462683"/>
<path d="M634.83 237.924H626.773V245.981H634.83V237.924Z" fill="#462683"/>
<path d="M409.244 245.981H401.188V254.038H409.244V245.981Z" fill="#462683"/>
<path d="M417.303 245.981H409.246V254.038H417.303V245.981Z" fill="#462683"/>
<path d="M425.361 245.981H417.305V254.038H425.361V245.981Z" fill="#462683"/>
<path d="M441.471 245.981H433.414V254.038H441.471V245.981Z" fill="#462683"/>
<path d="M505.924 245.98H497.867V254.037H505.924V245.98Z" fill="#462683"/>
<path d="M513.982 245.98H505.926V254.037H513.982V245.98Z" fill="#462683"/>
<path d="M530.096 245.98H522.039V254.037H530.096V245.98Z" fill="#462683"/>
<path d="M538.15 245.98H530.094V254.037H538.15V245.98Z" fill="#462683"/>
<path d="M554.264 245.98H546.207V254.037H554.264V245.98Z" fill="#462683"/>
<path d="M586.49 245.98H578.434V254.037H586.49V245.98Z" fill="#462683"/>
<path d="M594.549 245.98H586.492V254.037H594.549V245.98Z" fill="#462683"/>
<path d="M602.603 245.98H594.547V254.037H602.603V245.98Z" fill="#462683"/>
<path d="M618.717 245.98H610.66V254.037H618.717V245.98Z" fill="#462683"/>
<path d="M634.83 245.98H626.773V254.037H634.83V245.98Z" fill="#462683"/>
<path d="M642.889 245.98H634.832V254.037H642.889V245.98Z" fill="#462683"/>
<path d="M650.943 245.98H642.887V254.037H650.943V245.98Z" fill="#462683"/>
<path d="M659.002 245.98H650.945V254.037H659.002V245.98Z" fill="#462683"/>
<path d="M401.189 254.038H393.133V262.094H401.189V254.038Z" fill="#462683"/>
<path d="M409.244 254.038H401.188V262.094H409.244V254.038Z" fill="#462683"/>
<path d="M433.416 254.038H425.359V262.094H433.416V254.038Z" fill="#462683"/>
<path d="M449.529 254.038H441.473V262.094H449.529V254.038Z" fill="#462683"/>
<path d="M457.588 254.037H449.531V262.094H457.588V254.037Z" fill="#462683"/>
<path d="M473.697 254.037H465.641V262.094H473.697V254.037Z" fill="#462683"/>
<path d="M481.756 254.037H473.699V262.094H481.756V254.037Z" fill="#462683"/>
<path d="M505.924 254.037H497.867V262.094H505.924V254.037Z" fill="#462683"/>
<path d="M530.096 254.037H522.039V262.094H530.096V254.037Z" fill="#462683"/>
<path d="M546.209 254.037H538.152V262.094H546.209V254.037Z" fill="#462683"/>
<path d="M554.264 254.037H546.207V262.094H554.264V254.037Z" fill="#462683"/>
<path d="M586.49 254.037H578.434V262.094H586.49V254.037Z" fill="#462683"/>
<path d="M602.603 254.037H594.547V262.094H602.603V254.037Z" fill="#462683"/>
<path d="M610.662 254.037H602.605V262.094H610.662V254.037Z" fill="#462683"/>
<path d="M618.717 254.037H610.66V262.094H618.717V254.037Z" fill="#462683"/>
<path d="M626.775 254.037H618.719V262.094H626.775V254.037Z" fill="#462683"/>
<path d="M634.83 254.037H626.773V262.094H634.83V254.037Z" fill="#462683"/>
<path d="M650.943 254.037H642.887V262.094H650.943V254.037Z" fill="#462683"/>
<path d="M401.189 262.094H393.133V270.151H401.189V262.094Z" fill="#462683"/>
<path d="M425.361 262.094H417.305V270.151H425.361V262.094Z" fill="#462683"/>
<path d="M441.471 262.094H433.414V270.151H441.471V262.094Z" fill="#462683"/>
<path d="M465.643 262.094H457.586V270.15H465.643V262.094Z" fill="#462683"/>
<path d="M473.697 262.094H465.641V270.15H473.697V262.094Z" fill="#462683"/>
<path d="M489.811 262.094H481.754V270.15H489.811V262.094Z" fill="#462683"/>
<path d="M497.869 262.094H489.812V270.15H497.869V262.094Z" fill="#462683"/>
<path d="M513.982 262.094H505.926V270.15H513.982V262.094Z" fill="#462683"/>
<path d="M538.15 262.094H530.094V270.15H538.15V262.094Z" fill="#462683"/>
<path d="M546.209 262.094H538.152V270.15H546.209V262.094Z" fill="#462683"/>
<path d="M562.322 262.094H554.266V270.15H562.322V262.094Z" fill="#462683"/>
<path d="M570.377 262.094H562.32V270.15H570.377V262.094Z" fill="#462683"/>
<path d="M578.436 262.094H570.379V270.15H578.436V262.094Z" fill="#462683"/>
<path d="M594.549 262.094H586.492V270.15H594.549V262.094Z" fill="#462683"/>
<path d="M610.662 262.094H602.605V270.15H610.662V262.094Z" fill="#462683"/>
<path d="M618.717 262.094H610.66V270.15H618.717V262.094Z" fill="#462683"/>
<path d="M626.775 262.094H618.719V270.15H626.775V262.094Z" fill="#462683"/>
<path d="M634.83 262.094H626.773V270.15H634.83V262.094Z" fill="#462683"/>
<path d="M659.002 262.094H650.945V270.15H659.002V262.094Z" fill="#462683"/>
<path d="M409.244 270.151H401.188V278.207H409.244V270.151Z" fill="#462683"/>
<path d="M425.361 270.151H417.305V278.207H425.361V270.151Z" fill="#462683"/>
<path d="M433.416 270.151H425.359V278.207H433.416V270.151Z" fill="#462683"/>
<path d="M441.471 270.151H433.414V278.207H441.471V270.151Z" fill="#462683"/>
<path d="M449.529 270.151H441.473V278.207H449.529V270.151Z" fill="#462683"/>
<path d="M457.588 270.15H449.531V278.207H457.588V270.15Z" fill="#462683"/>
<path d="M473.697 270.15H465.641V278.207H473.697V270.15Z" fill="#462683"/>
<path d="M489.811 270.15H481.754V278.207H489.811V270.15Z" fill="#462683"/>
<path d="M505.924 270.15H497.867V278.207H505.924V270.15Z" fill="#462683"/>
<path d="M522.037 270.15H513.98V278.207H522.037V270.15Z" fill="#462683"/>
<path d="M538.15 270.15H530.094V278.207H538.15V270.15Z" fill="#462683"/>
<path d="M562.322 270.15H554.266V278.207H562.322V270.15Z" fill="#462683"/>
<path d="M586.49 270.15H578.434V278.207H586.49V270.15Z" fill="#462683"/>
<path d="M626.775 270.15H618.719V278.207H626.775V270.15Z" fill="#462683"/>
<path d="M634.83 270.15H626.773V278.207H634.83V270.15Z" fill="#462683"/>
<path d="M642.889 270.15H634.832V278.207H642.889V270.15Z" fill="#462683"/>
<path d="M659.002 270.15H650.945V278.207H659.002V270.15Z" fill="#462683"/>
<path d="M401.189 278.208H393.133V286.264H401.189V278.208Z" fill="#462683"/>
<path d="M409.244 278.208H401.188V286.264H409.244V278.208Z" fill="#462683"/>
<path d="M425.361 278.208H417.305V286.264H425.361V278.208Z" fill="#462683"/>
<path d="M441.471 278.208H433.414V286.264H441.471V278.208Z" fill="#462683"/>
<path d="M457.588 278.207H449.531V286.264H457.588V278.207Z" fill="#462683"/>
<path d="M473.697 278.207H465.641V286.264H473.697V278.207Z" fill="#462683"/>
<path d="M489.811 278.207H481.754V286.264H489.811V278.207Z" fill="#462683"/>
<path d="M497.869 278.207H489.812V286.264H497.869V278.207Z" fill="#462683"/>
<path d="M505.924 278.207H497.867V286.264H505.924V278.207Z" fill="#462683"/>
<path d="M522.037 278.207H513.98V286.264H522.037V278.207Z" fill="#462683"/>
<path d="M538.15 278.207H530.094V286.264H538.15V278.207Z" fill="#462683"/>
<path d="M554.264 278.207H546.207V286.264H554.264V278.207Z" fill="#462683"/>
<path d="M578.436 278.207H570.379V286.264H578.436V278.207Z" fill="#462683"/>
<path d="M586.49 278.207H578.434V286.264H586.49V278.207Z" fill="#462683"/>
<path d="M594.549 278.207H586.492V286.264H594.549V278.207Z" fill="#462683"/>
<path d="M602.603 278.207H594.547V286.264H602.603V278.207Z" fill="#462683"/>
<path d="M618.717 278.207H610.66V286.264H618.717V278.207Z" fill="#462683"/>
<path d="M626.775 278.207H618.719V286.264H626.775V278.207Z" fill="#462683"/>
<path d="M634.83 278.207H626.773V286.264H634.83V278.207Z" fill="#462683"/>
<path d="M642.889 278.207H634.832V286.264H642.889V278.207Z" fill="#462683"/>
<path d="M650.943 278.207H642.887V286.264H650.943V278.207Z" fill="#462683"/>
<path d="M409.244 286.264H401.188V294.32H409.244V286.264Z" fill="#462683"/>
<path d="M425.361 286.264H417.305V294.32H425.361V286.264Z" fill="#462683"/>
<path d="M449.529 286.264H441.473V294.32H449.529V286.264Z" fill="#462683"/>
<path d="M457.588 286.264H449.531V294.32H457.588V286.264Z" fill="#462683"/>
<path d="M473.697 286.264H465.641V294.32H473.697V286.264Z" fill="#462683"/>
<path d="M481.756 286.264H473.699V294.32H481.756V286.264Z" fill="#462683"/>
<path d="M497.869 286.264H489.812V294.32H497.869V286.264Z" fill="#462683"/>
<path d="M505.924 286.264H497.867V294.32H505.924V286.264Z" fill="#462683"/>
<path d="M513.982 286.264H505.926V294.32H513.982V286.264Z" fill="#462683"/>
<path d="M522.037 286.264H513.98V294.32H522.037V286.264Z" fill="#462683"/>
<path d="M554.264 286.264H546.207V294.32H554.264V286.264Z" fill="#462683"/>
<path d="M562.322 286.264H554.266V294.32H562.322V286.264Z" fill="#462683"/>
<path d="M610.662 286.264H602.605V294.32H610.662V286.264Z" fill="#462683"/>
<path d="M618.717 286.264H610.66V294.32H618.717V286.264Z" fill="#462683"/>
<path d="M634.83 286.264H626.773V294.32H634.83V286.264Z" fill="#462683"/>
<path d="M659.002 286.264H650.945V294.32H659.002V286.264Z" fill="#462683"/>
<path d="M401.189 294.32H393.133V302.377H401.189V294.32Z" fill="#462683"/>
<path d="M409.244 294.32H401.188V302.377H409.244V294.32Z" fill="#462683"/>
<path d="M433.416 294.32H425.359V302.377H433.416V294.32Z" fill="#462683"/>
<path d="M457.588 294.32H449.531V302.377H457.588V294.32Z" fill="#462683"/>
<path d="M497.869 294.32H489.812V302.377H497.869V294.32Z" fill="#462683"/>
<path d="M522.037 294.32H513.98V302.377H522.037V294.32Z" fill="#462683"/>
<path d="M538.15 294.32H530.094V302.377H538.15V294.32Z" fill="#462683"/>
<path d="M546.209 294.32H538.152V302.377H546.209V294.32Z" fill="#462683"/>
<path d="M554.264 294.32H546.207V302.377H554.264V294.32Z" fill="#462683"/>
<path d="M562.322 294.32H554.266V302.377H562.322V294.32Z" fill="#462683"/>
<path d="M570.377 294.32H562.32V302.377H570.377V294.32Z" fill="#462683"/>
<path d="M578.436 294.32H570.379V302.377H578.436V294.32Z" fill="#462683"/>
<path d="M594.549 294.32H586.492V302.377H594.549V294.32Z" fill="#462683"/>
<path d="M610.662 294.32H602.605V302.377H610.662V294.32Z" fill="#462683"/>
<path d="M626.775 294.32H618.719V302.377H626.775V294.32Z" fill="#462683"/>
<path d="M634.83 294.32H626.773V302.377H634.83V294.32Z" fill="#462683"/>
<path d="M642.889 294.32H634.832V302.377H642.889V294.32Z" fill="#462683"/>
<path d="M401.189 302.377H393.133V310.434H401.189V302.377Z" fill="#462683"/>
<path d="M425.361 302.377H417.305V310.434H425.361V302.377Z" fill="#462683"/>
<path d="M433.416 302.377H425.359V310.434H433.416V302.377Z" fill="#462683"/>
<path d="M441.471 302.377H433.414V310.434H441.471V302.377Z" fill="#462683"/>
<path d="M449.529 302.377H441.473V310.434H449.529V302.377Z" fill="#462683"/>
<path d="M457.588 302.377H449.531V310.434H457.588V302.377Z" fill="#462683"/>
<path d="M473.697 302.377H465.641V310.434H473.697V302.377Z" fill="#462683"/>
<path d="M481.756 302.377H473.699V310.434H481.756V302.377Z" fill="#462683"/>
<path d="M489.811 302.377H481.754V310.434H489.811V302.377Z" fill="#462683"/>
<path d="M497.869 302.377H489.812V310.434H497.869V302.377Z" fill="#462683"/>
<path d="M513.982 302.377H505.926V310.434H513.982V302.377Z" fill="#462683"/>
<path d="M522.037 302.377H513.98V310.434H522.037V302.377Z" fill="#462683"/>
<path d="M538.15 302.377H530.094V310.434H538.15V302.377Z" fill="#462683"/>
<path d="M546.209 302.377H538.152V310.434H546.209V302.377Z" fill="#462683"/>
<path d="M554.264 302.377H546.207V310.434H554.264V302.377Z" fill="#462683"/>
<path d="M570.377 302.377H562.32V310.434H570.377V302.377Z" fill="#462683"/>
<path d="M586.49 302.377H578.434V310.434H586.49V302.377Z" fill="#462683"/>
<path d="M610.662 302.377H602.605V310.434H610.662V302.377Z" fill="#462683"/>
<path d="M626.775 302.377H618.719V310.434H626.775V302.377Z" fill="#462683"/>
<path d="M650.943 302.377H642.887V310.434H650.943V302.377Z" fill="#462683"/>
<path d="M659.002 302.377H650.945V310.434H659.002V302.377Z" fill="#462683"/>
<path d="M401.189 310.434H393.133V318.49H401.189V310.434Z" fill="#462683"/>
<path d="M417.303 310.434H409.246V318.49H417.303V310.434Z" fill="#462683"/>
<path d="M425.361 310.434H417.305V318.49H425.361V310.434Z" fill="#462683"/>
<path d="M473.697 310.434H465.641V318.49H473.697V310.434Z" fill="#462683"/>
<path d="M489.811 310.434H481.754V318.49H489.811V310.434Z" fill="#462683"/>
<path d="M522.037 310.434H513.98V318.49H522.037V310.434Z" fill="#462683"/>
<path d="M530.096 310.434H522.039V318.49H530.096V310.434Z" fill="#462683"/>
<path d="M538.15 310.434H530.094V318.49H538.15V310.434Z" fill="#462683"/>
<path d="M554.264 310.434H546.207V318.49H554.264V310.434Z" fill="#462683"/>
<path d="M562.322 310.434H554.266V318.49H562.322V310.434Z" fill="#462683"/>
<path d="M586.49 310.434H578.434V318.49H586.49V310.434Z" fill="#462683"/>
<path d="M594.549 310.434H586.492V318.49H594.549V310.434Z" fill="#462683"/>
<path d="M618.717 310.434H610.66V318.49H618.717V310.434Z" fill="#462683"/>
<path d="M626.775 310.434H618.719V318.49H626.775V310.434Z" fill="#462683"/>
<path d="M642.889 310.434H634.832V318.49H642.889V310.434Z" fill="#462683"/>
<path d="M401.189 318.49H393.133V326.547H401.189V318.49Z" fill="#462683"/>
<path d="M409.244 318.49H401.188V326.547H409.244V318.49Z" fill="#462683"/>
<path d="M417.303 318.49H409.246V326.547H417.303V318.49Z" fill="#462683"/>
<path d="M425.361 318.49H417.305V326.547H425.361V318.49Z" fill="#462683"/>
<path d="M433.416 318.49H425.359V326.547H433.416V318.49Z" fill="#462683"/>
<path d="M449.529 318.49H441.473V326.547H449.529V318.49Z" fill="#462683"/>
<path d="M457.588 318.49H449.531V326.547H457.588V318.49Z" fill="#462683"/>
<path d="M497.869 318.49H489.812V326.547H497.869V318.49Z" fill="#462683"/>
<path d="M513.982 318.49H505.926V326.547H513.982V318.49Z" fill="#462683"/>
<path d="M522.037 318.49H513.98V326.547H522.037V318.49Z" fill="#462683"/>
<path d="M578.436 318.49H570.379V326.547H578.436V318.49Z" fill="#462683"/>
<path d="M586.49 318.49H578.434V326.547H586.49V318.49Z" fill="#462683"/>
<path d="M594.549 318.49H586.492V326.547H594.549V318.49Z" fill="#462683"/>
<path d="M602.603 318.49H594.547V326.547H602.603V318.49Z" fill="#462683"/>
<path d="M610.662 318.49H602.605V326.547H610.662V318.49Z" fill="#462683"/>
<path d="M618.717 318.49H610.66V326.547H618.717V318.49Z" fill="#462683"/>
<path d="M626.775 318.49H618.719V326.547H626.775V318.49Z" fill="#462683"/>
<path d="M659.002 318.49H650.945V326.547H659.002V318.49Z" fill="#462683"/>
<path d="M465.643 326.547H457.586V334.603H465.643V326.547Z" fill="#462683"/>
<path d="M489.811 326.547H481.754V334.603H489.811V326.547Z" fill="#462683"/>
<path d="M505.924 326.547H497.867V334.603H505.924V326.547Z" fill="#462683"/>
<path d="M513.982 326.547H505.926V334.603H513.982V326.547Z" fill="#462683"/>
<path d="M522.037 326.547H513.98V334.603H522.037V326.547Z" fill="#462683"/>
<path d="M530.096 326.547H522.039V334.603H530.096V326.547Z" fill="#462683"/>
<path d="M554.264 326.547H546.207V334.603H554.264V326.547Z" fill="#462683"/>
<path d="M562.322 326.547H554.266V334.603H562.322V326.547Z" fill="#462683"/>
<path d="M570.377 326.547H562.32V334.603H570.377V326.547Z" fill="#462683"/>
<path d="M594.549 326.547H586.492V334.603H594.549V326.547Z" fill="#462683"/>
<path d="M626.775 326.547H618.719V334.603H626.775V326.547Z" fill="#462683"/>
<path d="M634.83 326.547H626.773V334.603H634.83V326.547Z" fill="#462683"/>
<path d="M465.643 334.604H457.586V342.66H465.643V334.604Z" fill="#462683"/>
<path d="M473.697 334.604H465.641V342.66H473.697V334.604Z" fill="#462683"/>
<path d="M505.924 334.604H497.867V342.66H505.924V334.604Z" fill="#462683"/>
<path d="M522.037 334.604H513.98V342.66H522.037V334.604Z" fill="#462683"/>
<path d="M530.096 334.604H522.039V342.66H530.096V334.604Z" fill="#462683"/>
<path d="M538.15 334.604H530.094V342.66H538.15V334.604Z" fill="#462683"/>
<path d="M562.322 334.604H554.266V342.66H562.322V334.604Z" fill="#462683"/>
<path d="M586.49 334.604H578.434V342.66H586.49V334.604Z" fill="#462683"/>
<path d="M594.549 334.604H586.492V342.66H594.549V334.604Z" fill="#462683"/>
<path d="M610.662 334.604H602.605V342.66H610.662V334.604Z" fill="#462683"/>
<path d="M626.775 334.604H618.719V342.66H626.775V334.604Z" fill="#462683"/>
<path d="M634.83 334.604H626.773V342.66H634.83V334.604Z" fill="#462683"/>
<path d="M642.889 334.604H634.832V342.66H642.889V334.604Z" fill="#462683"/>
<path d="M481.756 342.66H473.699V350.717H481.756V342.66Z" fill="#462683"/>
<path d="M505.924 342.66H497.867V350.717H505.924V342.66Z" fill="#462683"/>
<path d="M522.037 342.66H513.98V350.717H522.037V342.66Z" fill="#462683"/>
<path d="M530.096 342.66H522.039V350.717H530.096V342.66Z" fill="#462683"/>
<path d="M570.377 342.66H562.32V350.717H570.377V342.66Z" fill="#462683"/>
<path d="M578.436 342.66H570.379V350.717H578.436V342.66Z" fill="#462683"/>
<path d="M586.49 342.66H578.434V350.717H586.49V342.66Z" fill="#462683"/>
<path d="M594.549 342.66H586.492V350.717H594.549V342.66Z" fill="#462683"/>
<path d="M626.775 342.66H618.719V350.717H626.775V342.66Z" fill="#462683"/>
<path d="M634.83 342.66H626.773V350.717H634.83V342.66Z" fill="#462683"/>
<path d="M642.889 342.66H634.832V350.717H642.889V342.66Z" fill="#462683"/>
<path d="M650.943 342.66H642.887V350.717H650.943V342.66Z" fill="#462683"/>
<path d="M465.643 350.717H457.586V358.773H465.643V350.717Z" fill="#462683"/>
<path d="M473.697 350.717H465.641V358.773H473.697V350.717Z" fill="#462683"/>
<path d="M497.869 350.717H489.812V358.773H497.869V350.717Z" fill="#462683"/>
<path d="M505.924 350.717H497.867V358.773H505.924V350.717Z" fill="#462683"/>
<path d="M513.982 350.717H505.926V358.773H513.982V350.717Z" fill="#462683"/>
<path d="M562.322 350.717H554.266V358.773H562.322V350.717Z" fill="#462683"/>
<path d="M570.377 350.717H562.32V358.773H570.377V350.717Z" fill="#462683"/>
<path d="M578.436 350.717H570.379V358.773H578.436V350.717Z" fill="#462683"/>
<path d="M586.49 350.717H578.434V358.773H586.49V350.717Z" fill="#462683"/>
<path d="M594.549 350.717H586.492V358.773H594.549V350.717Z" fill="#462683"/>
<path d="M602.603 350.717H594.547V358.773H602.603V350.717Z" fill="#462683"/>
<path d="M610.662 350.717H602.605V358.773H610.662V350.717Z" fill="#462683"/>
<path d="M618.717 350.717H610.66V358.773H618.717V350.717Z" fill="#462683"/>
<path d="M626.775 350.717H618.719V358.773H626.775V350.717Z" fill="#462683"/>
<path d="M634.83 350.717H626.773V358.773H634.83V350.717Z" fill="#462683"/>
<path d="M650.943 350.717H642.887V358.773H650.943V350.717Z" fill="#462683"/>
<path d="M465.643 358.773H457.586V366.83H465.643V358.773Z" fill="#462683"/>
<path d="M473.697 358.773H465.641V366.83H473.697V358.773Z" fill="#462683"/>
<path d="M489.811 358.773H481.754V366.83H489.811V358.773Z" fill="#462683"/>
<path d="M497.869 358.773H489.812V366.83H497.869V358.773Z" fill="#462683"/>
<path d="M505.924 358.773H497.867V366.83H505.924V358.773Z" fill="#462683"/>
<path d="M513.982 358.773H505.926V366.83H513.982V358.773Z" fill="#462683"/>
<path d="M522.037 358.773H513.98V366.83H522.037V358.773Z" fill="#462683"/>
<path d="M530.096 358.773H522.039V366.83H530.096V358.773Z" fill="#462683"/>
<path d="M546.209 358.773H538.152V366.83H546.209V358.773Z" fill="#462683"/>
<path d="M562.322 358.773H554.266V366.83H562.322V358.773Z" fill="#462683"/>
<path d="M570.377 358.773H562.32V366.83H570.377V358.773Z" fill="#462683"/>
<path d="M578.436 358.773H570.379V366.83H578.436V358.773Z" fill="#462683"/>
<path d="M586.49 358.773H578.434V366.83H586.49V358.773Z" fill="#462683"/>
<path d="M602.603 358.773H594.547V366.83H602.603V358.773Z" fill="#462683"/>
<path d="M618.717 358.773H610.66V366.83H618.717V358.773Z" fill="#462683"/>
<path d="M650.943 358.773H642.887V366.83H650.943V358.773Z" fill="#462683"/>
<path d="M473.697 366.83H465.641V374.887H473.697V366.83Z" fill="#462683"/>
<path d="M489.811 366.83H481.754V374.887H489.811V366.83Z" fill="#462683"/>
<path d="M497.869 366.83H489.812V374.887H497.869V366.83Z" fill="#462683"/>
<path d="M513.982 366.83H505.926V374.887H513.982V366.83Z" fill="#462683"/>
<path d="M522.037 366.83H513.98V374.887H522.037V366.83Z" fill="#462683"/>
<path d="M538.15 366.83H530.094V374.887H538.15V366.83Z" fill="#462683"/>
<path d="M546.209 366.83H538.152V374.887H546.209V366.83Z" fill="#462683"/>
<path d="M578.436 366.83H570.379V374.887H578.436V366.83Z" fill="#462683"/>
<path d="M626.775 366.83H618.719V374.887H626.775V366.83Z" fill="#462683"/>
<path d="M650.943 366.83H642.887V374.887H650.943V366.83Z" fill="#462683"/>
<path d="M659.002 366.83H650.945V374.887H659.002V366.83Z" fill="#462683"/>
<path d="M497.869 374.887H489.812V382.943H497.869V374.887Z" fill="#462683"/>
<path d="M505.924 374.887H497.867V382.943H505.924V374.887Z" fill="#462683"/>
<path d="M513.982 374.887H505.926V382.943H513.982V374.887Z" fill="#462683"/>
<path d="M530.096 374.887H522.039V382.943H530.096V374.887Z" fill="#462683"/>
<path d="M554.264 374.887H546.207V382.943H554.264V374.887Z" fill="#462683"/>
<path d="M562.322 374.887H554.266V382.943H562.322V374.887Z" fill="#462683"/>
<path d="M570.377 374.887H562.32V382.943H570.377V374.887Z" fill="#462683"/>
<path d="M586.49 374.887H578.434V382.943H586.49V374.887Z" fill="#462683"/>
<path d="M602.603 374.887H594.547V382.943H602.603V374.887Z" fill="#462683"/>
<path d="M610.662 374.887H602.605V382.943H610.662V374.887Z" fill="#462683"/>
<path d="M634.83 374.887H626.773V382.943H634.83V374.887Z" fill="#462683"/>
<path d="M642.889 374.887H634.832V382.943H642.889V374.887Z" fill="#462683"/>
<path d="M650.943 374.887H642.887V382.943H650.943V374.887Z" fill="#462683"/>
<path d="M659.002 374.887H650.945V382.943H659.002V374.887Z" fill="#462683"/>
<path d="M659.002 383H650.945V391.057H659.002V383Z" fill="#462683"/>
<path d="M473.697 382.943H465.641V391H473.697V382.943Z" fill="#462683"/>
<path d="M481.756 382.943H473.699V391H481.756V382.943Z" fill="#462683"/>
<path d="M489.811 382.943H481.754V391H489.811V382.943Z" fill="#462683"/>
<path d="M497.869 382.943H489.812V391H497.869V382.943Z" fill="#462683"/>
<path d="M505.924 382.943H497.867V391H505.924V382.943Z" fill="#462683"/>
<path d="M546.209 382.943H538.152V391H546.209V382.943Z" fill="#462683"/>
<path d="M562.322 382.943H554.266V391H562.322V382.943Z" fill="#462683"/>
<path d="M570.377 382.943H562.32V391H570.377V382.943Z" fill="#462683"/>
<path d="M586.49 382.943H578.434V391H586.49V382.943Z" fill="#462683"/>
<path d="M594.549 382.943H586.492V391H594.549V382.943Z" fill="#462683"/>
<path d="M626.775 382.943H618.719V391H626.775V382.943Z" fill="#462683"/>
<path d="M441.07 125.132H401.592H393.133V133.591V173.069V181.528H401.592H441.07H449.529V173.069V133.591V125.132H441.07ZM441.07 173.069H401.592V133.591H441.07V173.069Z" fill="#462683"/>
<path d="M650.542 125.132H611.065H602.605V133.591V173.069V181.528H611.065H650.542H659.002V173.069V133.591V125.132H650.542ZM650.542 173.069H611.065V133.591H650.542V173.069Z" fill="#462683"/>
<path d="M441.07 334.604H401.592H393.133V343.063V382.54V391H401.592H441.07H449.529V382.54V343.063V334.604H441.07ZM441.07 382.54H401.592V343.063H441.07V382.54Z" fill="#462683"/>
<path d="M433.416 141.245H409.246V165.415H433.416V141.245Z" fill="#462683"/>
<path d="M642.889 141.245H618.719V165.415H642.889V141.245Z" fill="#462683"/>
<path d="M433.416 350.717H409.246V374.887H433.416V350.717Z" fill="#462683"/>
<rect width="104.736" height="105.528" transform="translate(473.699 205.302)" fill="white"/>
<path d="M526.065 302.378C550.538 302.378 570.377 282.539 570.377 258.066C570.377 233.594 550.538 213.755 526.065 213.755C501.593 213.755 481.754 233.594 481.754 258.066C481.754 282.539 501.593 302.378 526.065 302.378Z" fill="#FAB748"/>
<path fill-rule="evenodd" clip-rule="evenodd" d="M501.812 257.598C514.73 251.97 523.343 248.26 527.653 246.467C539.959 241.349 542.516 240.46 544.183 240.43C544.549 240.424 545.369 240.515 545.9 240.946C546.348 241.309 546.471 241.801 546.531 242.146C546.59 242.491 546.663 243.276 546.605 243.89C545.938 250.897 543.052 267.9 541.584 275.748C540.963 279.068 539.74 280.182 538.556 280.291C535.983 280.527 534.029 278.59 531.537 276.956C527.637 274.4 525.433 272.808 521.648 270.314C517.273 267.431 520.109 265.846 522.602 263.257C523.255 262.579 534.592 252.266 534.812 251.331C534.839 251.214 534.865 250.778 534.606 250.547C534.347 250.317 533.964 250.396 533.688 250.458C533.297 250.547 527.067 254.665 514.997 262.812C513.229 264.027 511.627 264.618 510.192 264.587C508.61 264.553 505.566 263.693 503.304 262.957C500.529 262.055 498.324 261.578 498.516 260.046C498.616 259.249 499.714 258.432 501.812 257.598Z" fill="white"/>
</g>
<defs>
<clipPath id="clip0_286_1354">
<rect width="541" height="519" fill="white"/>
</clipPath>
<clipPath id="clip1_286_1354">
<rect x="386" y="118" width="280" height="280" rx="4" fill="white"/>
</clipPath>
</defs>
</svg>
