<svg width="1440" height="560" viewBox="0 0 1440 560" fill="none" xmlns="http://www.w3.org/2000/svg">
<mask id="mask0_272_4779" style="mask-type:alpha" maskUnits="userSpaceOnUse" x="0" y="0" width="1440" height="560">
<rect width="1440" height="560" transform="matrix(-1 0 0 1 1440 0)" fill="#D9D9D9"/>
</mask>
<g mask="url(#mask0_272_4779)">
<path fill-rule="evenodd" clip-rule="evenodd" d="M-80 179.094C-104.138 164.528 -120 139.913 -120 112C-120 67.2649 -79.2579 31 -29 31C21.2579 31 62 67.2649 62 112C62 115.489 61.7522 118.926 61.2715 122.298C65.401 121.445 69.6549 121 74 121C98.8606 121 120.737 135.577 133.42 157.648C143.363 152.116 154.601 149 166.5 149C207.093 149 240 185.265 240 230C240 233.425 239.807 236.801 239.432 240.115C247.705 233.733 257.715 230 268.5 230C283.174 230 296.414 236.912 305.795 248.002C315.374 228.483 335.822 215 359.5 215C369.052 215 378.078 217.194 386.076 221.093C397.562 200.452 424.099 186 455 186C483.286 186 507.916 198.11 520.691 215.991C531.437 207.34 546.203 202 562.5 202C584.732 202 604.116 211.939 614.33 226.663C622.943 216.503 636.17 210 651 210C660.708 210 669.728 212.787 677.217 217.561C690.757 192.855 717.821 176 749 176C766.178 176 782.108 181.116 795.214 189.844C805.655 157.069 840.331 133 881.5 133C919.39 133 951.78 153.388 964.839 182.186C975.219 176.955 987.005 174 999.5 174C1036.19 174 1066.76 199.472 1073.58 233.24C1085.89 224.309 1101.29 219 1118 219C1142.57 219 1164.3 230.472 1177.53 248.058C1190.9 233.908 1210.35 225 1232 225C1242.06 225 1251.64 226.923 1260.36 230.401C1274.4 208.188 1302.78 193 1335.5 193C1340.98 193 1346.34 193.426 1351.53 194.24C1356.25 159.785 1392.04 133 1435.5 133C1478.9 133 1514.66 159.719 1519.45 194.112L1520 194V202V271V545H-80V179.094Z" fill="white"/>
</g>
</svg>
