<svg width="460" height="502" viewBox="0 0 460 502" fill="none" xmlns="http://www.w3.org/2000/svg">
<path d="M140.656 473.547C14.8374 439.811 -33.4454 289.935 43.8576 203.382C99.5452 141.878 132.968 98.0411 242.103 96.7253C337.351 95.5417 447.722 121.319 454.276 281.772C460.888 431.85 309.6 519.466 140.656 473.547Z" fill="#FAB748"/>
<g opacity="0.75">
<path d="M32.5611 191.867L27.5078 193.686L29.6338 201.39L36.8323 199.813L32.5611 191.867Z" fill="white"/>
</g>
<path d="M308.132 95.4671C302.633 95.4671 297.526 98.7301 294.36 104.003L297.698 60.9345C297.722 60.5421 297.428 60.1999 297.035 60.1505L257.336 56.0299C263.253 53.3325 267.354 48.1569 268.09 42.1731C268.704 37.292 267.108 32.4594 263.598 28.5354C260.111 24.6357 255.177 22.1349 249.677 21.448C238.285 20.0499 228.024 27.0645 226.796 37.0719C226.011 43.3996 229.005 49.6043 234.529 53.6262L197.999 49.8252C197.802 49.8001 197.606 49.8738 197.459 49.9967C197.286 50.1189 197.213 50.3147 197.188 50.5113L190.56 156.464C190.535 156.857 190.829 157.224 191.222 157.248L288.811 165.711H288.884C289.056 165.711 289.228 165.637 289.35 165.538C289.522 165.391 289.595 165.219 289.62 165.023L292.713 125.119C295.487 132.28 301.406 137.015 308.132 137.015C317.535 137.015 325.17 127.695 325.17 116.241C325.17 104.788 317.535 95.4671 308.132 95.4671Z" fill="#462683"/>
<path d="M239.959 94.6764C244.809 94.6764 248.742 98.6054 248.742 103.451C248.742 108.297 244.809 112.226 239.959 112.226C235.108 112.226 231.176 108.297 231.176 103.451C231.176 98.6054 235.108 94.6764 239.959 94.6764Z" fill="#FAB748"/>
<path d="M295.635 67.7039C292.247 69.102 288.786 70.3043 285.226 71.3108C274.129 74.4249 262.05 75.6021 249.382 74.8173C225.716 73.3464 206.64 65.5955 197.998 61.4507L197.09 76.1174C208.015 80.7777 226.477 87.1288 248.523 88.5269C251.371 88.6984 254.195 88.7963 256.993 88.7963C268.163 88.7963 278.868 87.374 288.958 84.5536C290.848 84.0139 292.689 83.4508 294.531 82.8133L295.635 67.7039Z" fill="white"/>
<path d="M292.714 125.12C295.489 132.282 301.406 137.015 308.132 137.015C316.095 137.015 322.786 130.332 324.652 121.33C312.524 116.236 296.989 113.176 280.046 113.176C241.258 113.176 209.832 129.216 209.832 148.984C209.832 151.951 210.544 154.821 211.87 157.568L288.959 164.264L289.675 164.316L292.714 125.12Z" fill="white"/>
<path d="M308.208 95.114C302.735 95.114 297.652 98.3603 294.501 103.608L297.824 60.7471C297.848 60.3564 297.555 60.0134 297.164 59.9648L257.655 55.8643C263.543 53.1786 267.624 48.029 268.357 42.0727C268.968 37.2159 267.379 32.4075 263.885 28.5028C260.416 24.6215 255.505 22.1308 250.032 21.4472C238.696 20.0567 228.481 27.037 227.259 36.9958C226.477 43.2934 229.46 49.4689 234.957 53.4723L198.6 49.6897C198.404 49.6655 198.209 49.7374 198.063 49.8596C197.892 49.9817 197.818 50.1767 197.794 50.3716L191.197 155.819C191.172 156.209 191.466 156.576 191.857 156.6L288.978 165.022H289.052C289.224 165.022 289.394 164.948 289.516 164.85C289.687 164.704 289.761 164.533 289.786 164.338L292.864 124.624C295.625 131.752 301.513 136.463 308.208 136.463C317.566 136.463 325.164 127.188 325.164 115.789C325.164 104.39 317.566 95.114 308.208 95.114Z" stroke="#462683" stroke-width="1.25" stroke-linecap="round" stroke-linejoin="round"/>
<path d="M402.635 98.8521C397.365 98.8521 392.664 101.917 389.67 106.662L392.886 69.5629L353.572 65.7569C360.204 69.3655 364.286 76.0881 363.42 83.2316C362.232 92.9444 352.262 99.6921 341.177 98.3334C330.093 96.9738 322.077 88.0014 323.264 78.2877C324.106 71.54 329.178 66.202 335.907 64.051L297.484 60.3412V60.3437L294.12 103.747C297.311 98.4321 302.457 95.1449 308 95.1449C317.475 95.1449 325.17 104.537 325.17 116.08C325.17 127.623 317.475 137.015 308 137.015C301.22 137.015 295.258 132.244 292.462 125.027L289.345 165.241C289.345 165.243 289.345 165.245 289.344 165.246L383.98 172.235L387.84 127.82C390.486 134.592 396.128 139.239 402.635 139.239C411.715 139.239 419.062 130.193 419.062 119.046C419.062 107.899 411.715 98.8521 402.635 98.8521Z" fill="#FAB748"/>
<path d="M340.856 132.146C340.683 132.146 340.509 132.096 340.385 131.973C340.064 131.701 340.014 131.256 340.286 130.934C353.399 115.141 369.654 102.708 388.581 93.9829C388.953 93.8105 389.398 93.9829 389.571 94.3544C389.744 94.725 389.571 95.1701 389.2 95.3425C370.471 103.968 354.388 116.252 341.424 131.874C341.276 132.047 341.079 132.146 340.856 132.146Z" fill="white"/>
<path d="M295.824 81.872C307.254 77.7932 317.819 71.8136 327.369 64.0024L306.067 61.9509C303.099 63.6318 300.055 65.1386 296.938 66.4982L295.824 81.872Z" fill="white"/>
<path d="M366.807 128.834C369.813 128.834 372.249 131.269 372.249 134.272C372.249 137.274 369.813 139.709 366.807 139.709C363.8 139.709 361.363 137.274 361.363 134.272C361.363 131.269 363.8 128.834 366.807 128.834Z" fill="white"/>
<path d="M324.646 121.207C322.767 130.279 316.022 137.016 307.998 137.016C301.219 137.016 295.257 132.244 292.46 125.027L289.398 164.529L339.667 168.233C346.496 162.696 350.454 156.121 350.454 149.077C350.454 137.856 340.406 127.828 324.646 121.207Z" fill="white"/>
<path d="M402.635 98.8521C397.365 98.8521 392.664 101.917 389.67 106.662L392.886 69.5629L353.572 65.7569C360.204 69.3655 364.286 76.0881 363.42 83.2316C362.232 92.9444 352.262 99.6921 341.177 98.3334C330.093 96.9738 322.077 88.0014 323.264 78.2877C324.106 71.54 329.178 66.202 335.907 64.051L297.484 60.3412V60.3437L294.12 103.747C297.311 98.4321 302.457 95.1449 308 95.1449C317.475 95.1449 325.17 104.537 325.17 116.08C325.17 127.623 317.475 137.015 308 137.015C301.22 137.015 295.258 132.244 292.462 125.027L289.345 165.241C289.345 165.243 289.345 165.245 289.344 165.246L383.98 172.235L387.84 127.82C390.486 134.592 396.128 139.239 402.635 139.239C411.715 139.239 419.062 130.193 419.062 119.046C419.062 107.899 411.715 98.8521 402.635 98.8521Z" stroke="#462683" stroke-width="1.25" stroke-linecap="round" stroke-linejoin="round"/>
<path d="M319.802 168.034C319.728 168.034 319.653 168.034 319.578 168.009C319.183 167.886 318.961 167.465 319.085 167.071C319.109 166.971 322.052 157.777 329.697 145.542C332.865 140.475 336.428 135.557 340.263 130.935C340.534 130.614 340.981 130.564 341.302 130.836C341.624 131.108 341.673 131.552 341.4 131.874C337.59 136.447 334.077 141.315 330.935 146.334C323.389 158.419 320.494 167.441 320.47 167.54C320.419 167.837 320.124 168.034 319.802 168.034Z" fill="#462683"/>
<path d="M322.076 435.491C298.699 406.286 227.04 373.059 185.005 354.102C142.995 335.143 89.593 306.976 36.827 303.786C16.6334 303.016 15.5883 324.583 22.0212 332.839C53.1142 373.446 110.707 406.624 152.718 425.582C194.729 444.539 260.419 466.111 304.386 464.138C327.491 463.101 328.51 443.746 322.076 435.491Z" fill="#462683"/>
<path d="M87.7735 187.021C87.7735 187.021 67.0203 211.918 67.3997 253.693" stroke="#462683" stroke-width="1.25" stroke-linecap="round" stroke-linejoin="round"/>
<path d="M400.182 237.271C400.182 237.271 402.063 288.832 378.059 328.21" stroke="#462683" stroke-width="1.25" stroke-linecap="round" stroke-linejoin="round"/>
<path d="M385.456 196.705C385.456 196.705 388.573 241.047 379.666 273.178C370.759 305.311 356.657 340.902 324.74 373.281C292.825 405.66 255.713 419.303 224.415 423.974C200.829 428.231 189.27 393.583 205.961 368.631C219.621 348.212 260.043 314.628 260.043 314.628C260.043 314.628 271.795 300.886 282.928 296.437C294.061 291.988 317.061 290.087 334.389 272.709C349.527 257.529 353.935 238.6 353.935 238.6C353.935 238.6 362.817 204.813 363.213 192.652C379.405 188.238 385.456 196.705 385.456 196.705Z" fill="white"/>
<path d="M385.456 196.705C385.456 196.705 388.573 241.047 379.666 273.178C370.759 305.311 356.657 340.902 324.74 373.281C292.825 405.66 255.713 419.303 224.415 423.974C200.829 428.231 189.27 393.583 205.961 368.631C219.621 348.212 260.043 314.628 260.043 314.628C260.043 314.628 271.795 300.886 282.928 296.437C294.061 291.988 317.061 290.087 334.389 272.709C349.527 257.529 353.935 238.6 353.935 238.6C353.935 238.6 362.817 204.813 363.213 192.652C379.405 188.238 385.456 196.705 385.456 196.705Z" stroke="#462683" stroke-width="1.25" stroke-linecap="round" stroke-linejoin="round"/>
<path d="M327.433 299.847C330.575 299.847 333.122 303.057 333.122 307.015C333.122 310.974 330.575 314.184 327.433 314.184C324.29 314.184 321.742 310.974 321.742 307.015C321.742 303.057 324.29 299.847 327.433 299.847Z" fill="#462683"/>
<path d="M290.001 355.485C289.605 355.485 289.085 355.361 288.615 354.841C287.823 354.026 286.785 351.975 286.736 343.818C286.711 339.122 287.007 332.918 287.625 325.429C288.69 312.676 290.347 300.391 290.347 300.268L291.808 300.466C291.783 300.589 290.15 312.848 289.086 325.553C288.468 332.993 288.17 339.147 288.196 343.793C288.245 351.209 289.136 353.26 289.68 353.829C289.853 354.002 289.977 354.002 290.026 354.002C292.352 353.829 293.712 347.18 295.023 340.754C296.903 331.534 299.057 321.055 305.119 318.459L305.712 319.818C300.343 322.117 298.216 332.598 296.484 341.05C294.876 348.96 293.588 355.213 290.149 355.485C290.099 355.46 290.052 355.485 290.001 355.485Z" fill="#FAB748"/>
<path d="M385.458 196.705C385.458 196.705 388.969 176.663 390.059 169.245C391.134 161.985 392.013 149.594 389.637 150.627C387.274 151.662 380.41 170.975 380.41 170.975L361.359 170.852L363.109 192.782C372.269 189.879 380.608 191.393 385.458 196.705Z" fill="#FAB748"/>
<path d="M385.458 196.705C385.458 196.705 388.969 176.663 390.059 169.245C391.134 161.985 392.013 149.594 389.637 150.627C387.274 151.662 380.41 170.975 380.41 170.975L361.359 170.852L363.109 192.782C372.269 189.879 380.608 191.393 385.458 196.705Z" stroke="#462683" stroke-width="1.25" stroke-linecap="round" stroke-linejoin="round"/>
<path d="M360.046 214.364C360.046 214.364 366.3 211.431 375.206 213.419C365.92 214.838 362.604 216.068 357.676 226.67C359.287 219.097 360.046 214.364 360.046 214.364Z" fill="#462683"/>
<path d="M370.942 191.646L368.098 212.755" stroke="#462683" stroke-width="1.25" stroke-linecap="round" stroke-linejoin="round"/>
<path d="M379.757 193.255L378.809 214.27" stroke="#462683" stroke-width="1.25" stroke-linecap="round" stroke-linejoin="round"/>
<path d="M385.784 219.16C385.784 219.16 374.634 208.59 360.137 213.796" stroke="#462683" stroke-width="2.5" stroke-linecap="round" stroke-linejoin="round"/>
<path d="M322.996 280.72C322.996 280.72 321.993 287.527 325.953 288.478C329.912 289.429 334.555 286.684 335.123 291.701C335.692 296.718 336.45 303.723 340.24 308.172C344.03 312.621 349.621 308.645 347.537 300.03C345.451 291.417 341.567 269.645 344.03 260.747C339.482 267.752 330.671 276.461 322.996 280.72Z" fill="#462683"/>
<path d="M347.57 345.309C347.57 345.309 327.482 375.096 301.456 393.397C294.382 380.271 327.104 337.232 347.57 345.309Z" fill="#462683"/>
<path d="M290.845 300.505C290.845 300.505 285.918 335.718 287.813 350.989C288.318 356.669 292.741 355.66 294.256 346.573C295.772 337.485 298.931 322.087 305.247 319.436" stroke="#FAB748" stroke-width="2.5" stroke-linejoin="round"/>
<path d="M380.041 171.515L361.596 175.807L361.09 170.632L380.041 171.515Z" fill="#462683"/>
<path d="M175.281 266.233C175.281 266.233 174.167 248.933 164.766 227.677C160.56 218.136 151.777 207.903 153.138 187.636C154.499 167.368 168.353 144.628 184.683 128.81C201.012 112.991 184.683 128.81 184.683 128.81C184.683 128.81 183.124 112.077 171.249 112.571C171.249 112.571 151.53 131.282 137.798 147.1C124.067 162.919 98.336 191.59 86.7081 232.125C75.0794 272.661 86.6805 311.725 89.1821 317.15C97.5512 335.308 135.795 342.632 156.568 325.695C184.474 302.945 175.281 266.233 175.281 266.233Z" fill="white"/>
<path d="M175.281 266.233C175.281 266.233 174.167 248.933 164.766 227.677C160.56 218.136 151.777 207.903 153.138 187.636C154.499 167.368 168.353 144.628 184.683 128.81C201.012 112.991 184.683 128.81 184.683 128.81C184.683 128.81 183.124 112.077 171.249 112.571C171.249 112.571 151.53 131.282 137.798 147.1C124.067 162.919 98.336 191.59 86.7081 232.125C75.0794 272.661 86.6805 311.725 89.1821 317.15C97.5512 335.308 135.795 342.632 156.568 325.695C184.474 302.945 175.281 266.233 175.281 266.233Z" stroke="#462683" stroke-width="1.25" stroke-miterlimit="10"/>
<path d="M136.92 156.13C139.579 153.88 143.344 153.955 145.331 156.299C147.319 158.642 146.774 162.366 144.116 164.616C141.457 166.867 137.691 166.79 135.704 164.447C133.717 162.103 134.261 158.379 136.92 156.13Z" fill="#462683"/>
<path d="M184.685 128.81C184.685 128.81 195.448 120.777 199.778 114.721C204.107 108.666 209.615 96.8906 210.358 95.2842C211.1 93.6769 212.763 88.8199 211.094 87.8393C207.967 86.0028 201.854 95.0975 201.854 95.0975C201.854 95.0975 196.314 102.857 194.458 100.138C192.603 97.4199 194.135 92.1288 194.135 92.1288L195.525 87.0812L196.144 77.4905C196.144 77.4905 188.99 80.2665 187.654 82.8619C186.318 85.4572 181.345 95.9616 181.345 95.9616L178.252 103.377L171.078 112.512C179.922 111.881 183.396 119.264 184.685 128.81Z" fill="#FAB748"/>
<path d="M184.685 128.81C184.685 128.81 195.448 120.777 199.778 114.721C204.107 108.666 209.615 96.8906 210.358 95.2842C211.1 93.6769 212.763 88.8199 211.094 87.8393C207.967 86.0028 201.854 95.0975 201.854 95.0975C201.854 95.0975 196.314 102.857 194.458 100.138C192.603 97.4199 194.135 92.1288 194.135 92.1288L195.525 87.0812L196.144 77.4905C196.144 77.4905 188.99 80.2665 187.654 82.8619C186.318 85.4572 181.345 95.9616 181.345 95.9616L178.252 103.377L171.078 112.512C179.922 111.881 183.396 119.264 184.685 128.81Z" stroke="#462683" stroke-width="1.25" stroke-linecap="round" stroke-linejoin="round"/>
<path d="M161.156 128.982C161.156 128.982 171.295 135.042 164.851 152.837C169.115 146.022 173 141.1 173 141.1C173 141.1 169.968 132.485 161.156 128.982Z" fill="#462683"/>
<path d="M155.723 128.099C155.723 128.099 169.873 127.752 172.431 142.33" stroke="#462683" stroke-width="2.5" stroke-linecap="round" stroke-linejoin="round"/>
<path d="M176.766 113.584L162.996 129.488" stroke="#462683" stroke-width="1.25" stroke-linecap="round" stroke-linejoin="round"/>
<path d="M182.133 121.093L169.184 135.041" stroke="#462683" stroke-width="1.25" stroke-linecap="round" stroke-linejoin="round"/>
<path d="M153.389 195.748C153.389 195.748 132.037 205.215 123.825 213.041C115.613 220.866 124.836 229.069 133.553 224.904C139.13 222.24 146.566 217.079 150.735 221.623C154.904 226.166 163.116 223.516 163.116 223.516C163.116 223.516 152.125 203.069 153.389 195.748Z" fill="#462683"/>
<path d="M83.4007 249.136C83.4007 249.136 79.4845 274 83.4007 295.709C91.4867 293.563 97.6767 281.825 96.7923 268.699C95.9087 255.573 88.4541 248.632 83.4007 249.136Z" fill="#462683"/>
<path d="M118.898 246.36C118.898 246.36 144.797 242.447 145.807 252.166C146.06 256.33 134.816 258.35 125.973 261.631C119.52 264.026 113.717 270.845 113.465 276.777" stroke="#FAB748" stroke-width="2.5" stroke-linejoin="round"/>
<path d="M209.093 243.888C209.093 243.888 193.176 235.025 189.007 243.229C187.112 247.267 194.313 250.17 201.136 251.054C207.958 251.938 209.093 243.888 209.093 243.888Z" fill="white"/>
<path d="M209.093 243.888C209.093 243.888 193.176 235.025 189.007 243.229C187.112 247.267 194.313 250.17 201.136 251.054C207.958 251.938 209.093 243.888 209.093 243.888Z" stroke="#462683" stroke-width="1.25" stroke-linecap="round" stroke-linejoin="round"/>
<path d="M259.372 268.752C259.372 268.752 272.313 279.297 267.891 285.229C263.469 291.161 247.93 276.899 247.93 276.899L259.372 268.752Z" fill="#FAB748"/>
<path d="M259.372 268.752C259.372 268.752 272.313 279.297 267.891 285.229C263.469 291.161 247.93 276.899 247.93 276.899L259.372 268.752Z" fill="white" stroke="#462683" stroke-width="1.25" stroke-linecap="round" stroke-linejoin="round"/>
<path d="M235.457 237.069C235.457 237.069 244.768 230.206 247.548 231.72C250.327 233.235 249.733 243.128 249.733 243.128L235.457 237.069Z" fill="white"/>
<path d="M235.457 237.069C235.457 237.069 244.768 230.206 247.548 231.72C250.327 233.235 249.733 243.128 249.733 243.128L235.457 237.069Z" stroke="#462683" stroke-width="1.25" stroke-linecap="round" stroke-linejoin="round"/>
<path d="M202.031 248.505C202.031 248.505 225.025 225.661 251.05 242.447C251.05 242.447 267.601 253.805 256.988 281.194C239.806 270.97 202.031 248.505 202.031 248.505Z" fill="white"/>
<path d="M202.031 248.505C202.031 248.505 225.025 225.661 251.05 242.447C251.05 242.447 267.601 253.805 256.988 281.194C239.806 270.97 202.031 248.505 202.031 248.505Z" stroke="#462683" stroke-width="1.25" stroke-linecap="round" stroke-linejoin="round"/>
<path d="M261.389 315.271C258.816 303.555 257.256 296.338 257.751 286.723C257.76 286.728 257.769 286.732 257.777 286.737C257.878 283.047 258.404 278.75 258.371 276.215C257.898 264.194 252.859 255.979 242.436 250.016C232.013 244.053 220.476 243.021 212.264 243.927C204.115 244.827 192.838 251.028 192.905 251.057C188.798 253.504 184.765 256.569 180.856 260.277C177.739 263.218 174.721 266.233 171.801 269.126C154.829 285.982 138.821 301.874 99.8785 313.492C95.8208 314.702 92.0353 316.062 88.6208 317.495C72.9604 324.12 66.0577 332.251 61.3568 339.345C59.4758 342.212 57.8184 345.129 56.2355 347.971C53.2666 353.236 50.4702 358.229 46.1654 362.924C44.137 365.149 41.9838 367.077 39.5349 368.881C32.4832 374.071 26.1757 383.509 22.7863 393.495C19.1985 404.024 18.4565 415.443 20.6582 426.466C23.2068 439.245 29.7133 451.01 39.4861 460.476C50.8677 471.499 66.5037 479.533 85.9998 484.353C94.9318 486.553 105.472 487.665 116.457 487.665C127.812 487.665 139.688 486.503 150.772 484.13C163.415 481.436 174.795 477.358 184.643 472.019C195.702 465.988 205.151 457.342 211.659 448.468C212.722 447.01 213.737 445.502 214.678 443.97C218.314 438.013 221.506 431.759 224.4 424.889C226.677 419.525 228.433 414.557 230.14 409.763C234.074 398.714 237.192 389.99 243.872 383.316C256.441 370.735 269.455 355.213 264.482 330.001C263.343 324.292 262.304 319.498 261.389 315.271Z" fill="black"/>
<path d="M47.4648 362.411C57.3189 354.65 61.2978 328.335 86.6917 319.247" stroke="#462683" stroke-width="2.5" stroke-linejoin="round"/>
<path d="M222.942 251.233C222.942 251.233 200.217 256.083 187.899 279.937C175.581 303.791 168.136 306.993 149.943 313.997C131.751 321.002 94.6088 328.006 94.9873 377.418C95.3667 426.83 79.4258 439.682 52.1367 442.711" stroke="#462683" stroke-width="1.25" stroke-linejoin="round"/>
<path d="M213.231 265.802C213.231 265.802 200.695 273.709 196.905 291.126C193.114 308.544 175.301 314.79 175.301 314.79" stroke="#462683" stroke-width="1.25" stroke-linejoin="round"/>
<path d="M242.919 262.951C242.919 262.951 225.066 274.492 222.034 295.318C219.002 316.141 210.23 317.611 199.808 323.669C189.385 329.726 156.411 347.333 161.527 402.047C163.423 431.58 146.509 453.956 119.957 460.439" stroke="#462683" stroke-width="1.25" stroke-linejoin="round"/>
<path d="M223.7 426.023C223.7 426.023 218.392 440.222 212.328 447.227" stroke="#462683" stroke-width="2.5" stroke-linejoin="round"/>
</svg>
