<svg width="52" height="51" viewBox="0 0 52 51" fill="none" xmlns="http://www.w3.org/2000/svg">
<g clip-path="url(#clip0_327_11672)">
<path d="M29.5908 26.5343C29.782 28.4651 28.3729 30.1858 26.4421 30.377C24.5113 30.5682 22.7906 29.159 22.5994 27.2259C22.4082 25.2951 23.8174 23.5744 25.7481 23.3832C27.6789 23.1943 29.3997 24.6035 29.5908 26.5343Z" fill="white"/>
<path d="M25.0275 16.4721L21.0195 10.6136L23.7977 4.08008L27.8056 9.94091L25.0275 16.4721Z" fill="white"/>
<path d="M19.3905 8.47034L16.6973 7.09424L17.0324 2.25781L20.4928 5.6544L19.3905 8.47034Z" fill="white"/>
<path d="M11.1463 14.2138L8.12735 14.353L6.01953 9.98633L10.7096 11.2208L11.1463 14.2138Z" fill="white"/>
<path d="M0.224609 22.4979L4.25378 25.1935L6.78647 23.5412L4.89108 21.1855L0.224609 22.4979Z" fill="white"/>
<path d="M30.5798 0.915039L27.8535 4.92533L29.4869 7.46982L31.8567 5.59096L30.5798 0.915039Z" fill="white"/>
<path d="M38.5391 8.4615L42.894 6.33008L41.6878 11.0249L38.6972 11.4804L38.5391 8.4615Z" fill="white"/>
<path d="M46.1997 17.0908L51.0337 17.4614L47.6112 20.8958L44.8047 19.7746L46.1997 17.0908Z" fill="white"/>
<path d="M30.3574 17.3265L29.8027 10.2477L35.4676 5.9707L36.0223 13.0471L30.3574 17.3265Z" fill="white"/>
<path d="M34.5801 20.7609L37.658 14.3619L44.7061 13.5098L41.6282 19.9088L34.5801 20.7609Z" fill="white"/>
<path d="M36.5059 25.85L42.3808 21.8633L48.9026 24.6651L43.0299 28.6517L36.5059 25.85Z" fill="white"/>
<path d="M13.8005 15.2516L12.9531 8.20117L19.3498 11.2838L20.1948 18.3343L13.8005 15.2516Z" fill="white"/>
<path d="M9.64924 23.0786L5.37695 17.4089L12.4534 16.8613L16.728 22.531L9.64924 23.0786Z" fill="white"/>
<path d="M9.99179 31.9277L3.45117 29.1708L9.29547 25.1416L15.8384 27.8985L9.99179 31.9277Z" fill="white"/>
<path d="M25.2929 21.172L22.3047 16.4961L22.9656 22.0076L25.2929 21.172Z" fill="white"/>
<path d="M28.2875 21.5285L27.9971 15.9863L25.8516 21.1036L28.2875 21.5285Z" fill="white"/>
<path d="M30.7439 23.3503L33.2624 18.4053L28.8438 21.7641L30.7439 23.3503Z" fill="white"/>
<path d="M31.9572 26.1574L36.6142 23.1338L31.1074 23.8348L31.9572 26.1574Z" fill="white"/>
<path d="M22.5326 22.3258L17.6348 19.7129L20.911 24.1929L22.5326 22.3258Z" fill="white"/>
<path d="M20.1935 27.1243L15.1328 24.8395L20.6821 24.7002L20.1935 27.1243Z" fill="white"/>
<path d="M26.3883 33.849L18.1695 28.5358L22.5811 37.6162L16.6211 50.9146L26.3883 41.7256L30.9226 50.9146V36.4903L34.5812 26.9756L26.3883 33.849Z" fill="white"/>
</g>
<defs>
<clipPath id="clip0_327_11672">
<rect width="50.8095" height="50" fill="white" transform="translate(0.224609 0.915039)"/>
</clipPath>
</defs>
</svg>
