<svg width="1440" height="9882" viewBox="0 0 1440 9882" fill="none" xmlns="http://www.w3.org/2000/svg">
<path opacity="0.5" d="M1180.19 9319L1547.29 9457.45L1579 9652.99M1180.19 9319L1579 9652.99M1180.19 9319L1074.8 9634.48L1072 9840.24M1180.19 9319L1072 9840.24M1579 9652.99L1072 9840.24M1579 9652.99L1448.47 9954L1072 9840.24" stroke="#FAB748"/>
<path opacity="0.5" d="M1676.79 7277.17L1351.35 7521.03L1163.69 7421.79M1676.79 7277.17L1163.69 7421.79M1676.79 7277.17L1461.48 6974.38L1284.22 6837M1676.79 7277.17L1284.22 6837M1163.69 7421.79L1284.22 6837M1163.69 7421.79L975 7105.58L1284.22 6837" stroke="#462683"/>
<path opacity="0.5" d="M11.5758 8207L210.336 8375.03M11.5758 8207L65.6872 8429.56M11.5758 8207L-125.998 8375.03L65.6872 8429.56M210.336 8375.03L65.6872 8429.56M210.336 8375.03L-8.4982 8577.56M65.6872 8429.56L-8.4982 8577.56M65.6872 8429.56L-125.68 8375.87L-8.4982 8577.56" stroke="#462683"/>
<path d="M1356.76 4390L1158 4558.03M1356.76 4390L1302.65 4612.56M1356.76 4390L1494.33 4558.03L1302.65 4612.56M1158 4558.03L1302.65 4612.56M1158 4558.03L1376.83 4760.56M1302.65 4612.56L1376.83 4760.56M1302.65 4612.56L1494.02 4558.87L1376.83 4760.56" stroke="#FAB748"/>
<path opacity="0.5" d="M-201 5713.6L70.8662 5464M-201 5713.6L118.682 5649.14M-201 5713.6L70.8662 5992L118.682 5649.14M70.8662 5464L118.682 5649.14M70.8662 5464L340 5732.8M118.682 5649.14L340 5732.8M118.682 5649.14L72.2323 5992L340 5732.8" stroke="#FAB748"/>
<path opacity="0.5" d="M-131 1398.55L85.5884 1200M-131 1398.55L123.682 1347.27M-131 1398.55L85.5884 1620L123.682 1347.27M85.5884 1200L123.682 1347.27M85.5884 1200L300 1413.82M123.682 1347.27L300 1413.82M123.682 1347.27L86.6768 1620L300 1413.82" stroke="#FAB748"/>
<path opacity="0.5" d="M1148.19 2187L1515.29 2325.45L1547 2520.99M1148.19 2187L1547 2520.99M1148.19 2187L1042.8 2502.48L1040 2708.24M1148.19 2187L1040 2708.24M1547 2520.99L1040 2708.24M1547 2520.99L1416.47 2822L1040 2708.24" stroke="#462683"/>
<path opacity="0.5" d="M1365.01 1L1008.77 135.306L978 324.999M1365.01 1L978 324.999M1365.01 1L1467.29 307.041L1470 506.643M1365.01 1L1470 506.643M978 324.999L1470 506.643M978 324.999L1104.67 617L1470 506.643" stroke="#462683"/>
<path opacity="0.5" d="M12.7547 3283L214.73 3417.3M12.7547 3283L137.593 3452.61M12.7547 3283L-96 3474.89L137.593 3452.61M214.73 3417.3L137.593 3452.61M214.73 3417.3L40.075 3628.3M137.593 3452.61L40.075 3628.3M137.593 3452.61L-95.7671 3475.76L40.075 3628.3" stroke="#462683"/>
</svg>
