<svg width="210" height="69" viewBox="0 0 210 69" fill="none" xmlns="http://www.w3.org/2000/svg">
<g clip-path="url(#clip0_272_8112)">
<path d="M176.01 52.2801H178.484L181.995 47.4887V52.2801H184.66V44.0335H182.185L178.674 48.7459V44.0335H176.01V52.2801ZM167.818 50.2402C168.19 49.9081 168.435 49.5444 168.562 49.1491C168.688 48.7459 168.743 48.2399 168.743 47.631V46.0576H170.942V50.2402H167.818ZM166.3 47.2278C166.3 47.8208 166.261 48.311 166.174 48.7063C166.087 49.1017 165.889 49.4417 165.581 49.7263C165.257 50.0188 164.885 50.1928 164.45 50.2481V54.6126H166.814V52.2801H172.452V54.6126H174.816V50.2402H173.598V44.0256H166.292V47.2278H166.3ZM160.418 46.5795C160.813 46.9748 161.011 47.4887 161.011 48.1133C161.011 48.7933 160.797 49.3389 160.362 49.7579C159.991 50.1137 159.524 50.2956 158.955 50.2956C158.362 50.2956 157.864 50.0821 157.461 49.663C157.081 49.2598 156.884 48.7538 156.884 48.1687C156.884 47.4808 157.097 46.9274 157.532 46.5241C157.904 46.1762 158.378 46.0023 158.955 46.0023C159.548 46.0102 160.038 46.1999 160.418 46.5795ZM153.484 44.0335H150.819V52.2801H153.484V49.157H154.48C154.638 50.09 155.026 50.849 155.642 51.4104C156.433 52.1774 157.564 52.5569 159.042 52.5569C160.521 52.5569 161.675 52.1457 162.497 51.3155C163.32 50.4932 163.739 49.4258 163.739 48.1371C163.739 46.9036 163.32 45.8837 162.481 45.0693C161.58 44.1917 160.402 43.7568 158.947 43.7568C157.516 43.7568 156.37 44.1996 155.508 45.0851C154.978 45.6307 154.646 46.2711 154.512 47.0064H153.476V44.0335H153.484ZM141.41 44.0335V48.6036C141.41 49.1807 141.3 49.6235 141.078 49.9161C140.794 50.2402 140.367 50.3193 139.805 50.1533V52.2643C140.137 52.3513 140.485 52.3908 140.841 52.3908C141.829 52.3908 142.588 52.0983 143.118 51.5211C143.664 50.9044 143.932 49.9714 143.932 48.7142V46.1841H146.099V52.288H148.763V44.0335H141.41ZM133.551 44.9902C132.76 44.1679 131.669 43.7489 130.278 43.7489C128.957 43.7489 127.906 44.1442 127.115 44.9349C126.277 45.7967 125.858 46.8799 125.858 48.1924C125.858 49.4891 126.269 50.5486 127.099 51.3709C127.89 52.1615 128.989 52.5569 130.388 52.5569C131.448 52.5569 132.318 52.3513 132.998 51.9481C133.772 51.4658 134.302 50.7779 134.587 49.8765L132.073 49.6156C131.899 49.9635 131.709 50.1928 131.503 50.3035C131.234 50.4616 130.871 50.5407 130.428 50.5407C129.835 50.5407 129.376 50.3667 129.06 50.0188C128.728 49.6472 128.562 49.1807 128.562 48.6115H134.721V48.3426C134.713 46.9353 134.326 45.8204 133.551 44.9902ZM129.115 46.1367C129.471 45.7809 129.922 45.599 130.468 45.599C130.974 45.599 131.393 45.7572 131.725 46.0576C131.986 46.3027 132.16 46.6269 132.262 47.0222H128.657C128.712 46.6902 128.87 46.3976 129.115 46.1367ZM115.927 48.7459H117.034C117.39 48.7459 117.659 48.817 117.833 48.9514C118.007 49.0859 118.094 49.2835 118.094 49.5444C118.094 49.8133 118.007 50.0268 117.833 50.177C117.675 50.3272 117.398 50.3984 117.018 50.3984H115.927V48.7459ZM115.927 44.0335H113.263V52.2801H117.667C118.687 52.2801 119.446 52.0429 119.944 51.5606C120.434 51.0783 120.687 50.3984 120.687 49.5286C120.687 48.7301 120.458 48.0975 119.999 47.6389C119.477 47.125 118.734 46.8641 117.762 46.8641H115.927V44.0335ZM121.573 52.2801H124.198V44.0335H121.573V52.2801ZM106.645 48.8408H107.736C108.171 48.8408 108.471 48.9119 108.645 49.0621C108.819 49.2124 108.906 49.4021 108.906 49.6393C108.906 49.924 108.819 50.1374 108.645 50.2877C108.487 50.4379 108.218 50.5091 107.847 50.5091H106.645V48.8408ZM106.645 45.8046H107.696C108.044 45.8046 108.289 45.86 108.44 45.9707C108.598 46.1051 108.677 46.2948 108.677 46.5399C108.677 46.8088 108.582 47.0143 108.4 47.1487C108.242 47.2594 108.021 47.3148 107.736 47.3148H106.645V45.8046ZM103.98 52.2801H109.009C109.887 52.2801 110.567 52.035 111.065 51.5369C111.468 51.1337 111.673 50.6039 111.673 49.9477C111.673 49.3705 111.492 48.8961 111.136 48.5403C110.812 48.2478 110.416 48.0501 109.934 47.9473C110.219 47.8524 110.448 47.7022 110.622 47.5045C110.954 47.1725 111.12 46.7297 111.12 46.1762C111.12 45.4883 110.899 44.9507 110.456 44.5712C110.037 44.2154 109.349 44.0335 108.4 44.0335H103.98V52.2801ZM98.9675 46.6032C99.3708 47.0064 99.5763 47.5283 99.5763 48.1529C99.5763 48.7854 99.3708 49.2993 98.9675 49.7026C98.5722 50.0979 98.082 50.2956 97.489 50.2956C96.8723 50.2956 96.3662 50.0979 95.9709 49.7026C95.5677 49.2993 95.3621 48.7775 95.3621 48.1529C95.3621 47.5203 95.5677 47.0064 95.9709 46.6032C96.3662 46.2078 96.8644 46.0102 97.4653 46.0102C98.0741 46.0102 98.5801 46.2078 98.9675 46.6032ZM101.079 45.0851C100.193 44.1996 98.9912 43.7568 97.4732 43.7568C95.9551 43.7568 94.7533 44.1996 93.8677 45.0851C93.0376 45.9074 92.6264 46.9353 92.6264 48.1529C92.6264 49.3705 93.0376 50.3984 93.8677 51.2207C94.7533 52.1062 95.9551 52.549 97.4732 52.549C98.9912 52.549 100.193 52.1062 101.079 51.2207C101.901 50.3984 102.32 49.3705 102.32 48.1529C102.32 46.9353 101.909 45.9074 101.079 45.0851ZM80.0391 39.9458V52.2801H82.8854V47.046H87.8034V52.2801H90.6498V39.9458H87.8034V44.6423H82.8854V39.9458H80.0391Z" fill="#F3F4FF"/>
<path d="M206.631 29.098C207.05 29.4933 207.264 29.9914 207.264 30.5923C207.264 31.2328 207.05 31.7546 206.616 32.1658C206.212 32.5453 205.73 32.7429 205.192 32.7429C204.599 32.7429 204.093 32.5295 203.674 32.1104C203.279 31.6914 203.081 31.2012 203.081 30.6477C203.081 30.0547 203.295 29.5487 203.714 29.1296C204.117 28.7264 204.615 28.5208 205.192 28.5208C205.746 28.5287 206.228 28.7185 206.631 29.098ZM205.896 35.0359C207.019 35.0359 207.952 34.6643 208.687 33.9289C209.565 33.0513 210 31.9523 210 30.6161C210 29.2957 209.588 28.2283 208.758 27.3981C207.983 26.6232 207.011 26.2358 205.833 26.2358C204.758 26.2358 203.904 26.6548 203.263 27.493V26.5125H200.599V38.9971H203.263V33.8183C203.848 34.6326 204.718 35.0359 205.896 35.0359ZM195.428 29.098C195.831 29.4775 196.037 29.9835 196.037 30.6161C196.037 31.2407 195.823 31.7625 195.388 32.1658C195.009 32.5453 194.542 32.7429 194.005 32.7429C193.364 32.7429 192.842 32.5295 192.431 32.0946C192.06 31.6993 191.878 31.2091 191.878 30.6161C191.878 30.0231 192.083 29.525 192.486 29.1217C192.882 28.7264 193.364 28.5287 193.949 28.5287C194.534 28.5287 195.032 28.7185 195.428 29.098ZM193.277 26.2358C192.115 26.2358 191.166 26.6153 190.407 27.3664C189.553 28.2204 189.134 29.3273 189.134 30.6951C189.134 31.9049 189.537 32.9327 190.336 33.7866C191.127 34.6247 192.154 35.0438 193.427 35.0438C194.503 35.0438 195.317 34.6168 195.87 33.7708V34.767H198.535V26.5125H195.87V27.4376C195.277 26.6311 194.416 26.2358 193.277 26.2358ZM181.354 32.7271C181.726 32.3951 181.971 32.0314 182.097 31.636C182.224 31.2328 182.279 30.7268 182.279 30.1179V28.5445H184.477V32.7271H181.354ZM179.836 29.7068C179.836 30.2998 179.796 30.79 179.709 31.1853C179.622 31.5807 179.425 31.9207 179.116 32.2053C178.792 32.4978 178.421 32.6718 177.986 32.7192V37.0837H180.35V34.7512H185.987V37.0837H188.351V32.7192H187.134V26.5046H179.828V29.7068H179.836ZM168.632 34.7591L169.296 30.3789L171.328 34.7591H172.214L174.246 30.3789L174.91 34.7591H177.464L176.025 26.5125H173.914L171.771 31.0984L169.628 26.5125H167.517L166.078 34.7591H168.632ZM161.492 29.098C161.896 29.4775 162.101 29.9835 162.101 30.6161C162.101 31.2407 161.888 31.7625 161.453 32.1658C161.073 32.5453 160.607 32.7429 160.069 32.7429C159.429 32.7429 158.907 32.5295 158.496 32.0946C158.124 31.6993 157.942 31.2091 157.942 30.6161C157.942 30.0231 158.148 29.525 158.551 29.1217C158.947 28.7264 159.429 28.5287 160.014 28.5287C160.607 28.5287 161.097 28.7185 161.492 29.098ZM159.35 26.2358C158.188 26.2358 157.239 26.6153 156.48 27.3664C155.626 28.2204 155.207 29.3273 155.207 30.6951C155.207 31.9049 155.61 32.9327 156.409 33.7866C157.199 34.6247 158.227 35.0438 159.5 35.0438C160.575 35.0438 161.39 34.6168 161.943 33.7708V34.767H164.608V26.5125H161.943V27.4376C161.342 26.6311 160.48 26.2358 159.35 26.2358ZM147.419 32.7271C147.79 32.3951 148.035 32.0314 148.162 31.636C148.288 31.2328 148.344 30.7268 148.344 30.1179V28.5445H150.542V32.7271H147.419ZM145.901 29.7068C145.901 30.2998 145.861 30.79 145.774 31.1853C145.687 31.5807 145.489 31.9207 145.181 32.2053C144.857 32.4978 144.485 32.6718 144.05 32.7192V37.0837H146.415V34.7512H152.052V37.0837H154.416V32.7192H153.198V26.5046H145.893V29.7068H145.901ZM139.836 29.098C140.239 29.4775 140.445 29.9835 140.445 30.6161C140.445 31.2407 140.232 31.7625 139.797 32.1658C139.417 32.5453 138.951 32.7429 138.413 32.7429C137.773 32.7429 137.251 32.5295 136.84 32.0946C136.468 31.6993 136.286 31.2091 136.286 30.6161C136.286 30.0231 136.492 29.525 136.895 29.1217C137.29 28.7264 137.773 28.5287 138.358 28.5287C138.951 28.5287 139.441 28.7185 139.836 29.098ZM137.694 26.2358C136.531 26.2358 135.582 26.6153 134.823 27.3664C133.97 28.2204 133.55 29.3273 133.55 30.6951C133.55 31.9049 133.954 32.9327 134.752 33.7866C135.543 34.6247 136.571 35.0438 137.844 35.0438C138.919 35.0438 139.733 34.6168 140.287 33.7708V34.767H142.951V26.5125H140.287V27.4376C139.694 26.6311 138.824 26.2358 137.694 26.2358ZM124.474 29.098C124.877 29.4775 125.082 29.9835 125.082 30.6161C125.082 31.2407 124.869 31.7625 124.434 32.1658C124.055 32.5453 123.588 32.7429 123.05 32.7429C122.41 32.7429 121.888 32.5295 121.477 32.0946C121.105 31.6993 120.924 31.2091 120.924 30.6161C120.924 30.0231 121.129 29.525 121.532 29.1217C121.928 28.7264 122.41 28.5287 122.995 28.5287C123.58 28.5287 124.078 28.7185 124.474 29.098ZM122.323 26.2358C121.161 26.2358 120.212 26.6153 119.453 27.3664C118.599 28.2204 118.18 29.3273 118.18 30.6951C118.18 31.9049 118.583 32.9327 119.382 33.7866C120.172 34.6247 121.2 35.0438 122.473 35.0438C123.549 35.0438 124.363 34.6168 124.916 33.7708V34.767H127.581V26.5125H124.916V27.4376C124.323 26.6311 123.462 26.2358 122.323 26.2358ZM110.455 34.7591V31.5253H113.436V34.7591H115.081V37.0916H117.445V32.6164H116.093V26.5125H113.428V29.3826H110.447V26.5125H107.783V34.7591H110.455ZM102.612 29.098C103.015 29.4775 103.221 29.9835 103.221 30.6161C103.221 31.2407 103.007 31.7625 102.572 32.1658C102.193 32.5453 101.726 32.7429 101.189 32.7429C100.548 32.7429 100.026 32.5295 99.6152 32.0946C99.2436 31.6993 99.0618 31.2091 99.0618 30.6161C99.0618 30.0231 99.2673 29.525 99.6706 29.1217C100.066 28.7264 100.548 28.5287 101.133 28.5287C101.726 28.5287 102.216 28.7185 102.612 29.098ZM100.469 26.2358C99.3069 26.2358 98.3581 26.6153 97.599 27.3664C96.7451 28.2204 96.3261 29.3273 96.3261 30.6951C96.3261 31.9049 96.7293 32.9327 97.5279 33.7866C98.3185 34.6247 99.3464 35.0438 100.619 35.0438C101.695 35.0438 102.509 34.6168 103.063 33.7708V34.767H105.727V26.5125H103.063V27.4376C102.47 26.6311 101.6 26.2358 100.469 26.2358ZM88.7989 34.7591V29.2324L92.5309 34.7591H95.9703L91.3291 28.3627L95.6935 22.4248H92.436L88.791 27.7143V22.4248H85.9447V27.7143L82.2997 22.4248H79.0422L83.4066 28.3627L78.7812 34.7591H82.2206L85.9367 29.2324V34.7591H88.7989Z" fill="#F3F4FF"/>
<path d="M39.9612 35.4553C40.2221 38.0803 38.3008 40.4285 35.6758 40.6815C33.0508 40.9425 30.7025 39.0212 30.4495 36.3962C30.1886 33.7712 32.1099 31.4308 34.7349 31.1699C37.3599 30.9011 39.7003 32.8224 39.9612 35.4553Z" fill="#F3F4FF"/>
<path d="M33.7524 21.761L28.2969 13.7832L32.0762 4.89612L37.5318 12.866L33.7524 21.761Z" fill="#F3F4FF"/>
<path d="M26.0827 10.8658L22.4141 8.99979L22.8726 2.41357L27.5771 7.03895L26.0827 10.8658Z" fill="#F3F4FF"/>
<path d="M14.8644 18.6853L10.7529 18.8751L7.88281 12.9293L14.2714 14.6134L14.8644 18.6853Z" fill="#F3F4FF"/>
<path d="M0 29.9601L5.4872 33.6288L8.92658 31.3833L6.34902 28.1732L0 29.9601Z" fill="#F3F4FF"/>
<path d="M41.3059 0.587158L37.5977 6.04273L39.8194 9.50583L43.0453 6.95199L41.3059 0.587158Z" fill="#F3F4FF"/>
<path d="M52.1367 10.8577L58.0667 7.95593L56.4221 14.3445L52.3581 14.9691L52.1367 10.8577Z" fill="#F3F4FF"/>
<path d="M62.5656 22.5991L69.1439 23.1051L64.4869 27.778L60.668 26.252L62.5656 22.5991Z" fill="#F3F4FF"/>
<path d="M41.0011 22.9233L40.25 13.2851L47.959 7.46582L48.7101 17.0961L41.0011 22.9233Z" fill="#F3F4FF"/>
<path d="M46.75 27.5961L50.9405 18.8909L60.5312 17.7286L56.3407 26.4338L46.75 27.5961Z" fill="#F3F4FF"/>
<path d="M49.375 34.5223L57.3686 29.0905L66.2398 32.9094L58.2462 38.3333L49.375 34.5223Z" fill="#F3F4FF"/>
<path d="M18.4668 20.1008L17.3203 10.5022L26.0176 14.7006L27.172 24.2914L18.4668 20.1008Z" fill="#F3F4FF"/>
<path d="M12.8231 30.7509L7.01172 23.034L16.642 22.2908L22.4534 29.9997L12.8231 30.7509Z" fill="#F3F4FF"/>
<path d="M13.2935 42.7927L4.39062 39.037L12.3447 33.5577L21.2476 37.3055L13.2935 42.7927Z" fill="#F3F4FF"/>
<path d="M34.107 28.1576L30.043 21.7927L30.9443 29.2882L34.107 28.1576Z" fill="#F3F4FF"/>
<path d="M38.1879 28.6398L37.7925 21.0969L34.875 28.0627L38.1879 28.6398Z" fill="#F3F4FF"/>
<path d="M41.5347 31.1224L44.9583 24.386L38.9492 28.9639L41.5347 31.1224Z" fill="#F3F4FF"/>
<path d="M43.1818 34.9335L49.515 30.822L42.0195 31.7787L43.1818 34.9335Z" fill="#F3F4FF"/>
<path d="M30.3527 29.723L23.6953 26.165L28.1467 32.269L30.3527 29.723Z" fill="#F3F4FF"/>
<path d="M27.1757 36.2537L20.2891 33.1464L27.8399 32.9567L27.1757 36.2537Z" fill="#F3F4FF"/>
<path d="M35.6035 45.4019L24.4157 38.1753L30.4247 50.5333L22.3125 68.6316L35.6035 56.1233L41.7707 68.6316V48.9994L46.7519 36.0563L35.6035 45.4019Z" fill="#F3F4FF"/>
</g>
<defs>
<clipPath id="clip0_272_8112">
<rect width="210" height="68.0444" fill="white" transform="translate(0 0.587158)"/>
</clipPath>
</defs>
</svg>
