<svg width="120" height="120" viewBox="0 0 120 120" fill="none" xmlns="http://www.w3.org/2000/svg">
<mask id="mask0_249_10265" style="mask-type:alpha" maskUnits="userSpaceOnUse" x="1" y="1" width="117" height="117">
<path d="M72.2925 2.01991C72.8197 1.73425 73.4784 1.91481 73.7862 2.42938L117.438 75.3958C117.762 75.9379 117.574 76.6408 117.022 76.9482L45.0203 117.054C44.4808 117.355 43.7998 117.161 43.4986 116.622L1.59051 41.6184C1.28623 41.0738 1.48589 40.3856 2.03438 40.0884L72.2925 2.01991Z" fill="#D9D9D9"/>
</mask>
<g mask="url(#mask0_249_10265)">
<path d="M73.2276 1.5062L0.0989202 40.8132L74.0268 45.4498L73.2276 1.5062Z" fill="url(#paint0_linear_249_10265)"/>
<path d="M118.921 77.8757L73.1523 0.536255L74.0266 45.4499L118.921 77.8757Z" fill="url(#paint1_linear_249_10265)"/>
<path d="M118.174 77.0556L74.0272 45.4499L43.9631 117.894L118.174 77.0556Z" fill="url(#paint2_linear_249_10265)"/>
<path d="M74.0275 45.4498L0.899066 40.8331L43.9635 117.894L74.0275 45.4498Z" fill="url(#paint3_linear_249_10265)"/>
</g>
<defs>
<linearGradient id="paint0_linear_249_10265" x1="74.0273" y1="39.8051" x2="0.582739" y2="41.1489" gradientUnits="userSpaceOnUse">
<stop offset="0.00606404" stop-color="#FFE89C"/>
<stop offset="0.023053" stop-color="#FFDE71"/>
<stop offset="1" stop-color="#FFC242"/>
</linearGradient>
<linearGradient id="paint1_linear_249_10265" x1="118.998" y1="77.5778" x2="73.5342" y2="1.57623" gradientUnits="userSpaceOnUse">
<stop stop-color="#FEB30C"/>
<stop offset="1" stop-color="#FFD35D"/>
</linearGradient>
<linearGradient id="paint2_linear_249_10265" x1="44.5603" y1="118.043" x2="88.8867" y2="56.0861" gradientUnits="userSpaceOnUse">
<stop stop-color="#E7A229"/>
<stop offset="0.985878" stop-color="#D7951C"/>
<stop offset="1" stop-color="#D7941A"/>
</linearGradient>
<linearGradient id="paint3_linear_249_10265" x1="64.9024" y1="68.5682" x2="0.21134" y2="41.3735" gradientUnits="userSpaceOnUse">
<stop stop-color="#F8B130"/>
<stop offset="0.0300404" stop-color="#EEA624"/>
<stop offset="1" stop-color="#E8A224"/>
</linearGradient>
</defs>
</svg>
