<svg width="1920" height="1080" viewBox="0 0 1920 1080" fill="none" xmlns="http://www.w3.org/2000/svg">
<g opacity="0.5">
<mask id="mask0_344_12509" style="mask-type:alpha" maskUnits="userSpaceOnUse" x="0" y="0" width="1920" height="1080">
<rect width="1920" height="1080" fill="white"/>
</mask>
<g mask="url(#mask0_344_12509)">
<circle cx="1061" cy="76" r="2" fill="white"/>
<circle cx="998.5" cy="51.5" r="1.5" fill="white"/>
<circle cx="1851" cy="706" r="2" fill="white"/>
<circle cx="1738" cy="176" r="2" fill="white"/>
<circle cx="1514" cy="782" r="2" fill="white"/>
<circle cx="864" cy="704" r="2" fill="white"/>
<circle cx="1720" cy="371" r="2" fill="white"/>
<circle cx="1644" cy="320" r="2" fill="white"/>
<circle cx="687.5" cy="219.5" r="1.5" fill="white"/>
<circle cx="571" cy="783" r="2" fill="white"/>
<circle cx="211.5" cy="276.5" r="1.5" fill="white"/>
<circle cx="1727.5" cy="370.5" r="1.5" fill="white"/>
<circle cx="822" cy="397" r="2" fill="white"/>
<circle cx="58" cy="808" r="2" fill="white"/>
<circle cx="189.5" cy="582.5" r="1.5" fill="white"/>
<circle cx="461.5" cy="489.5" r="1.5" fill="white"/>
<circle cx="250.5" cy="674.5" r="1.5" fill="white"/>
<circle cx="292" cy="663" r="2" fill="white"/>
<circle cx="1025.5" cy="626.5" r="1.5" fill="white"/>
<circle cx="970" cy="555" r="2" fill="white"/>
<circle cx="410" cy="737" r="2" fill="white"/>
<circle cx="1506" cy="430" r="2" fill="white"/>
<circle cx="1049" cy="797" r="2" fill="white"/>
<circle cx="1319" cy="306" r="2" fill="white"/>
<circle cx="1651" cy="845" r="2" fill="white"/>
<circle cx="1868" cy="881" r="2" fill="white"/>
<circle cx="1069.5" cy="569.5" r="1.5" fill="white"/>
<circle cx="1474" cy="108" r="2" fill="white"/>
<circle cx="1187" cy="133" r="2" fill="white"/>
<circle cx="997" cy="1017" r="2" fill="white"/>
<circle cx="585" cy="528" r="2" fill="white"/>
<circle cx="1875.5" cy="619.5" r="1.5" fill="white"/>
<circle cx="1649.5" cy="945.5" r="1.5" fill="white"/>
<circle cx="1035.5" cy="548.5" r="1.5" fill="white"/>
<circle cx="1270.5" cy="638.5" r="1.5" fill="white"/>
<circle cx="59.5" cy="316.5" r="1.5" fill="white"/>
<circle cx="961.5" cy="131.5" r="1.5" fill="white"/>
<circle cx="584" cy="919" r="2" fill="white"/>
<circle cx="1253" cy="481" r="2" fill="white"/>
<circle cx="1888.5" cy="699.5" r="1.5" fill="white"/>
<circle cx="1563.5" cy="314.5" r="1.5" fill="white"/>
<circle cx="1141" cy="171" r="2" fill="white"/>
<circle cx="1379" cy="992" r="2" fill="white"/>
<circle cx="1919" cy="425" r="2" fill="white"/>
<circle cx="142.5" cy="262.5" r="1.5" fill="white"/>
<circle cx="1056" cy="3" r="2" fill="white"/>
<circle cx="1845" cy="526" r="2" fill="white"/>
<circle cx="259.5" cy="480.5" r="1.5" fill="white"/>
<circle cx="1354" cy="449" r="2" fill="white"/>
<circle cx="1293" cy="998" r="2" fill="white"/>
</g>
</g>
</svg>
