<svg width="1920" height="1080" viewBox="0 0 1920 1080" fill="none" xmlns="http://www.w3.org/2000/svg">
<g opacity="0.8">
<mask id="mask0_344_12511" style="mask-type:alpha" maskUnits="userSpaceOnUse" x="0" y="0" width="1920" height="1080">
<rect width="1920" height="1080" fill="white"/>
</mask>
<g mask="url(#mask0_344_12511)">
<circle cx="373" cy="980" r="0.5" fill="white"/>
<circle cx="618" cy="591" r="0.5" fill="white"/>
<circle cx="1452" cy="256" r="0.5" fill="white"/>
<circle cx="210" cy="152" r="0.5" fill="white"/>
<circle cx="1769" cy="184" r="0.5" fill="white"/>
<circle cx="365" cy="774" r="0.5" fill="white"/>
<circle cx="523" cy="708" r="0.5" fill="white"/>
<circle cx="598" cy="758" r="0.5" fill="white"/>
<circle cx="383" cy="385" r="0.5" fill="white"/>
<circle cx="1098" cy="1051" r="0.5" fill="white"/>
<circle cx="916" cy="672" r="0.5" fill="white"/>
<circle cx="1831" cy="384" r="0.5" fill="white"/>
<circle cx="1432" cy="121" r="0.5" fill="white"/>
<circle cx="242" cy="849" r="0.5" fill="white"/>
<circle cx="272" cy="184" r="0.5" fill="white"/>
<circle cx="488" cy="435" r="0.5" fill="white"/>
<circle cx="1727" cy="1019" r="0.5" fill="white"/>
<circle cx="1732" cy="911" r="0.5" fill="white"/>
<circle cx="711" cy="439" r="0.5" fill="white"/>
<circle cx="87" cy="870" r="0.5" fill="white"/>
<circle cx="269" cy="852" r="0.5" fill="white"/>
<circle cx="601" cy="849" r="0.5" fill="white"/>
<circle cx="365" cy="494" r="0.5" fill="white"/>
<circle cx="13" cy="417" r="0.5" fill="white"/>
<circle cx="574" cy="748" r="0.5" fill="white"/>
<circle cx="135" cy="541" r="0.5" fill="white"/>
<circle cx="292" cy="402" r="0.5" fill="white"/>
<circle cx="1319" cy="44" r="0.5" fill="white"/>
<circle cx="353" cy="214" r="0.5" fill="white"/>
<circle cx="1864" cy="380" r="0.5" fill="white"/>
<circle cx="506" cy="429" r="0.5" fill="white"/>
<circle cx="1092" cy="773" r="0.5" fill="white"/>
<circle cx="553" cy="339" r="0.5" fill="white"/>
<circle cx="1277" cy="892" r="0.5" fill="white"/>
<circle cx="1416" cy="104" r="0.5" fill="white"/>
<circle cx="180" cy="72" r="0.5" fill="white"/>
<circle cx="299" cy="596" r="0.5" fill="white"/>
<circle cx="1506" cy="839" r="0.5" fill="white"/>
<circle cx="735" cy="441" r="0.5" fill="white"/>
<circle cx="1598" cy="982" r="0.5" fill="white"/>
<circle cx="1276" cy="904" r="0.5" fill="white"/>
<circle cx="381" cy="879" r="0.5" fill="white"/>
<circle cx="640" cy="238" r="0.5" fill="white"/>
<circle cx="1013" cy="979" r="0.5" fill="white"/>
<circle cx="139" cy="161" r="0.5" fill="white"/>
<circle cx="160" cy="682" r="0.5" fill="white"/>
<circle cx="280" cy="548" r="0.5" fill="white"/>
<circle cx="206" cy="454" r="0.5" fill="white"/>
<circle cx="1714" cy="42" r="0.5" fill="white"/>
<circle cx="1346" cy="443" r="0.5" fill="white"/>
<circle cx="1037" cy="826" r="0.5" fill="white"/>
<circle cx="725" cy="370" r="0.5" fill="white"/>
<circle cx="1748" cy="624" r="0.5" fill="white"/>
<circle cx="1555" cy="832" r="0.5" fill="white"/>
<circle cx="558" cy="794" r="0.5" fill="white"/>
<circle cx="921" cy="181" r="0.5" fill="white"/>
<circle cx="1566" cy="1041" r="0.5" fill="white"/>
<circle cx="1614" cy="876" r="0.5" fill="white"/>
<circle cx="1149" cy="509" r="0.5" fill="white"/>
<circle cx="983" cy="808" r="0.5" fill="white"/>
<circle cx="1833" cy="977" r="0.5" fill="white"/>
<circle cx="667" cy="893" r="0.5" fill="white"/>
<circle cx="842" cy="228" r="0.5" fill="white"/>
<circle cx="568" cy="160" r="0.5" fill="white"/>
<circle cx="1384" cy="523" r="0.5" fill="white"/>
<circle cx="1272" cy="788" r="0.5" fill="white"/>
<circle cx="1232" cy="648" r="0.5" fill="white"/>
<circle cx="280" cy="501" r="0.5" fill="white"/>
<circle cx="670" cy="294" r="0.5" fill="white"/>
<circle cx="1169" cy="466" r="0.5" fill="white"/>
<circle cx="1347" cy="257" r="0.5" fill="white"/>
<circle cx="421" cy="62" r="0.5" fill="white"/>
<circle cx="1202" cy="659" r="0.5" fill="white"/>
<circle cx="1394" cy="279" r="0.5" fill="white"/>
<circle cx="39" cy="34" r="0.5" fill="white"/>
<circle cx="17" cy="88" r="0.5" fill="white"/>
<circle cx="347" cy="998" r="0.5" fill="white"/>
<circle cx="539" cy="1046" r="0.5" fill="white"/>
<circle cx="1438" cy="641" r="0.5" fill="white"/>
<circle cx="1317" cy="1039" r="0.5" fill="white"/>
<circle cx="1516" cy="460" r="0.5" fill="white"/>
<circle cx="45" cy="174" r="0.5" fill="white"/>
<circle cx="1854" cy="630" r="0.5" fill="white"/>
<circle cx="1879" cy="749" r="0.5" fill="white"/>
<circle cx="1594" cy="731" r="0.5" fill="white"/>
<circle cx="441" cy="418" r="0.5" fill="white"/>
<circle cx="1441" cy="4" r="0.5" fill="white"/>
<circle cx="874" cy="509" r="0.5" fill="white"/>
<circle cx="796" cy="168" r="0.5" fill="white"/>
<circle cx="1685" cy="249" r="0.5" fill="white"/>
<circle cx="456" cy="233" r="0.5" fill="white"/>
<circle cx="359" cy="707" r="0.5" fill="white"/>
<circle cx="277" cy="43" r="0.5" fill="white"/>
<circle cx="509" cy="335" r="0.5" fill="white"/>
<circle cx="1520" cy="981" r="0.5" fill="white"/>
<circle cx="1870" cy="904" r="0.5" fill="white"/>
<circle cx="1674" cy="408" r="0.5" fill="white"/>
<circle cx="298" cy="490" r="0.5" fill="white"/>
<circle cx="1690" cy="1039" r="0.5" fill="white"/>
<circle cx="265" cy="823" r="0.5" fill="white"/>
</g>
</g>
</svg>
