<svg width="245" height="197" viewBox="0 0 245 197" fill="none" xmlns="http://www.w3.org/2000/svg">
<path d="M225.276 39.4918C224.793 41.952 224.323 44.415 223.822 46.8752C223.461 48.6372 223.045 50.3884 222.674 52.1518C222.506 52.9491 222.408 53.7599 222.244 54.5579C221.434 58.5317 220.625 62.5055 219.798 66.4759C219.466 68.0746 219.072 69.6611 218.746 71.2611C217.869 75.563 217.025 79.8751 216.14 84.1791C215.494 87.3225 214.806 90.4577 214.145 93.6018C213.815 95.1721 213.506 96.7465 213.179 98.3175C213.007 99.139 212.796 99.9565 212.655 100.781C212.601 101.097 212.642 101.454 212.731 101.766C213.079 102.999 213.268 104.25 213.096 105.525C212.959 106.554 212.741 107.572 212.579 108.596C212.372 109.904 212.18 111.213 211.988 112.52C211.973 112.614 212.017 112.72 212.037 112.82C212.132 112.771 212.243 112.739 212.321 112.672C213.097 111.979 213.856 111.262 214.643 110.583C217.115 108.446 219.648 106.381 222.4 104.611C223.63 103.821 224.928 103.142 226.202 102.421C226.687 102.147 226.702 102.085 226.258 101.75C226.08 101.614 225.859 101.513 225.719 101.349C225.608 101.219 225.5 100.983 225.544 100.848C225.589 100.713 225.827 100.634 225.988 100.547C226.028 100.522 226.099 100.547 226.154 100.558C227.505 100.855 228.848 100.695 230.183 100.451C231.916 100.134 233.575 99.5755 234.99 98.4988C236.646 97.2393 238.251 95.9122 239.891 94.628C240.332 94.2834 240.819 93.9982 241.269 93.6661C241.618 93.4111 241.903 93.4779 242.148 93.7849C242.817 94.6208 243.483 95.456 244.132 96.3059C244.461 96.737 244.126 97.0521 243.862 97.3345C243.383 97.8513 242.874 98.3372 242.377 98.8361C241.101 100.12 240.151 101.604 239.738 103.381C239.423 104.728 239.279 106.101 239.387 107.488C239.452 108.328 239.579 109.165 239.633 110.006C239.664 110.486 239.806 111.064 239.021 111.165C238.902 111.181 238.787 111.457 238.728 111.632C237.893 114.07 236.756 116.362 235.409 118.552C233.877 121.047 232.277 123.5 230.45 125.796C230.083 126.256 229.692 126.708 229.265 127.109C228.907 127.445 228.772 127.842 228.7 128.299C228.242 131.163 227.794 134.026 227.308 136.884C226.995 138.717 226.612 140.535 226.278 142.364C225.785 145.077 225.322 147.797 224.829 150.51C224.438 152.643 224.003 154.768 223.612 156.902C223.006 160.225 222.427 163.558 221.831 166.884C221.23 170.234 220.629 173.584 220.025 176.933C219.335 180.754 218.652 184.58 217.952 188.4C217.653 190.03 217.295 191.652 216.996 193.283C216.877 193.928 216.553 194.385 215.956 194.609C214.823 195.034 213.699 195.503 212.533 195.806C209.24 196.668 205.882 196.896 202.485 196.847C199.772 196.806 197.073 196.606 194.408 196.176C190.935 195.616 187.484 194.909 184.1 193.899C179.884 192.639 175.774 191.113 171.734 189.378C168.86 188.145 166.027 186.834 163.31 185.279C161.065 183.993 158.793 182.753 156.582 181.406C155.048 180.472 153.596 179.392 152.11 178.374C151.531 177.977 150.964 177.567 150.39 177.163C149.986 176.879 149.839 176.473 149.829 175.993C149.753 172.19 149.752 168.391 150.02 164.595C150.16 162.602 150.307 160.611 150.5 158.623C150.716 156.408 150.973 154.202 151.245 151.995C151.555 149.482 151.901 146.974 152.246 144.465C152.401 143.349 152.59 142.239 152.752 141.125C152.876 140.272 152.753 140.151 151.928 140.029C150.647 139.838 149.374 139.602 148.093 139.39C144.596 138.807 141.096 138.224 137.598 137.641C135.072 137.22 132.544 136.788 130.017 136.37C128.183 136.067 126.344 135.803 124.511 135.493C122.765 135.201 121.026 134.848 119.279 134.559C116.863 134.16 114.443 133.803 112.024 133.417C111.442 133.325 110.861 133.21 110.279 133.103C109.006 132.868 107.737 132.611 106.464 132.397C104.104 132.005 101.742 131.645 99.3819 131.257C97.9931 131.027 96.6131 130.752 95.2237 130.526C93.336 130.22 91.4395 129.959 89.5545 129.639C87.6142 129.308 85.6799 128.928 83.7437 128.576C83.0254 128.446 82.3016 128.325 81.5812 128.205C79.4174 127.841 77.2584 127.471 75.0919 127.121C73.7059 126.895 72.3103 126.718 70.9243 126.492C69.4269 126.248 67.9377 125.963 66.4381 125.711C63.5498 125.23 60.6609 124.77 57.774 124.282C56.9983 124.151 56.2307 123.961 55.4665 123.771C55.0381 123.666 54.685 123.762 54.3768 124.05C53.7391 124.643 53.1014 125.237 52.4783 125.847C52.3666 125.958 52.3202 126.14 52.2606 126.297C51.2182 128.913 50.2528 131.559 49.1176 134.136C47.5282 137.744 45.7316 141.255 43.6232 144.596C42.9766 145.619 42.2793 146.607 41.6105 147.614C41.3904 147.949 41.0894 148.127 40.6924 148.117C40.4137 148.109 40.1301 148.107 39.8513 148.063C36.1035 147.438 32.5427 146.246 29.1186 144.596C26.0395 143.11 23.0965 141.389 20.309 139.426C17.5936 137.516 14.9842 135.469 12.5311 133.211C9.64301 130.552 6.94594 127.726 4.5391 124.629C3.33118 123.077 2.27569 121.407 1.1526 119.788C0.880866 119.397 0.622912 118.99 0.355316 118.596C-0.12705 117.887 -0.137046 117.59 0.441032 116.953C1.85833 115.391 3.24436 113.788 4.74908 112.312C6.79697 110.303 8.90312 108.344 11.0697 106.463C12.7467 105.006 14.541 103.684 16.3111 102.339C16.9574 101.848 17.6551 101.407 18.3801 101.046C19.0332 100.721 19.5212 100.249 19.989 99.716C21.4164 98.0845 22.8043 96.4166 24.3074 94.8575C27.5733 91.4777 30.8261 88.0737 34.6612 85.3089C36.3149 84.1173 38.089 83.1541 40.1209 82.7627C40.3152 82.7254 40.5203 82.6507 40.7051 82.6798C41.806 82.8565 42.5463 82.1431 43.3717 81.6368C43.723 81.4219 43.845 81.0937 43.9074 80.7214C44.0857 79.6675 44.2425 78.613 44.4312 77.5612C44.7557 75.7633 45.1051 73.9668 45.4296 72.169C46.1635 68.1228 46.8828 64.0773 47.6167 60.0311C48.4287 55.5691 49.265 51.1117 50.0735 46.6489C50.7748 42.7688 51.4407 38.8854 52.142 35.0053C52.734 31.7363 53.3599 28.4775 53.9519 25.2084C54.3571 22.9628 54.734 20.7153 55.1185 18.4657C55.4292 16.6651 55.7163 14.8563 56.0477 13.0598C56.7547 9.24198 57.4831 5.42473 58.2074 1.61025C58.329 0.972892 58.4028 0.908323 59.0546 1.01123C61.7789 1.44945 64.5025 1.89113 67.2198 2.34597C69.4992 2.72553 71.7724 3.11825 74.049 3.51165C75.4884 3.75851 76.9263 4.01229 78.3691 4.25983C81.0042 4.71287 83.6365 5.16177 86.2709 5.61828C88.7697 6.05173 91.261 6.50526 93.7631 6.92141C97.5386 7.55179 101.318 8.14342 105.093 8.77379C109.175 9.45707 113.255 10.1653 117.333 10.8658C119.718 11.2734 122.101 11.6913 124.487 12.0954C128.734 12.8148 132.978 13.5266 137.225 14.2459C139.642 14.6562 142.052 15.0864 144.469 15.4932C147.496 16.0016 150.528 16.4679 153.551 16.9901C157.465 17.6657 161.366 18.3924 165.28 19.068C167.942 19.5265 170.616 19.9116 173.28 20.3632C175.638 20.7618 177.985 21.2193 180.341 21.6284C182.948 22.0794 185.563 22.489 188.173 22.9407C190.144 23.2812 192.103 23.6805 194.075 24.0141C196.516 24.4291 198.97 24.7818 201.414 25.2009C205.218 25.8512 209.012 26.55 212.816 27.2003C215.535 27.6662 218.265 28.0733 220.985 28.5323C222.513 28.7892 224.038 29.0745 225.552 29.4006C227.151 29.7472 227.188 29.8515 226.873 31.4356C226.339 34.116 225.816 36.7983 225.289 39.48C225.29 39.4945 225.283 39.4931 225.276 39.4918ZM198.841 114.318L198.849 114.312C198.979 114.528 199.101 114.75 199.238 114.964C199.652 115.602 200.074 116.235 200.488 116.873C201.091 117.807 201.015 118.195 200.058 118.801C199.562 119.117 199.024 119.367 198.505 119.646C198.135 119.846 197.759 120.042 197.395 120.247C197.33 120.285 197.289 120.367 197.238 120.425C197.312 120.45 197.382 120.496 197.457 120.5C198.385 120.553 199.309 120.584 200.237 120.655C201.094 120.719 201.324 120.976 201.332 121.815C201.344 123.305 201.35 124.794 201.363 126.284C201.367 126.573 201.199 126.971 201.605 127.083C202.02 127.201 202.086 126.772 202.209 126.512C202.783 125.291 203.324 124.057 203.904 122.841C204.283 122.046 204.687 121.928 205.459 122.371C206.215 122.803 206.949 123.278 207.698 123.723C207.827 123.799 207.983 123.83 208.128 123.88C208.069 123.757 208.027 123.626 207.952 123.514C207.456 122.763 206.94 122.025 206.452 121.268C206.088 120.708 206.138 120.509 206.743 120.229C207.356 119.944 207.988 119.709 208.61 119.45C209.491 119.08 210.372 118.711 211.249 118.33C211.335 118.293 211.395 118.189 211.467 118.114C211.366 118.079 211.264 118.013 211.161 118.01C210.824 118.002 210.485 118.029 210.146 118.016C208.797 117.966 207.448 117.939 206.105 117.84C205.449 117.794 205.34 117.6 205.406 116.955C205.449 116.536 205.538 116.119 205.577 115.699C205.613 115.335 205.609 114.972 205.626 114.609C205.413 114.89 205.196 115.167 204.986 115.453C204.902 115.566 204.841 115.694 204.758 115.807C203.917 116.921 203.378 116.959 202.443 116.341C201.293 115.59 200.046 114.989 198.841 114.318ZM238.367 108.804L238.363 108.807C238.342 108.526 238.318 108.245 238.298 107.964C238.182 106.36 238.148 104.761 238.509 103.179C239.012 100.967 240.199 99.1485 241.717 97.5167C242.554 96.6176 242.567 96.6272 241.757 95.6991C241.267 95.1392 241.276 95.1482 240.729 95.612C239.335 96.7973 237.948 97.9873 236.531 99.1429C235.11 100.301 233.508 101.086 231.679 101.374C231.209 101.447 230.751 101.583 230.289 101.701C230.232 101.715 230.2 101.806 230.153 101.861C230.197 101.895 230.237 101.949 230.285 101.959C230.702 102.03 231.122 102.069 231.536 102.158C232.561 102.377 232.913 103 232.646 103.993C232.319 105.215 232.027 106.448 231.724 107.675C231.692 107.806 231.711 107.946 231.706 108.081C231.844 108.015 232.001 107.97 232.122 107.883C233.056 107.208 233.974 106.507 234.92 105.845C235.52 105.42 235.786 105.476 236.275 106.043C236.421 106.212 236.55 106.399 236.683 106.58C237.245 107.326 237.807 108.066 238.367 108.804ZM104.924 34.9896C105.034 35.0113 105.145 35.0331 105.256 35.0549C109.263 35.8387 113.275 36.6197 117.281 37.4104C122.949 38.5275 128.614 39.6515 134.28 40.7789C135.798 41.0808 137.32 41.3799 138.831 41.7199C139.743 41.9243 139.762 41.9602 139.67 42.8478C139.586 43.658 139.468 44.4613 139.321 45.2626C138.656 48.9773 137.977 52.6893 137.305 56.4026C136.549 60.581 135.789 64.7586 135.033 68.937C134.691 70.8213 134.35 72.7022 134.019 74.5886C133.363 78.3302 132.714 82.0732 132.062 85.812C131.671 88.0603 131.283 90.3059 130.882 92.5521C130.591 94.1589 130.287 95.7631 129.975 97.3658C129.512 99.7437 129.045 102.121 128.564 104.495C128.407 105.277 128.289 105.361 127.512 105.46C127.316 105.486 127.116 105.501 126.923 105.477C125.835 105.343 124.746 105.197 123.66 105.052C121.542 104.769 119.422 104.471 117.301 104.202C114.37 103.83 111.433 103.487 108.501 103.116C105.622 102.751 102.752 102.364 99.8747 101.989C98.841 101.854 97.8101 101.723 96.775 101.595C93.9542 101.246 91.1314 100.907 88.312 100.551C86.3837 100.305 84.4596 100.038 82.5367 99.7646C82.0856 99.7012 81.7353 99.8012 81.3829 100.113C80.3666 101.006 79.3155 101.856 78.2824 102.724C76.557 104.171 74.8198 105.605 73.1124 107.07C71.5091 108.444 69.9287 109.848 68.3553 111.253C66.5288 112.885 64.7024 114.517 62.8995 116.175C61.0966 117.834 59.3264 119.527 57.5353 121.199C57.2271 121.487 56.8808 121.731 56.5726 122.019C56.3438 122.233 56.3873 122.432 56.7111 122.485C57.1817 122.559 57.6583 122.585 58.1288 122.659C59.1813 122.827 60.2317 123.022 61.2835 123.193C63.1719 123.496 65.0698 123.768 66.9562 124.081C69.2044 124.454 71.4423 124.862 73.6885 125.246C75.9624 125.635 78.2383 126.014 80.5149 126.407C81.6235 126.6 82.7232 126.837 83.8338 127.02C85.3313 127.264 86.8327 127.469 88.3335 127.695C89.1396 127.818 89.9484 127.926 90.7539 128.07C92.6355 128.408 94.5082 128.79 96.3939 129.107C98.7493 129.501 101.116 129.837 103.473 130.224C106.307 130.691 109.129 131.199 111.962 131.669C114.766 132.138 117.577 132.575 120.38 133.032C124.102 133.641 127.826 134.262 131.547 134.878C135.434 135.523 139.326 136.165 143.211 136.821C146.237 137.333 149.263 137.866 152.287 138.388C153.194 138.545 153.227 138.505 153.409 137.635C154.176 133.969 154.901 130.295 155.737 126.646C156.254 124.397 156.892 122.176 157.569 119.969C158.139 118.115 158.809 116.292 159.503 114.481C159.705 113.945 159.752 113.505 159.591 112.953C159.112 111.313 159.421 109.76 160.678 108.609C161.393 107.955 161.508 107.385 161.191 106.586C161.159 106.508 161.14 106.425 161.105 106.346C160.629 105.257 160.528 104.105 160.633 102.951C160.687 102.347 160.864 101.72 161.129 101.176C161.632 100.15 162.502 99.5447 163.672 99.5158C164.124 99.5039 164.258 99.3361 164.254 98.9149C164.253 98.4654 164.264 98.0075 164.349 97.5716C164.944 94.5618 166.684 93.2613 169.352 93.347C171.466 93.4138 172.948 94.6682 174.098 96.3352C174.632 97.1086 174.586 97.1427 175.48 97.0165C175.591 97.0023 175.705 96.9708 175.815 96.978C176.33 97.0109 176.454 96.7442 176.508 96.2661C176.677 94.8042 177.369 93.5889 178.509 92.6666C179.287 92.036 180.208 91.7963 181.212 92.026C181.57 92.1071 181.919 92.2117 182.268 92.3232C182.94 92.5416 182.945 92.5533 183.383 92.0069C184.082 91.1379 184.9 90.447 185.931 89.9774C187.269 89.3671 189.546 89.8683 190.361 91.5344C190.895 92.6239 191.108 93.7691 190.943 94.9765C190.878 95.4525 190.847 95.9423 190.697 96.3909C190.527 96.9109 190.699 97.189 191.142 97.4019C191.293 97.4747 191.44 97.5683 191.562 97.6785C191.924 98.012 192.224 97.8768 192.509 97.5771C192.799 97.2711 193.061 96.9272 193.382 96.6633C195.071 95.2737 196.976 94.3578 199.159 94.0606C199.324 94.0393 199.489 93.989 199.653 93.9566C200.087 93.8694 200.338 93.6382 200.407 93.1739C200.488 92.6183 200.628 92.0708 200.743 91.5185C200.894 90.7863 200.903 90.7593 200.171 90.4969C199.741 90.3441 199.597 90.1074 199.664 89.675C199.829 88.6184 199.941 87.5515 200.134 86.5004C200.405 85.0264 200.23 84.8375 202.067 85.148C204.62 85.5778 207.137 86.2124 209.667 86.7779C210.304 86.921 210.426 87.0886 210.335 87.7321C210.166 88.9568 209.951 90.1795 209.744 91.4002C209.623 92.106 209.533 92.1997 208.799 92.1489C208.345 92.1173 208.196 92.3073 208.124 92.6955C207.993 93.4172 207.858 94.1383 207.704 94.8519C207.606 95.2928 207.721 95.5704 208.104 95.8506C208.826 96.3806 209.504 96.9738 210.166 97.5746C210.517 97.8915 210.794 98.291 211.125 98.6364C211.254 98.7694 211.432 98.8511 211.587 98.9571C211.649 98.8075 211.735 98.6627 211.769 98.5076C212.036 97.2411 212.296 95.9698 212.546 94.6999C213.118 91.8044 213.674 88.902 214.264 86.0099C214.673 83.9987 215.148 82.004 215.55 79.9915C216.601 74.7713 217.617 69.5478 218.668 64.3276C219.074 62.3158 219.541 60.3196 219.961 58.3105C220.334 56.5222 220.686 54.7298 221.042 52.9381C221.483 50.7284 221.921 48.518 222.356 46.3034C222.53 45.4211 222.509 45.3776 221.579 45.2127C219.557 44.8585 217.529 44.5141 215.504 44.1772C212.838 43.7326 210.169 43.3087 207.504 42.8606C205.671 42.5507 203.845 42.2028 202.015 41.8971C198.821 41.363 195.626 40.8503 192.431 40.3231C188.873 39.7355 185.314 39.1549 181.76 38.5535C178.925 38.0756 176.1 37.5602 173.266 37.0788C170.463 36.6035 167.657 36.1601 164.851 35.6986C162.244 35.269 159.638 34.829 157.032 34.3924C155.004 34.0514 152.98 33.7111 150.954 33.3563C148.821 32.9804 146.698 32.574 144.563 32.212C142.649 31.8899 140.724 31.6302 138.808 31.3186C137.196 31.0592 135.588 30.7721 133.979 30.4919C131.484 30.0557 128.991 29.5945 126.494 29.1721C124.58 28.8501 122.657 28.58 120.743 28.2615C118.109 27.8229 115.48 27.3533 112.846 26.9147C109.986 26.4355 107.126 25.9777 104.268 25.506C101.771 25.0982 99.271 24.6896 96.7764 24.2714C94.7199 23.9284 92.6695 23.5723 90.6156 23.2154C89.2296 22.9719 87.8462 22.6965 86.4574 22.4667C83.8466 22.0364 81.2324 21.6414 78.621 21.2146C76.8696 20.928 75.1298 20.6005 73.3805 20.3035C71.0216 19.9083 68.6551 19.5332 66.2968 19.1346C63.4105 18.6429 60.527 18.1375 57.6386 17.6383C57.5272 17.62 57.4144 17.6086 57.3044 17.5834C56.9286 17.5024 56.7022 17.6484 56.6323 18.0228C56.5942 18.2165 56.57 18.413 56.5354 18.6075C56.2846 20.1035 56.0504 21.6064 55.7788 23.0984C55.0856 26.919 54.3717 30.7355 53.6779 34.5596C53.0132 38.2169 52.3631 41.8734 51.7053 45.532C50.9593 49.6585 50.2028 53.7829 49.4671 57.9114C48.481 63.4246 47.5155 68.9419 46.5328 74.4557C46.2166 76.23 45.8719 78.0024 45.5453 79.7746C45.3809 80.6659 45.39 80.6929 46.2902 80.4097C47.7265 79.9588 49.2172 79.8528 50.6995 79.7343C51.6198 79.66 52.5471 79.8242 53.4238 80.1725C53.8469 80.3419 54.2633 80.3626 54.7361 80.2974C55.9251 80.1357 57.1129 79.8156 58.3325 80.1379C58.8281 80.2676 58.9205 80.1636 59.0108 79.6674C59.08 79.2785 59.1354 78.8869 59.197 78.5001C59.6886 75.4126 60.1761 72.3278 60.6677 69.2403C60.9981 67.1561 61.3431 65.0712 61.6597 62.9843C61.9229 61.2607 62.1445 59.5289 62.4146 57.8066C62.8242 55.1917 63.2725 52.5809 63.6896 49.9639C64.0126 47.9357 64.3121 45.8994 64.6282 43.8699C64.97 41.673 65.3076 39.4788 65.6702 37.2859C66.1336 34.4516 66.6075 31.6194 67.102 28.7912C67.2533 27.9297 67.5955 27.6878 68.4632 27.826C69.3766 27.9695 70.2799 28.1829 71.1906 28.3582C73.2888 28.7633 75.3905 29.1511 77.4839 29.5624C84.5047 30.9418 91.5235 32.3316 98.5436 33.7145C100.668 34.1534 102.796 34.5715 104.924 34.9896ZM154.224 141.443C154.238 141.445 154.251 141.448 154.269 141.452C154.122 142.199 153.944 142.94 153.836 143.692C153.43 146.505 153.025 149.318 152.665 152.137C152.407 154.146 152.18 156.164 152.013 158.183C151.801 160.761 151.609 163.347 151.507 165.933C151.389 168.968 151.374 172.009 151.316 175.045C151.305 175.65 151.504 176.099 152.057 176.448C154.152 177.769 156.198 179.17 158.308 180.465C160.322 181.702 162.362 182.901 164.451 184.008C168.357 186.077 172.36 187.948 176.511 189.483C178.518 190.226 180.533 190.941 182.567 191.603C183.931 192.048 185.327 192.39 186.713 192.763C187.77 193.05 188.834 193.327 189.9 193.587C190.747 193.793 191.598 193.982 192.453 194.146C193.15 194.279 193.309 194.142 193.347 193.441C193.394 192.541 193.392 191.639 193.492 190.745C193.875 187.22 194.228 183.688 194.712 180.179C195.108 177.306 195.647 174.454 196.182 171.602C196.69 168.887 197.247 166.183 197.837 163.488C198.308 161.346 198.852 159.217 199.383 157.086C199.902 155.01 200.438 152.941 200.974 150.869C201.237 149.86 201.496 148.851 201.786 147.851C202.38 145.798 202.978 143.744 203.603 141.696C204.333 139.299 205.066 136.902 205.839 134.521C206.301 133.102 206.848 131.711 207.35 130.307C207.598 129.612 207.498 129.463 206.779 129.375C205.633 129.24 204.483 129.115 203.343 128.952C202.34 128.809 201.341 128.627 200.343 128.456C198.678 128.168 196.993 127.963 195.357 127.566C192.211 126.804 189.082 125.974 185.971 125.093C183.727 124.458 181.502 123.73 179.298 122.966C177.172 122.229 175.066 121.423 172.976 120.592C171.173 119.875 169.377 119.12 167.619 118.3C165.525 117.324 163.476 116.264 161.401 115.245C160.746 114.923 160.652 114.944 160.423 115.617C159.926 117.083 159.426 118.552 159.001 120.039C158.442 121.984 157.917 123.944 157.444 125.914C156.714 128.951 156.002 131.992 155.358 135.049C154.91 137.164 154.596 139.309 154.224 141.443ZM80.5512 31.8218L80.5518 31.8183C76.9324 31.1072 73.3096 30.3954 69.6902 29.6842C69.4134 29.6299 69.1338 29.5713 68.8571 29.5529C68.3023 29.523 68.1651 29.6541 68.0965 30.2049C68.0487 30.5944 68.0002 30.9874 67.9421 31.3749C67.6641 33.2106 67.3784 35.0484 67.1004 36.8841C66.7527 39.1662 66.4056 41.4447 66.051 43.7254C65.7653 45.5632 65.4596 47.3935 65.1775 49.232C64.6578 52.6267 64.1728 56.0281 63.6359 59.4194C63.0733 62.9781 62.4615 66.5308 61.8885 70.0875C61.3716 73.2851 60.8693 76.4819 60.3732 79.6835C60.3144 80.0745 60.0739 80.5304 60.5362 80.8476C61.0492 81.2 61.3943 80.779 61.7288 80.5213C63.2291 79.3785 64.7003 78.2013 66.1944 77.0538C67.6677 75.9201 69.1488 74.8023 70.634 73.6818C72.0695 72.5946 73.5105 71.5156 74.9516 70.4367C75.3607 70.129 75.5483 69.7777 75.5422 69.2231C75.509 65.1304 76.6658 61.3829 79.0293 58.0414C80.8148 55.5208 83.1367 53.5799 85.8267 52.0708C87.4862 51.1426 89.2636 50.5466 91.096 50.0549C93.4902 49.4112 95.9094 49.2253 98.3645 49.4238C99.0576 49.4809 99.7558 49.5857 100.429 49.7612C101.246 49.9756 101.343 49.9406 101.344 49.0568C101.349 46.8907 101.337 44.7213 101.353 42.5538C101.36 41.4555 101.406 40.3613 101.45 39.2629C101.472 38.7103 101.716 38.4563 102.206 38.4519C102.695 38.4509 102.783 38.8815 102.892 39.2013C103.459 40.8509 104.022 42.5033 104.528 44.1731C105.188 46.3549 105.829 48.5471 106.405 50.752C106.641 51.6537 107.232 52.104 107.986 52.4749C108.359 52.6597 108.733 52.859 109.074 53.0985C109.976 53.7248 110.867 54.3636 111.739 55.0307C112.023 55.2483 112.258 55.316 112.579 55.1634C112.908 55.0053 113.255 54.8831 113.592 54.7409C114.447 54.377 115.302 54.0131 116.155 53.645C116.492 53.4994 116.795 53.4582 117.055 53.8004C117.301 54.1218 117.259 54.4263 117.055 54.7347C116.928 54.9219 116.799 55.1049 116.666 55.2872C116.187 55.9479 115.699 56.6031 115.23 57.2693C114.711 58.0083 114.79 58.1387 115.271 58.9124C116.037 60.1519 116.789 61.4101 117.388 62.7318C117.885 63.8248 118.198 65.0112 118.504 66.1783C118.646 66.7165 118.919 67.0828 119.333 67.3906C120.236 68.0639 121.148 68.7282 122.041 69.414C122.397 69.6887 122.745 69.9801 123.043 70.3152C123.269 70.5717 123.661 70.8463 123.429 71.2572C123.195 71.6605 122.766 71.4683 122.426 71.4051C121.51 71.2395 120.608 71.0192 119.693 70.8466C119.094 70.7325 118.988 70.8303 118.928 71.4115C118.915 71.5526 118.926 71.695 118.917 71.8334C118.699 74.4787 117.963 76.9827 116.701 79.3079C115.827 80.9188 114.72 82.3832 113.411 83.6857C111.406 85.6781 109.084 87.2164 106.479 88.2571C103.909 89.2831 101.202 89.8186 98.4184 89.8287C95.4696 89.8387 92.574 89.4675 89.8226 88.3627C88.4168 87.799 86.9882 87.2595 85.7493 86.3405C84.9838 85.7732 84.2376 85.163 83.4185 84.6858C82.174 83.9597 81.2692 82.8763 80.341 81.8386C79.5774 80.9878 79.0055 79.9662 78.3584 79.016C78.0129 78.5061 77.9251 78.4961 77.4792 78.9547C75.584 80.9183 73.7124 82.9081 71.7811 84.8359C70.3281 86.2862 68.785 87.647 67.305 89.0704C66.1393 90.1927 65.1082 91.4348 64.5581 92.9727C64.1594 94.0875 64.4006 95.0729 65.5932 95.5515C66.1029 95.7559 66.6718 95.8965 67.2196 95.925C69.8329 96.0683 72.1956 95.1273 74.5382 94.1429C76.9504 93.1326 79.309 91.9752 81.8336 91.2529C82.9494 90.9331 84.0927 90.766 85.2522 91.0836C86.3909 91.3972 87.1452 92.7709 86.7382 93.8733C86.5545 94.3691 86.3335 94.8719 86.0237 95.2962C85.493 96.0221 84.8777 96.6847 84.3129 97.3823C84.1277 97.6119 83.9861 97.8752 83.8258 98.124C84.1152 98.206 84.4005 98.3267 84.6987 98.3638C87.3804 98.7074 90.0635 99.0261 92.7452 99.3697C95.1184 99.6743 97.4896 100.007 99.8621 100.315C102.904 100.708 105.954 101.081 108.996 101.477C112.037 101.874 115.079 102.288 118.122 102.695C120.853 103.059 123.586 103.417 126.318 103.781C127.137 103.892 127.285 103.798 127.426 102.949C127.594 101.951 127.712 100.946 127.893 99.9504C128.547 96.2946 129.211 92.6408 129.885 88.989C130.68 84.6708 131.485 80.3546 132.29 76.0385C132.692 73.8822 133.112 71.7257 133.507 69.568C134.044 66.6332 134.558 63.6902 135.098 60.756C135.578 58.1513 136.091 55.5568 136.577 52.9534C136.923 51.1022 137.238 49.2449 137.569 47.3945C137.769 46.2873 137.985 45.1869 138.181 44.0791C138.3 43.3981 138.238 43.3105 137.568 43.1392C137.267 43.0621 136.966 42.9849 136.664 42.9293C133.763 42.3665 130.86 41.814 127.963 41.2485C125.727 40.8127 123.495 40.3742 121.26 39.9316C119.524 39.5868 117.784 39.2414 116.051 38.8828C114.893 38.6447 113.75 38.3553 112.589 38.1345C109.857 37.6119 107.114 37.1378 104.388 36.6021C101.879 36.1092 99.3825 35.554 96.8786 35.0369C95.0342 34.6566 93.1817 34.2998 91.3346 33.9333C87.7387 33.2304 84.1429 32.5275 80.5512 31.8218ZM216.792 42.7772C216.79 42.7876 216.789 42.7945 216.787 42.8049C218.398 43.0747 220.006 43.3403 221.617 43.6101C222.89 43.8244 222.876 43.8251 223.122 42.5365C223.435 40.9054 223.765 39.2777 224.109 37.6561C224.511 35.755 224.944 33.8634 225.343 31.9616C225.504 31.1954 225.438 31.1141 224.624 30.9757C223.208 30.7371 221.784 30.54 220.37 30.2944C217.069 29.7178 213.771 29.1093 210.469 28.5396C206.558 27.8647 202.641 27.2244 198.726 26.5558C196.615 26.195 194.517 25.79 192.406 25.4292C189.799 24.9816 187.184 24.572 184.577 24.1244C182.526 23.7718 180.481 23.3665 178.43 23.0173C176.016 22.6078 173.593 22.2432 171.179 21.8372C168.876 21.4528 166.575 21.0367 164.27 20.6413C162.079 20.2649 159.886 19.9058 157.696 19.5259C154.589 18.9874 151.482 18.4342 148.375 17.8957C146.988 17.6555 145.598 17.4473 144.213 17.2002C142.328 16.8622 140.452 16.4792 138.564 16.155C135.153 15.5711 131.738 15.0294 128.327 14.4455C126.164 14.078 124.009 13.651 121.846 13.2801C119.489 12.8745 117.125 12.507 114.765 12.1152C112.709 11.7723 110.653 11.4258 108.603 11.0697C105.497 10.5242 102.39 9.96764 99.2856 9.41521C97.0947 9.02429 94.9093 8.62366 92.7164 8.24312C89.471 7.67734 86.2214 7.13233 82.9795 6.56723C81.0128 6.22395 79.0522 5.83156 77.0849 5.49174C74.8394 5.10446 72.5837 4.76908 70.3368 4.38872C67.0084 3.82461 63.6813 3.23559 60.3521 2.65696C59.3653 2.48464 59.393 2.49008 59.2146 3.508C58.5503 7.27317 57.8652 11.0343 57.194 14.7981C57.1539 15.0202 57.1422 15.2443 57.1126 15.4685C57.0742 15.7736 57.2076 15.9543 57.5045 16.0163C57.8353 16.0885 58.1641 16.171 58.499 16.2225C59.8331 16.4379 61.1706 16.636 62.504 16.8548C64.5855 17.1991 66.667 17.5613 68.7478 17.9091C72.4429 18.5273 76.1367 19.1344 79.8325 19.7491C83.8625 20.4188 87.8905 21.0808 91.9178 21.7642C96.5541 22.5494 101.191 23.349 105.826 24.1411C110.071 24.8674 114.316 25.5971 118.559 26.3193C120.892 26.7166 123.223 27.1064 125.557 27.5003C126.086 27.5898 126.611 27.6966 127.137 27.782C130.335 28.2988 133.534 28.8087 136.73 29.3325C138.676 29.6502 140.615 29.9915 142.558 30.3266C143.364 30.467 144.165 30.6316 144.969 30.7645C149.277 31.4636 153.587 32.1558 157.895 32.8549C159.87 33.1746 161.841 33.4937 163.813 33.8307C167.143 34.4024 170.475 34.9886 173.804 35.5673C174.277 35.6494 174.748 35.7384 175.218 35.8128C177.413 36.165 179.614 36.504 181.808 36.8631C183.085 37.0746 184.358 37.3282 185.635 37.5397C188.412 38.0026 191.195 38.4344 193.97 38.9077C195.691 39.2027 197.402 39.5676 199.123 39.8626C201.814 40.3231 204.508 40.7517 207.203 41.1914C210.399 41.7332 213.595 42.2569 216.792 42.7772ZM66.0299 97.0964C65.66 96.9124 64.9622 96.6962 64.4275 96.2713C63.4234 95.4738 62.7775 94.4808 63.0348 93.0615C63.3784 91.1668 64.582 89.8328 65.8627 88.5642C67.0806 87.3588 68.4395 86.2961 69.6727 85.1045C71.4525 83.3805 73.1962 81.6208 74.9192 79.8389C76.9171 77.7733 78.8199 75.6243 80.4787 73.2729C81.3362 72.0541 82.2243 70.845 82.7084 69.4056C82.7515 69.2775 82.7746 69.1418 82.808 69.0082C82.6843 69.0522 82.5503 69.0762 82.4433 69.145C81.5317 69.7422 80.5737 69.899 79.5604 69.4411C79.1413 69.251 78.8057 69.3863 78.4684 69.6399C77.8613 70.0956 77.2397 70.5341 76.6299 70.9857C74.9563 72.2238 73.2702 73.4522 71.6105 74.711C69.8619 76.0385 68.1424 77.4006 66.402 78.7405C65.1742 79.6852 63.9332 80.6058 62.7081 81.5547C61.3762 82.5903 60.0644 83.6515 58.7331 84.6837C58.4234 84.9248 58.0762 85.1189 57.7276 85.3019C57.3859 85.4864 57.0468 85.4198 56.8286 85.1037C56.6249 84.805 56.8607 84.5746 57.0488 84.3672C57.1445 84.2638 57.2556 84.1742 57.3625 84.0874C58.0142 83.5506 58.6777 83.0269 59.3177 82.477C59.4735 82.3423 59.571 82.1386 59.6984 81.966C59.5044 81.874 59.3179 81.7439 59.1096 81.6886C57.3597 81.2298 55.6429 81.3525 53.987 82.0801C53.3185 82.3728 52.6821 82.7402 52.0415 83.0923C51.6743 83.2968 51.3363 83.5539 50.9684 83.7619C50.6571 83.9379 50.3691 83.867 50.14 83.5883C49.9108 83.3097 50.0046 83.0335 50.2238 82.8322C50.6361 82.4532 51.0748 82.1045 51.5169 81.7565C51.7128 81.6009 51.9469 81.4888 52.1518 81.3422C52.198 81.3081 52.2108 81.2064 52.2105 81.1345C52.2112 81.1131 52.1211 81.0774 52.0686 81.0707C51.9841 81.0613 51.8991 81.0733 51.814 81.0674C49.3791 80.8944 47.0961 81.4845 44.9872 82.6334C43.4858 83.4525 42.0978 84.4808 40.659 85.42C40.4941 85.5277 40.3399 85.7275 40.1725 85.7377C39.9146 85.7517 39.6129 85.696 39.4063 85.5584C39.3114 85.493 39.3551 85.1422 39.4181 84.9498C39.4742 84.7739 39.6515 84.6398 39.7623 84.4783C39.838 84.3674 39.8908 84.2448 39.9568 84.1284C39.8012 84.1338 39.6199 84.0874 39.4928 84.1487C38.5159 84.6395 37.4987 85.0794 36.5844 85.6724C34.0967 87.286 31.8535 89.21 29.7241 91.2678C28.4689 92.4802 27.2407 93.7196 26.0458 94.9906C24.4064 96.7313 22.8003 98.5038 21.1977 100.277C20.6693 100.863 20.6722 100.921 21.2338 101.538C21.9898 102.373 22.7637 103.19 23.5506 103.995C25.2405 105.729 26.8794 107.521 28.6568 109.156C30.7054 111.04 32.8774 112.789 35.0074 114.587C37.2913 116.517 39.7997 118.145 42.2467 119.848C43.8626 120.97 45.5467 122.002 47.2183 123.042C48.3168 123.725 49.4359 124.376 50.5694 125.009C51.1847 125.352 51.1998 125.312 51.714 124.799C52.63 123.886 53.5349 122.957 54.4808 122.076C56.3546 120.331 58.2583 118.617 60.1473 116.885C63.0313 114.243 65.8757 111.564 68.7971 108.968C71.3828 106.673 74.0482 104.465 76.6846 102.223C77.992 101.111 79.3051 100.007 80.6355 98.9239C81.0762 98.5648 81.221 98.2303 81.0654 97.6319C80.6114 95.9004 81.6724 94.3047 83.4124 93.8811C83.9071 93.7591 84.2977 93.9113 84.7029 94.0987C85.0777 94.2766 85.2784 94.1328 85.4225 93.7837C85.7291 93.0461 85.4325 92.4704 84.6302 92.2373C83.5025 91.9043 82.442 92.217 81.4219 92.6347C79.3901 93.4646 77.3722 94.3331 75.3641 95.2252C73.711 95.957 72.0096 96.5499 70.2558 96.9708C68.9663 97.2781 67.6478 97.3856 66.0299 97.0964ZM226.663 132.467C226.656 132.465 226.646 132.463 226.639 132.462C226.835 131.465 227.04 130.474 227.222 129.475C227.339 128.826 227.312 128.813 226.63 128.902C226.545 128.914 226.462 128.919 226.379 128.936C222.067 129.756 217.709 129.877 213.338 129.791C212.042 129.766 210.747 129.717 209.454 129.642C208.96 129.614 208.762 129.816 208.627 130.263C208.191 131.716 207.71 133.156 207.253 134.604C206.213 137.904 205.136 141.193 204.157 144.511C203.178 147.83 202.239 151.164 201.39 154.516C200.409 158.391 199.545 162.297 198.64 166.191C198.301 167.641 197.965 169.095 197.677 170.558C197.444 171.745 197.315 172.949 197.082 174.136C196.284 178.144 195.741 182.188 195.257 186.241C194.961 188.698 194.849 191.174 194.661 193.645C194.609 194.332 194.731 194.518 195.408 194.619C196.604 194.803 197.804 194.989 199.01 195.089C201.538 195.299 204.073 195.311 206.607 195.184C209.321 195.049 211.959 194.485 214.57 193.762C215.307 193.558 215.616 193.173 215.728 192.437C216.041 190.407 216.406 188.387 216.77 186.367C217.564 181.959 218.372 177.557 219.176 173.151C219.804 169.72 220.435 166.286 221.066 162.856C221.369 161.223 221.685 159.596 221.984 157.962C222.835 153.338 223.683 148.714 224.529 144.094C225.24 140.219 225.951 136.345 226.663 132.467ZM117.122 73.3962C117.197 72.7569 117.308 71.9197 117.383 71.0792C117.454 70.2954 117.441 70.2747 116.719 70.0863C114.295 69.4554 111.868 68.8385 109.446 68.2187C108.703 68.0297 108.595 68.102 108.579 68.8462C108.545 70.4784 108.498 72.1114 108.497 73.7429C108.494 76.6137 108.519 79.483 108.53 82.3565C108.53 82.5542 108.524 82.7507 108.496 82.9465C108.446 83.3139 108.251 83.6458 107.876 83.6187C107.687 83.6069 107.452 83.2875 107.364 83.0582C107.053 82.2425 106.797 81.4086 106.521 80.5817C105.434 77.2956 104.348 74.0094 103.254 70.7253C103.084 70.2176 102.871 69.7265 102.679 69.2251C102.552 68.8984 102.342 68.7961 102.014 68.9473C101.655 69.1103 101.286 69.2534 100.935 69.4288C100.082 69.8577 99.2354 70.306 98.3821 70.7349C97.45 71.1986 96.5054 71.6348 95.5789 72.1068C94.0014 72.9109 92.437 73.7392 90.8644 74.5551C90.4605 74.7633 90.0792 74.6919 89.8008 74.3713C89.5168 74.0424 89.7712 73.7905 89.9509 73.5526C91.5839 71.3686 93.2363 69.1956 94.8638 67.0033C96.0555 65.401 97.2229 63.7759 98.3862 62.1537C98.698 61.719 98.6813 61.6762 98.2293 61.361C97.3974 60.7842 96.5552 60.2235 95.7193 59.6495C94.2337 58.6317 92.7489 57.6104 91.2682 56.5864C89.8575 55.6084 88.4523 54.6207 87.0478 53.6296C86.7636 53.43 86.4958 53.3846 86.1957 53.5952C85.2291 54.2714 84.1674 54.8462 83.2986 55.6279C79.714 58.8552 77.7194 62.916 77.226 67.7139C77.2072 67.8827 77.1995 68.05 77.2056 68.2202C77.2184 68.5389 77.3577 68.6166 77.6399 68.4421C78.4998 67.9066 79.3493 67.3512 80.2328 66.8599C80.7934 66.5496 81.3864 66.2564 82.0014 66.0897C83.299 65.7409 84.2576 66.3857 84.4122 67.7026C84.4678 68.1879 84.4344 68.742 84.2568 69.1887C83.8405 70.2281 83.416 71.2912 82.8057 72.2207C81.8205 73.7234 80.6883 75.1325 79.6053 76.5657C79.1585 77.1571 79.148 77.1371 79.5085 77.8081C80.3235 79.3303 81.3007 80.7406 82.5289 81.9522C83.4261 82.8365 84.3165 83.7553 85.3232 84.503C86.3112 85.2362 87.4197 85.8133 88.5144 86.3878C91.1 87.7511 93.9222 88.3128 96.7907 88.4739C99.1723 88.6076 101.55 88.3236 103.868 87.6076C106.122 86.9111 108.232 85.9565 110.115 84.5296C113.784 81.7536 116.11 78.11 117.122 73.3962ZM31.6214 144.186C31.7836 144.092 32.0586 144.009 32.2136 143.824C33.2082 142.639 34.2285 141.471 35.1448 140.227C36.6269 138.208 38.0619 136.154 39.4615 134.078C40.1517 133.053 40.7497 131.967 41.3311 130.874C41.6218 130.327 41.5698 130.281 41.0389 129.946C40.0159 129.3 38.973 128.682 37.9548 128.029C34.8248 126.016 31.8352 123.818 28.9578 121.453C25.9112 118.942 23.0051 116.283 20.3341 113.379C18.8715 111.787 17.5427 110.063 16.2056 108.363C15.6333 107.636 15.1996 106.807 14.6832 106.034C14.2814 105.426 14.2599 105.426 13.7358 105.862C12.4165 106.961 11.0618 108.021 9.80225 109.182C7.82086 111.018 5.89224 112.914 3.96775 114.807C3.24607 115.517 2.58129 116.285 1.92276 117.057C1.4454 117.621 1.45083 117.795 1.79084 118.332C3.27882 120.691 4.88965 122.973 6.71842 125.079C9.02901 127.733 11.4499 130.282 14.1052 132.608C16.4601 134.67 18.8762 136.639 21.4522 138.418C24.3318 140.407 27.3207 142.205 30.4897 143.69C30.8222 143.845 31.1615 143.984 31.6214 144.186ZM231.3 105.041C231.352 104.778 231.443 104.335 231.526 103.895C231.571 103.645 231.521 103.46 231.23 103.388C230.546 103.228 229.862 103.072 229.188 102.879C228.596 102.709 228.087 102.828 227.585 103.153C227.091 103.473 226.577 103.767 226.068 104.07C222.748 106.041 219.553 108.184 216.61 110.689C215.09 111.983 213.63 113.346 212.114 114.64C211.669 115.02 211.502 115.504 211.359 116.015C211.197 116.598 211.37 116.851 212.001 116.914C212.671 116.981 213.35 116.981 214.024 117.028C214.272 117.044 214.547 117.055 214.755 117.168C215.229 117.426 215.192 117.958 214.708 118.193C214.454 118.316 214.183 118.396 213.927 118.511C213.52 118.697 213.459 118.843 213.679 119.224C213.901 119.612 214.187 119.963 214.409 120.352C215.643 122.506 216.225 124.813 216.015 127.305C215.947 128.126 216.017 128.175 216.836 128.157C220.356 128.076 223.856 127.746 227.325 127.141C227.626 127.089 227.966 126.897 228.166 126.663C228.885 125.838 229.587 124.991 230.232 124.104C231.291 122.648 232.293 121.152 233.323 119.677C235.172 117.035 236.465 114.095 237.907 111.233C238.03 110.995 238.064 110.786 237.868 110.539C237.088 109.549 236.31 108.551 235.579 107.52C235.345 107.19 235.217 107.219 234.93 107.421C234.036 108.058 233.128 108.67 232.214 109.281C231.982 109.437 231.731 109.581 231.466 109.666C230.866 109.85 230.394 109.455 230.447 108.833C230.464 108.639 230.506 108.442 230.551 108.25C230.779 107.238 231.02 106.229 231.3 105.041ZM184.892 111.527C185.367 109.234 184.183 107.01 182.733 106.233C182.018 105.848 181.333 105.401 180.628 105.003C180.269 104.8 179.966 104.604 179.99 104.116C180.086 102.072 179.374 100.355 177.808 99.0336C177.01 98.3592 176.073 97.8769 175.015 98.2872C173.774 98.7693 173.922 98.784 173.169 97.6765C173.122 97.6061 173.095 97.5219 173.048 97.4549C172.187 96.2185 171.281 95.0521 169.709 94.6356C168.668 94.359 167.759 94.4825 167.004 95.29C166.48 95.852 165.999 96.4546 165.888 97.2413C165.773 98.0453 165.652 98.8625 165.665 99.6702C165.685 100.817 165.115 100.845 164.35 100.803C164.24 100.795 164.134 100.735 164.026 100.717C163.076 100.556 162.57 100.794 162.276 101.721C162.067 102.381 161.97 103.095 161.952 103.789C161.923 104.962 162.323 106.057 162.785 107.122C163.093 107.826 163.042 108.103 162.468 108.591C162.382 108.664 162.285 108.72 162.198 108.793C160.931 109.884 160.435 111.221 160.854 112.874C160.96 113.286 161.159 113.57 161.554 113.755C163.257 114.561 164.939 115.423 166.654 116.202C168.885 117.212 171.147 118.156 173.391 119.139C174.181 119.488 174.956 119.806 175.804 119.297C175.942 119.216 176.135 119.24 176.296 119.189C176.939 118.985 177.603 118.827 178.214 118.552C179.811 117.831 181.268 116.874 182.514 115.634C183.667 114.484 184.546 113.155 184.892 111.527ZM204.788 91.4578C204.785 91.4716 204.781 91.4889 204.779 91.5028C204.145 91.3784 203.515 91.2221 202.877 91.1399C202.166 91.0469 202.146 91.0753 201.981 91.7654C201.773 92.6409 201.599 93.5267 201.402 94.4043C201.333 94.7179 201.222 94.9548 200.815 94.997C199.125 95.1645 197.516 95.6174 196.007 96.4206C194.979 96.9698 194.083 97.6886 193.256 98.4964C193.028 98.7213 192.726 98.9422 192.942 99.362C193.374 100.198 193.616 101.09 193.665 102.03C193.681 102.332 193.848 102.415 194.113 102.384C194.252 102.369 194.393 102.346 194.531 102.341C197.432 102.242 199.756 104.1 200.334 106.845C200.741 108.779 200.334 110.521 199.082 112.065C198.608 112.647 198.632 112.71 199.249 113.082C199.635 113.313 200.018 113.557 200.422 113.751C200.639 113.855 200.899 113.917 201.138 113.91C202.004 113.875 202.872 113.755 203.737 113.763C204.246 113.766 204.489 113.537 204.745 113.167C205.096 112.661 205.468 112.155 205.903 111.72C206.345 111.278 206.928 111.511 206.985 112.137C207.024 112.58 206.981 113.035 206.947 113.484C206.885 114.256 206.911 114.304 207.629 114.621C208.141 114.848 208.657 115.078 209.156 115.334C209.943 115.737 210.139 115.657 210.271 114.799C210.436 113.742 210.575 112.684 210.743 111.628C211.064 109.629 211.435 107.635 211.728 105.63C212.13 102.87 211.05 100.577 209.371 98.493C208.747 97.7163 207.965 97.1277 207.138 96.5952C206.577 96.2333 206.346 95.7818 206.494 95.0994C206.671 94.2751 206.774 93.4366 206.895 92.6014C206.982 91.9932 206.859 91.854 206.267 91.7557C205.775 91.6626 205.282 91.555 204.788 91.4578ZM50.8379 126.88C50.8818 126.583 50.8443 126.536 50.3828 126.269C48.6803 125.277 46.9557 124.324 45.2889 123.278C43.1674 121.948 41.0728 120.573 39.0036 119.16C37.4003 118.066 35.8093 116.944 34.2975 115.731C31.8856 113.794 29.4841 111.842 27.2685 109.674C25.9036 108.335 24.5167 107.017 23.1835 105.644C22.1425 104.577 21.1766 103.439 20.1667 102.342C19.6516 101.781 19.5906 101.744 18.9536 102.132C17.9694 102.733 17.0214 103.388 16.0678 104.034C15.3137 104.544 15.2993 104.599 15.7681 105.377C16.9894 107.41 18.377 109.329 19.988 111.061C21.7858 112.996 23.6608 114.867 25.5695 116.693C27.0301 118.094 28.5561 119.437 30.1276 120.712C31.941 122.182 33.8055 123.595 35.7009 124.959C39.5229 127.711 43.541 130.143 47.8725 132.022C48.5215 132.304 48.6051 132.281 48.8713 131.64C49.2808 130.653 49.6875 129.662 50.0971 128.675C50.344 128.077 50.591 127.478 50.8379 126.88ZM92.685 54.881C92.6857 54.8775 92.6864 54.874 92.6871 54.8706C92.1382 54.7376 91.5941 54.5983 91.0432 54.4757C90.947 54.4532 90.8324 54.5062 90.7252 54.5211C90.7789 54.6322 90.8063 54.785 90.8937 54.8524C91.1593 55.0556 91.4572 55.2219 91.7352 55.4167C94.2461 57.1786 96.7522 58.9468 99.2589 60.7115C99.9757 61.2154 100.044 61.563 99.5099 62.3242C98.8155 63.3162 98.1154 64.2999 97.3988 65.2768C95.7473 67.5183 94.0861 69.7543 92.4346 71.9958C92.3609 72.0963 92.34 72.2395 92.2941 72.3635C92.4247 72.3568 92.5763 72.3902 92.6771 72.3345C93.2204 72.0387 93.7379 71.6912 94.2888 71.4113C96.6748 70.2054 99.0713 69.0195 101.462 67.8288C101.665 67.7285 101.863 67.6165 102.076 67.5542C102.864 67.3136 103.042 67.3953 103.417 68.1195C103.56 68.3957 103.715 68.667 103.817 68.9564C104.642 71.3216 105.46 73.6889 106.277 76.0596C106.515 76.7532 106.734 77.4502 106.979 78.1417C107.021 78.2577 107.136 78.3451 107.22 78.4479C107.257 78.3185 107.329 78.1889 107.329 78.0596C107.335 76.2026 107.325 74.3465 107.327 72.4889C107.331 70.9155 107.342 69.34 107.364 67.7666C107.372 67.1248 107.678 66.8616 108.34 66.9161C108.648 66.9406 108.955 67.0046 109.252 67.081C109.879 67.2401 110.499 67.4337 111.126 67.5892C113.337 68.1316 115.553 68.6676 117.77 69.2002C118.457 69.3639 119.144 69.5061 119.833 69.6559C119.913 69.6715 119.995 69.6554 120.078 69.6537C120.032 69.5619 120.012 69.443 119.94 69.3858C119.562 69.0959 119.162 68.8304 118.78 68.5433C116.761 67.0182 114.748 65.487 112.73 63.9585C112.192 63.5509 111.644 63.1593 111.133 62.7246C110.488 62.1811 110.446 61.9212 110.918 61.2197C111.735 60.0039 112.581 58.8081 113.424 57.6115C113.877 56.9675 114.353 56.3387 114.807 55.6946C114.857 55.6218 114.841 55.5036 114.853 55.4054C114.771 55.4181 114.688 55.4232 114.61 55.4512C114.478 55.5007 114.354 55.5662 114.224 55.6233C113.006 56.1351 111.79 56.6544 110.567 57.1544C109.813 57.4627 109.039 57.7239 108.285 58.0322C107.675 58.2825 107.568 58.2939 107.31 57.6862C107.016 56.9887 106.778 56.2627 106.561 55.5372C105.709 52.6493 104.872 49.7572 104.031 46.8678C103.63 45.4881 103.233 44.109 102.82 42.7307C102.786 42.6126 102.679 42.5196 102.606 42.4119C102.583 42.515 102.533 42.6203 102.534 42.7248C102.602 45.2537 102.683 47.7853 102.746 50.317C102.789 52.09 102.854 53.8637 102.819 55.6322C102.79 57.1144 102.603 57.207 101.15 56.8675C98.3335 56.2028 95.5089 55.5436 92.685 54.881ZM199.065 108.838C199.817 106.696 198.568 104.568 196.709 103.951C195.669 103.607 194.615 103.561 193.551 103.888C192.511 104.208 191.592 104.714 190.782 105.453C190.125 106.054 189.441 106.005 188.868 105.372C188.334 104.778 187.731 104.354 186.934 104.111C185.9 103.797 184.992 103.953 184.096 104.452C183.641 104.704 183.636 104.84 183.998 105.209C184.217 105.428 184.459 105.627 184.661 105.861C185.488 106.807 186.126 107.841 186.297 109.129C186.597 111.369 185.829 113.285 184.569 115.053C183.348 116.768 181.671 117.948 179.839 118.915C178.969 119.373 178.101 119.842 177.121 120.037C177.001 120.061 176.906 120.196 176.797 120.276C176.891 120.366 176.967 120.489 177.079 120.543C177.353 120.683 177.637 120.814 177.929 120.915C180.11 121.67 182.287 122.44 184.479 123.154C186.138 123.692 187.818 124.159 189.49 124.649C190.18 124.853 190.194 124.834 190.263 124.1C190.287 123.85 190.288 123.587 190.361 123.347C190.961 121.351 191.882 119.538 193.313 117.997C194.402 116.827 195.688 115.93 197.089 115.185C197.656 114.879 197.664 114.873 197.314 114.312C197.047 113.882 196.735 113.476 196.49 113.036C196.199 112.508 196.371 111.888 196.847 111.881C197.406 111.869 197.634 111.514 197.928 111.191C198.548 110.504 198.907 109.684 199.065 108.838ZM189.425 95.8966C189.408 95.8932 189.394 95.8905 189.377 95.8836C189.437 95.5791 189.504 95.276 189.556 94.9736C189.707 94.0941 189.683 93.2124 189.291 92.4094C189.068 91.9523 188.721 91.4887 188.307 91.199C187.575 90.6814 186.819 90.9246 186.099 91.369C185.191 91.9309 184.552 92.7505 183.894 93.5557C183.436 94.1126 183.019 94.1672 182.425 93.7916C182.328 93.7332 182.247 93.6525 182.151 93.5941C181.131 92.9696 180.293 93.0098 179.366 93.7764C178.509 94.4813 178.027 95.4325 177.758 96.4901C177.593 97.1477 177.652 97.2132 178.205 97.5986C178.62 97.8849 179.05 98.1635 179.396 98.5261C180.633 99.8221 181.275 101.379 181.282 103.177C181.285 103.727 181.605 103.963 182.034 104.176C182.483 104.398 182.643 104.037 182.858 103.806C184.011 102.563 186.53 102.109 187.984 103.175C188.477 103.538 188.955 103.923 189.411 104.328C189.662 104.55 189.798 104.609 190.102 104.36C190.706 103.864 191.356 103.41 192.03 103.014C192.36 102.82 192.445 102.621 192.426 102.279C192.315 100.374 191.34 99.0112 189.743 98.065C189.086 97.6772 188.983 97.542 189.171 96.7882C189.244 96.4899 189.341 96.1963 189.425 95.8966ZM38.8314 146.705C38.8397 146.682 38.8444 146.658 38.8526 146.634C39.0464 146.672 39.2484 146.687 39.4298 146.751C40.089 146.981 40.5372 146.785 40.9141 146.184C41.7017 144.919 42.5918 143.717 43.3503 142.436C44.3082 140.817 45.2058 139.157 46.0826 137.492C46.7004 136.324 47.2364 135.114 47.8244 133.932C48.0195 133.542 47.9522 133.299 47.5402 133.146C47.2487 133.039 46.9613 132.928 46.6808 132.801C45.6363 132.32 44.5944 131.824 43.5506 131.338C42.9646 131.065 42.8796 131.095 42.5523 131.663C42.3715 131.98 42.2094 132.311 42.0321 132.628C39.6727 136.808 36.774 140.605 33.7207 144.293C33.2737 144.83 33.2692 144.908 33.9366 145.133C35.5623 145.675 37.2017 146.184 38.8314 146.705ZM214.532 127.503C214.689 126.028 214.558 124.554 214.15 123.101C213.819 121.929 213.283 120.853 212.656 119.821C212.292 119.221 212.219 119.192 211.576 119.425C210.414 119.851 209.257 120.292 208.105 120.741C207.626 120.928 207.604 121.024 207.898 121.484C208.096 121.793 208.328 122.075 208.534 122.378C209.245 123.424 209.952 124.472 210.663 125.521C210.71 125.591 210.741 125.669 210.788 125.739C210.987 126.026 211.029 126.308 210.76 126.578C210.469 126.873 210.209 126.711 209.937 126.524C208.521 125.556 207.099 124.598 205.679 123.632C205.194 123.303 205.098 123.313 204.842 123.813C204.332 124.816 203.832 125.824 203.349 126.84C203.134 127.294 203.191 127.366 203.685 127.416C205.923 127.637 208.161 127.882 210.399 128.067C211.521 128.158 212.647 128.149 213.775 128.155C214.434 128.163 214.433 128.134 214.532 127.503ZM196.113 126.223C196.118 126.199 196.123 126.175 196.131 126.151C197.262 126.374 198.394 126.596 199.525 126.818C199.875 126.887 200.158 126.856 200.17 126.41C200.208 125.062 200.236 123.713 200.272 122.361C200.281 122.022 200.153 121.831 199.782 121.834C199.39 121.839 198.995 121.834 198.601 121.81C197.564 121.75 196.524 121.7 195.492 121.595C195.256 121.57 194.889 121.372 194.848 121.195C194.792 120.947 194.959 120.628 195.083 120.364C195.15 120.223 195.309 120.11 195.448 120.023C196.453 119.412 197.439 118.761 198.48 118.218C199.773 117.545 199.649 117.775 198.819 116.513C198.615 116.199 198.352 116.13 198.024 116.299C197.599 116.521 197.155 116.714 196.762 116.978C194.013 118.803 192.319 121.374 191.455 124.528C191.344 124.927 191.468 125.099 191.845 125.191C193.271 125.528 194.69 125.876 196.113 126.223ZM100.59 55.4745C101.364 55.6876 101.46 55.6168 101.455 54.8035C101.449 53.7924 101.44 52.7772 101.408 51.7648C101.39 51.1252 101.294 51.0487 100.666 50.99C98.5621 50.7959 96.4632 50.6315 94.3485 50.8593C92.428 51.0677 90.5935 51.5698 88.7984 52.2557C88.701 52.2941 88.6253 52.387 88.5363 52.4558C88.6368 52.5295 88.7299 52.6412 88.8434 52.6671C89.802 52.8914 90.7702 53.0852 91.7274 53.3164C94.6815 54.0298 97.637 54.7542 100.59 55.4745ZM204.705 90.3419C204.706 90.3349 204.708 90.328 204.708 90.3246C205.812 90.5414 206.918 90.7479 208.016 90.9779C208.389 91.0548 208.61 90.987 208.677 90.576C208.791 89.8833 208.917 89.1892 209.059 88.502C209.143 88.0909 208.985 87.8549 208.606 87.7338C208.421 87.6722 208.232 87.6064 208.043 87.5656C205.954 87.1121 203.867 86.6662 201.779 86.2092C201.445 86.1363 201.331 86.2397 201.287 86.5725C201.194 87.3232 201.061 88.0733 200.942 88.8227C200.831 89.5341 200.874 89.5927 201.559 89.7273C202.611 89.9305 203.66 90.1365 204.705 90.3419ZM113.752 59.4694C113.619 59.6193 113.474 59.7525 113.365 59.9071C112.985 60.4326 112.605 60.9547 112.247 61.4953C111.935 61.9694 111.951 62.0157 112.434 62.373C112.999 62.7895 113.573 63.2004 114.147 63.6079C114.856 64.1138 115.569 64.6204 116.286 65.1208C116.369 65.1765 116.482 65.1844 116.584 65.2152C116.59 65.1087 116.631 64.9944 116.603 64.8991C116.496 64.5474 116.369 64.2062 116.249 63.8629C115.748 62.4455 115.057 61.131 114.15 59.9321C114.057 59.8204 113.962 59.7191 113.752 59.4694ZM110.572 55.9192C110.456 55.7993 110.376 55.6938 110.277 55.6132C109.795 55.2275 109.315 54.8384 108.818 54.4749C108.505 54.2408 108.168 54.0345 107.825 53.8413C107.725 53.7857 107.573 53.8242 107.445 53.8205C107.445 53.9284 107.418 54.0454 107.445 54.1476C107.681 54.9594 107.926 55.7622 108.169 56.5719C108.258 56.8697 108.43 57.0005 108.737 56.8632C109.25 56.6333 109.763 56.3999 110.269 56.1616C110.368 56.1163 110.443 56.0269 110.572 55.9192ZM82.1397 96.8835C82.16 96.7796 82.1388 96.833 82.1424 96.8876C82.1478 97.0432 82.1636 97.2008 82.1765 97.3543C82.3215 97.293 82.4999 97.2633 82.6026 97.1613C83.1781 96.5916 83.7543 96.0184 84.2966 95.4169C84.5363 95.1478 84.4332 94.9226 84.0798 94.9287C83.7873 94.9359 83.4584 95.0006 83.2133 95.1502C82.6392 95.5117 82.3146 96.0661 82.1397 96.8835ZM206.668 116.111C206.523 116.736 206.556 116.789 207.198 116.815C207.816 116.836 208.434 116.835 209.052 116.834C209.121 116.833 209.187 116.785 209.254 116.755C209.206 116.692 209.174 116.599 209.108 116.568C208.505 116.27 207.906 115.955 207.284 115.7C206.889 115.536 206.773 115.65 206.668 116.111ZM80.3222 68.7463C80.8212 68.8407 81.9214 68.198 82.0422 67.7293C82.0525 67.6954 81.8874 67.566 81.8557 67.5813C81.3082 67.8618 80.7663 68.1507 80.2293 68.4513C80.1851 68.4749 80.1765 68.5918 80.1843 68.6617C80.192 68.6955 80.2737 68.7188 80.3222 68.7463ZM203.555 115.344C203.426 115.197 203.368 115.071 203.304 115.069C203.157 115.065 203.013 115.123 202.867 115.152C202.949 115.247 203.012 115.385 203.116 115.423C203.206 115.459 203.338 115.388 203.555 115.344Z" fill="#462683"/>
<path d="M175.38 61.4685C172.349 60.9988 169.319 60.5222 166.287 60.0629C164.088 59.728 161.89 59.4111 159.693 59.0908C156.158 58.5723 152.622 58.0538 149.087 57.5354C148.672 57.4752 148.245 57.4525 147.839 57.3584C147.358 57.2459 147.332 57.1402 147.393 56.5376C147.431 56.1461 147.529 55.8995 148.007 55.9719C149.009 56.1221 150.017 56.2231 151.021 56.3663C153.639 56.7405 156.253 57.1356 158.869 57.5022C161.573 57.879 164.28 58.2204 166.983 58.6041C168.626 58.8371 170.263 59.1227 171.901 59.362C174.378 59.7229 176.861 60.0561 179.343 60.4108C181.209 60.6804 183.071 60.9708 184.936 61.2438C186.578 61.4838 188.223 61.7099 189.867 61.9574C190.925 62.115 191.976 62.3106 193.03 62.4675C194.392 62.6703 195.759 62.8455 197.122 63.0415C197.454 63.0887 197.79 63.1547 198.105 63.2705C198.504 63.4171 198.608 63.7073 198.519 64.1605C198.436 64.5827 198.171 64.7067 197.78 64.6513C196.972 64.5358 196.163 64.4272 195.356 64.3117C192.655 63.9211 189.953 63.516 187.249 63.1358C184.686 62.7759 182.121 62.4408 179.561 62.0816C178.169 61.8871 176.779 61.6609 175.391 61.4491C175.383 61.4512 175.381 61.4616 175.38 61.4685Z" fill="#462683"/>
<path d="M149.789 74.0615C151.685 74.47 153.584 74.8646 155.481 75.2912C158.531 75.9731 161.573 76.6786 164.619 77.3598C166.186 77.7107 167.764 78.0027 169.326 78.3563C171.685 78.8954 174.034 79.4718 176.391 80.0212C177.872 80.3662 179.36 80.6765 180.836 81.0276C182.313 81.3788 183.786 81.7473 185.256 82.1296C185.783 82.2654 185.851 82.4118 185.735 82.9101C185.621 83.4015 185.492 83.5237 184.962 83.4266C183.855 83.2236 182.757 82.9755 181.656 82.7448C179.616 82.3188 177.574 81.8997 175.536 81.4633C172.811 80.8813 170.089 80.2888 167.367 79.6894C165.58 79.2951 163.798 78.891 162.014 78.4759C159.629 77.921 157.251 77.3495 154.866 76.7947C153.852 76.5595 152.827 76.3617 151.813 76.1266C148.767 75.4239 145.726 74.7115 142.681 74.0053C142.378 73.9351 142.067 73.8919 142.015 73.4792C141.923 72.7603 142.182 72.4842 142.916 72.6248C145.213 73.0617 147.505 73.5228 149.799 73.9736C149.801 73.9992 149.795 74.0303 149.789 74.0615Z" fill="#462683"/>
<path d="M143.081 94.0322C144.611 94.3832 146.151 94.7037 147.675 95.0893C150.431 95.7854 153.177 96.5154 155.923 97.2454C156.613 97.4277 156.832 98.2686 156.3 98.7462C156.155 98.8795 155.821 98.8965 155.609 98.844C154.054 98.4523 152.508 98.0156 150.955 97.617C149.046 97.1269 147.132 96.661 145.221 96.1813C144.269 95.9439 143.317 95.685 142.363 95.4545C141.714 95.2983 141.055 95.1975 140.409 95.0275C140.273 94.9899 140.069 94.7486 140.09 94.6378C140.246 93.7915 140.28 93.3418 141.357 93.6217C141.929 93.7699 142.512 93.8557 143.093 93.9699C143.089 93.9907 143.085 94.0115 143.081 94.0322Z" fill="#462683"/>
<path d="M204.729 38.2899C202.734 37.9447 200.743 37.5752 198.743 37.2576C197.816 37.1114 197.721 36.8053 197.846 35.9169C198.08 34.2487 198.283 32.5744 198.515 30.9021C198.556 30.5976 198.638 30.2937 198.754 30.0112C199.029 29.3429 199.159 29.2498 199.906 29.3427C201.581 29.5458 203.253 29.7774 204.922 30.0082C206.007 30.1567 207.091 30.3266 208.174 30.4855C208.314 30.5058 208.453 30.5295 208.591 30.5601C209.298 30.7279 209.426 30.9003 209.308 31.6283C209.235 32.0705 209.117 32.5072 209.006 32.9454C208.574 34.6323 208.148 36.3239 207.692 38.006C207.518 38.6512 207.365 38.7361 206.725 38.6283C206.06 38.5192 205.399 38.3713 204.735 38.2408C204.735 38.2588 204.732 38.2726 204.729 38.2899ZM203.944 36.7054C204.484 36.8115 205.203 36.9529 205.92 37.0936C206.605 37.2282 206.625 37.2358 206.8 36.5802C207.16 35.2242 207.497 33.8599 207.843 32.4977C207.863 32.4154 207.879 32.3323 207.899 32.25C208.005 31.8575 207.842 31.6637 207.445 31.6325C207.332 31.6246 207.223 31.5959 207.114 31.5818C204.968 31.311 202.825 31.041 200.679 30.7702C200.013 30.686 199.91 30.7307 199.82 31.3527C199.641 32.5753 199.476 33.8007 199.353 35.0307C199.262 35.9329 199.315 35.9936 200.191 36.1407C201.377 36.3448 202.572 36.5005 203.944 36.7054Z" fill="#462683"/>
<path d="M222.356 32.597C222.154 32.8377 222.033 33.0331 221.865 33.1727C220.853 34.0233 219.856 34.8912 218.804 35.6908C217.655 36.5647 217.641 36.526 218.516 37.7077C219.05 38.4307 219.554 39.1731 220.055 39.9183C220.21 40.1502 220.365 40.4069 220.424 40.6737C220.464 40.8541 220.394 41.1565 220.259 41.2559C220.124 41.3552 219.79 41.3577 219.659 41.2565C219.263 40.9453 218.887 40.5945 218.579 40.2034C217.972 39.4337 217.408 38.6292 216.843 37.8282C216.674 37.5902 216.521 37.5457 216.291 37.727C215.625 38.2466 214.954 38.7544 214.291 39.2747C213.649 39.7775 213.016 40.2928 212.378 40.7999C212.147 40.9846 211.897 41.1224 211.621 40.8813C211.373 40.6636 211.294 40.1341 211.477 39.8755C211.557 39.7618 211.669 39.6688 211.776 39.582C212.874 38.6584 213.972 37.7314 215.076 36.8127C215.734 36.2662 215.689 36.164 215.166 35.4611C214.446 34.4967 213.802 33.4788 213.165 32.4588C212.916 32.0612 213.192 31.6626 213.668 31.652C214.116 31.6429 214.381 31.918 214.616 32.2588C215.21 33.1157 215.812 33.9637 216.419 34.8088C216.774 35.3062 216.798 35.329 217.265 34.9498C218.162 34.224 219.027 33.4597 219.919 32.7256C220.309 32.4034 220.723 32.1109 221.147 31.8349C221.406 31.6666 221.708 31.6863 221.92 31.9256C222.087 32.1166 222.208 32.3631 222.356 32.597Z" fill="#462683"/>
<path d="M189.941 35.9132C187.548 35.5112 185.579 35.1783 183.615 34.8572C183.079 34.7698 182.656 34.561 182.454 34.0181C182.326 33.6803 182.413 33.4567 182.764 33.3891C183.007 33.3433 183.272 33.3452 183.515 33.3893C186.502 33.9006 189.489 34.4265 192.474 34.9482C192.814 35.0079 193.138 35.0822 193.179 35.5288C193.227 36.0376 193.043 36.2748 192.522 36.2226C191.514 36.1216 190.513 35.9825 189.941 35.9132Z" fill="#462683"/>
<path d="M46.3812 126.996C46.2423 127.831 45.3556 128.43 44.492 128.271C43.6636 128.115 43.0775 127.404 43.1843 126.677C43.3175 125.762 44.1828 125.181 45.1881 125.331C45.9423 125.444 46.5059 126.234 46.3812 126.996Z" fill="#462683"/>
</svg>
