<svg width="232" height="229" viewBox="0 0 232 229" fill="none" xmlns="http://www.w3.org/2000/svg">
<path d="M118.835 192.276C119.215 189.327 120.189 186.325 121.579 183.437C122.605 181.306 123.843 179.327 125.365 177.521C125.641 177.194 125.882 176.834 126.125 176.482C126.32 176.197 126.239 176.017 125.899 175.919C124.233 175.436 122.803 174.518 121.61 173.304C118.529 170.167 117.321 166.495 118.575 162.144C118.969 160.776 119.727 159.693 120.647 158.643C121.492 157.679 122.417 156.845 123.544 156.268C125.452 155.288 127.46 154.667 129.646 154.841C129.847 154.857 130.048 154.878 130.247 154.869C130.887 154.841 130.959 154.781 131.077 154.133C131.347 152.66 131.765 151.234 132.453 149.901C132.701 149.419 132.987 148.945 133.33 148.529C133.72 148.053 133.616 147.656 133.317 147.21C132.421 145.868 132.27 144.367 132.537 142.836C132.792 141.382 133.38 140.065 134.397 138.936C137.403 135.602 141.165 134.011 145.615 134.082C146.598 134.098 147.585 134.409 148.553 134.655C149.042 134.78 149.409 134.747 149.813 134.43C150.826 133.635 151.869 132.875 152.911 132.116C155.392 130.313 157.964 128.651 160.675 127.207C162.397 126.29 164.158 125.47 165.993 124.802C168.348 123.946 170.753 123.313 173.276 123.312C176.409 123.312 179.196 124.248 181.454 126.5C181.695 126.74 181.906 127.025 182.071 127.321C182.72 128.496 183.439 129.649 183.394 131.072C183.387 131.296 183.463 131.524 183.506 131.748C183.629 132.408 183.571 133.039 183.379 133.692C183.023 134.911 183.131 135.01 184.402 134.943C188.34 134.735 192.186 135.24 195.911 136.523C198.582 137.442 201.019 138.836 203.296 140.509C204.937 141.715 206.545 142.957 207.887 144.506C209.655 146.546 210.951 148.873 211.775 151.426C212.228 152.831 212.565 154.336 212 155.81C211.728 156.521 211.324 157.188 210.913 157.835C210.554 158.4 210.512 158.448 211.087 158.693C212.655 159.359 214.086 160.258 215.433 161.281C217.429 162.797 218.908 164.691 219.335 167.237C219.667 169.223 218.875 170.744 217.276 171.89C217.182 171.957 217.092 172.03 216.993 172.086C216.653 172.278 216.654 172.51 216.904 172.775C217.746 173.66 218.293 174.718 218.797 175.82C219.318 176.962 219.55 178.166 219.67 179.39C219.885 181.599 219.741 183.781 219.229 185.956C218.76 187.95 218.137 189.878 217.148 191.664C215.706 194.265 213.931 196.62 211.486 198.365C209.85 199.533 208.058 200.44 206.065 200.846C205.369 200.988 204.642 200.985 203.93 201.051C203.828 201.06 203.73 201.091 203.63 201.112C203.723 201.171 203.812 201.244 203.912 201.287C204.567 201.57 205.246 201.806 205.879 202.132C207.505 202.971 208.694 204.272 209.603 205.834C210.151 206.775 210.037 207.132 209.083 207.692C209.034 207.722 208.988 207.755 208.938 207.785C208.234 208.203 208.236 208.201 208.539 208.964C209.423 211.184 209.389 213.427 208.768 215.707C208.38 217.131 207.839 218.475 206.978 219.675C205.291 222.032 203.1 223.672 200.277 224.464C198.797 224.88 197.311 225.145 195.782 224.988C193.331 224.738 191.024 224.057 188.996 222.582C187.391 221.415 186.136 219.962 185.254 218.187C185.165 218.007 185.074 217.828 184.976 217.653C184.827 217.386 184.653 217.376 184.428 217.583C184.133 217.853 183.817 218.102 183.513 218.363C181.507 220.083 179.328 221.567 177.048 222.883C175.692 223.665 174.225 224.268 172.781 224.888C171.549 225.417 170.295 225.907 169.022 226.326C166.467 227.169 163.858 227.81 161.165 228.019C159.483 228.151 157.799 228.312 156.115 228.349C153.623 228.402 151.139 228.202 148.694 227.694C146.821 227.304 144.944 226.915 143.103 226.399C141.926 226.07 140.802 225.534 139.67 225.054C138.563 224.585 137.446 224.127 136.384 223.567C133.279 221.93 130.424 219.924 127.904 217.472C125.717 215.345 123.865 212.958 122.364 210.286C120.546 207.05 119.353 203.613 118.818 199.949C118.459 197.478 118.437 194.991 118.835 192.276ZM218.48 183.539C218.836 181.731 218.697 179.539 218.077 177.392C217.672 175.989 217.103 174.646 216.215 173.451C215.81 172.906 215.396 172.63 214.7 172.82C214.376 172.907 214.011 172.9 213.674 172.86C212.879 172.767 212.084 172.661 211.303 172.495C210.956 172.422 210.689 172.156 210.776 171.73C210.861 171.31 211.166 171.191 211.552 171.236C212.177 171.311 212.806 171.377 213.427 171.482C214.512 171.667 215.522 171.459 216.517 171.019C217.393 170.632 217.853 169.921 218.017 169.056C218.126 168.484 218.081 167.849 217.966 167.27C217.648 165.68 216.819 164.354 215.662 163.232C214.042 161.664 212.216 160.405 210.16 159.46C209.574 159.19 209.145 159.215 208.562 159.491C207.771 159.864 206.892 160.058 206.036 160.279C205.869 160.322 205.547 160.192 205.473 160.05C205.402 159.916 205.507 159.595 205.641 159.473C205.886 159.248 206.198 159.079 206.505 158.943C206.924 158.757 207.374 158.644 207.793 158.465C208.749 158.056 209.713 157.574 210.29 156.705C211.15 155.409 211.435 153.944 210.854 152.438C210.391 151.237 209.898 150.038 209.314 148.893C208.57 147.436 207.663 146.057 206.481 144.918C204.663 143.167 202.651 141.646 200.525 140.279C196.409 137.635 191.832 136.498 187.02 136.189C185.687 136.103 184.337 136.261 182.994 136.322C182.573 136.34 182.263 136.551 181.985 136.889C181.586 137.373 181.143 137.831 180.661 138.231C180.223 138.593 179.731 138.905 179.222 139.156C178.798 139.367 178.454 139.074 178.569 138.612C178.633 138.357 178.837 138.12 179.02 137.911C179.703 137.14 180.46 136.428 181.086 135.615C182.035 134.381 182.274 132.934 182.2 131.393C182.115 129.623 181.384 128.178 180.077 127.048C177.833 125.109 175.139 124.54 172.278 124.86C168.659 125.264 165.232 126.402 161.949 127.964C158.569 129.574 155.524 131.709 152.581 134C151.905 134.527 151.247 135.08 150.587 135.627C150.208 135.941 149.846 136.005 149.33 135.869C148.256 135.585 147.154 135.369 146.049 135.253C144.188 135.06 142.386 135.467 140.66 136.117C137.658 137.247 135.273 139.131 133.864 142.083C132.871 144.162 133.413 146.629 135.283 148.006C136.254 148.72 137.338 149.112 138.464 149.441C138.6 149.482 138.751 149.489 138.878 149.545C139.179 149.679 139.3 149.93 139.237 150.247C139.174 150.564 138.924 150.636 138.646 150.607C138.389 150.582 138.132 150.543 137.884 150.48C136.763 150.189 135.731 149.712 134.817 148.989C134.362 148.628 134.314 148.637 134.026 149.071C132.942 150.704 132.383 152.527 132.099 154.446C132.01 155.049 132.074 155.099 132.647 155.327C133.444 155.645 134.248 155.952 135.028 156.306C136.199 156.838 137.071 157.768 138.008 158.611C138.508 159.062 138.514 159.061 138.93 158.538C140.057 157.129 141.191 155.725 142.296 154.299C142.595 153.915 142.909 153.79 143.394 153.82C146.129 153.98 148.845 153.807 151.479 153.02C153.169 152.514 154.715 151.7 155.893 150.32C156.345 149.79 156.533 149.725 156.852 149.988C157.308 150.362 156.909 150.651 156.728 150.941C156.212 151.765 155.426 152.305 154.645 152.839C154.337 153.051 154.198 153.225 154.379 153.602C155.186 155.287 156.052 156.939 157.353 158.304C161.407 162.559 166.321 163.902 172.008 162.568C172.286 162.503 172.553 162.389 172.83 162.322C173.182 162.236 173.411 162.355 173.355 162.755C173.286 163.262 173.177 163.761 173.103 164.267C172.882 165.798 173.095 167.322 173.486 168.776C174.57 172.815 176.744 176.153 180.295 178.464C181.489 179.239 182.788 179.867 184.083 180.469C184.93 180.864 184.996 180.775 185.283 179.912C185.383 179.614 185.461 179.309 185.566 179.012C185.708 178.606 185.84 178.196 186.022 177.809C186.198 177.436 186.429 177.394 186.785 177.577C187.231 177.806 187.068 178.122 186.941 178.453C185.852 181.268 185.489 184.226 185.382 187.206C185.289 189.785 185.545 192.353 186.111 194.885C186.255 195.531 186.569 195.862 187.19 196.053C190.093 196.946 192.985 197.873 195.88 198.787C197.601 199.33 199.322 199.87 201.043 200.413C201.363 200.515 201.674 200.57 201.873 200.216C202.095 199.819 202.442 199.815 202.837 199.837C203.551 199.875 204.273 199.938 204.981 199.873C207.281 199.658 209.269 198.642 211.031 197.224C212.85 195.763 214.35 194.013 215.528 191.968C216.973 189.454 218.041 186.831 218.48 183.539ZM152.101 227.073C154.129 227.083 156.157 227.085 158.185 227.105C160.725 227.131 163.197 226.598 165.659 226.102C168.757 225.479 171.704 224.346 174.559 222.989C176.816 221.916 178.974 220.677 180.904 219.075C182.334 217.891 183.749 216.689 185.162 215.484C185.488 215.207 185.818 214.921 186.086 214.591C187.355 213.039 188.622 211.485 189.851 209.903C190.536 209.022 191.149 208.086 191.796 207.174C192.001 206.886 191.983 206.674 191.648 206.477C190.446 205.769 189.491 204.788 188.672 203.673C187.806 202.494 187.015 201.266 186.488 199.892C186.329 199.475 186.082 199.252 185.649 199.135C184.516 198.828 183.39 198.497 182.275 198.134C179.116 197.109 175.962 196.068 172.81 195.016C172.386 194.874 172.085 194.914 171.71 195.187C170.88 195.794 170.022 196.37 169.13 196.878C166.927 198.131 164.508 198.239 162.118 197.803C159.675 197.357 157.561 196.115 155.87 194.261C155.2 193.526 154.518 192.75 154.07 191.877C153.462 190.688 153.039 189.414 152.864 188.05C152.551 185.635 152.898 183.365 154.093 181.254C154.555 180.438 155.157 179.695 155.736 178.951C156.009 178.603 156.03 178.332 155.674 178.09C155.085 177.687 154.499 177.27 153.868 176.941C153.067 176.524 152.855 176.603 152.272 177.326C149.479 180.799 144.909 182.243 140.596 180.916C136.776 179.741 134.003 177.32 132.739 173.413C132.477 172.602 132.356 171.747 132.164 170.911C132.142 170.812 132.089 170.72 132.05 170.624C131.961 170.689 131.87 170.75 131.788 170.821C131.746 170.858 131.722 170.914 131.687 170.96C129.883 173.328 128.098 175.712 126.27 178.061C124.892 179.832 123.718 181.728 122.669 183.702C121.696 185.532 121.054 187.495 120.536 189.496C120.019 191.497 119.746 193.544 119.698 195.606C119.654 197.438 119.805 199.265 120.139 201.073C120.552 203.311 121.226 205.476 122.172 207.533C122.814 208.93 123.659 210.24 124.459 211.56C125.653 213.535 127.208 215.218 128.857 216.814C130.383 218.291 132.039 219.598 133.819 220.77C135.72 222.019 137.727 223.056 139.81 223.936C141.334 224.58 142.934 225.056 144.508 225.579C145.103 225.775 145.727 225.894 146.339 226.04C148.236 226.497 150.148 226.857 152.101 227.073ZM171.582 175.587C172.746 175.699 173.601 176.241 174.345 176.998C175.577 178.252 176.489 179.694 176.731 181.465C176.9 182.703 176.493 183.2 175.266 183.448C174.716 183.559 174.711 183.56 174.845 184.083C175.482 186.544 175.363 188.956 174.409 191.322C174.153 191.958 174.195 192.026 174.842 192.223C177.278 192.969 179.714 193.716 182.15 194.466C182.889 194.694 183.62 194.948 184.366 195.151C184.854 195.285 184.918 195.209 184.849 194.699C184.761 194.046 184.66 193.395 184.554 192.746C183.989 189.297 183.941 185.853 184.66 182.418C184.749 181.994 184.611 181.761 184.214 181.639C183.803 181.514 183.377 181.419 182.991 181.24C181.51 180.556 180.094 179.79 178.797 178.755C175.107 175.817 172.801 172.112 172.203 167.409C172.097 166.566 172.176 165.699 172.159 164.844C172.144 164.065 172.086 164.025 171.312 164.103C169.63 164.273 167.956 164.314 166.26 164.131C162.586 163.737 159.547 162.074 156.951 159.563C155.453 158.114 154.433 156.311 153.736 154.339C153.457 153.547 153.447 153.549 152.631 153.818C152.522 153.854 152.416 153.896 152.307 153.935C149.622 154.896 146.869 155.344 144.031 154.887C143.388 154.785 142.997 154.966 142.65 155.451C141.849 156.568 141.037 157.676 140.233 158.791C140.17 158.879 140.133 158.987 140.084 159.085C140.189 159.099 140.3 159.142 140.398 159.12C141.925 158.809 143.454 158.631 145.003 158.958C145.326 159.027 145.628 158.989 145.871 158.727C146.314 158.249 146.907 158.158 147.511 158.083C148.462 157.964 149.395 158.049 150.314 158.314C151.745 158.728 153.025 159.409 154.001 160.56C154.994 161.73 154.632 163.193 153.23 163.793C152.739 164.004 152.755 163.995 153.017 164.487C154.399 167.092 155.075 169.812 154.355 172.761C154.176 173.493 154.213 173.603 154.955 173.79C156.3 174.13 157.304 174.937 158.164 175.972C158.765 176.695 158.805 176.677 159.678 176.312C160.359 176.028 161.062 175.761 161.782 175.607C164.145 175.099 166.395 175.598 168.568 176.524C168.939 176.682 169.169 176.729 169.44 176.371C169.999 175.63 170.765 175.404 171.582 175.587ZM200.11 212.33C200.117 212.276 200.125 212.221 200.133 212.166C201.436 212.352 202.74 212.533 204.04 212.727C204.233 212.756 204.461 212.8 204.595 212.923C204.718 213.034 204.811 213.276 204.781 213.434C204.753 213.583 204.569 213.75 204.413 213.813C204.238 213.887 204.018 213.878 203.819 213.866C202.818 213.808 201.817 213.748 200.818 213.668C199.705 213.58 198.595 213.462 197.482 213.372C196.992 213.332 196.93 213.436 197.112 213.91C197.153 214.017 197.217 214.115 197.259 214.221C197.863 215.769 198.475 217.315 199.064 218.869C199.27 219.413 199.198 219.54 198.72 219.739C198.247 219.938 198.149 219.897 197.891 219.346C197.77 219.086 197.663 218.82 197.566 218.55C197.009 216.987 196.439 215.426 195.912 213.853C195.751 213.372 195.501 213.183 194.994 213.138C193.283 212.984 191.574 212.793 189.871 212.575C189.45 212.521 189.17 212.606 188.893 212.917C188 213.923 187.092 214.914 186.179 215.902C185.913 216.189 185.86 216.47 186.017 216.835C186.998 219.124 188.597 220.885 190.706 222.156C191.528 222.651 192.465 222.973 193.371 223.312C195.68 224.173 197.991 223.928 200.276 223.215C201.374 222.872 202.314 222.239 203.254 221.557C205.192 220.151 206.443 218.308 207.202 216.088C207.978 213.817 207.824 211.511 207.35 209.215C207.225 208.609 207.029 207.944 206.655 207.474C205.482 206.005 204.09 204.783 202.228 204.223C201.223 203.92 201.198 203.917 200.552 204.71C200.516 204.754 200.486 204.804 200.448 204.846C199.3 206.137 197.994 207.124 196.202 207.376C195.421 207.484 194.691 207.562 193.92 207.338C193.275 207.15 193.175 207.259 192.795 207.815C192.229 208.64 191.633 209.445 191.062 210.267C190.871 210.541 190.717 210.841 190.547 211.129C190.915 211.239 191.278 211.414 191.654 211.45C193.479 211.622 195.308 211.736 197.131 211.912C198.129 212.011 199.117 212.189 200.11 212.33ZM124.858 167.813C124.857 167.821 124.854 167.828 124.853 167.836C124.43 167.776 123.998 167.743 123.583 167.641C123.428 167.603 123.194 167.388 123.206 167.278C123.229 167.098 123.396 166.906 123.551 166.78C123.641 166.707 123.826 166.74 123.968 166.742C125.026 166.769 126.084 166.796 127.142 166.828C127.742 166.846 128.343 166.885 128.943 166.888C129.367 166.889 129.43 166.785 129.337 166.351C129.313 166.239 129.272 166.132 129.237 166.023C128.752 164.584 128.263 163.147 127.779 161.707C127.689 161.436 127.612 161.159 127.529 160.886C127.433 160.566 127.601 160.408 127.877 160.306C128.126 160.212 128.333 160.246 128.462 160.491C128.569 160.693 128.674 160.899 128.748 161.115C129.582 163.553 130.406 165.995 131.245 168.431C131.322 168.654 131.484 168.846 131.606 169.053C131.773 168.868 131.961 168.697 132.096 168.49C132.186 168.353 132.201 168.165 132.247 168.001C132.434 167.34 132.566 166.658 132.814 166.022C133.726 163.68 135.283 161.853 137.388 160.488C138.001 160.091 138.004 160.095 137.517 159.595C137.438 159.514 137.359 159.429 137.273 159.353C133.995 156.477 130.268 155.371 125.972 156.464C123.804 157.016 122.02 158.176 120.775 160.012C118.382 163.543 118.682 167.694 121.096 171.012C122.432 172.847 124.188 174.129 126.25 175.03C126.892 175.311 126.886 175.332 127.305 174.796C128.31 173.509 129.295 172.208 130.32 170.94C130.713 170.456 130.812 170.008 130.496 169.459C130.34 169.188 130.214 168.891 130.124 168.591C129.986 168.127 129.692 167.997 129.228 167.987C127.776 167.952 126.318 167.874 124.858 167.813ZM154.068 185.146C153.814 186.164 153.925 187.48 154.188 188.823C154.611 190.978 155.61 192.786 157.169 194.306C158.173 195.284 159.389 195.894 160.683 196.4C162.987 197.302 165.274 197.172 167.566 196.387C168.922 195.924 170.064 195.111 171.075 194.123C171.462 193.746 171.814 193.669 172.304 193.855C172.864 194.067 173.448 194.22 174.022 194.394C178.461 195.745 182.901 197.085 187.336 198.449C189.361 199.072 191.368 199.753 193.392 200.384C196.346 201.305 199.313 202.182 202.259 203.126C203.684 203.584 205.019 204.252 206.095 205.335C206.539 205.781 206.952 206.256 207.389 206.708C207.689 207.019 208.144 206.982 208.53 206.632C208.853 206.34 208.601 206.117 208.43 205.898C207.522 204.738 206.45 203.75 205.244 202.913C204.875 202.657 204.44 202.474 204.01 202.323C203.282 202.066 202.535 201.861 201.795 201.635C199.55 200.948 197.3 200.268 195.057 199.574C192.869 198.897 190.691 198.187 188.499 197.524C185.649 196.661 182.784 195.849 179.937 194.975C177.748 194.303 175.578 193.567 173.399 192.86C172.602 192.601 172.572 192.465 172.911 191.7C173.301 190.818 173.76 189.933 173.952 189.001C174.384 186.895 174.23 184.808 173.436 182.773C172.62 180.681 171.179 179.145 169.32 177.98C168.122 177.227 166.809 176.787 165.38 176.614C163.145 176.342 161.047 176.615 159.087 177.761C158.458 178.129 158.403 178.118 158.002 177.49C157.066 176.027 155.711 175.21 154.039 174.861C153.786 174.81 153.538 174.742 153.288 174.678C152.875 174.573 152.737 174.351 152.898 173.919C153.253 172.956 153.529 171.98 153.553 170.931C153.582 169.549 153.565 168.158 153.124 166.856C152.357 164.598 150.969 162.736 148.919 161.482C145.925 159.648 142.741 159.303 139.463 160.65C137.445 161.48 135.851 162.854 134.769 164.769C133.269 167.42 132.929 170.212 133.794 173.145C134.18 174.456 134.791 175.672 135.645 176.706C136.609 177.873 137.784 178.802 139.224 179.433C142.518 180.874 145.678 180.746 148.746 178.881C149.985 178.128 150.964 177.078 151.823 175.923C152.097 175.556 152.396 175.402 152.847 175.492C154.567 175.831 156.023 176.608 157.097 178.026C157.518 178.583 157.509 178.877 156.981 179.365C155.375 180.849 154.518 182.712 154.068 185.146ZM194.848 206.516C195.017 206.505 195.215 206.489 195.416 206.483C197.019 206.418 198.189 205.522 199.274 204.47C200.099 203.671 200.051 203.497 198.969 203.179C197.543 202.76 196.118 202.336 194.697 201.901C192.619 201.267 190.545 200.619 188.466 199.985C188.338 199.946 188.189 199.971 188.051 199.968C188.07 200.101 188.057 200.247 188.112 200.364C189.044 202.331 190.287 204.053 192.073 205.34C192.897 205.934 193.841 206.257 194.848 206.516ZM171.734 176.694C171.309 176.707 171.039 176.67 170.798 176.738C170.607 176.792 170.355 176.949 170.311 177.11C170.268 177.271 170.432 177.504 170.539 177.686C170.591 177.777 170.718 177.823 170.807 177.895C172.061 178.917 173.126 180.095 173.869 181.549C173.989 181.787 174.217 182.015 174.453 182.135C174.796 182.31 175.267 182.586 175.555 182.234C175.729 182.022 175.65 181.524 175.562 181.186C175.172 179.664 174.267 178.451 173.098 177.448C172.677 177.085 172.111 176.896 171.734 176.694ZM148.832 159.104C148.39 159.127 147.85 159.15 147.31 159.19C147.237 159.195 147.108 159.29 147.114 159.32C147.136 159.415 147.194 159.513 147.263 159.585C147.319 159.644 147.408 159.676 147.488 159.708C149.032 160.317 150.327 161.298 151.55 162.392C151.74 162.561 151.953 162.717 152.184 162.825C152.602 163.02 153.352 162.894 153.538 162.592C153.812 162.147 153.562 161.776 153.305 161.421C153.272 161.375 153.235 161.33 153.2 161.285C152.108 159.905 150.577 159.419 148.832 159.104Z" fill="#462683"/>
<path d="M106.721 24.9494C107.093 24.6852 107.49 24.4485 107.835 24.1517C110.262 22.0679 112.919 20.3356 115.784 18.9216C116.691 18.4737 117.637 18.1572 118.654 18.0805C119.838 17.9925 120.675 18.9549 120.343 20.0953C120.187 20.6373 119.952 21.1762 119.654 21.6535C118.429 23.623 116.733 25.1749 115.04 26.7239C112.727 28.8399 110.178 30.637 107.494 32.2473C107.297 32.3659 107.1 32.483 106.91 32.6105C106.843 32.6552 106.795 32.7264 106.738 32.7869C106.828 32.8299 106.915 32.9078 107.006 32.9095C107.778 32.9317 108.554 32.8957 109.323 32.9605C111.035 33.1055 112.748 33.2538 114.45 33.4834C118.551 34.0387 122.548 35.0415 126.457 36.3905C126.836 36.5209 127.208 36.6743 127.575 36.8335C127.948 36.9949 127.959 37.2882 127.836 37.623C127.713 37.9594 127.467 38.055 127.152 37.9465C126.259 37.6391 125.376 37.3013 124.482 36.9971C119.846 35.4203 115.061 34.5524 110.209 34.0002C109.584 33.9286 108.952 33.9231 108.321 33.8955C108.227 33.8917 108.132 33.9451 108.038 33.9715C108.126 34.0303 108.207 34.1136 108.304 34.1465C109.691 34.6055 111.086 35.0512 112.344 35.8122C114.337 37.019 116.089 38.4529 116.903 40.7607C117.428 42.2478 117.257 43.6964 116.763 45.1357C116.54 45.7846 116.514 45.765 117.014 46.1948C119.275 48.1396 121.472 50.1518 123.282 52.5393C124.747 54.471 125.955 56.5624 126.625 58.896C127.278 61.168 127.165 63.4475 125.99 65.5629C125.13 67.1127 123.796 68.1183 122.066 68.5398C121.432 68.6934 120.772 68.7573 120.119 68.8125C119.289 68.8809 119.262 68.8611 119.307 69.7283C119.364 70.7853 119.507 71.8387 119.543 72.8959C119.622 75.1963 119.469 77.4843 118.773 79.6919C118.184 81.5656 117.106 83.1289 115.52 84.3234C115.329 84.4683 115.186 84.6759 115.022 84.8566C115.284 84.8986 115.549 84.9907 115.809 84.9734C117.434 84.8557 118.988 85.1472 120.54 85.6248C122.117 86.1109 123.463 86.9385 124.619 88.0772C126.388 89.8164 127.49 91.9022 127.794 94.394C128.078 96.7269 127.467 98.8269 126.193 100.754C124.882 102.739 123.06 104.064 120.802 104.791C119.312 105.273 117.779 105.448 116.223 105.305C115.543 105.241 114.874 105.057 114.197 104.946C113.647 104.855 113.536 104.92 113.407 105.462C112.592 108.892 111 111.943 108.861 114.721C107.897 115.973 106.791 117.095 105.56 118.088C104.198 119.184 102.869 120.316 101.328 121.171C98.278 122.867 95.0716 124.148 91.6529 124.871C90.4498 125.125 89.2519 125.488 88.036 125.575C85.4964 125.755 82.9465 125.907 80.4012 125.658C78.0634 125.429 75.7121 125.272 73.3999 124.886C70.9754 124.481 68.5158 124.257 66.1445 123.513C63.9333 122.82 61.6557 122.337 59.4527 121.619C57.8529 121.1 56.2914 120.423 54.777 119.685C53.1092 118.87 51.4648 118.003 49.9421 116.908C47.9754 115.494 46.21 113.888 44.5837 112.099C42.9204 110.268 41.731 108.187 40.8102 105.899C40.0215 103.938 39.4943 101.931 39.2555 99.8468C39.164 99.0559 39.2266 98.247 39.2245 97.4449C39.2244 97.244 39.2625 97.0438 39.2606 96.8443C39.2522 96.0413 39.1772 95.9748 38.3822 95.9269C35.6842 95.7643 33.3396 94.7768 31.3174 92.9697C29.3108 91.1759 28.2695 88.9282 28.0353 86.2853C27.7953 83.5938 28.6822 81.2731 30.438 79.2532C32.2511 77.1664 34.5883 76.0008 37.2704 75.6256C38.609 75.4384 40.0149 75.4058 41.354 75.8643C41.4437 75.8947 41.5586 75.8489 41.6622 75.8381C41.628 75.7647 41.6121 75.6747 41.5592 75.621C40.1871 74.2412 39.9042 72.5111 40.0771 70.693C40.259 68.7884 40.9256 67.0182 41.8776 65.3589C41.9055 65.3086 41.9363 65.2604 41.9641 65.2102C42.3239 64.5983 42.3239 64.5983 41.776 64.2142C41.705 64.1642 41.6374 64.1131 41.5641 64.0676C39.7418 62.9505 39.256 61.2123 39.4502 59.2441C39.6371 57.3499 40.4547 55.649 41.5171 54.1106C43.2863 51.5489 45.505 49.3908 47.9125 47.4286C48.2876 47.1234 48.7222 46.8919 49.1312 46.6282C49.4068 46.4506 49.3911 46.281 49.1252 46.1108C48.7642 45.8809 48.3637 45.6931 48.05 45.4109C46.3669 43.8976 46.2415 41.8791 47.2847 39.9267C48.4999 37.6512 50.3221 35.9706 52.5244 34.6105C55.6462 32.6814 59.0607 31.5735 62.5843 30.7522C63.7186 30.4881 64.9102 30.4602 66.0763 30.3425C66.9786 30.2526 67.0072 30.2646 66.9526 29.3833C66.8613 27.9196 66.8834 26.4658 67.0986 25.0107C67.4159 22.872 68.0096 20.83 68.9691 18.8832C70.4147 15.9518 72.4942 13.5396 74.9593 11.4421C75.7627 10.7595 76.5949 10.0761 77.5095 9.56396C79.675 8.34997 81.9965 7.54078 84.4921 7.33345C85.431 7.25514 86.3776 7.19067 87.3176 7.21614C90.8905 7.31366 94.1016 8.50741 96.9957 10.5615C98.2073 11.4227 99.3962 12.3316 100.277 13.565C100.444 13.7975 100.649 14.0005 100.835 14.2183C101.071 14.4942 101.257 14.4634 101.402 14.1301C101.687 13.4724 101.97 12.8146 102.26 12.1592C103.869 8.51782 105.892 5.13785 108.584 2.18478C109.046 1.67838 109.57 1.22687 110.074 0.761518C110.219 0.627541 110.393 0.5152 110.57 0.42406C110.876 0.268363 111.126 0.405961 111.339 0.625929C111.572 0.867986 111.456 1.10171 111.293 1.31917C111.208 1.43303 111.104 1.53619 110.998 1.6311C107.814 4.50136 105.548 8.0236 103.753 11.8744C103.245 12.9642 102.794 14.0813 102.311 15.1825C102.084 15.697 102.114 16.1746 102.429 16.6483C102.633 16.958 102.79 17.2992 102.984 17.6169C103.218 18.0009 103.321 17.9964 103.577 17.6057C104.27 16.5551 104.896 15.4503 105.673 14.4656C106.358 13.594 107.2 12.8435 107.995 12.0624C108.215 11.8468 108.503 11.6868 108.781 11.5432C110.25 10.7783 111.578 11.4839 111.747 13.1403C111.868 14.3261 111.665 15.4832 111.279 16.6047C110.367 19.2597 108.908 21.6216 107.348 23.9292C107.124 24.2592 106.934 24.6132 106.729 24.9555C106.727 24.9584 106.721 24.9494 106.721 24.9494ZM73.6942 123.737C74.4493 123.808 75.1086 123.846 75.759 123.935C78.4589 124.309 81.1698 124.581 83.8931 124.488C86.006 124.416 88.1419 124.339 90.2163 123.977C92.8952 123.513 95.4582 122.597 97.9462 121.447C100.438 120.295 102.743 118.907 104.823 117.115C106.488 115.681 107.925 114.057 109.151 112.249C110.513 110.24 111.445 108.028 112.066 105.682C112.697 103.295 113.063 100.864 113.231 98.4033C113.264 97.9185 113.29 97.4329 113.308 96.9461C113.366 95.432 113.436 93.918 113.466 92.403C113.506 90.4289 113.478 88.453 113.545 86.4811C113.589 85.2248 113.648 85.1917 112.388 85.0522C111.079 84.9072 109.965 84.4138 109.049 83.4641C108.373 82.762 107.975 81.9163 107.738 80.9866C107.627 80.5483 107.422 80.4029 106.941 80.4921C105.236 80.8105 103.721 80.3157 102.325 79.3374C100.629 78.1474 99.3318 76.579 98.2405 74.8614C97.1477 73.1435 96.3159 71.2828 95.8555 69.2772C95.6804 68.5142 95.6652 68.5088 94.871 68.7241C93.4486 69.1082 91.9973 69.3255 90.5338 69.192C87.8757 68.9506 85.9308 67.4398 84.3022 65.4544C83.8907 64.9526 83.9056 64.9037 83.4125 65.2878C80.7843 67.3334 77.7389 68.3679 74.5067 68.8895C71.0622 69.4464 67.6516 69.2285 64.3216 68.1422C63.7352 67.9502 63.3234 68.0319 62.8513 68.4365C59.4709 71.3426 55.8217 73.8405 51.7512 75.7046C49.8821 76.5607 47.9589 77.17 45.8965 77.2573C45.4555 77.2757 45.1953 77.4125 45.1011 77.8502C45.0405 78.1301 44.9491 78.4024 44.8763 78.679C44.6118 79.6743 44.3549 80.6723 44.081 81.6663C43.6396 83.266 43.1566 84.8551 42.7491 86.4629C42.193 88.6553 41.6753 90.858 41.1732 93.0629C40.9059 94.2347 40.5964 95.4117 40.4972 96.6011C40.2938 99.0143 40.5082 101.404 41.3306 103.712C41.984 105.549 42.6682 107.382 43.7514 109.011C45.1533 111.122 46.8963 112.931 48.8756 114.524C51.0078 116.242 53.3044 117.678 55.7858 118.824C58.1818 119.932 60.6832 120.736 63.2118 121.495C66.6844 122.543 70.2461 123.099 73.6942 123.737ZM72.5084 31.4067C70.2886 31.0428 68.2258 31.2336 66.1734 31.3845C63.2399 31.5996 60.4274 32.409 57.6887 33.4505C55.3224 34.3505 53.0734 35.4793 51.1246 37.1306C49.9771 38.1022 48.9331 39.1762 48.3485 40.5835C47.4391 42.7718 47.9049 44.3254 50.1363 45.2569C50.3214 45.3343 50.5167 45.3844 50.7048 45.4511C51.9172 45.8819 53.1851 45.833 54.441 45.9018C54.8633 45.9253 55.2918 45.9943 55.6956 46.114C55.8318 46.1541 55.9873 46.4169 55.9811 46.5723C55.9749 46.7276 55.802 46.9118 55.6552 47.0136C55.5244 47.1034 55.3254 47.1356 55.1595 47.1248C53.8771 47.041 52.5928 46.9697 51.3148 46.8323C50.9143 46.7897 50.5836 46.8063 50.2699 47.0502C49.6153 47.5611 48.929 48.0373 48.3087 48.5866C46.4815 50.201 44.7457 51.913 43.2556 53.8464C41.9514 55.5386 40.8588 57.3453 40.6435 59.5512C40.4915 61.0997 41.0469 62.2931 42.3407 63.1484C43.0749 63.634 43.0624 63.5876 43.6502 62.9412C44.3989 62.1168 45.2168 61.355 46.034 60.5978C46.1607 60.4803 46.5095 60.4264 46.6292 60.5152C46.896 60.7126 46.7307 60.9552 46.5484 61.1716C45.8116 62.047 45.069 62.9185 44.3566 63.8133C43.0525 65.4481 42.1601 67.304 41.5948 69.3038C41.2741 70.4362 41.0959 71.6096 41.4164 72.7839C41.7697 74.076 42.3739 75.2285 43.7268 75.6794C44.7874 76.0345 45.9047 76.125 47.038 75.958C48.9122 75.6813 50.6025 74.905 52.2738 74.0829C55.6044 72.445 58.7011 70.4455 61.5268 68.0327C62.3235 67.3523 62.2877 67.3121 61.3932 66.8324C60.9666 66.6043 60.5761 66.3016 60.195 66.0003C59.9744 65.8254 59.785 65.5991 59.6202 65.3684C59.4299 65.1038 59.449 64.8244 59.7163 64.6042C59.9709 64.395 60.1912 64.5044 60.4013 64.697C62.0663 66.2141 64.1061 66.9573 66.2481 67.4313C68.2415 67.873 70.2757 68.0176 72.3145 67.9286C74.3243 67.8418 76.3077 67.5376 78.2143 66.8654C80.0118 66.2319 81.6614 65.327 83.0935 64.0468C83.7804 63.4321 84.0699 63.4701 84.6503 64.1745C84.941 64.5283 85.2006 64.9112 85.508 65.2483C86.6455 66.4958 87.9206 67.5829 89.6348 67.8812C92.601 68.3992 95.2761 67.8381 97.4025 65.5218C97.6914 65.2058 97.9975 64.8924 98.3471 64.6536C98.4848 64.56 98.8223 64.5969 98.9596 64.7074C99.0898 64.812 99.1466 65.107 99.1103 65.2947C99.0695 65.5025 98.9141 65.7099 98.7588 65.8711C98.2234 66.4293 97.7054 67.0108 97.1086 67.4965C96.6488 67.871 96.5996 68.2274 96.748 68.7634C97.3509 70.9439 98.343 72.9328 99.6367 74.7733C100.646 76.2082 101.759 77.5479 103.28 78.4931C105.387 79.8005 107.575 79.6913 109.18 77.5112C109.401 77.2111 109.601 76.8952 109.839 76.6103C110.021 76.3939 110.226 76.1776 110.465 76.0396C110.603 75.9603 110.895 75.9653 111.003 76.0619C111.145 76.189 111.252 76.4481 111.236 76.6402C111.219 76.8498 111.077 77.0735 110.931 77.2441C110.283 78.0046 109.655 78.7936 108.933 79.4813C108.544 79.8516 108.509 80.1526 108.668 80.6041C108.971 81.465 109.47 82.1754 110.137 82.7916C111.603 84.1481 113.896 84.5129 115.629 82.6157C117.07 81.0387 117.891 79.2029 118.196 77.0974C118.555 74.6091 118.454 72.1287 118.196 69.6433C118.122 68.9394 117.82 68.5425 117.101 68.3063C116.411 68.0805 115.796 67.6246 115.165 67.2383C115.068 67.1783 115.029 66.9431 115.053 66.8062C115.065 66.7411 115.29 66.6885 115.42 66.6768C115.527 66.6681 115.641 66.7274 115.75 66.7604C116.543 66.9993 117.33 67.2581 118.13 67.474C119.257 67.7779 120.415 67.8361 121.526 67.4841C123.287 66.9236 124.703 65.9391 125.308 64.0518C125.872 62.2973 125.891 60.5593 125.287 58.8234C124.67 57.0538 123.81 55.4041 122.73 53.8747C120.95 51.3543 118.793 49.1837 116.465 47.1767C115.736 46.5485 115.684 46.5539 114.929 47.1046C114.292 47.5671 113.6 47.9053 112.806 47.9628C112.67 47.9722 112.443 47.865 112.407 47.7594C112.366 47.6387 112.458 47.4382 112.55 47.3159C112.629 47.2107 112.794 47.1752 112.91 47.0945C113.432 46.7432 113.983 46.4232 114.467 46.025C116.312 44.5087 116.454 42.573 115.361 40.3641C114.692 39.0144 113.593 37.9714 112.275 37.2051C110.782 36.3374 109.174 35.7529 107.533 35.2227C104.192 34.1428 100.756 33.7698 97.2749 33.7986C95.1586 33.816 93.0449 34.0395 90.9294 34.1415C90.4736 34.1627 90.107 34.297 89.7471 34.563C89.3816 34.8345 88.988 35.0798 88.5777 35.2748C88.4478 35.336 88.1554 35.2513 88.0621 35.1344C87.9689 35.0159 87.9538 34.7189 88.0397 34.5972C88.2188 34.3469 88.4738 34.1457 88.7226 33.9548C89.3377 33.486 89.7615 32.8944 89.9636 32.1469C90.1076 31.6174 89.9695 31.1546 89.5236 30.8599C89.1988 30.6447 88.8146 30.4768 88.4325 30.3953C87.3963 30.1712 86.4323 30.493 85.5451 30.9804C84.7202 31.4336 83.9513 31.9857 83.1673 32.5101C82.584 32.9005 82.4534 32.8436 81.9062 32.4102C81.0582 31.7379 80.1911 31.066 79.2523 30.5386C78.2631 29.9849 77.1386 29.8104 75.9998 29.983C75.2113 30.1018 74.86 30.6656 75.113 31.4189C75.2283 31.7621 75.4606 32.0678 75.6533 32.3822C75.8928 32.7718 76.177 33.1374 76.3741 33.5449C76.4491 33.7006 76.4087 34.0073 76.2958 34.1395C76.0908 34.3813 75.8193 34.2837 75.6351 34.055C75.3113 33.6534 74.9232 33.2777 74.7077 32.8214C74.224 31.7849 73.4852 31.2748 72.5084 31.4067ZM68.2403 25.2658C68.1894 26.6087 68.1192 27.9521 68.0937 29.2955C68.0784 30.0967 68.1376 30.1068 68.9683 30.1836C70.3905 30.316 71.817 30.4299 73.229 30.6453C73.6908 30.7158 73.9186 30.6941 74.0702 30.2454C74.4233 29.199 75.2556 28.8393 76.2682 28.781C77.8816 28.6903 79.3847 28.9937 80.6743 30.0461C81.117 30.4072 81.5941 30.7286 82.0273 31.1012C82.3396 31.3704 82.6057 31.394 82.9455 31.157C83.3208 30.8948 83.7188 30.663 84.1171 30.4407C85.1908 29.8412 86.2449 29.2006 87.5181 29.0807C89.1971 28.9212 91.5487 29.9607 91.289 32.2655C91.2318 32.7674 91.3745 32.8515 91.8903 32.8229C93.2336 32.748 94.5749 32.6537 95.9187 32.598C96.3629 32.5799 96.5938 32.4359 96.6795 31.9794C97.0645 29.9252 97.4479 27.8708 97.884 25.8271C98.2424 24.1502 98.6262 22.4736 99.0893 20.8227C99.475 19.4462 99.9848 18.1048 100.457 16.7516C100.586 16.3795 100.646 16.0485 100.383 15.7018C99.5345 14.5846 98.6977 13.4644 97.6003 12.5621C96.0832 11.3162 94.4149 10.3486 92.6047 9.59343C90.3644 8.65748 88.0268 8.4043 85.6342 8.47009C83.7539 8.52114 81.9722 9.07722 80.18 9.57282C79.1494 9.85806 78.1926 10.3196 77.3274 10.944C76.7249 11.3795 76.1788 11.8899 75.5922 12.3484C74.3671 13.3058 73.268 14.4086 72.3367 15.6309C70.1693 18.4818 68.7811 21.6923 68.2403 25.2658ZM37.4756 94.4907C37.8443 94.5432 38.2131 94.5957 38.5818 94.6482C38.6662 94.6602 38.7526 94.6693 38.838 94.6735C39.4971 94.7132 39.5737 94.646 39.7115 94.0248C40.139 92.0978 40.5852 90.1735 41.0001 88.2447C41.0563 87.9849 41.0635 87.6432 40.9377 87.4292C40.4903 86.6641 39.9769 85.9374 39.486 85.198C39.2629 84.8618 39.0006 84.8675 38.6818 85.0803C38.2059 85.3999 37.7132 85.6916 37.2322 86.0025C36.5829 86.4201 35.9425 86.8534 35.2852 87.2603C35.035 87.416 34.749 87.4996 34.5145 87.2096C34.2717 86.9104 34.3062 86.5901 34.6203 86.3096C34.7684 86.1761 34.9387 86.0664 35.106 85.9548C36.0356 85.3379 36.9676 84.7262 37.8973 84.1078C38.3444 83.8112 38.3596 83.7384 38.0309 83.3042C37.8243 83.0309 37.6135 82.7538 37.3668 82.5162C36.4828 81.6602 35.5854 80.8199 34.69 79.9766C34.4313 79.7341 34.3066 79.4789 34.5477 79.1513C34.7868 78.8267 35.0703 78.7619 35.4322 79.0302C35.8675 79.3536 36.2917 79.6994 36.6832 80.074C38.4042 81.7234 39.9767 83.4984 41.254 85.5215C41.3268 85.6371 41.4416 85.7268 41.5372 85.828C41.6215 85.695 41.7442 85.5722 41.7856 85.4267C42.2496 83.803 42.7091 82.1771 43.1547 80.5476C43.3279 79.9139 43.4939 79.2744 43.6099 78.6277C43.7307 77.9579 43.6535 77.8624 43.0034 77.6136C41.6822 77.1083 40.3302 76.785 38.8987 76.8075C35.0371 76.8681 32.037 78.4128 30.1512 81.8601C28.4983 84.8815 29.1525 88.4817 30.9977 90.8486C32.6255 92.9408 34.7994 94.1972 37.4756 94.4907ZM114.351 100.315C114.202 101.361 114.111 102.098 113.988 102.829C113.877 103.496 113.9 103.537 114.539 103.73C116.467 104.316 118.381 104.188 120.291 103.644C123.246 102.802 125.249 100.877 126.177 98.0104C127.361 94.3547 126.209 91.181 123.447 88.6962C121.289 86.7549 118.639 85.8627 115.672 86.1479C114.786 86.2322 114.736 86.2108 114.722 87.0759C114.69 88.8759 114.705 90.6777 114.719 92.4779C114.722 92.837 114.689 93.3823 114.887 93.5125C115.271 93.7632 115.586 93.2837 115.894 93.0628C117.545 91.8745 119.253 90.7786 121.053 89.8299C121.279 89.7106 121.525 89.5543 121.762 89.553C121.974 89.553 122.262 89.6943 122.374 89.8666C122.458 89.9949 122.381 90.325 122.26 90.4672C122.082 90.6762 121.807 90.8076 121.563 90.9545C120.365 91.6782 119.149 92.3755 117.968 93.1255C117.171 93.6305 117.158 93.7769 117.736 94.5415C118.375 95.3865 119.053 96.2003 119.711 97.0321C119.852 97.2117 120.031 97.387 120.094 97.5937C120.152 97.7836 120.153 98.0882 120.039 98.2059C119.931 98.318 119.584 98.3436 119.439 98.2528C119.083 98.0267 118.736 97.7494 118.47 97.4246C117.781 96.5868 117.133 95.7133 116.474 94.8512C116.332 94.6651 116.22 94.4739 115.924 94.5704C115.294 94.7787 114.536 95.7102 114.511 96.3378C114.454 97.766 114.396 99.1925 114.351 100.315ZM104.943 30.561C104.922 30.5596 104.9 30.5581 104.88 30.5552C104.819 30.9802 104.751 31.4056 104.701 31.8321C104.671 32.1004 104.815 32.2117 105.068 32.125C105.284 32.0506 105.498 31.9583 105.693 31.8411C106.799 31.1808 107.938 30.5634 108.997 29.8327C111.905 27.8269 114.616 25.5811 117.031 22.9951C117.874 22.0917 118.648 21.1323 119.144 19.9852C119.37 19.461 119.19 19.2026 118.639 19.2469C118.415 19.2644 118.186 19.3305 117.974 19.4136C117.175 19.7303 116.368 20.0297 115.593 20.3961C113.566 21.3571 111.715 22.6192 109.922 23.9484C108.452 25.0366 107.081 26.2569 105.662 27.413C105.229 27.7658 105.05 28.1994 105.059 28.7633C105.067 29.3639 104.985 29.9628 104.943 30.561ZM110.505 14.5146C110.528 14.0316 110.606 13.5421 110.557 13.0666C110.493 12.439 110.162 12.2483 109.611 12.5476C109.089 12.8288 108.596 13.1891 108.156 13.587C106.43 15.1474 105.285 17.1316 104.226 19.1631C104.081 19.4405 104.005 19.8506 104.095 20.1391C104.522 21.5086 104.824 22.9003 104.996 24.3228C105.011 24.4413 105.12 24.5493 105.185 24.6622C105.266 24.5892 105.365 24.53 105.422 24.4425C106.566 22.6319 107.744 20.8405 108.834 18.9983C109.65 17.6144 110.229 16.1188 110.505 14.5146ZM97.8382 31.2868C97.806 31.5133 97.7382 31.7428 97.7526 31.9664C97.7634 32.1369 97.8771 32.3014 97.9457 32.469C98.1088 32.3423 98.3051 32.2396 98.4236 32.0795C98.5166 31.9525 98.5207 31.7554 98.5512 31.586C98.6472 31.08 98.7124 30.5664 98.8313 30.0668C99.6037 26.826 100.666 23.6791 102.09 20.6714C102.56 19.6798 102.351 18.9153 101.823 18.1116C101.741 17.9851 101.581 17.9097 101.457 17.8106C101.392 17.9321 101.315 18.0471 101.265 18.1739C99.6125 22.41 98.7116 26.8441 97.8382 31.2868ZM100.04 30.5339C99.9775 30.7832 99.9087 31.0317 99.8554 31.2823C99.83 31.4046 99.837 31.5347 99.8301 31.6613C99.9136 31.5903 100.013 31.5327 100.08 31.4483C101.255 29.9736 102.447 28.5125 103.579 27.0064C103.815 26.6925 103.965 26.1974 103.922 25.8117C103.774 24.5106 103.524 23.222 103.301 21.931C103.28 21.81 103.171 21.7021 103.103 21.5887C103.02 21.6981 102.909 21.7955 102.858 21.9174C101.694 24.7167 100.698 27.5701 100.04 30.5339ZM103.583 30.8966C103.641 30.4888 103.692 30.1787 103.725 29.8678C103.732 29.7986 103.674 29.7219 103.646 29.6494C103.573 29.6804 103.476 29.6921 103.431 29.7479C102.923 30.361 102.403 30.9676 101.931 31.6081C101.704 31.9138 101.571 32.2901 101.396 32.6335C101.812 32.7119 102.225 32.801 102.643 32.8653C102.946 32.9116 103.119 32.7577 103.19 32.4586C103.322 31.905 103.467 31.3535 103.583 30.8966Z" fill="#462683"/>
<path d="M229.603 52.5233C229.323 54.2433 228.729 55.8563 228.067 57.4455C227.902 57.8444 227.864 58.1801 228.059 58.5873C228.516 59.5403 228.983 60.4947 229.346 61.4853C230.619 64.9711 231.388 68.559 231.62 72.2792C231.766 74.613 231.635 76.9233 231.354 79.2187C231.034 81.8353 230.379 84.3962 229.453 86.8722C228.038 90.6496 226.124 94.1407 223.658 97.3508C222.308 99.1081 220.849 100.759 219.238 102.253C217.754 103.628 216.093 104.815 214.491 106.058C213.749 106.634 212.987 107.194 212.185 107.684C211.213 108.279 210.201 108.811 209.188 109.334C206.177 110.888 203.008 112.035 199.745 112.934C198.285 113.337 196.798 113.565 195.304 113.807C194.263 113.974 193.224 114.161 192.174 114.223C190.238 114.338 188.304 114.587 186.357 114.412C184.911 114.283 183.463 114.171 182.021 114C179.859 113.745 177.734 113.32 175.679 112.574C174.609 112.186 173.516 111.865 172.441 111.49C170.38 110.771 168.412 109.847 166.576 108.67C164.988 107.652 163.418 106.598 161.899 105.482C159.626 103.813 157.693 101.779 155.915 99.599C155.554 99.157 155.212 98.6938 154.917 98.2054C154.593 97.6715 154.148 97.4887 153.549 97.5244C151.862 97.6254 150.175 97.7198 148.486 97.7902C146.084 97.8913 143.681 97.9589 141.278 98.0566C138.789 98.1581 136.302 98.2853 133.814 98.3837C133.389 98.4013 132.955 98.3571 132.534 98.2923C132.165 98.2349 131.92 97.9833 131.847 97.6094C131.776 97.2551 132.061 97.1123 132.294 96.9477C134.724 95.2294 137.136 93.483 139.592 91.8036C142.238 89.9932 144.918 88.2324 147.6 86.475C148.894 85.6263 148.917 85.6504 148.576 84.1527C147.821 80.8347 147.605 77.4787 147.786 74.0866C148.069 68.7374 149.538 63.7179 151.981 58.9727C152.369 58.2213 152.321 58.2432 151.733 57.6955C149.468 55.5907 147.2 53.4904 144.95 51.3702C143.783 50.2716 142.653 49.1334 141.507 48.0106C141.364 47.8707 141.23 47.7208 141.102 47.5655C140.693 47.0673 140.702 46.9697 141.065 46.4491C141.542 45.763 142.128 45.1945 142.737 44.6229C143.78 43.646 144.736 42.5738 145.717 41.5307C146.021 41.2073 146.455 40.869 146.514 40.49C146.569 40.1376 146.203 39.7188 146.022 39.3312C145.517 38.255 145.162 37.1316 145.219 35.9347C145.319 33.8447 146.17 32.1581 148.114 31.2123C149.56 30.5079 151.114 30.4997 152.648 30.8744C153.335 31.0424 153.994 31.3545 154.635 31.6658C155.075 31.8799 155.328 31.6992 155.606 31.4136C156.726 30.2659 157.85 29.1221 158.976 27.9784C159.537 27.4079 160.103 26.8396 160.668 26.2729C161.203 25.737 161.351 25.7198 161.952 26.2534C163.497 27.6211 165.027 29.0026 166.562 30.3801C166.668 30.4749 166.769 30.5771 166.869 30.6806C167.351 31.1812 167.793 31.2489 168.513 30.9593C170.987 29.9646 173.379 30.2575 175.436 32.0026C176.904 33.2493 177.568 34.9412 177.534 36.8827C177.529 37.1403 177.499 37.3959 177.488 37.6541C177.465 38.1387 177.49 38.163 177.946 38.0525C179.224 37.7451 180.49 37.3914 181.779 37.1382C182.983 36.9015 184.206 36.7521 185.425 36.6021C186.389 36.4827 187.358 36.3704 188.328 36.3428C189.813 36.3008 191.301 36.3198 192.788 36.337C194.828 36.3613 196.852 36.6336 198.835 37.0563C199.853 37.273 200.478 36.946 201.237 36.41C204.518 34.0939 208.159 32.7346 212.206 32.6829C214.272 32.6567 216.314 32.9618 218.303 33.5814C220.677 34.3211 222.661 35.6797 224.498 37.3059C226.339 38.9326 227.699 40.9148 228.593 43.1654C229.486 45.4112 229.948 47.7757 229.791 50.221C229.745 50.9892 229.668 51.7561 229.603 52.5233ZM134.351 96.9872C134.608 97.0032 134.866 97.043 135.121 97.0315C138.267 96.8913 141.413 96.7479 144.561 96.5984C147.65 96.4533 150.74 96.3354 153.825 96.1291C154.68 96.0723 155.249 96.3399 155.721 96.9874C155.907 97.2417 156.113 97.4815 156.313 97.7252C157.601 99.3003 158.923 100.844 160.433 102.217C162.728 104.307 165.173 106.2 167.895 107.694C169.675 108.671 171.502 109.556 173.421 110.26C175.035 110.852 176.643 111.433 178.328 111.78C179.586 112.037 180.838 112.345 182.106 112.53C183.63 112.752 185.168 112.905 186.704 113.017C187.757 113.094 188.823 113.104 189.876 113.04C191.872 112.919 193.897 112.895 195.849 112.518C198.536 111.999 201.196 111.295 203.771 110.321C204.546 110.028 205.268 109.622 206.02 109.304C208.264 108.354 210.361 107.16 212.383 105.823C214.317 104.544 216.129 103.103 217.828 101.516C219.422 100.028 220.918 98.4382 222.201 96.6921C223.911 94.366 225.41 91.8982 226.622 89.2524C228.374 85.4258 229.36 81.4104 229.737 77.2509C230.143 72.7878 229.701 68.381 228.335 64.0959C227.943 62.8701 227.457 61.6738 226.98 60.4757C226.791 59.996 226.683 59.9918 226.34 60.3718C226.016 60.7321 225.738 61.1325 225.418 61.4982C224.196 62.8881 222.749 64.029 221.211 65.0215C218.78 66.5898 216.244 68.0108 213.492 68.9356C211.951 69.4528 210.908 70.4647 209.984 71.6913C208.702 73.3961 208.04 75.379 207.472 77.3976C207.27 78.1116 207.169 78.8544 207.004 79.5801C206.848 80.2578 206.634 80.382 205.969 80.2059C205.333 80.0373 204.701 79.8547 204.063 79.6858C201.741 79.0682 199.413 78.4704 197.095 77.8296C196.032 77.5363 195.98 77.3997 196.143 76.3007C196.155 76.2163 196.18 76.1322 196.195 76.0482C196.658 73.503 197.44 71.0559 198.411 68.6611C199.286 66.5013 200.28 64.4081 201.746 62.5779C203.089 60.9025 204.64 59.4846 206.732 58.7735C207.925 58.3679 209.107 57.9288 210.291 57.5013C212.547 56.6875 214.473 55.4075 215.975 53.5124C216.806 52.464 217.26 51.3059 217.283 49.9574C217.324 47.588 215.959 46.0562 213.717 45.4436C212.326 45.0637 210.951 45.3159 209.604 45.8175C207.99 46.4182 206.724 47.4574 205.728 48.822C205.292 49.4183 204.969 50.1007 204.635 50.7658C204.459 51.1154 204.236 51.2286 203.881 51.1239C203.688 51.0677 203.497 51.0071 203.312 50.9329C200.418 49.7588 197.524 48.5911 194.638 47.4021C193.782 47.0507 193.69 46.8256 193.89 45.9454C193.934 45.7508 193.999 45.5593 194.07 45.3733C194.798 43.4525 195.807 41.6991 197.195 40.1752C197.639 39.6885 198.086 39.2037 198.512 38.7C198.772 38.3928 198.729 38.2799 198.322 38.2076C197.511 38.0633 196.697 37.9346 195.88 37.8232C194.972 37.7002 194.062 37.5387 193.15 37.5092C191.041 37.4417 188.936 37.4129 186.824 37.6335C183.593 37.9703 180.422 38.5534 177.337 39.5743C176.824 39.7434 176.812 39.7689 177.223 40.1542C178.768 41.6049 180.325 43.0428 181.87 44.4935C182.424 45.0124 182.44 45.1359 181.914 45.6827C180.228 47.4384 178.532 49.1847 176.825 50.9198C176.273 51.4805 176.272 51.4532 176.637 52.138C177.386 53.5407 177.957 55.0041 177.944 56.6267C177.931 58.1854 177.645 59.6559 176.406 60.7644C175.423 61.6446 174.32 62.318 172.97 62.3378C171.703 62.3551 170.45 62.1575 169.329 61.4958C168.863 61.2206 168.424 60.8949 167.99 60.5701C167.711 60.3598 167.512 60.3634 167.258 60.6285C166.623 61.2889 165.946 61.9066 165.306 62.5615C164.126 63.7708 162.962 64.995 161.788 66.2099C161.268 66.748 161.054 66.724 160.557 66.1176C160.34 65.8524 160.118 65.588 159.869 65.3533C158.181 63.7611 156.486 62.1775 154.794 60.5911C154.44 60.2585 154.093 59.9174 153.729 59.5962C153.379 59.2881 153.238 59.319 153.002 59.7222C152.93 59.8458 152.876 59.98 152.811 60.1079C151.367 62.9614 150.337 65.9615 149.691 69.0895C149.08 72.0457 148.785 75.0307 148.929 78.0578C149.047 80.5311 149.487 82.9498 150.047 85.3506C150.179 85.9145 150.07 86.2641 149.588 86.5797C148.344 87.3955 147.125 88.2502 145.885 89.0748C144.479 90.0094 143.059 90.9231 141.649 91.8542C140.24 92.7853 138.817 93.6986 137.434 94.6685C136.382 95.4066 135.383 96.2192 134.36 96.9981L134.351 96.9872ZM176.305 37.4203C176.284 37.4078 176.262 37.3951 176.241 37.3842C176.254 36.9842 176.28 36.5847 176.272 36.185C176.266 35.8716 176.242 35.5527 176.181 35.2458C175.701 32.8836 173.3 31.2839 170.726 31.571C169.876 31.6667 169.139 32.0368 168.395 32.4027C167.404 32.8913 167.31 32.8811 166.522 32.1217C164.955 30.612 163.392 29.0997 161.826 27.5872C161.421 27.1964 161.349 27.1893 160.998 27.5474C159.519 29.0615 158.035 30.5718 156.566 32.0971C155.406 33.3028 155.363 33.3365 153.873 32.5393C152.538 31.8248 151.132 31.5991 149.643 31.7807C148.16 31.9617 146.869 33.1599 146.55 34.6177C146.129 36.5456 146.499 38.3088 147.584 39.941C148.043 40.6329 148.027 40.715 147.424 41.321C146.291 42.4557 145.158 43.5871 144.034 44.7295C143.512 45.2609 143.022 45.8224 142.5 46.3523C142.187 46.6711 142.206 46.9416 142.538 47.2184C142.823 47.4567 143.115 47.6911 143.385 47.9448C145.989 50.3976 148.589 52.8544 151.191 55.3101C153.378 57.3734 155.568 59.4325 157.749 61.5029C158.808 62.5081 159.835 63.547 160.901 64.5453C161.444 65.0531 161.525 65.0408 162.017 64.5321C163.591 62.9055 165.157 61.2746 166.716 59.6331C167.434 58.8761 167.509 58.89 168.333 59.4808C169.911 60.611 171.57 61.547 173.632 61.1249C174.581 60.9301 175.409 60.5363 175.946 59.6627C176.975 57.9935 176.924 56.2566 176.369 54.4544C176.102 53.5874 175.59 52.8706 175.145 52.1057C174.814 51.5389 174.855 51.3758 175.263 50.9685C176.563 49.679 177.869 48.3969 179.166 47.1038C179.612 46.6588 180.032 46.1877 180.473 45.7389C180.721 45.4872 180.766 45.2594 180.469 45.0193C180.38 44.9477 180.298 44.8674 180.213 44.79C178.712 43.419 177.211 42.0479 175.712 40.6755C175.254 40.2564 175.244 40.0573 175.493 39.4822C175.79 38.8072 176.038 38.1092 176.305 37.4203ZM228.513 51.8196C228.51 50.5965 228.614 49.3616 228.48 48.1533C228.299 46.5127 227.996 44.901 227.273 43.3537C226.508 41.7161 225.797 40.0956 224.464 38.8138C223.664 38.0448 222.963 37.1925 222.011 36.5676C220.511 35.5824 218.898 34.8426 217.203 34.3349C215.239 33.7477 213.181 33.6602 211.16 33.8602C208.4 34.1335 205.802 35.0133 203.4 36.4343C201.147 37.7682 199.274 39.5148 197.742 41.6239C196.78 42.9472 195.968 44.365 195.346 45.8834C195.067 46.5658 195.085 46.5986 195.795 46.8751C196.623 47.1954 197.464 47.4794 198.292 47.7982C199.868 48.4052 201.439 49.0321 203.015 49.6407C203.72 49.9134 203.728 49.9018 204.076 49.2626C204.13 49.1619 204.196 49.0662 204.244 48.963C205.579 46.1259 209.92 43.5176 213.354 44.2538C214.763 44.5564 215.972 45.1366 216.937 46.1381C217.833 47.066 218.617 48.1213 218.357 49.5652C218.352 49.5915 218.365 49.6221 218.369 49.6498C218.616 51.6776 217.873 53.3891 216.523 54.81C214.823 56.5972 212.773 57.893 210.422 58.6915C209.311 59.069 208.204 59.4565 207.118 59.8949C205.528 60.5372 204.167 61.5071 203.035 62.8157C202.222 63.7553 201.543 64.7791 200.967 65.8656C200.232 67.2562 199.486 68.6517 198.909 70.1093C198.311 71.6215 197.899 73.2079 197.425 74.7679C197.283 75.2325 197.186 75.7128 197.117 76.1922C197.03 76.7746 197.103 76.8694 197.666 77.0707C197.854 77.1373 198.053 77.1705 198.249 77.2206C199.606 77.5702 200.963 77.9307 202.324 78.2665C203.408 78.534 204.5 78.7692 205.586 79.0243C205.862 79.0891 206.025 79.0072 206.098 78.729C206.205 78.3139 206.349 77.9056 206.43 77.4851C206.888 75.0842 207.862 72.8923 209.219 70.8826C210.062 69.6348 211.172 68.6548 212.601 68.0611C213.841 67.5475 215.071 67.0021 216.277 66.4103C218.834 65.158 221.197 63.5991 223.351 61.7363C224.02 61.1573 224.69 60.5513 225.23 59.8583C227.068 57.5008 228.066 54.7864 228.513 51.8196Z" fill="#462683"/>
<path d="M12.9717 170.704C13.2757 167.585 14.1716 164.652 15.2802 161.792C17.0675 157.189 19.6033 153.017 22.8605 149.298C24.96 146.901 27.2798 144.727 29.8488 142.84C34.301 139.572 39.1916 137.189 44.5232 135.716C46.5425 135.159 48.5937 134.793 50.6706 134.537C52.6028 134.3 54.5351 134.064 56.482 134.15C58.166 134.224 59.8474 134.361 61.5249 134.525C62.5735 134.628 63.6203 134.8 64.6544 135.004C65.7459 135.22 66.8388 135.46 67.902 135.786C69.373 136.236 70.8545 136.691 72.2635 137.296C73.8076 137.961 75.2911 138.771 76.7707 139.575C77.8478 140.161 78.8795 140.83 79.9241 141.476C81.7366 142.595 83.2985 144.031 84.8632 145.457C87.242 147.626 89.2862 150.096 91.0097 152.803C92.3907 154.972 93.5505 157.271 94.457 159.693C95.8818 163.501 96.7863 167.415 96.9475 171.488C96.9784 172.278 97.0107 172.297 97.7043 172.52C100.537 173.436 103.369 174.351 106.202 175.264C109.555 176.346 112.909 177.424 116.26 178.507C116.45 178.57 116.633 178.653 116.822 178.721C117.072 178.814 117.223 179.001 117.133 179.25C117.065 179.437 116.911 179.676 116.744 179.729C115.519 180.119 114.28 180.468 113.044 180.828C109.773 181.779 106.5 182.73 103.229 183.682C100.838 184.377 98.4515 185.094 96.0492 185.755C95.3641 185.943 94.9991 186.3 94.7731 186.97C93.5935 190.462 91.9612 193.741 89.8934 196.788C88.6243 198.659 87.2009 200.415 85.667 202.086C83.3293 204.632 80.7226 206.851 77.8318 208.736C76.1307 209.846 74.3572 210.826 72.5397 211.745C70.3291 212.862 68.0221 213.703 65.6633 214.383C63.8848 214.895 62.0422 215.195 60.2205 215.551C59.2466 215.74 58.26 215.93 57.2726 215.979C55.5034 216.067 53.7306 216.068 51.9585 216.064C50.9577 216.062 49.9536 216.005 48.9552 215.918C48.1899 215.852 47.4294 215.719 46.6723 215.584C43.8521 215.082 41.0718 214.423 38.3908 213.391C37.6714 213.114 36.8937 212.967 36.2106 212.626C34.0139 211.529 31.8367 210.407 29.7658 209.065C27.0555 207.31 24.7149 205.164 22.5567 202.789C20.9373 201.007 19.4262 199.137 18.2185 197.051C16.9724 194.898 15.8044 192.712 14.9851 190.338C14.5091 188.957 14.0657 187.571 13.6856 186.165C12.9437 183.416 12.6063 180.602 12.5169 177.76C12.4457 175.383 12.5364 173.011 12.9717 170.704ZM47.7455 214.361C47.7471 214.35 47.7484 214.341 47.7484 214.329C48.118 214.365 48.4877 214.411 48.8588 214.435C49.9154 214.504 50.9725 214.615 52.0306 214.617C53.6579 214.619 55.2825 214.607 56.9119 214.448C58.4719 214.296 60.0322 214.142 61.5586 213.811C63.2036 213.454 64.8226 212.965 66.4493 212.524C68.5302 211.96 70.4903 211.08 72.4013 210.109C73.9773 209.307 75.4801 208.358 77.0101 207.465C79.2256 206.169 81.1342 204.475 82.9923 202.733C85.6162 200.271 87.8542 197.484 89.7428 194.42C91.4033 191.726 92.7704 188.899 93.6854 185.865C93.8185 185.423 94.0429 185.201 94.4846 185.089C95.5943 184.807 96.6992 184.504 97.794 184.17C99.7103 183.587 101.614 182.957 103.531 182.379C106.491 181.486 109.46 180.619 112.426 179.74C112.865 179.61 113.308 179.49 113.745 179.353C113.845 179.321 113.93 179.239 114.023 179.179C113.926 179.093 113.84 178.969 113.726 178.929C113.187 178.738 112.639 178.57 112.095 178.389C109.595 177.558 107.097 176.716 104.593 175.894C101.985 175.038 99.3774 174.182 96.7546 173.369C96.0965 173.165 95.8267 172.754 95.7468 172.14C95.6352 171.289 95.5126 170.437 95.4254 169.583C95.199 167.356 94.7237 165.174 94.0722 163.044C93.4137 160.896 92.749 158.735 91.6103 156.769C90.9527 155.632 90.3057 154.49 89.6271 153.366C89.199 152.657 88.7487 151.957 88.2587 151.289C87.5486 150.321 86.8625 149.318 86.0387 148.453C84.8991 147.254 83.6396 146.169 82.4316 145.036C80.9256 143.623 79.2244 142.472 77.5033 141.348C75.1406 139.805 72.5621 138.692 69.9151 137.768C67.5644 136.947 65.1423 136.359 62.6723 135.972C59.1124 135.414 55.5414 135.371 51.9719 135.731C48.5155 136.081 45.1432 136.847 41.8674 138.045C38.2668 139.362 34.8856 141.098 31.7411 143.276C27.9211 145.921 24.6352 149.137 21.8809 152.885C20.198 155.177 18.7222 157.603 17.5429 160.187C16.3404 162.821 15.46 165.567 14.8464 168.409C14.212 171.341 13.9404 174.29 13.9801 177.28C14.0323 181.179 14.6828 184.984 15.9559 188.659C17.236 192.354 19.0103 195.801 21.3866 198.938C23.2611 201.413 25.361 203.649 27.7529 205.625C29.5428 207.104 31.4379 208.428 33.4464 209.581C36.0874 211.095 38.8911 212.239 41.818 213.078C42.8073 213.363 43.7812 213.71 44.7832 213.928C45.7579 214.135 46.7581 214.22 47.7455 214.361Z" fill="#462683"/>
<path d="M0.12884 150.961C0.922669 147.816 1.77561 144.602 3.06987 141.536C4.18174 138.9 5.30678 136.261 6.60082 133.712C7.90622 131.138 9.41992 128.669 10.8559 126.164C13.2739 121.946 16.258 118.14 19.4518 114.496C20.4683 113.336 21.5827 112.26 22.6658 111.158C22.8411 110.979 23.0629 110.799 23.2954 110.733C23.5132 110.67 23.8846 110.671 23.9902 110.802C24.1349 110.984 24.1668 111.331 24.1127 111.577C24.0608 111.807 23.8526 112.015 23.6791 112.203C23.1769 112.752 22.6634 113.291 22.1456 113.826C19.2504 116.817 16.7093 120.098 14.3497 123.515C11.219 128.047 8.6183 132.888 6.28551 137.874C4.24147 142.242 2.70393 146.793 1.54787 151.474C1.4924 151.696 1.45166 151.926 1.36895 152.137C1.20665 152.549 0.895811 152.695 0.480637 152.599C0.0962677 152.511 -0.0181247 152.239 0.0022562 151.895C0.0179748 151.605 0.0772198 151.324 0.12884 150.961Z" fill="#462683"/>
<path d="M14.0351 147.419C14.0859 147.297 14.1657 147.017 14.3116 146.776C15.2724 145.179 16.4019 143.717 17.6608 142.332C19.3636 140.461 21.2543 138.803 23.2094 137.219C24.3176 136.322 25.5238 135.542 26.7008 134.732C27.3124 134.311 27.9546 133.932 28.5911 133.548C28.783 133.432 28.9988 133.338 29.2159 133.28C29.5128 133.199 29.7793 133.242 29.9388 133.566C30.0933 133.88 30.1357 134.187 29.8543 134.428C29.5514 134.686 29.2142 134.904 28.8851 135.133C27.3596 136.196 25.7774 137.187 24.3154 138.33C21.5604 140.482 18.9602 142.812 16.884 145.66C16.3275 146.423 15.8016 147.205 15.2698 147.984C15.0383 148.322 14.7535 148.397 14.379 148.251C14.0546 148.122 13.9429 147.899 14.0351 147.419Z" fill="#462683"/>
<path d="M188.676 137.838C191.552 138.45 194.368 139.173 197.026 140.424C197.879 140.826 198.739 141.21 199.585 141.627C199.836 141.75 200.069 141.935 200.26 142.139C200.353 142.238 200.398 142.48 200.34 142.598C200.283 142.714 200.056 142.833 199.93 142.811C199.512 142.737 199.087 142.64 198.696 142.479C195.947 141.349 193.205 140.198 190.317 139.459C189.377 139.218 188.423 139.033 187.476 138.824C187.336 138.793 187.175 138.806 187.059 138.74C186.901 138.652 186.777 138.505 186.638 138.385C186.778 138.228 186.902 137.958 187.064 137.934C187.595 137.855 188.138 137.863 188.676 137.838Z" fill="#462683"/>
<path d="M170.053 127.182C170.141 127.263 170.408 127.416 170.389 127.507C170.349 127.695 170.19 127.93 170.019 128.002C169.122 128.378 168.212 128.72 167.298 129.05C164.546 130.049 161.911 131.293 159.36 132.72C158.638 133.124 157.946 133.582 157.24 134.017C157.118 134.092 157.003 134.214 156.875 134.231C156.696 134.255 156.435 134.262 156.344 134.159C156.257 134.058 156.266 133.744 156.361 133.637C156.621 133.339 156.916 133.052 157.25 132.848C158.397 132.149 159.548 131.452 160.731 130.816C163.306 129.432 165.985 128.277 168.784 127.418C169.057 127.334 169.333 127.262 169.612 127.199C169.722 127.175 169.841 127.189 170.053 127.182Z" fill="#462683"/>
<path d="M216.382 184.749C216.242 186.484 215.445 187.975 214.612 189.45C214.515 189.621 214.396 189.832 214.233 189.903C214.024 189.994 213.743 190.029 213.524 189.971C213.222 189.891 213.182 189.583 213.271 189.329C213.44 188.845 213.66 188.377 213.853 187.901C214.217 187.001 214.626 186.114 214.923 185.192C215.131 184.546 215.191 183.85 215.312 183.175C215.337 183.035 215.297 182.856 215.372 182.756C215.51 182.569 215.707 182.304 215.885 182.3C216.07 182.296 216.361 182.527 216.428 182.717C216.537 183.027 216.531 183.39 216.52 183.728C216.508 184.071 216.431 184.41 216.382 184.749Z" fill="#462683"/>
<path d="M215.712 165.687C215.621 166.109 215.404 166.249 215.122 166.166C214.884 166.095 214.658 165.943 214.459 165.786C213.113 164.714 211.69 163.761 210.15 162.992C210.048 162.94 209.915 162.896 209.866 162.808C209.776 162.645 209.642 162.404 209.703 162.287C209.789 162.122 210.031 161.954 210.214 161.947C210.488 161.935 210.777 162.037 211.044 162.131C212.765 162.725 214.121 163.858 215.391 165.11C215.559 165.28 215.635 165.544 215.712 165.687Z" fill="#462683"/>
<path d="M141.95 198.004C140.206 197.856 138.428 196.214 138.015 194.402C137.837 193.623 137.891 192.868 138.132 192.117C138.444 191.143 139.325 190.767 140.245 191.233C140.471 191.348 140.704 191.492 140.865 191.68C141.85 192.828 143.067 193.672 144.359 194.43C144.777 194.675 145.192 194.947 145.544 195.276C146.081 195.779 146.089 196.215 145.611 196.772C144.833 197.68 143.801 198.033 142.637 198.06C142.406 198.066 142.178 198.024 141.95 198.004ZM144.178 196.316C144.287 196.253 144.403 196.188 144.519 196.122C144.443 195.99 144.399 195.802 144.284 195.735C142.722 194.827 141.281 193.774 140.077 192.411C139.859 192.165 139.579 191.894 139.197 192.048C138.973 192.139 139.082 192.608 139.507 192.993C140.754 194.121 141.996 195.261 143.519 196.024C143.722 196.125 143.933 196.208 144.178 196.316ZM142.134 196.968C142.056 196.957 142.14 196.979 142.225 196.978C142.332 196.977 142.44 196.958 142.547 196.946C142.484 196.862 142.434 196.761 142.354 196.698C141.708 196.187 141.039 195.703 140.411 195.17C140.002 194.822 139.65 194.405 139.268 194.024C139.21 193.966 139.121 193.941 139.047 193.902C139.03 194.003 138.979 194.112 139.001 194.206C139.291 195.558 140.524 196.687 142.134 196.968Z" fill="#462683"/>
<path d="M162.333 199.314C162.644 199.358 162.969 199.361 163.261 199.462C163.446 199.525 163.69 199.714 163.715 199.876C163.739 200.042 163.557 200.271 163.41 200.419C163.3 200.531 163.102 200.555 162.945 200.624C162.882 200.651 162.825 200.696 162.766 200.732C162.822 200.743 162.877 200.759 162.933 200.765C163.331 200.803 163.732 200.823 164.127 200.88C164.627 200.949 164.674 201.036 164.656 201.585C164.652 201.705 164.706 201.839 164.765 201.951C165.038 202.465 164.981 202.729 164.432 202.924C164.027 203.067 163.754 203.243 163.586 203.669C163.403 204.135 161.948 204.717 161.571 204.41C161.113 204.036 160.813 203.462 160.294 203.114C160.265 203.094 160.257 202.991 160.282 202.951C160.534 202.534 160.27 202.32 159.99 202.07C159.887 201.977 159.809 201.695 159.871 201.605C160.073 201.316 160.076 201.068 159.949 200.752C159.915 200.667 160.079 200.448 160.202 200.365C160.363 200.258 160.573 200.224 160.762 200.163C161.194 200.024 161.194 200.025 160.866 199.722C160.612 199.488 160.658 199.2 160.992 199.171C161.436 199.132 161.889 199.201 162.338 199.224C162.337 199.252 162.336 199.282 162.333 199.314Z" fill="#462683"/>
<path d="M130.381 183.466C130.265 183.8 130.151 184.135 130.035 184.469C129.506 184.422 129.541 183.904 129.357 183.599C129.095 183.166 128.93 182.668 128.772 182.182C128.557 181.512 128.769 181.085 129.447 180.892C129.745 180.807 129.767 180.662 129.802 180.417C129.903 179.685 129.916 179.69 130.671 179.607C130.78 179.595 130.922 179.579 130.984 179.506C131.461 178.941 131.911 179.232 132.32 179.567C132.827 179.982 133.318 180.422 133.767 180.895C133.912 181.049 134.017 181.389 133.943 181.558C133.867 181.732 133.541 181.912 133.342 181.894C132.872 181.852 132.932 182.047 133.067 182.328C133.258 182.72 133.15 183.043 132.864 183.337C132.745 183.458 132.645 183.599 132.531 183.726C131.861 184.482 131.767 184.484 130.954 183.833C130.778 183.692 130.569 183.595 130.374 183.476C130.371 183.474 130.381 183.466 130.381 183.466Z" fill="#462683"/>
<path d="M150.019 185.987C149.764 187.428 148.82 188.239 147.638 188.034C146.577 187.851 145.555 186.574 145.748 185.608C146.003 184.342 147.085 183.41 148.229 183.601C149.478 183.807 150.229 184.804 150.019 185.987Z" fill="#462683"/>
<path d="M137.675 199.609C138.344 200.092 138.969 200.531 139.578 200.989C139.804 201.159 140.004 201.367 140.196 201.576C140.421 201.82 140.415 202.094 140.213 202.35C140.011 202.605 139.757 202.555 139.526 202.409C139.191 202.197 138.865 201.965 138.547 201.727C138.07 201.369 137.594 201.008 137.135 200.627C136.927 200.454 136.793 200.183 137.004 199.955C137.151 199.794 137.41 199.738 137.675 199.609Z" fill="#462683"/>
<path d="M165.278 177.66C170.454 178.453 173.717 182.788 173.135 187.927C172.555 193.038 168.166 196.58 162.942 195.907C158.08 195.28 154.122 190.868 154.877 185.346C155.518 180.667 159.866 176.977 165.278 177.66ZM155.929 185.739C155.249 190.147 158.217 194.143 162.343 194.868C166.985 195.685 171.44 192.739 172.178 188.188C172.945 183.462 169.965 179.438 165.272 178.678C161.183 178.017 156.606 180.737 155.929 185.739Z" fill="#462683"/>
<path d="M142.301 179.301C139.077 178.68 136.635 177.034 135.124 174.03C134.537 172.866 134.22 171.646 134.198 170.399C134.141 167.297 135.319 164.733 137.828 162.813C139.964 161.179 142.402 160.637 144.966 161.099C148.466 161.729 150.92 163.756 152.089 167.199C152.471 168.323 152.656 169.476 152.594 170.66C152.482 172.79 151.71 174.658 150.332 176.287C149.042 177.812 147.398 178.732 145.471 179.167C144.431 179.4 143.372 179.444 142.301 179.301ZM144.615 162.039C140.511 161.509 135.956 164.1 135.284 169.247C134.721 173.557 137.476 177.616 142.133 178.311C146.397 178.947 150.824 176.135 151.57 171.6C152.358 166.805 149.34 162.87 144.615 162.039Z" fill="#462683"/>
<path d="M94.5532 100.711C94.2337 100.95 93.9166 101.195 93.5918 101.428C92.9865 101.862 92.5172 101.697 92.3669 100.951C92.2989 100.611 92.1878 100.653 91.9843 100.783C91.6599 100.99 91.3299 101.214 91.005 100.809C90.7937 100.547 90.9219 100.162 91.3891 99.7913C91.9959 99.3134 92.622 98.8574 93.2662 98.431C93.7606 98.1045 93.9929 98.1185 94.3848 98.568C94.689 98.9174 94.8773 98.8262 95.1531 98.5802C95.5571 98.2169 95.9819 97.8756 96.4051 97.5342C96.7079 97.2888 96.9987 97.2505 97.3242 97.5392C97.6582 97.8354 97.7418 98.1327 97.4976 98.5155C97.0988 99.1442 96.7045 99.7751 96.3118 100.406C96.2248 100.547 96.1541 100.696 96.076 100.841C96.2566 100.805 96.4467 100.791 96.6154 100.725C96.9883 100.581 97.3494 100.407 97.7173 100.253C97.9275 100.164 98.1402 100.07 98.36 100.016C98.6258 99.9515 98.8809 99.9846 99.0132 100.276C99.1537 100.588 99.0757 100.844 98.7758 101.003C98.0433 101.389 97.3044 101.764 96.5667 102.142C95.9562 102.455 95.3406 102.76 94.7348 103.085C94.4139 103.256 94.1568 103.237 93.8806 102.982C93.5919 102.715 93.5994 102.449 93.7711 102.139C94.0333 101.663 94.2896 101.185 94.5474 100.707C94.5492 100.705 94.5532 100.711 94.5532 100.711Z" fill="#462683"/>
<path d="M93.6923 79.9033C92.8539 79.6898 91.8126 79.4013 90.9697 78.6484C89.8665 77.6639 89.8398 76.3402 90.9747 75.4003C93.2391 73.5261 96.6752 74.4714 97.7192 76.6222C98.1849 77.5828 98.079 78.3712 97.2953 79.0949C96.5151 79.8159 95.2411 80.1318 93.6923 79.9033ZM94.177 78.7831C94.755 78.7204 95.3393 78.7366 95.8747 78.5817C96.9717 78.2661 97.1279 77.4945 96.3267 76.6726C95.4364 75.7599 93.6868 75.1617 92.1557 76.0515C91.2277 76.5905 91.164 77.4406 92.1077 77.956C92.7479 78.307 93.4718 78.5073 94.177 78.7831Z" fill="#462683"/>
<path d="M60.5219 95.6836C60.5124 95.3698 60.4901 95.0557 60.4967 94.7411C60.5017 94.5154 60.4996 94.2728 60.5799 94.0674C60.778 93.56 61.3668 93.4669 61.6462 93.9228C62.092 94.6542 62.4834 95.4209 62.8618 96.1889C63.0041 96.477 62.915 96.8118 62.5661 96.8658C62.2093 96.9202 62.1279 97.1334 61.9946 97.3981C61.7203 97.9473 61.3034 98.0872 60.7978 97.7314C60.3369 97.4075 59.9638 96.9607 59.5525 96.5689C59.3842 96.4079 59.3005 96.3912 59.2332 96.6733C59.0227 97.5472 58.6141 97.752 57.8136 97.3734C57.1414 97.0561 56.492 96.691 55.833 96.3485C55.5124 96.1817 55.3485 95.9559 55.5146 95.5842C55.6876 95.1976 55.9872 95.2323 56.3088 95.3355C56.3363 95.3442 56.3613 95.3589 56.3892 95.3644C56.732 95.442 57.0767 95.5181 57.4197 95.5941C57.3296 95.2417 57.2511 94.8862 57.1477 94.5383C57.0582 94.2371 56.9222 93.9499 56.8377 93.6477C56.6781 93.0782 56.7657 92.8213 57.1419 92.6086C57.5803 92.3618 57.8494 92.644 58.0944 92.9276C58.5611 93.4675 58.9968 94.0349 59.4635 94.5748C59.796 94.9601 60.161 95.3181 60.51 95.6883L60.5391 95.7195L60.5219 95.6836Z" fill="#462683"/>
<path d="M66.9013 76.284C66.1633 75.9924 65.3889 75.7657 64.7002 75.3855C64.3011 75.1661 63.9692 74.7426 63.7289 74.3369C63.3639 73.7206 63.5281 72.9374 64.0472 72.4486C66.0509 70.558 69.5556 71.1783 70.6986 72.7677C71.5595 73.9648 71.3269 75.1958 69.9681 75.7929C69.0088 76.2159 67.997 76.3922 66.9013 76.284ZM67.4646 75.1383C68.0591 75.0715 68.6896 75.0434 69.2991 74.9165C69.6901 74.8351 70.0569 74.5988 70.1194 74.1375C70.1779 73.7154 69.8932 73.4533 69.5989 73.2137C68.4426 72.2663 66.8061 72.105 65.4932 72.8171C65.1581 72.999 64.7955 73.2614 64.8765 73.6555C64.936 73.9429 65.2167 74.2778 65.4866 74.4087C66.1009 74.7066 66.7668 74.8891 67.4646 75.1383Z" fill="#462683"/>
<path d="M90.9955 86.5388C91.1858 85.3927 91.458 84.5897 92.0652 83.9413C92.8116 83.1438 93.6823 83.298 94.0584 84.3176C94.1918 84.6794 94.2324 85.0996 94.2167 85.4895C94.1741 86.5834 93.9621 87.6356 93.2579 88.5284C92.9407 88.9312 92.5764 89.2396 92.0295 89.1394C91.4764 89.0383 91.1988 88.6034 91.1129 88.1209C91.0004 87.5119 91.0155 86.8796 90.9955 86.5388Z" fill="#462683"/>
<path d="M67.8102 82.9853C67.6293 83.8076 67.3185 84.5348 66.8211 85.1845C66.5315 85.561 66.1857 85.8736 65.6683 85.7792C65.1601 85.6877 64.8513 85.293 64.7642 84.8406C64.4678 83.2952 64.6254 81.8192 65.6982 80.5659C66.0042 80.2078 66.3929 79.93 66.8992 80.0913C67.3795 80.2442 67.6409 80.6481 67.7029 81.1192C67.7824 81.7363 67.7777 82.3621 67.8102 82.9853Z" fill="#462683"/>
<path d="M78.6772 91.5168C79.664 91.6621 80.5068 92.7179 80.3922 93.6676C80.2502 94.8557 79.1652 95.7134 78.0264 95.5385C77.0202 95.3841 76.1673 94.2089 76.3206 93.1882C76.4728 92.1642 77.6076 91.3597 78.6772 91.5168ZM78.5328 92.4527C78.0937 92.379 77.6622 92.7225 77.5794 93.2144C77.4875 93.7481 77.739 94.1649 78.2035 94.2502C78.693 94.339 79.1363 94.0467 79.2256 93.5764C79.3153 93.0918 78.9671 92.5257 78.5328 92.4527Z" fill="#462683"/>
<path d="M77.3156 103.212C76.2409 103.102 75.1774 102.644 74.2482 101.882C74.0782 101.743 73.8818 101.545 73.852 101.351C73.8184 101.127 73.8966 100.825 74.0443 100.661C74.1353 100.559 74.444 100.641 74.6525 100.666C74.7277 100.675 74.7978 100.754 74.8632 100.809C75.8267 101.611 76.9653 101.922 78.1875 102.037C79.1013 102.124 79.9478 101.978 80.7441 101.513C80.9075 101.418 81.1469 101.293 81.2808 101.348C81.4931 101.436 81.7653 101.652 81.7892 101.842C81.8119 102.019 81.5863 102.315 81.3951 102.415C80.3223 102.975 79.2173 103.447 77.9559 103.249C77.7876 103.221 77.6129 103.228 77.3156 103.212Z" fill="#462683"/>
<path d="M77.0027 107.008C76.6541 106.96 76.3678 106.619 76.4114 106.302C76.4546 105.987 76.7446 105.798 77.1037 105.85C77.5162 105.909 77.7648 106.19 77.6982 106.523C77.6392 106.826 77.317 107.051 77.0027 107.008Z" fill="#462683"/>
<path d="M165.665 82.4765C165.151 82.4687 164.638 82.4451 164.125 82.4549C163.035 82.475 162.787 82.2834 162.408 81.2922C161.643 79.2863 160.84 77.294 160.063 75.2913C159.908 74.8929 159.767 74.4823 159.685 74.0641C159.565 73.4509 159.685 73.2352 160.28 73.006C162.205 72.2661 164.135 71.5415 166.066 70.8217C166.924 70.5024 167.793 70.2117 168.655 69.9008C169.518 69.5902 169.651 69.6122 170.133 70.3791C170.58 71.0916 171.11 71.7042 171.793 72.2081C174.532 74.2256 178.086 73.2907 179.533 69.8462C179.921 68.9212 179.968 67.957 179.847 66.977C179.751 66.1901 179.856 65.9517 180.603 65.6786C182.108 65.1278 183.625 64.6073 185.138 64.0784C185.948 63.7952 186.76 63.5154 187.572 63.2374C188.648 62.8694 189.122 63.0834 189.572 64.1661C189.9 64.959 190.213 65.7607 190.516 66.5643C191.546 69.295 192.564 72.032 193.597 74.7615C194.488 77.1169 195.402 79.4644 196.285 81.8236C196.442 82.2429 196.648 82.3693 197.053 82.1768C197.207 82.103 197.38 82.0719 197.537 82.0018C199.071 81.3244 200.535 81.6094 202.006 82.254C203.634 82.9673 204.841 84.1068 205.512 85.7311C206.795 88.8406 205.442 92.5598 202.062 93.8957C201.337 94.1815 200.497 94.2133 199.703 94.2724C199.181 94.3112 198.701 94.4119 198.21 94.5938C195.579 95.5709 192.94 96.5247 190.3 97.4766C188.307 98.1955 186.311 98.9028 184.314 99.6082C182.211 100.351 180.105 101.089 177.998 101.824C176.109 102.483 174.222 103.14 172.328 103.782C171.559 104.042 171.244 103.883 170.935 103.133C170.761 102.709 170.612 102.277 170.443 101.851C169.822 100.282 169.192 98.7157 168.577 97.1425C168.243 96.2899 167.936 95.4251 167.611 94.5691C167.427 94.0838 167.525 93.763 167.966 93.4001C169.686 91.9873 170.644 90.1614 170.703 87.9029C170.74 86.4448 170.2 85.2187 169.147 84.2413C168.168 83.3287 167.046 82.6525 165.665 82.4765ZM180.968 69.0368C180.83 70.1394 180.302 71.0701 179.668 71.9171C178.723 73.179 177.439 73.9159 175.853 74.1395C173.455 74.4787 171.452 73.8029 169.866 71.9496C169.737 71.7972 169.593 71.654 169.481 71.4898C169.267 71.1741 169.008 71.1356 168.662 71.2616C167.963 71.5143 167.251 71.7334 166.548 71.9776C164.871 72.5598 163.195 73.1468 161.521 73.739C160.92 73.9515 160.87 74.0257 161.059 74.5132C161.855 76.5682 162.667 78.6158 163.456 80.6731C163.6 81.0506 163.825 81.2516 164.22 81.2155C165.157 81.1305 166.038 81.358 166.911 81.6513C169.553 82.5344 171.232 84.3437 171.769 87.0521C172.246 89.4474 171.498 91.5758 169.849 93.3765C168.75 93.9741 168.84 94.7521 169.293 95.7921C170.183 97.8366 170.913 99.9492 171.72 102.03C172.007 102.767 172.141 102.799 172.882 102.514C174.482 101.897 176.087 101.287 177.696 100.689C180.137 99.7817 182.579 98.8765 185.025 97.9878C188.792 96.6193 192.567 95.2647 196.335 93.8996C196.486 93.8446 196.617 93.7341 196.757 93.6488C196.625 93.5392 196.502 93.4212 196.363 93.3249C195.248 92.554 194.166 91.7544 193.769 90.3556C193.669 90.0001 193.541 89.652 193.459 89.2927C192.97 87.1619 193.413 85.2579 194.93 83.6615C195.271 83.302 195.42 82.9868 195.201 82.5284C195.128 82.3745 195.103 82.1988 195.043 82.0388C194.015 79.3052 192.982 76.5741 191.954 73.8405C191.208 71.858 190.469 69.8733 189.724 67.8893C189.332 66.8452 188.929 65.8042 188.542 64.756C188.398 64.3673 188.197 64.2031 187.766 64.376C187.024 64.6737 186.265 64.9387 185.512 65.2109C184.166 65.6982 182.823 66.1957 181.469 66.6612C181.033 66.8111 180.909 67.058 180.947 67.497C180.994 68.0058 180.965 68.523 180.968 69.0368ZM204.47 88.7455C204.963 85.8251 202.803 83.3256 200.709 83.0402C197.444 82.5944 195.177 84.594 194.633 87.4801C194.15 90.0432 196.299 92.5649 198.508 92.9322C201.267 93.3888 204.064 91.4215 204.47 88.7455Z" fill="#462683"/>
<path d="M81.9754 164.681C81.7103 165.77 80.7497 166.885 79.1876 167.477C78.9736 167.558 78.757 167.647 78.5342 167.688C78.1903 167.753 78.0793 167.939 78.0658 168.28C77.9571 171.226 77.8403 174.173 77.7126 177.118C77.5918 179.892 77.4392 182.665 77.3248 185.439C77.2027 188.412 77.1152 191.388 76.9978 194.362C76.9616 195.277 76.9015 196.191 76.8133 197.101C76.7309 197.96 76.5508 198.06 75.6353 198.008C74.7782 197.959 73.9191 197.958 73.0614 197.925C69.9146 197.802 66.769 197.683 63.6226 197.546C62.0511 197.476 60.4811 197.363 58.9099 197.281C56.8225 197.173 54.7332 197.08 52.6455 196.976C50.8727 196.887 49.1009 196.791 47.3288 196.698C47.1279 196.687 46.9282 196.679 46.7277 196.665C46.2735 196.631 45.9957 196.813 45.7955 197.245C45.5696 197.734 45.292 198.218 44.9493 198.631C43.77 200.051 42.2544 200.775 40.4009 200.47C39.2204 200.275 38.1604 199.714 37.4712 198.688C37.0464 198.056 36.7269 197.344 36.4189 196.641C36.2745 196.312 36.1106 196.108 35.7502 196.087C35.0355 196.046 34.3213 195.99 33.6059 195.965C32.2623 195.919 30.9178 195.89 29.5724 195.856C28.8863 195.838 28.7187 195.706 28.7152 194.98C28.709 194.095 28.7588 193.207 28.7991 192.32C28.8992 190.117 28.9975 187.915 29.1164 185.715C29.2101 183.972 29.3432 182.231 29.4431 180.488C29.5549 178.516 29.6558 176.543 29.7487 174.57C29.8849 171.71 30.0053 168.85 30.1399 165.99C30.3095 162.415 30.4854 158.841 30.663 155.265C30.7522 153.463 30.846 151.663 30.943 149.862C30.9538 149.663 30.9794 149.461 31.0322 149.269C31.2047 148.64 31.4798 148.432 32.1621 148.466C33.8762 148.552 35.5901 148.662 37.3056 148.75C37.7884 148.774 38.2776 148.787 38.7583 148.747C39.2408 148.706 39.5271 148.89 39.6558 149.34C39.7493 149.669 39.8684 149.997 39.9129 150.333C40.0132 151.073 40.3534 151.695 40.8092 152.256C41.5484 153.166 42.5793 153.348 43.6616 152.901C44.8218 152.422 45.4164 151.482 45.9065 150.425C46.003 150.217 46.0786 150 46.1448 149.781C46.2856 149.318 46.615 149.166 47.0649 149.185C49.4948 149.294 51.9261 149.404 54.3566 149.508C55.5862 149.56 56.8147 149.598 58.0438 149.642C58.9017 149.674 59.7612 149.683 60.6167 149.743C61.0524 149.773 61.3095 149.624 61.4957 149.235C61.8192 148.564 62.1997 147.94 62.7349 147.395C65.0073 145.072 68.9334 145.733 70.4657 148.451C70.686 148.841 70.8105 149.299 70.9118 149.74C70.9963 150.11 71.1497 150.264 71.5389 150.284C73.4524 150.381 75.3643 150.556 77.2788 150.601C78.3084 150.625 78.7399 150.752 78.7032 152.084C78.6555 153.829 78.6141 155.575 78.5348 157.319C78.5009 158.049 78.6712 158.532 79.4298 158.847C81.3549 159.646 82.4615 162.219 81.9754 164.681ZM64.0524 178.173C65.4916 178.377 66.6702 178.171 67.7074 177.358C68.4236 176.795 68.9716 176.092 69.2788 175.245C69.5069 174.617 69.9154 174.412 70.5238 174.45C70.7245 174.462 70.9238 174.473 71.1243 174.487C72.6969 174.593 74.2675 174.702 75.8413 174.8C76.3437 174.832 76.4452 174.746 76.4619 174.226C76.5324 172.052 76.5981 169.877 76.6434 167.701C76.6589 166.932 76.7521 166.781 77.5752 166.677C79.4043 166.448 80.8616 165.002 81.0916 163.297C81.2144 162.39 81.0259 161.609 80.394 160.92C79.7591 160.229 79.0251 159.719 78.1291 159.429C77.2192 159.135 77.1236 158.978 77.1643 157.999C77.24 156.168 77.3251 154.339 77.404 152.509C77.4325 151.861 77.361 151.781 76.701 151.725C76.5593 151.713 76.4147 151.721 76.2718 151.717C74.526 151.663 72.7798 151.612 71.0333 151.551C70.3466 151.527 70.099 151.362 70.0815 150.713C70.0581 149.758 69.5687 149.03 69.0689 148.297C68.3476 147.239 67.0225 146.727 65.7444 147.06C65.0426 147.242 64.3968 147.534 63.8395 148.011C63.1041 148.641 62.5909 149.413 62.2726 150.327C62.0158 151.067 61.9156 151.11 61.1554 151.075C59.4958 150.998 57.8366 150.93 56.1774 150.861C55.5846 150.837 55.5393 150.864 55.5018 151.463C55.4497 152.321 55.4405 153.18 55.3916 154.039C55.2428 156.696 55.0732 159.353 54.9353 162.012C54.8127 164.384 54.7218 166.757 54.6151 169.13C54.5629 170.302 54.4996 171.474 54.4553 172.648C54.4292 173.323 54.4931 173.401 55.1417 173.458C55.9117 173.524 56.6829 173.561 57.4538 173.61C58.1694 173.656 58.8836 173.712 59.5987 173.75C60.1808 173.782 60.5641 174.023 60.7115 174.622C60.8063 175.009 60.9305 175.401 61.1182 175.752C61.7945 177.013 62.673 178.031 64.0524 178.173ZM31.0662 174.553C31.0402 174.859 30.9899 175.257 30.9729 175.656C30.8665 178.228 30.7902 180.801 30.6585 183.371C30.5041 186.37 30.3038 189.366 30.1226 192.362C30.0876 192.933 30.0524 193.505 30.0189 194.075C29.9976 194.437 30.0937 194.692 30.5243 194.702C31.2106 194.719 31.8955 194.756 32.5807 194.78C33.8384 194.825 35.0977 194.859 36.3554 194.916C37.0888 194.948 37.2406 195.147 37.4139 195.889C37.5568 196.497 37.727 197.116 38.0033 197.672C38.9013 199.471 41.179 200.021 42.8401 198.901C43.8488 198.221 44.5716 197.343 44.9547 196.175C45.2135 195.388 45.3282 195.355 46.1417 195.396C47.8559 195.482 49.5713 195.559 51.287 195.634C51.9461 195.663 51.9981 195.611 52.0866 194.934C52.1011 194.821 52.1111 194.706 52.1161 194.592C52.1811 193.05 52.2572 191.508 52.3 189.965C52.3117 189.559 52.4232 189.324 52.8452 189.238C53.2359 189.158 53.6079 188.997 53.9969 188.907C55.7454 188.506 57.0592 186.209 56.2347 184.13C55.8091 183.055 55.0166 182.306 53.9467 181.95C53.1143 181.672 52.8148 181.178 52.8566 180.358C52.9007 179.501 52.9097 178.643 52.941 177.785C52.9716 176.898 53.0051 176.013 53.0436 175.128C53.0624 174.705 52.8589 174.488 52.4487 174.447C52.2208 174.424 51.9936 174.396 51.7642 174.384C49.9362 174.291 48.1091 174.203 46.2825 174.112C45.7886 174.088 45.6647 173.951 45.5671 173.449C45.468 172.947 45.408 172.418 45.1973 171.96C44.7259 170.938 44.0495 170.069 42.8139 169.981C41.4096 169.88 40.1228 170.206 39.2029 171.371C38.7809 171.906 38.389 172.475 38.0661 173.075C37.8709 173.437 37.6603 173.584 37.2675 173.555C35.698 173.439 34.1291 173.329 32.5589 173.228C31.2146 173.141 31.2137 173.148 31.0662 174.553ZM47.7241 173.112C47.7252 173.105 47.7266 173.095 47.7277 173.087C49.0421 173.171 50.3551 173.264 51.6697 173.335C53.1774 173.416 53.1741 173.406 53.2568 171.839C53.3589 169.925 53.4734 168.012 53.577 166.098C53.647 164.812 53.7198 163.528 53.774 162.241C53.8376 160.698 53.8679 159.153 53.9395 157.609C54.0366 155.55 54.1607 153.492 54.2718 151.436C54.3037 150.854 54.2479 150.787 53.6963 150.708C53.5541 150.688 53.4115 150.682 53.2676 150.674C51.4682 150.582 49.6686 150.503 47.8714 150.395C47.413 150.368 47.118 150.458 46.9608 150.946C46.6169 152.018 45.9645 152.872 44.9878 153.45C43.0796 154.581 41.2902 154.363 39.7861 152.802C39.1835 152.176 38.8827 151.411 38.7123 150.593C38.6148 150.124 38.4189 149.91 37.9208 149.893C36.32 149.839 34.7191 149.742 33.1188 149.673C32.6039 149.651 32.5115 149.74 32.4796 150.244C32.4271 151.072 32.3982 151.901 32.3506 152.728C32.2064 155.185 32.0543 157.64 31.9117 160.097C31.7934 162.126 31.6847 164.154 31.5711 166.183C31.471 167.983 31.3821 169.783 31.2615 171.581C31.2313 172.028 31.3785 172.215 31.818 172.229C32.5322 172.251 33.2462 172.297 33.9604 172.331C34.8172 172.37 35.6763 172.393 36.5325 172.448C37.0601 172.482 37.4182 172.295 37.593 171.785C37.6291 171.676 37.6835 171.574 37.7408 171.474C39 169.304 41.447 168.206 43.9903 169.466C45.186 170.059 45.9729 171.003 46.3899 172.239C46.5672 172.763 46.7731 173.119 47.3824 173.072C47.4958 173.059 47.6101 173.096 47.7241 173.112ZM59.0508 174.855C57.5715 174.776 56.3426 174.697 55.1132 174.654C54.4597 174.631 54.4242 174.656 54.3808 175.286C54.2637 176.971 54.1845 178.657 54.0768 180.343C54.0531 180.711 54.182 180.947 54.5215 181.082C54.6813 181.146 54.8318 181.231 54.9916 181.295C57.0752 182.134 58.0373 185.027 57.2662 186.972C56.7436 188.291 55.8214 189.26 54.4715 189.694C53.7815 189.916 53.5969 190.317 53.5679 190.946C53.5071 192.29 53.4196 193.633 53.3494 194.976C53.3125 195.706 53.4114 195.795 54.1729 195.821C55.1454 195.854 56.1183 195.895 57.0905 195.941C59.2646 196.044 61.4396 196.14 63.6113 196.259C66.0124 196.391 68.412 196.544 70.8113 196.688C72.2119 196.771 73.6138 196.845 75.013 196.938C75.4187 196.965 75.5816 196.818 75.5906 196.408C75.6138 195.405 75.6687 194.404 75.7062 193.402C75.8044 190.798 75.8896 188.196 75.9974 185.592C76.1212 182.618 76.2675 179.643 76.3978 176.668C76.4283 175.973 76.3937 175.925 75.7134 175.877C74.0861 175.763 72.457 175.673 70.8299 175.569C70.446 175.545 70.1907 175.703 69.9802 176.028C69.6387 176.557 69.3087 177.106 68.8806 177.56C67.6302 178.885 66.0299 179.432 64.2746 179.075C62.3441 178.684 60.7766 177.657 60.0167 175.717C59.7863 175.13 59.4374 174.816 59.0508 174.855Z" fill="#462683"/>
<path d="M166.677 185.193C166.506 185.529 166.24 186.092 165.939 186.638C165.464 187.501 164.84 188.243 163.994 188.766C163.732 188.928 163.441 189.076 163.143 189.145C162.386 189.323 161.728 188.904 161.656 188.133C161.615 187.702 161.667 187.171 161.893 186.825C162.513 185.874 163.233 184.983 163.946 184.097C164.136 183.861 164.431 183.7 164.7 183.541C165.19 183.25 165.717 183.099 166.232 183.462C166.74 183.822 166.767 184.369 166.677 185.193Z" fill="#462683"/>
<path d="M146.131 169.293C145.942 169.645 145.676 170.18 145.378 170.697C144.887 171.548 144.308 172.332 143.439 172.837C143.173 172.993 142.873 173.138 142.574 173.181C141.744 173.302 141.18 172.801 141.185 171.962C141.188 171.653 141.206 171.31 141.342 171.044C141.967 169.805 142.748 168.68 143.905 167.865C143.976 167.816 144.049 167.771 144.121 167.724C144.61 167.412 145.127 167.243 145.643 167.615C146.139 167.973 146.215 168.511 146.131 169.293Z" fill="#462683"/>
</svg>
