<svg width="203" height="239" viewBox="0 0 203 239" fill="none" xmlns="http://www.w3.org/2000/svg">
<path d="M90.2347 232.958C89.4295 233.377 88.6501 233.864 87.8108 234.197C87.0773 234.489 86.2856 234.696 85.5022 234.787C83.2043 235.054 81.2449 233.652 80.7917 231.395C80.7022 230.947 80.6075 230.501 80.5188 230.053C80.4284 229.599 80.4055 229.589 79.9701 229.795C79.3004 230.111 78.6477 230.474 77.9552 230.728C76.4504 231.28 74.9371 231.369 73.5164 230.476C72.7084 229.968 72.0298 229.295 71.7486 228.353C71.4976 227.51 71.3176 226.643 71.1461 225.778C71.0386 225.239 71.0496 225.22 70.6084 225.504C69.9381 225.936 69.2999 226.433 68.5903 226.787C67.9889 227.087 67.3191 227.316 66.6551 227.414C64.9886 227.663 63.0313 226.573 62.4578 224.631C62.0719 223.325 61.9747 222.001 62.0045 220.655C62.0215 219.89 61.9452 219.767 61.2608 219.513C59.9522 219.027 58.6421 218.545 57.3326 218.063C57.2256 218.024 57.117 217.986 57.0081 217.953C56.4392 217.782 56.3194 217.853 56.2311 218.463C56.1694 218.885 56.1444 219.313 56.0947 219.737C56.0291 220.304 55.9716 220.871 55.8813 221.435C55.7723 222.113 55.5583 222.275 54.89 222.127C53.2208 221.759 51.5566 221.368 49.894 220.973C48.178 220.567 46.464 220.151 44.7515 219.726C42.9569 219.281 41.168 218.813 39.3729 218.37C37.6307 217.94 35.8839 217.524 34.1378 217.11C32.3642 216.688 30.5855 216.285 28.8134 215.859C26.6802 215.347 24.5494 214.823 22.4203 214.296C19.9586 213.686 17.5005 213.059 15.0371 212.457C13.8487 212.166 12.6464 211.936 11.4587 211.645C9.68983 211.211 7.93165 210.735 6.16322 210.299C4.97505 210.006 3.77766 209.75 2.58395 209.476C2.00165 209.343 1.41893 209.212 0.837034 209.077C0.436144 208.983 0.226492 208.759 0.151731 208.321C-0.0700386 207.014 -0.00817215 205.701 0.0830139 204.399C0.296934 201.351 0.81292 198.342 1.42553 195.351C1.93578 192.866 2.44935 190.38 3.04668 187.915C3.62456 185.532 4.26768 183.164 4.96008 180.812C5.86994 177.722 6.80827 174.64 7.82664 171.584C8.56497 169.368 9.43447 167.196 10.2776 165.016C10.8432 163.554 11.4499 162.108 12.0656 160.666C12.5467 159.54 13.0505 158.423 13.5768 157.318C15.2185 153.871 16.8455 150.418 18.7848 147.121C20.6494 143.951 22.4939 140.77 24.766 137.866C25.1148 137.42 25.5267 137.017 25.9451 136.633C26.3256 136.283 26.7791 136.201 27.2981 136.36C28.4406 136.71 29.5917 137.031 30.7436 137.349C32.3619 137.795 33.9838 138.231 35.6062 138.662C36.0703 138.786 36.1233 138.74 36.0099 138.286C35.7135 137.096 35.4095 135.908 35.0833 134.726C34.4846 132.556 33.8719 130.39 33.2575 128.225C32.5567 125.757 31.8371 123.295 31.1471 120.824C30.5418 118.656 29.9812 116.476 29.3717 114.31C28.578 111.485 27.7461 108.671 26.9499 105.848C26.5474 104.421 26.1977 102.979 25.8028 101.55C25.0669 98.8843 24.3077 96.2246 23.5716 93.5582C22.8358 90.8927 22.1264 88.2204 21.3858 85.5569C20.5997 82.7283 19.7798 79.9091 18.9937 77.0805C18.2455 74.3907 17.5344 71.6905 16.7837 69.0013C16.0872 66.5051 15.3428 64.0219 14.6502 61.5238C13.9886 59.1335 13.3756 56.73 12.7248 54.337C12.0966 52.0266 11.4288 49.7271 10.8097 47.4144C9.71208 43.3116 8.63352 39.2039 7.55911 35.0952C7.18156 33.6513 7.25697 33.5969 8.65507 33.1991C10.5467 32.6612 12.4218 32.0648 14.3025 31.4908C15.8275 31.0255 17.3547 30.5659 18.8755 30.0876C21.4301 29.2835 23.9777 28.4583 26.5342 27.6582C28.4107 27.0711 30.2965 26.5135 32.1777 25.9376C32.722 25.7714 33.2592 25.5804 33.8036 25.4141C34.1749 25.3005 34.306 25.0686 34.2045 24.6995C33.9468 23.7667 33.7289 22.8203 33.4189 21.9043C33.1222 21.0264 33.3317 20.5917 34.2322 20.3148C36.5731 19.5941 38.9042 18.8423 41.2415 18.1111C42.6015 17.685 43.9676 17.2795 45.3272 16.8552C46.9316 16.3548 48.5317 15.8378 50.1365 15.3391C51.9878 14.7637 53.8458 14.2114 55.6957 13.6311C57.7888 12.9749 59.8706 12.2811 61.9669 11.6374C64.2805 10.928 66.6114 10.2761 68.924 9.56257C70.8033 8.98275 72.6645 8.34569 74.5364 7.74388C75.0517 7.57791 75.58 7.4528 76.0978 7.29325C77.5418 6.85028 78.9832 6.40005 80.4253 5.95314C82.2206 5.39728 84.0089 4.81403 85.8155 4.29593C86.9855 3.9604 87.2769 4.15858 87.6397 5.29348C87.8739 6.02553 88.1131 6.75632 88.352 7.48628C88.5446 8.07519 88.6748 8.17734 89.2986 7.99709C90.6398 7.60845 91.9701 7.18019 93.3025 6.76023C94.9059 6.25567 96.5079 5.74614 98.1083 5.2335C100.577 4.4424 103.042 3.63637 105.515 2.85834C107.146 2.34497 108.791 1.87226 110.428 1.37694C111.382 1.08823 112.33 0.775447 113.289 0.503959C113.611 0.412553 113.972 0.342202 114.294 0.393044C114.963 0.499008 115.524 0.778938 115.742 1.52766C115.964 2.29277 116.274 3.03121 116.519 3.79043C116.931 5.06493 117.313 6.34866 117.723 7.62274C118.437 9.84586 119.164 12.0642 119.883 14.2862C120.252 15.424 120.613 16.5637 120.982 17.7015C121.694 19.8962 122.412 22.0902 123.123 24.2851C123.465 25.3422 123.8 26.402 124.136 27.4606C125.076 30.4189 126.001 33.382 126.958 36.334C127.811 38.9629 128.714 41.5756 129.572 44.2021C130.272 46.3416 130.926 48.497 131.624 50.6369C132.296 52.6953 132.999 54.7427 133.685 56.7965C133.983 57.6874 134.271 58.5815 134.563 59.4747C135.572 62.5621 136.588 65.6469 137.585 68.7375C138.284 70.9079 138.937 73.0936 139.646 75.2609C140.504 77.8874 141.409 80.4995 142.276 83.1239C142.839 84.8282 143.371 86.5429 143.913 88.2543C144.369 89.6942 144.804 91.1401 145.275 92.5753C146.19 95.3643 147.129 98.1442 148.044 100.932C148.523 102.395 148.959 103.87 149.439 105.333C149.997 107.038 150.585 108.733 151.151 110.436C151.762 112.274 152.366 114.116 152.967 115.958C153.245 116.808 153.399 116.854 154.173 116.423C157.211 114.729 160.239 113.018 163.306 111.378C164.812 110.573 166.398 109.922 167.937 109.179C168.407 108.953 168.81 109 169.218 109.288C171.196 110.686 173.125 112.139 174.944 113.748C176.85 115.433 178.598 117.262 180.263 119.173C181.16 120.202 181.999 121.285 182.811 122.383C184.114 124.144 185.448 125.89 186.631 127.731C187.798 129.549 188.849 131.448 189.853 133.364C190.949 135.457 191.968 137.592 192.951 139.741C193.708 141.398 194.382 143.095 195.049 144.792C195.559 146.092 196.051 147.402 196.464 148.735C197.24 151.24 198.009 153.75 198.674 156.285C199.283 158.6 199.806 160.941 200.262 163.292C200.646 165.275 200.888 167.287 201.174 169.288C201.383 170.754 201.602 172.221 201.746 173.694C201.947 175.764 202.086 177.841 202.248 179.916C202.317 180.801 202.271 180.843 201.425 181.129C200.804 181.338 200.192 181.574 199.583 181.817C196.38 183.092 193.178 184.369 189.979 185.655C188.921 186.079 187.88 186.542 186.823 186.965C185.261 187.589 183.686 188.175 182.128 188.807C180.28 189.556 178.449 190.348 176.6 191.095C174.859 191.799 173.102 192.462 171.356 193.154C169.396 193.931 167.441 194.719 165.484 195.504C164.691 195.821 163.898 196.142 163.105 196.458C162.746 196.601 162.446 196.597 162.261 196.176C162.108 195.828 161.859 195.759 161.493 195.919C160.134 196.512 158.762 197.073 157.402 197.662C156.644 197.991 156.647 198.009 157.132 198.666C157.913 199.726 158.143 200.873 157.725 202.139C157.432 203.023 156.908 203.696 156.046 204.085C155.786 204.202 155.528 204.323 155.272 204.449C155.198 204.485 155.135 204.544 155.067 204.591C155.152 204.653 155.23 204.728 155.322 204.776C156.305 205.293 157.323 205.749 158.263 206.334C159.132 206.875 159.889 207.557 160.408 208.493C161.844 211.089 160.939 213.508 158.75 215.063C157.213 216.156 155.432 216.576 153.62 216.826C152.501 216.98 151.355 217.098 150.216 216.889C150.148 216.877 150.069 216.918 149.995 216.934C150.034 217.006 150.059 217.089 150.114 217.147C150.884 217.972 151.304 218.928 151.333 220.073C151.361 221.213 150.884 222.138 150.133 222.906C149.228 223.832 148.143 224.532 146.896 224.927C144.955 225.544 142.981 225.94 140.925 225.837C139.275 225.755 137.624 225.72 135.973 225.667C135.716 225.659 135.459 225.654 135.203 225.668C134.613 225.699 134.642 225.701 134.864 226.225C135.129 226.849 135.414 227.488 135.527 228.148C135.784 229.649 135.114 230.838 133.816 231.662C132.225 232.671 130.47 233.069 128.637 233.252C128.07 233.308 127.506 233.388 126.94 233.457C124.78 233.72 122.609 233.64 120.448 233.552C118.458 233.47 116.468 233.264 114.491 233.013C111.438 232.625 108.395 232.161 105.352 231.705C105.028 231.656 104.841 231.697 104.619 231.948C103.793 232.888 102.982 233.85 102.08 234.714C100.309 236.411 98.3186 237.752 95.8514 238.253C94.3982 238.548 93.0657 238.334 91.9103 237.389C91.5692 237.11 91.3046 236.711 91.0798 236.322C90.4777 235.285 90.3575 234.114 90.2286 232.951C90.2264 232.953 90.2347 232.958 90.2347 232.958ZM85.4335 18.9962C85.4127 19.0015 85.3928 19.0065 85.3721 19.0118C85.5749 19.8119 85.7689 20.6151 85.9833 21.4122C86.1898 22.1778 86.0608 22.4251 85.2718 22.6437C84.6397 22.819 83.9955 22.954 83.3686 23.143C81.0485 23.8408 78.7338 24.5566 76.4149 25.2594C73.8245 26.0442 71.2317 26.8235 68.64 27.6034C67.3851 27.9807 66.1284 28.3506 64.8737 28.7288C62.6637 29.3942 60.4567 30.0712 58.2448 30.7292C56.0854 31.3712 53.9203 31.9908 51.7594 32.627C49.6004 33.2636 47.4499 33.9334 45.2825 34.5404C44.3356 34.8052 44.0123 34.5647 43.7343 33.5938C43.6404 33.2652 43.5585 32.9317 43.4887 32.597C43.2553 31.4814 43.0422 30.3624 42.7989 29.2493C42.5853 28.2709 42.4635 28.1808 41.5355 28.4576C39.2979 29.1256 37.0637 29.8069 34.8398 30.5183C32.6144 31.2309 30.4034 31.9867 28.186 32.7238C27.1578 33.0648 26.1293 33.4051 25.1011 33.7462C23.2083 34.3736 21.318 35.011 19.4201 35.6255C18.1459 36.0378 16.8584 36.4084 15.5818 36.8151C14.9346 37.0216 14.8581 37.1832 15.039 37.8201C15.8927 40.8356 16.7523 43.8496 17.6054 46.8662C18.2567 49.1699 18.901 51.4744 19.5497 53.7787C20.0589 55.5885 20.5683 57.399 21.0825 59.2075C21.6204 61.0991 22.1639 62.9885 22.7057 64.8783C23.6957 68.33 24.6948 71.7794 25.6757 75.2335C26.4626 78.0028 27.2281 80.7783 28.002 83.5517C28.1632 84.1283 28.3096 84.7094 28.475 85.2849C29.2868 88.1035 30.1149 90.917 30.9134 93.739C31.3467 95.2703 31.7043 96.8234 32.1451 98.3528C32.7285 100.379 33.3804 102.385 33.9654 104.411C34.6448 106.763 35.2807 109.128 35.942 111.486C36.4584 113.324 36.9946 115.157 37.5052 116.996C38.3585 120.072 39.1977 123.153 40.0444 126.231C40.2933 127.136 40.5416 128.042 40.8046 128.943C41.3631 130.857 41.9381 132.766 42.4925 134.681C43.0229 136.512 43.5649 138.339 44.0414 140.184C44.2411 140.957 44.6878 141.273 45.4283 141.459C47.7217 142.036 49.999 142.674 52.2791 143.302C54.8862 144.022 57.4875 144.761 60.0938 145.484C61.7404 145.941 63.3937 146.372 65.0375 146.839C67.2846 147.477 69.5215 148.151 71.7705 148.782C74.1832 149.459 76.6057 150.106 79.0234 150.768C79.7932 150.979 80.5621 151.193 81.3289 151.417C81.6369 151.506 81.8304 151.656 81.6636 152.04C81.4126 152.618 81.427 152.636 82.0362 152.778C83.2854 153.068 84.5417 153.327 85.787 153.633C87.6403 154.09 89.4812 154.592 91.335 155.048C93.7691 155.646 96.2131 156.203 98.6433 156.814C99.0791 156.923 99.3817 156.862 99.7426 156.61C101.446 155.418 103.153 154.226 104.895 153.093C106.781 151.867 108.685 150.662 110.626 149.527C112.322 148.536 114.083 147.658 115.811 146.721C116.106 146.562 116.5 146.427 116.642 146.168C117.227 145.097 118.118 144.297 118.946 143.445C119.838 142.527 120.775 141.65 121.717 140.78C122.723 139.852 123.729 138.92 124.785 138.052C126.546 136.604 128.339 135.196 130.131 133.785C132.886 131.616 135.619 129.419 138.42 127.31C141.084 125.305 143.824 123.398 146.53 121.449C147.171 120.987 147.195 120.98 146.949 120.184C146.308 118.115 145.655 116.05 144.985 113.992C144.325 111.96 143.628 109.94 142.964 107.909C142.326 105.958 141.715 104 141.082 102.047C140.757 101.045 140.404 100.052 140.072 99.0511C139.428 97.1033 138.787 95.1547 138.152 93.2038C137.756 91.9847 137.385 90.7574 136.983 89.5404C136.376 87.7007 135.746 85.8695 135.139 84.0298C134.524 82.1631 133.931 80.2881 133.317 78.421C132.614 76.2823 131.893 74.15 131.188 72.0118C130.814 70.8746 130.469 69.728 130.093 68.5921C129.18 65.8337 128.254 63.0793 127.339 60.3223C126.971 59.2134 126.62 58.0986 126.255 56.9888C125.588 54.9587 124.912 52.9315 124.248 50.9013C123.849 49.6828 123.469 48.4579 123.075 47.2381C122.338 44.9613 121.596 42.6859 120.859 40.4093C120.543 39.434 120.239 38.4554 119.92 37.4817C119.227 35.3705 118.525 33.2626 117.832 31.1505C117.469 30.0397 117.133 28.9201 116.758 27.8128C115.946 25.4112 115.098 23.0224 114.3 20.6162C113.377 17.8304 112.5 15.0293 111.587 12.2389C111.215 11.102 110.814 9.9732 110.407 8.84779C110.209 8.30168 110.111 8.25155 109.588 8.40259C108.301 8.77402 107.019 9.16516 105.735 9.54468C103.194 10.2959 100.652 11.0491 98.1079 11.7956C95.9195 12.4379 93.7243 13.0572 91.5415 13.7148C90.369 14.0686 89.217 14.4897 88.0512 14.8665C87.1026 15.1733 86.1511 15.4719 85.1932 15.7457C84.7575 15.8703 84.6812 16.099 84.7964 16.5079C85.0284 17.3323 85.2231 18.1663 85.4335 18.9962ZM1.219 207.479C1.36077 207.585 1.52508 207.787 1.73086 207.847C2.41388 208.043 3.11292 208.183 3.80395 208.352C6.15699 208.926 8.50962 209.503 10.8623 210.079C11.7476 210.297 12.6324 210.518 13.5185 210.735C15.177 211.142 16.8339 211.552 18.4944 211.949C20.5171 212.433 22.544 212.899 24.5657 213.386C27.9997 214.214 31.433 215.05 34.8636 215.889C35.8872 216.14 36.9019 216.425 37.9261 216.674C39.3371 217.016 40.7562 217.325 42.1637 217.679C42.5864 217.785 42.7507 217.611 42.827 217.253C42.8687 217.059 42.8888 216.86 42.9074 216.662C43.0437 215.245 43.1204 213.819 43.3236 212.412C43.7608 209.395 44.2955 206.396 44.9696 203.418C45.6675 200.335 46.318 197.243 47.1889 194.202C47.9495 191.548 48.6441 188.873 49.4506 186.233C50.3498 183.292 51.2778 180.358 52.3123 177.463C53.4241 174.355 54.6728 171.295 55.8653 168.215C57.2867 164.544 58.9796 160.996 60.7101 157.464C61.0117 156.849 60.9847 156.788 60.291 156.64C58.5062 156.262 56.7221 155.883 54.9389 155.497C54.2222 155.342 54.1599 155.145 54.5232 154.519C54.7533 154.123 55.0645 154.17 55.4093 154.251C57.1853 154.668 58.9644 155.073 60.7358 155.51C61.596 155.722 61.6001 155.755 62.057 154.962C62.5686 154.075 63.024 153.154 63.565 152.284C64.2256 151.221 64.9556 150.202 65.6412 149.154C65.9792 148.637 65.9184 148.523 65.3062 148.355C63.849 147.959 62.3904 147.567 60.937 147.159C57.9219 146.31 54.9125 145.439 51.8951 144.599C48.1386 143.555 44.3734 142.539 40.6153 141.498C37.7606 140.708 34.9126 139.895 32.0596 139.1C30.5219 138.672 28.9823 138.251 27.4369 137.855C27.2242 137.8 26.8929 137.828 26.748 137.96C26.3728 138.302 26.0386 138.701 25.747 139.119C24.8492 140.403 23.9352 141.679 23.1087 143.007C21.831 145.061 20.5678 147.127 19.3976 149.242C18.3228 151.183 17.3593 153.187 16.3835 155.18C15.4576 157.071 14.5244 158.961 13.6944 160.896C12.6291 163.38 11.6218 165.89 10.6683 168.418C9.49418 171.531 8.35935 174.661 7.28814 177.811C6.60148 179.83 6.0217 181.888 5.46455 183.948C4.18305 188.679 2.94167 193.423 2.20486 198.279C1.94477 199.995 1.71667 201.715 1.49315 203.436C1.38258 204.282 1.29985 205.133 1.23291 205.984C1.19768 206.44 1.22267 206.898 1.219 207.479ZM79.9673 187.594C78.9332 187.749 78.0348 187.909 77.131 188.012C75.6348 188.183 74.1806 188.102 72.8128 187.341C72.1894 186.993 71.6656 186.579 71.3719 185.939C70.627 184.318 70.9181 182.728 71.8085 181.3C73.2332 179.014 75.1171 177.091 77.0209 175.203C78.2944 173.942 79.6225 172.735 80.9452 171.524C82.2048 170.371 83.4687 169.221 84.7668 168.112C85.9809 167.075 87.2375 166.088 88.4847 165.092C90.0651 163.828 91.641 162.557 93.2463 161.325C94.5558 160.32 95.9082 159.369 97.2346 158.385C97.433 158.238 97.5931 158.04 97.7715 157.866C97.544 157.77 97.3249 157.641 97.0878 157.584C95.1801 157.125 93.2665 156.688 91.3587 156.228C89.5863 155.801 87.8177 155.358 86.0486 154.916C85.0811 154.674 84.1182 154.416 83.151 154.175C82.4599 154.003 81.7645 153.846 81.0702 153.685C80.6743 153.594 80.3448 153.667 80.1087 154.042C79.4252 155.126 78.6998 156.184 78.0462 157.286C77.3487 158.461 76.7227 159.677 76.0513 160.869C74.8339 163.028 73.7428 165.25 72.7278 167.51C71.9466 169.251 71.1533 170.985 70.3879 172.732C69.7479 174.193 69.1259 175.663 68.5236 177.141C67.7932 178.935 67.076 180.736 66.384 182.546C65.6106 184.568 64.8241 186.587 64.13 188.637C63.0702 191.765 62.0675 194.914 61.0741 198.065C60.3899 200.237 59.6991 202.411 59.125 204.612C58.4127 207.342 57.8053 210.099 57.1797 212.85C56.9464 213.878 56.7937 214.923 56.597 215.959C56.5233 216.348 56.6087 216.618 57.0239 216.758C57.6176 216.957 58.2002 217.189 58.7857 217.412C59.6906 217.755 60.599 218.087 61.4956 218.45C62.1473 218.714 62.1903 218.698 62.42 217.978C62.8526 216.622 63.1973 215.225 63.7678 213.929C64.3723 212.554 65.1708 211.262 65.9298 209.96C67.0776 207.99 68.613 206.353 70.4004 204.948C71.4499 204.122 72.6195 203.572 73.9433 203.331C75.1659 203.109 76.2641 203.441 77.102 204.262C77.6239 204.773 77.9485 205.542 78.2063 206.252C78.5169 207.104 78.661 208.013 78.5999 208.943C78.5845 209.178 78.7157 209.424 78.7803 209.665C79.0007 209.576 79.2556 209.533 79.4364 209.393C80.6601 208.446 82.039 207.841 83.5552 207.606C85.1409 207.359 86.5407 207.735 87.6123 209.041C88.4294 210.038 88.6851 211.235 88.8855 212.443C89.0779 213.603 89.0308 213.594 90.0001 213.007C91.5237 212.084 93.0978 211.286 94.9411 211.272C95.6596 211.266 96.3358 211.386 96.9901 211.748C98.5454 212.608 99.1689 214.004 99.3912 215.662C99.4365 216.001 99.4537 216.343 99.486 216.683C99.521 217.052 99.7297 217.101 100.022 216.961C100.201 216.875 100.368 216.762 100.545 216.669C101.856 215.982 103.228 215.568 104.731 215.654C105.752 215.712 106.619 216.087 107.294 216.847C107.883 217.511 108.424 218.214 108.627 219.108C108.715 219.497 108.926 219.75 109.314 219.907C110.61 220.432 111.945 220.829 113.305 221.135C115.167 221.552 117.031 221.962 118.907 222.304C121.287 222.738 123.674 223.149 126.07 223.48C128.865 223.866 131.673 224.158 134.475 224.484C135.552 224.61 135.64 224.532 136.114 223.568C136.874 222.024 138.123 220.905 139.751 220.538C142.526 219.914 144.544 220.622 145.978 223.168C146.346 223.823 146.499 223.893 147.189 223.573C148.134 223.137 148.944 222.513 149.622 221.724C150.096 221.173 150.224 220.528 150.136 219.807C149.896 217.826 147.752 216.681 146.421 216.523C145.319 216.393 144.213 216.292 143.108 216.174C140.417 215.888 137.735 215.559 135.084 214.985C133.389 214.618 131.661 214.406 129.955 214.086C128.191 213.755 126.435 213.383 124.677 213.02C123.897 212.858 123.119 212.68 122.342 212.5C120.538 212.085 118.721 211.72 116.936 211.234C114.55 210.583 112.174 209.883 109.823 209.118C108.229 208.6 106.678 207.946 105.12 207.325C104.701 207.157 104.304 206.912 103.934 206.65C103.602 206.415 103.626 205.859 103.951 205.51C104.23 205.209 104.396 205.554 104.599 205.653C105.568 206.129 106.514 206.658 107.507 207.073C108.371 207.433 109.291 207.656 110.179 207.958C112.742 208.829 115.348 209.543 117.98 210.17C120.249 210.71 122.521 211.24 124.798 211.748C126.049 212.027 127.311 212.26 128.57 212.497C131.232 212.998 133.89 213.511 136.558 213.973C138.156 214.25 139.77 214.434 141.374 214.673C141.731 214.727 141.949 214.633 142.145 214.309C142.424 213.848 142.734 213.391 143.105 213.005C144.97 211.064 147.257 210.252 149.924 210.635C151.626 210.879 153.096 211.572 153.956 213.167C154.196 213.61 154.335 214.113 154.484 214.599C154.679 215.238 154.768 215.322 155.376 215.187C156.681 214.897 157.81 214.328 158.78 213.354C160.138 211.989 160.061 210.056 158.961 208.698C158.144 207.689 157.078 206.946 155.894 206.443C154.128 205.693 152.263 205.281 150.347 205.103C148.929 204.972 147.509 204.844 146.099 204.651C143.982 204.361 141.866 204.047 139.761 203.683C137.739 203.333 135.729 202.914 133.717 202.51C132.937 202.354 132.161 202.169 131.391 201.969C130.429 201.72 129.475 201.448 128.518 201.178C126.52 200.612 124.52 200.05 122.527 199.467C121.625 199.204 120.732 198.907 119.845 198.601C118.366 198.09 116.877 197.601 115.424 197.022C113.97 196.443 112.54 195.797 111.131 195.116C110.314 194.722 109.546 194.223 108.783 193.728C108.48 193.531 108.476 192.917 108.73 192.649C109.003 192.36 109.248 192.621 109.496 192.727C109.522 192.738 109.541 192.762 109.564 192.778C111.697 194.249 114.119 195.111 116.505 196.039C117.962 196.607 119.457 197.085 120.952 197.548C123.889 198.456 126.828 199.367 129.789 200.194C131.595 200.699 133.439 201.079 135.276 201.46C137.673 201.958 140.08 202.409 142.486 202.863C143.288 203.013 143.517 202.912 143.801 202.141C144.104 201.317 144.694 200.744 145.333 200.236C147.23 198.726 149.362 198.34 151.694 199.035C153.424 199.55 154.512 200.688 155.039 202.388C155.237 203.029 155.322 203.072 155.86 202.653C156.035 202.516 156.219 202.348 156.308 202.153C156.922 200.811 156.599 199.48 155.46 198.758C154.787 198.332 154.106 197.915 153.397 197.557C152.407 197.057 151.386 196.616 150.379 196.15C148.418 195.241 146.46 194.325 144.495 193.424C142.373 192.452 140.242 191.498 138.118 190.526C135.658 189.4 133.205 188.26 130.745 187.133C129.478 186.553 128.201 185.997 126.934 185.419C123.671 183.925 120.412 182.425 117.152 180.928C114.797 179.847 112.442 178.765 110.088 177.684C108.664 177.03 107.236 176.387 105.822 175.714C105.325 175.477 104.91 175.533 104.464 175.833C103.919 176.198 103.349 176.526 102.776 176.846C99.7904 178.51 96.8349 180.234 93.7991 181.802C91.4466 183.017 89.0167 184.094 86.573 185.116C84.3678 186.037 82.0973 186.802 79.9673 187.594ZM197.098 155.117C196.361 152.865 195.694 150.746 194.974 148.645C194.254 146.544 193.544 144.435 192.716 142.375C191.855 140.234 190.899 138.129 189.91 136.044C189.225 134.604 188.45 133.202 187.648 131.823C186.804 130.372 185.903 128.953 184.984 127.548C184.079 126.166 183.183 124.77 182.173 123.467C181.006 121.962 179.744 120.529 178.476 119.107C177.342 117.835 176.22 116.535 174.953 115.404C173.086 113.736 171.105 112.197 169.144 110.636C168.915 110.453 168.508 110.428 168.19 110.442C167.921 110.455 167.653 110.619 167.395 110.738C164.78 111.945 162.169 113.165 159.695 114.644C156.933 116.296 154.196 117.99 151.467 119.696C149.897 120.677 148.351 121.699 146.82 122.741C145.596 123.574 144.413 124.468 143.209 125.33C141.957 126.225 140.674 127.078 139.454 128.013C136.782 130.058 134.139 132.141 131.49 134.215C130.929 134.654 130.378 135.108 129.845 135.581C129.451 135.931 129.481 136.065 129.954 136.329C130.302 136.523 130.674 136.676 131.006 136.891C132.129 137.617 133.245 138.354 134.349 139.108C134.937 139.51 135.492 139.959 136.064 140.384C136.313 140.569 136.56 140.625 136.848 140.43C137.531 139.968 138.229 139.529 138.92 139.077C140.089 138.313 141.255 137.545 142.423 136.78C142.471 136.749 142.521 136.72 142.573 136.699C143.001 136.521 143.305 136.655 143.561 137.092C143.804 137.509 143.492 137.643 143.229 137.818C141.712 138.829 140.195 139.84 138.68 140.854C137.587 141.586 137.588 141.588 138.576 142.389C138.686 142.479 138.79 142.578 138.896 142.673C140.085 143.736 141.292 144.781 142.46 145.868C144.232 147.516 146.004 149.167 147.726 150.869C149.18 152.308 150.587 153.797 151.97 155.306C153.528 157.007 155.083 158.715 156.555 160.489C158.72 163.097 160.852 165.736 162.921 168.421C164.503 170.473 165.985 172.605 167.479 174.725C168.463 176.121 169.417 177.539 170.331 178.981C171.23 180.399 172.103 181.838 172.912 183.31C173.955 185.205 174.934 187.136 175.915 189.063C176.23 189.682 176.34 189.775 176.95 189.528C179.037 188.683 181.121 187.83 183.203 186.976C184.705 186.361 186.199 185.728 187.704 185.121C188.893 184.64 190.093 184.187 191.288 183.717C193.169 182.977 195.048 182.229 196.932 181.492C198.02 181.067 199.121 180.675 200.205 180.24C201.086 179.887 201.095 179.859 200.994 178.902C200.714 176.269 200.461 173.631 200.125 171.003C199.818 168.602 199.498 166.197 199.035 163.822C198.46 160.86 197.731 157.928 197.098 155.117ZM79.9595 175.471C80.314 176.852 80.2229 178.113 79.5552 179.221C78.5604 180.872 77.0295 181.721 75.0811 181.742C74.6566 181.747 74.2275 181.72 73.8076 181.656C73.3877 181.592 73.0676 181.685 72.8795 182.075C72.5467 182.769 72.2196 183.458 72.2227 184.264C72.2251 184.782 72.3892 185.186 72.7083 185.587C73.3781 186.428 74.3155 186.642 75.2877 186.72C76.9323 186.853 78.5311 186.48 80.0743 185.992C83.0602 185.05 86.0398 184.082 88.8436 182.641C91.4022 181.326 94.0335 180.152 96.5791 178.814C98.7451 177.676 100.835 176.393 102.955 175.17C103.375 174.928 103.787 174.673 104.195 174.412C106.452 172.968 108.703 171.517 110.961 170.078C111.598 169.671 111.841 169.728 112.351 170.297C112.75 170.741 113.14 171.201 113.581 171.6C115.171 173.039 117.07 173.643 119.194 173.786C121.449 173.939 123.486 173.45 125.332 172.16C125.916 171.753 126.486 171.325 127.052 170.893C127.261 170.734 127.452 170.524 127.722 170.742C128.012 170.976 128.177 171.281 127.959 171.64C127.798 171.904 127.616 172.18 127.379 172.371C126.243 173.287 125.038 174.081 123.622 174.528C121.072 175.333 118.544 175.439 115.991 174.519C114.6 174.017 113.356 173.318 112.326 172.252C112.147 172.067 111.963 171.888 111.781 171.707C111.511 171.437 111.232 171.461 110.938 171.672C110.591 171.919 110.24 172.161 109.885 172.396C108.958 173.01 108.022 173.608 107.104 174.234C106.726 174.491 106.734 174.617 107.146 174.825C107.831 175.173 108.534 175.487 109.233 175.807C111.562 176.877 113.895 177.938 116.222 179.01C118.937 180.261 121.643 181.531 124.362 182.774C126.278 183.651 128.211 184.491 130.13 185.362C132.539 186.454 134.94 187.562 137.347 188.661C140.04 189.892 142.738 191.11 145.426 192.351C148.529 193.782 151.629 195.219 154.716 196.684C155.206 196.916 155.611 196.922 156.092 196.709C156.977 196.317 157.882 195.974 158.779 195.608C159.518 195.308 160.253 194.996 160.996 194.708C161.412 194.547 161.464 194.311 161.303 193.908C160.182 191.091 158.747 188.433 157.215 185.829C155.901 183.597 154.482 181.427 153.015 179.287C151.208 176.652 149.205 174.177 147.2 171.701C146.197 170.463 145.129 169.274 144.065 168.085C143.059 166.962 142.067 165.819 140.986 164.769C138.678 162.527 136.342 160.31 133.965 158.141C132.557 156.856 131.087 155.629 129.574 154.469C127.926 153.204 126.227 151.998 124.493 150.855C122.642 149.635 120.723 148.515 118.831 147.357C118.501 147.154 118.153 147.073 117.774 147.254C116.926 147.659 116.051 148.016 115.227 148.468C113.805 149.249 112.429 150.116 111.006 150.893C108.877 152.056 106.878 153.42 104.859 154.755C101.485 156.986 98.1687 159.293 94.9674 161.769C92.173 163.931 89.3074 165.999 86.6546 168.339C84.6255 170.129 82.5766 171.897 80.5325 173.669C79.9305 174.194 79.4498 174.74 79.9595 175.471ZM79.565 152.333C79.3782 152.241 79.2377 152.143 79.0822 152.101C77.5728 151.687 76.0603 151.285 74.5501 150.875C73.2858 150.532 72.0231 150.182 70.7585 149.838C69.8517 149.592 68.9401 149.359 68.0349 149.105C67.5442 148.967 67.2362 149.146 66.9634 149.558C65.9287 151.124 64.8134 152.634 63.9655 154.324C62.754 156.739 61.3896 159.081 60.2516 161.53C58.9079 164.42 57.7069 167.379 56.497 170.33C55.5803 172.568 54.7161 174.827 53.8884 177.099C53.2155 178.946 52.6204 180.821 52.0097 182.69C51.2844 184.909 50.5297 187.12 49.8799 189.361C49.0722 192.147 48.3053 194.947 47.6217 197.766C46.8702 200.863 46.1574 203.975 45.5675 207.107C44.9727 210.266 44.5414 213.456 44.054 216.634C43.8189 218.17 43.8596 218.18 45.4067 218.506C46.659 218.77 47.901 219.081 49.1444 219.383C50.7223 219.767 52.2964 220.168 53.8745 220.553C54.495 220.705 54.5769 220.648 54.6694 220.051C54.9782 218.054 55.2576 216.052 55.5988 214.06C55.8301 212.715 56.1207 211.377 56.4311 210.048C56.8131 208.412 57.2201 206.781 57.6606 205.16C58.3609 202.578 59.0721 199.997 59.8286 197.43C60.3204 195.764 60.8816 194.118 61.447 192.474C62.5674 189.215 63.6661 185.946 64.8616 182.715C65.8398 180.072 66.9207 177.466 68.0029 174.864C68.9436 172.603 69.9046 170.349 70.9401 168.13C72.0226 165.812 73.208 163.541 74.3433 161.246C75.4545 158.999 76.6662 156.81 78.0722 154.733C78.5187 154.073 78.9649 153.412 79.4019 152.745C79.4773 152.635 79.5038 152.496 79.565 152.333ZM163.684 194.849C163.681 194.85 163.837 194.782 163.996 194.717C165.313 194.174 166.627 193.625 167.948 193.093C170.06 192.244 172.181 191.416 174.29 190.559C174.893 190.314 174.959 190.075 174.663 189.489C174.432 189.031 174.171 188.589 173.928 188.137C172.906 186.23 171.927 184.298 170.852 182.421C170.017 180.966 169.072 179.575 168.159 178.166C167.307 176.851 166.475 175.52 165.561 174.249C164.098 172.216 162.618 170.193 161.064 168.229C158.856 165.437 156.603 162.679 154.314 159.952C153.017 158.406 151.626 156.937 150.25 155.46C148.892 154.002 147.539 152.534 146.11 151.148C144.107 149.206 142.063 147.304 139.983 145.444C138.33 143.966 136.642 142.518 134.885 141.168C133.309 139.958 131.655 138.838 129.965 137.792C128.105 136.642 128.607 136.628 126.938 137.987C126.916 138.005 126.895 138.026 126.874 138.044C124.794 139.907 122.713 141.768 120.635 143.633C120.041 144.166 119.455 144.707 118.871 145.251C118.34 145.744 118.343 145.802 118.959 146.134C119.51 146.432 120.076 146.7 120.626 146.999C123.158 148.375 125.586 149.917 127.902 151.63C129.344 152.697 130.775 153.782 132.171 154.909C133.477 155.963 134.744 157.067 136 158.181C137.085 159.144 138.146 160.136 139.188 161.146C139.963 161.898 140.69 162.7 141.438 163.48C142.049 164.117 142.668 164.748 143.27 165.394C144.394 166.602 145.556 167.78 146.617 169.042C148.208 170.934 149.762 172.861 151.267 174.824C152.513 176.45 153.724 178.108 154.841 179.822C156.303 182.065 157.7 184.352 159.041 186.668C159.91 188.168 160.655 189.742 161.408 191.305C161.915 192.357 162.344 193.446 162.798 194.522C162.941 194.861 163.14 195.043 163.684 194.849ZM105.442 8.21019C105.434 8.18135 105.426 8.15313 105.418 8.1243C106.386 7.87895 107.354 7.63525 108.321 7.38741C108.984 7.21762 109.639 7.01608 110.307 6.87763C111.08 6.71786 111.655 7.04301 111.939 7.75455C112.108 8.17803 112.268 8.60548 112.406 9.03966C113.153 11.4028 113.882 13.7725 114.636 16.1332C115.676 19.3912 116.734 22.643 117.781 25.8981C118.122 26.9556 118.441 28.0205 118.79 29.0749C119.444 31.0484 120.12 33.0156 120.777 34.9882C121.308 36.5821 121.827 38.181 122.349 39.7781C122.871 41.3751 123.392 42.9726 123.911 44.5713C124.563 46.5763 125.204 48.585 125.864 50.5869C126.729 53.2118 127.613 55.8309 128.482 58.455C128.993 59.9966 129.492 61.5422 129.994 63.087C130.592 64.9298 131.187 66.7742 131.782 68.6179C132.211 69.9463 132.63 71.2779 133.065 72.604C133.632 74.3352 134.222 76.0591 134.784 77.7921C135.494 79.9888 136.176 82.1946 136.887 84.3905C137.57 86.5049 138.281 88.6107 138.968 90.7233C139.649 92.8103 140.309 94.904 140.99 96.9908C141.927 99.8625 142.875 102.73 143.818 105.601C144.254 106.926 144.688 108.253 145.128 109.577C145.639 111.119 146.165 112.655 146.672 114.197C147.232 115.902 147.772 117.614 148.335 119.317C148.515 119.863 148.646 119.919 149.138 119.614C149.912 119.134 150.663 118.614 151.42 118.105C151.691 117.923 151.744 117.685 151.64 117.361C150.911 115.113 150.202 112.857 149.479 110.606C148.669 108.084 147.846 105.567 147.038 103.044C146.107 100.141 145.187 97.2349 144.26 94.3297C143.949 93.3523 143.639 92.3754 143.317 91.4013C142.596 89.21 141.862 87.0227 141.144 84.8295C140.71 83.5017 140.301 82.1655 139.872 80.8363C139.207 78.7756 138.536 76.717 137.862 74.6586C137.365 73.1433 136.851 71.6326 136.357 70.1165C135.952 68.8704 135.577 67.6141 135.17 66.3686C134.54 64.4464 133.879 62.5337 133.26 60.6079C132.528 58.3291 131.839 56.036 131.107 53.7562C130.402 51.5599 129.67 49.3711 128.942 47.1814C128.312 45.2884 127.658 43.4042 127.038 41.5085C126.605 40.1813 126.216 38.8392 125.802 37.5051C125.413 36.2532 125.033 34.9981 124.622 33.7535C123.737 31.0764 122.827 28.4073 121.941 25.7312C121.001 22.8929 120.07 20.0509 119.147 17.2073C117.864 13.2488 116.591 9.28676 115.314 5.32657C115.025 4.43168 114.747 3.5324 114.441 2.64359C114.217 1.99457 113.971 1.84857 113.451 2.01228C112.009 2.46521 110.571 2.92706 109.129 3.37916C106.247 4.28211 103.364 5.1861 100.479 6.08013C97.2122 7.09213 93.9414 8.0919 90.673 9.0981C90.3461 9.19866 90.0171 9.29444 89.6981 9.41595C89.2165 9.59988 89.134 9.77272 89.2893 10.2704C89.4841 10.8958 89.6874 11.52 89.9009 12.1389C90.0632 12.6119 90.1707 12.6526 90.6657 12.5077C92.7438 11.8969 94.8213 11.2836 96.901 10.6795C99.7453 9.8541 102.594 9.0337 105.442 8.21019ZM36.9493 135.278C36.9134 135.29 36.8773 135.301 36.8414 135.312C37.2114 136.479 37.5972 137.642 37.9441 138.815C38.0735 139.252 38.3247 139.476 38.7557 139.584C39.4451 139.757 40.1226 139.976 40.8087 140.16C41.2219 140.271 41.64 140.363 42.06 140.444C42.5088 140.532 42.5456 140.485 42.4689 140.012C42.4555 139.928 42.4359 139.844 42.4132 139.761C41.8652 137.697 41.3427 135.626 40.76 133.572C40.3717 132.204 39.8716 130.869 39.4708 129.504C38.876 127.482 38.3179 125.448 37.7552 123.417C36.8115 120.012 35.8941 116.599 34.9306 113.2C34.286 110.925 33.5539 108.675 32.9093 106.401C32.2646 104.127 31.6959 101.831 31.0651 99.5523C30.5419 97.6596 29.9824 95.7769 29.4313 93.8922C28.8473 91.8956 28.2381 89.9072 27.6682 87.907C26.9417 85.3583 26.2365 82.8034 25.5348 80.2484C24.9699 78.1913 24.447 76.1218 23.8633 74.0704C22.748 70.1523 21.5881 66.2463 20.4751 62.3267C19.6184 59.3102 18.8105 56.2804 17.9677 53.2595C17.6388 52.0806 17.2671 50.9144 16.9326 49.7379C16.2773 47.4352 15.6335 45.1296 14.9848 42.8253C14.861 42.3859 14.7333 41.9484 14.6071 41.5096C14.1966 40.0856 13.7663 38.6675 13.384 37.2363C13.1651 36.4182 13.3061 36.1519 14.1084 35.8708C16.0168 35.2006 17.9349 34.5579 19.8543 33.9202C21.8282 33.2643 23.8078 32.6237 25.7865 31.9798C27.926 31.2837 30.0661 30.59 32.2066 29.898C32.7765 29.7138 33.3595 29.5678 33.918 29.3564C35.3827 28.8031 35.3853 28.7785 34.8774 27.2874C34.7006 26.7678 34.5963 26.7015 34.0686 26.7973C33.9005 26.8275 33.7349 26.8748 33.5721 26.9258C31.8864 27.4539 30.2036 27.9901 28.5154 28.5117C26.9092 29.0082 25.2981 29.4891 23.6887 29.9766C22.4075 30.3651 21.121 30.7398 19.8455 31.1472C16.6422 32.1695 13.4446 33.2073 10.2442 34.2377C9.91833 34.3424 9.58971 34.4364 9.26277 34.5369C8.92359 34.6415 8.82734 34.8575 8.9352 35.1959C9.17654 35.9562 9.40979 36.7194 9.63536 37.4836C10.3534 39.9152 11.074 42.3462 11.7797 44.7809C12.3345 46.6975 12.8735 48.618 13.4084 50.5395C14.2188 53.4503 15.0218 56.363 15.8241 59.2767C16.4367 61.501 17.0369 63.7293 17.6561 65.9519C18.3511 68.4458 19.0651 70.9341 19.764 73.4262C20.2571 75.1826 20.7368 76.9424 21.2273 78.6994C22.0079 81.4994 22.8015 84.2952 23.573 87.0975C24.5342 90.5857 25.465 94.0825 26.4355 97.5692C27.3824 100.973 28.3672 104.366 29.3257 107.766C30.0527 110.345 30.7755 112.924 31.4804 115.509C32.5315 119.358 33.5695 123.212 34.6051 127.067C35.0332 128.661 35.42 130.267 35.868 131.856C36.1933 133.007 36.5871 134.138 36.9493 135.278ZM68.6489 19.0403C68.655 19.0608 68.6619 19.0811 68.6682 19.1025C69.699 18.7749 70.7251 18.4291 71.7634 18.1243C73.7052 17.5542 75.654 17.0045 77.6014 16.4533C80.0145 15.77 82.4312 15.0981 84.843 14.4097C85.9104 14.1047 86.9723 13.778 88.033 13.4499C88.5917 13.2773 88.654 13.1608 88.5444 12.5721C88.5028 12.3486 88.4462 12.1253 88.3788 11.9083C87.7707 9.95232 87.1624 7.99548 86.5452 6.04179C86.3859 5.53895 86.2384 5.45534 85.715 5.61013C84.9501 5.83674 84.1984 6.10505 83.436 6.34162C82.13 6.74696 80.8163 7.12948 79.5132 7.54291C77.1515 8.29275 74.799 9.07203 72.4354 9.8144C70.886 10.3017 69.3217 10.7408 67.7683 11.2123C66.7595 11.5185 65.7561 11.8391 64.7527 12.1633C62.2871 12.9598 59.8247 13.7687 57.3566 14.5588C55.2399 15.2368 53.1175 15.8959 50.998 16.5631C48.5243 17.3413 46.0533 18.1303 43.5759 18.8945C40.9619 19.7012 38.3407 20.4833 35.7235 21.2776C35.5874 21.3191 35.4507 21.3653 35.3237 21.4284C34.8663 21.6557 34.7935 21.811 34.9456 22.3166C35.1511 22.9985 35.383 23.6728 35.5919 24.3539C35.9178 25.416 36.2183 26.4863 36.558 27.5441C36.7412 28.1133 36.8752 28.1888 37.4404 28.0491C38.6305 27.7544 39.8213 27.4551 40.9984 27.1125C43.7334 26.3157 46.4605 25.4918 49.1916 24.6801C49.6837 24.5341 50.1788 24.3998 50.6708 24.2538C52.4186 23.7338 54.162 23.2 55.9132 22.6933C57.2808 22.2971 58.6626 21.9467 60.0306 21.5522C62.9046 20.7219 65.7758 19.8774 68.6489 19.0403ZM46.6005 26.9985C46.6034 27.0101 46.6066 27.0226 46.6087 27.0344C45.8634 27.2234 45.1139 27.3993 44.3731 27.6057C43.8345 27.7564 43.758 27.8658 43.8879 28.4026C44.2295 29.8159 44.5859 31.2253 44.9656 32.6289C45.1322 33.2438 45.2776 33.2811 45.9031 33.0793C47.3661 32.6068 48.8258 32.121 50.2994 31.6829C52.4021 31.0579 54.5158 30.469 56.6257 29.8687C57.1193 29.7285 57.6227 29.6203 58.1123 29.4679C60.8319 28.6247 63.546 27.7634 66.2669 26.9252C68.0914 26.3628 69.9262 25.834 71.753 25.2807C73.5248 24.744 75.2895 24.1791 77.0658 23.6564C79.28 23.004 81.504 22.3871 83.7205 21.7439C84.5047 21.5168 84.5983 21.3632 84.4117 20.5749C84.1488 19.465 83.8602 18.3617 83.5766 17.257C83.3319 16.3059 83.2427 16.2429 82.2655 16.5207C80.6755 16.9733 79.0954 17.4578 77.5096 17.9235C74.5574 18.7903 71.6062 19.6569 68.6526 20.518C66.9566 21.0124 65.2549 21.4845 63.5604 21.9848C61.0492 22.7266 58.5436 23.4908 56.0323 24.2327C52.8896 25.1628 49.7439 26.0779 46.6005 26.9985ZM134.321 227.581C134.111 227.083 133.89 226.589 133.694 226.086C133.528 225.662 133.237 225.488 132.782 225.456C131.788 225.386 130.796 225.288 129.808 225.163C127.547 224.878 125.284 224.594 123.03 224.262C121.538 224.042 120.053 223.758 118.572 223.469C117.119 223.186 115.663 222.907 114.231 222.539C112.718 222.152 111.231 221.662 109.732 221.217C108.834 220.95 108.782 220.964 108.777 221.869C108.769 223.233 108.361 224.528 107.947 225.782C107.513 227.092 106.765 228.299 106.152 229.55C106.064 229.729 105.956 229.897 105.868 230.077C105.755 230.307 105.828 230.464 106.079 230.525C106.245 230.565 106.413 230.6 106.582 230.625C109.004 230.987 111.419 231.422 113.852 231.687C116.485 231.974 119.138 232.076 121.777 232.32C122.689 232.404 123.202 232.102 123.693 231.325C124.487 230.069 125.73 229.269 127.208 229.14C128.982 228.985 130.685 229.32 131.988 230.718C132.188 230.933 132.391 230.971 132.676 230.869C134.163 230.334 134.782 229.097 134.321 227.581ZM77.239 229.823C78.507 229.382 79.6049 228.751 80.6041 227.916C82.8014 226.079 84.4702 223.833 85.745 221.287C86.8231 219.136 87.6712 216.9 87.8172 214.473C87.9048 213.021 87.8375 211.578 87.0643 210.253C86.4252 209.157 85.5189 208.616 84.2569 208.677C81.9128 208.789 80.1597 210.078 78.5198 211.582C78.4057 211.686 78.3601 211.878 78.3132 212.038C77.9938 213.126 77.7023 214.224 77.3637 215.306C76.6778 217.499 75.5793 219.49 74.2862 221.375C73.7884 222.101 73.2117 222.773 72.7034 223.493C72.5325 223.735 72.3834 224.042 72.3603 224.331C72.2631 225.533 72.3752 226.707 72.8575 227.842C73.3154 228.92 74.029 229.672 75.2158 229.814C75.8814 229.892 76.5646 229.824 77.239 229.823ZM77.2661 207.024C77.2032 206.775 77.1579 206.52 77.0739 206.279C76.5656 204.818 75.4484 204.136 73.9378 204.484C73.2309 204.646 72.5167 204.937 71.9049 205.325C69.438 206.889 67.7069 209.151 66.2662 211.631C65.2945 213.303 64.5127 215.066 63.974 216.948C63.5317 218.492 63.1659 220.031 63.1584 221.632C63.1532 222.772 63.2764 223.902 63.8126 224.954C64.4593 226.223 65.2714 226.646 66.6671 226.35C66.917 226.298 67.1626 226.214 67.4005 226.121C69.0001 225.494 70.3017 224.455 71.4524 223.199C72.6315 221.914 73.6906 220.537 74.4812 218.984C75.2026 217.565 75.9455 216.14 76.4775 214.647C76.9316 213.372 77.1151 211.999 77.3887 210.664C77.6389 209.445 77.5729 208.227 77.2661 207.024ZM86.0012 233.529C87.1513 233.31 88.0446 232.932 88.8677 232.415C90.6412 231.303 92.1736 229.906 93.4762 228.271C95.6689 225.52 97.3178 222.499 98.0652 219.019C98.3536 217.68 98.3484 216.374 98.0564 215.044C97.6614 213.246 96.2534 212.107 94.1679 212.549C92.6993 212.86 91.3723 213.465 90.1186 214.304C89.2409 214.89 88.7495 215.613 88.6323 216.653C88.4411 218.348 87.7811 219.908 87.056 221.42C85.8149 224.009 84.1697 226.327 82.0216 228.257C81.7109 228.536 81.5678 228.836 81.6287 229.229C81.7377 229.931 81.7921 230.654 82.0005 231.327C82.46 232.808 83.5439 233.651 84.9164 233.661C85.3404 233.665 85.7643 233.56 86.0012 233.529ZM96.3015 236.966C97.4418 236.673 98.4607 236.124 99.3556 235.428C101.02 234.134 102.593 232.723 103.784 230.953C104.4 230.037 105.018 229.117 105.55 228.152C106.279 226.829 106.818 225.42 107.199 223.954C107.598 222.418 107.778 220.867 107.392 219.311C106.987 217.685 105.781 216.849 104.121 216.898C102.417 216.947 101.033 217.823 99.6094 218.592C99.4214 218.693 99.2897 218.982 99.2221 219.21C99.0055 219.944 98.8443 220.695 98.6383 221.433C98.1111 223.318 97.1245 225.001 96.1216 226.644C95.3587 227.896 94.3192 228.983 93.3629 230.11C92.9046 230.65 92.379 231.141 91.8385 231.601C91.3976 231.977 91.2398 232.41 91.3295 232.959C91.4666 233.8 91.56 234.642 91.9212 235.439C92.3876 236.47 93.2988 237.162 94.4392 237.149C95.0622 237.143 95.6813 237.031 96.3015 236.966ZM153.158 214.726C152.838 213.304 151.837 212.526 150.546 212.15C148.577 211.576 146.698 211.862 145.025 213.094C144.506 213.476 144.036 213.942 143.606 214.425C143.287 214.784 143.334 214.865 143.834 214.921C145.928 215.158 148.023 215.387 150.12 215.593C150.883 215.668 151.655 215.701 152.422 215.697C153.138 215.693 153.346 215.385 153.158 214.726ZM148.432 200.189C146.513 200.654 145.656 201.219 144.849 202.469C144.575 202.895 144.635 203.069 145.106 203.205C145.216 203.237 145.328 203.266 145.441 203.276C147.252 203.444 149.063 203.628 150.877 203.765C151.528 203.814 152.187 203.765 152.841 203.731C153.44 203.699 153.774 203.385 153.664 202.885C153.449 201.912 152.994 201.065 152.057 200.589C150.835 199.968 149.564 199.808 148.432 200.189ZM143.852 224.542C143.85 224.518 143.848 224.493 143.846 224.468C144.094 224.406 144.346 224.356 144.588 224.277C144.866 224.186 144.925 223.98 144.786 223.738C144.243 222.792 143.5 222.043 142.423 221.779C140.556 221.322 138.075 222.171 137.184 224.046C136.931 224.577 136.948 224.666 137.567 224.674C138.955 224.691 140.345 224.7 141.733 224.68C142.44 224.67 143.146 224.59 143.852 224.542ZM76.1852 180.31C78.1046 179.698 79.2704 178.195 78.9041 176.13C78.8764 175.972 78.7851 175.825 78.7236 175.673C78.5801 175.744 78.405 175.785 78.298 175.893C77.1017 177.104 75.914 178.325 74.7286 179.547C74.632 179.647 74.561 179.778 74.4966 179.904C74.305 180.28 74.3895 180.464 74.7906 180.45C75.2721 180.433 75.7526 180.357 76.1852 180.31ZM127.175 230.331C126.094 230.618 125.36 231.157 124.663 231.749C124.555 231.841 124.536 232.036 124.476 232.183C124.605 232.219 124.737 232.295 124.862 232.286C126.306 232.17 127.751 232.05 129.193 231.907C129.643 231.862 130.088 231.753 130.53 231.65C130.657 231.62 130.765 231.506 130.881 231.431C130.792 231.299 130.732 231.125 130.61 231.041C129.509 230.283 128.264 230.283 127.175 230.331Z" fill="#462683"/>
<path d="M43.6026 59.2465C43.0351 57.0082 42.4532 54.7726 41.904 52.5296C41.4636 50.7298 41.058 48.9212 40.6516 47.1128C40.5842 46.8119 40.5465 46.4894 40.5754 46.1852C40.619 45.7264 40.8708 45.3887 41.3447 45.265C41.5658 45.2072 41.7866 45.1512 42.0084 45.0959C44.996 44.3552 47.9818 43.6105 50.9715 42.8781C52.1299 42.5941 53.2966 42.346 54.4569 42.0695C55.0391 41.9307 55.6142 41.7602 56.1935 41.6098C57.018 41.3954 57.8436 41.1888 58.6679 40.9736C59.4663 40.7641 60.2613 40.5413 61.0607 40.336C62.0245 40.089 62.9937 39.86 63.957 39.6114C64.6453 39.4342 65.3259 39.2272 66.0145 39.0517C68.4446 38.4321 70.8789 37.829 73.3074 37.2036C76.838 36.2943 80.3634 35.3651 83.8937 34.455C87.2365 33.5925 90.5815 32.7391 93.9272 31.8882C95.22 31.5595 95.5284 31.7481 95.9079 33.0219C96.6883 35.6435 97.4787 38.2625 98.2601 40.8848C99.0821 43.6424 99.8804 46.4079 100.721 49.1599C101.487 51.6659 102.307 54.1549 103.083 56.6573C103.633 58.4277 104.141 60.2102 104.684 61.983C105.535 64.7618 106.405 67.5345 107.253 70.3147C107.511 71.1601 107.724 72.0193 107.957 72.872C108.039 73.1743 108.101 73.4846 108.204 73.7799C108.378 74.2792 108.506 74.3226 108.924 73.9702C110.062 73.0077 111.286 72.1904 112.633 71.5389C115.539 70.1325 118.538 69.8544 121.71 70.4342C123.623 70.784 125.283 71.5802 126.809 72.673C127.721 73.3266 128.547 74.1551 129.257 75.0308C130.781 76.9092 131.895 79.0186 132.341 81.4281C132.842 84.1276 132.606 86.7613 131.578 89.3142C131.066 90.5862 130.487 91.8149 129.624 92.9055C128.353 94.5129 126.89 95.8724 125.068 96.8438C122.389 98.2721 119.521 98.6698 116.544 98.4407C115.784 98.3817 115.035 98.1537 114.284 97.9918C113.811 97.8899 113.781 97.8994 113.878 98.3632C114.163 99.7288 114.461 101.091 114.756 102.456C114.81 102.707 114.877 102.955 114.928 103.206C115.097 104.055 114.899 104.441 114.076 104.702C112.772 105.115 111.461 105.511 110.143 105.877C107.123 106.717 104.093 107.531 101.071 108.363C99.2041 108.878 97.3472 109.427 95.4776 109.927C92.78 110.648 90.0713 111.329 87.371 112.042C84.203 112.88 81.0399 113.737 77.873 114.582C76.881 114.847 75.8857 115.102 74.8921 115.363C72.554 115.98 70.2185 116.607 67.8775 117.212C66.5834 117.546 65.2768 117.834 63.9825 118.167C63.4046 118.317 62.8512 118.566 62.2694 118.695C61.9233 118.773 61.5305 118.764 61.1862 118.68C60.9858 118.632 60.763 118.391 60.6816 118.185C60.3046 117.234 59.9561 116.271 59.6283 115.302C59.1373 113.846 58.6731 112.381 58.1952 110.921C58.0978 110.624 57.975 110.335 57.8901 110.035C57.7898 109.681 57.6642 109.322 57.6458 108.96C57.5999 108.072 57.825 107.82 58.6955 107.585C62.6319 106.525 66.5645 105.449 70.5031 104.396C74.8814 103.225 79.2665 102.081 83.6459 100.91C85.9034 100.307 88.1488 99.6557 90.4076 99.0574C93.2176 98.3132 96.0391 97.6102 98.8516 96.8723C100.285 96.4965 101.709 96.0816 103.139 95.6925C104.538 95.3124 105.938 94.9431 107.339 94.5686C107.477 94.5317 107.616 94.4974 107.75 94.4528C108.051 94.3535 108.072 94.1822 107.893 93.9369C107.374 93.2251 106.8 92.5438 106.365 91.7831C105.846 90.8743 105.406 89.9126 105.011 88.9404C104.672 88.1042 104.59 87.9818 103.705 88.1338C102.527 88.3355 101.349 88.551 100.181 88.8039C97.9235 89.2923 95.6786 89.8376 93.4179 90.3101C90.4619 90.928 87.4928 91.4873 84.5346 92.0934C82.5806 92.4934 80.6369 92.9447 78.6834 93.3499C76.9815 93.7028 75.2717 94.0205 73.5675 94.3608C73.0925 94.4556 72.6244 94.5849 72.1501 94.6857C69.3345 95.2865 66.5165 95.8773 63.7016 96.4841C61.7518 96.9043 59.8109 97.3628 57.8586 97.7695C56.3292 98.0883 54.7888 98.3605 53.2514 98.6408C52.8706 98.71 52.6754 98.5183 52.5789 98.0543C52.2812 96.6326 51.9992 95.2069 51.6782 93.7911C51.2616 91.9562 50.8121 90.1278 50.377 88.2966C49.468 84.471 48.5482 80.6482 47.6534 76.819C47.0176 74.0989 46.4285 71.3678 45.7938 68.6483C45.0621 65.5153 44.3021 62.3886 43.5544 59.2588C43.5694 59.255 43.586 59.2508 43.6026 59.2465ZM52.6321 92.1776C52.6221 92.1801 52.6113 92.1828 52.6013 92.1853C52.9378 93.5124 53.2676 94.8412 53.6132 96.1659C53.8394 97.0334 53.9417 97.0817 54.806 96.8952C56.2546 96.5818 57.7043 96.2761 59.1544 95.9685C62.1387 95.3364 65.121 94.6968 68.1074 94.0766C70.1446 93.6528 72.1898 93.2712 74.2259 92.8433C75.7001 92.5331 77.1593 92.1534 78.6333 91.846C81.5603 91.2355 84.4966 90.665 87.4234 90.0537C89.9617 89.5231 92.4929 88.9609 95.026 88.4096C96.1963 88.1553 97.3656 87.8968 98.5343 87.6358C100.23 87.2562 101.929 86.8892 103.618 86.4839C104.441 86.2867 104.44 86.2525 104.403 85.359C104.327 83.4872 104.618 81.6753 105.183 79.889C105.567 78.677 106.136 77.5673 106.819 76.5134C107.141 76.0166 107.228 75.545 107.044 74.983C106.682 73.8735 106.354 72.7528 106.011 71.6367C105.55 70.1389 105.092 68.6403 104.626 67.1448C103.904 64.8335 103.16 62.5295 102.455 60.2129C101.833 58.1703 101.271 56.1099 100.648 54.0674C99.7683 51.1778 98.8521 48.2992 97.9614 45.4132C97.1213 42.6919 96.3019 39.9653 95.4576 37.2451C95.1201 36.1576 94.7577 35.0765 94.3703 34.0053C94.1266 33.3295 94.0742 33.3181 93.353 33.4903C92.2443 33.7546 91.1416 34.0457 90.0323 34.311C88.4842 34.6815 86.926 35.0156 85.3838 35.4093C83.2608 35.9511 81.1523 36.5466 79.031 37.095C78.26 37.294 77.4629 37.3937 76.6915 37.5945C75.3435 37.946 74.0113 38.3598 72.6635 38.7121C69.9646 39.4176 67.2609 40.104 64.5572 40.7903C60.133 41.9129 55.7098 43.0362 51.2824 44.1428C49.8736 44.4947 48.4458 44.7754 47.0378 45.1306C45.8226 45.4379 44.62 45.7949 43.4174 46.1484C41.8073 46.6228 41.7388 46.1508 42.189 48.1805C42.9094 51.4329 43.7026 54.6696 44.4657 57.913C45.1771 60.9381 45.8807 63.9643 46.6029 66.9866C47.6948 71.5582 48.8019 76.1268 49.8965 80.6985C50.8124 84.5233 51.7201 88.3509 52.6321 92.1776ZM105.919 105.439C105.923 105.451 105.926 105.464 105.93 105.477C108.168 104.909 110.407 104.348 112.643 103.772C113.495 103.552 113.536 103.53 113.391 102.665C113.118 101.038 112.783 99.4207 112.481 97.7978C112.366 97.1787 111.877 96.9388 111.397 96.6788C110.876 96.3958 110.309 96.1687 109.853 95.8028C109.393 95.4337 108.968 95.3869 108.432 95.5299C104.329 96.6249 100.218 97.691 96.1175 98.7942C92.6228 99.7333 89.1399 100.715 85.6492 101.667C82.2386 102.596 78.8267 103.52 75.4102 104.429C70.3975 105.764 65.3809 107.083 60.3656 108.41C60.0627 108.49 59.7619 108.582 59.461 108.671C59.2407 108.736 59.106 108.863 59.182 109.11C59.4868 110.107 59.7585 111.116 60.112 112.096C60.6136 113.485 61.1927 114.843 61.4441 116.315C61.6262 117.378 61.9487 117.56 62.9767 117.266C64.1544 116.93 65.3209 116.555 66.4963 116.21C67.5624 115.896 68.6334 115.598 69.7027 115.297C72.4182 114.532 75.1291 113.748 77.8513 113.009C82.1948 111.829 86.5451 110.673 90.8961 109.52C93.3765 108.862 95.8691 108.248 98.3459 107.576C100.877 106.887 103.395 106.153 105.919 105.439ZM130.479 80.706C130.153 79.7869 129.948 79.0114 129.61 78.2986C128.974 76.9582 128.138 75.748 127.069 74.7012C125.193 72.8653 122.95 71.709 120.371 71.3771C118.165 71.0937 115.989 71.4961 113.921 72.3428C111.973 73.1407 110.435 74.4802 109.115 76.0913C106.341 79.4762 105.477 83.3493 106.418 87.567C107.108 90.6611 108.747 93.2153 111.369 95.1102C112.939 96.2446 114.679 96.9183 116.559 97.1544C118.225 97.3635 119.919 97.2132 121.527 96.7117C123.453 96.1112 125.179 95.059 126.645 93.6998C127.893 92.5423 128.909 91.164 129.614 89.5623C130.905 86.631 131.107 83.6329 130.479 80.706Z" fill="#462683"/>
<path d="M122.206 108.374C122.682 109.806 123.162 111.236 123.633 112.669C123.883 113.427 124.123 114.186 124.355 114.949C124.503 115.433 124.353 115.752 123.849 115.971C123.379 116.175 122.897 116.353 122.41 116.515C121.382 116.855 120.345 117.169 119.318 117.51C117.48 118.12 115.647 118.745 113.811 119.36C112.73 119.721 111.647 120.075 110.565 120.431C108.509 121.109 106.452 121.784 104.397 122.464C103.667 122.705 102.944 122.969 102.214 123.208C100.292 123.838 98.3659 124.456 96.4445 125.085C94.4707 125.731 92.5027 126.396 90.5252 127.031C90.0416 127.186 89.53 127.255 89.0309 127.363C88.608 127.455 88.3876 127.23 88.2655 126.863C87.7784 125.405 87.303 123.945 86.8062 122.491C86.4569 121.468 86.0789 120.454 85.7189 119.435C85.5866 119.06 85.4396 118.686 85.3538 118.298C85.1933 117.568 85.3385 117.315 86.045 117.067C87.3081 116.625 88.578 116.202 89.8437 115.766C92.9414 114.7 96.0373 113.627 99.136 112.565C102.101 111.548 105.07 110.549 108.034 109.53C110.997 108.512 113.951 107.473 116.914 106.459C117.965 106.099 119.024 105.755 120.091 105.452C120.933 105.213 121.253 105.358 121.576 106.155C121.865 106.864 122.053 107.614 122.285 108.346C122.261 108.356 122.234 108.365 122.206 108.374ZM122.566 113.347C122.573 113.345 122.581 113.343 122.588 113.34C122.245 112.253 121.906 111.164 121.558 110.078C121.271 109.183 120.993 108.284 120.669 107.402C120.451 106.808 120.367 106.792 119.779 106.949C119.421 107.045 119.062 107.139 118.712 107.26C115.449 108.38 112.19 109.51 108.927 110.627C106.771 111.366 104.608 112.087 102.45 112.822C98.4856 114.173 94.5221 115.528 90.5603 116.886C89.4282 117.273 88.303 117.681 87.1699 118.068C86.7658 118.206 86.636 118.461 86.7555 118.859C86.8128 119.05 86.8621 119.244 86.9323 119.431C87.4883 120.896 88.0457 122.359 88.6079 123.821C88.8331 124.406 89.0679 124.987 89.3026 125.567C89.4119 125.838 89.5818 125.975 89.9025 125.871C90.6067 125.642 91.3231 125.447 92.0267 125.216C95.5732 124.049 99.1166 122.873 102.662 121.704C104.584 121.07 106.51 120.448 108.431 119.81C110.216 119.217 111.991 118.593 113.779 118.012C115.974 117.298 118.179 116.615 120.38 115.916C121.059 115.701 121.739 115.49 122.413 115.26C123.02 115.053 123.087 114.914 122.898 114.316C122.795 113.992 122.677 113.671 122.566 113.347Z" fill="#462683"/>
<path d="M71.5495 140.546C71.4232 140.048 71.282 139.554 71.1742 139.052C71.0156 138.315 71.1676 138.047 71.8556 137.817C74.0994 137.069 76.349 136.34 78.5874 135.577C81.6355 134.539 84.6739 133.472 87.7189 132.425C89.9018 131.673 92.0902 130.937 94.2741 130.189C96.5937 129.396 98.91 128.595 101.231 127.806C101.526 127.705 101.839 127.656 102.144 127.583C102.78 127.431 103.102 127.549 103.385 128.148C103.628 128.661 103.807 129.206 103.992 129.745C104.122 130.122 104.203 130.514 104.324 130.895C104.619 131.822 104.529 132.108 103.628 132.508C102.849 132.855 102.036 133.128 101.231 133.413C98.8145 134.27 96.3918 135.11 93.9756 135.969C90.2177 137.306 86.4688 138.667 82.7069 139.991C79.7777 141.021 76.8381 142.021 73.8966 143.017C72.7732 143.397 72.2601 143.105 71.9271 141.952C71.7923 141.486 71.6864 141.013 71.5671 140.542C71.5619 140.543 71.5553 140.544 71.5495 140.546ZM72.7574 140.423C72.7682 140.42 72.779 140.417 72.7898 140.414C72.8879 140.801 72.9592 141.197 73.0904 141.572C73.2711 142.09 73.5036 142.188 74.0065 141.984C74.375 141.835 74.718 141.62 75.0897 141.483C77.0675 140.759 79.0506 140.052 81.0316 139.337C82.5312 138.796 84.0305 138.254 85.5291 137.709C87.4555 137.009 89.381 136.305 91.3064 135.6C93.6051 134.759 95.8996 133.904 98.2023 133.075C99.7029 132.534 101.212 132.016 102.726 131.514C103.13 131.379 103.197 131.204 103.025 130.827C102.79 130.31 102.599 129.772 102.405 129.236C102.265 128.852 102.025 128.801 101.665 128.926C100.347 129.383 99.0248 129.825 97.7033 130.27C94.9244 131.207 92.1459 132.142 89.367 133.079C88.5037 133.371 87.6387 133.655 86.7789 133.957C84.7383 134.674 82.7083 135.422 80.6601 136.116C78.7462 136.765 76.8122 137.355 74.8913 137.983C74.2429 138.195 73.5964 138.422 72.9668 138.684C72.4131 138.915 72.3916 139.015 72.5472 139.593C72.6208 139.87 72.6876 140.147 72.7574 140.423Z" fill="#462683"/>
<path d="M48.2916 152.888C48.4122 153.566 48.002 153.968 47.4244 153.829C45.6899 153.412 43.9585 152.98 42.2209 152.575C41.2821 152.356 40.3334 152.182 39.3883 151.99C38.8073 151.872 38.6685 151.729 38.7391 151.304C38.8183 150.829 39.0553 150.631 39.5922 150.732C40.5688 150.915 41.534 151.158 42.5049 151.371C43.9724 151.693 45.4417 152.008 46.9084 152.334C47.2679 152.414 47.6275 152.505 47.9738 152.628C48.1148 152.678 48.2206 152.827 48.2916 152.888Z" fill="#462683"/>
<path d="M31.9969 150.24C31.736 150.214 31.5915 150.215 31.4537 150.184C29.6494 149.771 27.8443 149.361 26.0431 148.932C25.4612 148.793 25.3494 148.519 25.5828 148.015C25.7394 147.675 26.0157 147.681 26.3053 147.74C26.7513 147.83 27.1925 147.94 27.6356 148.043C29.0502 148.372 30.4655 148.701 31.8795 149.035C32.1237 149.092 32.454 149.127 32.3665 149.485C32.2995 149.761 32.1155 150.007 31.9969 150.24Z" fill="#462683"/>
<path d="M93.8173 209.766C93.7479 209.765 93.6312 209.778 93.5221 209.756C91.8184 209.397 90.1742 208.87 88.6492 208.011C88.3627 207.849 88.2582 207.636 88.3445 207.304C88.4862 206.758 88.6903 206.647 89.195 206.899C90.7011 207.652 92.2692 208.225 93.9245 208.549C94.2424 208.611 94.5857 208.672 94.5404 209.096C94.498 209.473 94.2419 209.696 93.8173 209.766Z" fill="#462683"/>
<path d="M93.7034 196.166C93.9532 196.217 94.1262 196.227 94.2778 196.289C95.7779 196.899 97.2736 197.521 98.7731 198.133C99.1268 198.277 99.1372 198.523 99.0269 198.827C98.9075 199.158 98.7398 199.353 98.328 199.241C96.7284 198.806 95.2139 198.162 93.7653 197.368C93.5756 197.264 93.376 196.996 93.3666 196.795C93.3568 196.593 93.5793 196.38 93.7034 196.166Z" fill="#462683"/>
<path d="M100.688 182.94C100.891 183.021 101.051 183.07 101.197 183.146C101.976 183.554 102.741 183.99 103.533 184.371C104.146 184.666 104.796 184.882 105.417 185.16C105.668 185.272 105.955 185.405 105.832 185.791C105.714 186.159 105.458 186.32 105.044 186.255C104.904 186.233 104.763 186.197 104.634 186.142C103.827 185.795 103.008 185.473 102.225 185.079C101.618 184.774 101.048 184.393 100.488 184.008C100.369 183.927 100.291 183.66 100.327 183.511C100.374 183.312 100.552 183.143 100.688 182.94Z" fill="#462683"/>
<path d="M149.706 133.628C149.277 133.743 148.981 133.538 148.771 133.108C148.609 132.777 148.816 132.654 149.043 132.504C150.798 131.342 152.551 130.176 154.304 129.008C154.944 128.582 155.58 128.149 156.218 127.72C156.552 127.495 156.838 127.502 157.104 127.85C157.449 128.304 157.45 128.476 156.959 128.806C155.184 129.994 153.401 131.167 151.623 132.349C151.22 132.616 150.827 132.9 150.426 133.169C150.165 133.343 149.899 133.506 149.706 133.628Z" fill="#462683"/>
<path d="M169.962 119.953C169.934 120.036 169.915 120.216 169.821 120.338C169.703 120.491 169.533 120.611 169.369 120.72C167.566 121.913 165.762 123.103 163.954 124.288C163.497 124.587 163.27 124.529 162.962 124.074C162.683 123.662 162.702 123.553 163.185 123.176C163.498 122.931 163.831 122.71 164.165 122.492C165.711 121.481 167.261 120.477 168.808 119.468C169.395 119.085 169.802 119.226 169.962 119.953Z" fill="#462683"/>
<path d="M69.0307 155.493C70.7701 155.003 72.4141 156.156 72.5647 157.977C72.7588 160.327 70.7896 162.402 68.2927 162.159C67.1662 162.05 66.2016 161.064 66.0642 159.818C65.9396 158.689 66.253 157.661 67.0398 156.838C67.6246 156.225 68.231 155.596 69.0307 155.493Z" fill="#462683"/>
<path d="M131.372 149.625C129.087 150.291 126.717 148.375 126.82 146.206C126.926 143.967 129.348 142.354 131.443 143.165C132.186 143.453 132.839 143.837 133.364 144.513C134.993 146.607 133.393 149.35 131.372 149.625Z" fill="#462683"/>
<path d="M86.8192 212.893C86.9376 213.649 86.9392 214.656 86.2846 215.554C85.835 216.171 85.2558 216.482 84.4635 216.454C82.9628 216.402 81.626 215.892 80.4165 215.051C79.4224 214.36 79.3052 213.33 80.0675 212.396C80.7165 211.601 81.4208 210.884 82.3997 210.453C84.1681 209.676 86.264 210.192 86.8192 212.893ZM83.2763 211.392C82.1328 211.679 81.4373 212.239 81.0397 213.189C80.7913 213.784 80.7649 213.854 81.2866 214.18C81.8364 214.523 82.4321 214.824 83.0456 215.028C84.9584 215.664 85.7794 215.126 85.5686 212.953C85.563 212.896 85.5558 212.84 85.5434 212.784C85.2655 211.542 84.5143 211.08 83.2763 211.392Z" fill="#462683"/>
<path d="M76.3642 208.125C76.6042 209.11 76.6504 210.072 76.2496 211.048C75.9595 211.754 75.4714 212.156 74.7636 212.319C74.1185 212.468 73.4788 212.502 72.843 212.21C72.2002 211.914 71.5264 211.688 70.878 211.406C70.1162 211.074 69.7287 210.374 69.4383 209.675C69.1886 209.073 69.5441 208.5 69.9312 208.034C70.5714 207.263 71.3395 206.642 72.2392 206.181C74.1427 205.205 75.6768 205.842 76.2899 207.88C76.3149 207.961 76.3401 208.043 76.3642 208.125ZM75.2835 208.552C75.1561 208.213 75.0834 207.936 74.9536 207.689C74.568 206.959 73.9452 206.701 73.1731 206.993C72.2325 207.349 71.3897 207.868 70.7655 208.684C70.3853 209.18 70.3923 209.41 70.8355 209.862C71.6716 210.715 72.7533 211.068 73.8874 211.222C74.7024 211.332 75.242 210.847 75.3262 210.005C75.3762 209.506 75.3002 208.993 75.2835 208.552Z" fill="#462683"/>
<path d="M97.1482 216.379C97.4753 217.439 97.2926 218.534 96.8055 219.557C96.4028 220.403 95.7018 220.931 94.701 220.889C93.0312 220.818 91.622 220.13 90.4411 218.981C89.7011 218.26 89.7155 216.895 90.512 216.01C91.485 214.928 92.6242 214.147 94.1806 214.081C95.5106 214.024 96.8868 214.707 97.1482 216.379ZM95.9631 216.513C95.6975 215.437 95.1555 215.007 93.9073 215.201C92.9446 215.352 92.0708 215.779 91.4505 216.59C90.7773 217.471 90.8784 218.145 91.8229 218.717C92.6254 219.203 93.489 219.558 94.4132 219.771C94.9743 219.901 95.3414 219.708 95.64 219.259C96.183 218.443 96.2326 217.565 95.9631 216.513Z" fill="#462683"/>
<path d="M103.065 218.206C104.072 217.866 104.986 217.934 105.772 218.598C106.086 218.863 106.436 219.201 106.547 219.572C106.994 221.07 106.908 222.539 106.054 223.907C105.587 224.655 104.895 224.87 104.066 224.756C102.829 224.586 101.715 224.09 100.681 223.416C100.382 223.221 100.078 222.971 99.8915 222.675C99.479 222.016 99.5277 221.309 99.9142 220.646C100.643 219.392 101.603 218.425 103.065 218.206ZM103.397 219.247C102.399 219.565 101.579 220.193 100.996 221.116C100.742 221.519 100.781 221.959 101.138 222.189C102.048 222.773 102.982 223.335 104.09 223.457C104.705 223.524 105.01 223.339 105.195 222.756C105.358 222.242 105.474 221.709 105.557 221.176C105.773 219.792 104.802 218.91 103.397 219.247Z" fill="#462683"/>
<path d="M79.4626 87.6046C78.3485 87.7669 77.0116 87.8939 75.7069 88.1726C74.351 88.4616 72.994 88.4815 71.6273 88.4561C71.0895 88.4459 70.5532 88.3584 70.0158 88.3082C68.09 88.1296 66.267 87.5654 64.5649 86.6809C63.3268 86.0373 62.2707 85.1153 61.3112 84.0901C60.0406 82.7332 59.2373 81.1049 58.547 79.41C58.2192 78.6045 58.2425 78.6233 57.4143 78.6628C56.0572 78.7278 54.7044 78.5797 53.5146 77.9106C51.5851 76.8258 50.6497 74.603 51.4695 72.2275C51.8971 70.9876 52.6748 70.0449 53.7439 69.3146C54.0369 69.1149 54.4622 68.9566 54.2881 68.4717C54.1277 68.0239 54.189 67.4607 53.47 67.325C52.7936 67.1971 52.3427 66.6728 52.1146 66.0134C51.8401 65.22 51.7172 64.3935 51.8886 63.5683C52.1433 62.3396 52.4349 61.1138 53.1725 60.0586C53.4245 59.697 53.4308 59.4189 53.0415 59.1166C52.5828 58.7604 52.4722 58.2302 52.4782 57.658C52.4974 55.7303 53.1929 54.0143 54.2666 52.4799C54.9462 51.5091 55.8599 50.7024 56.6635 49.8168C56.7911 49.6757 56.9845 49.5084 56.9865 49.3524C56.9974 48.1934 57.7401 47.4892 58.5253 46.8203C59.7448 45.7806 61.2441 45.4199 62.7691 45.1357C62.937 45.1046 63.11 45.104 63.2793 45.0788C63.5475 45.039 63.6666 44.8781 63.6704 44.6077C63.6757 44.2663 63.6817 43.9239 63.7204 43.5855C63.8984 42.0334 65.7883 40.7885 67.4305 41.7783C67.5285 41.8374 67.6403 41.8744 67.73 41.9426C68.1895 42.2881 68.617 42.3193 69.1344 41.9911C69.6991 41.6333 70.3679 41.5052 71.0283 41.6814C71.3741 41.7739 71.7155 41.9673 71.9997 42.1894C72.6141 42.6687 72.598 42.6887 73.3044 42.3047C74.4662 41.6718 75.6704 41.1607 77.0169 41.1099C77.4422 41.094 77.878 41.085 78.2934 41.1626C79.0655 41.306 79.7913 41.5592 80.0544 42.4332C80.1735 42.8296 80.4867 42.8942 80.856 42.9331C81.7873 43.0317 82.7233 43.1283 83.6418 43.3053C84.6354 43.4967 85.4945 43.9935 86.3041 44.6088C86.9014 45.0624 87.2217 45.6393 87.2627 46.3408C87.2977 46.9388 87.5595 47.1807 88.1162 47.3036C89.6886 47.6522 91.1346 48.3111 92.4627 49.2224C93.1086 49.6655 93.6345 50.2141 93.9822 50.9271C94.5554 52.104 94.2696 53.0916 93.1486 53.7636C93.0267 53.8369 92.9022 53.91 92.7713 53.9652C92.4273 54.1098 92.3201 54.3596 92.3762 54.7199C92.5661 55.9569 92.8497 57.187 92.6878 58.4541C92.6558 58.7007 92.7543 58.8312 93.0149 58.8349C93.3856 58.8407 93.7563 58.8571 94.1264 58.8675C97.8813 58.9754 100.278 62.8248 98.6808 66.2153C98.1715 67.2967 97.3232 68.1071 96.3667 68.8045C95.1942 69.66 95.2742 69.3765 95.4743 70.9113C95.8013 73.42 95.4597 75.8005 94.3118 78.0559C93.4927 79.6645 92.555 81.1954 91.1075 82.3282C89.9635 83.2233 88.7869 84.0728 87.4296 84.6386C86.5358 85.0119 85.6867 85.4983 84.7791 85.8274C83.0914 86.4381 81.3774 86.9698 79.4626 87.6046ZM95.4759 60.6611L95.471 60.6695C94.5136 60.2798 93.5351 60.2735 92.5427 60.5083C92.3285 60.5591 92.1324 60.6459 92.2387 60.9051C92.5404 61.6386 92.8543 62.3681 93.1863 63.0886C93.294 63.3219 93.4898 63.3314 93.6528 63.117C93.7553 62.9814 93.8283 62.8234 93.9308 62.6879C94.4436 62.0102 94.9609 61.3367 95.4759 60.6611ZM59.0882 76.963C59.7632 79.5556 60.7805 81.9308 62.7701 83.8068C63.6869 84.6705 64.6515 85.531 65.8106 85.964C67.9621 86.7682 70.1374 87.5125 72.5307 87.3403C74.289 87.2133 76.0406 87.1473 77.7533 86.691C79.0465 86.3463 80.3747 86.1014 81.6324 85.6589C83.4805 85.0083 85.332 84.364 87.0765 83.4306C89.6362 82.0609 91.6842 80.2202 93.0613 77.639C93.829 76.2006 94.3816 74.6976 94.2663 73.0689C94.1659 71.6555 93.908 70.2449 93.6067 68.8577C93.366 67.7483 92.9855 66.6656 92.6129 65.5897C92.1938 64.379 91.6991 63.1945 91.2686 61.9876C91.1007 61.5169 90.8376 61.2701 90.329 61.3125C89.5152 61.381 88.8218 61.0604 88.1712 60.6229C87.4577 60.1431 86.8092 59.5956 86.3126 58.8771C85.9247 58.3156 85.9031 58.3282 85.2864 58.693C85.2126 58.7364 85.1392 58.7816 85.0679 58.8279C84.0023 59.5265 82.8587 59.6636 81.6284 59.3678C80.7518 59.1573 79.9496 58.7945 79.2459 58.2521C78.6851 57.8202 78.2613 57.849 77.6654 58.2545C76.7298 58.8909 75.6156 59.3006 74.5072 58.9042C73.6076 58.582 73.0662 58.7007 72.3601 59.3576C71.3482 60.2996 70.02 60.6142 68.6225 60.4986C68.3111 60.4725 67.9972 60.3807 67.8397 60.7943C67.427 61.8802 66.6557 62.7294 65.9447 63.6181C65.899 63.6747 65.8933 63.7636 65.8694 63.8368C65.9514 63.8257 66.0459 63.8362 66.1141 63.7986C66.7867 63.424 67.5105 63.3139 68.2643 63.378C68.8384 63.4268 69.1256 63.6887 69.3031 64.232C69.5633 65.0246 69.2561 65.6457 68.6782 66.1323C67.9174 66.7721 66.9987 66.9741 66.0279 66.8272C65.2361 66.7073 64.6276 66.011 64.6401 65.2765C64.6464 64.9251 64.5516 64.9624 64.3051 65.0911C63.6275 65.4458 62.9446 65.7938 62.2481 66.109C61.962 66.2381 61.7821 66.403 61.6998 66.7056C61.5728 67.1733 61.4338 67.6387 61.276 68.0965C60.8209 69.4193 60.0944 70.5707 58.9592 71.4027C58.4908 71.7467 58.3924 72.1285 58.4708 72.65C58.6851 74.0876 58.8828 75.5258 59.0882 76.963ZM61.8625 46.7055C61.2908 46.9556 60.4562 47.2555 59.6903 47.6802C59.2326 47.9341 58.8417 48.3467 58.4967 48.7522C58.2054 49.0946 58.3362 49.3874 58.7707 49.5263C59.0407 49.6124 59.3315 49.6341 59.602 49.7183C59.8847 49.8056 60.1497 49.9486 60.0662 50.3196C59.996 50.6315 59.7866 50.8401 59.4596 50.8117C59.0949 50.7805 58.7153 50.7363 58.3801 50.6022C57.9634 50.4358 57.6865 50.5281 57.4083 50.8486C56.9422 51.3864 56.4374 51.8898 55.9746 52.4302C54.9588 53.6178 54.1992 54.9525 53.8752 56.4894C53.7675 57.0017 53.7804 57.5681 53.8712 58.0866C53.9798 58.703 54.3127 58.8561 54.943 58.7432C55.0833 58.7182 55.2186 58.6698 55.3576 58.6398C55.9195 58.5221 56.1 58.5929 56.1658 58.9534C56.2314 59.313 56.0553 59.4999 55.5533 59.5927C55.4418 59.613 55.3067 59.5784 55.2162 59.6287C54.955 59.7762 54.6086 59.8976 54.4779 60.1312C53.7781 61.3775 53.1694 62.6801 53.012 64.1147C52.9491 64.6853 53.0638 65.3152 53.2564 65.8626C53.4996 66.5535 54.0898 66.6865 54.7064 66.2722C55.1306 65.9872 55.5176 65.6461 55.916 65.3225C56.0887 65.1816 56.2393 64.9429 56.4939 65.1389C56.7783 65.3583 56.7317 65.6342 56.5355 65.8915C56.3114 66.1851 56.0531 66.4555 55.85 66.7623C55.7178 66.9618 55.5426 67.2324 55.5848 67.4301C55.8027 68.471 56.1556 69.4689 56.941 70.2361C57.486 70.7692 58.3005 70.7243 58.7289 70.0972C59.1263 69.5151 59.4872 68.8901 59.7483 68.2374C60.3437 66.7465 60.6124 65.1723 60.7674 63.5784C60.7897 63.3529 60.8433 63.129 60.8949 62.9075C60.9605 62.6294 61.1405 62.5661 61.4119 62.6157C61.9621 62.7164 62.156 62.8995 62.1731 63.4614C62.1822 63.7727 62.1297 64.0845 62.1083 64.3974C62.0902 64.6537 62.2218 64.6883 62.4208 64.5919C62.523 64.5422 62.6152 64.4737 62.7132 64.4144C64.0545 63.5974 65.0684 62.4438 65.9752 61.1919C66.3868 60.6238 66.8332 60.0575 66.4372 59.2411C66.2574 58.8697 66.5722 58.6203 67.0094 58.7073C67.4003 58.7858 67.7849 58.9091 68.1785 58.9568C70.391 59.2279 71.9105 58.5388 72.601 56.3013C72.6427 56.1661 72.6941 56.0312 72.7606 55.9066C72.8968 55.653 73.1053 55.5383 73.3992 55.6069C73.7024 55.6775 73.9394 55.8215 73.9492 56.1634C73.9554 56.3898 73.9159 56.6171 73.8986 56.8449C73.8584 57.3798 73.899 57.4808 74.4141 57.4951C75.6871 57.5309 76.8736 57.3052 77.6088 56.1012C77.8148 55.7637 77.9734 55.3967 78.1352 55.035C78.3519 54.5481 78.551 54.4765 78.9743 54.756C79.3518 55.0048 79.4792 55.3329 79.3764 55.7847C79.1673 56.7051 79.1787 56.7084 79.9876 57.164C80.1361 57.2482 80.288 57.3281 80.4426 57.4011C81.6383 57.9609 82.8496 58.0389 84.0832 57.5256C84.7759 57.2369 84.8764 57.048 84.7803 56.3243C84.7577 56.1551 84.8051 55.9205 84.9135 55.8011C85.1809 55.5072 85.4704 55.5831 85.7359 55.9822C86.1616 56.6197 86.5407 57.2929 87.01 57.8965C87.6479 58.7161 88.4647 59.3455 89.4102 59.7824C90.4207 60.2496 91.0408 59.9184 91.3186 58.8613C91.66 57.5602 91.365 56.3162 91.0197 55.0797C90.9631 54.8777 90.7131 54.6787 90.5045 54.5806C90.1808 54.4294 89.9759 54.2412 90.0093 53.8749C90.0456 53.478 90.3711 53.3928 90.6772 53.3178C91.0916 53.2172 91.5217 53.1717 91.9291 53.0508C92.6278 52.8418 92.961 52.1876 92.7056 51.5042C92.6096 51.2477 92.4273 51.0024 92.2284 50.81C90.8157 49.436 89.06 48.7231 87.1782 48.2966C86.9272 48.2402 86.5922 48.4205 86.3345 48.5609C85.9869 48.7506 85.6922 49.0373 85.346 49.2293C84.9914 49.4261 84.5348 49.2733 84.293 48.9363C84.0168 48.5505 84.2716 48.3049 84.5277 48.0606C84.9191 47.6884 85.3433 47.3442 85.696 46.9377C86.2059 46.3499 86.149 46.0314 85.5248 45.6181C84.0882 44.6689 82.511 44.1617 80.7853 44.0895C80.3417 44.0713 80.0266 44.1697 79.7789 44.562C79.5992 44.8461 79.3537 45.1008 79.0957 45.32C78.8435 45.5341 78.2904 45.4464 78.0794 45.196C77.8422 44.9152 78.0991 44.73 78.2311 44.526C78.354 44.335 78.5006 44.1574 78.6084 43.9587C79.2273 42.8116 78.9532 42.3052 77.66 42.2665C76.3516 42.2273 75.1348 42.6188 73.9434 43.1214C73.4391 43.334 73.1303 43.5934 73.2676 44.2113C73.3028 44.3711 73.1408 44.6728 72.9882 44.7503C72.8294 44.8312 72.5053 44.7968 72.3731 44.6793C72.0813 44.4203 71.8356 44.0957 71.625 43.7631C71.1955 43.0867 70.7553 42.9077 69.9918 43.164C69.3471 43.3805 68.8645 43.8182 68.432 44.3209C68.3209 44.4506 68.2485 44.6633 68.1133 44.7117C67.8664 44.8008 67.5544 44.887 67.3276 44.8076C67.0153 44.6977 67.1376 44.3858 67.2371 44.1442C67.2911 44.0122 67.3648 43.8884 67.4159 43.7553C67.588 43.3089 67.5285 43.1649 67.095 42.9463C66.3637 42.577 65.3621 42.9396 65.1332 43.7263C65.0016 44.1793 65.0188 44.6793 65.0001 45.1592C64.9656 46.0301 64.7628 46.2581 63.9054 46.3775C63.3111 46.4584 62.7226 46.5652 61.8625 46.7055ZM57.4842 75.4653C57.5058 75.4598 57.5274 75.4543 57.5489 75.4488C57.4511 75.0629 57.3613 74.6741 57.2494 74.2917C57.2221 74.198 57.1309 74.0683 57.0548 74.0575C56.9724 74.0457 56.8346 74.1328 56.7881 74.2143C56.6054 74.5354 56.4757 74.888 56.2757 75.1966C56.047 75.5487 55.7953 75.9005 55.4885 76.1815C55.3723 76.2878 55.0188 76.2732 54.8771 76.1704C54.7493 76.0774 54.6949 75.7758 54.7308 75.5901C54.7776 75.3495 54.9394 75.1273 55.0652 74.9056C55.2336 74.6085 55.4268 74.3254 55.5893 74.0254C55.8629 73.5197 55.8439 73.5457 55.332 73.3416C54.7531 73.1103 54.1915 72.8323 53.64 72.5419C53.5177 72.4776 53.3713 72.2417 53.4065 72.1471C53.4642 71.9912 53.6421 71.8533 53.8019 71.7695C53.9134 71.7112 54.0865 71.7248 54.2189 71.7592C54.9056 71.9384 55.5873 72.1365 56.2712 72.3253C56.462 72.3776 56.6531 72.452 56.8466 72.4629C57.1173 72.4782 57.2597 72.2248 57.1128 72.0006C57.0383 71.8879 56.9122 71.8086 56.8047 71.7192C56.2431 71.2495 55.6579 70.8052 55.1263 70.304C54.8665 70.0599 54.6527 69.9657 54.4136 70.2418C53.8772 70.861 53.2254 71.4325 52.8706 72.1479C52.0364 73.8327 52.4696 75.8825 54.3308 76.8239C55.3137 77.3211 56.3727 77.2584 57.418 77.3016C57.7412 77.3151 57.8823 77.0982 57.8157 76.7901C57.7187 76.3447 57.5959 75.906 57.4842 75.4653ZM97.3496 62.8395C97.2346 62.1488 96.819 61.6455 96.3938 61.1492C96.3448 61.0918 96.2488 61.0755 96.1743 61.0397C96.1478 61.1056 96.082 61.1876 96.101 61.2349C96.3493 61.8309 95.9151 62.2086 95.6421 62.6161C95.0588 63.4857 95.0451 63.4733 95.8178 64.0997C96.1047 64.3326 96.4151 64.5498 96.6515 64.8273C96.7734 64.9703 96.7575 65.2314 96.8047 65.4385C96.6034 65.4701 96.3939 65.5497 96.2023 65.5188C96.017 65.4881 95.8467 65.3493 95.676 65.2477C95.4068 65.0881 95.1567 64.8856 94.8716 64.768C94.6606 64.681 94.3602 64.6044 94.1809 64.6914C93.8931 64.8314 94.0415 65.1206 94.13 65.3685C94.2929 65.8227 94.4145 66.2918 94.5798 66.7454C94.7204 67.1329 94.8071 67.7257 95.0798 67.8394C95.5539 68.0372 95.8291 67.4436 96.1263 67.1351C97.2929 65.9251 97.6695 64.4737 97.3496 62.8395ZM67.3035 64.1454C66.8366 64.4811 66.3733 64.7513 65.9922 65.1085C65.7231 65.3605 65.8478 65.6398 66.2188 65.7233C66.8532 65.8672 67.416 65.6794 67.8378 65.2077C68.0251 64.9986 68.0773 64.6682 68.1904 64.3931C67.915 64.3172 67.64 64.2394 67.3035 64.1454Z" fill="#462683"/>
<path d="M119.938 93.8328C119.388 93.9748 119.187 93.9003 118.857 93.3843C118.428 92.7132 118.031 92.0207 117.595 91.3539C116.178 89.185 114.748 87.0251 113.33 84.8575C113.065 84.4531 112.824 84.0309 112.593 83.6063C112.45 83.3441 112.214 83.0637 112.599 82.7888C113.022 82.4862 113.471 82.4484 113.766 82.733C113.95 82.9099 114.116 83.1108 114.258 83.3219C114.849 84.1932 115.436 85.0663 116.009 85.9501C116.83 87.2145 117.632 88.4914 118.451 89.7562C118.583 89.9603 118.763 90.1329 118.921 90.3199C118.979 90.0562 119.07 89.7944 119.089 89.5273C119.231 87.5101 119.323 85.4896 119.5 83.476C119.707 81.1233 119.982 78.7765 120.233 76.4278C120.3 75.7978 120.96 75.3337 121.578 75.4995C121.71 75.535 121.857 75.6981 121.9 75.8338C121.958 76.0153 121.938 76.2288 121.921 76.4266C121.691 79.1496 121.435 81.8697 121.231 84.5943C121.044 87.091 120.914 89.5919 120.756 92.0901C120.735 92.4303 120.726 92.7753 120.66 93.1082C120.582 93.4999 120.335 93.7665 119.938 93.8328Z" fill="#462683"/>
<path d="M84.9924 73.2386C84.9948 73.0181 84.9953 72.9332 84.9965 72.8472C85.0005 72.5564 84.9028 72.4567 84.6503 72.6664C84.5408 72.7569 84.4572 72.9044 84.3342 72.9453C84.1622 73.0022 83.8609 73.0609 83.8029 72.982C83.6956 72.8343 83.673 72.5777 83.7097 72.3846C83.7444 72.201 83.8888 72.0319 84.0056 71.8724C84.2917 71.4819 84.5788 71.092 84.8849 70.7176C85.3197 70.1852 85.5838 70.1853 86.0797 70.6293C86.3709 70.8894 86.7121 71.0926 87.0126 71.3441C87.3262 71.6055 87.5562 71.5057 87.8262 71.2606C88.2676 70.8589 88.7342 70.4836 89.2066 70.1174C89.5432 69.8563 89.8962 69.6148 90.2581 69.3906C90.4732 69.2566 90.6945 69.2897 90.8636 69.5074C91.0432 69.7383 91.0786 69.9687 90.8673 70.198C90.7906 70.282 90.7069 70.3597 90.6231 70.4366C89.7823 71.2036 88.9333 71.9621 88.1027 72.7415C87.758 73.0648 87.4146 73.2499 86.9645 72.9727C86.7216 72.8232 86.5374 72.8875 86.3839 73.1111C86.3031 73.2278 86.2317 73.3784 86.1163 73.4386C85.9088 73.5469 85.6491 73.6931 85.4529 73.6474C85.2517 73.5995 85.0997 73.3413 84.9924 73.2386Z" fill="#462683"/>
<path d="M83.1029 66.5468C83.1036 66.9432 83.1623 67.544 83.0932 68.1286C82.9965 68.9454 82.4882 69.2298 81.7689 68.8451C81.3644 68.6296 80.9581 68.2813 80.7351 67.8891C80.2078 66.9628 80.1162 65.9394 80.4837 64.9223C80.7505 64.1842 81.1972 64.0542 81.8821 64.4282C82.6462 64.8466 82.7844 65.625 83.1029 66.5468Z" fill="#462683"/>
<path d="M80.5793 63.2184C79.9783 63.4397 79.3914 63.32 78.8239 63.1229C77.8081 62.771 77.5901 61.6011 78.407 60.9109C79.3063 60.152 80.3829 59.97 81.5174 60.0101C82.3872 60.0404 82.8992 61.3733 82.4481 61.977C81.9643 62.6261 81.3178 62.9817 80.5793 63.2184ZM80.2435 61.1519C80.0408 61.2722 79.6787 61.4814 79.3258 61.706C79.2672 61.743 79.2029 61.883 79.2258 61.9142C79.2838 61.9932 79.4032 62.1016 79.4733 62.0856C79.9586 61.9758 80.4504 61.8705 80.9119 61.6908C81.0654 61.6307 81.1355 61.3568 81.2435 61.1801C81.0575 61.1433 80.873 61.0983 80.6852 61.0752C80.6048 61.0647 80.5187 61.1015 80.2435 61.1519Z" fill="#462683"/>
<path d="M69.4712 69.561C69.6849 70.4943 69.7045 71.1986 69.393 71.8721C69.0744 72.5597 68.5523 72.6708 67.9475 72.2085C67.0954 71.5581 66.5988 69.6135 67.0257 68.6008C67.3486 67.8362 68.3326 67.7562 68.8935 68.4912C69.1807 68.8679 69.3507 69.3327 69.4712 69.561Z" fill="#462683"/>
<path d="M67.2841 76.0268C67.1439 75.7038 67.0401 75.3918 67.3269 75.1362C67.6014 74.8917 67.9258 74.9588 68.203 75.1323C68.6841 75.4343 69.1545 75.7567 69.6081 76.1001C69.7228 76.1867 69.7542 76.3837 69.823 76.5296C69.6787 76.591 69.5256 76.719 69.392 76.7007C68.8658 76.6283 68.8908 76.8384 69.0273 77.234C69.0998 77.4435 69.0851 77.744 68.985 77.9381C68.8331 78.231 68.5375 78.0754 68.295 78.007C68.1305 77.9613 67.9382 77.9517 67.8073 77.8568C67.3966 77.5608 67.0069 77.4591 66.5968 77.8449C66.5597 77.8799 66.4915 77.8928 66.4362 77.898C65.4705 77.9944 64.5744 77.7835 63.7665 77.2481C63.6583 77.1767 63.6339 76.9797 63.5705 76.8412C63.7015 76.8071 63.834 76.7408 63.9627 76.747C64.1594 76.7563 64.3544 76.8147 64.5499 76.8543C65.1446 76.9738 65.7284 77.036 66.2978 76.7247C66.4661 76.6326 66.6782 76.6053 66.8742 76.5804C67.4533 76.506 67.4542 76.5128 67.2841 76.0268Z" fill="#462683"/>
<path d="M76.2117 75.7584C75.4255 75.8031 74.6405 75.8564 73.8536 75.8846C73.6951 75.8903 73.4589 75.8469 73.3896 75.7408C73.2481 75.524 73.1176 75.2462 73.1255 74.9986C73.1357 74.7081 73.4176 74.6287 73.7009 74.624C74.2663 74.614 74.8374 74.6299 75.396 74.5546C76.2449 74.44 77.0497 74.1618 77.7793 73.695C77.9223 73.604 78.0724 73.52 78.2283 73.4558C78.5579 73.3201 78.7686 73.5034 78.9391 73.7543C79.124 74.0272 79.0007 74.2342 78.782 74.4133C78.0237 75.0349 77.194 75.5076 76.2117 75.7584Z" fill="#462683"/>
<path d="M77.3756 71.4114C77.5159 71.9473 77.1099 72.5616 76.5293 72.693C76.0597 72.7988 75.1796 72.3338 75.0402 71.9063C74.8827 71.4207 75.4088 70.5763 75.9536 70.4399C76.4927 70.305 77.2151 70.7993 77.3756 71.4114ZM76.2173 71.4727C76.2006 71.4522 76.1849 71.4324 76.1683 71.4118C76.1322 71.444 76.0958 71.4744 76.0643 71.5106C76.0617 71.514 76.0944 71.549 76.1111 71.5695C76.146 71.5367 76.1821 71.5046 76.2173 71.4727Z" fill="#462683"/>
<path d="M77.8818 77.6892C77.4214 77.7927 77.182 77.6812 77.0819 77.3144C76.9615 76.8741 77.1935 76.5839 77.7676 76.4551C78.2399 76.3495 78.4596 76.4528 78.5649 76.8297C78.6865 77.2679 78.4549 77.5598 77.8818 77.6892Z" fill="#462683"/>
</svg>
