<svg width="202" height="171" viewBox="0 0 202 171" fill="none" xmlns="http://www.w3.org/2000/svg">
<path d="M176.505 108.787C176.702 110.938 176.879 113.09 177.101 115.239C177.425 118.373 177.78 121.505 178.13 124.638C178.167 124.976 178.266 125.306 178.307 125.644C178.363 126.123 178.258 126.283 177.796 126.343C176.641 126.489 175.484 126.608 174.328 126.739C173.34 126.85 172.355 126.973 171.366 127.069C167.491 127.436 163.615 127.796 159.739 128.156C154.73 128.619 149.72 129.075 144.709 129.544C141.091 129.883 137.473 130.241 133.854 130.584C131.906 130.767 129.957 130.92 128.01 131.111C126.234 131.285 124.462 131.502 122.687 131.679C121.729 131.774 120.764 131.811 119.806 131.9C118.987 131.977 118.173 132.107 117.354 132.183C112.486 132.64 107.619 133.092 102.75 133.541C95.8159 134.181 88.8807 134.809 81.9476 135.46C79.7705 135.664 77.6009 135.949 75.4244 136.159C73.787 136.317 72.1433 136.407 70.5021 136.541C69.7392 136.603 68.9794 136.7 68.2184 136.782C66.8084 136.935 65.4011 137.1 63.9896 137.237C62.7777 137.356 61.5615 137.445 60.3476 137.542C59.6688 137.597 58.9912 137.646 58.3115 137.689C57.6428 137.733 57.1735 137.946 56.9052 138.672C56.2179 140.537 55.4363 142.368 54.6871 144.209C54.4675 144.747 54.4571 145.285 54.4728 145.868C54.5134 147.341 54.4998 148.822 54.3765 150.291C54.1126 153.432 53.8029 156.571 53.439 159.702C53.0977 162.633 52.6691 165.555 52.2627 168.479C52.146 169.315 52.0899 169.355 51.2709 169.491C48.5756 169.939 45.8616 170.219 43.128 170.215C40.2623 170.211 37.3924 170.213 34.5289 170.112C31.1766 169.994 27.8414 169.635 24.5295 169.101C22.454 168.766 20.3741 168.452 18.3145 168.034C16.3657 167.64 14.4289 167.173 12.5107 166.651C9.57512 165.85 6.68677 164.895 3.90167 163.66C2.75973 163.153 1.64255 162.591 0.526927 162.028C-0.0283301 161.749 -0.0890965 161.583 0.0896947 160.91C0.535048 159.234 0.960986 157.553 1.47593 155.899C1.9978 154.218 2.58076 152.552 3.1983 150.904C4.68318 146.936 6.43994 143.087 8.38508 139.322C9.65065 136.872 11.078 134.524 12.6532 132.262C12.6699 132.239 12.6798 132.21 12.7002 132.192C13.823 131.272 14.0734 129.871 14.5987 128.639C15.8853 125.629 17.3071 122.688 18.9217 119.845C20.2683 117.472 21.7075 115.151 23.3817 112.992C25.0364 110.86 26.707 108.732 28.8475 107.047C29.3444 106.656 29.5193 106.266 29.4452 105.611C29.0542 102.167 28.7333 98.7146 28.3733 95.2662C27.7532 89.3031 27.1207 83.3428 26.4992 77.3816C26.0654 73.2294 25.6252 69.0763 25.2132 64.9222C24.5425 58.167 23.8966 51.4079 23.2305 44.6522C23.156 43.8904 22.9928 43.1384 22.9074 42.3776C22.8584 41.9279 22.9106 41.4688 22.8694 41.0184C22.5894 37.8769 22.3095 34.7355 22.0031 31.5965C21.7716 29.2239 21.4731 26.8575 21.2587 24.4834C21.0971 22.7017 21.0149 20.9127 20.9125 19.1255C20.8611 18.2218 21.0015 18.0722 21.8772 17.9888C26.5456 17.547 31.2127 17.1069 35.8814 16.6666C36.1074 16.6459 36.3329 16.6032 36.5597 16.5903C36.9332 16.5671 37.0876 16.3486 37.1887 16.0109C38.1085 12.9261 40.2018 10.9331 43.2244 10.0763C45.844 9.33332 48.4757 9.59676 50.9059 10.9553C52.3455 11.7602 53.4995 12.8962 54.3071 14.3342C54.5944 14.8454 54.9061 15.0055 55.46 14.9437C57.067 14.762 58.6762 14.6051 60.2866 14.4607C62.3786 14.2722 64.4758 14.1225 66.567 13.9247C68.5459 13.7371 70.5196 13.4918 72.4986 13.3058C74.847 13.0844 77.1993 12.9066 79.5484 12.693C81.3566 12.5289 83.1637 12.3351 84.9714 12.1664C88.5916 11.8284 92.2143 11.4997 95.8349 11.1664C100.477 10.7397 105.118 10.3082 109.76 9.88454C114.428 9.45845 119.099 9.04 123.767 8.61235C128.181 8.20797 132.596 7.79254 137.01 7.3944C137.448 7.35427 137.733 7.25276 137.867 6.75953C138.505 4.40634 139.998 2.71191 142.118 1.59194C144.37 0.401748 146.751 0.226081 149.227 0.833841C151.743 1.45206 153.618 2.9024 154.948 5.07369C155.239 5.54849 155.559 5.67793 156.058 5.62742C157.359 5.49572 158.662 5.38258 159.964 5.2618C161.435 5.12545 162.908 4.99675 164.379 4.84948C165.357 4.75046 165.53 4.87604 165.627 5.84637C165.713 6.71866 165.78 7.5911 165.882 8.46195C166.16 10.8271 166.475 13.1873 166.73 15.5546C167.011 18.1804 167.229 20.8136 167.497 23.4422C167.623 24.6833 167.827 25.9157 167.958 27.1549C168.143 28.9045 168.28 30.6602 168.463 32.4101C168.867 36.3087 169.288 40.2058 169.699 44.1038C169.804 45.0923 169.907 46.0825 169.98 47.0738C170.014 47.5234 170.219 47.8017 170.608 48.0034C172.371 48.9233 173.231 50.3817 173.105 52.3705C173.067 52.9696 173.259 53.2978 173.807 53.5636C174.723 54.0093 175.608 54.5255 176.474 55.0623C176.921 55.3389 177.258 55.3488 177.706 55.0532C179.068 54.1551 180.57 53.5365 182.136 53.107C183.784 52.6558 185.467 52.4404 187.183 52.7138C188.074 52.8554 188.986 52.9008 189.861 53.102C190.572 53.2647 191.259 53.5632 191.934 53.8567C194.478 54.9643 196.587 56.6116 198.258 58.8491C200.476 61.8162 201.496 65.179 201.375 68.8177C201.28 71.6886 200.439 74.3983 198.704 76.7844C197.489 78.4549 196.143 79.9582 194.39 81.0823C192.325 82.4047 190.086 83.1662 187.658 83.5144C185.94 83.7597 184.275 83.6828 182.606 83.2872C182.551 83.2734 182.493 83.2724 182.437 83.2649C181.386 83.1098 181.405 83.1316 181.237 84.2142C181.034 85.5311 180.783 86.8429 180.506 88.1476C180.373 88.7807 180.505 89.2668 180.881 89.8045C182.966 92.7821 185.006 95.7923 187.063 98.7882C187.465 99.3737 187.906 99.9337 188.274 100.538C188.402 100.748 188.451 101.077 188.39 101.315C188.311 101.622 187.989 101.562 187.734 101.517C186.476 101.294 185.217 101.079 183.963 100.842C181.423 100.361 178.884 99.8628 176.344 99.3788C175.57 99.2312 175.462 99.3087 175.532 100.071C175.669 101.567 175.856 103.061 176.007 104.556C176.149 105.97 176.269 107.384 176.399 108.8C176.436 108.793 176.47 108.79 176.505 108.787ZM140.999 58.2461L140.992 58.2546C140.863 58.147 140.745 58.0227 140.601 57.9352C138.977 56.9461 137.346 55.9637 135.722 54.9762C133.245 53.4694 130.774 51.9559 128.298 50.4523C127.302 49.8487 126.324 49.209 125.288 48.6879C124.001 48.0403 123.955 48.0209 124.886 46.9297C126.177 45.4189 127.491 43.928 128.779 42.4158C129.994 40.9905 131.182 39.5426 132.395 38.1174C133.058 37.3384 133.751 36.5865 134.421 35.8147C134.495 35.7294 134.5 35.5858 134.537 35.4693C134.432 35.4946 134.318 35.5019 134.225 35.5497C133.112 36.1075 132.004 36.679 130.888 37.2307C128.804 38.2609 126.716 39.2836 124.627 40.305C123.837 40.6917 123.06 41.1165 122.24 41.4274C121.505 41.7053 121.239 41.4499 121.246 40.6823C121.255 39.5765 121.251 38.4704 121.239 37.3634C121.228 36.1431 121.199 34.9214 121.185 33.7014C121.153 31.2304 121.128 28.7603 121.095 26.2894C121.081 25.2093 121.052 24.1307 121.03 23.0513C120.992 21.1498 120.956 19.2481 120.913 17.3471C120.91 17.2499 120.851 17.1532 120.818 17.0556C120.773 17.1257 120.711 17.1896 120.685 17.2658C120.072 19.0352 119.461 20.8075 118.852 22.5797C118.244 24.3517 117.651 26.1302 117.03 27.8972C115.891 31.1388 114.73 34.3745 113.587 37.6148C113.339 38.3181 113.041 38.5026 112.38 38.2142C111.573 37.8622 110.785 37.4675 109.991 37.0876C108.198 36.2287 106.41 35.3583 104.609 34.511C102.528 33.5307 100.435 32.5766 98.3526 31.5981C97.2473 31.0785 96.155 30.531 95.052 30.0033C94.9633 29.9611 94.8523 29.9682 94.7505 29.9539C94.7818 30.0564 94.8071 30.1609 94.8462 30.2611C94.8666 30.3126 94.9127 30.3524 94.9468 30.398C96.015 31.8672 97.0772 33.3401 98.1542 34.8022C99.3498 36.4263 100.557 38.0415 101.763 39.6568C102.987 41.2956 104.225 42.9237 105.44 44.5696C106.057 45.4074 106.039 45.5301 105.269 46.1758C102.507 48.4973 99.7563 50.8319 96.9668 53.1181C94.4624 55.1708 91.9104 57.1665 89.378 59.1871C88.6676 59.7536 87.9556 60.3202 87.2489 60.8926C87.1655 60.96 87.1066 61.055 87.0357 61.1385C87.1343 61.1342 87.2377 61.1483 87.3312 61.1224C87.4953 61.0775 87.6526 61.0097 87.8121 60.9495C89.2441 60.4018 90.6755 59.8479 92.1099 59.3094C94.8464 58.2807 97.5831 57.2551 100.326 56.2416C101.923 55.6504 103.519 55.0531 105.137 54.523C106.229 54.1651 106.498 54.403 106.197 55.4663C105.304 58.6351 104.363 61.7909 103.432 64.9505C103.256 65.5498 103.045 66.1381 102.856 66.7339C102.832 66.8052 102.857 66.8924 102.858 66.9709C102.928 66.9441 103.017 66.9344 103.063 66.8846C103.18 66.7623 103.288 66.6283 103.385 66.4889C104.124 65.4498 104.865 64.4122 105.595 63.3661C106.815 61.6198 108.021 59.8652 109.245 58.1216C109.521 57.7269 109.804 57.3285 110.144 56.9924C110.513 56.627 110.842 56.7022 111.118 57.1421C111.193 57.2609 111.244 57.3963 111.301 57.5262C112.723 60.6919 113.863 63.9635 114.975 67.2457C115.421 68.5628 115.863 69.8835 116.318 71.1982C116.36 71.3185 116.474 71.4149 116.555 71.5223C116.618 71.4064 116.718 71.2967 116.738 71.1738C116.879 70.276 116.992 69.373 117.137 68.4763C117.549 65.9237 117.95 63.3691 118.403 60.8238C118.661 59.3714 118.983 57.9274 119.337 56.4929C119.532 55.7033 119.732 55.608 120.556 55.6111C120.924 55.612 121.295 55.6267 121.66 55.6703C122.984 55.8303 124.308 56.0046 125.631 56.1772C127.658 56.4426 129.686 56.7048 131.712 56.9797C134.047 57.2971 136.378 57.6305 138.714 57.951C139.479 58.0568 140.239 58.1476 140.999 58.2461ZM30.5316 107.262C29.9192 107.714 29.258 108.114 28.7047 108.629C26.9538 110.259 25.4224 112.089 24.0485 114.042C22.3812 116.414 20.8359 118.865 19.4205 121.395C17.6147 124.622 16.0711 127.967 14.745 131.42C14.3541 132.437 14.6271 132.552 15.236 132.936C16.4135 133.677 17.6022 134.402 18.818 135.08C22.4221 137.089 26.1452 138.852 30.037 140.226C33.0079 141.276 36.0034 142.268 39.0221 143.171C42.1264 144.098 45.3024 144.761 48.5184 145.175C49.783 145.339 51.0657 145.376 52.3404 145.462C52.7738 145.491 53.1128 145.349 53.2822 144.899C53.6426 143.944 54.0274 142.997 54.3861 142.04C54.8665 140.763 55.3257 139.48 55.8078 138.205C56.5605 136.214 57.3249 134.229 58.081 132.239C59.0397 129.717 59.9953 127.195 60.9492 124.671C61.6106 122.918 62.2966 121.175 62.6338 119.314C62.9434 117.598 62.7569 115.922 62.3802 114.247C62.3037 113.909 62.1579 113.725 61.7717 113.661C60.3957 113.43 59.489 112.506 59.245 111.147C59.1066 110.373 59.1376 109.613 59.5322 108.91C59.7212 108.572 59.617 108.395 59.2812 108.264C58.5364 107.975 57.7938 108.328 57.6497 109.122C57.5495 109.675 57.535 110.255 57.5662 110.818C57.7485 114.096 56.7338 116.898 54.3591 119.2C52.569 120.934 50.47 121.579 48.0308 121.065C47.6862 120.993 47.4427 121.045 47.1791 121.274C45.6122 122.631 44.0379 123.976 42.4604 125.32C40.1246 127.308 37.7802 129.288 35.4464 131.281C35.0179 131.647 34.5518 131.809 34.0331 131.586C33.5161 131.365 32.9633 131.147 32.547 130.789C31.7537 130.107 30.9605 129.392 30.3271 128.569C29.7473 127.815 29.3092 126.928 28.9345 126.046C28.5437 125.126 28.7575 124.577 29.5103 123.942C29.7497 123.741 29.9856 123.537 30.2214 123.332C32.2936 121.52 34.3621 119.702 36.441 117.894C37.7702 116.74 39.1083 115.596 40.4533 114.459C40.7742 114.187 40.9427 113.865 41.0602 113.466C41.2436 112.843 41.4236 112.201 41.735 111.636C42.6916 109.897 44.1215 108.589 45.8487 107.66C48.2889 106.349 50.8755 105.571 53.7022 105.836C54.0763 105.871 54.4944 105.768 54.8472 105.621C55.7312 105.251 55.8818 104.407 55.2321 103.698C54.8358 103.266 54.5824 103.228 54.2002 103.671C52.9092 105.174 50.0995 104.614 49.624 102.461C49.4656 101.744 49.3914 101.69 48.64 101.688C47.563 101.684 46.4734 101.663 45.41 101.808C42.0038 102.269 39.1211 103.692 37.1081 106.595C37.0275 106.711 36.9549 106.88 36.842 106.917C36.653 106.981 36.3789 107.042 36.248 106.952C36.1154 106.861 36.0384 106.569 36.0689 106.387C36.1032 106.178 36.2761 105.989 36.3985 105.799C36.9963 104.878 37.824 104.185 38.6567 103.495C38.7284 103.437 38.7524 103.321 38.7993 103.232C38.7166 103.223 38.6285 103.187 38.5549 103.208C37.8467 103.403 37.1017 103.523 36.441 103.826C34.2701 104.818 32.5588 106.366 31.2279 108.343C30.8641 108.884 30.5108 109.436 30.103 109.943C30.0042 110.066 29.6558 110.123 29.5211 110.042C29.3816 109.961 29.2837 109.665 29.3077 109.48C29.339 109.239 29.4923 109.008 29.6183 108.787C29.9121 108.271 30.2191 107.762 30.5213 107.252C30.523 107.253 30.5316 107.262 30.5316 107.262ZM105.133 55.7179C104.59 55.8792 104.034 56.0087 103.505 56.2049C99.9121 57.5431 96.3271 58.8995 92.7342 60.2393C90.4727 61.083 88.2054 61.9147 85.934 62.7357C85.4274 62.9189 84.9052 63.0689 84.3791 63.1768C84.1616 63.2219 83.9127 63.1127 83.6795 63.0727C83.7563 62.8472 83.7841 62.5838 83.9234 62.406C84.1652 62.0946 84.4589 61.8178 84.7607 61.5607C85.3877 61.027 86.0373 60.518 86.6715 59.9946C89.147 57.9525 91.6015 55.8871 94.0964 53.8683C97.4971 51.1174 100.928 48.4015 104.346 45.671C104.763 45.3373 104.764 45.3215 104.431 44.8617C102.816 42.6299 101.204 40.398 99.5849 38.1698C99.0508 37.4345 98.4989 36.7117 97.9544 35.9836C97.666 35.5982 97.3303 35.3649 96.7955 35.4469C95.9834 35.5716 95.1619 35.6295 94.3432 35.7171C91.9724 35.9673 89.6045 36.233 87.2319 36.4645C82.8763 36.8902 78.5193 37.3003 74.1615 37.7027C73.7672 37.7388 73.6194 37.8419 73.6651 38.2716C73.8545 40.0476 74.0067 41.8286 74.1759 43.608C74.4288 46.2647 74.6894 48.9207 74.9342 51.5765C74.9729 51.9989 74.9228 52.4294 74.9661 52.8514C75.1391 54.5158 75.3446 56.1756 75.5142 57.8387C75.7184 59.8444 75.899 61.8507 76.0829 63.8582C76.4706 68.0727 76.8488 72.2865 77.2395 76.5008C77.5095 79.4136 77.7843 82.3276 78.0699 85.2391C78.1394 85.9463 78.2281 86.0057 78.9242 85.9514C80.3083 85.8419 81.6921 85.7466 83.0734 85.6059C85.2146 85.3877 87.3512 85.1197 89.4923 84.9015C91.4715 84.6998 93.4545 84.5386 95.4353 84.354C101.432 83.7952 107.43 83.2331 113.427 82.6728C116 82.4323 118.573 82.195 121.145 81.9468C122.247 81.8396 123.348 81.734 124.442 81.5788C125.113 81.4828 125.123 81.4221 125.07 80.7402C124.989 79.7228 124.918 78.7045 124.825 77.6882C124.557 74.805 124.279 71.9243 124.009 69.0413C123.672 65.4477 123.339 61.8537 123.001 58.2603C122.871 56.8734 122.828 56.8348 121.438 56.6981C121.381 56.6923 121.326 56.6879 121.269 56.6853C120.326 56.6507 120.218 56.7564 120.086 57.6975C119.858 59.3278 119.631 60.958 119.367 62.5823C119.063 64.4601 118.718 66.3306 118.39 68.2043C118.061 70.0782 117.729 71.9507 117.395 73.8234C117.359 74.0184 117.314 74.2158 117.245 74.3998C117.067 74.8671 116.794 74.9236 116.533 74.5106C116.278 74.1065 116.075 73.6614 115.901 73.2137C115.561 72.341 115.286 71.4421 114.937 70.5734C113.414 66.7757 112.058 62.9187 110.82 59.0194C110.745 58.7842 110.627 58.5624 110.528 58.3341C110.329 58.5158 110.092 58.6696 109.939 58.8832C108.884 60.3629 107.843 61.8524 106.807 63.3431C106.046 64.4376 105.297 65.542 104.543 66.6421C103.868 67.6251 103.202 68.6133 102.51 69.5837C102.263 69.9285 101.983 70.2622 101.658 70.5293C101.468 70.685 101.133 70.8053 100.911 70.7502C100.586 70.6684 100.607 70.3223 100.676 70.0284C100.688 69.9738 100.708 69.9185 100.723 69.8652C101.668 66.7374 102.599 63.6076 103.561 60.486C104.054 58.8848 104.602 57.3005 105.124 55.7092L105.133 55.7179ZM152.976 28.5965C152.972 28.5497 152.967 28.5014 152.963 28.4546C157.036 28.0815 161.108 27.7069 165.181 27.3353C166.458 27.2184 166.443 27.2245 166.301 25.9753C165.956 22.9294 165.603 19.8827 165.296 16.8334C164.973 13.6377 164.701 10.439 164.404 7.24091C164.327 6.39923 164.252 6.29299 163.516 6.35571C161.193 6.55118 158.871 6.76705 156.551 6.99369C155.922 7.0545 155.86 7.1655 155.983 7.75463C156.651 10.9674 155.835 13.7738 153.629 16.1716C153.135 16.7089 152.564 17.2202 151.933 17.575C151.343 17.9073 151.141 18.3093 151.148 18.9342C151.173 21.7044 149.779 23.602 147.4 24.8274C145.695 25.7066 143.887 25.7056 142.121 25.0611C141.11 24.6916 140.205 24.0767 139.505 23.2119C138.525 22.0019 137.887 20.652 138.018 19.0666C138.213 16.7006 139.249 14.7966 141.327 13.5484C141.73 13.3072 142.167 13.0911 142.618 12.9681C144.214 12.5295 145.8 12.4581 147.35 13.2026C148.815 13.9061 149.932 14.948 150.604 16.4346C150.786 16.8361 151.001 16.8211 151.338 16.6377C152.106 16.22 152.707 15.596 153.202 14.9219C154.571 13.055 155.075 10.9373 154.765 8.6332C154.579 7.25453 154.475 7.18233 153.095 7.30402C149.274 7.64309 145.451 7.96656 141.63 8.30251C139.938 8.4512 138.247 8.60768 136.556 8.76884C135.794 8.84178 135.035 8.95695 134.272 9.01742C132.716 9.14108 131.156 9.23682 129.6 9.35269C128.722 9.41735 127.845 9.48356 126.97 9.57628C125.311 9.75343 123.656 9.98046 121.994 10.1296C119.938 10.3148 117.876 10.4157 115.82 10.5978C113.478 10.8045 111.139 11.0612 108.799 11.2897C108.461 11.3222 108.12 11.3032 107.781 11.3341C105.582 11.5341 103.383 11.7387 101.184 11.9479C99.3491 12.1239 97.5151 12.3155 95.6808 12.4867C93.6799 12.6747 91.6767 12.8378 89.676 13.0274C87.616 13.2224 85.5588 13.4485 83.4998 13.6372C82.0627 13.7688 80.6211 13.8506 79.1828 13.9698C77.2078 14.1318 75.2336 14.3017 73.26 14.4793C69.648 14.8039 66.0367 15.1363 62.4234 15.4642C60.2739 15.6596 58.1239 15.8502 55.9745 16.0471C55.1593 16.1218 55.1454 16.1419 55.3153 16.9154C55.7732 19.0142 55.5318 21.0293 54.6438 22.9857C54.0045 24.396 52.9705 25.4794 51.8125 26.4452C51.3249 26.8529 51.1314 27.262 51.1386 27.8901C51.1617 29.8746 50.2622 31.5005 48.7866 32.7045C46.7947 34.3283 44.4575 34.6712 42.0556 33.7596C39.6328 32.842 38.0134 30.6406 37.9815 27.9936C37.9609 26.3105 38.5083 24.7877 39.6181 23.537C40.4728 22.5723 41.5913 21.9653 42.8579 21.6198C45.8468 20.8069 48.8748 22.0855 50.3164 24.6631C50.9368 25.7725 50.9518 25.7995 51.8637 24.8593C53.9504 22.7082 54.5611 20.1264 53.9601 17.2376C53.7635 16.2921 53.7002 16.2712 52.7507 16.355C51.8168 16.4374 50.8903 16.5836 49.9565 16.6676C47.6069 16.875 45.2558 17.0495 42.9067 17.2631C40.9037 17.445 38.9052 17.6596 36.9042 17.8633C36.3405 17.9212 35.7786 17.9979 35.2146 18.0527C34.0585 18.1633 32.9004 18.2694 31.7432 18.3675C30.9243 18.4363 30.1044 18.4768 29.2858 18.5486C28.0727 18.6551 26.8639 18.7909 25.6504 18.8927C24.6601 18.9771 23.6641 19.0165 22.6739 19.1025C22.0439 19.1571 21.9976 19.2179 22.0678 19.8464C22.149 20.5793 22.2911 21.3066 22.3693 22.0397C22.658 24.7795 22.9265 27.5212 23.2104 30.2599C23.4321 32.4055 23.6708 34.5479 23.8956 36.6932C24.0319 37.9931 24.1466 39.2966 24.2908 40.5958C24.3641 41.2587 24.439 41.321 25.0932 41.2909C25.6035 41.2677 26.1113 41.2008 26.6189 41.148C31.4739 40.6498 36.327 40.147 41.1825 39.6535C47.9083 38.9698 54.6336 38.2987 61.3594 37.6149C66.3038 37.1133 71.2461 36.5898 76.191 36.0943C79.8667 35.7262 83.5468 35.3906 87.2237 35.0365C88.693 34.8956 90.1629 34.7452 91.631 34.5919C93.0134 34.4464 94.3952 34.2946 95.7748 34.1353C96.3145 34.0732 96.362 33.9573 96.0756 33.49C96.0017 33.3695 95.9113 33.2583 95.8255 33.1451C94.8595 31.8473 93.8948 30.5478 92.9242 29.252C92.6932 28.9431 92.4688 28.6211 92.7383 28.2521C93.0205 27.8664 93.3607 28.1323 93.6556 28.2624C94.9299 28.8247 96.2027 29.3871 97.464 29.9788C99.5204 30.9457 101.566 31.9371 103.619 32.9121C104.079 33.1309 104.528 33.3491 105.08 33.2828C106.292 33.134 107.513 33.0395 108.727 32.9079C110.222 32.7457 111.716 32.5444 113.214 32.4072C114.079 32.328 114.078 32.3674 114.353 31.5595C114.918 29.8919 115.476 28.2204 116.062 26.5587C117.074 23.6934 118.103 20.836 119.131 17.9771C119.67 16.4802 120.222 14.9883 120.767 13.4955C120.855 13.2548 120.932 13.0105 121.038 12.7791C121.181 12.4721 121.465 12.41 121.76 12.4631C122.093 12.5238 122.091 12.7912 122.079 13.0641C122.072 13.288 122.095 13.5137 122.122 13.736C122.201 14.4094 122.336 15.0791 122.359 15.7545C122.396 16.9173 122.36 18.0837 122.361 19.2482C122.369 22.9679 122.386 26.6882 122.386 30.4086C122.386 31.3736 122.472 31.4915 123.453 31.3985C129.192 30.8476 134.931 30.2794 140.671 29.7332C144.772 29.3371 148.875 28.9722 152.976 28.5965ZM126.577 97.041C126.574 97.0413 126.571 97.0416 126.566 97.042C126.221 93.2778 125.878 89.515 125.53 85.7511C125.463 85.0154 125.388 84.2805 125.303 83.5463C125.21 82.736 125.182 82.7181 124.34 82.7733C124.255 82.7794 124.169 82.7857 124.085 82.7934C120.386 83.1591 116.688 83.5261 112.989 83.8917C110.476 84.1407 107.964 84.396 105.451 84.6372C102.623 84.9089 99.7913 85.151 96.9646 85.4351C94.2531 85.7071 91.5481 86.0335 88.8366 86.3055C85.6703 86.6222 82.5002 86.8985 79.333 87.2059C78.2503 87.3114 78.2277 87.3559 78.3247 88.3985C78.5949 91.2784 78.8619 94.1585 79.1413 97.0375C79.2983 98.6483 79.4832 100.255 79.6402 101.866C79.7197 102.682 79.7557 103.504 79.8321 104.321C80.0838 107.051 80.3464 109.781 80.5996 112.51C80.6641 113.214 80.7005 113.92 80.765 114.624C80.9371 116.485 81.1202 118.347 81.2969 120.207C81.4789 122.125 81.6531 124.044 81.8367 125.962C81.9499 127.146 82.0833 128.329 82.184 129.514C82.2823 130.673 82.3371 131.837 82.4339 132.996C82.5048 133.838 82.6445 133.94 83.5191 133.896C83.5754 133.893 83.6329 133.886 83.689 133.881C87.9871 133.479 92.2872 133.082 96.5849 132.676C98.1104 132.531 99.6325 132.35 101.158 132.21C102.485 132.088 103.817 132.029 105.143 131.898C107.314 131.685 109.481 131.422 111.652 131.209C113.4 131.038 115.153 130.925 116.902 130.76C119.356 130.529 121.808 130.265 124.262 130.032C125.731 129.893 127.205 129.799 128.674 129.661C129.626 129.57 129.686 129.483 129.593 128.56C129.256 125.205 128.908 121.85 128.577 118.495C128.277 115.445 127.988 112.393 127.704 109.342C127.324 105.245 126.953 101.142 126.577 97.041ZM128.928 105.976C128.946 106.174 128.964 106.372 128.983 106.57C129.469 111.863 129.958 117.155 130.442 122.448C130.626 124.457 130.79 126.468 130.977 128.475C131.055 129.314 131.136 129.369 131.984 129.343C132.068 129.34 132.154 129.339 132.238 129.33C133.848 129.163 135.458 128.981 137.07 128.83C140.38 128.521 143.691 128.235 147.001 127.93C152.52 127.42 158.039 126.892 163.558 126.387C167.634 126.013 171.71 125.663 175.787 125.298C176.69 125.217 176.761 125.139 176.678 124.249C176.395 121.25 176.113 118.252 175.802 115.254C175.522 112.545 175.205 109.838 174.907 107.13C174.634 104.647 174.369 102.164 174.091 99.681C174.004 98.9078 173.981 98.88 173.16 98.7195C171.209 98.3371 169.253 97.9819 167.303 97.59C166.864 97.5014 166.599 97.5995 166.424 98.0132C166.131 98.7017 165.741 99.3426 165.132 99.7866C163.37 101.075 161.455 101.593 159.27 101.009C157.462 100.525 155.164 98.5653 154.904 96.2472C154.765 95.0041 154.732 95.0024 153.457 94.8127C153.373 94.8 153.289 94.7889 153.205 94.7729C147.598 93.7023 141.99 92.6349 136.385 91.553C135.409 91.3642 134.444 91.1226 133.48 90.8823C132.863 90.7283 132.806 90.4679 133.257 90.021C133.297 89.9812 133.344 89.9486 133.39 89.9145C134.544 89.0403 135.694 88.1585 136.854 87.2914C139.015 85.6773 141.178 84.063 143.355 82.4679C143.745 82.1822 143.899 81.8334 143.905 81.3833C143.91 80.9443 143.79 80.8296 143.334 80.8808C142.854 80.9341 142.381 81.0278 141.9 81.0718C141.138 81.1416 140.372 81.1663 139.61 81.2423C138.794 81.3249 137.984 81.4683 137.166 81.5464C134.026 81.8466 130.887 82.128 127.747 82.425C126.83 82.5121 126.787 82.568 126.867 83.4738C127.113 86.2191 127.367 88.9653 127.618 91.7101C128.057 96.4654 128.492 101.221 128.928 105.976ZM138.529 31.2512C138.534 31.2995 138.538 31.3463 138.543 31.3946C136.876 31.5472 135.21 31.6936 133.544 31.8541C130.121 32.1818 126.697 32.5128 123.274 32.8499C122.481 32.9272 122.467 32.9631 122.465 33.7225C122.46 35.2553 122.448 36.7889 122.448 38.323C122.447 38.6641 122.469 39.0047 122.494 39.3451C122.521 39.7135 122.673 39.7374 122.998 39.5803C124.681 38.7644 126.382 37.9846 128.068 37.1731C130.668 35.9212 133.26 34.6511 135.856 33.3932C136.11 33.2693 136.371 33.1119 136.64 33.0825C136.929 33.0528 137.275 33.0825 137.518 33.2205C137.834 33.4006 137.663 33.7384 137.541 33.9854C137.353 34.3657 137.168 34.7615 136.9 35.0846C135.526 36.7445 134.143 38.3974 132.729 40.0233C131.646 41.2651 130.501 42.4514 129.403 43.6789C128.362 44.8415 127.336 46.0184 126.323 47.2052C125.962 47.6264 126 47.6968 126.465 47.9781C129.452 49.7886 132.449 51.5856 135.422 53.4193C137.741 54.8494 140.034 56.3242 142.334 57.7875C142.645 57.9854 142.951 58.2025 143.214 58.455C143.526 58.7549 143.444 59.1805 143.05 59.3534C142.879 59.4288 142.66 59.4456 142.471 59.4236C140.837 59.2323 139.202 59.0315 137.568 58.8245C136.553 58.6958 135.542 58.5401 134.527 58.4162C132.527 58.1735 130.525 57.9498 128.525 57.7055C127.398 57.5667 126.276 57.3945 125.151 57.2476C124.597 57.1757 124.484 57.2772 124.515 57.8387C124.546 58.3781 124.607 58.9147 124.657 59.4524C125.054 63.8106 125.449 68.1675 125.85 72.5255C126.097 75.2109 126.351 77.8973 126.61 80.5818C126.679 81.3094 126.694 81.3097 127.483 81.2751C127.738 81.2643 127.992 81.2599 128.246 81.2351C130.42 81.0201 132.592 80.7944 134.767 80.5842C137.653 80.3057 140.539 80.0413 143.425 79.7659C144.145 79.6968 144.261 79.5888 144.38 78.924C144.567 77.8899 144.747 76.8549 144.935 75.8208C145.713 71.5734 146.479 67.324 147.281 63.0821C147.482 62.0154 147.919 61.0166 148.511 60.1026C150.161 57.5592 152.423 55.7049 155.097 54.3297C157.52 53.0846 160.092 52.3036 162.791 51.9605C163.308 51.8942 163.576 51.6983 163.754 51.1869C164.43 49.2437 165.792 48.0233 167.807 47.5574C168.56 47.3832 168.581 47.3891 168.494 46.5939C168.338 45.1842 168.14 43.7783 167.989 42.3681C167.543 38.1873 167.116 34.0047 166.675 29.8249C166.535 28.5064 166.523 28.4996 165.235 28.6302C162.607 28.8977 159.979 29.1777 157.351 29.4484C154.869 29.704 152.388 29.969 149.903 30.2046C146.115 30.5657 142.322 30.9038 138.529 31.2512ZM54.9802 88.2345C54.9798 88.2298 54.9794 88.2251 54.9789 88.2205C55.9983 88.1271 57.0163 88.0354 58.0355 87.9404C62.6188 87.5127 67.2007 87.0867 71.7838 86.6558C73.2253 86.5206 74.6668 86.3681 76.108 86.2298C76.4133 86.2003 76.6981 86.1522 76.6828 85.7622C76.6387 84.7148 76.6165 83.6653 76.5178 82.6228C76.4013 81.3855 76.1868 80.1588 76.0658 78.9235C75.8373 76.5836 75.6508 74.2399 75.4348 71.899C75.0769 68.026 74.7079 64.1524 74.3484 60.2795C74.1969 58.6431 74.0658 57.0063 73.9081 55.3704C73.7305 53.5351 73.5357 51.6999 73.3456 49.8658C73.2113 48.5704 73.0596 47.275 72.9392 45.9784C72.8181 44.6566 72.7345 43.3314 72.6195 42.0075C72.5178 40.8286 72.3863 39.6508 72.2877 38.4716C72.2451 37.9553 72.2282 37.9081 71.6694 37.9499C71.0481 37.9973 70.4282 38.0761 69.806 38.13C68.5087 38.2425 67.2078 38.335 65.912 38.4647C65.2346 38.5331 64.5665 38.687 63.8892 38.7569C62.2806 38.92 60.6673 39.0505 59.0576 39.2027C52.8108 39.7954 46.5636 40.3849 40.3178 40.9886C38.1725 41.1961 36.033 41.4502 33.8882 41.6624C31.0893 41.9408 28.2885 42.199 25.4888 42.4696C24.632 42.5528 24.5351 42.6623 24.622 43.5424C24.694 44.2761 24.8265 45.0027 24.9016 45.7361C25.2162 48.8445 25.5276 51.9516 25.825 55.0616C26.0764 57.6854 26.2952 60.3137 26.5481 62.9374C26.7635 65.1684 27.0178 67.3959 27.2348 69.6267C27.8972 76.411 28.5486 83.1963 29.2048 89.9812C29.2741 90.7041 29.2819 90.7207 30.0462 90.6397C32.4152 90.3865 34.7824 90.0958 37.1541 89.8722C43.0942 89.3108 49.037 88.7789 54.9802 88.2345ZM162.807 53.1331C162.798 53.1025 162.788 53.072 162.778 53.0414C161.41 53.4026 160.023 53.7088 158.674 54.1357C156.766 54.7395 155.037 55.7075 153.416 56.8855C151.588 58.2144 150.163 59.8852 149.088 61.8541C148.765 62.4464 148.478 63.0919 148.348 63.7483C147.846 66.3107 147.415 68.8853 146.951 71.4552C146.331 74.8929 145.711 78.329 145.079 81.7645C144.952 82.452 144.622 83.0041 144.02 83.4317C142.148 84.7648 140.309 86.1419 138.456 87.5014C137.586 88.1407 136.712 88.7725 135.849 89.4205C135.674 89.5513 135.538 89.7351 135.384 89.8953C135.585 89.9713 135.781 90.0743 135.988 90.1182C136.599 90.2493 137.216 90.3483 137.828 90.4746C141.803 91.294 145.777 92.1229 149.752 92.9391C151.782 93.3552 153.812 93.7617 155.847 94.1537C158.217 94.6093 160.595 95.0233 162.964 95.4869C166.613 96.2025 170.257 96.9485 173.904 97.6769C176.938 98.2822 179.974 98.8796 183.01 99.4817C184.039 99.686 185.068 99.9014 186.099 100.096C186.248 100.125 186.415 100.058 186.573 100.035C186.523 99.8813 186.505 99.7053 186.418 99.5765C185.919 98.8505 185.409 98.1334 184.894 97.4198C183.32 95.2331 181.735 93.0521 180.169 90.8584C179.857 90.4202 179.587 89.9467 179.348 89.4656C179.242 89.2537 179.197 88.9701 179.235 88.7356C179.515 86.9984 179.808 85.263 180.128 83.5315C180.285 82.6793 180.332 82.642 179.542 82.3341C178.893 82.0823 178.303 81.7827 177.814 81.2837C177.7 81.1669 177.516 81.1192 177.375 81.0252C176.859 80.6764 176.308 80.367 175.84 79.9619C173.601 78.0215 172.032 75.6316 171.147 72.8002C169.644 67.9838 170.386 63.4725 173.098 59.2852C173.754 58.2742 174.677 57.4337 175.495 56.532C175.873 56.1139 175.922 56.07 175.432 55.7833C174.482 55.2243 173.509 54.7037 172.52 54.219C171.986 53.9567 171.809 53.8409 171.957 53.3574C172.332 52.1332 171.96 51.067 171.373 50.0222C170.9 49.1838 169.564 48.481 168.623 48.6284C166.718 48.9272 165.415 49.9817 164.754 51.8042C164.647 52.0985 164.565 52.3999 164.462 52.6955C164.358 52.9941 164.173 53.1605 163.824 53.1342C163.489 53.1068 163.147 53.1303 162.807 53.1331ZM69.5634 135.181L69.5638 135.186C72.1683 134.947 74.7715 134.71 77.3759 134.47C78.4513 134.372 79.5272 134.278 80.5992 134.158C81.1624 134.095 81.2362 134.025 81.1981 133.455C81.102 132.012 80.9855 130.569 80.8425 129.128C80.6629 127.321 80.4335 125.52 80.2569 123.713C80.1472 122.584 80.1185 121.447 80.0118 120.317C79.7393 117.411 79.4434 114.507 79.1568 111.602C78.9843 109.855 78.8085 108.108 78.6453 106.361C78.5561 105.404 78.5025 104.442 78.4102 103.486C78.3451 102.81 78.2208 102.139 78.154 101.461C78.0067 99.9392 77.8828 98.4149 77.7433 96.8921C77.5555 94.8597 77.3553 92.8285 77.1753 90.7954C77.1036 89.9784 77.0897 89.1577 77.0134 88.3411C76.9344 87.4964 76.8607 87.4466 75.997 87.5241C74.1856 87.6869 72.3738 87.8466 70.5644 88.0312C66.9796 88.3958 63.3951 88.7807 59.8106 89.1484C54.6986 89.6733 49.5884 90.1996 44.4748 90.7073C42.2693 90.9267 40.0585 91.0883 37.8519 91.2952C35.3913 91.5269 32.9333 91.7866 30.473 92.0215C29.3855 92.1258 29.3698 92.1602 29.496 93.2803C29.726 95.3104 29.9343 97.344 30.1285 99.3789C30.3084 101.274 30.4587 103.171 30.6229 105.067C30.6332 105.18 30.6274 105.322 30.6906 105.394C30.7838 105.502 30.9629 105.656 31.0544 105.625C31.717 105.412 32.394 105.287 32.9741 104.791C33.767 104.113 34.6402 103.505 35.5508 102.995C36.9459 102.217 38.4506 101.88 40.0616 102.257C40.2881 102.31 40.5865 102.273 40.7918 102.163C42.0127 101.508 43.356 101.245 44.6761 100.916C46.0637 100.571 47.4813 100.501 48.9083 100.637C50.7001 100.808 52.4528 101.136 54.1016 101.892C54.5249 102.086 54.9214 102.073 55.2741 101.72C55.4137 101.58 55.5932 101.48 55.7398 101.347C57.2639 99.9517 59.0102 98.9917 61.0688 98.679C62.1044 98.5228 63.1524 98.3466 64.1923 98.3583C65.6603 98.3747 66.441 99.5024 66.1128 100.93C66.0555 101.179 66.0093 101.43 65.9647 101.68C65.5239 104.229 64.7592 106.605 62.4888 108.174C62.443 108.207 62.4011 108.247 62.359 108.285C61.8216 108.784 61.7908 108.894 62.1128 109.526C63.4174 112.083 63.9358 114.825 64.0262 117.665C64.0368 118.004 63.9974 118.345 63.9544 118.682C63.6645 120.957 62.8463 123.075 62.0346 125.196C60.7144 128.644 59.4088 132.099 58.1017 135.554C57.8816 136.137 57.9351 136.206 58.5241 136.185C58.6369 136.181 58.7504 136.167 58.8642 136.157C62.4309 135.835 65.9971 135.508 69.5634 135.181ZM44.6002 169.026C45.6944 168.891 45.7499 168.862 45.9395 167.826C46.3477 165.592 46.7815 163.361 47.1213 161.117C47.4827 158.731 47.7436 156.329 48.062 153.936C48.1179 153.517 47.9813 153.278 47.5699 153.196C47.3746 153.158 47.1796 153.122 46.9852 153.077C44.1913 152.432 41.3783 151.854 38.6065 151.124C34.4285 150.023 30.3472 148.605 26.3072 147.072C21.0133 145.061 15.8482 142.776 10.9093 139.992C9.76078 139.344 9.71074 139.33 9.15481 140.519C7.83295 143.349 6.51124 146.182 5.27613 149.05C3.73529 152.63 2.51791 156.327 1.55325 160.106C1.32091 161.018 1.34218 161.027 2.20491 161.472C5.12001 162.976 8.18844 164.095 11.3168 165.046C13.8989 165.831 16.5172 166.498 19.1827 166.942C22.2906 167.462 25.3979 168.011 28.5244 168.392C31.1138 168.708 33.7282 168.87 36.3368 168.967C39.0888 169.068 41.8468 169.012 44.6002 169.026ZM171.728 69.9603C171.834 70.4929 171.934 71.4362 172.212 72.3224C173.179 75.3977 174.979 77.9425 177.603 79.7847C179.782 81.3156 182.241 82.2565 184.963 82.3922C186.621 82.4746 188.281 82.4373 189.848 81.9259C192.607 81.0271 195.081 79.6469 196.951 77.3128C198.364 75.5503 199.381 73.6119 199.871 71.4201C200.364 69.2043 200.357 66.9825 199.833 64.7514C199.403 62.9235 198.618 61.2949 197.532 59.7754C196.713 58.6276 195.714 57.6645 194.606 56.8277C193.755 56.1826 192.833 55.5912 191.865 55.1486C190.126 54.3539 188.282 53.9665 186.347 53.9016C184.788 53.8496 183.283 54.0518 181.809 54.4808C179.021 55.2926 176.79 56.9289 174.975 59.1855C172.529 62.2309 171.417 65.6728 171.728 69.9603ZM53.4165 147.205C53.4619 146.758 53.2054 146.703 52.837 146.678C51.026 146.555 49.206 146.488 47.4096 146.248C42.8889 145.644 38.5052 144.442 34.183 143.02C30.5674 141.829 27.0279 140.441 23.5626 138.85C20.4567 137.424 17.4495 135.84 14.603 133.953C14.3905 133.812 14.1584 133.698 13.9473 133.555C13.6124 133.331 13.3831 133.418 13.1758 133.747C12.3744 135.018 11.5464 136.274 10.7583 137.554C10.3738 138.178 10.4147 138.247 11.0142 138.632C11.1345 138.709 11.2571 138.778 11.3841 138.843C13.5575 139.955 15.7038 141.131 17.9154 142.162C20.4882 143.361 23.087 144.519 25.735 145.543C29.7615 147.101 33.8467 148.493 38.0042 149.68C41.5887 150.701 45.2015 151.57 48.8822 152.149C49.9746 152.321 51.0736 152.462 52.1736 152.58C52.8801 152.657 52.9391 152.615 53.0044 151.955C53.1582 150.374 53.2801 148.788 53.4165 147.205ZM56.8067 104.398C56.7714 104.665 56.7604 104.836 56.7268 105.001C56.4974 106.1 55.4014 106.901 54.1254 106.921C53.3015 106.935 52.4792 106.966 51.6558 106.985C51.1224 106.996 50.6804 107.181 50.268 107.535C48.4598 109.089 46.6318 110.616 44.8147 112.157C41.4573 115.005 38.1034 117.855 34.7497 120.707C34.4041 121.001 34.0693 121.31 33.7273 121.609C33.5395 121.772 33.5232 121.937 33.6969 122.118C33.7959 122.22 33.8905 122.326 33.9937 122.424C35.3717 123.74 36.6898 125.106 37.7877 126.676C38.2763 127.377 38.3842 127.372 39.0538 126.806C40.854 125.284 42.6491 123.759 44.4405 122.227C46.7932 120.218 49.1388 118.199 51.4931 116.19C52.9626 114.936 54.4323 113.686 55.9212 112.455C56.4239 112.04 56.6601 111.599 56.5723 110.915C56.4901 110.275 56.5137 109.607 56.5963 108.964C56.8162 107.246 58.8145 106.413 60.2406 107.414C61.1629 108.062 61.1646 108.063 62.0123 107.349C62.2079 107.185 62.3822 106.994 62.5814 106.835C62.8829 106.592 62.8977 106.325 62.6919 106.017C62.3456 105.497 62.0244 104.959 61.6562 104.456C60.801 103.288 59.9119 102.144 58.7991 101.201C58.3033 100.781 58.1714 100.782 57.7061 101.176C57.2949 101.525 56.8924 101.884 56.4898 102.242C55.952 102.72 55.9612 102.718 56.2921 103.327C56.4879 103.698 56.6556 104.086 56.8067 104.398ZM48.913 168.596L48.9126 168.591C49.1105 168.573 49.3089 168.56 49.5063 168.535C51.1634 168.335 51.0915 168.511 51.336 166.702C51.7684 163.495 52.1166 160.279 52.4997 157.066C52.5977 156.249 52.7037 155.433 52.7842 154.613C52.8475 153.983 52.725 153.846 52.1223 153.787C51.3879 153.714 50.6533 153.639 49.9179 153.572C49.3776 153.524 49.323 153.564 49.2505 154.077C49.2029 154.414 49.1885 154.755 49.1424 155.093C48.7787 157.762 48.4389 160.435 48.037 163.1C47.7825 164.783 47.4324 166.451 47.1316 168.126C47.0367 168.652 47.1056 168.735 47.6393 168.71C48.065 168.689 48.4891 168.635 48.913 168.596ZM51.6625 15.2162C51.6622 15.2131 51.6619 15.21 51.663 15.2051C51.9745 15.1907 52.2882 15.184 52.5988 15.1603C52.9236 15.1368 52.9884 14.9517 52.8329 14.6956C52.6126 14.3323 52.4131 13.9387 52.1231 13.6384C51.2128 12.6923 50.1812 11.8972 48.9521 11.3999C48.4543 11.1988 47.9455 10.964 47.4205 10.8943C44.192 10.4639 41.5597 11.5663 39.5533 14.114C39.1197 14.6646 38.8235 15.3267 38.4877 15.95C38.3398 16.2229 38.4713 16.3885 38.7776 16.3871C38.9756 16.3863 39.1747 16.3633 39.3726 16.3452C40.8955 16.2057 42.4196 16.0629 43.9422 15.9219C46.5156 15.6861 49.0891 15.4519 51.6625 15.2162ZM146.332 6.52947C146.331 6.52012 146.33 6.51077 146.329 6.50142C148.394 6.31222 150.46 6.12926 152.524 5.9276C152.85 5.8962 153.166 5.77921 153.487 5.70105C153.338 5.37523 153.197 5.04713 153.037 4.72699C152.988 4.62769 152.901 4.54612 152.822 4.46371C151.607 3.18409 150.164 2.26471 148.47 1.75191C148.336 1.71077 148.197 1.67473 148.059 1.65443C144.449 1.13163 141.072 2.97034 139.424 6.13125C139.287 6.39365 139.247 6.70699 139.163 6.99599C139.459 7.03177 139.759 7.12056 140.049 7.09556C142.144 6.92094 144.238 6.72124 146.332 6.52947ZM139.351 19.306C139.359 20.5046 139.846 21.469 140.494 22.3448C141.344 23.4929 142.524 24.21 143.931 24.331C145.653 24.4798 147.211 23.9347 148.345 22.5718C149.057 21.7144 149.55 20.7074 149.582 19.5507C149.601 18.8653 149.391 18.6818 148.766 18.9182C147.887 19.2518 147 19.2639 146.086 19.1983C144.453 19.0823 142.901 18.7451 141.559 17.7395C141.151 17.4343 140.741 17.1323 140.326 16.8356C139.942 16.5595 139.803 16.5817 139.644 17.0347C139.375 17.7871 139.16 18.5565 139.351 19.306ZM44.6795 33.0289C47.2038 32.9784 49.0422 31.1706 49.5181 28.7128C49.6866 27.8423 49.5843 27.7715 48.7329 27.9658C47.8291 28.1712 46.964 28.5931 45.9936 28.4494C45.4917 28.3744 44.983 28.3298 44.4773 28.2818C43.5496 28.1923 42.6472 28.0015 41.8393 27.5207C41.1859 27.1311 40.5529 26.7065 39.9228 26.2801C39.6648 26.1057 39.4868 26.1189 39.4474 26.4431C39.3902 26.9168 39.3571 27.396 39.3411 27.8737C39.2625 30.1898 41.3999 33.2759 44.6795 33.0289ZM29.8547 125.437C29.9232 125.652 29.9542 125.888 30.0662 126.081C30.5329 126.887 30.956 127.73 31.5199 128.464C32.157 129.294 32.9655 129.969 33.9267 130.442C34.3629 130.657 34.7087 130.64 35.076 130.292C35.6905 129.707 36.336 129.153 36.9781 128.596C37.262 128.35 37.3229 128.105 37.0805 127.793C36.6651 127.256 36.3051 126.671 35.8477 126.174C34.8719 125.113 33.8512 124.093 32.8451 123.062C32.6006 122.812 32.3361 122.722 32.0272 122.987C31.4473 123.485 30.8496 123.961 30.2749 124.465C29.9895 124.713 29.7752 125.015 29.8547 125.437ZM46.9984 27.3043C47.3608 27.2287 47.9529 27.1383 48.5228 26.976C49.3132 26.7512 49.5003 26.3914 49.1617 25.646C48.7577 24.7541 48.1661 23.9579 47.3318 23.4465C45.728 22.4618 44.0029 22.1263 42.2272 22.9711C41.5977 23.2708 41.0092 23.6925 40.4807 24.1512C40.0613 24.5149 40.1166 24.7755 40.5157 25.1335C42.2991 26.7241 44.3714 27.4868 46.9984 27.3043ZM161.71 100.04C163.327 99.9096 164.564 99.1612 165.419 97.7893C165.647 97.4243 165.604 97.3024 165.206 97.1755C165.044 97.1243 164.872 97.1038 164.706 97.0704C163.09 96.75 161.476 96.4327 159.862 96.109C158.72 95.8804 157.583 95.6309 156.439 95.4166C155.875 95.3111 155.865 95.3388 155.94 95.9244C156.036 96.6717 156.312 97.3521 156.766 97.9502C158.013 99.5931 159.715 100.173 161.71 100.04ZM147.468 18.0548C147.778 18.0264 148.09 18.0009 148.4 17.9679C148.484 17.9586 148.566 17.9322 148.647 17.9106C149.353 17.7186 149.428 17.5735 149.173 16.8848C149.144 16.8058 149.113 16.7253 149.074 16.6502C147.842 14.3112 144.951 13.2636 142.864 14.0269C142.186 14.2745 141.555 14.6546 140.919 15.0067C140.593 15.1875 140.59 15.4109 140.89 15.6837C142.751 17.3867 144.895 18.3267 147.468 18.0548ZM62.595 99.4854C61.8556 99.6332 61.0173 99.7808 60.1877 99.9731C59.6475 100.098 59.6048 100.25 59.984 100.631C61.2496 101.905 62.3993 103.269 63.3946 104.766C63.6516 105.152 63.7775 105.153 63.9586 104.728C64.5525 103.336 64.9899 101.9 65.0481 100.373C65.0729 99.7346 64.862 99.4742 64.2298 99.4362C63.721 99.4073 63.2092 99.4652 62.595 99.4854ZM50.1256 120.221C50.6965 120.02 51.3082 119.868 51.8601 119.595C53.964 118.559 55.2324 116.792 56.0227 114.643C56.1132 114.396 56.0997 114.111 56.1349 113.844C55.8992 113.982 55.6354 114.088 55.4298 114.262C53.5012 115.891 51.5761 117.525 49.665 119.174C49.3795 119.42 49.1644 119.748 48.9176 120.039C49.3033 120.098 49.689 120.156 50.1256 120.221ZM110.376 34.1666C110.376 34.1698 110.377 34.1713 110.377 34.1744C109.869 34.221 109.36 34.266 108.851 34.3142C108.427 34.3546 108.005 34.3933 107.582 34.4462C107.515 34.4539 107.455 34.5317 107.393 34.5782C107.441 34.6398 107.477 34.7277 107.542 34.7595C109.067 35.5094 110.594 36.2544 112.122 36.9962C112.408 37.135 112.54 36.9752 112.621 36.7242C112.869 35.9406 113.12 35.1585 113.371 34.3764C113.479 34.0348 113.355 33.8938 113.004 33.9275C112.128 34.0077 111.252 34.0864 110.376 34.1666ZM42.759 112.451C42.8601 112.371 42.9733 112.285 43.0796 112.194C43.5956 111.752 44.1096 111.307 44.6239 110.864C45.6319 109.995 46.6384 109.127 47.6447 108.255C47.7058 108.202 47.7409 108.122 47.7898 108.054C47.6951 108.051 47.5833 108.014 47.5063 108.049C46.2342 108.626 45.0237 109.309 44.0724 110.352C43.5597 110.914 43.124 111.545 42.6593 112.152C42.613 112.213 42.6094 112.311 42.6043 112.393C42.6025 112.407 42.6907 112.426 42.759 112.451ZM60.4798 110.779C60.5441 111.224 60.7219 111.81 61.2655 112.202C61.3665 112.274 61.5164 112.281 61.6441 112.319C61.6807 112.17 61.7845 111.998 61.7419 111.877C61.5424 111.294 61.3199 110.719 61.0718 110.156C60.9906 109.973 60.8052 109.836 60.6682 109.679C60.5927 109.901 60.5076 110.122 60.445 110.348C60.4235 110.423 60.4553 110.512 60.4798 110.779ZM52.5394 103.3C52.6209 103.263 52.8378 103.194 53.0167 103.071C53.3034 102.872 53.271 102.639 52.933 102.535C52.3702 102.362 51.8 102.211 51.2233 102.093C50.9125 102.028 50.8219 102.189 50.9515 102.488C51.1749 103.005 51.7864 103.35 52.5394 103.3Z" fill="#462683"/>
<path d="M104.601 86.4152C106.849 86.1951 108.923 86.7344 110.93 87.7262C114.102 89.2934 116.191 91.7442 117.001 95.1829C117.61 97.7645 117.211 100.261 115.878 102.574C114.475 105.008 112.501 106.885 110.169 108.43C109.038 109.178 107.749 109.678 106.779 110.689C106.031 111.47 105.479 112.346 105.184 113.364C104.829 114.598 104.683 115.869 104.764 117.156C104.778 117.355 104.799 117.554 104.787 117.751C104.757 118.308 104.585 118.422 104.037 118.377C102.312 118.23 100.587 118.102 98.8613 117.967C98.7474 117.959 98.6343 117.96 98.5206 117.955C97.1344 117.887 97.1241 117.877 97.1466 116.51C97.1953 113.559 97.75 110.709 98.878 107.976C99.6977 105.994 101.056 104.483 102.901 103.401C104.367 102.542 105.871 101.755 107.231 100.711C108.328 99.8706 108.606 98.8031 108.406 97.5562C108.237 96.5106 107.373 95.0668 105.9 94.8591C105.358 94.783 104.752 94.8197 104.233 94.9851C102.492 95.5422 101.262 96.7127 100.5 98.3715C100.346 98.7063 100.225 99.0584 100.072 99.3931C99.8363 99.9067 99.6631 100.04 99.1503 99.9161C97.3308 99.4761 95.5094 99.0331 93.7101 98.522C92.8209 98.2687 92.7435 98.0935 92.7991 97.1563C92.8697 95.9538 93.1669 94.7886 93.7103 93.7203C95.5995 89.9967 98.6426 87.7171 102.67 86.7257C103.301 86.5688 103.957 86.5166 104.601 86.4152ZM116.352 96.8203C116.129 96.0313 115.905 95.244 115.683 94.4548C114.851 91.4913 112.742 89.6271 110.121 88.3536C108.129 87.3855 105.943 87.1661 103.721 87.5238C100.341 88.0691 97.6965 89.759 95.7325 92.5464C94.7826 93.8956 94.2388 95.4056 93.906 97.0062C93.8394 97.3251 93.7798 97.6355 94.2319 97.7324C95.6201 98.028 97.0024 98.3446 98.3939 98.6242C99.0841 98.7637 99.1154 98.7452 99.3709 98.0349C99.6641 97.2206 100.069 96.4919 100.665 95.8574C102.264 94.1564 104.198 93.4102 106.508 93.8761C107.939 94.1662 109.046 94.9622 109.357 96.4662C109.851 98.8572 109.185 100.485 107.244 101.878C106.278 102.572 105.227 103.146 104.221 103.782C103.575 104.19 102.889 104.554 102.303 105.04C100.893 106.212 100.009 107.745 99.3423 109.441C98.6999 111.076 98.5373 112.801 98.2341 114.501C98.1355 115.054 98.0549 115.616 98.0372 116.177C98.0144 116.872 98.047 116.885 98.7325 116.956C100.172 117.104 101.61 117.246 103.05 117.386C103.781 117.457 103.85 117.403 103.833 116.681C103.795 115.156 104.028 113.686 104.664 112.29C105.277 110.945 106.097 109.81 107.45 109.073C110.224 107.563 112.665 105.642 114.475 103.007C115.751 101.152 116.479 99.1333 116.352 96.8203Z" fill="#462683"/>
<path d="M105.058 123.705C105.479 125.867 103.627 128.144 101.237 128.35C99.0987 128.535 96.9944 126.719 96.8536 124.48C96.7125 122.253 98.3953 120.274 100.558 120.018C102.534 119.782 105.252 121.652 105.058 123.705ZM97.8839 124.386C97.7952 125.837 99.5229 127.453 101.354 127.277C103.337 127.088 104.397 125.702 104.264 124.027C104.099 121.938 103.034 120.792 100.726 120.905C99.3299 120.971 97.5686 122.522 97.8839 124.386Z" fill="#462683"/>
<path d="M68.4778 62.3793C68.5658 64.1976 68.4892 65.8833 68.1946 67.5748C67.8721 69.4244 67.1705 71.117 66.2849 72.7385C65.2999 74.545 64.0596 76.1738 62.4118 77.436C61.4468 78.1751 60.4533 78.8933 59.4042 79.5033C57.5523 80.5799 55.5429 81.2764 53.411 81.544C51.9177 81.7311 50.4141 81.8578 48.9094 81.6624C47.0531 81.4222 45.2225 81.0839 43.5343 80.2074C42.7587 79.8054 41.9539 79.461 41.1742 79.0657C40.8512 78.9019 40.5403 78.6993 40.2612 78.4671C39.5226 77.8511 38.7651 77.2509 38.0868 76.5728C34.5003 72.9892 32.8366 68.6402 32.9468 63.58C32.9888 61.6539 33.3062 59.7827 33.9995 57.9997C34.4397 56.8686 34.9821 55.7549 35.6417 54.7372C37.2128 52.3111 39.1241 50.2185 41.6956 48.7617C43.5694 47.7004 45.5352 47.0095 47.6255 46.5445C49.2428 46.1842 50.827 46.2858 52.4453 46.3985C54.1632 46.5193 55.7899 46.9644 57.3881 47.5441C58.9488 48.11 60.3238 49.0167 61.6434 50.0039C63.2276 51.1869 64.5275 52.6459 65.5985 54.3002C66.7006 56.0021 67.5512 57.8228 67.9897 59.8134C68.1901 60.6972 68.332 61.5942 68.4778 62.3793ZM34.4318 65.5155C34.4499 65.7135 34.4603 65.9122 34.4877 66.1093C34.949 69.429 36.2392 72.36 38.4715 74.8872C39.4029 75.943 40.4998 76.7651 41.5957 77.6266C43.2554 78.93 45.1918 79.5306 47.1476 80.1028C47.8468 80.3059 48.6012 80.3578 49.3342 80.3976C50.6612 80.4709 51.9887 80.4467 53.3025 80.1881C53.6052 80.1289 53.9226 80.1454 54.223 80.0786C55.6438 79.7692 56.9821 79.2458 58.2679 78.5607C60.8515 77.1844 62.9693 75.3212 64.5445 72.8366C65.8724 70.7408 66.7833 68.5025 67.0691 66.0291C67.2821 64.1848 67.2186 62.3595 66.8356 60.5289C66.2084 57.5262 64.8303 54.905 62.7566 52.7028C61.24 51.0908 59.4323 49.7852 57.3503 48.9339C56.5143 48.5924 55.6732 48.2466 54.8063 47.9975C53.2115 47.5401 51.5609 47.399 49.9147 47.479C48.7318 47.5371 47.5368 47.7205 46.392 48.0234C45.3593 48.2971 44.3865 48.7965 43.3953 49.2142C41.2511 50.1195 39.5339 51.638 38.0883 53.3751C35.1788 56.8732 34.0419 60.9853 34.4318 65.5155Z" fill="#462683"/>
<path d="M187.439 75.9538C186.081 76.0781 184.724 76.2103 183.364 76.3239C182.556 76.3916 181.784 76.244 181.369 75.4787C180.949 74.6999 181.213 73.9433 181.668 73.2352C182.253 72.3266 183.094 71.6962 183.962 71.1076C185.182 70.2774 186.442 69.5098 187.464 68.4181C188.31 67.5139 188.966 66.4777 189.444 65.3588C190.079 63.8703 189.374 61.3526 188.157 60.3418C187.118 59.4767 185.37 59.4403 183.984 60.273C183.09 60.8091 182.377 61.5299 181.867 62.4458C181.729 62.6942 181.616 62.9701 181.424 63.1685C181.296 63.3013 181.037 63.3957 180.857 63.3713C180.563 63.3307 180.446 63.0663 180.524 62.7857C180.6 62.5147 180.721 62.2553 180.847 62.0017C181.845 59.9927 183.456 58.877 185.684 58.5486C187.956 58.2132 190.343 60.349 190.595 62.0376C190.65 62.4003 190.798 62.7482 190.866 63.1098C190.918 63.3833 190.967 63.6805 190.918 63.9476C190.56 65.8774 189.828 67.5933 188.411 69.0434C187.119 70.3641 185.554 71.2808 184.106 72.3706C183.463 72.8539 182.881 73.3819 182.518 74.1193C182.372 74.4155 182.27 74.6921 182.467 75.001C182.678 75.3337 182.994 75.2686 183.307 75.2337C185.96 74.9403 188.613 74.647 191.268 74.3582C191.521 74.3302 191.778 74.3209 192.034 74.3163C192.346 74.3113 192.608 74.4005 192.647 74.7631C192.685 75.107 192.495 75.3035 192.174 75.3597C191.586 75.4623 190.998 75.5664 190.405 75.6317C189.417 75.7396 188.426 75.8178 187.436 75.9084C187.436 75.921 187.437 75.9366 187.439 75.9538Z" fill="#462683"/>
<path d="M47.9024 149.609C47.8195 148.532 48.6133 147.589 49.6785 147.499C50.8249 147.402 51.7449 148.231 51.8168 149.428C51.8792 150.452 51.0582 151.39 50.0442 151.456C48.9336 151.531 47.9864 150.714 47.9024 149.609Z" fill="#462683"/>
<path d="M46.7933 56.4317C46.9208 58.3203 46.7087 60.174 46.1514 61.9838C45.8185 63.0674 45.1777 63.9654 44.3535 64.7309C44.1478 64.9211 43.911 65.0984 43.6557 65.2114C42.6138 65.6762 41.5441 64.9631 41.6555 63.8291C41.7239 63.1344 41.8697 62.4091 42.161 61.7804C42.7956 60.4036 43.0515 58.9766 43.0731 57.4798C43.0806 56.9432 43.1122 56.3965 43.2166 55.8714C43.4119 54.8978 44.018 54.3425 44.9254 54.2107C45.8203 54.0799 46.5046 54.5328 46.6939 55.4145C46.7635 55.746 46.7622 56.092 46.7933 56.4317Z" fill="#462683"/>
<path d="M58.5879 56.0732C58.6077 58.2105 58.452 60.0449 57.5627 61.7122C57.1429 62.5004 56.6485 63.2797 55.8069 63.7356C54.6105 64.3843 53.4254 63.7149 53.4848 62.3561C53.5152 61.6586 53.7012 60.961 53.8728 60.2773C54.0596 59.5372 54.3477 58.8224 54.5234 58.0801C54.6664 57.4792 54.7064 56.8531 54.7932 56.2385C54.8634 55.7354 54.9286 55.2296 55.0084 54.7272C55.1128 54.0653 55.4921 53.6251 56.1588 53.542C56.8098 53.4603 57.4546 53.6355 57.79 54.2256C58.1626 54.8783 58.3946 55.6099 58.5879 56.0732Z" fill="#462683"/>
<path d="M50.1409 69.1799C48.8493 69.1159 47.5775 69.0438 46.4873 68.2446C46.2885 68.0993 46.1178 67.9515 46.3047 67.6923C46.4705 67.4602 46.6854 67.3525 46.9627 67.5142C47.0854 67.5847 47.2041 67.6618 47.3213 67.7406C48.9629 68.8288 50.9734 68.522 52.4537 67.3522C52.691 67.1639 52.8639 66.8887 53.0452 66.6379C53.2475 66.3584 53.4717 66.1462 53.8148 66.3913C54.1427 66.6254 53.9679 66.896 53.7992 67.1299C53.2744 67.8523 52.6728 68.4748 51.7605 68.7077C51.2153 68.8472 50.6766 69.0223 50.1409 69.1799Z" fill="#462683"/>
<path d="M49.7732 66.0493C49.278 66.0852 48.9415 65.8455 48.9251 65.4429C48.9053 64.9871 49.2189 64.5652 49.6156 64.5179C50.1103 64.46 50.4786 64.7376 50.5091 65.1908C50.5375 65.6553 50.2294 66.0169 49.7732 66.0493Z" fill="#462683"/>
</svg>
