<svg width="241" height="212" viewBox="0 0 241 212" fill="none" xmlns="http://www.w3.org/2000/svg">
<path d="M234.081 141.583C234.038 145.172 233.977 148.763 233.952 152.352C233.927 155.947 233.941 159.539 233.923 163.134C233.92 164.159 233.838 165.18 233.823 166.205C233.798 167.965 233.788 169.725 233.784 171.489C233.781 172.856 233.809 174.224 233.806 175.591C233.802 177.216 233.773 178.84 233.759 180.465C233.745 182.229 233.738 183.996 233.713 185.76C233.691 187.263 233.638 188.766 233.631 190.273C233.616 192.836 233.638 195.4 233.62 197.963C233.602 200.388 233.545 202.812 233.524 205.236C233.509 206.943 233.527 208.646 233.538 210.353C233.545 211.288 233.341 211.502 232.402 211.517C230.721 211.542 229.043 211.599 227.361 211.599C225.508 211.599 223.659 211.56 221.806 211.52C221.063 211.502 220.884 211.32 220.895 210.592C220.917 209.339 220.988 208.086 221.002 206.832C221.013 205.811 220.956 204.786 220.956 203.765C220.956 202.169 220.984 200.573 220.984 198.977C220.984 197.639 220.959 196.303 220.945 194.964C220.934 193.882 220.927 192.797 220.917 191.715C220.906 190.876 220.817 190.816 219.963 190.841C217.542 190.912 215.125 190.965 212.705 191.026C210.966 191.073 209.227 191.119 207.488 191.176C206.828 191.198 206.706 191.333 206.706 192.008C206.717 196.742 206.731 201.477 206.735 206.211C206.735 207.407 206.724 208.607 206.688 209.803C206.656 211.031 206.306 211.352 205.071 211.356C201.847 211.356 198.623 211.352 195.399 211.356C195.085 211.356 194.77 211.367 194.46 211.399C194.056 211.438 193.874 211.249 193.849 210.87C193.831 210.613 193.806 210.356 193.81 210.103C193.824 204.712 193.842 199.32 193.853 193.929C193.853 193.272 193.842 192.615 193.824 191.962C193.799 191.194 193.767 191.165 192.967 191.148C192.568 191.14 192.168 191.158 191.768 191.162C188.008 191.212 184.252 191.258 180.492 191.308C180.293 191.312 180.093 191.312 179.893 191.315C179.489 191.326 179.279 191.476 179.275 191.937C179.25 194.072 179.168 196.207 179.154 198.342C179.129 202.305 179.143 206.272 179.129 210.235C179.125 211.26 178.882 211.506 177.868 211.51C174.444 211.527 171.02 211.535 167.596 211.545C167.511 211.545 167.425 211.545 167.339 211.542C166.561 211.502 166.443 211.392 166.436 210.631C166.429 210.003 166.439 209.374 166.439 208.75C166.439 203.273 166.436 197.796 166.432 192.319C166.432 191.562 166.422 191.555 165.679 191.551C159.638 191.537 153.597 191.522 147.556 191.512C142.307 191.501 137.059 191.487 131.807 191.48C130.268 191.476 128.725 191.487 127.186 191.497C126.872 191.497 126.558 191.515 126.247 191.53C125.912 191.544 125.733 191.683 125.744 192.062C125.787 193.629 125.819 195.193 125.837 196.76C125.848 197.756 125.815 198.753 125.819 199.745C125.826 202.426 125.848 205.104 125.858 207.786C125.862 208.207 126.023 208.696 125.637 208.996C125.151 209.374 124.691 209.853 124.02 209.892C123.252 209.935 122.484 209.949 121.717 209.953C118.978 209.974 116.24 209.978 113.501 210.01C109.027 210.064 104.554 210.142 100.08 210.203C96.2597 210.253 92.4358 210.285 88.6155 210.338C85.0808 210.388 81.5425 210.456 78.0078 210.51C74.5303 210.567 71.0563 210.613 67.5787 210.67C63.4477 210.738 59.3204 210.828 55.1894 210.888C51.1406 210.945 47.0918 210.974 43.0429 211.028C38.7692 211.085 34.4954 211.167 30.2216 211.224C27.6581 211.26 25.0945 211.252 22.531 211.295C21.0207 211.32 19.514 211.406 18.0037 211.463C16.8933 211.502 15.7865 211.552 14.6761 211.57C13.9478 211.581 13.3622 210.903 13.3622 210.089C13.3587 208.321 13.3765 206.55 13.3551 204.783C13.3015 200.763 13.223 196.746 13.1623 192.726C13.123 190.223 13.0944 187.724 13.0766 185.221C13.0695 184.342 13.3087 183.628 14.0299 182.968C16.4078 180.797 18.6964 178.53 21.01 176.288C21.642 175.673 22.2704 175.049 22.8345 174.374C23.0523 174.117 23.1915 173.71 23.1915 173.367C23.1951 170.771 23.1487 168.179 23.1273 165.584C23.0987 161.763 23.0808 157.939 23.0523 154.119C23.0273 151.188 22.9844 148.256 22.963 145.325C22.9452 143.047 22.9523 140.766 22.9452 138.484C22.9452 138.313 22.963 138.138 22.938 137.97C22.9202 137.845 22.8452 137.727 22.7952 137.606C22.7095 137.674 22.606 137.727 22.5346 137.809C21.3064 139.238 20.0853 140.666 18.8606 142.094C16.6184 144.715 14.3691 147.328 12.1304 149.956C11.8734 150.256 11.6056 150.384 11.2343 150.224C10.9058 150.081 10.7987 149.842 10.8237 149.47C10.9379 147.649 11.0343 145.829 11.1164 144.008C11.2307 141.444 11.3235 138.881 11.4306 136.317C11.5556 133.354 11.677 130.394 11.8127 127.434C11.8519 126.609 11.9198 125.784 11.9912 124.963C12.034 124.488 11.8341 124.242 11.3842 124.085C9.93108 123.585 8.48863 123.042 7.03905 122.525C4.88967 121.76 2.73673 121.014 0.590918 120.247C-0.123162 119.993 -0.187429 119.64 0.383835 119.165C0.640903 118.951 0.947957 118.779 1.25501 118.64C4.13632 117.337 7.01763 116.044 9.90251 114.755C10.6059 114.441 11.3021 114.102 12.0269 113.848C12.6981 113.613 13.0266 113.202 13.1337 112.502C13.3944 110.814 13.7121 109.132 14.0013 107.447C14.3976 105.115 14.7832 102.78 15.1867 100.449C15.5794 98.1744 15.99 95.9037 16.4042 93.6329C16.4827 93.2152 16.6041 92.801 16.747 92.3976C16.9255 91.8941 17.1825 91.7584 17.661 91.9798C17.9538 92.1155 18.2394 92.3547 18.4322 92.6153C19.7818 94.4505 21.11 96.3071 22.4417 98.1566C22.5239 98.2709 22.581 98.4101 22.6774 98.5101C22.7095 98.5422 22.9095 98.4779 22.913 98.4458C22.938 98.1923 22.9487 97.9352 22.938 97.6782C22.8345 94.8575 22.7095 92.0405 22.6203 89.2199C22.5239 86.3136 22.4703 83.4073 22.3739 80.501C22.2954 78.1088 22.1704 75.7202 22.0883 73.3281C22.0062 70.9645 21.9526 68.5973 21.8812 66.2337C21.8348 64.6948 21.7741 63.156 21.7312 61.6172C21.7205 61.1887 21.7205 60.7603 21.7527 60.3354C21.8098 59.5999 22.1847 59.2393 22.9059 59.25C24.0448 59.2678 25.1838 59.35 26.3228 59.35C27.8009 59.35 29.2791 59.2786 30.7608 59.2714C34.5275 59.2571 38.2907 59.2786 42.0575 59.2536C44.2819 59.2393 46.5062 59.1714 48.7306 59.1286C48.902 59.125 49.0733 59.1143 49.2447 59.1143C51.7797 59.1179 54.3147 59.1429 56.8461 59.1286C60.5522 59.1036 64.2582 59.0429 67.9679 59.0108C73.2699 58.9679 78.5684 58.9358 83.8704 58.8965C86.409 58.8787 88.9475 58.8465 91.4825 58.8251C93.0463 58.8108 94.6102 58.8108 96.174 58.8001C96.3168 58.8001 96.4596 58.768 96.5989 58.768C97.0273 58.7716 97.1844 58.5538 97.2237 58.136C97.3844 56.4615 97.5307 54.787 97.7628 53.1196C98.0877 50.781 98.4126 48.4353 98.8696 46.1181C99.3588 43.6295 99.9158 41.1517 100.594 38.7095C101.351 35.996 102.233 33.3146 103.154 30.6511C103.793 28.7945 104.525 26.9629 105.332 25.1706C106.585 22.3892 107.813 19.5936 109.427 16.9944C110.527 15.227 111.541 13.4097 112.68 11.6709C114.965 8.18262 117.568 4.9407 120.456 1.92372C120.888 1.47028 121.277 0.973992 121.706 0.51341C122.295 -0.12212 122.831 -0.172105 123.495 0.388447C124.687 1.40244 125.869 2.43428 127.029 3.48398C128.7 4.99426 130.282 6.59023 131.721 8.32901C133.72 10.7497 135.613 13.249 137.187 15.9732C138.23 17.7727 139.297 19.565 140.204 21.4359C141.611 24.3315 142.86 27.3057 143.889 30.3619C145.545 35.2891 146.824 40.309 147.616 45.4504C148.116 48.6923 148.512 51.9414 148.684 55.219C148.727 56.0152 148.787 56.8114 148.827 57.6076C148.891 58.9465 148.884 58.9429 150.269 58.9287C151.269 58.9179 152.265 58.9144 153.265 58.9144C157.431 58.9072 161.594 58.9001 165.761 58.8965C170.61 58.893 175.462 58.868 180.31 58.9072C181.153 58.9144 181.61 58.6252 181.974 57.904C183.527 54.8191 185.866 52.3556 188.422 50.1098C190.072 48.6602 191.971 47.532 193.974 46.6072C195.527 45.8896 197.131 45.3147 198.794 44.8792C200.976 44.3043 203.182 43.808 205.432 43.8901C207.667 43.9687 209.905 44.0794 212.105 44.722C213.719 45.1969 215.286 45.7503 216.803 46.4394C217.857 46.9179 218.931 47.3534 219.853 48.1246C220.806 48.9208 221.963 49.4778 222.895 50.2954C224.408 51.6272 225.919 52.9875 227.04 54.7013C227.939 56.0795 228.914 57.4148 229.707 58.8537C230.307 59.9427 230.699 61.1494 231.139 62.3241C232.042 64.7448 232.406 67.287 232.649 69.8398C232.749 70.8823 232.699 71.9463 232.631 72.996C232.456 75.7702 231.856 78.4587 230.885 81.0687C229.925 83.6572 228.539 85.9923 226.865 88.1773C225.994 89.3163 225.033 90.3446 223.934 91.2622C223.494 91.6263 223.169 92.0405 223.091 92.7439C222.88 94.6576 223.062 96.5642 223.016 98.4708C222.977 100.095 222.984 101.72 222.991 103.344C222.991 103.641 223.094 103.937 223.152 104.233C223.377 104.037 223.637 103.866 223.819 103.634C224.773 102.423 225.704 101.199 226.643 99.9811C226.697 99.9132 226.743 99.8418 226.801 99.7776C227.975 98.3672 228.157 98.6493 229.082 99.7597C232.185 103.476 235.191 107.275 238.236 111.042C239.061 112.06 239.879 113.084 240.721 114.088C240.964 114.377 241.043 114.67 240.979 115.034C240.921 115.366 240.743 115.552 240.418 115.573C240.132 115.591 239.847 115.591 239.565 115.58C238.112 115.527 236.658 115.455 235.205 115.419C234.37 115.398 234.291 115.459 234.252 116.337C234.181 117.815 234.152 119.297 234.134 120.775C234.109 123.428 234.098 126.081 234.095 128.73C234.088 131.668 234.095 134.603 234.098 137.542C234.098 138.881 234.098 140.219 234.098 141.558C234.091 141.583 234.084 141.583 234.081 141.583ZM87.8621 116.808C87.9335 116.762 88.0156 116.726 88.0763 116.669C89.5438 115.198 91.0076 113.724 92.4786 112.253C94.2924 110.439 96.1062 108.625 97.9235 106.818C99.4195 105.333 100.912 103.844 102.426 102.377C102.897 101.92 102.997 101.466 102.736 100.845C102.354 99.9275 102.029 98.9814 101.73 98.0316C100.33 93.5972 99.091 89.1199 98.3377 84.5284C97.9735 82.3112 97.695 80.0761 97.4379 77.8446C97.2594 76.2915 97.1487 74.7241 97.0773 73.1603C96.9809 71.0859 96.9381 69.0079 96.9024 66.9299C96.8809 65.8195 96.9166 64.7056 96.9238 63.5952C96.9238 63.5202 96.8774 63.4452 96.8524 63.3702C96.7917 63.4167 96.706 63.4524 96.6774 63.5166C96.5239 63.8522 96.3596 64.1879 96.2454 64.5378C95.542 66.6443 94.803 68.7401 94.171 70.8681C93.4641 73.2424 92.8107 75.6381 92.2251 78.0446C91.7538 79.9797 91.4075 81.947 91.0183 83.9036C90.7006 85.496 90.365 87.0848 90.1115 88.6879C89.7044 91.2729 89.3046 93.865 88.9939 96.4642C88.594 99.8275 88.2299 103.198 87.9657 106.576C87.7871 108.846 87.7729 111.131 87.7407 113.409C87.7229 114.545 87.8264 115.68 87.8764 116.815L87.8621 116.808ZM193.931 138.424C193.914 138.424 193.896 138.424 193.878 138.424C193.878 136.371 193.874 134.318 193.878 132.261C193.878 131.568 193.824 131.543 193.085 131.511C191.636 131.443 190.183 131.358 188.737 131.236C187.865 131.165 187.601 130.533 188.115 129.801C188.476 129.287 188.879 128.808 189.272 128.319C190.7 126.545 192.128 124.77 193.557 122.996C194.949 121.264 196.345 119.533 197.727 117.794C198.487 116.833 199.251 115.873 199.955 114.873C200.49 114.109 201.012 114.016 201.651 114.713C202.076 115.173 202.49 115.644 202.89 116.13C204.757 118.394 206.646 120.639 208.467 122.939C209.67 124.456 210.769 126.056 211.916 127.62C212.469 128.376 213.047 129.116 213.561 129.897C214.133 130.765 213.908 131.183 212.876 131.293C212.733 131.308 212.594 131.318 212.451 131.322C210.855 131.347 209.263 131.361 207.667 131.401C207.124 131.411 207.021 131.515 206.988 132.061C206.946 132.743 206.935 133.425 206.935 134.107C206.935 135.985 206.963 137.863 206.956 139.741C206.942 143.219 206.906 146.7 206.881 150.177C206.863 153.001 206.838 155.826 206.835 158.646C206.831 162.438 206.856 166.226 206.853 170.018C206.849 172.232 206.803 174.449 206.792 176.662C206.781 178.623 206.81 180.583 206.796 182.543C206.781 184.682 206.731 186.82 206.713 188.959C206.706 189.844 206.796 189.926 207.71 189.905C209.302 189.866 210.898 189.798 212.49 189.755C215 189.687 217.507 189.63 220.017 189.566C220.856 189.544 220.924 189.477 220.927 188.609C220.934 186.674 220.924 184.739 220.927 182.804C220.934 179.554 220.963 176.309 220.959 173.06C220.956 169.697 220.909 166.333 220.902 162.966C220.891 158.946 220.891 154.926 220.902 150.906C220.906 148.624 220.949 146.343 220.949 144.061C220.949 140.951 220.917 137.845 220.917 134.735C220.917 132.343 220.952 129.951 220.952 127.562C220.952 125.113 220.931 122.667 220.92 120.218C220.913 118.936 220.924 117.655 220.902 116.373C220.891 115.734 220.802 115.662 220.131 115.634C219.392 115.602 218.649 115.598 217.91 115.562C217.343 115.534 216.768 115.512 216.204 115.427C215.475 115.316 215.225 114.677 215.668 114.109C217.3 112.02 218.914 109.917 220.577 107.854C221.291 106.968 221.695 106.04 221.591 104.88C221.488 103.716 221.438 102.548 221.431 101.381C221.416 98.8707 221.441 96.3643 221.448 93.8543C221.448 93.7472 221.424 93.64 221.409 93.5329C221.281 93.5686 221.138 93.5829 221.027 93.6507C220.367 94.0399 219.72 94.4505 219.056 94.8361C218.714 95.0361 218.332 95.1717 217.992 95.3753C216.386 96.3393 214.633 96.9391 212.844 97.4282C210.698 98.0138 208.502 98.3672 206.274 98.353C204.768 98.3458 203.232 98.3458 201.758 98.0745C199.076 97.5782 196.481 96.807 193.956 95.6823C191.514 94.5969 189.493 92.9652 187.448 91.3657C185.795 90.0732 184.438 88.4237 183.313 86.6242C182.724 85.6816 182.171 84.7141 181.664 83.7286C181.132 82.6968 180.621 81.6435 180.196 80.5653C179.821 79.612 179.511 78.623 179.296 77.6233C178.996 76.2058 178.793 74.7669 178.586 73.3281C178.336 71.5929 178.514 69.8576 178.625 68.1189C178.672 67.3619 178.664 67.3548 177.9 67.3727C176.362 67.4119 174.826 67.4833 173.291 67.5012C166.821 67.5726 160.348 67.6333 153.879 67.6976C152.986 67.7047 152.925 67.7904 153.19 68.6223C153.208 68.6758 153.232 68.7294 153.25 68.783C154.279 71.6286 155.05 74.5491 155.71 77.4983C156.567 81.3365 157.421 85.1782 157.856 89.0949C158.11 91.3871 158.385 93.6829 158.595 95.9787C158.774 97.9067 158.881 99.8418 158.999 101.773C159.102 103.451 159.231 105.13 159.241 106.811C159.259 109.036 159.202 111.26 159.12 113.481C159.063 114.959 158.909 116.437 158.795 117.915C158.767 118.301 158.67 118.647 158.238 118.786C157.842 118.915 157.613 118.701 157.36 118.436C155.821 116.833 154.261 115.248 152.718 113.649C149.609 110.432 146.502 107.215 143.403 103.987C142.814 103.373 142.689 103.062 142.329 104.223C142.179 104.708 141.872 105.147 142.018 105.697C142.221 106.468 142.425 107.24 142.589 108.018C142.818 109.107 143.025 110.2 143.218 111.296C143.367 112.142 142.946 112.624 142.054 112.456C141.639 112.377 141.204 112.388 140.775 112.377C138.722 112.338 136.669 112.31 134.616 112.274C133.617 112.256 132.621 112.217 131.621 112.217C130.971 112.217 130.896 112.313 130.878 112.967C130.875 113.081 130.878 113.195 130.882 113.309C130.992 116.441 131.103 119.568 131.214 122.7C131.314 125.549 131.414 128.398 131.503 131.247C131.582 133.753 131.624 136.26 131.71 138.766C131.803 141.473 131.949 144.175 132.035 146.878C132.117 149.47 132.146 152.062 132.217 154.655C132.235 155.336 132.299 156.022 132.374 156.7C132.453 157.397 132.528 157.439 133.181 157.193C135.927 156.158 138.73 156.233 141.514 156.893C144.931 157.7 147.959 159.285 150.519 161.738C152.49 163.623 153.943 165.769 154.336 168.529C154.425 169.161 154.461 169.147 155.107 169.093C156.839 168.954 158.57 168.793 160.309 168.725C162.101 168.654 163.894 168.69 165.69 168.665C166.393 168.654 166.457 168.59 166.475 167.861C166.511 166.437 166.532 165.016 166.543 163.591C166.564 160.367 166.579 157.147 166.593 153.923C166.596 153.351 166.607 152.78 166.589 152.212C166.568 151.448 166.522 151.413 165.732 151.395C165.361 151.388 164.99 151.402 164.618 151.388C163.565 151.348 162.512 151.302 161.459 151.248C161.08 151.231 160.698 151.166 160.516 150.774C160.338 150.388 160.63 150.138 160.837 149.87C161.873 148.513 162.912 147.157 163.944 145.796C164.476 145.093 164.972 144.361 165.529 143.679C167.818 140.876 170.117 138.081 172.42 135.289C173.255 134.275 173.355 134.278 174.184 135.321C175.108 136.481 176.012 137.656 176.94 138.809C178.472 140.716 180.025 142.608 181.556 144.518C182.681 145.918 183.784 147.335 184.902 148.742C185.255 149.188 185.652 149.602 185.984 150.063C186.416 150.67 186.227 151.098 185.498 151.206C185.191 151.252 184.873 151.238 184.559 151.238C183.106 151.252 181.649 151.248 180.196 151.273C179.568 151.284 179.539 151.334 179.503 151.97C179.489 152.255 179.478 152.541 179.478 152.823C179.468 156.758 179.461 160.689 179.45 164.623C179.446 165.451 179.446 166.276 179.436 167.105C179.407 168.983 179.375 170.857 179.339 172.735C179.332 173.053 179.432 173.263 179.728 173.424C181.721 174.506 183.474 175.895 185.12 177.459C187.537 179.754 189.301 182.493 190.729 185.46C191.332 186.713 191.789 188.041 192.307 189.337C192.432 189.648 192.571 189.884 192.967 189.884C193.692 189.887 193.849 189.755 193.849 188.98C193.853 187.87 193.839 186.76 193.839 185.646C193.835 180.429 193.828 175.209 193.828 169.993C193.828 164.287 193.824 158.582 193.842 152.876C193.849 150.052 193.903 147.232 193.921 144.408C193.942 142.415 193.931 140.419 193.931 138.424ZM37.7587 67.7832C37.7587 67.8118 37.7587 67.8404 37.7587 67.8725C34.1919 67.8725 30.6287 67.8689 27.0618 67.8725C26.0907 67.8725 25.1195 67.8618 24.152 67.9189C23.2094 67.976 23.1344 68.0867 23.163 69.0115C23.1844 69.6934 23.2379 70.3754 23.2594 71.0609C23.3022 72.514 23.3129 73.9672 23.37 75.4203C23.445 77.3555 23.5664 79.2906 23.6307 81.2258C23.6807 82.7075 23.645 84.1892 23.6914 85.6709C23.8378 90.2303 23.9949 94.7861 24.1698 99.3455C24.2055 100.302 24.3162 101.238 24.9446 102.073C26.0514 103.555 27.0618 105.108 28.1187 106.629C28.6721 107.425 28.6792 107.432 29.5683 107.183C31.2963 106.697 33.0173 106.186 34.7453 105.697C36.3913 105.233 38.0444 104.805 39.6832 104.319C41.6219 103.748 43.5499 103.137 45.4779 102.53C45.7779 102.438 45.9528 102.491 46.1063 102.77C46.2849 103.094 46.3348 103.355 46.1099 103.712C45.2137 105.133 44.3354 106.572 43.4928 108.025C41.7612 111.006 40.0581 114.006 38.33 116.987C38.0658 117.444 38.0729 117.797 38.3836 118.233C39.2797 119.483 40.1295 120.768 41.0007 122.032C41.8897 123.321 42.8001 124.599 43.6749 125.902C43.9212 126.266 44.1426 126.381 44.5853 126.216C47.3631 125.195 50.2409 124.624 53.1936 124.52C57.6316 124.367 62.016 124.631 66.2719 126.116C68.2749 126.816 70.0958 127.748 71.6418 129.18C72.4023 129.883 73.045 130.758 73.095 131.804C73.1878 133.653 73.1414 135.51 73.0985 137.363C73.0343 140.155 72.9236 142.947 72.8307 145.739C72.7772 147.364 72.7129 148.988 72.6665 150.609C72.6451 151.32 72.6487 152.034 72.6558 152.744C72.6594 153.073 72.8129 153.223 73.1521 153.091C73.2592 153.048 73.3627 153.005 73.4734 152.969C76.6939 151.87 80.0358 151.491 83.4098 151.477C85.1986 151.47 86.9945 151.673 88.7761 151.87C90.9112 152.105 92.9963 152.63 94.9493 153.53C96.0026 154.015 97.0273 154.612 97.9592 155.308C99.4016 156.383 100.009 157.846 99.6194 159.675C99.5159 160.167 99.523 160.696 99.5337 161.203C99.5516 161.935 99.5944 161.988 100.326 161.985C102.065 161.97 103.8 161.906 105.539 161.899C106.028 161.895 106.278 161.702 106.564 161.313C107.064 160.631 107.617 159.953 108.27 159.428C109.97 158.068 111.934 157.243 114.076 156.854C115.011 156.683 115.029 156.654 115.054 155.694C115.108 153.644 115.172 151.595 115.208 149.542C115.283 145.439 115.329 141.333 115.415 137.231C115.508 132.7 115.629 128.169 115.725 123.639C115.761 121.957 115.758 120.272 115.79 118.59C115.825 116.655 115.89 114.716 115.925 112.781C115.94 111.942 115.9 111.903 115.083 111.863C114.258 111.824 113.43 111.824 112.601 111.792C110.952 111.728 109.299 111.653 107.649 111.578C105.939 111.503 104.232 111.424 102.522 111.339C102.383 111.331 102.24 111.292 102.108 111.242C101.644 111.074 101.526 110.828 101.722 110.389C101.84 110.132 102.004 109.892 102.144 109.646C102.826 108.429 103.493 107.2 104.193 105.99C104.461 105.526 104.475 105.105 104.261 104.615C103.572 103.055 103.568 103.066 102.365 104.283C100.783 105.883 99.1731 107.454 97.5629 109.028C96.0347 110.521 94.4959 112.003 92.9606 113.488C91.4218 114.973 89.8794 116.455 88.3477 117.944C87.9942 118.286 87.5479 118.54 87.1302 118.297C86.891 118.158 86.7767 117.672 86.7517 117.33C86.5768 115.087 86.459 112.845 86.5875 110.596C86.7589 107.611 86.8624 104.619 87.1516 101.641C87.4658 98.3815 87.8871 95.1253 88.3941 91.8905C88.9297 88.4558 89.5938 85.0425 90.2436 81.6257C91.0469 77.3912 92.1823 73.2424 93.4533 69.1293C93.5783 68.7223 93.7068 68.3117 93.7925 67.8939C93.8925 67.4155 93.8425 67.3762 93.3284 67.3405C93.1856 67.3298 93.0428 67.3298 92.8999 67.3298C89.5116 67.3691 86.1233 67.4084 82.735 67.4476C80.7963 67.469 78.8576 67.4976 76.9153 67.5155C71.6418 67.5619 66.3683 67.5976 61.0949 67.6511C57.503 67.6904 53.9112 67.7654 50.3194 67.8047C49.0376 67.8189 47.7523 67.769 46.4705 67.7654C43.5749 67.7761 40.6686 67.7832 37.7587 67.7832ZM98.0806 68.5437C98.2448 71.143 98.3555 73.3602 98.5376 75.5739C98.6804 77.3055 98.8589 79.0371 99.1053 80.7581C99.4373 83.1002 99.7908 85.4424 100.244 87.7596C100.648 89.8269 101.123 91.887 101.697 93.915C102.233 95.8037 102.911 97.6567 103.59 99.5026C104.154 101.024 104.804 102.516 105.436 104.012C105.725 104.698 105.903 104.78 106.614 104.719C106.982 104.687 107.353 104.662 107.724 104.669C109.949 104.712 112.173 104.769 114.397 104.805C115.144 104.815 115.147 104.798 115.297 104.087C115.361 103.78 115.411 103.469 115.458 103.159C115.693 101.523 115.918 99.8847 116.161 98.2494C116.468 96.1929 116.811 94.1399 117.1 92.0798C117.557 88.8629 117.971 85.6424 118.425 82.4254C118.753 80.0833 119.128 77.7482 119.46 75.406C119.889 72.3891 120.285 69.3649 120.71 66.3444C120.963 64.5378 121.256 62.7383 121.524 60.9352C121.57 60.6246 121.527 60.289 121.631 60.0069C121.717 59.7713 121.934 59.4749 122.145 59.4214C122.477 59.3393 122.827 59.4928 122.973 59.8712C123.056 60.0819 123.109 60.3068 123.152 60.5282C123.466 62.1527 123.77 63.7737 124.084 65.3982C124.826 69.2614 125.573 73.121 126.308 76.9842C126.615 78.6087 126.879 80.2404 127.19 81.8613C127.754 84.7998 128.354 87.7275 128.911 90.6659C129.686 94.754 130.428 98.8493 131.192 102.937C131.285 103.441 131.407 103.944 131.56 104.43C131.789 105.155 131.874 105.183 132.596 105.13C133.474 105.062 134.356 104.997 135.238 104.983C136.891 104.955 138.547 104.958 140.201 104.962C140.608 104.962 140.911 104.898 141.022 104.423C141.193 103.705 141.422 102.998 141.614 102.288C142.218 100.063 142.85 97.8495 143.407 95.6145C144.024 93.1259 144.639 90.6338 145.121 88.1166C145.645 85.3746 146.081 82.6111 146.442 79.844C146.831 76.8806 147.174 73.9029 147.377 70.9216C147.566 68.1367 147.616 65.3411 147.595 62.549C147.573 59.7891 147.423 57.0256 147.249 54.2693C147.124 52.3091 146.924 50.349 146.642 48.4031C146.285 45.9503 145.881 43.501 145.37 41.0802C144.849 38.5988 144.242 36.1317 143.55 33.6931C142.725 30.7868 141.757 27.9233 140.518 25.1634C139.597 23.1104 138.565 21.1075 137.583 19.083C137.38 18.6617 137.101 18.4832 136.577 18.5011C134.156 18.5689 131.732 18.5653 129.307 18.601C127.315 18.6296 125.323 18.6974 123.33 18.7081C119.221 18.7331 115.115 18.7474 111.005 18.7224C110.309 18.7189 109.92 18.9509 109.592 19.5579C107.649 23.1497 105.975 26.8665 104.547 30.6904C103.197 34.2965 102.069 37.9669 101.165 41.7122C100.491 44.515 99.9479 47.332 99.4837 50.1776C98.9875 53.2196 98.5733 56.2651 98.4483 59.3464C98.3162 62.5383 98.1913 65.7267 98.0806 68.5437ZM166.457 180.101C166.461 180.101 166.464 180.101 166.468 180.101C166.468 176.991 166.472 173.885 166.468 170.775C166.468 169.764 166.454 169.739 165.475 169.757C163.508 169.797 161.541 169.847 159.577 169.932C158.413 169.986 157.249 170.104 156.089 170.225C155.496 170.286 154.911 170.436 154.318 170.521C153.743 170.604 153.532 170.432 153.465 169.854C153.443 169.686 153.475 169.511 153.461 169.34C153.375 168.368 153.197 167.426 152.754 166.544C151.672 164.387 150.137 162.649 148.177 161.231C145.445 159.26 142.418 158.086 139.09 157.789C136.723 157.579 134.352 157.718 132.199 158.982C131.567 159.353 131.017 158.968 131 158.221C130.935 155.601 130.893 152.98 130.814 150.359C130.739 147.767 130.618 145.175 130.539 142.583C130.453 139.852 130.393 137.12 130.321 134.393C130.271 132.397 130.221 130.404 130.171 128.409C130.146 127.38 130.121 126.356 130.089 125.327C130 122.65 129.907 119.972 129.818 117.294C129.786 116.383 129.761 115.469 129.729 114.559C129.725 114.477 129.689 114.398 129.671 114.32C129.6 114.384 129.511 114.438 129.461 114.516C129.382 114.634 129.325 114.766 129.272 114.898C128.347 117.137 127.426 119.375 126.497 121.614C126.005 122.799 125.498 123.978 124.994 125.156C124.841 125.513 124.609 125.824 124.202 125.849C123.812 125.874 123.73 125.499 123.588 125.224C121.56 121.396 119.532 117.569 117.504 113.741C117.439 113.62 117.35 113.513 117.275 113.399C117.243 113.552 117.182 113.702 117.179 113.856C117.118 116.076 117.057 118.294 117.007 120.514C116.947 123.221 116.897 125.924 116.839 128.63C116.779 131.451 116.714 134.268 116.654 137.088C116.597 139.766 116.532 142.444 116.493 145.125C116.436 149.028 116.393 152.934 116.347 156.836C116.34 157.461 116.332 157.561 115.722 157.639C114.319 157.821 113.023 158.353 111.709 158.818C110.263 159.332 109.013 160.171 107.999 161.338C107.674 161.713 107.696 161.813 108.167 161.838C109.413 161.902 110.663 161.92 111.912 161.945C113.137 161.967 114.365 161.981 115.59 161.985C115.943 161.985 116.186 162.135 116.343 162.445C116.447 162.649 116.55 162.852 116.65 163.056C117.421 164.612 118.2 166.166 118.964 167.726C120.317 170.489 121.667 173.256 123.013 176.023C123.637 177.302 124.259 178.583 124.869 179.869C125.358 180.901 125.84 181.936 125.719 183.132C125.68 183.528 125.723 183.932 125.723 184.328C125.733 186.095 125.737 187.866 125.758 189.634C125.765 190.237 125.79 190.259 126.383 190.276C127.779 190.319 129.172 190.355 130.568 190.359C134.616 190.376 138.669 190.38 142.718 190.38C145.71 190.38 148.705 190.38 151.697 190.359C154.204 190.341 156.706 190.28 159.213 190.269C161.348 190.259 163.487 190.291 165.622 190.309C166.386 190.316 166.418 190.291 166.45 189.494C166.457 189.352 166.461 189.209 166.461 189.066C166.457 186.088 166.457 183.093 166.457 180.101ZM222.163 162.367C222.159 162.367 222.159 162.367 222.163 162.367C222.159 162.966 222.155 163.563 222.159 164.163C222.17 165.559 222.195 166.951 222.191 168.347C222.18 171.225 222.145 174.102 222.141 176.98C222.138 179.062 222.191 181.143 222.188 183.225C222.18 188.327 222.155 193.433 222.141 198.535C222.134 201.016 222.123 203.498 222.141 205.979C222.152 207.261 222.22 208.543 222.263 209.824C222.277 210.235 222.47 210.442 222.898 210.453C224.091 210.488 225.283 210.588 226.476 210.581C228.125 210.574 229.775 210.492 231.421 210.453C232.313 210.431 232.467 210.306 232.477 209.414C232.499 207.536 232.506 205.658 232.51 203.78C232.52 201.102 232.517 198.42 232.531 195.743C232.542 193.204 232.574 190.669 232.581 188.131C232.588 185.449 232.57 182.771 232.574 180.09C232.574 179.579 232.677 179.069 232.677 178.558C232.677 177.594 232.606 176.63 232.613 175.666C232.631 173.585 232.706 171.507 232.713 169.425C232.731 164.777 232.713 160.128 232.731 155.479C232.738 153.998 232.834 152.516 232.849 151.034C232.87 148.528 232.845 146.018 232.867 143.511C232.906 139.234 232.981 134.957 233.013 130.683C233.042 126.834 233.031 122.985 233.045 119.133C233.049 117.933 233.052 116.737 233.088 115.537C233.113 114.698 233.406 114.427 234.238 114.384C234.438 114.373 234.638 114.373 234.837 114.377C236.148 114.388 237.462 114.409 238.772 114.402C239.197 114.398 239.243 114.291 239.018 113.956C238.893 113.766 238.736 113.599 238.59 113.424C237.255 111.828 235.884 110.26 234.584 108.636C232.467 105.99 230.392 103.312 228.304 100.645C228.029 100.292 227.943 100.277 227.665 100.627C226.158 102.523 224.648 104.415 223.159 106.329C221.827 108.039 220.527 109.768 219.213 111.488C218.589 112.303 217.957 113.113 217.343 113.934C217.093 114.27 217.143 114.366 217.56 114.388C218.671 114.441 219.781 114.477 220.892 114.541C221.695 114.588 222.134 115.048 222.166 115.837C222.18 116.18 222.145 116.523 222.145 116.862C222.152 119.8 222.166 122.735 222.166 125.674C222.163 129.151 222.138 132.625 222.138 136.103C222.138 141.465 222.148 146.825 222.152 152.187C222.163 155.583 222.163 158.975 222.163 162.367ZM57.678 196.632C57.6351 196.632 57.5923 196.632 57.5459 196.632C57.5459 195.179 57.5459 193.725 57.5459 192.269C57.5494 189.873 57.5566 187.477 57.553 185.085C57.553 184.189 57.5173 184.139 56.6497 184.15C55.1966 184.167 53.747 184.214 52.2938 184.26C50.2444 184.321 48.195 184.41 46.1456 184.45C42.6109 184.521 39.0762 184.571 35.5415 184.624C31.5534 184.685 27.5617 184.742 23.5736 184.792C20.8386 184.828 18.1037 184.849 15.3688 184.889C14.4226 184.903 14.3619 184.978 14.3869 185.931C14.4405 188.038 14.5155 190.148 14.5583 192.254C14.6404 196.557 14.7047 200.863 14.7761 205.169C14.8011 206.565 14.8154 207.964 14.8582 209.36C14.8761 209.985 14.9546 210.039 15.5544 210.092C15.6687 210.103 15.783 210.106 15.8972 210.106C18.8321 210.078 21.7669 210.064 24.6982 210.014C28.1151 209.956 31.532 209.853 34.9488 209.792C38.3693 209.731 41.7861 209.706 45.2066 209.649C47.8844 209.607 50.5622 209.535 53.24 209.485C54.4932 209.46 55.7464 209.439 56.9996 209.435C57.4066 209.432 57.6351 209.335 57.628 208.857C57.6173 207.832 57.6708 206.807 57.6744 205.783C57.6816 202.73 57.678 199.681 57.678 196.632ZM205.632 165.562C205.646 165.562 205.66 165.562 205.674 165.562C205.674 163.052 205.674 160.542 205.674 158.032C205.674 152.245 205.671 146.453 205.667 140.666C205.667 138.584 205.66 136.499 205.653 134.418C205.649 133.275 205.639 132.136 205.642 130.994C205.646 130.29 205.849 130.058 206.456 130.051C207.31 130.04 208.163 130.037 209.013 130.044C209.895 130.051 210.773 130.101 211.655 130.09C212.23 130.083 212.265 130.019 211.916 129.533C211.251 128.609 210.562 127.702 209.863 126.805C208.406 124.942 206.949 123.078 205.46 121.239C204.114 119.579 202.732 117.947 201.351 116.316C200.897 115.784 200.815 115.805 200.387 116.344C197.577 119.897 194.767 123.453 191.957 127.005C191.268 127.877 190.561 128.737 189.883 129.619C189.608 129.972 189.679 130.119 190.129 130.14C191.407 130.204 192.689 130.294 193.967 130.283C195.252 130.269 195.41 130.369 195.417 131.643C195.417 131.672 195.417 131.7 195.417 131.729C195.41 138.256 195.41 144.782 195.388 151.309C195.385 152.648 195.281 153.987 195.277 155.326C195.274 157.514 195.335 159.707 195.327 161.895C195.32 164.859 195.263 167.826 195.245 170.789C195.22 175.209 195.217 179.629 195.202 184.05C195.195 185.503 195.167 186.952 195.167 188.406C195.167 189.516 195.213 190.626 195.202 191.737C195.185 193.615 195.12 195.493 195.106 197.367C195.095 198.763 195.156 200.159 195.153 201.555C195.145 204.122 195.11 206.686 195.095 209.253C195.092 210.267 195.103 210.267 196.084 210.31C196.284 210.317 196.481 210.367 196.681 210.36C199.187 210.281 201.693 210.192 204.196 210.117C205.46 210.081 205.5 210.031 205.5 208.817C205.496 205.797 205.503 202.78 205.528 199.759C205.546 197.485 205.621 195.211 205.632 192.936C205.649 189.916 205.624 186.895 205.624 183.875C205.628 177.773 205.632 171.667 205.632 165.562ZM88.7619 195.978C88.7547 195.978 88.744 195.978 88.7369 195.978C88.7369 197.574 88.7476 199.17 88.7333 200.766C88.7119 203.219 88.6797 205.668 88.6476 208.121C88.6405 208.714 88.7797 208.871 89.3795 208.925C89.4938 208.935 89.608 208.939 89.7223 208.939C92.2573 208.914 94.7958 208.896 97.3308 208.857C101.033 208.8 104.739 208.739 108.442 208.664C112.262 208.589 116.079 208.496 119.899 208.421C121.21 208.396 122.524 208.403 123.834 208.389C124.58 208.382 124.644 208.31 124.659 207.543C124.662 207.286 124.655 207.029 124.651 206.772C124.601 204.608 124.537 202.448 124.509 200.284C124.477 197.578 124.484 194.868 124.455 192.162C124.437 190.623 124.369 189.084 124.348 187.545C124.327 186.092 124.352 184.642 124.327 183.189C124.316 182.472 124.23 182.397 123.52 182.418C122.581 182.443 121.642 182.536 120.703 182.564C116.829 182.686 112.958 182.804 109.085 182.9C106.321 182.971 103.558 183.011 100.794 183.061C96.9773 183.125 93.157 183.193 89.3403 183.232C88.8618 183.236 88.7476 183.428 88.7511 183.839C88.7619 184.664 88.7619 185.492 88.7619 186.317C88.7619 189.537 88.7619 192.758 88.7619 195.978ZM12.2447 146.893C12.2304 146.893 12.2197 146.893 12.2054 146.893C12.2054 147.007 12.1947 147.121 12.209 147.235C12.2233 147.339 12.2697 147.439 12.3018 147.542C12.3946 147.496 12.4946 147.453 12.5803 147.399C12.6267 147.371 12.6517 147.314 12.691 147.271C14.5262 145.129 16.3685 142.99 18.1965 140.844C18.9713 139.934 19.7175 139.002 20.4887 138.091C21.2242 137.22 21.9776 136.367 22.7095 135.496C23.7914 134.207 24.8732 132.922 25.9229 131.608C26.5263 130.851 27.1939 130.608 28.1615 130.89C31.1392 131.761 34.1419 132.557 37.1339 133.393C37.8373 133.589 37.898 133.575 38.0051 132.85C38.3086 130.797 39.1976 129.123 41.0435 128.048C41.5112 127.777 41.9575 127.466 42.4288 127.198C42.7859 126.995 42.8287 126.755 42.6073 126.431C42.4788 126.241 42.3824 126.034 42.2539 125.845C41.1935 124.292 40.1259 122.742 39.0691 121.189C38.3943 120.2 37.7373 119.201 37.0554 118.215C36.6733 117.662 36.6448 117.165 37.0197 116.566C38.2693 114.555 39.4725 112.517 40.6865 110.489C41.8147 108.607 42.9394 106.722 44.0569 104.833C44.139 104.698 44.1498 104.515 44.1926 104.358C44.0355 104.366 43.8677 104.341 43.7213 104.383C41.6398 104.976 39.5618 105.572 37.4838 106.176C35.87 106.643 34.2562 107.125 32.6424 107.597C31.5463 107.914 30.4537 108.239 29.354 108.539C28.5328 108.764 27.883 108.593 27.376 107.811C26.4799 106.426 25.4873 105.101 24.5554 103.734C23.3201 101.916 22.1133 100.085 20.8886 98.2637C19.9817 96.9177 19.0677 95.5752 18.1501 94.2327C18.0716 94.122 17.9466 94.0399 17.8431 93.9471C17.7717 94.0863 17.6646 94.2184 17.636 94.3648C17.2397 96.582 16.8469 98.7993 16.4649 101.02C16.0757 103.269 15.7187 105.519 15.3152 107.765C14.9796 109.643 14.5726 111.51 14.2548 113.391C14.162 113.938 13.9656 114.252 13.4622 114.48C11.4592 115.38 9.47406 116.316 7.47821 117.23C6.02863 117.894 4.57191 118.544 3.11876 119.208C2.89739 119.311 2.69388 119.458 2.48323 119.583C2.68674 119.711 2.8724 119.886 3.09734 119.965C6.08576 121.007 9.07775 122.039 12.0662 123.071C12.9873 123.389 13.173 123.592 13.1801 124.538C13.1908 125.763 13.1694 126.991 13.123 128.216C13.0623 129.98 12.9659 131.74 12.8874 133.504C12.8088 135.299 12.7517 137.092 12.6624 138.888C12.5375 141.544 12.3875 144.218 12.2447 146.893ZM58.8776 200.895C58.8991 200.895 58.9205 200.895 58.9419 200.895C58.9419 203.487 58.9348 206.083 58.949 208.675C58.9526 209.357 59.0454 209.428 59.7845 209.414C61.9767 209.382 64.1654 209.328 66.3576 209.292C70.0887 209.232 73.8197 209.178 77.5508 209.121C80.5999 209.075 83.649 209.032 86.6946 208.985C87.3587 208.975 87.3587 208.967 87.3587 208.285C87.3587 203.383 87.3516 198.481 87.3694 193.583C87.3801 190.766 87.4301 187.949 87.4658 185.135C87.4765 184.421 87.4872 183.71 87.5265 183C87.5444 182.632 87.6622 182.268 87.6657 181.9C87.6729 181.272 87.4587 181.14 86.841 181.129C84.9344 181.097 83.0242 181.1 81.1283 180.954C78.6505 180.761 76.2369 180.186 73.8733 179.419C71.9739 178.801 70.2601 177.866 68.8855 176.391C68.5391 176.02 68.2749 176.134 67.9215 176.341C66.0077 177.455 63.9583 178.208 61.7839 178.626C61.559 178.669 61.3162 178.683 61.1234 178.787C60.9449 178.88 60.7557 179.051 60.6771 179.23C60.0987 180.622 59.5346 182.022 58.9919 183.428C58.8741 183.735 58.792 184.085 58.792 184.414C58.8098 187.802 58.8562 191.187 58.8812 194.575C58.8884 196.678 58.8776 198.788 58.8776 200.895ZM208.192 96.9427C208.199 96.9784 208.202 97.0141 208.209 97.0498C209.384 96.8427 210.562 96.6428 211.733 96.425C212.205 96.3393 212.69 96.2607 213.14 96.1001C213.858 95.8394 214.554 95.5109 215.257 95.2075C216.039 94.8683 216.861 94.5969 217.592 94.1685C218.671 93.5365 219.713 92.8331 220.717 92.0869C221.695 91.3586 222.677 90.6052 223.526 89.734C225.037 88.1809 226.401 86.5028 227.486 84.6069C228.45 82.9182 229.296 81.1829 229.896 79.3299C230.696 76.8485 231.178 74.3099 231.16 71.7C231.149 69.797 231.139 67.8832 230.657 66.0195C230.349 64.8377 230.078 63.638 229.653 62.4955C229.171 61.1923 228.554 59.9319 227.961 58.6716C227.661 58.0325 227.35 57.3791 226.933 56.815C226.122 55.7224 225.28 54.6442 224.358 53.6445C222.991 52.1592 221.498 50.8203 219.831 49.6421C217.471 47.9711 214.875 46.8786 212.148 46.0467C211.144 45.7396 210.087 45.5897 209.041 45.4576C207.999 45.3219 206.942 45.2933 205.889 45.2255C204.607 45.1434 203.332 45.1933 202.068 45.4611C201.876 45.5004 201.676 45.504 201.479 45.5254C200.972 45.5754 200.447 45.554 199.962 45.6896C197.373 46.4073 194.867 47.3106 192.557 48.7352C190.629 49.9241 188.861 51.3023 187.28 52.9125C185.616 54.6085 184.206 56.4901 183.102 58.6109C182.042 60.646 181.178 62.7526 180.735 65.0019C180.446 66.4765 180.225 67.9796 180.146 69.4792C180.064 71.093 180.064 72.7318 180.25 74.3349C180.521 76.6842 181.021 79.0086 182.081 81.1544C182.76 82.529 183.459 83.9 184.224 85.2282C185.009 86.5885 186.009 87.7989 187.098 88.9343C188.337 90.2268 189.486 91.6085 191.072 92.5189C192.082 93.0974 193.042 93.7722 194.071 94.3184C194.97 94.7969 195.945 95.136 196.87 95.5716C198.837 96.4928 200.958 96.8391 203.075 97.0426C204.528 97.1819 206.024 97.3783 207.492 96.9962C207.724 96.9284 207.963 96.9534 208.192 96.9427ZM172.705 210.463C172.705 210.456 172.705 210.449 172.705 210.442C174.13 210.442 175.558 210.449 176.983 210.438C177.8 210.431 177.868 210.353 177.893 209.567C177.893 209.51 177.893 209.453 177.893 209.396C177.915 204.101 177.929 198.806 177.957 193.511C177.965 191.858 178.018 190.209 178.032 188.555C178.072 184.478 178.1 180.401 178.132 176.327C178.161 172.914 178.19 169.5 178.215 166.091C178.232 163.784 178.247 161.474 178.254 159.168C178.265 156.575 178.261 153.983 178.268 151.391C178.272 150.27 178.486 150.034 179.618 150.038C181.014 150.042 182.41 150.099 183.806 150.124C183.956 150.127 184.102 150.042 184.252 149.999C184.199 149.874 184.149 149.742 184.084 149.624C184.045 149.549 183.977 149.492 183.924 149.424C181.296 146.128 178.668 142.833 176.04 139.537C175.258 138.556 174.491 137.563 173.698 136.592C173.33 136.142 173.195 136.153 172.83 136.574C172.234 137.263 171.627 137.942 171.059 138.652C168.228 142.19 165.408 145.736 162.59 149.281C162.419 149.499 162.294 149.752 162.148 149.988C162.441 150.049 162.733 150.156 163.026 150.163C164.022 150.192 165.022 150.177 166.022 150.192C167.389 150.209 167.693 150.499 167.7 151.841C167.71 153.266 167.689 154.694 167.689 156.118C167.689 159.596 167.685 163.074 167.696 166.548C167.7 168.486 167.743 170.421 167.735 172.36C167.718 176.38 167.657 180.397 167.646 184.417C167.632 189.262 167.664 194.111 167.65 198.956C167.643 201.034 167.55 203.112 167.532 205.19C167.518 206.64 167.568 208.093 167.578 209.546C167.585 210.363 167.685 210.471 168.514 210.471C169.91 210.463 171.309 210.463 172.705 210.463ZM39.4904 150.174C39.4725 150.174 39.4547 150.174 39.4368 150.174C39.4868 151.966 39.5618 153.755 39.5796 155.547C39.5868 156.233 39.876 156.643 40.4437 156.982C42.3717 158.139 44.4711 158.875 46.6419 159.36C48.5842 159.792 50.5622 160.067 52.533 160.335C56.0856 160.817 59.6453 160.735 63.18 160.21C64.4939 160.014 65.7757 159.578 67.061 159.218C67.568 159.075 67.8465 158.743 67.8251 158.143C67.7965 157.286 68.1535 156.54 68.7069 155.886C69.2818 155.204 69.9423 154.619 70.7492 154.23C71.2526 153.987 71.4204 153.626 71.4347 153.076C71.524 149.402 71.6418 145.732 71.7489 142.058C71.7525 141.944 71.7811 141.808 71.7311 141.723C71.6775 141.637 71.524 141.537 71.4454 141.562C71.2883 141.608 71.1491 141.726 71.0063 141.819C69.1461 143.072 67.1074 143.975 64.9545 144.529C62.9193 145.05 60.8378 145.432 58.7527 145.704C55.4286 146.132 52.0939 146.025 48.7948 145.379C45.8707 144.807 43.0251 144.022 40.6151 142.14C40.3473 141.93 40.0474 141.765 39.7546 141.583C39.4154 141.373 39.2833 141.419 39.269 141.808C39.2476 142.462 39.2654 143.119 39.2833 143.772C39.3547 145.907 39.4226 148.039 39.4904 150.174ZM38.0622 138.341C38.0444 138.341 38.0265 138.341 38.0087 138.341C38.0087 137.374 37.9908 136.403 38.0158 135.435C38.0301 134.917 37.8052 134.635 37.3267 134.507C36.3627 134.25 35.4023 133.996 34.4418 133.732C32.4353 133.182 30.4287 132.643 28.4329 132.058C27.9509 131.915 27.6474 131.965 27.3153 132.35C26.4977 133.3 25.623 134.2 24.8089 135.153C24.584 135.417 24.3769 135.792 24.3626 136.121C24.2876 138.166 24.2555 140.212 24.2448 142.262C24.2377 143.511 24.3126 144.761 24.3126 146.007C24.3091 147.403 24.2377 148.796 24.2412 150.192C24.2484 152.295 24.3162 154.401 24.3198 156.504C24.3233 159.178 24.2805 161.852 24.2698 164.527C24.2591 166.658 24.2555 168.786 24.2626 170.918C24.2626 171.457 24.3055 171.996 24.3376 172.535C24.3448 172.635 24.3983 172.728 24.4305 172.824C24.5233 172.771 24.634 172.731 24.7089 172.66C25.1552 172.221 25.5873 171.771 26.0336 171.332C27.3189 170.079 28.6007 168.825 29.8932 167.579C31.2463 166.276 32.6102 164.98 33.9741 163.688C34.2883 163.391 34.6204 163.141 35.0988 163.166C35.9521 163.209 36.809 163.202 37.6623 163.256C38.4157 163.302 38.5549 163.234 38.5478 162.513C38.5264 160.121 38.4942 157.729 38.4407 155.333C38.3764 152.541 38.2693 149.752 38.205 146.96C38.1408 144.09 38.1086 141.216 38.0622 138.341ZM131.007 107.343C130.893 106.851 130.768 106.379 130.675 105.908C130.086 102.916 129.504 99.9204 128.922 96.9284C128.272 93.5686 127.618 90.2125 126.99 86.8492C126.658 85.0854 126.394 83.3109 126.065 81.5507C125.794 80.094 125.455 78.6515 125.176 77.1984C124.744 74.9312 124.352 72.6604 123.923 70.3932C123.505 68.1831 123.059 65.9766 122.627 63.7666C122.609 63.6844 122.609 63.5952 122.588 63.5131C122.574 63.4666 122.534 63.4238 122.506 63.3809C122.463 63.4131 122.399 63.4381 122.388 63.4809C122.345 63.6452 122.309 63.813 122.284 63.9843C122.088 65.3947 121.906 66.805 121.699 68.2117C121.345 70.6646 120.985 73.1174 120.613 75.5667C120.399 76.977 120.146 78.3766 119.939 79.7869C119.349 83.8179 118.782 87.856 118.193 91.887C117.9 93.89 117.579 95.8858 117.286 97.8888C116.982 99.9454 116.7 102.002 116.404 104.058C116.268 105.019 116.108 105.972 115.986 106.933C115.918 107.465 115.84 108 116.122 108.521C116.893 109.95 117.65 111.385 118.4 112.827C120.096 116.087 121.784 119.354 123.48 122.614C123.637 122.917 123.841 123.196 124.023 123.481C124.152 123.681 124.298 123.678 124.405 123.474C124.537 123.221 124.644 122.957 124.751 122.692C125.894 119.925 127.033 117.158 128.172 114.388C129.039 112.281 129.904 110.171 130.764 108.064C130.864 107.829 130.928 107.582 131.007 107.343ZM70.2636 66.3158C70.2636 66.3051 70.2636 66.2908 70.2636 66.2801C72.2024 66.2337 74.1375 66.1766 76.0762 66.1516C77.9007 66.1266 79.7252 66.1337 81.5497 66.1337C85.6556 66.1409 89.7616 66.148 93.8675 66.1766C94.221 66.1801 94.3745 66.0659 94.4959 65.7588C95.185 64.0415 95.8919 62.3312 96.5917 60.621C96.781 60.1604 96.706 60.0533 96.2383 60.0605C94.3031 60.0855 92.3644 60.1176 90.4292 60.1319C88.0049 60.1497 85.5806 60.139 83.1563 60.1604C77.8293 60.2069 72.5023 60.2818 67.1752 60.314C61.9303 60.3461 56.6818 60.3211 51.4369 60.3497C48.3343 60.364 45.2316 60.4389 42.1325 60.4711C40.7936 60.4854 39.4547 60.4461 38.1158 60.4496C35.3487 60.4568 32.5817 60.4604 29.8182 60.4996C27.7081 60.5282 25.6015 60.596 23.4914 60.6639C22.888 60.6817 22.8381 60.7853 22.8809 61.4065C22.9237 61.9742 22.9452 62.5455 22.9702 63.1132C23.013 64.0807 23.0487 65.0483 23.1023 66.0159C23.1237 66.4193 23.3343 66.63 23.7592 66.6371C24.2162 66.6407 24.6697 66.7086 25.1267 66.6978C27.8616 66.63 30.593 66.5193 33.3279 66.48C38.712 66.4051 44.0962 66.3444 49.4804 66.3265C56.4069 66.298 63.3335 66.3158 70.2636 66.3158ZM158.113 108.561C158.053 106.586 157.985 104.055 157.888 101.523C157.838 100.245 157.749 98.9635 157.638 97.6889C157.51 96.1857 157.36 94.679 157.181 93.183C156.871 90.6124 156.589 88.0345 156.189 85.4746C155.875 83.4501 155.414 81.4472 154.996 79.4406C154.746 78.2445 154.511 77.0449 154.175 75.8738C153.575 73.7922 152.908 71.7357 152.268 69.6648C151.562 67.3691 150.594 65.1804 149.469 63.0632C149.416 62.9632 149.376 62.8525 149.312 62.7597C149.269 62.6954 149.194 62.6526 149.134 62.599C149.077 62.6883 148.998 62.7704 148.973 62.8668C148.944 62.9739 148.962 63.0917 148.962 63.206C148.962 64.1164 149.009 65.0305 148.959 65.9373C148.819 68.5544 148.68 71.1715 148.48 73.7851C148.145 78.1338 147.566 82.4576 146.731 86.7421C146.235 89.2842 145.656 91.8156 145.046 94.3327C144.528 96.4642 143.942 98.5779 143.325 100.681C143.107 101.431 143.096 102.052 143.689 102.616C144.017 102.93 144.299 103.294 144.617 103.619C145.356 104.373 146.113 105.108 146.841 105.869C148.298 107.393 149.723 108.943 151.187 110.457C152.986 112.32 154.811 114.163 156.628 116.009C156.903 116.287 157.203 116.541 157.488 116.805C157.603 116.38 157.792 115.962 157.817 115.534C157.931 113.399 158.003 111.26 158.113 108.561ZM68.1678 170.068C68.1535 170.068 68.1357 170.068 68.1214 170.068C68.1214 168.643 68.1285 167.215 68.1178 165.791C68.1143 165.259 68.0464 165.209 67.6037 165.405C65.6257 166.276 63.5334 166.712 61.4126 166.99C57.2317 167.54 53.0472 167.479 48.8877 166.79C46.6133 166.415 44.3354 165.98 42.2289 164.973C41.5398 164.641 40.9007 164.209 40.2402 163.813C39.9224 163.623 39.7439 163.713 39.7332 164.07C39.7189 164.609 39.7367 165.148 39.7439 165.687C39.7617 167.483 39.7939 169.282 39.7974 171.078C39.7974 171.903 40.1295 172.56 40.6758 173.146C41.6362 174.181 42.7466 175.02 43.9998 175.666C46.8597 177.141 49.9409 177.844 53.1186 178.069C56.1427 178.283 59.1633 178.144 62.116 177.362C64.0226 176.859 65.872 176.209 67.5787 175.184C68 174.931 68.1857 174.656 68.1749 174.17C68.1535 172.803 68.1678 171.435 68.1678 170.068ZM37.2053 183.3C37.2053 183.271 37.2053 183.246 37.2053 183.218C39.0298 183.218 40.8543 183.239 42.6787 183.214C44.9852 183.182 47.2953 183.096 49.6017 183.061C52.1082 183.025 54.6146 183.025 57.121 182.996C57.478 182.993 57.9029 183.028 58.0814 182.593C58.4885 181.59 58.8776 180.579 59.2704 179.569C59.3632 179.33 59.2668 179.176 58.999 179.172C58.7991 179.169 58.5992 179.183 58.4028 179.194C57.2103 179.247 56.0178 179.33 54.8252 179.351C51.8868 179.405 49.0269 178.926 46.2849 177.873C45.253 177.477 44.2676 177.141 43.15 177.412C42.8537 177.484 42.5252 177.437 42.211 177.434C41.0185 177.419 39.8224 177.369 38.6299 177.391C35.6986 177.441 32.7673 177.523 29.8325 177.587C29.1791 177.601 28.5221 177.605 27.8652 177.584C27.4403 177.569 27.1975 177.241 27.069 176.898C27.019 176.762 27.1904 176.488 27.3332 176.341C29.7146 173.888 32.0568 171.4 34.2669 168.79C34.7453 168.226 35.2595 167.69 35.7593 167.144C36.0235 166.858 36.327 166.701 36.7412 166.737C37.1946 166.78 37.6516 166.755 38.1051 166.762C38.4942 166.769 38.6906 166.59 38.6656 166.19C38.6406 165.766 38.5906 165.337 38.6014 164.912C38.6121 164.423 38.3729 164.273 37.923 164.259C37.1839 164.237 36.4484 164.148 35.7093 164.138C35.4773 164.134 35.1952 164.223 35.0238 164.373C34.5061 164.816 34.0277 165.309 33.5385 165.787C31.8355 167.465 30.1467 169.165 28.4257 170.825C26.6655 172.524 24.8589 174.177 23.0916 175.87C20.5994 178.255 18.1251 180.654 15.6437 183.046C15.5402 183.146 15.4295 183.243 15.3509 183.357C15.2367 183.525 15.2331 183.696 15.4866 183.721C15.7401 183.746 16.0007 183.75 16.2542 183.743C18.0216 183.696 19.7854 183.635 21.5527 183.596C24.2019 183.535 26.8512 183.489 29.504 183.439C32.0782 183.393 34.6418 183.346 37.2053 183.3ZM107.342 163.063C106.714 163.066 106.085 163.059 105.461 163.066C103.807 163.084 102.154 163.084 100.505 163.141C99.6266 163.17 99.6266 163.216 99.573 164.141C99.5087 165.244 99.5266 165.262 100.598 165.259C100.626 165.259 100.655 165.259 100.683 165.259C103.904 165.209 107.128 165.159 110.348 165.112C111.148 165.102 111.944 165.098 112.744 165.087C113.258 165.084 113.551 165.312 113.772 165.805C114.704 167.886 115.686 169.943 116.647 172.01C117.007 172.785 117.364 173.563 117.693 174.352C118.021 175.141 117.793 175.509 116.922 175.627C116.529 175.681 116.129 175.698 115.729 175.713C114.647 175.752 113.562 175.777 112.48 175.813C110.031 175.891 107.578 176.006 105.129 176.034C103.308 176.055 101.487 175.984 99.6658 175.923C99.2517 175.909 99.0517 176.073 98.8804 176.42C98.7054 176.773 98.4876 177.119 98.2234 177.409C97.2915 178.419 96.0455 178.944 94.8244 179.48C93.0642 180.254 91.2004 180.665 89.2903 180.89C88.6762 180.961 88.4619 181.254 88.6048 181.79C88.744 182.307 89.1653 182.186 89.5188 182.172C91.6539 182.086 93.789 181.968 95.9241 181.9C98.0592 181.832 100.198 181.807 102.333 181.765C104.925 181.711 107.517 181.647 110.109 181.6C112.077 181.565 114.044 181.543 116.008 181.518C117.718 181.497 119.424 181.482 121.135 181.454C121.992 181.44 122.845 181.422 123.698 181.368C124.273 181.333 124.362 181.158 124.112 180.665C123.366 179.19 122.595 177.726 121.863 176.245C120.385 173.253 118.925 170.257 117.461 167.258C116.861 166.03 116.25 164.809 115.683 163.566C115.436 163.024 115.047 162.891 114.512 162.945C113.944 162.999 113.376 163.059 112.808 163.066C110.991 163.07 109.167 163.063 107.342 163.063ZM128.508 17.3478C128.508 17.3371 128.508 17.3228 128.508 17.3121C129.875 17.3121 131.246 17.3121 132.613 17.3121C133.67 17.3121 134.724 17.3121 135.78 17.2978C136.437 17.2871 136.498 17.1872 136.152 16.6016C135.702 15.8411 135.259 15.0699 134.745 14.3558C133.213 12.2315 131.717 10.0821 129.932 8.14692C128.036 6.0868 126.076 4.11237 123.859 2.40215C122.873 1.64523 122.873 1.64523 121.963 2.46999C121.834 2.58424 121.692 2.68064 121.574 2.80561C119.582 4.92642 117.678 7.12935 115.99 9.49296C114.415 11.6923 112.958 13.9774 111.473 16.241C111.252 16.5802 111.155 17.0015 111.002 17.3871C111.391 17.4264 111.78 17.5014 112.169 17.4978C115.39 17.4585 118.61 17.3907 121.831 17.355C124.059 17.3264 126.283 17.3478 128.508 17.3478ZM69.3675 172.164C69.3889 172.164 69.4103 172.164 69.4282 172.164C69.4282 173.131 69.4246 174.102 69.4317 175.07C69.4353 175.556 69.6531 175.906 70.0423 176.223C71.5061 177.419 73.2056 178.148 74.9801 178.69C77.383 179.422 79.843 179.894 82.3566 180.058C85.0701 180.236 87.7657 180.176 90.4364 179.64C92.0323 179.319 93.5997 178.883 95.0565 178.13C95.9776 177.655 96.8024 177.055 97.4486 176.234C97.7771 175.816 97.9628 175.363 97.9485 174.817C97.9306 174.163 97.9592 173.506 97.9699 172.849C97.9878 171.882 98.0163 170.914 98.027 169.947C98.0342 169.429 97.9913 169.411 97.5093 169.654C96.9738 169.922 96.4489 170.207 95.9026 170.446C94.0925 171.232 92.2251 171.832 90.2471 172.014C88.6583 172.16 87.0695 172.432 85.4807 172.424C83.0635 172.41 80.6463 172.31 78.2399 171.982C75.2693 171.575 72.438 170.8 69.853 169.24C69.4639 169.004 69.3817 169.047 69.3746 169.511C69.3603 170.396 69.3675 171.278 69.3675 172.164ZM84.431 171.335C84.9415 171.31 85.4521 171.264 85.9662 171.264C89.1653 171.275 92.268 170.757 95.2243 169.515C96.0847 169.154 96.8952 168.665 97.6986 168.179C97.9021 168.058 98.0842 167.733 98.0949 167.494C98.1841 165.791 98.2341 164.084 98.2805 162.377C98.2841 162.199 98.1734 162.02 98.1163 161.838C97.9663 161.906 97.8164 161.97 97.67 162.042C96.5489 162.595 95.4742 163.295 94.296 163.677C91.4896 164.584 88.5691 164.98 85.6271 165.077C83.8954 165.134 82.1531 165.041 80.4178 164.937C78.8254 164.841 77.2402 164.612 75.7049 164.152C74.5124 163.791 73.3413 163.352 72.1631 162.934C71.9774 162.87 71.8025 162.759 71.6347 162.652C71.0348 162.27 70.4386 161.877 69.8423 161.492C69.7281 161.417 69.6031 161.36 69.4817 161.295C69.446 161.453 69.3782 161.606 69.3782 161.763C69.371 163.445 69.3568 165.127 69.3889 166.808C69.3925 167.083 69.5638 167.404 69.7531 167.619C69.9923 167.89 70.3172 168.097 70.6278 168.293C72.5451 169.49 74.6945 170.072 76.8689 170.539C79.361 171.075 81.8888 171.296 84.431 171.335ZM165.225 60.214C165.225 60.2033 165.225 60.1926 165.225 60.1819C163.458 60.1819 161.687 60.1819 159.92 60.1819C156.781 60.1819 153.643 60.1747 150.508 60.1819C149.669 60.1854 149.591 60.3961 149.958 61.1602C150.712 62.724 151.44 64.2985 152.151 65.8838C152.472 66.605 152.486 66.6479 153.286 66.6086C154.139 66.5657 154.993 66.505 155.846 66.4908C160.066 66.4193 164.286 66.3515 168.507 66.2944C170.874 66.2623 173.241 66.248 175.605 66.223C176.515 66.2123 177.422 66.1837 178.332 66.1908C178.779 66.1944 178.989 66.023 179.075 65.5767C179.393 63.9486 179.932 62.3884 180.557 60.8531C180.785 60.289 180.689 60.1604 180.028 60.1569C178.943 60.1569 177.861 60.2069 176.776 60.2104C172.93 60.2176 169.078 60.214 165.225 60.214ZM55.825 138.902C58.1243 139.002 60.6057 138.666 63.0693 138.152C65.0866 137.731 67.0646 137.181 68.839 136.099C69.5888 135.646 70.3136 135.107 70.9206 134.478C71.7382 133.632 72.3059 132.597 71.7668 131.379C71.5097 130.797 71.117 130.229 70.66 129.783C69.2853 128.441 67.5573 127.669 65.7649 127.091C64.4403 126.666 63.0729 126.341 61.6983 126.113C60.1023 125.849 58.4813 125.652 56.8639 125.584C53.6577 125.449 50.4979 125.856 47.3703 126.566C45.2102 127.055 43.175 127.834 41.3648 129.141C40.6329 129.669 40.0688 130.344 39.6796 131.151C39.1155 132.329 39.294 133.832 40.2437 134.628C41.2149 135.446 42.2574 136.238 43.3928 136.785C44.5568 137.345 45.8528 137.667 47.1239 137.956C49.9124 138.595 52.7366 138.963 55.825 138.902ZM56.4605 144.611C57.8494 144.482 59.2454 144.411 60.6236 144.208C61.9446 144.011 63.2585 143.74 64.5474 143.394C66.7254 142.804 68.8283 142.03 70.7206 140.748C71.4383 140.262 71.9346 139.752 71.7989 138.823C71.7703 138.631 71.8382 138.427 71.8453 138.227C71.8703 137.488 71.8989 136.749 71.8989 136.006C71.8989 135.646 71.7703 135.589 71.4919 135.785C71.374 135.867 71.2705 135.964 71.1634 136.06C69.5995 137.506 67.7108 138.334 65.715 138.966C62.5016 139.987 59.199 140.369 55.8464 140.287C54.1112 140.244 52.3795 140.112 50.6514 139.955C48.9448 139.802 47.2953 139.38 45.6672 138.823C44.2854 138.352 43.0072 137.684 41.7362 136.992C40.9757 136.578 40.3616 135.989 39.7653 135.378C39.6582 135.267 39.4868 135.217 39.344 135.139C39.2762 135.285 39.1405 135.432 39.1441 135.574C39.169 136.71 39.2083 137.849 39.2726 138.984C39.2869 139.227 39.3547 139.527 39.5118 139.695C40.0759 140.287 40.6258 140.937 41.3006 141.38C43.2536 142.654 45.4315 143.447 47.7094 143.886C50.5943 144.443 53.5113 144.704 56.4605 144.611ZM55.7107 166.08C56.1963 166.08 56.6818 166.105 57.1638 166.076C60.62 165.866 64.019 165.326 67.3395 164.316C68.0286 164.105 68.1035 164.048 68.125 163.302C68.1464 162.477 68.1357 161.649 68.1285 160.821C68.125 160.242 68.0643 160.21 67.468 160.424C65.2258 161.228 62.9122 161.727 60.5414 161.845C57.146 162.013 53.7577 161.895 50.3908 161.349C47.6238 160.899 44.9245 160.228 42.3181 159.196C41.5791 158.903 40.865 158.543 40.1331 158.225C39.701 158.036 39.6011 158.082 39.5939 158.503C39.5832 159.303 39.5796 160.103 39.6225 160.899C39.6653 161.617 39.9938 162.302 40.5651 162.656C42.1646 163.645 43.8748 164.437 45.71 164.902C48.9948 165.726 52.3295 166.101 55.7107 166.08ZM179.332 182.422C179.318 182.422 179.3 182.422 179.286 182.422C179.286 184.728 179.286 187.034 179.286 189.337C179.286 189.937 179.357 190.023 179.953 190.069C180.125 190.084 180.296 190.073 180.467 190.069C182.97 190.019 185.477 189.969 187.98 189.923C188.804 189.909 189.633 189.919 190.457 189.894C190.964 189.877 190.993 189.819 190.897 189.33C190.711 188.406 190.5 187.495 190.022 186.663C189.622 185.974 189.279 185.253 188.876 184.564C187.016 181.393 184.77 178.551 181.831 176.302C181.199 175.82 180.539 175.374 179.868 174.949C179.493 174.713 179.382 174.795 179.339 175.238C179.325 175.381 179.336 175.524 179.336 175.666C179.332 177.919 179.332 180.172 179.332 182.422ZM84.7309 163.884C87.9728 163.927 91.1862 163.323 94.1103 162.227C95.4492 161.724 96.6917 161.031 97.72 159.996C98.6804 159.021 98.7518 157.857 97.8592 156.807C97.6236 156.529 97.3379 156.286 97.0487 156.058C95.4492 154.769 93.5212 154.187 91.586 153.719C88.6083 153.001 85.5664 152.702 82.5065 152.827C80.8606 152.894 79.2182 153.126 77.5794 153.319C75.6656 153.541 73.8412 154.094 72.1167 154.947C71.142 155.429 70.2244 155.997 69.5888 156.932C69.0604 157.707 69.0247 158.914 69.6567 159.621C70.1065 160.124 70.6207 160.599 71.1848 160.971C72.8058 162.038 74.6731 162.502 76.519 162.977C79.2039 163.666 81.9603 163.863 84.7309 163.884ZM112.23 174.531C112.23 174.513 112.23 174.499 112.23 174.481C113.141 174.481 114.055 174.481 114.965 174.481C115.222 174.481 115.483 174.499 115.733 174.463C116.282 174.385 116.357 174.224 116.125 173.735C115.965 173.399 115.797 173.071 115.651 172.731C114.858 170.936 114.04 169.147 113.287 167.333C112.966 166.558 112.48 166.212 111.655 166.326C111.545 166.34 111.427 166.333 111.312 166.333C108.781 166.333 106.25 166.319 103.722 166.337C102.554 166.344 101.39 166.426 100.223 166.444C99.723 166.451 99.4909 166.669 99.4552 167.151C99.4445 167.322 99.3909 167.49 99.3838 167.658C99.3159 169.761 99.2481 171.867 99.1945 173.97C99.1803 174.595 99.3838 174.784 100.005 174.777C100.376 174.774 100.744 174.709 101.112 174.702C104.821 174.645 108.524 174.588 112.23 174.531ZM36.5841 176.159C36.5841 176.18 36.5841 176.205 36.5841 176.227C37.4981 176.227 38.4086 176.234 39.3226 176.227C40.2652 176.22 41.2042 176.198 42.1468 176.177C42.2253 176.177 42.3039 176.134 42.3824 176.113C42.336 176.023 42.311 175.909 42.2396 175.852C41.8825 175.566 41.4898 175.327 41.1578 175.02C40.5365 174.438 40.0081 173.738 39.3261 173.246C38.6942 172.789 38.6942 172.264 38.7263 171.61C38.7727 170.564 38.737 169.515 38.7299 168.465C38.7263 168.054 38.5407 167.865 38.1086 167.829C36.4484 167.69 36.4484 167.676 35.3559 169.018C35.3202 169.061 35.2845 169.108 35.2488 169.15C33.4743 171.153 31.6962 173.16 29.9182 175.163C29.7111 175.399 29.479 175.613 29.2826 175.856C29.2005 175.956 29.1148 176.13 29.1505 176.22C29.1862 176.309 29.379 176.38 29.5004 176.377C30.5251 176.363 31.5498 176.338 32.571 176.305C33.9063 176.259 35.2452 176.209 36.5841 176.159ZM136.259 111.017C136.259 111.003 136.259 110.989 136.259 110.978C137.851 110.978 139.444 110.989 141.036 110.971C141.747 110.964 141.839 110.835 141.747 110.15C141.614 109.164 141.482 108.175 141.325 107.193C141.197 106.397 141.143 106.369 140.329 106.393C138.512 106.447 136.691 106.508 134.874 106.554C134.192 106.572 133.51 106.551 132.824 106.554C132.549 106.554 132.278 106.601 132.339 106.972C132.442 107.611 132.11 108.129 131.871 108.668C131.617 109.239 131.332 109.796 131.089 110.371C130.878 110.874 131 111.017 131.564 111.017C133.128 111.014 134.695 111.017 136.259 111.017ZM108.813 106.04C108.813 106.026 108.813 106.011 108.813 105.997C108.046 105.997 107.278 106.019 106.51 105.986C106.146 105.972 105.932 106.09 105.753 106.397C105.193 107.354 104.607 108.297 104.04 109.25C103.915 109.46 103.832 109.696 103.729 109.921C103.993 109.978 104.257 110.075 104.522 110.082C107.335 110.164 110.149 110.235 112.962 110.303C113.587 110.317 114.215 110.314 114.84 110.296C115.483 110.278 115.597 110.128 115.276 109.603C114.801 108.829 114.676 108.047 114.883 107.158C115.079 106.322 115.011 106.272 114.18 106.24C112.394 106.165 110.606 106.104 108.813 106.04Z" fill="#462683"/>
<path d="M123.935 24.403C124.613 24.4851 125.295 24.5387 125.966 24.6494C129.133 25.1849 131.854 26.5988 134.021 28.9731C135.667 30.7726 136.738 32.9006 137.224 35.3034C137.391 36.1389 137.534 36.9815 137.674 37.8241C137.706 38.0205 137.706 38.224 137.691 38.4204C137.563 40.1806 137.452 41.9408 136.742 43.5975C136.131 45.0185 135.306 46.286 134.353 47.5106C133.471 48.6424 132.372 49.4779 131.215 50.2384C130.297 50.8418 129.283 51.3524 128.244 51.6987C127.091 52.0807 125.873 52.3235 124.663 52.4628C122.528 52.7055 120.464 52.3021 118.493 51.4488C117.865 51.1774 117.244 50.8882 116.644 50.5597C114.455 49.3565 112.877 47.5535 111.656 45.4112C110.696 43.7331 110.024 41.9694 109.871 40.0164C109.724 38.149 109.91 36.346 110.496 34.5537C111.192 32.4257 112.324 30.5691 113.816 28.941C114.898 27.7592 116.212 26.8416 117.626 26.0775C119.589 25.0136 121.692 24.4744 123.935 24.403ZM123.885 51.3631C131.893 51.306 136.974 44.565 136.563 37.5028C136.199 31.201 130.436 25.0921 122.656 25.7491C115.658 26.3382 110.846 32.0151 111.049 38.9488C111.274 46.768 117.611 51.6237 123.885 51.3631Z" fill="#462683"/>
<path d="M205.705 91.4698C203.306 91.5947 200.703 90.9521 198.15 89.9702C196.265 89.2454 194.602 88.16 193.02 86.9425C192.167 86.2856 191.342 85.5715 190.61 84.786C189.978 84.1112 189.474 83.3114 188.957 82.5367C188.514 81.8797 188.089 81.2049 187.732 80.4979C187.296 79.6375 186.886 78.7592 186.568 77.8523C186.233 76.8883 186.018 75.8814 185.754 74.896C185.726 74.7853 185.672 74.6746 185.668 74.5639C185.643 73.4607 185.626 72.361 185.608 71.2578C185.601 70.7472 185.565 70.2331 185.593 69.7225C185.754 67.1482 186.554 64.7632 187.707 62.471C188.585 60.7215 189.714 59.1648 191.063 57.751C192.984 55.7408 195.237 54.2234 197.786 53.1344C198.886 52.6631 199.996 52.2061 201.121 51.8098C202.603 51.2885 204.163 51.4135 205.698 51.3956C208.098 51.3707 210.415 51.8455 212.628 52.7238C214.967 53.6486 217.081 54.9411 218.927 56.6977C220.448 58.1437 221.747 59.7504 222.776 61.5499C223.461 62.7495 223.997 64.0527 224.468 65.3559C225.161 67.2661 225.414 69.2762 225.51 71.3006C225.539 71.8933 225.478 72.4931 225.418 73.0858C225.189 75.3102 224.725 77.4738 223.807 79.5268C222.975 81.387 221.922 83.1151 220.558 84.6218C218.791 86.5748 216.824 88.3064 214.342 89.3382C213.371 89.7417 212.425 90.2344 211.425 90.5415C209.686 91.0877 207.898 91.4448 205.705 91.4698ZM206.459 90.2273C206.462 90.1951 206.462 90.1594 206.466 90.1273C206.866 90.1059 207.269 90.1166 207.658 90.0523C211.44 89.4097 214.881 88.0422 217.756 85.4037C219.869 83.4614 221.537 81.2049 222.593 78.5449C224.139 74.6568 224.411 70.6579 223.422 66.577C223.043 65.0203 222.518 63.5457 221.729 62.1425C220.912 60.693 219.969 59.3148 218.787 58.1865C216.909 56.3978 214.785 54.9625 212.311 53.9985C209.158 52.7667 205.934 52.631 202.642 52.8238C202.36 52.8417 202.078 52.9166 201.803 52.988C199.746 53.5093 197.808 54.2805 195.983 55.3909C192.713 57.3832 190.331 60.1574 188.696 63.5707C187.511 66.0414 187.047 68.7121 186.914 71.4327C186.879 72.1397 186.886 72.8609 186.997 73.5535C187.175 74.6746 187.432 75.785 187.707 76.8883C188.161 78.702 188.935 80.398 189.953 81.9475C190.978 83.5149 192.159 84.9681 193.663 86.1463C194.859 87.0818 196.105 87.9458 197.49 88.5349C199.107 89.224 200.75 89.8881 202.556 89.9595C203.86 90.0095 205.159 90.1344 206.459 90.2273Z" fill="#462683"/>
<path d="M56.3835 136.453C54.4948 136.41 52.6274 136.239 50.7708 135.885C48.8821 135.524 47.0755 134.943 45.451 133.886C44.7904 133.454 44.3156 132.843 43.9764 132.15C43.6015 131.386 43.8014 130.629 44.2977 129.994C45.0368 129.048 46.0615 128.469 47.1719 128.066C49.0856 127.373 51.0708 127.052 53.0987 126.873C55.2445 126.684 57.3618 126.734 59.4862 127.034C61.2107 127.28 62.9102 127.62 64.5383 128.266C64.8025 128.369 65.0953 128.402 65.3559 128.509C66.5663 129.012 67.6124 129.662 67.9659 131.072C68.2943 132.372 67.7267 133.347 66.652 134.043C64.5954 135.375 62.2711 135.928 59.8682 136.178C58.715 136.303 57.5475 136.364 56.3835 136.453ZM56.3228 127.809C55.8979 127.834 55.4695 127.887 55.0446 127.88C52.4561 127.848 49.9532 128.316 47.5182 129.162C46.6863 129.451 45.883 129.844 45.2617 130.505C44.644 131.161 44.6583 132.051 45.3724 132.597C45.9508 133.04 46.597 133.443 47.2754 133.707C49.7426 134.664 52.3418 135.003 54.9625 135.082C57.8759 135.167 60.7679 134.932 63.5707 134.046C64.5347 133.743 65.4166 133.289 66.2199 132.69C67.059 132.061 67.2197 131.297 66.5234 130.683C65.8093 130.051 65.006 129.419 64.1313 129.091C61.6284 128.155 58.9792 127.923 56.3228 127.809Z" fill="#462683"/>
<path d="M84.3964 153.798C86.0173 153.869 88.4416 153.976 90.7624 154.783C91.6443 155.09 92.5155 155.458 93.3474 155.883C93.7865 156.108 94.1936 156.465 94.5113 156.85C95.3111 157.829 95.1576 159.071 94.1578 159.864C93.2724 160.564 92.2441 160.996 91.1623 161.285C88.5845 161.97 85.9566 162.32 83.2896 162.188C80.6974 162.06 78.1161 161.835 75.6561 160.889C74.6813 160.514 73.7887 160.035 73.0854 159.257C72.0964 158.164 72.2249 157.004 73.4067 156.108C74.742 155.097 76.3059 154.655 77.8983 154.316C79.7692 153.916 81.6757 153.766 84.3964 153.798ZM82.2434 160.831C85.6567 160.803 87.9596 160.696 90.2054 160.085C91.3122 159.785 92.3869 159.393 93.251 158.6C93.9436 157.964 93.9365 157.472 93.1724 156.925C92.669 156.568 92.087 156.301 91.5015 156.083C89.5592 155.365 87.5205 155.13 85.4675 155.008C83.4717 154.89 81.4794 154.972 79.4978 155.219C77.8768 155.422 76.3094 155.844 74.8349 156.554C74.5064 156.711 74.1922 156.933 73.928 157.186C73.296 157.797 73.3424 158.272 74.0172 158.821C74.7706 159.432 75.6775 159.7 76.5808 159.95C78.7944 160.564 81.0474 160.853 82.2434 160.831Z" fill="#462683"/>
<path d="M105.365 168.29C105.736 168.369 106.411 168.476 107.061 168.665C107.886 168.904 108.353 169.543 108.385 170.35C108.414 171.203 107.928 171.771 107.229 172.089C106.122 172.592 104.929 172.76 103.726 172.553C103.091 172.442 102.466 172.235 101.862 172.003C101.627 171.91 101.409 171.66 101.273 171.428C100.634 170.329 100.852 169.557 102.002 168.993C102.958 168.522 103.99 168.322 105.365 168.29ZM104.244 171.46C104.254 171.432 104.262 171.403 104.272 171.375C104.751 171.325 105.247 171.339 105.7 171.211C106.207 171.071 106.725 170.871 107.154 170.571C107.582 170.275 107.514 170.014 107.079 169.729C105.9 168.958 103.476 169.075 102.326 169.957C101.802 170.361 101.812 170.782 102.448 171.032C103.016 171.264 103.644 171.328 104.244 171.46Z" fill="#462683"/>
<path d="M124.303 26.4776C125.525 26.499 126.706 26.6097 127.835 27.0881C127.992 27.156 128.16 27.2024 128.306 27.2881C130.173 28.3842 131.998 29.4946 133.233 31.3976C134.097 32.7294 134.847 34.0861 135.186 35.6285C135.839 38.6098 135.461 41.4554 133.965 44.1439C132.523 46.7396 130.437 48.6355 127.66 49.6281C125.814 50.2886 123.868 50.5742 121.865 50.3064C120.48 50.1243 119.191 49.6459 117.995 49.0247C115.602 47.7857 113.842 45.9291 112.871 43.3335C112.218 41.5911 111.857 39.8523 111.961 37.9921C112.082 35.8892 112.743 33.9647 113.849 32.2045C115.56 29.491 117.959 27.638 121.09 26.8596C122.129 26.6061 123.232 26.599 124.303 26.4776ZM113.385 38.849C113.414 40.5235 113.821 42.0874 114.51 43.6227C115.999 46.9574 120.787 50.0494 124.775 49.1353C126.099 48.8319 127.37 48.4427 128.52 47.7822C131.462 46.0969 133.187 43.487 133.84 40.1844C134.297 37.8672 134.133 35.5964 133.065 33.4363C131.894 31.0656 130.166 29.3018 127.638 28.4128C126.996 28.1878 126.328 28.0343 125.664 27.8843C125.171 27.7737 124.668 27.638 124.171 27.6523C122.322 27.7094 120.587 28.1628 118.951 29.084C117.073 30.1408 115.677 31.6511 114.656 33.4899C113.735 35.1394 113.375 36.9603 113.385 38.849Z" fill="#462683"/>
</svg>
